<?xml version="1.0" encoding="UTF-8" standalone="no"?><!DOCTYPE svg PUBLIC "-//W3C//DTD SVG 1.1//EN" "http://www.w3.org/Graphics/SVG/1.1/DTD/svg11.dtd"><svg width="100%" height="100%" viewBox="0 0 1067 1067" version="1.1" xmlns="http://www.w3.org/2000/svg" xmlns:xlink="http://www.w3.org/1999/xlink" xml:space="preserve" xmlns:serif="http://www.serif.com/" style="fill-rule:evenodd;clip-rule:evenodd;stroke-linejoin:round;stroke-miterlimit:2;"><rect id="icon-halo" x="0" y="0" width="1066.67" height="1066.67" style="fill:none;"/><path d="M399.383,488.657l-267.872,525.373l-25.985,-13.248l271.931,-533.333l12.992,-7.959l271.93,0l0,29.167l-262.996,0Z"/><path d="M948.144,1007.41l-285.754,-533.332l285.754,533.332Z" style="fill-rule:nonzero;"/><path d="M960.998,1000.52l-25.709,13.775l-285.753,-533.333l25.709,-13.774l285.753,533.332Z"/><path d="M961.003,1000.52l-285.769,-533.333l-25.709,13.775l285.769,533.333l25.709,-13.775Z"/><path d="M662.379,474.073l-135.965,237.037" style="fill:none;fill-rule:nonzero;"/><path d="M649.729,466.817l-135.965,237.037l25.3,14.512l135.965,-237.036l-25.3,-14.513Z"/><path d="M768.054,126.04l-91.562,351.708l-28.225,-7.349l107.99,-414.814l28.447,0.987l177.778,948.147l-22.717,14.62l-413.209,-290.307l-399.467,290.173l-22.904,-14.486l177.778,-948.147l28.555,-0.541l93.669,412.683l133.264,232.327l389.76,273.833l-159.157,-848.834Zm-470.397,5.097l-158.049,842.925l367.641,-267.055l-129.45,-225.677l-1.572,-4.029l-78.57,-346.164Z"/></svg>