<?xml version="1.0" encoding="utf-8"?><svg xmlns="http://www.w3.org/2000/svg" xmlns:xlink="http://www.w3.org/1999/xlink"><symbol viewBox="0 0 256 256" fill="currentColor" id="ph--copyright--thin" xmlns="http://www.w3.org/2000/svg"><path d="M128 28a100 100 0 1 0 100 100A100.11 100.11 0 0 0 128 28Zm0 192a92 92 0 1 1 92-92 92.1 92.1 0 0 1-92 92Zm35.2-65.59a44 44 0 1 1 0-52.82 4 4 0 0 1-6.4 4.81 36 36 0 1 0 0 43.2 4 4 0 0 1 6.4 4.81Z"/></symbol><symbol viewBox="0 0 256 256" fill="currentColor" id="ph--magnifying-glass--regular" xmlns="http://www.w3.org/2000/svg"><path d="m229.66 218.34-50.07-50.06a88.11 88.11 0 1 0-11.31 11.31l50.06 50.07a8 8 0 0 0 11.32-11.32ZM40 112a72 72 0 1 1 72 72 72.08 72.08 0 0 1-72-72Z"/></symbol></svg>