<?xml version="1.0" encoding="utf-8"?><svg xmlns="http://www.w3.org/2000/svg" xmlns:xlink="http://www.w3.org/1999/xlink"><symbol viewBox="0 0 256 256" fill="currentColor" id="ph--arrow-down--regular" xmlns="http://www.w3.org/2000/svg"><path d="m205.66 149.66-72 72a8 8 0 0 1-11.32 0l-72-72a8 8 0 0 1 11.32-11.32L120 196.69V40a8 8 0 0 1 16 0v156.69l58.34-58.35a8 8 0 0 1 11.32 11.32Z"/></symbol><symbol viewBox="0 0 256 256" fill="currentColor" id="ph--caret-down--bold" xmlns="http://www.w3.org/2000/svg"><path d="m216.49 104.49-80 80a12 12 0 0 1-17 0l-80-80a12 12 0 0 1 17-17L128 159l71.51-71.52a12 12 0 0 1 17 17Z"/></symbol><symbol viewBox="0 0 256 256" fill="currentColor" id="ph--caret-right--bold" xmlns="http://www.w3.org/2000/svg"><path d="m184.49 136.49-80 80a12 12 0 0 1-17-17L159 128 87.51 56.49a12 12 0 1 1 17-17l80 80a12 12 0 0 1-.02 17Z"/></symbol><symbol viewBox="0 0 256 256" fill="currentColor" id="ph--caret-up--bold" xmlns="http://www.w3.org/2000/svg"><path d="M216.49 168.49a12 12 0 0 1-17 0L128 97l-71.51 71.49a12 12 0 0 1-17-17l80-80a12 12 0 0 1 17 0l80 80a12 12 0 0 1 0 17Z"/></symbol><symbol viewBox="0 0 256 256" fill="currentColor" id="ph--check--regular" xmlns="http://www.w3.org/2000/svg"><path d="m229.66 77.66-128 128a8 8 0 0 1-11.32 0l-56-56a8 8 0 0 1 11.32-11.32L96 188.69 218.34 66.34a8 8 0 0 1 11.32 11.32Z"/></symbol><symbol viewBox="0 0 256 256" fill="currentColor" id="ph--check-circle--duotone" xmlns="http://www.w3.org/2000/svg"><path d="M224 128a96 96 0 1 1-96-96 96 96 0 0 1 96 96Z" opacity=".2"/><path d="M173.66 98.34a8 8 0 0 1 0 11.32l-56 56a8 8 0 0 1-11.32 0l-24-24a8 8 0 0 1 11.32-11.32L112 148.69l50.34-50.35a8 8 0 0 1 11.32 0ZM232 128A104 104 0 1 1 128 24a104.11 104.11 0 0 1 104 104Zm-16 0a88 88 0 1 0-88 88 88.1 88.1 0 0 0 88-88Z"/></symbol><symbol viewBox="0 0 256 256" fill="currentColor" id="ph--circle-notch--bold" xmlns="http://www.w3.org/2000/svg"><path d="M236 128a108 108 0 0 1-216 0c0-42.52 24.73-81.34 63-98.9a12 12 0 1 1 10 21.81C63.24 64.57 44 94.83 44 128a84 84 0 0 0 168 0c0-33.17-19.24-63.43-49-77.09a12 12 0 1 1 10-21.81c38.27 17.56 63 56.38 63 98.9Z"/></symbol><symbol viewBox="0 0 256 256" fill="currentColor" id="ph--clipboard--regular" xmlns="http://www.w3.org/2000/svg"><path d="M200 32h-36.26a47.92 47.92 0 0 0-71.48 0H56a16 16 0 0 0-16 16v168a16 16 0 0 0 16 16h144a16 16 0 0 0 16-16V48a16 16 0 0 0-16-16Zm-72 0a32 32 0 0 1 32 32H96a32 32 0 0 1 32-32Zm72 184H56V48h26.75A47.93 47.93 0 0 0 80 64v8a8 8 0 0 0 8 8h80a8 8 0 0 0 8-8v-8a47.93 47.93 0 0 0-2.75-16H200Z"/></symbol><symbol viewBox="0 0 256 256" fill="currentColor" id="ph--code--regular" xmlns="http://www.w3.org/2000/svg"><path d="M69.12 94.15 28.5 128l40.62 33.85a8 8 0 1 1-10.24 12.29l-48-40a8 8 0 0 1 0-12.29l48-40a8 8 0 0 1 10.24 12.3Zm176 27.7-48-40a8 8 0 1 0-10.24 12.3L227.5 128l-40.62 33.85a8 8 0 1 0 10.24 12.29l48-40a8 8 0 0 0 0-12.29Zm-82.39-89.37a8 8 0 0 0-10.25 4.79l-64 176a8 8 0 0 0 4.79 10.26A8.14 8.14 0 0 0 96 224a8 8 0 0 0 7.52-5.27l64-176a8 8 0 0 0-4.79-10.25Z"/></symbol><symbol viewBox="0 0 256 256" fill="currentColor" id="ph--code-block--regular" xmlns="http://www.w3.org/2000/svg"><path d="m58.34 101.66-32-32a8 8 0 0 1 0-11.32l32-32a8 8 0 0 1 11.32 11.32L43.31 64l26.35 26.34a8 8 0 0 1-11.32 11.32Zm40 0a8 8 0 0 0 11.32 0l32-32a8 8 0 0 0 0-11.32l-32-32a8 8 0 0 0-11.32 11.32L124.69 64 98.34 90.34a8 8 0 0 0 0 11.32ZM200 40h-24a8 8 0 0 0 0 16h24v144H56v-64a8 8 0 0 0-16 0v64a16 16 0 0 0 16 16h144a16 16 0 0 0 16-16V56a16 16 0 0 0-16-16Z"/></symbol><symbol viewBox="0 0 256 256" fill="currentColor" id="ph--copy--regular" xmlns="http://www.w3.org/2000/svg"><path d="M216 32H88a8 8 0 0 0-8 8v40H40a8 8 0 0 0-8 8v128a8 8 0 0 0 8 8h128a8 8 0 0 0 8-8v-40h40a8 8 0 0 0 8-8V40a8 8 0 0 0-8-8Zm-56 176H48V96h112Zm48-48h-32V88a8 8 0 0 0-8-8H96V48h112Z"/></symbol><symbol viewBox="0 0 256 256" fill="currentColor" id="ph--dot--bold" xmlns="http://www.w3.org/2000/svg"><path d="M144 128a16 16 0 1 1-16-16 16 16 0 0 1 16 16Z"/></symbol><symbol viewBox="0 0 256 256" fill="currentColor" id="ph--dots-three-vertical--regular" xmlns="http://www.w3.org/2000/svg"><path d="M140 128a12 12 0 1 1-12-12 12 12 0 0 1 12 12Zm-12-56a12 12 0 1 0-12-12 12 12 0 0 0 12 12Zm0 112a12 12 0 1 0 12 12 12 12 0 0 0-12-12Z"/></symbol><symbol viewBox="0 0 256 256" fill="currentColor" id="ph--eye--regular" xmlns="http://www.w3.org/2000/svg"><path d="M247.31 124.76c-.35-.79-8.82-19.58-27.65-38.41C194.57 61.26 162.88 48 128 48S61.43 61.26 36.34 86.35C17.51 105.18 9 124 8.69 124.76a8 8 0 0 0 0 6.5c.35.79 8.82 19.57 27.65 38.4C61.43 194.74 93.12 208 128 208s66.57-13.26 91.66-38.34c18.83-18.83 27.3-37.61 27.65-38.4a8 8 0 0 0 0-6.5ZM128 192c-30.78 0-57.67-11.19-79.93-33.25A133.47 133.47 0 0 1 25 128a133.33 133.33 0 0 1 23.07-30.75C70.33 75.19 97.22 64 128 64s57.67 11.19 79.93 33.25A133.46 133.46 0 0 1 231.05 128c-7.21 13.46-38.62 64-103.05 64Zm0-112a48 48 0 1 0 48 48 48.05 48.05 0 0 0-48-48Zm0 80a32 32 0 1 1 32-32 32 32 0 0 1-32 32Z"/></symbol><symbol viewBox="0 0 256 256" fill="currentColor" id="ph--image-square--regular" xmlns="http://www.w3.org/2000/svg"><path d="M208 32H48a16 16 0 0 0-16 16v160a16 16 0 0 0 16 16h160a16 16 0 0 0 16-16V48a16 16 0 0 0-16-16ZM48 48h160v77.38l-24.69-24.7a16 16 0 0 0-22.62 0L53.37 208H48Zm160 160H76l96-96 36 36v60ZM96 120a24 24 0 1 0-24-24 24 24 0 0 0 24 24Zm0-32a8 8 0 1 1-8 8 8 8 0 0 1 8-8Z"/></symbol><symbol viewBox="0 0 256 256" fill="currentColor" id="ph--info--duotone" xmlns="http://www.w3.org/2000/svg"><path d="M224 128a96 96 0 1 1-96-96 96 96 0 0 1 96 96Z" opacity=".2"/><path d="M144 176a8 8 0 0 1-8 8 16 16 0 0 1-16-16v-40a8 8 0 0 1 0-16 16 16 0 0 1 16 16v40a8 8 0 0 1 8 8Zm88-48A104 104 0 1 1 128 24a104.11 104.11 0 0 1 104 104Zm-16 0a88 88 0 1 0-88 88 88.1 88.1 0 0 0 88-88Zm-92-32a12 12 0 1 0-12-12 12 12 0 0 0 12 12Z"/></symbol><symbol viewBox="0 0 256 256" fill="currentColor" id="ph--lego--regular" xmlns="http://www.w3.org/2000/svg"><path d="M243.58 72.84 197.29 49.7C191.54 39.24 177.21 32 160 32c-22.43 0-40 12.3-40 28a20.77 20.77 0 0 0 1.06 6.53l-19.52 9.76A53.69 53.69 0 0 0 80 72c-22.43 0-40 12.3-40 28a20.77 20.77 0 0 0 1.06 6.53l-28.64 14.31A8 8 0 0 0 8 128v64a8 8 0 0 0 4.42 7.16l64 32a8 8 0 0 0 7.16 0l160-80A8 8 0 0 0 248 144V80a8 8 0 0 0-4.42-7.16ZM80 151.06 33.89 128 51 119.45c7.24 5.29 17.48 8.55 29 8.55 22.43 0 40-12.3 40-28a21.77 21.77 0 0 0-4.35-12.88L131 79.45c7.24 5.29 17.48 8.55 29 8.55 18.38 0 33.49-8.26 38.35-19.88L222.11 80ZM160 48c13.74 0 24 6.34 24 12s-10.26 12-24 12-24-6.34-24-12 10.26-12 24-12ZM80 88c13.74 0 24 6.34 24 12s-10.26 12-24 12c-9.67 0-17.61-3.14-21.47-7a8.29 8.29 0 0 0-.84-.93A6.62 6.62 0 0 1 56 100c0-5.66 10.26-12 24-12Zm-56 52.94 48 24v46.12l-48-24Zm64 70.12v-46.12l144-72v46.12Z"/></symbol><symbol viewBox="0 0 256 256" fill="currentColor" id="ph--lightning--regular" xmlns="http://www.w3.org/2000/svg"><path d="M215.79 118.17a8 8 0 0 0-5-5.66L153.18 90.9l14.66-73.33a8 8 0 0 0-13.69-7l-112 120a8 8 0 0 0 3 13l57.63 21.61-14.62 73.25a8 8 0 0 0 13.69 7l112-120a8 8 0 0 0 1.94-7.26ZM109.37 214l10.47-52.38a8 8 0 0 0-5-9.06L62 132.71l84.62-90.66-10.46 52.38a8 8 0 0 0 5 9.06l52.8 19.8Z"/></symbol><symbol viewBox="0 0 256 256" fill="currentColor" id="ph--link--regular" xmlns="http://www.w3.org/2000/svg"><path d="M240 88.23a54.43 54.43 0 0 1-16 37L189.25 160a54.27 54.27 0 0 1-38.63 16h-.05A54.63 54.63 0 0 1 96 119.84a8 8 0 0 1 16 .45A38.62 38.62 0 0 0 150.58 160a38.39 38.39 0 0 0 27.31-11.31l34.75-34.75a38.63 38.63 0 0 0-54.63-54.63l-11 11A8 8 0 0 1 135.7 59l11-11a54.65 54.65 0 0 1 77.3 0 54.86 54.86 0 0 1 16 40.23Zm-131 97.43-11 11A38.41 38.41 0 0 1 70.6 208a38.63 38.63 0 0 1-27.29-65.94L78 107.31a38.63 38.63 0 0 1 66 28.4 8 8 0 0 0 16 .45A54.86 54.86 0 0 0 144 96a54.65 54.65 0 0 0-77.27 0L32 130.75A54.62 54.62 0 0 0 70.56 224a54.28 54.28 0 0 0 38.64-16l11-11a8 8 0 0 0-11.2-11.34Z"/></symbol><symbol viewBox="0 0 256 256" fill="currentColor" id="ph--list-bullets--regular" xmlns="http://www.w3.org/2000/svg"><path d="M80 64a8 8 0 0 1 8-8h128a8 8 0 0 1 0 16H88a8 8 0 0 1-8-8Zm136 56H88a8 8 0 0 0 0 16h128a8 8 0 0 0 0-16Zm0 64H88a8 8 0 0 0 0 16h128a8 8 0 0 0 0-16ZM44 52a12 12 0 1 0 12 12 12 12 0 0 0-12-12Zm0 64a12 12 0 1 0 12 12 12 12 0 0 0-12-12Zm0 64a12 12 0 1 0 12 12 12 12 0 0 0-12-12Z"/></symbol><symbol viewBox="0 0 256 256" fill="currentColor" id="ph--list-checks--regular" xmlns="http://www.w3.org/2000/svg"><path d="M224 128a8 8 0 0 1-8 8h-88a8 8 0 0 1 0-16h88a8 8 0 0 1 8 8Zm-96-56h88a8 8 0 0 0 0-16h-88a8 8 0 0 0 0 16Zm88 112h-88a8 8 0 0 0 0 16h88a8 8 0 0 0 0-16ZM82.34 42.34 56 68.69 45.66 58.34a8 8 0 0 0-11.32 11.32l16 16a8 8 0 0 0 11.32 0l32-32a8 8 0 0 0-11.32-11.32Zm0 64L56 132.69l-10.34-10.35a8 8 0 0 0-11.32 11.32l16 16a8 8 0 0 0 11.32 0l32-32a8 8 0 0 0-11.32-11.32Zm0 64L56 196.69l-10.34-10.35a8 8 0 0 0-11.32 11.32l16 16a8 8 0 0 0 11.32 0l32-32a8 8 0 0 0-11.32-11.32Z"/></symbol><symbol viewBox="0 0 256 256" fill="currentColor" id="ph--list-numbers--regular" xmlns="http://www.w3.org/2000/svg"><path d="M224 128a8 8 0 0 1-8 8H104a8 8 0 0 1 0-16h112a8 8 0 0 1 8 8ZM104 72h112a8 8 0 0 0 0-16H104a8 8 0 0 0 0 16Zm112 112H104a8 8 0 0 0 0 16h112a8 8 0 0 0 0-16ZM43.58 55.16 48 52.94V104a8 8 0 0 0 16 0V40a8 8 0 0 0-11.58-7.16l-16 8a8 8 0 0 0 7.16 14.32Zm36.19 101.56a23.73 23.73 0 0 0-9.6-15.95 24.86 24.86 0 0 0-34.11 4.7 23.63 23.63 0 0 0-3.57 6.46 8 8 0 1 0 15 5.47 7.84 7.84 0 0 1 1.18-2.13 8.76 8.76 0 0 1 12-1.59 7.91 7.91 0 0 1 3.26 5.32 7.64 7.64 0 0 1-1.57 5.78 1 1 0 0 0-.08.11l-28.69 38.32A8 8 0 0 0 40 216h32a8 8 0 0 0 0-16H56l19.08-25.53a23.47 23.47 0 0 0 4.69-17.75Z"/></symbol><symbol viewBox="0 0 256 256" fill="currentColor" id="ph--magnifying-glass--regular" xmlns="http://www.w3.org/2000/svg"><path d="m229.66 218.34-50.07-50.06a88.11 88.11 0 1 0-11.31 11.31l50.06 50.07a8 8 0 0 0 11.32-11.32ZM40 112a72 72 0 1 1 72 72 72.08 72.08 0 0 1-72-72Z"/></symbol><symbol viewBox="0 0 256 256" fill="currentColor" id="ph--minus--regular" xmlns="http://www.w3.org/2000/svg"><path d="M224 128a8 8 0 0 1-8 8H40a8 8 0 0 1 0-16h176a8 8 0 0 1 8 8Z"/></symbol><symbol viewBox="0 0 256 256" fill="currentColor" id="ph--paragraph--regular" xmlns="http://www.w3.org/2000/svg"><path d="M208 40H96a64 64 0 0 0 0 128h40v40a8 8 0 0 0 16 0V56h24v152a8 8 0 0 0 16 0V56h16a8 8 0 0 0 0-16Zm-72 112H96a48 48 0 0 1 0-96h40Z"/></symbol><symbol viewBox="0 0 256 256" fill="currentColor" id="ph--pencil-simple--regular" xmlns="http://www.w3.org/2000/svg"><path d="m227.31 73.37-44.68-44.69a16 16 0 0 0-22.63 0L36.69 152A15.86 15.86 0 0 0 32 163.31V208a16 16 0 0 0 16 16h44.69a15.86 15.86 0 0 0 11.31-4.69L227.31 96a16 16 0 0 0 0-22.63ZM92.69 208H48v-44.69l88-88L180.69 120ZM192 108.68 147.31 64l24-24L216 84.68Z"/></symbol><symbol viewBox="0 0 256 256" fill="currentColor" id="ph--pencil-slash--regular" xmlns="http://www.w3.org/2000/svg"><path d="M53.92 34.62a8 8 0 1 0-11.84 10.76l48.2 53L36.68 152A15.89 15.89 0 0 0 32 163.31V208a16 16 0 0 0 16 16h44.69a15.86 15.86 0 0 0 11.31-4.69l50.4-50.39 47.69 52.46a8 8 0 1 0 11.84-10.76Zm63 93.12L68 176.69 51.31 160l49.75-49.74ZM48 179.31 76.69 208H48Zm48 25.38L79.32 188l48.41-48.41 15.89 17.48ZM227.32 73.37l-44.69-44.68a16 16 0 0 0-22.63 0l-41.67 41.67a8 8 0 0 0 11.32 11.31l6.35-6.36L152.69 92 145 99.69A8 8 0 1 0 156.31 111l7.69-7.69L180.69 120l-9 9A8 8 0 0 0 183 140.34L227.32 96a16 16 0 0 0 0-22.63ZM192 108.69 147.32 64l24-24L216 84.69Z"/></symbol><symbol viewBox="0 0 256 256" fill="currentColor" id="ph--placeholder--regular" xmlns="http://www.w3.org/2000/svg"><path d="M208 32H48a16 16 0 0 0-16 16v160a16 16 0 0 0 16 16h160a16 16 0 0 0 16-16V48a16 16 0 0 0-16-16ZM48 208V59.31L196.69 208ZM59.31 48H208v148.7Z"/></symbol><symbol viewBox="0 0 256 256" fill="currentColor" id="ph--quotes--regular" xmlns="http://www.w3.org/2000/svg"><path d="M100 56H40a16 16 0 0 0-16 16v64a16 16 0 0 0 16 16h60v8a32 32 0 0 1-32 32 8 8 0 0 0 0 16 48.05 48.05 0 0 0 48-48V72a16 16 0 0 0-16-16Zm0 80H40V72h60Zm116-80h-60a16 16 0 0 0-16 16v64a16 16 0 0 0 16 16h60v8a32 32 0 0 1-32 32 8 8 0 0 0 0 16 48.05 48.05 0 0 0 48-48V72a16 16 0 0 0-16-16Zm0 80h-60V72h60Z"/></symbol><symbol viewBox="0 0 256 256" fill="currentColor" id="ph--table--regular" xmlns="http://www.w3.org/2000/svg"><path d="M224 48H32a8 8 0 0 0-8 8v136a16 16 0 0 0 16 16h176a16 16 0 0 0 16-16V56a8 8 0 0 0-8-8ZM40 112h40v32H40Zm56 0h120v32H96Zm120-48v32H40V64ZM40 160h40v32H40Zm176 32H96v-32h120v32Z"/></symbol><symbol viewBox="0 0 256 256" fill="currentColor" id="ph--text-b--regular" xmlns="http://www.w3.org/2000/svg"><path d="M178.48 115.7A44 44 0 0 0 148 40H80a8 8 0 0 0-8 8v152a8 8 0 0 0 8 8h80a48 48 0 0 0 18.48-92.3ZM88 56h60a28 28 0 0 1 0 56H88Zm72 136H88v-64h72a32 32 0 0 1 0 64Z"/></symbol><symbol viewBox="0 0 256 256" fill="currentColor" id="ph--text-h--regular" xmlns="http://www.w3.org/2000/svg"><path d="M208 56v144a8 8 0 0 1-16 0v-64H64v64a8 8 0 0 1-16 0V56a8 8 0 0 1 16 0v64h128V56a8 8 0 0 1 16 0Z"/></symbol><symbol viewBox="0 0 256 256" fill="currentColor" id="ph--text-h-five--regular" xmlns="http://www.w3.org/2000/svg"><path d="M152 56v120a8 8 0 0 1-16 0v-52H48v52a8 8 0 0 1-16 0V56a8 8 0 0 1 16 0v52h88V56a8 8 0 0 1 16 0Zm60 88a38.8 38.8 0 0 0-9.41 1.14l4.19-25.14H240a8 8 0 0 0 0-16h-40a8 8 0 0 0-7.89 6.68l-8 48a8 8 0 0 0 13.6 6.92A19.73 19.73 0 0 1 212 160a20 20 0 0 1 0 40 19.73 19.73 0 0 1-14.29-5.6 8 8 0 1 0-11.42 11.2A35.54 35.54 0 0 0 212 216a36 36 0 0 0 0-72Z"/></symbol><symbol viewBox="0 0 256 256" fill="currentColor" id="ph--text-h-four--regular" xmlns="http://www.w3.org/2000/svg"><path d="M152 56v120a8 8 0 0 1-16 0v-52H48v52a8 8 0 0 1-16 0V56a8 8 0 0 1 16 0v52h88V56a8 8 0 0 1 16 0Zm104 128a8 8 0 0 1-8 8h-8v16a8 8 0 0 1-16 0v-16h-48a8 8 0 0 1-6.31-12.91l56-72A8 8 0 0 1 240 112v64h8a8 8 0 0 1 8 8Zm-32-48.68L192.36 176H224Z"/></symbol><symbol viewBox="0 0 256 256" fill="currentColor" id="ph--text-h-one--regular" xmlns="http://www.w3.org/2000/svg"><path d="M152 56v120a8 8 0 0 1-16 0v-52H48v52a8 8 0 0 1-16 0V56a8 8 0 0 1 16 0v52h88V56a8 8 0 0 1 16 0Zm75.77 49a8 8 0 0 0-8.21.39l-24 16a8 8 0 1 0 8.88 13.32L216 127v81a8 8 0 0 0 16 0v-96a8 8 0 0 0-4.23-7Z"/></symbol><symbol viewBox="0 0 256 256" fill="currentColor" id="ph--text-h-six--regular" xmlns="http://www.w3.org/2000/svg"><path d="M152 56v120a8 8 0 0 1-16 0v-52H48v52a8 8 0 0 1-16 0V56a8 8 0 0 1 16 0v52h88V56a8 8 0 0 1 16 0Zm96 124a36 36 0 1 1-67.34-17.68c.07-.14.14-.28.22-.42l32.25-54a8 8 0 0 1 13.74 8.2l-16.69 28c.6 0 1.21-.05 1.82-.05A36 36 0 0 1 248 180Zm-16 0a20 20 0 1 0-20 20 20 20 0 0 0 20-20Z"/></symbol><symbol viewBox="0 0 256 256" fill="currentColor" id="ph--text-h-three--regular" xmlns="http://www.w3.org/2000/svg"><path d="M152 56v120a8 8 0 0 1-16 0v-52H48v52a8 8 0 0 1-16 0V56a8 8 0 0 1 16 0v52h88V56a8 8 0 0 1 16 0Zm73.52 90.63 21-30A8 8 0 0 0 240 104h-48a8 8 0 0 0 0 16h32.63l-19.18 27.41A8 8 0 0 0 212 160a20 20 0 1 1-14.29 34 8 8 0 1 0-11.42 11.19A36 36 0 0 0 248 180a36.07 36.07 0 0 0-22.48-33.37Z"/></symbol><symbol viewBox="0 0 256 256" fill="currentColor" id="ph--text-h-two--regular" xmlns="http://www.w3.org/2000/svg"><path d="M152 56v120a8 8 0 0 1-16 0v-52H48v52a8 8 0 0 1-16 0V56a8 8 0 0 1 16 0v52h88V56a8 8 0 0 1 16 0Zm88 144h-32l33.55-44.74a32 32 0 1 0-55.73-29.93 8 8 0 1 0 15.08 5.34 16.28 16.28 0 0 1 2.32-4.3 16 16 0 1 1 25.54 19.27L185.6 203.2A8 8 0 0 0 192 216h48a8 8 0 0 0 0-16Z"/></symbol><symbol viewBox="0 0 256 256" fill="currentColor" id="ph--text-italic--regular" xmlns="http://www.w3.org/2000/svg"><path d="M200 56a8 8 0 0 1-8 8h-34.23L115.1 192H144a8 8 0 0 1 0 16H64a8 8 0 0 1 0-16h34.23L140.9 64H112a8 8 0 0 1 0-16h80a8 8 0 0 1 8 8Z"/></symbol><symbol viewBox="0 0 256 256" fill="currentColor" id="ph--text-strikethrough--regular" xmlns="http://www.w3.org/2000/svg"><path d="M224 128a8 8 0 0 1-8 8h-40.07c9.19 7.11 16.07 17.2 16.07 32 0 13.34-7 25.7-19.75 34.79C160.33 211.31 144.61 216 128 216s-32.33-4.69-44.25-13.21C71 193.7 64 181.34 64 168a8 8 0 0 1 16 0c0 17.35 22 32 48 32s48-14.65 48-32c0-14.85-10.54-23.58-38.77-32H40a8 8 0 0 1 0-16h176a8 8 0 0 1 8 8ZM76.33 104a8 8 0 0 0 7.61-10.49 17.3 17.3 0 0 1-.83-5.51c0-18.24 19.3-32 44.89-32 18.84 0 34.16 7.42 41 19.85a8 8 0 0 0 14-7.7C173.33 50.52 152.77 40 128 40c-34.71 0-60.89 20.63-60.89 48a33.73 33.73 0 0 0 1.62 10.49 8 8 0 0 0 7.6 5.51Z"/></symbol><symbol viewBox="0 0 256 256" fill="currentColor" id="ph--warning--duotone" xmlns="http://www.w3.org/2000/svg"><path d="M215.46 216H40.54c-12.62 0-20.54-13.21-14.41-23.91l87.46-151.87c6.3-11 22.52-11 28.82 0l87.46 151.87c6.13 10.7-1.79 23.91-14.41 23.91Z" opacity=".2"/><path d="M236.8 188.09 149.35 36.22a24.76 24.76 0 0 0-42.7 0L19.2 188.09a23.51 23.51 0 0 0 0 23.72A24.35 24.35 0 0 0 40.55 224h174.9a24.35 24.35 0 0 0 21.33-12.19 23.51 23.51 0 0 0 .02-23.72Zm-13.87 15.71a8.5 8.5 0 0 1-7.48 4.2H40.55a8.5 8.5 0 0 1-7.48-4.2 7.59 7.59 0 0 1 0-7.72l87.45-151.87a8.75 8.75 0 0 1 15 0l87.45 151.87a7.59 7.59 0 0 1-.04 7.72ZM120 144v-40a8 8 0 0 1 16 0v40a8 8 0 0 1-16 0Zm20 36a12 12 0 1 1-12-12 12 12 0 0 1 12 12Z"/></symbol><symbol viewBox="0 0 256 256" fill="currentColor" id="ph--warning-circle--duotone" xmlns="http://www.w3.org/2000/svg"><path d="M224 128a96 96 0 1 1-96-96 96 96 0 0 1 96 96Z" opacity=".2"/><path d="M128 24a104 104 0 1 0 104 104A104.11 104.11 0 0 0 128 24Zm0 192a88 88 0 1 1 88-88 88.1 88.1 0 0 1-88 88Zm-8-80V80a8 8 0 0 1 16 0v56a8 8 0 0 1-16 0Zm20 36a12 12 0 1 1-12-12 12 12 0 0 1 12 12Z"/></symbol><symbol viewBox="0 0 256 256" fill="currentColor" id="ph--x--regular" xmlns="http://www.w3.org/2000/svg"><path d="M205.66 194.34a8 8 0 0 1-11.32 11.32L128 139.31l-66.34 66.35a8 8 0 0 1-11.32-11.32L116.69 128 50.34 61.66a8 8 0 0 1 11.32-11.32L128 116.69l66.34-66.35a8 8 0 0 1 11.32 11.32L139.31 128Z"/></symbol></svg>