<?xml version="1.0" encoding="utf-8"?><svg xmlns="http://www.w3.org/2000/svg" xmlns:xlink="http://www.w3.org/1999/xlink"><symbol viewBox="0 0 256 256" fill="currentColor" id="ph--arrow-square-out--regular" xmlns="http://www.w3.org/2000/svg"><path d="M224 104a8 8 0 0 1-16 0V59.32l-66.33 66.34a8 8 0 0 1-11.32-11.32L196.68 48H152a8 8 0 0 1 0-16h64a8 8 0 0 1 8 8Zm-40 24a8 8 0 0 0-8 8v72H48V80h72a8 8 0 0 0 0-16H48a16 16 0 0 0-16 16v128a16 16 0 0 0 16 16h128a16 16 0 0 0 16-16v-72a8 8 0 0 0-8-8Z"/></symbol><symbol viewBox="0 0 256 256" fill="currentColor" id="ph--caret-down--bold" xmlns="http://www.w3.org/2000/svg"><path d="m216.49 104.49-80 80a12 12 0 0 1-17 0l-80-80a12 12 0 0 1 17-17L128 159l71.51-71.52a12 12 0 0 1 17 17Z"/></symbol><symbol viewBox="0 0 256 256" fill="currentColor" id="ph--check--regular" xmlns="http://www.w3.org/2000/svg"><path d="m229.66 77.66-128 128a8 8 0 0 1-11.32 0l-56-56a8 8 0 0 1 11.32-11.32L96 188.69 218.34 66.34a8 8 0 0 1 11.32 11.32Z"/></symbol><symbol viewBox="0 0 256 256" fill="currentColor" id="ph--copy--regular" xmlns="http://www.w3.org/2000/svg"><path d="M216 32H88a8 8 0 0 0-8 8v40H40a8 8 0 0 0-8 8v128a8 8 0 0 0 8 8h128a8 8 0 0 0 8-8v-40h40a8 8 0 0 0 8-8V40a8 8 0 0 0-8-8Zm-56 176H48V96h112Zm48-48h-32V88a8 8 0 0 0-8-8H96V48h112Z"/></symbol><symbol viewBox="0 0 256 256" fill="currentColor" id="ph--minus--regular" xmlns="http://www.w3.org/2000/svg"><path d="M224 128a8 8 0 0 1-8 8H40a8 8 0 0 1 0-16h176a8 8 0 0 1 8 8Z"/></symbol><symbol viewBox="0 0 256 256" fill="currentColor" id="ph--plus--regular" xmlns="http://www.w3.org/2000/svg"><path d="M224 128a8 8 0 0 1-8 8h-80v80a8 8 0 0 1-16 0v-80H40a8 8 0 0 1 0-16h80V40a8 8 0 0 1 16 0v80h80a8 8 0 0 1 8 8Z"/></symbol><symbol viewBox="0 0 256 256" fill="currentColor" id="ph--user--regular" xmlns="http://www.w3.org/2000/svg"><path d="M230.92 212c-15.23-26.33-38.7-45.21-66.09-54.16a72 72 0 1 0-73.66 0c-27.39 8.94-50.86 27.82-66.09 54.16a8 8 0 1 0 13.85 8c18.84-32.56 52.14-52 89.07-52s70.23 19.44 89.07 52a8 8 0 1 0 13.85-8ZM72 96a56 56 0 1 1 56 56 56.06 56.06 0 0 1-56-56Z"/></symbol></svg>