<?xml version="1.0" encoding="utf-8"?><svg xmlns="http://www.w3.org/2000/svg" xmlns:xlink="http://www.w3.org/1999/xlink"><symbol viewBox="0 0 256 256" fill="currentColor" id="ph--arrow-down--regular" xmlns="http://www.w3.org/2000/svg"><path d="m205.66 149.66-72 72a8 8 0 0 1-11.32 0l-72-72a8 8 0 0 1 11.32-11.32L120 196.69V40a8 8 0 0 1 16 0v156.69l58.34-58.35a8 8 0 0 1 11.32 11.32Z"/></symbol><symbol viewBox="0 0 256 256" fill="currentColor" id="ph--arrow-right--regular" xmlns="http://www.w3.org/2000/svg"><path d="m221.66 133.66-72 72a8 8 0 0 1-11.32-11.32L196.69 136H40a8 8 0 0 1 0-16h156.69l-58.35-58.34a8 8 0 0 1 11.32-11.32l72 72a8 8 0 0 1 0 11.32Z"/></symbol><symbol viewBox="0 0 256 256" fill="currentColor" id="ph--arrow-square-out--regular" xmlns="http://www.w3.org/2000/svg"><path d="M224 104a8 8 0 0 1-16 0V59.32l-66.33 66.34a8 8 0 0 1-11.32-11.32L196.68 48H152a8 8 0 0 1 0-16h64a8 8 0 0 1 8 8Zm-40 24a8 8 0 0 0-8 8v72H48V80h72a8 8 0 0 0 0-16H48a16 16 0 0 0-16 16v128a16 16 0 0 0 16 16h128a16 16 0 0 0 16-16v-72a8 8 0 0 0-8-8Z"/></symbol><symbol viewBox="0 0 256 256" fill="currentColor" id="ph--bookmark-simple--fill" xmlns="http://www.w3.org/2000/svg"><path d="M184 32H72a16 16 0 0 0-16 16v176a8 8 0 0 0 12.24 6.78L128 193.43l59.77 37.35A8 8 0 0 0 200 224V48a16 16 0 0 0-16-16Z"/></symbol><symbol viewBox="0 0 256 256" fill="currentColor" id="ph--bookmark-simple--regular" xmlns="http://www.w3.org/2000/svg"><path d="M184 32H72a16 16 0 0 0-16 16v176a8 8 0 0 0 12.24 6.78L128 193.43l59.77 37.35A8 8 0 0 0 200 224V48a16 16 0 0 0-16-16Zm0 177.57-51.77-32.35a8 8 0 0 0-8.48 0L72 209.57V48h112Z"/></symbol><symbol viewBox="0 0 256 256" fill="currentColor" id="ph--building-office--regular" xmlns="http://www.w3.org/2000/svg"><path d="M248 208h-16V96a8 8 0 0 0 0-16h-48V48a8 8 0 0 0 0-16H40a8 8 0 0 0 0 16v160H24a8 8 0 0 0 0 16h224a8 8 0 0 0 0-16ZM216 96v112h-32V96ZM56 48h112v160h-24v-48a8 8 0 0 0-8-8H88a8 8 0 0 0-8 8v48H56Zm72 160H96v-40h32ZM72 80a8 8 0 0 1 8-8h16a8 8 0 0 1 0 16H80a8 8 0 0 1-8-8Zm48 0a8 8 0 0 1 8-8h16a8 8 0 0 1 0 16h-16a8 8 0 0 1-8-8Zm-48 40a8 8 0 0 1 8-8h16a8 8 0 0 1 0 16H80a8 8 0 0 1-8-8Zm48 0a8 8 0 0 1 8-8h16a8 8 0 0 1 0 16h-16a8 8 0 0 1-8-8Z"/></symbol><symbol viewBox="0 0 256 256" fill="currentColor" id="ph--calendar--regular" xmlns="http://www.w3.org/2000/svg"><path d="M208 32h-24v-8a8 8 0 0 0-16 0v8H88v-8a8 8 0 0 0-16 0v8H48a16 16 0 0 0-16 16v160a16 16 0 0 0 16 16h160a16 16 0 0 0 16-16V48a16 16 0 0 0-16-16ZM72 48v8a8 8 0 0 0 16 0v-8h80v8a8 8 0 0 0 16 0v-8h24v32H48V48Zm136 160H48V96h160v112Zm-96-88v64a8 8 0 0 1-16 0v-51.06l-4.42 2.22a8 8 0 0 1-7.16-14.32l16-8A8 8 0 0 1 112 120Zm59.16 30.45L152 176h16a8 8 0 0 1 0 16h-32a8 8 0 0 1-6.4-12.8l28.78-38.37a8 8 0 1 0-13.31-8.83 8 8 0 1 1-13.85-8A24 24 0 0 1 176 136a23.76 23.76 0 0 1-4.84 14.45Z"/></symbol><symbol viewBox="0 0 256 256" fill="currentColor" id="ph--calendar-dot--regular" xmlns="http://www.w3.org/2000/svg"><path d="M208 32h-24v-8a8 8 0 0 0-16 0v8H88v-8a8 8 0 0 0-16 0v8H48a16 16 0 0 0-16 16v160a16 16 0 0 0 16 16h160a16 16 0 0 0 16-16V48a16 16 0 0 0-16-16ZM72 48v8a8 8 0 0 0 16 0v-8h80v8a8 8 0 0 0 16 0v-8h24v32H48V48Zm136 160H48V96h160v112Zm-64-56a16 16 0 1 1-16-16 16 16 0 0 1 16 16Z"/></symbol><symbol viewBox="0 0 256 256" fill="currentColor" id="ph--caret-down--bold" xmlns="http://www.w3.org/2000/svg"><path d="m216.49 104.49-80 80a12 12 0 0 1-17 0l-80-80a12 12 0 0 1 17-17L128 159l71.51-71.52a12 12 0 0 1 17 17Z"/></symbol><symbol viewBox="0 0 256 256" fill="currentColor" id="ph--caret-left--regular" xmlns="http://www.w3.org/2000/svg"><path d="M165.66 202.34a8 8 0 0 1-11.32 11.32l-80-80a8 8 0 0 1 0-11.32l80-80a8 8 0 0 1 11.32 11.32L91.31 128Z"/></symbol><symbol viewBox="0 0 256 256" fill="currentColor" id="ph--caret-right--regular" xmlns="http://www.w3.org/2000/svg"><path d="m181.66 133.66-80 80a8 8 0 0 1-11.32-11.32L164.69 128 90.34 53.66a8 8 0 0 1 11.32-11.32l80 80a8 8 0 0 1 0 11.32Z"/></symbol><symbol viewBox="0 0 256 256" fill="currentColor" id="ph--caret-up--bold" xmlns="http://www.w3.org/2000/svg"><path d="M216.49 168.49a12 12 0 0 1-17 0L128 97l-71.51 71.49a12 12 0 0 1-17-17l80-80a12 12 0 0 1 17 0l80 80a12 12 0 0 1 0 17Z"/></symbol><symbol viewBox="0 0 256 256" fill="currentColor" id="ph--check--regular" xmlns="http://www.w3.org/2000/svg"><path d="m229.66 77.66-128 128a8 8 0 0 1-11.32 0l-56-56a8 8 0 0 1 11.32-11.32L96 188.69 218.34 66.34a8 8 0 0 1 11.32 11.32Z"/></symbol><symbol viewBox="0 0 256 256" fill="currentColor" id="ph--check-circle--duotone" xmlns="http://www.w3.org/2000/svg"><path d="M224 128a96 96 0 1 1-96-96 96 96 0 0 1 96 96Z" opacity=".2"/><path d="M173.66 98.34a8 8 0 0 1 0 11.32l-56 56a8 8 0 0 1-11.32 0l-24-24a8 8 0 0 1 11.32-11.32L112 148.69l50.34-50.35a8 8 0 0 1 11.32 0ZM232 128A104 104 0 1 1 128 24a104.11 104.11 0 0 1 104 104Zm-16 0a88 88 0 1 0-88 88 88.1 88.1 0 0 0 88-88Z"/></symbol><symbol viewBox="0 0 256 256" fill="currentColor" id="ph--check-circle--regular" xmlns="http://www.w3.org/2000/svg"><path d="M173.66 98.34a8 8 0 0 1 0 11.32l-56 56a8 8 0 0 1-11.32 0l-24-24a8 8 0 0 1 11.32-11.32L112 148.69l50.34-50.35a8 8 0 0 1 11.32 0ZM232 128A104 104 0 1 1 128 24a104.11 104.11 0 0 1 104 104Zm-16 0a88 88 0 1 0-88 88 88.1 88.1 0 0 0 88-88Z"/></symbol><symbol viewBox="0 0 256 256" fill="currentColor" id="ph--check-square-offset--regular" xmlns="http://www.w3.org/2000/svg"><path d="M224 48v160a16 16 0 0 1-16 16h-72a8 8 0 0 1 0-16h72V48H48v96a8 8 0 0 1-16 0V48a16 16 0 0 1 16-16h160a16 16 0 0 1 16 16Zm-98.34 106.34a8 8 0 0 0-11.32 0L64 204.69l-18.34-18.35a8 8 0 0 0-11.32 11.32l24 24a8 8 0 0 0 11.32 0l56-56a8 8 0 0 0 0-11.32Z"/></symbol><symbol viewBox="0 0 256 256" fill="currentColor" id="ph--circle--fill" xmlns="http://www.w3.org/2000/svg"><path d="M232 128A104 104 0 1 1 128 24a104.13 104.13 0 0 1 104 104Z"/></symbol><symbol viewBox="0 0 256 256" fill="currentColor" id="ph--circle--regular" xmlns="http://www.w3.org/2000/svg"><path d="M128 24a104 104 0 1 0 104 104A104.11 104.11 0 0 0 128 24Zm0 192a88 88 0 1 1 88-88 88.1 88.1 0 0 1-88 88Z"/></symbol><symbol viewBox="0 0 256 256" fill="currentColor" id="ph--circle-dashed--regular" xmlns="http://www.w3.org/2000/svg"><path d="M96.26 37.05a8 8 0 0 1 5.74-9.76 104.11 104.11 0 0 1 52 0 8 8 0 0 1-2 15.75 8.15 8.15 0 0 1-2-.26 88.09 88.09 0 0 0-44 0 8 8 0 0 1-9.74-5.73ZM53.79 55.14a104.05 104.05 0 0 0-26 45 8 8 0 0 0 15.42 4.27 88 88 0 0 1 22-38.09 8 8 0 0 0-11.42-11.18Zm-10.58 96.41a8 8 0 1 0-15.42 4.28 104.12 104.12 0 0 0 26 45 8 8 0 0 0 11.41-11.22 88.14 88.14 0 0 1-21.99-38.06ZM150 213.22a88 88 0 0 1-44 0 8 8 0 1 0-4 15.49 104.11 104.11 0 0 0 52 0 8 8 0 0 0-4-15.49ZM222.65 146a8 8 0 0 0-9.85 5.58 87.91 87.91 0 0 1-22 38.08 8 8 0 1 0 11.42 11.21 104 104 0 0 0 26-45 8 8 0 0 0-5.57-9.87Zm-9.86-41.54a8 8 0 0 0 15.42-4.28 104 104 0 0 0-26-45A8 8 0 1 0 190.8 66.4a88 88 0 0 1 21.99 38.05Z"/></symbol><symbol viewBox="0 0 256 256" fill="currentColor" id="ph--circle-notch--bold" xmlns="http://www.w3.org/2000/svg"><path d="M236 128a108 108 0 0 1-216 0c0-42.52 24.73-81.34 63-98.9a12 12 0 1 1 10 21.81C63.24 64.57 44 94.83 44 128a84 84 0 0 0 168 0c0-33.17-19.24-63.43-49-77.09a12 12 0 1 1 10-21.81c38.27 17.56 63 56.38 63 98.9Z"/></symbol><symbol viewBox="0 0 256 256" fill="currentColor" id="ph--circle-notch--regular" xmlns="http://www.w3.org/2000/svg"><path d="M232 128a104 104 0 0 1-208 0c0-41 23.81-78.36 60.66-95.27a8 8 0 0 1 6.68 14.54C60.15 61.59 40 93.27 40 128a88 88 0 0 0 176 0c0-34.73-20.15-66.41-51.34-80.73a8 8 0 0 1 6.68-14.54C208.19 49.64 232 87 232 128Z"/></symbol><symbol viewBox="0 0 256 256" fill="currentColor" id="ph--clipboard--regular" xmlns="http://www.w3.org/2000/svg"><path d="M200 32h-36.26a47.92 47.92 0 0 0-71.48 0H56a16 16 0 0 0-16 16v168a16 16 0 0 0 16 16h144a16 16 0 0 0 16-16V48a16 16 0 0 0-16-16Zm-72 0a32 32 0 0 1 32 32H96a32 32 0 0 1 32-32Zm72 184H56V48h26.75A47.93 47.93 0 0 0 80 64v8a8 8 0 0 0 8 8h80a8 8 0 0 0 8-8v-8a47.93 47.93 0 0 0-2.75-16H200Z"/></symbol><symbol viewBox="0 0 256 256" fill="currentColor" id="ph--clipboard-text--regular" xmlns="http://www.w3.org/2000/svg"><path d="M168 152a8 8 0 0 1-8 8H96a8 8 0 0 1 0-16h64a8 8 0 0 1 8 8Zm-8-40H96a8 8 0 0 0 0 16h64a8 8 0 0 0 0-16Zm56-64v168a16 16 0 0 1-16 16H56a16 16 0 0 1-16-16V48a16 16 0 0 1 16-16h36.26a47.92 47.92 0 0 1 71.48 0H200a16 16 0 0 1 16 16ZM96 64h64a32 32 0 0 0-64 0Zm104-16h-26.75A47.93 47.93 0 0 1 176 64v8a8 8 0 0 1-8 8H88a8 8 0 0 1-8-8v-8a47.93 47.93 0 0 1 2.75-16H56v168h144Z"/></symbol><symbol viewBox="0 0 256 256" fill="currentColor" id="ph--code--regular" xmlns="http://www.w3.org/2000/svg"><path d="M69.12 94.15 28.5 128l40.62 33.85a8 8 0 1 1-10.24 12.29l-48-40a8 8 0 0 1 0-12.29l48-40a8 8 0 0 1 10.24 12.3Zm176 27.7-48-40a8 8 0 1 0-10.24 12.3L227.5 128l-40.62 33.85a8 8 0 1 0 10.24 12.29l48-40a8 8 0 0 0 0-12.29Zm-82.39-89.37a8 8 0 0 0-10.25 4.79l-64 176a8 8 0 0 0 4.79 10.26A8.14 8.14 0 0 0 96 224a8 8 0 0 0 7.52-5.27l64-176a8 8 0 0 0-4.79-10.25Z"/></symbol><symbol viewBox="0 0 256 256" fill="currentColor" id="ph--code-block--regular" xmlns="http://www.w3.org/2000/svg"><path d="m58.34 101.66-32-32a8 8 0 0 1 0-11.32l32-32a8 8 0 0 1 11.32 11.32L43.31 64l26.35 26.34a8 8 0 0 1-11.32 11.32Zm40 0a8 8 0 0 0 11.32 0l32-32a8 8 0 0 0 0-11.32l-32-32a8 8 0 0 0-11.32 11.32L124.69 64 98.34 90.34a8 8 0 0 0 0 11.32ZM200 40h-24a8 8 0 0 0 0 16h24v144H56v-64a8 8 0 0 0-16 0v64a16 16 0 0 0 16 16h144a16 16 0 0 0 16-16V56a16 16 0 0 0-16-16Z"/></symbol><symbol viewBox="0 0 256 256" fill="currentColor" id="ph--copy--regular" xmlns="http://www.w3.org/2000/svg"><path d="M216 32H88a8 8 0 0 0-8 8v40H40a8 8 0 0 0-8 8v128a8 8 0 0 0 8 8h128a8 8 0 0 0 8-8v-40h40a8 8 0 0 0 8-8V40a8 8 0 0 0-8-8Zm-56 176H48V96h112Zm48-48h-32V88a8 8 0 0 0-8-8H96V48h112Z"/></symbol><symbol viewBox="0 0 256 256" fill="currentColor" id="ph--cube--regular" xmlns="http://www.w3.org/2000/svg"><path d="m223.68 66.15-88-48.15a15.88 15.88 0 0 0-15.36 0l-88 48.17a16 16 0 0 0-8.32 14v95.64a16 16 0 0 0 8.32 14l88 48.17a15.88 15.88 0 0 0 15.36 0l88-48.17a16 16 0 0 0 8.32-14V80.18a16 16 0 0 0-8.32-14.03ZM128 32l80.34 44L128 120 47.66 76ZM40 90l80 43.78v85.79l-80-43.75Zm96 129.57v-85.75L216 90v85.78Z"/></symbol><symbol viewBox="0 0 256 256" fill="currentColor" id="ph--database--regular" xmlns="http://www.w3.org/2000/svg"><path d="M128 24c-53.83 0-96 24.6-96 56v96c0 31.4 42.17 56 96 56s96-24.6 96-56V80c0-31.4-42.17-56-96-56Zm80 104c0 9.62-7.88 19.43-21.61 26.92C170.93 163.35 150.19 168 128 168s-42.93-4.65-58.39-13.08C55.88 147.43 48 137.62 48 128v-16.64c17.06 15 46.23 24.64 80 24.64s62.94-9.68 80-24.64ZM69.61 53.08C85.07 44.65 105.81 40 128 40s42.93 4.65 58.39 13.08C200.12 60.57 208 70.38 208 80s-7.88 19.43-21.61 26.92C170.93 115.35 150.19 120 128 120s-42.93-4.65-58.39-13.08C55.88 99.43 48 89.62 48 80s7.88-19.43 21.61-26.92Zm116.78 149.84C170.93 211.35 150.19 216 128 216s-42.93-4.65-58.39-13.08C55.88 195.43 48 185.62 48 176v-16.64c17.06 15 46.23 24.64 80 24.64s62.94-9.68 80-24.64V176c0 9.62-7.88 19.43-21.61 26.92Z"/></symbol><symbol viewBox="0 0 256 256" fill="currentColor" id="ph--dot--bold" xmlns="http://www.w3.org/2000/svg"><path d="M144 128a16 16 0 1 1-16-16 16 16 0 0 1 16 16Z"/></symbol><symbol viewBox="0 0 256 256" fill="currentColor" id="ph--dots-six-vertical--regular" xmlns="http://www.w3.org/2000/svg"><path d="M104 60a12 12 0 1 1-12-12 12 12 0 0 1 12 12Zm60 12a12 12 0 1 0-12-12 12 12 0 0 0 12 12Zm-72 44a12 12 0 1 0 12 12 12 12 0 0 0-12-12Zm72 0a12 12 0 1 0 12 12 12 12 0 0 0-12-12Zm-72 68a12 12 0 1 0 12 12 12 12 0 0 0-12-12Zm72 0a12 12 0 1 0 12 12 12 12 0 0 0-12-12Z"/></symbol><symbol viewBox="0 0 256 256" fill="currentColor" id="ph--dots-three-vertical--regular" xmlns="http://www.w3.org/2000/svg"><path d="M140 128a12 12 0 1 1-12-12 12 12 0 0 1 12 12Zm-12-56a12 12 0 1 0-12-12 12 12 0 0 0 12 12Zm0 112a12 12 0 1 0 12 12 12 12 0 0 0-12-12Z"/></symbol><symbol viewBox="0 0 256 256" fill="currentColor" id="ph--download-simple--regular" xmlns="http://www.w3.org/2000/svg"><path d="M224 144v64a8 8 0 0 1-8 8H40a8 8 0 0 1-8-8v-64a8 8 0 0 1 16 0v56h160v-56a8 8 0 0 1 16 0Zm-101.66 5.66a8 8 0 0 0 11.32 0l40-40a8 8 0 0 0-11.32-11.32L136 124.69V32a8 8 0 0 0-16 0v92.69L93.66 98.34a8 8 0 0 0-11.32 11.32Z"/></symbol><symbol viewBox="0 0 256 256" fill="currentColor" id="ph--eye--regular" xmlns="http://www.w3.org/2000/svg"><path d="M247.31 124.76c-.35-.79-8.82-19.58-27.65-38.41C194.57 61.26 162.88 48 128 48S61.43 61.26 36.34 86.35C17.51 105.18 9 124 8.69 124.76a8 8 0 0 0 0 6.5c.35.79 8.82 19.57 27.65 38.4C61.43 194.74 93.12 208 128 208s66.57-13.26 91.66-38.34c18.83-18.83 27.3-37.61 27.65-38.4a8 8 0 0 0 0-6.5ZM128 192c-30.78 0-57.67-11.19-79.93-33.25A133.47 133.47 0 0 1 25 128a133.33 133.33 0 0 1 23.07-30.75C70.33 75.19 97.22 64 128 64s57.67 11.19 79.93 33.25A133.46 133.46 0 0 1 231.05 128c-7.21 13.46-38.62 64-103.05 64Zm0-112a48 48 0 1 0 48 48 48.05 48.05 0 0 0-48-48Zm0 80a32 32 0 1 1 32-32 32 32 0 0 1-32 32Z"/></symbol><symbol viewBox="0 0 256 256" fill="currentColor" id="ph--file--regular" xmlns="http://www.w3.org/2000/svg"><path d="m213.66 82.34-56-56A8 8 0 0 0 152 24H56a16 16 0 0 0-16 16v176a16 16 0 0 0 16 16h144a16 16 0 0 0 16-16V88a8 8 0 0 0-2.34-5.66ZM160 51.31 188.69 80H160ZM200 216H56V40h88v48a8 8 0 0 0 8 8h48v120Z"/></symbol><symbol viewBox="0 0 256 256" fill="currentColor" id="ph--folder--regular" xmlns="http://www.w3.org/2000/svg"><path d="M216 72h-84.69L104 44.69A15.86 15.86 0 0 0 92.69 40H40a16 16 0 0 0-16 16v144.62A15.4 15.4 0 0 0 39.38 216h177.51A15.13 15.13 0 0 0 232 200.89V88a16 16 0 0 0-16-16ZM40 56h52.69l16 16H40Zm176 144H40V88h176Z"/></symbol><symbol viewBox="0 0 256 256" fill="currentColor" id="ph--funnel--regular" xmlns="http://www.w3.org/2000/svg"><path d="M230.6 49.53A15.81 15.81 0 0 0 216 40H40a16 16 0 0 0-11.81 26.76l.08.09L96 139.17V216a16 16 0 0 0 24.87 13.32l32-21.34a16 16 0 0 0 7.13-13.32v-55.49l67.74-72.32.08-.09a15.8 15.8 0 0 0 2.78-17.23ZM40 56Zm106.18 74.58A8 8 0 0 0 144 136v58.66L112 216v-80a8 8 0 0 0-2.16-5.47L40 56h176Z"/></symbol><symbol viewBox="0 0 256 256" fill="currentColor" id="ph--hash--regular" xmlns="http://www.w3.org/2000/svg"><path d="M224 88h-48.6l8.47-46.57a8 8 0 0 0-15.74-2.86l-9 49.43H111.4l8.47-46.57a8 8 0 0 0-15.74-2.86L95.14 88H48a8 8 0 0 0 0 16h44.23l-8.73 48H32a8 8 0 0 0 0 16h48.6l-8.47 46.57a8 8 0 0 0 6.44 9.3A7.79 7.79 0 0 0 80 224a8 8 0 0 0 7.86-6.57l9-49.43h47.74l-8.47 46.57a8 8 0 0 0 6.44 9.3 7.79 7.79 0 0 0 1.43.13 8 8 0 0 0 7.86-6.57l9-49.43H208a8 8 0 0 0 0-16h-44.23l8.73-48H224a8 8 0 0 0 0-16Zm-76.5 64H99.77l8.73-48h47.73Z"/></symbol><symbol viewBox="0 0 256 256" fill="currentColor" id="ph--identification-card--regular" xmlns="http://www.w3.org/2000/svg"><path d="M200 112a8 8 0 0 1-8 8h-40a8 8 0 0 1 0-16h40a8 8 0 0 1 8 8Zm-8 24h-40a8 8 0 0 0 0 16h40a8 8 0 0 0 0-16Zm40-80v144a16 16 0 0 1-16 16H40a16 16 0 0 1-16-16V56a16 16 0 0 1 16-16h176a16 16 0 0 1 16 16Zm-16 144V56H40v144h176Zm-80.26-34a8 8 0 1 1-15.5 4c-2.63-10.26-13.06-18-24.25-18s-21.61 7.74-24.25 18a8 8 0 1 1-15.5-4 39.84 39.84 0 0 1 17.19-23.34 32 32 0 1 1 45.12 0 39.76 39.76 0 0 1 17.2 23.34ZM96 136a16 16 0 1 0-16-16 16 16 0 0 0 16 16Z"/></symbol><symbol viewBox="0 0 256 256" fill="currentColor" id="ph--image-square--regular" xmlns="http://www.w3.org/2000/svg"><path d="M208 32H48a16 16 0 0 0-16 16v160a16 16 0 0 0 16 16h160a16 16 0 0 0 16-16V48a16 16 0 0 0-16-16ZM48 48h160v77.38l-24.69-24.7a16 16 0 0 0-22.62 0L53.37 208H48Zm160 160H76l96-96 36 36v60ZM96 120a24 24 0 1 0-24-24 24 24 0 0 0 24 24Zm0-32a8 8 0 1 1-8 8 8 8 0 0 1 8-8Z"/></symbol><symbol viewBox="0 0 256 256" fill="currentColor" id="ph--info--duotone" xmlns="http://www.w3.org/2000/svg"><path d="M224 128a96 96 0 1 1-96-96 96 96 0 0 1 96 96Z" opacity=".2"/><path d="M144 176a8 8 0 0 1-8 8 16 16 0 0 1-16-16v-40a8 8 0 0 1 0-16 16 16 0 0 1 16 16v40a8 8 0 0 1 8 8Zm88-48A104 104 0 1 1 128 24a104.11 104.11 0 0 1 104 104Zm-16 0a88 88 0 1 0-88 88 88.1 88.1 0 0 0 88-88Zm-92-32a12 12 0 1 0-12-12 12 12 0 0 0 12 12Z"/></symbol><symbol viewBox="0 0 256 256" fill="currentColor" id="ph--key--regular" xmlns="http://www.w3.org/2000/svg"><path d="M216.57 39.43a80 80 0 0 0-132.66 81.35L28.69 176A15.86 15.86 0 0 0 24 187.31V216a16 16 0 0 0 16 16h32a8 8 0 0 0 8-8v-16h16a8 8 0 0 0 8-8v-16h16a8 8 0 0 0 5.66-2.34l9.56-9.57A79.73 79.73 0 0 0 160 176h.1a80 80 0 0 0 56.47-136.57ZM224 98.1c-1.09 34.09-29.75 61.86-63.89 61.9H160a63.7 63.7 0 0 1-23.65-4.51 8 8 0 0 0-8.84 1.68L116.69 168H96a8 8 0 0 0-8 8v16H72a8 8 0 0 0-8 8v16H40v-28.69l58.83-58.82a8 8 0 0 0 1.68-8.84A63.72 63.72 0 0 1 96 95.92c0-34.14 27.81-62.8 61.9-63.89A64 64 0 0 1 224 98.1ZM192 76a12 12 0 1 1-12-12 12 12 0 0 1 12 12Z"/></symbol><symbol viewBox="0 0 256 256" fill="currentColor" id="ph--lego--regular" xmlns="http://www.w3.org/2000/svg"><path d="M243.58 72.84 197.29 49.7C191.54 39.24 177.21 32 160 32c-22.43 0-40 12.3-40 28a20.77 20.77 0 0 0 1.06 6.53l-19.52 9.76A53.69 53.69 0 0 0 80 72c-22.43 0-40 12.3-40 28a20.77 20.77 0 0 0 1.06 6.53l-28.64 14.31A8 8 0 0 0 8 128v64a8 8 0 0 0 4.42 7.16l64 32a8 8 0 0 0 7.16 0l160-80A8 8 0 0 0 248 144V80a8 8 0 0 0-4.42-7.16ZM80 151.06 33.89 128 51 119.45c7.24 5.29 17.48 8.55 29 8.55 22.43 0 40-12.3 40-28a21.77 21.77 0 0 0-4.35-12.88L131 79.45c7.24 5.29 17.48 8.55 29 8.55 18.38 0 33.49-8.26 38.35-19.88L222.11 80ZM160 48c13.74 0 24 6.34 24 12s-10.26 12-24 12-24-6.34-24-12 10.26-12 24-12ZM80 88c13.74 0 24 6.34 24 12s-10.26 12-24 12c-9.67 0-17.61-3.14-21.47-7a8.29 8.29 0 0 0-.84-.93A6.62 6.62 0 0 1 56 100c0-5.66 10.26-12 24-12Zm-56 52.94 48 24v46.12l-48-24Zm64 70.12v-46.12l144-72v46.12Z"/></symbol><symbol viewBox="0 0 256 256" fill="currentColor" id="ph--link--regular" xmlns="http://www.w3.org/2000/svg"><path d="M240 88.23a54.43 54.43 0 0 1-16 37L189.25 160a54.27 54.27 0 0 1-38.63 16h-.05A54.63 54.63 0 0 1 96 119.84a8 8 0 0 1 16 .45A38.62 38.62 0 0 0 150.58 160a38.39 38.39 0 0 0 27.31-11.31l34.75-34.75a38.63 38.63 0 0 0-54.63-54.63l-11 11A8 8 0 0 1 135.7 59l11-11a54.65 54.65 0 0 1 77.3 0 54.86 54.86 0 0 1 16 40.23Zm-131 97.43-11 11A38.41 38.41 0 0 1 70.6 208a38.63 38.63 0 0 1-27.29-65.94L78 107.31a38.63 38.63 0 0 1 66 28.4 8 8 0 0 0 16 .45A54.86 54.86 0 0 0 144 96a54.65 54.65 0 0 0-77.27 0L32 130.75A54.62 54.62 0 0 0 70.56 224a54.28 54.28 0 0 0 38.64-16l11-11a8 8 0 0 0-11.2-11.34Z"/></symbol><symbol viewBox="0 0 256 256" fill="currentColor" id="ph--list-bullets--regular" xmlns="http://www.w3.org/2000/svg"><path d="M80 64a8 8 0 0 1 8-8h128a8 8 0 0 1 0 16H88a8 8 0 0 1-8-8Zm136 56H88a8 8 0 0 0 0 16h128a8 8 0 0 0 0-16Zm0 64H88a8 8 0 0 0 0 16h128a8 8 0 0 0 0-16ZM44 52a12 12 0 1 0 12 12 12 12 0 0 0-12-12Zm0 64a12 12 0 1 0 12 12 12 12 0 0 0-12-12Zm0 64a12 12 0 1 0 12 12 12 12 0 0 0-12-12Z"/></symbol><symbol viewBox="0 0 256 256" fill="currentColor" id="ph--list-checks--regular" xmlns="http://www.w3.org/2000/svg"><path d="M224 128a8 8 0 0 1-8 8h-88a8 8 0 0 1 0-16h88a8 8 0 0 1 8 8Zm-96-56h88a8 8 0 0 0 0-16h-88a8 8 0 0 0 0 16Zm88 112h-88a8 8 0 0 0 0 16h88a8 8 0 0 0 0-16ZM82.34 42.34 56 68.69 45.66 58.34a8 8 0 0 0-11.32 11.32l16 16a8 8 0 0 0 11.32 0l32-32a8 8 0 0 0-11.32-11.32Zm0 64L56 132.69l-10.34-10.35a8 8 0 0 0-11.32 11.32l16 16a8 8 0 0 0 11.32 0l32-32a8 8 0 0 0-11.32-11.32Zm0 64L56 196.69l-10.34-10.35a8 8 0 0 0-11.32 11.32l16 16a8 8 0 0 0 11.32 0l32-32a8 8 0 0 0-11.32-11.32Z"/></symbol><symbol viewBox="0 0 256 256" fill="currentColor" id="ph--list-numbers--regular" xmlns="http://www.w3.org/2000/svg"><path d="M224 128a8 8 0 0 1-8 8H104a8 8 0 0 1 0-16h112a8 8 0 0 1 8 8ZM104 72h112a8 8 0 0 0 0-16H104a8 8 0 0 0 0 16Zm112 112H104a8 8 0 0 0 0 16h112a8 8 0 0 0 0-16ZM43.58 55.16 48 52.94V104a8 8 0 0 0 16 0V40a8 8 0 0 0-11.58-7.16l-16 8a8 8 0 0 0 7.16 14.32Zm36.19 101.56a23.73 23.73 0 0 0-9.6-15.95 24.86 24.86 0 0 0-34.11 4.7 23.63 23.63 0 0 0-3.57 6.46 8 8 0 1 0 15 5.47 7.84 7.84 0 0 1 1.18-2.13 8.76 8.76 0 0 1 12-1.59 7.91 7.91 0 0 1 3.26 5.32 7.64 7.64 0 0 1-1.57 5.78 1 1 0 0 0-.08.11l-28.69 38.32A8 8 0 0 0 40 216h32a8 8 0 0 0 0-16H56l19.08-25.53a23.47 23.47 0 0 0 4.69-17.75Z"/></symbol><symbol viewBox="0 0 256 256" fill="currentColor" id="ph--magnifying-glass--regular" xmlns="http://www.w3.org/2000/svg"><path d="m229.66 218.34-50.07-50.06a88.11 88.11 0 1 0-11.31 11.31l50.06 50.07a8 8 0 0 0 11.32-11.32ZM40 112a72 72 0 1 1 72 72 72.08 72.08 0 0 1-72-72Z"/></symbol><symbol viewBox="0 0 256 256" fill="currentColor" id="ph--microphone--regular" xmlns="http://www.w3.org/2000/svg"><path d="M128 176a48.05 48.05 0 0 0 48-48V64a48 48 0 0 0-96 0v64a48.05 48.05 0 0 0 48 48ZM96 64a32 32 0 0 1 64 0v64a32 32 0 0 1-64 0Zm40 143.6V240a8 8 0 0 1-16 0v-32.4A80.11 80.11 0 0 1 48 128a8 8 0 0 1 16 0 64 64 0 0 0 128 0 8 8 0 0 1 16 0 80.11 80.11 0 0 1-72 79.6Z"/></symbol><symbol viewBox="0 0 256 256" fill="currentColor" id="ph--minus--regular" xmlns="http://www.w3.org/2000/svg"><path d="M224 128a8 8 0 0 1-8 8H40a8 8 0 0 1 0-16h176a8 8 0 0 1 8 8Z"/></symbol><symbol viewBox="0 0 256 256" fill="currentColor" id="ph--note--regular" xmlns="http://www.w3.org/2000/svg"><path d="M88 96a8 8 0 0 1 8-8h64a8 8 0 0 1 0 16H96a8 8 0 0 1-8-8Zm8 40h64a8 8 0 0 0 0-16H96a8 8 0 0 0 0 16Zm32 16H96a8 8 0 0 0 0 16h32a8 8 0 0 0 0-16Zm96-104v108.69a15.86 15.86 0 0 1-4.69 11.31L168 219.31a15.86 15.86 0 0 1-11.31 4.69H48a16 16 0 0 1-16-16V48a16 16 0 0 1 16-16h160a16 16 0 0 1 16 16ZM48 208h104v-48a8 8 0 0 1 8-8h48V48H48Zm120-40v28.7l28.69-28.7Z"/></symbol><symbol viewBox="0 0 256 256" fill="currentColor" id="ph--paperclip--regular" xmlns="http://www.w3.org/2000/svg"><path d="M209.66 122.34a8 8 0 0 1 0 11.32l-82.05 82a56 56 0 0 1-79.2-79.21l99.26-100.72a40 40 0 1 1 56.61 56.55L105 193a24 24 0 1 1-34-34l83.3-84.62a8 8 0 1 1 11.4 11.22l-83.31 84.71a8 8 0 1 0 11.27 11.36L192.93 81A24 24 0 1 0 159 47L59.76 147.68a40 40 0 1 0 56.53 56.62l82.06-82a8 8 0 0 1 11.31.04Z"/></symbol><symbol viewBox="0 0 256 256" fill="currentColor" id="ph--paragraph--regular" xmlns="http://www.w3.org/2000/svg"><path d="M208 40H96a64 64 0 0 0 0 128h40v40a8 8 0 0 0 16 0V56h24v152a8 8 0 0 0 16 0V56h16a8 8 0 0 0 0-16Zm-72 112H96a48 48 0 0 1 0-96h40Z"/></symbol><symbol viewBox="0 0 256 256" fill="currentColor" id="ph--path--regular" xmlns="http://www.w3.org/2000/svg"><path d="M200 168a32.06 32.06 0 0 0-31 24H72a32 32 0 0 1 0-64h96a40 40 0 0 0 0-80H72a8 8 0 0 0 0 16h96a24 24 0 0 1 0 48H72a48 48 0 0 0 0 96h97a32 32 0 1 0 31-40Zm0 48a16 16 0 1 1 16-16 16 16 0 0 1-16 16Z"/></symbol><symbol viewBox="0 0 256 256" fill="currentColor" id="ph--pen--regular" xmlns="http://www.w3.org/2000/svg"><path d="m227.32 73.37-44.69-44.68a16 16 0 0 0-22.63 0L36.69 152A15.86 15.86 0 0 0 32 163.31V208a16 16 0 0 0 16 16h44.69a15.86 15.86 0 0 0 11.31-4.69l83.67-83.66 3.48 13.9-36.8 36.79a8 8 0 0 0 11.31 11.32l40-40a8 8 0 0 0 2.11-7.6l-6.9-27.61L227.32 96a16 16 0 0 0 0-22.63ZM48 179.31 76.69 208H48Zm48 25.38L51.31 160 136 75.31 180.69 120Zm96-96L147.32 64l24-24L216 84.69Z"/></symbol><symbol viewBox="0 0 256 256" fill="currentColor" id="ph--pencil-simple--regular" xmlns="http://www.w3.org/2000/svg"><path d="m227.31 73.37-44.68-44.69a16 16 0 0 0-22.63 0L36.69 152A15.86 15.86 0 0 0 32 163.31V208a16 16 0 0 0 16 16h44.69a15.86 15.86 0 0 0 11.31-4.69L227.31 96a16 16 0 0 0 0-22.63ZM92.69 208H48v-44.69l88-88L180.69 120ZM192 108.68 147.31 64l24-24L216 84.68Z"/></symbol><symbol viewBox="0 0 256 256" fill="currentColor" id="ph--pencil-slash--regular" xmlns="http://www.w3.org/2000/svg"><path d="M53.92 34.62a8 8 0 1 0-11.84 10.76l48.2 53L36.68 152A15.89 15.89 0 0 0 32 163.31V208a16 16 0 0 0 16 16h44.69a15.86 15.86 0 0 0 11.31-4.69l50.4-50.39 47.69 52.46a8 8 0 1 0 11.84-10.76Zm63 93.12L68 176.69 51.31 160l49.75-49.74ZM48 179.31 76.69 208H48Zm48 25.38L79.32 188l48.41-48.41 15.89 17.48ZM227.32 73.37l-44.69-44.68a16 16 0 0 0-22.63 0l-41.67 41.67a8 8 0 0 0 11.32 11.31l6.35-6.36L152.69 92 145 99.69A8 8 0 1 0 156.31 111l7.69-7.69L180.69 120l-9 9A8 8 0 0 0 183 140.34L227.32 96a16 16 0 0 0 0-22.63ZM192 108.69 147.32 64l24-24L216 84.69Z"/></symbol><symbol viewBox="0 0 256 256" fill="currentColor" id="ph--plus--regular" xmlns="http://www.w3.org/2000/svg"><path d="M224 128a8 8 0 0 1-8 8h-80v80a8 8 0 0 1-16 0v-80H40a8 8 0 0 1 0-16h80V40a8 8 0 0 1 16 0v80h80a8 8 0 0 1 8 8Z"/></symbol><symbol viewBox="0 0 256 256" fill="currentColor" id="ph--quotes--regular" xmlns="http://www.w3.org/2000/svg"><path d="M100 56H40a16 16 0 0 0-16 16v64a16 16 0 0 0 16 16h60v8a32 32 0 0 1-32 32 8 8 0 0 0 0 16 48.05 48.05 0 0 0 48-48V72a16 16 0 0 0-16-16Zm0 80H40V72h60Zm116-80h-60a16 16 0 0 0-16 16v64a16 16 0 0 0 16 16h60v8a32 32 0 0 1-32 32 8 8 0 0 0 0 16 48.05 48.05 0 0 0 48-48V72a16 16 0 0 0-16-16Zm0 80h-60V72h60Z"/></symbol><symbol viewBox="0 0 256 256" fill="currentColor" id="ph--rows--regular" xmlns="http://www.w3.org/2000/svg"><path d="M208 136H48a16 16 0 0 0-16 16v40a16 16 0 0 0 16 16h160a16 16 0 0 0 16-16v-40a16 16 0 0 0-16-16Zm0 56H48v-40h160v40Zm0-144H48a16 16 0 0 0-16 16v40a16 16 0 0 0 16 16h160a16 16 0 0 0 16-16V64a16 16 0 0 0-16-16Zm0 56H48V64h160v40Z"/></symbol><symbol viewBox="0 0 256 256" fill="currentColor" id="ph--sparkle--regular" xmlns="http://www.w3.org/2000/svg"><path d="M197.58 129.06 146 110l-19-51.62a15.92 15.92 0 0 0-29.88 0L78 110l-51.62 19a15.92 15.92 0 0 0 0 29.88L78 178l19 51.62a15.92 15.92 0 0 0 29.88 0L146 178l51.62-19a15.92 15.92 0 0 0 0-29.88ZM137 164.22a8 8 0 0 0-4.74 4.74L112 223.85 91.78 169a8 8 0 0 0-4.78-4.78L32.15 144 87 123.78a8 8 0 0 0 4.78-4.78L112 64.15 132.22 119a8 8 0 0 0 4.74 4.74L191.85 144ZM144 40a8 8 0 0 1 8-8h16V16a8 8 0 0 1 16 0v16h16a8 8 0 0 1 0 16h-16v16a8 8 0 0 1-16 0V48h-16a8 8 0 0 1-8-8Zm104 48a8 8 0 0 1-8 8h-8v8a8 8 0 0 1-16 0v-8h-8a8 8 0 0 1 0-16h8v-8a8 8 0 0 1 16 0v8h8a8 8 0 0 1 8 8Z"/></symbol><symbol viewBox="0 0 256 256" fill="currentColor" id="ph--star--fill" xmlns="http://www.w3.org/2000/svg"><path d="m234.29 114.85-45 38.83L203 211.75a16.4 16.4 0 0 1-24.5 17.82L128 198.49l-50.53 31.08A16.4 16.4 0 0 1 53 211.75l13.76-58.07-45-38.83A16.46 16.46 0 0 1 31.08 86l59-4.76 22.76-55.08a16.36 16.36 0 0 1 30.27 0l22.75 55.08 59 4.76a16.46 16.46 0 0 1 9.37 28.86Z"/></symbol><symbol viewBox="0 0 256 256" fill="currentColor" id="ph--star--regular" xmlns="http://www.w3.org/2000/svg"><path d="M239.18 97.26A16.38 16.38 0 0 0 224.92 86l-59-4.76-22.78-55.09a16.36 16.36 0 0 0-30.27 0L90.11 81.23 31.08 86a16.46 16.46 0 0 0-9.37 28.86l45 38.83L53 211.75a16.38 16.38 0 0 0 24.5 17.82l50.5-31.08 50.53 31.08A16.4 16.4 0 0 0 203 211.75l-13.76-58.07 45-38.83a16.43 16.43 0 0 0 4.94-17.59Zm-15.34 5.47-48.7 42a8 8 0 0 0-2.56 7.91l14.88 62.8a.37.37 0 0 1-.17.48c-.18.14-.23.11-.38 0l-54.72-33.65a8 8 0 0 0-8.38 0l-54.72 33.67c-.15.09-.19.12-.38 0a.37.37 0 0 1-.17-.48l14.88-62.8a8 8 0 0 0-2.56-7.91l-48.7-42c-.12-.1-.23-.19-.13-.5s.18-.27.33-.29l63.92-5.16a8 8 0 0 0 6.72-4.94l24.62-59.61c.08-.17.11-.25.35-.25s.27.08.35.25L153 91.86a8 8 0 0 0 6.75 4.92l63.92 5.16c.15 0 .24 0 .33.29s0 .4-.16.5Z"/></symbol><symbol viewBox="0 0 256 256" fill="currentColor" id="ph--subtitles--regular" xmlns="http://www.w3.org/2000/svg"><path d="M224 48H32a16 16 0 0 0-16 16v128a16 16 0 0 0 16 16h192a16 16 0 0 0 16-16V64a16 16 0 0 0-16-16Zm0 144H32V64h192v128ZM48 136a8 8 0 0 1 8-8h16a8 8 0 0 1 0 16H56a8 8 0 0 1-8-8Zm160 0a8 8 0 0 1-8 8h-96a8 8 0 0 1 0-16h96a8 8 0 0 1 8 8Zm-48 32a8 8 0 0 1-8 8H56a8 8 0 0 1 0-16h96a8 8 0 0 1 8 8Zm48 0a8 8 0 0 1-8 8h-16a8 8 0 0 1 0-16h16a8 8 0 0 1 8 8Z"/></symbol><symbol viewBox="0 0 256 256" fill="currentColor" id="ph--table--regular" xmlns="http://www.w3.org/2000/svg"><path d="M224 48H32a8 8 0 0 0-8 8v136a16 16 0 0 0 16 16h176a16 16 0 0 0 16-16V56a8 8 0 0 0-8-8ZM40 112h40v32H40Zm56 0h120v32H96Zm120-48v32H40V64ZM40 160h40v32H40Zm176 32H96v-32h120v32Z"/></symbol><symbol viewBox="0 0 256 256" fill="currentColor" id="ph--text-b--regular" xmlns="http://www.w3.org/2000/svg"><path d="M178.48 115.7A44 44 0 0 0 148 40H80a8 8 0 0 0-8 8v152a8 8 0 0 0 8 8h80a48 48 0 0 0 18.48-92.3ZM88 56h60a28 28 0 0 1 0 56H88Zm72 136H88v-64h72a32 32 0 0 1 0 64Z"/></symbol><symbol viewBox="0 0 256 256" fill="currentColor" id="ph--text-h--regular" xmlns="http://www.w3.org/2000/svg"><path d="M208 56v144a8 8 0 0 1-16 0v-64H64v64a8 8 0 0 1-16 0V56a8 8 0 0 1 16 0v64h128V56a8 8 0 0 1 16 0Z"/></symbol><symbol viewBox="0 0 256 256" fill="currentColor" id="ph--text-h-five--regular" xmlns="http://www.w3.org/2000/svg"><path d="M152 56v120a8 8 0 0 1-16 0v-52H48v52a8 8 0 0 1-16 0V56a8 8 0 0 1 16 0v52h88V56a8 8 0 0 1 16 0Zm60 88a38.8 38.8 0 0 0-9.41 1.14l4.19-25.14H240a8 8 0 0 0 0-16h-40a8 8 0 0 0-7.89 6.68l-8 48a8 8 0 0 0 13.6 6.92A19.73 19.73 0 0 1 212 160a20 20 0 0 1 0 40 19.73 19.73 0 0 1-14.29-5.6 8 8 0 1 0-11.42 11.2A35.54 35.54 0 0 0 212 216a36 36 0 0 0 0-72Z"/></symbol><symbol viewBox="0 0 256 256" fill="currentColor" id="ph--text-h-four--regular" xmlns="http://www.w3.org/2000/svg"><path d="M152 56v120a8 8 0 0 1-16 0v-52H48v52a8 8 0 0 1-16 0V56a8 8 0 0 1 16 0v52h88V56a8 8 0 0 1 16 0Zm104 128a8 8 0 0 1-8 8h-8v16a8 8 0 0 1-16 0v-16h-48a8 8 0 0 1-6.31-12.91l56-72A8 8 0 0 1 240 112v64h8a8 8 0 0 1 8 8Zm-32-48.68L192.36 176H224Z"/></symbol><symbol viewBox="0 0 256 256" fill="currentColor" id="ph--text-h-one--regular" xmlns="http://www.w3.org/2000/svg"><path d="M152 56v120a8 8 0 0 1-16 0v-52H48v52a8 8 0 0 1-16 0V56a8 8 0 0 1 16 0v52h88V56a8 8 0 0 1 16 0Zm75.77 49a8 8 0 0 0-8.21.39l-24 16a8 8 0 1 0 8.88 13.32L216 127v81a8 8 0 0 0 16 0v-96a8 8 0 0 0-4.23-7Z"/></symbol><symbol viewBox="0 0 256 256" fill="currentColor" id="ph--text-h-six--regular" xmlns="http://www.w3.org/2000/svg"><path d="M152 56v120a8 8 0 0 1-16 0v-52H48v52a8 8 0 0 1-16 0V56a8 8 0 0 1 16 0v52h88V56a8 8 0 0 1 16 0Zm96 124a36 36 0 1 1-67.34-17.68c.07-.14.14-.28.22-.42l32.25-54a8 8 0 0 1 13.74 8.2l-16.69 28c.6 0 1.21-.05 1.82-.05A36 36 0 0 1 248 180Zm-16 0a20 20 0 1 0-20 20 20 20 0 0 0 20-20Z"/></symbol><symbol viewBox="0 0 256 256" fill="currentColor" id="ph--text-h-three--regular" xmlns="http://www.w3.org/2000/svg"><path d="M152 56v120a8 8 0 0 1-16 0v-52H48v52a8 8 0 0 1-16 0V56a8 8 0 0 1 16 0v52h88V56a8 8 0 0 1 16 0Zm73.52 90.63 21-30A8 8 0 0 0 240 104h-48a8 8 0 0 0 0 16h32.63l-19.18 27.41A8 8 0 0 0 212 160a20 20 0 1 1-14.29 34 8 8 0 1 0-11.42 11.19A36 36 0 0 0 248 180a36.07 36.07 0 0 0-22.48-33.37Z"/></symbol><symbol viewBox="0 0 256 256" fill="currentColor" id="ph--text-h-two--regular" xmlns="http://www.w3.org/2000/svg"><path d="M152 56v120a8 8 0 0 1-16 0v-52H48v52a8 8 0 0 1-16 0V56a8 8 0 0 1 16 0v52h88V56a8 8 0 0 1 16 0Zm88 144h-32l33.55-44.74a32 32 0 1 0-55.73-29.93 8 8 0 1 0 15.08 5.34 16.28 16.28 0 0 1 2.32-4.3 16 16 0 1 1 25.54 19.27L185.6 203.2A8 8 0 0 0 192 216h48a8 8 0 0 0 0-16Z"/></symbol><symbol viewBox="0 0 256 256" fill="currentColor" id="ph--text-italic--regular" xmlns="http://www.w3.org/2000/svg"><path d="M200 56a8 8 0 0 1-8 8h-34.23L115.1 192H144a8 8 0 0 1 0 16H64a8 8 0 0 1 0-16h34.23L140.9 64H112a8 8 0 0 1 0-16h80a8 8 0 0 1 8 8Z"/></symbol><symbol viewBox="0 0 256 256" fill="currentColor" id="ph--text-strikethrough--regular" xmlns="http://www.w3.org/2000/svg"><path d="M224 128a8 8 0 0 1-8 8h-40.07c9.19 7.11 16.07 17.2 16.07 32 0 13.34-7 25.7-19.75 34.79C160.33 211.31 144.61 216 128 216s-32.33-4.69-44.25-13.21C71 193.7 64 181.34 64 168a8 8 0 0 1 16 0c0 17.35 22 32 48 32s48-14.65 48-32c0-14.85-10.54-23.58-38.77-32H40a8 8 0 0 1 0-16h176a8 8 0 0 1 8 8ZM76.33 104a8 8 0 0 0 7.61-10.49 17.3 17.3 0 0 1-.83-5.51c0-18.24 19.3-32 44.89-32 18.84 0 34.16 7.42 41 19.85a8 8 0 0 0 14-7.7C173.33 50.52 152.77 40 128 40c-34.71 0-60.89 20.63-60.89 48a33.73 33.73 0 0 0 1.62 10.49 8 8 0 0 0 7.6 5.51Z"/></symbol><symbol viewBox="0 0 256 256" fill="currentColor" id="ph--text-t--regular" xmlns="http://www.w3.org/2000/svg"><path d="M208 56v32a8 8 0 0 1-16 0V64h-56v128h24a8 8 0 0 1 0 16H96a8 8 0 0 1 0-16h24V64H64v24a8 8 0 0 1-16 0V56a8 8 0 0 1 8-8h144a8 8 0 0 1 8 8Z"/></symbol><symbol viewBox="0 0 256 256" fill="currentColor" id="ph--trash--regular" xmlns="http://www.w3.org/2000/svg"><path d="M216 48h-40v-8a24 24 0 0 0-24-24h-48a24 24 0 0 0-24 24v8H40a8 8 0 0 0 0 16h8v144a16 16 0 0 0 16 16h128a16 16 0 0 0 16-16V64h8a8 8 0 0 0 0-16ZM96 40a8 8 0 0 1 8-8h48a8 8 0 0 1 8 8v8H96Zm96 168H64V64h128Zm-80-104v64a8 8 0 0 1-16 0v-64a8 8 0 0 1 16 0Zm48 0v64a8 8 0 0 1-16 0v-64a8 8 0 0 1 16 0Z"/></symbol><symbol viewBox="0 0 256 256" fill="currentColor" id="ph--upload-simple--regular" xmlns="http://www.w3.org/2000/svg"><path d="M224 144v64a8 8 0 0 1-8 8H40a8 8 0 0 1-8-8v-64a8 8 0 0 1 16 0v56h160v-56a8 8 0 0 1 16 0ZM93.66 77.66 120 51.31V144a8 8 0 0 0 16 0V51.31l26.34 26.35a8 8 0 0 0 11.32-11.32l-40-40a8 8 0 0 0-11.32 0l-40 40a8 8 0 0 0 11.32 11.32Z"/></symbol><symbol viewBox="0 0 256 256" fill="currentColor" id="ph--user--regular" xmlns="http://www.w3.org/2000/svg"><path d="M230.92 212c-15.23-26.33-38.7-45.21-66.09-54.16a72 72 0 1 0-73.66 0c-27.39 8.94-50.86 27.82-66.09 54.16a8 8 0 1 0 13.85 8c18.84-32.56 52.14-52 89.07-52s70.23 19.44 89.07 52a8 8 0 1 0 13.85-8ZM72 96a56 56 0 1 1 56 56 56.06 56.06 0 0 1-56-56Z"/></symbol><symbol viewBox="0 0 256 256" fill="currentColor" id="ph--warning--duotone" xmlns="http://www.w3.org/2000/svg"><path d="M215.46 216H40.54c-12.62 0-20.54-13.21-14.41-23.91l87.46-151.87c6.3-11 22.52-11 28.82 0l87.46 151.87c6.13 10.7-1.79 23.91-14.41 23.91Z" opacity=".2"/><path d="M236.8 188.09 149.35 36.22a24.76 24.76 0 0 0-42.7 0L19.2 188.09a23.51 23.51 0 0 0 0 23.72A24.35 24.35 0 0 0 40.55 224h174.9a24.35 24.35 0 0 0 21.33-12.19 23.51 23.51 0 0 0 .02-23.72Zm-13.87 15.71a8.5 8.5 0 0 1-7.48 4.2H40.55a8.5 8.5 0 0 1-7.48-4.2 7.59 7.59 0 0 1 0-7.72l87.45-151.87a8.75 8.75 0 0 1 15 0l87.45 151.87a7.59 7.59 0 0 1-.04 7.72ZM120 144v-40a8 8 0 0 1 16 0v40a8 8 0 0 1-16 0Zm20 36a12 12 0 1 1-12-12 12 12 0 0 1 12 12Z"/></symbol><symbol viewBox="0 0 256 256" fill="currentColor" id="ph--warning-circle--duotone" xmlns="http://www.w3.org/2000/svg"><path d="M224 128a96 96 0 1 1-96-96 96 96 0 0 1 96 96Z" opacity=".2"/><path d="M128 24a104 104 0 1 0 104 104A104.11 104.11 0 0 0 128 24Zm0 192a88 88 0 1 1 88-88 88.1 88.1 0 0 1-88 88Zm-8-80V80a8 8 0 0 1 16 0v56a8 8 0 0 1-16 0Zm20 36a12 12 0 1 1-12-12 12 12 0 0 1 12 12Z"/></symbol><symbol viewBox="0 0 256 256" fill="currentColor" id="ph--x--regular" xmlns="http://www.w3.org/2000/svg"><path d="M205.66 194.34a8 8 0 0 1-11.32 11.32L128 139.31l-66.34 66.35a8 8 0 0 1-11.32-11.32L116.69 128 50.34 61.66a8 8 0 0 1 11.32-11.32L128 116.69l66.34-66.35a8 8 0 0 1 11.32 11.32L139.31 128Z"/></symbol></svg>