<?xml version="1.0" encoding="utf-8"?><svg xmlns="http://www.w3.org/2000/svg" xmlns:xlink="http://www.w3.org/1999/xlink"><symbol viewBox="0 0 256 256" fill="currentColor" id="ph--arrow-down--regular" xmlns="http://www.w3.org/2000/svg"><path d="m205.66 149.66-72 72a8 8 0 0 1-11.32 0l-72-72a8 8 0 0 1 11.32-11.32L120 196.69V40a8 8 0 0 1 16 0v156.69l58.34-58.35a8 8 0 0 1 11.32 11.32Z"/></symbol><symbol viewBox="0 0 256 256" fill="currentColor" id="ph--caret-down--bold" xmlns="http://www.w3.org/2000/svg"><path d="m216.49 104.49-80 80a12 12 0 0 1-17 0l-80-80a12 12 0 0 1 17-17L128 159l71.51-71.52a12 12 0 0 1 17 17Z"/></symbol><symbol viewBox="0 0 256 256" fill="currentColor" id="ph--caret-right--bold" xmlns="http://www.w3.org/2000/svg"><path d="m184.49 136.49-80 80a12 12 0 0 1-17-17L159 128 87.51 56.49a12 12 0 1 1 17-17l80 80a12 12 0 0 1-.02 17Z"/></symbol><symbol viewBox="0 0 256 256" fill="currentColor" id="ph--caret-up--bold" xmlns="http://www.w3.org/2000/svg"><path d="M216.49 168.49a12 12 0 0 1-17 0L128 97l-71.51 71.49a12 12 0 0 1-17-17l80-80a12 12 0 0 1 17 0l80 80a12 12 0 0 1 0 17Z"/></symbol><symbol viewBox="0 0 256 256" fill="currentColor" id="ph--check--regular" xmlns="http://www.w3.org/2000/svg"><path d="m229.66 77.66-128 128a8 8 0 0 1-11.32 0l-56-56a8 8 0 0 1 11.32-11.32L96 188.69 218.34 66.34a8 8 0 0 1 11.32 11.32Z"/></symbol><symbol viewBox="0 0 256 256" fill="currentColor" id="ph--check-circle--duotone" xmlns="http://www.w3.org/2000/svg"><path d="M224 128a96 96 0 1 1-96-96 96 96 0 0 1 96 96Z" opacity=".2"/><path d="M173.66 98.34a8 8 0 0 1 0 11.32l-56 56a8 8 0 0 1-11.32 0l-24-24a8 8 0 0 1 11.32-11.32L112 148.69l50.34-50.35a8 8 0 0 1 11.32 0ZM232 128A104 104 0 1 1 128 24a104.11 104.11 0 0 1 104 104Zm-16 0a88 88 0 1 0-88 88 88.1 88.1 0 0 0 88-88Z"/></symbol><symbol viewBox="0 0 256 256" fill="currentColor" id="ph--clipboard--regular" xmlns="http://www.w3.org/2000/svg"><path d="M200 32h-36.26a47.92 47.92 0 0 0-71.48 0H56a16 16 0 0 0-16 16v168a16 16 0 0 0 16 16h144a16 16 0 0 0 16-16V48a16 16 0 0 0-16-16Zm-72 0a32 32 0 0 1 32 32H96a32 32 0 0 1 32-32Zm72 184H56V48h26.75A47.93 47.93 0 0 0 80 64v8a8 8 0 0 0 8 8h80a8 8 0 0 0 8-8v-8a47.93 47.93 0 0 0-2.75-16H200Z"/></symbol><symbol viewBox="0 0 256 256" fill="currentColor" id="ph--copy--regular" xmlns="http://www.w3.org/2000/svg"><path d="M216 32H88a8 8 0 0 0-8 8v40H40a8 8 0 0 0-8 8v128a8 8 0 0 0 8 8h128a8 8 0 0 0 8-8v-40h40a8 8 0 0 0 8-8V40a8 8 0 0 0-8-8Zm-56 176H48V96h112Zm48-48h-32V88a8 8 0 0 0-8-8H96V48h112Z"/></symbol><symbol viewBox="0 0 256 256" fill="currentColor" id="ph--dot--bold" xmlns="http://www.w3.org/2000/svg"><path d="M144 128a16 16 0 1 1-16-16 16 16 0 0 1 16 16Z"/></symbol><symbol viewBox="0 0 256 256" fill="currentColor" id="ph--info--duotone" xmlns="http://www.w3.org/2000/svg"><path d="M224 128a96 96 0 1 1-96-96 96 96 0 0 1 96 96Z" opacity=".2"/><path d="M144 176a8 8 0 0 1-8 8 16 16 0 0 1-16-16v-40a8 8 0 0 1 0-16 16 16 0 0 1 16 16v40a8 8 0 0 1 8 8Zm88-48A104 104 0 1 1 128 24a104.11 104.11 0 0 1 104 104Zm-16 0a88 88 0 1 0-88 88 88.1 88.1 0 0 0 88-88Zm-92-32a12 12 0 1 0-12-12 12 12 0 0 0 12 12Z"/></symbol><symbol viewBox="0 0 256 256" fill="currentColor" id="ph--minus--regular" xmlns="http://www.w3.org/2000/svg"><path d="M224 128a8 8 0 0 1-8 8H40a8 8 0 0 1 0-16h176a8 8 0 0 1 8 8Z"/></symbol><symbol viewBox="0 0 256 256" fill="currentColor" id="ph--placeholder--regular" xmlns="http://www.w3.org/2000/svg"><path d="M208 32H48a16 16 0 0 0-16 16v160a16 16 0 0 0 16 16h160a16 16 0 0 0 16-16V48a16 16 0 0 0-16-16ZM48 208V59.31L196.69 208ZM59.31 48H208v148.7Z"/></symbol><symbol viewBox="0 0 256 256" fill="currentColor" id="ph--warning--duotone" xmlns="http://www.w3.org/2000/svg"><path d="M215.46 216H40.54c-12.62 0-20.54-13.21-14.41-23.91l87.46-151.87c6.3-11 22.52-11 28.82 0l87.46 151.87c6.13 10.7-1.79 23.91-14.41 23.91Z" opacity=".2"/><path d="M236.8 188.09 149.35 36.22a24.76 24.76 0 0 0-42.7 0L19.2 188.09a23.51 23.51 0 0 0 0 23.72A24.35 24.35 0 0 0 40.55 224h174.9a24.35 24.35 0 0 0 21.33-12.19 23.51 23.51 0 0 0 .02-23.72Zm-13.87 15.71a8.5 8.5 0 0 1-7.48 4.2H40.55a8.5 8.5 0 0 1-7.48-4.2 7.59 7.59 0 0 1 0-7.72l87.45-151.87a8.75 8.75 0 0 1 15 0l87.45 151.87a7.59 7.59 0 0 1-.04 7.72ZM120 144v-40a8 8 0 0 1 16 0v40a8 8 0 0 1-16 0Zm20 36a12 12 0 1 1-12-12 12 12 0 0 1 12 12Z"/></symbol><symbol viewBox="0 0 256 256" fill="currentColor" id="ph--warning-circle--duotone" xmlns="http://www.w3.org/2000/svg"><path d="M224 128a96 96 0 1 1-96-96 96 96 0 0 1 96 96Z" opacity=".2"/><path d="M128 24a104 104 0 1 0 104 104A104.11 104.11 0 0 0 128 24Zm0 192a88 88 0 1 1 88-88 88.1 88.1 0 0 1-88 88Zm-8-80V80a8 8 0 0 1 16 0v56a8 8 0 0 1-16 0Zm20 36a12 12 0 1 1-12-12 12 12 0 0 1 12 12Z"/></symbol><symbol viewBox="0 0 256 256" fill="currentColor" id="ph--x--regular" xmlns="http://www.w3.org/2000/svg"><path d="M205.66 194.34a8 8 0 0 1-11.32 11.32L128 139.31l-66.34 66.35a8 8 0 0 1-11.32-11.32L116.69 128 50.34 61.66a8 8 0 0 1 11.32-11.32L128 116.69l66.34-66.35a8 8 0 0 1 11.32 11.32L139.31 128Z"/></symbol></svg>