<?xml version="1.0" encoding="utf-8"?><svg xmlns="http://www.w3.org/2000/svg" xmlns:xlink="http://www.w3.org/1999/xlink"><symbol viewBox="0 0 256 256" fill="currentColor" id="ph--building-office--regular" xmlns="http://www.w3.org/2000/svg"><path d="M248 208h-16V96a8 8 0 0 0 0-16h-48V48a8 8 0 0 0 0-16H40a8 8 0 0 0 0 16v160H24a8 8 0 0 0 0 16h224a8 8 0 0 0 0-16ZM216 96v112h-32V96ZM56 48h112v160h-24v-48a8 8 0 0 0-8-8H88a8 8 0 0 0-8 8v48H56Zm72 160H96v-40h32ZM72 80a8 8 0 0 1 8-8h16a8 8 0 0 1 0 16H80a8 8 0 0 1-8-8Zm48 0a8 8 0 0 1 8-8h16a8 8 0 0 1 0 16h-16a8 8 0 0 1-8-8Zm-48 40a8 8 0 0 1 8-8h16a8 8 0 0 1 0 16H80a8 8 0 0 1-8-8Zm48 0a8 8 0 0 1 8-8h16a8 8 0 0 1 0 16h-16a8 8 0 0 1-8-8Z"/></symbol><symbol viewBox="0 0 256 256" fill="currentColor" id="ph--note--regular" xmlns="http://www.w3.org/2000/svg"><path d="M88 96a8 8 0 0 1 8-8h64a8 8 0 0 1 0 16H96a8 8 0 0 1-8-8Zm8 40h64a8 8 0 0 0 0-16H96a8 8 0 0 0 0 16Zm32 16H96a8 8 0 0 0 0 16h32a8 8 0 0 0 0-16Zm96-104v108.69a15.86 15.86 0 0 1-4.69 11.31L168 219.31a15.86 15.86 0 0 1-11.31 4.69H48a16 16 0 0 1-16-16V48a16 16 0 0 1 16-16h160a16 16 0 0 1 16 16ZM48 208h104v-48a8 8 0 0 1 8-8h48V48H48Zm120-40v28.7l28.69-28.7Z"/></symbol><symbol viewBox="0 0 256 256" fill="currentColor" id="ph--user--regular" xmlns="http://www.w3.org/2000/svg"><path d="M230.92 212c-15.23-26.33-38.7-45.21-66.09-54.16a72 72 0 1 0-73.66 0c-27.39 8.94-50.86 27.82-66.09 54.16a8 8 0 1 0 13.85 8c18.84-32.56 52.14-52 89.07-52s70.23 19.44 89.07 52a8 8 0 1 0 13.85-8ZM72 96a56 56 0 1 1 56 56 56.06 56.06 0 0 1-56-56Z"/></symbol></svg>