<svg width="512" height="512" viewBox="0 0 512 512" fill="none" xmlns="http://www.w3.org/2000/svg">
                      <g style="mix-blend-mode:plus-lighter">
                        <g opacity="0.1">
                          <path d="M436.312 436.312C400.65 471.975 355.213 496.261 305.748 506.1C256.283 515.939 205.011 510.89 158.416 491.589C111.821 472.289 71.995 439.605 43.9753 397.67C15.9555 355.736 1 306.434 1 256C0.999997 205.566 15.9555 156.264 43.9752 114.33C71.995 72.3951 111.821 39.7111 158.416 20.4107C205.011 1.11038 256.283 -3.93948 305.748 5.89975C355.213 15.739 400.65 40.0254 436.312 75.6877L396.874 115.125C369.012 87.2632 333.513 68.2887 294.867 60.6015C256.221 52.9143 216.163 56.8596 179.759 71.9386C143.355 87.0176 112.24 112.553 90.3491 145.316C68.4578 178.078 56.7734 216.597 56.7734 256C56.7734 295.403 68.4578 333.922 90.3491 366.684C112.24 399.447 143.355 424.982 179.759 440.061C216.163 455.14 256.221 459.086 294.867 451.399C333.513 443.711 369.012 424.737 396.874 396.874L436.312 436.312Z" fill="url(#paint0_radial_15103_388)"></path>
                          <path d="M436.312 436.312C400.65 471.975 355.213 496.261 305.748 506.1C256.283 515.939 205.011 510.89 158.416 491.589C111.821 472.289 71.995 439.605 43.9753 397.67C15.9555 355.736 1 306.434 1 256C0.999997 205.566 15.9555 156.264 43.9752 114.33C71.995 72.3951 111.821 39.7111 158.416 20.4107C205.011 1.11038 256.283 -3.93948 305.748 5.89975C355.213 15.739 400.65 40.0254 436.312 75.6877L396.874 115.125C369.012 87.2632 333.513 68.2887 294.867 60.6015C256.221 52.9143 216.163 56.8596 179.759 71.9386C143.355 87.0176 112.24 112.553 90.3491 145.316C68.4578 178.078 56.7734 216.597 56.7734 256C56.7734 295.403 68.4578 333.922 90.3491 366.684C112.24 399.447 143.355 424.982 179.759 440.061C216.163 455.14 256.221 459.086 294.867 451.399C333.513 443.711 369.012 424.737 396.874 396.874L436.312 436.312Z" stroke="url(#paint1_linear_15103_388)" stroke-width="2" stroke-linejoin="bevel" style="mix-blend-mode:plus-lighter"></path>
                        </g>
                        <g opacity="0.1">
                          <path d="M436.312 436.312C459.991 412.633 478.774 384.522 491.589 353.584C504.404 322.646 511 289.487 511 256C511 222.513 504.404 189.354 491.589 158.416C478.774 127.478 459.991 99.3667 436.312 75.6877L396.874 115.125C415.374 133.625 430.049 155.588 440.061 179.759C450.073 203.931 455.227 229.837 455.227 256C455.227 282.163 450.073 308.069 440.061 332.241C430.049 356.412 415.374 378.375 396.874 396.874L436.312 436.312Z" stroke="url(#paint2_linear_15103_388)" stroke-width="2" stroke-linejoin="bevel" style="mix-blend-mode:plus-lighter"></path>
                        </g>
                        <g opacity="0.3">
                          <path d="M396.828 396.828C368.975 424.681 333.488 443.65 294.855 451.334C256.221 459.019 216.177 455.075 179.785 440.001C143.393 424.927 112.289 399.4 90.4045 366.648C68.5204 333.896 56.8398 295.391 56.8398 256C56.8398 216.61 68.5204 178.105 90.4044 145.353C112.288 112.601 143.393 87.074 179.785 72C216.177 56.9261 256.221 52.982 294.855 60.6667C333.488 68.3513 368.975 87.3195 396.828 115.173L359.135 152.866C338.737 132.468 312.748 118.576 284.455 112.949C256.162 107.321 226.836 110.209 200.184 121.249C173.533 132.288 150.754 150.983 134.727 174.968C118.7 198.954 110.146 227.153 110.146 256C110.146 284.848 118.7 313.047 134.727 337.033C150.754 361.018 173.533 379.713 200.184 390.752C226.836 401.792 256.162 404.68 284.455 399.052C312.748 393.424 338.737 379.533 359.135 359.135L396.828 396.828Z" fill="url(#paint3_radial_15103_388)"></path>
                          <path d="M396.828 396.828C368.975 424.681 333.488 443.65 294.855 451.334C256.221 459.019 216.177 455.075 179.785 440.001C143.393 424.927 112.289 399.4 90.4045 366.648C68.5204 333.896 56.8398 295.391 56.8398 256C56.8398 216.61 68.5204 178.105 90.4044 145.353C112.288 112.601 143.393 87.074 179.785 72C216.177 56.9261 256.221 52.982 294.855 60.6667C333.488 68.3513 368.975 87.3195 396.828 115.173L359.135 152.866C338.737 132.468 312.748 118.576 284.455 112.949C256.162 107.321 226.836 110.209 200.184 121.249C173.533 132.288 150.754 150.983 134.727 174.968C118.7 198.954 110.146 227.153 110.146 256C110.146 284.848 118.7 313.047 134.727 337.033C150.754 361.018 173.533 379.713 200.184 390.752C226.836 401.792 256.162 404.68 284.455 399.052C312.748 393.424 338.737 379.533 359.135 359.135L396.828 396.828Z" stroke="url(#paint4_linear_15103_388)" stroke-width="2" stroke-linejoin="bevel" style="mix-blend-mode:plus-lighter"></path>
                        </g>
                        <g opacity="0.3">
                          <path d="M396.827 396.828C415.321 378.334 429.991 356.379 440 332.216C450.009 308.053 455.16 282.155 455.16 256C455.16 229.846 450.009 203.948 440 179.785C429.991 155.622 415.321 133.666 396.827 115.173L359.134 152.866C372.678 166.41 383.422 182.489 390.751 200.184C398.081 217.88 401.854 236.847 401.854 256C401.854 275.154 398.081 294.121 390.751 311.816C383.422 329.512 372.678 345.591 359.134 359.135L396.827 396.828Z" stroke="url(#paint5_linear_15103_388)" stroke-width="2" stroke-linejoin="bevel" style="mix-blend-mode:plus-lighter"></path>
                        </g>
                        <g opacity="0.8">
                          <path d="M359.098 359.098C338.708 379.489 312.728 393.376 284.445 399.002C256.162 404.627 226.846 401.74 200.204 390.705C173.562 379.669 150.791 360.981 134.769 337.004C118.748 313.027 110.197 284.837 110.197 256C110.197 227.163 118.748 198.974 134.769 174.996C150.791 151.019 173.562 132.331 200.204 121.296C226.846 110.26 256.162 107.373 284.445 112.999C312.728 118.625 338.707 132.511 359.098 152.902L320.967 191.033C308.118 178.184 291.747 169.433 273.925 165.888C256.102 162.343 237.629 164.163 220.84 171.117C204.052 178.071 189.703 189.847 179.607 204.956C169.511 220.065 164.123 237.829 164.123 256C164.123 274.172 169.511 291.935 179.607 307.045C189.703 322.154 204.052 333.93 220.84 340.884C237.629 347.838 256.102 349.657 273.925 346.112C291.747 342.567 308.118 333.817 320.967 320.967L359.098 359.098Z" fill="url(#paint6_radial_15103_388)"></path>
                          <path d="M359.098 359.098C338.708 379.489 312.728 393.376 284.445 399.002C256.162 404.627 226.846 401.74 200.204 390.705C173.562 379.669 150.791 360.981 134.769 337.004C118.748 313.027 110.197 284.837 110.197 256C110.197 227.163 118.748 198.974 134.769 174.996C150.791 151.019 173.562 132.331 200.204 121.296C226.846 110.26 256.162 107.373 284.445 112.999C312.728 118.625 338.707 132.511 359.098 152.902L320.967 191.033C308.118 178.184 291.747 169.433 273.925 165.888C256.102 162.343 237.629 164.163 220.84 171.117C204.052 178.071 189.703 189.847 179.607 204.956C169.511 220.065 164.123 237.829 164.123 256C164.123 274.172 169.511 291.935 179.607 307.045C189.703 322.154 204.052 333.93 220.84 340.884C237.629 347.838 256.102 349.657 273.925 346.112C291.747 342.567 308.118 333.817 320.967 320.967L359.098 359.098Z" stroke="url(#paint7_linear_15103_388)" stroke-width="2" stroke-linejoin="bevel" style="mix-blend-mode:plus-lighter"></path>
                        </g>
                        <g opacity="0.8">
                          <path d="M359.098 359.098C372.637 345.559 383.377 329.486 390.704 311.797C398.031 294.107 401.803 275.147 401.803 256C401.803 236.853 398.031 217.893 390.704 200.204C383.377 182.514 372.637 166.441 359.098 152.902L320.967 191.033C329.499 199.565 336.266 209.693 340.883 220.84C345.501 231.987 347.877 243.935 347.877 256C347.877 268.066 345.501 280.013 340.883 291.16C336.266 302.307 329.499 312.436 320.967 320.967L359.098 359.098Z" stroke="url(#paint8_linear_15103_388)" stroke-width="2" stroke-linejoin="bevel" style="mix-blend-mode:plus-lighter"></path>
                        </g>
                        <path d="M320.931 320.931C308.089 333.772 291.727 342.518 273.915 346.061C256.102 349.604 237.64 347.786 220.861 340.836C204.082 333.886 189.741 322.116 179.651 307.016C169.561 291.915 164.176 274.162 164.176 256.001C164.176 237.839 169.561 220.086 179.651 204.985C189.741 189.885 204.082 178.116 220.861 171.166C237.64 164.216 256.102 162.397 273.915 165.94C291.727 169.483 308.089 178.229 320.931 191.071L287.838 224.163C281.541 217.866 273.519 213.578 264.785 211.841C256.051 210.103 246.997 210.995 238.77 214.403C230.543 217.811 223.511 223.582 218.564 230.986C213.616 238.39 210.975 247.095 210.975 256.001C210.975 264.906 213.616 273.611 218.564 281.015C223.511 288.42 230.543 294.191 238.77 297.598C246.997 301.006 256.051 301.898 264.785 300.161C273.519 298.423 281.541 294.135 287.838 287.838L320.931 320.931Z" fill="url(#paint9_radial_15103_388)"></path>
                        <path d="M320.931 320.931C308.089 333.772 291.727 342.518 273.915 346.061C256.102 349.604 237.64 347.786 220.861 340.836C204.082 333.886 189.741 322.116 179.651 307.016C169.561 291.915 164.176 274.162 164.176 256.001C164.176 237.839 169.561 220.086 179.651 204.985C189.741 189.885 204.082 178.116 220.861 171.166C237.64 164.216 256.102 162.397 273.915 165.94C291.727 169.483 308.089 178.229 320.931 191.071L287.838 224.163C281.541 217.866 273.519 213.578 264.785 211.841C256.051 210.103 246.997 210.995 238.77 214.403C230.543 217.811 223.511 223.582 218.564 230.986C213.616 238.39 210.975 247.095 210.975 256.001C210.975 264.906 213.616 273.611 218.564 281.015C223.511 288.42 230.543 294.191 238.77 297.598C246.997 301.006 256.051 301.898 264.785 300.161C273.519 298.423 281.541 294.135 287.838 287.838L320.931 320.931Z" stroke="url(#paint10_linear_15103_388)" stroke-width="2" stroke-linejoin="bevel" style="mix-blend-mode:plus-lighter"></path>
                        <path d="M320.93 320.931C329.457 312.404 336.221 302.281 340.835 291.14C345.45 280 347.825 268.059 347.825 256.001C347.825 243.942 345.45 232.001 340.835 220.861C336.221 209.72 329.457 199.597 320.93 191.071L287.838 224.163C292.019 228.344 295.336 233.307 297.598 238.77C299.861 244.233 301.026 250.088 301.026 256.001C301.026 261.913 299.861 267.768 297.598 273.231C295.336 278.694 292.019 283.657 287.838 287.838L320.93 320.931Z" stroke="url(#paint11_linear_15103_388)" stroke-width="2" stroke-linejoin="bevel" style="mix-blend-mode:plus-lighter"></path>
                      </g>
                      <defs>
                        <radialGradient id="paint0_radial_15103_388" cx="0" cy="0" r="1" gradientUnits="userSpaceOnUse" gradientTransform="translate(246.524 256) rotate(180) scale(252.469)">
                          <stop offset="0.635" stop-color="#2D6FFF" stop-opacity="0"></stop>
                          <stop offset="1" stop-color="#2D6FFF" stop-opacity="0.2"></stop>
                        </radialGradient>
                        <linearGradient id="paint1_linear_15103_388" x1="19.0912" y1="273.23" x2="390.392" y2="273.23" gradientUnits="userSpaceOnUse">
                          <stop stop-color="#2D6FFF" stop-opacity="0.3"></stop>
                          <stop offset="1" stop-color="#2D6FFF" stop-opacity="0.07"></stop>
                        </linearGradient>
                        <linearGradient id="paint2_linear_15103_388" x1="492.909" y1="273.23" x2="121.608" y2="273.23" gradientUnits="userSpaceOnUse">
                          <stop stop-color="#2D6FFF" stop-opacity="0.3"></stop>
                          <stop offset="1" stop-color="#2D6FFF" stop-opacity="0.07"></stop>
                        </linearGradient>
                        <radialGradient id="paint3_radial_15103_388" cx="0" cy="0" r="1" gradientUnits="userSpaceOnUse" gradientTransform="translate(248.599 256) rotate(180) scale(197.184)">
                          <stop offset="0.635" stop-color="#2D6FFF" stop-opacity="0"></stop>
                          <stop offset="1" stop-color="#2D6FFF" stop-opacity="0.2"></stop>
                        </radialGradient>
                        <linearGradient id="paint4_linear_15103_388" x1="70.9695" y1="269.457" x2="360.963" y2="269.457" gradientUnits="userSpaceOnUse">
                          <stop stop-color="#2D6FFF" stop-opacity="0.3"></stop>
                          <stop offset="1" stop-color="#2D6FFF" stop-opacity="0.07"></stop>
                        </linearGradient>
                        <linearGradient id="paint5_linear_15103_388" x1="441.031" y1="269.457" x2="151.037" y2="269.457" gradientUnits="userSpaceOnUse">
                          <stop stop-color="#2D6FFF" stop-opacity="0.3"></stop>
                          <stop offset="1" stop-color="#2D6FFF" stop-opacity="0.07"></stop>
                        </linearGradient>
                        <radialGradient id="paint6_radial_15103_388" cx="0" cy="0" r="1" gradientUnits="userSpaceOnUse" gradientTransform="translate(250.582 256) rotate(180) scale(144.356)">
                          <stop offset="0.635" stop-color="#2D6FFF" stop-opacity="0"></stop>
                          <stop offset="1" stop-color="#2D6FFF" stop-opacity="0.2"></stop>
                        </radialGradient>
                        <linearGradient id="paint7_linear_15103_388" x1="120.541" y1="265.852" x2="332.842" y2="265.852" gradientUnits="userSpaceOnUse">
                          <stop stop-color="#2D6FFF" stop-opacity="0.3"></stop>
                          <stop offset="1" stop-color="#2D6FFF" stop-opacity="0.07"></stop>
                        </linearGradient>
                        <linearGradient id="paint8_linear_15103_388" x1="391.459" y1="265.852" x2="179.158" y2="265.852" gradientUnits="userSpaceOnUse">
                          <stop stop-color="#2D6FFF" stop-opacity="0.3"></stop>
                          <stop offset="1" stop-color="#2D6FFF" stop-opacity="0.07"></stop>
                        </linearGradient>
                        <radialGradient id="paint9_radial_15103_388" cx="0" cy="0" r="1" gradientUnits="userSpaceOnUse" gradientTransform="translate(252.588 256.001) rotate(180) scale(90.9136)">
                          <stop offset="0.635" stop-color="#2D6FFF" stop-opacity="0"></stop>
                          <stop offset="1" stop-color="#2D6FFF" stop-opacity="0.2"></stop>
                        </radialGradient>
                        <linearGradient id="paint10_linear_15103_388" x1="170.69" y1="262.205" x2="304.395" y2="262.205" gradientUnits="userSpaceOnUse">
                          <stop stop-color="#2D6FFF" stop-opacity="0.3"></stop>
                          <stop offset="1" stop-color="#2D6FFF" stop-opacity="0.07"></stop>
                        </linearGradient>
                        <linearGradient id="paint11_linear_15103_388" x1="341.311" y1="262.205" x2="207.606" y2="262.205" gradientUnits="userSpaceOnUse">
                          <stop stop-color="#2D6FFF" stop-opacity="0.3"></stop>
                          <stop offset="1" stop-color="#2D6FFF" stop-opacity="0.07"></stop>
                        </linearGradient>
                      </defs>
                    </svg>
