<svg width="52" height="43" viewBox="0 0 52 43" fill="none" xmlns="http://www.w3.org/2000/svg">
                <path d="M19 15.5005H46C49.0376 15.5005 51.5 17.9629 51.5 21.0005V37.0005C51.5 40.0381 49.0376 42.5005 46 42.5005H19C15.9624 42.5005 13.5 40.0381 13.5 37.0005V21.0005C13.5 17.9629 15.9624 15.5005 19 15.5005Z" fill="#020202"></path>
                <path d="M19 15.5005H46C49.0376 15.5005 51.5 17.9629 51.5 21.0005V37.0005C51.5 40.0381 49.0376 42.5005 46 42.5005H19C15.9624 42.5005 13.5 40.0381 13.5 37.0005V21.0005C13.5 17.9629 15.9624 15.5005 19 15.5005Z" stroke="#FB44B2"></path>
                <path d="M25.5879 33.0005H24.5566V29.2446L21.1465 24.2114H22.4004L25.0723 28.3833L27.7559 24.2114H29.0039L25.5879 29.2563V33.0005ZM32.0327 33.1177C31.4507 33.1177 30.9273 32.9849 30.4624 32.7192C29.9976 32.4536 29.6304 32.0923 29.3609 31.6353C29.0952 31.1743 28.9624 30.6528 28.9624 30.0708C28.9624 29.4927 29.0952 28.9751 29.3609 28.5181C29.6304 28.0571 29.9976 27.6938 30.4624 27.4282C30.9273 27.1587 31.4507 27.0239 32.0327 27.0239C32.6148 27.0239 33.1363 27.1587 33.5972 27.4282C34.0581 27.6938 34.4214 28.0571 34.687 28.5181C34.9527 28.9751 35.0855 29.4927 35.0855 30.0708C35.0855 30.6528 34.9527 31.1743 34.687 31.6353C34.4214 32.0923 34.0581 32.4536 33.5972 32.7192C33.1363 32.9849 32.6148 33.1177 32.0327 33.1177ZM32.0269 32.2505C32.4214 32.2505 32.7749 32.1548 33.0874 31.9634C33.3999 31.772 33.646 31.5122 33.8257 31.1841C34.0093 30.856 34.1011 30.4849 34.1011 30.0708C34.1011 29.6567 34.0093 29.2856 33.8257 28.9575C33.646 28.6294 33.3999 28.3696 33.0874 28.1782C32.7749 27.9868 32.4214 27.8911 32.0269 27.8911C31.6323 27.8911 31.2769 27.9868 30.9605 28.1782C30.648 28.3696 30.3999 28.6294 30.2163 28.9575C30.0366 29.2856 29.9468 29.6567 29.9468 30.0708C29.9468 30.4849 30.0366 30.856 30.2163 31.1841C30.3999 31.5122 30.648 31.772 30.9605 31.9634C31.2769 32.1548 31.6323 32.2505 32.0269 32.2505ZM42.2862 33.0005H41.4424L41.4073 32.0513C41.1924 32.395 40.9092 32.6587 40.5577 32.8423C40.21 33.0259 39.7979 33.1177 39.3213 33.1177C38.544 33.1177 37.9288 32.8833 37.4756 32.4146C37.0264 31.9419 36.8018 31.2974 36.8018 30.481V27.1411H37.7627V30.4106C37.7627 30.9653 37.919 31.4087 38.2315 31.7407C38.5479 32.0728 38.9678 32.2388 39.4913 32.2388C40.0381 32.2388 40.4795 32.0591 40.8155 31.6997C41.1553 31.3403 41.3252 30.8716 41.3252 30.2935V27.1411H42.2862V33.0005Z" fill="#FB44B2"></path>
                <path d="M16.575 7.12762L1.46191 1L4.66452 16.9938L16.5749 7.12954L16.575 7.12762Z" fill="#020202"></path>
                <path d="M16.575 7.12762L1.46191 1L4.66452 16.9938L16.5749 7.12954L16.575 7.12762Z" stroke="#FB44B2"></path>
              </svg>
