<?xml version="1.0" encoding="UTF-8" standalone="no"?>
<!DOCTYPE svg PUBLIC "-//W3C//DTD SVG 1.1//EN" "http://www.w3.org/Graphics/SVG/1.1/DTD/svg11.dtd">
<svg width="100%" height="100%" viewBox="0 0 3200 1067" version="1.1" xmlns="http://www.w3.org/2000/svg" xmlns:xlink="http://www.w3.org/1999/xlink" xml:space="preserve" xmlns:serif="http://www.serif.com/" style="fill-rule:evenodd;clip-rule:evenodd;stroke-linejoin:round;stroke-miterlimit:2;">
  <rect id="dxos-horizontal-white" x="0" y="0" width="3200" height="1066.67" style="fill:none;"/>
  <path d="M976.155,59.259l-445.724,278.584l-445.748,-278.584l-25.424,27.285l323.379,444.622l-323.379,444.634l25.424,27.272l445.748,-278.583l445.724,278.583l25.423,-27.272l-323.366,-444.634l323.366,-444.622l-25.423,-27.285Zm-418.388,306.286l355.538,-222.216l-258.579,355.538l-96.959,-133.322Zm-410.234,-222.216l355.563,222.216l-96.984,133.322l-258.579,-355.538Zm401.877,275.304l81.842,112.533l-81.842,112.519l0,-225.052Zm-119.825,112.533l81.842,-112.533l0,225.052l-81.842,-112.519Zm128.182,165.62l96.972,-133.334l258.566,355.55l-355.538,-222.216Zm-151.655,-133.334l96.984,133.334l-355.563,222.216l258.579,-355.55Z" style="fill:#fff;fill-rule:nonzero;"/><path d="M1195.84,325.359l0,385.595l81.07,0c29.006,0 55.81,-4.95 80.411,-14.839c24.613,-9.888 45.706,-23.398 63.28,-40.528c17.574,-17.143 31.311,-37.464 41.2,-60.976c9.888,-23.499 14.826,-48.872 14.826,-76.132c0,-27.677 -4.723,-53.278 -14.168,-76.79c-9.445,-23.486 -22.853,-43.82 -40.212,-60.963c-17.358,-17.131 -38.553,-30.64 -63.597,-40.541c-25.056,-9.876 -52.961,-14.826 -83.715,-14.826l-79.095,0Zm-51.417,-47.454l134.475,0c37.337,0 71.396,6.153 102.162,18.447c30.754,12.319 57.115,29.235 79.095,50.759c21.967,21.536 38.996,46.909 51.075,76.131c12.078,29.235 18.13,60.964 18.13,95.237c0,34.274 -6.267,66.142 -18.789,95.579c-12.522,29.437 -29.88,54.823 -52.062,76.132c-22.195,21.321 -48.455,38.123 -78.778,50.429c-30.311,12.294 -63.268,18.447 -98.858,18.447l-136.45,0l0,-481.161Z" style="fill:#fff;fill-rule:nonzero;"/><path d="M1791.04,552.097l-135.779,206.972l-58.013,0l164.127,-247.171l-152.909,-233.991l58.001,0l125.889,190.487l125.232,-190.487l58.001,0l-153.568,230.686l163.456,250.476l-58.001,0l-136.436,-206.972Z" style="fill:#fff;fill-rule:nonzero;"/><path d="M2307.13,716.883c27.69,0 53.392,-5.279 77.119,-15.826c23.727,-10.547 44.263,-24.816 61.622,-42.833c17.358,-18.017 30.981,-38.996 40.87,-62.951c9.888,-23.942 14.826,-49.543 14.826,-76.79c0,-27.234 -4.938,-52.835 -14.826,-76.79c-9.889,-23.942 -23.512,-44.922 -40.87,-62.951c-17.359,-18.004 -37.895,-32.286 -61.622,-42.833c-23.727,-10.546 -49.429,-15.826 -77.119,-15.826c-27.69,0 -53.392,5.28 -77.119,15.826c-23.727,10.547 -44.276,24.829 -61.622,42.833c-17.371,18.029 -30.982,39.009 -40.87,62.951c-9.889,23.955 -14.827,49.556 -14.827,76.79c0,27.247 4.938,52.848 14.827,76.79c9.888,23.955 23.499,44.934 40.87,62.951c17.346,18.017 37.895,32.286 61.622,42.833c23.727,10.547 49.429,15.826 77.119,15.826m0,48.771c-34.274,0 -66.357,-6.495 -96.238,-19.447c-29.88,-12.953 -56.013,-30.64 -78.423,-53.063c-22.41,-22.411 -40.11,-48.543 -53.063,-78.424c-12.965,-29.88 -19.447,-61.963 -19.447,-96.237c0,-34.274 6.482,-66.344 19.447,-96.237c12.953,-29.868 30.653,-56.013 53.063,-78.424c22.41,-22.41 48.543,-40.097 78.423,-53.062c29.881,-12.965 61.964,-19.448 96.238,-19.448c34.273,0 66.344,6.483 96.237,19.448c29.868,12.965 56.013,30.652 78.423,53.062c22.411,22.411 40.098,48.556 53.063,78.424c12.965,29.893 19.448,61.963 19.448,96.237c0,34.274 -6.483,66.357 -19.448,96.237c-12.965,29.881 -30.652,56.013 -53.063,78.424c-22.41,22.423 -48.555,40.11 -78.423,53.063c-29.893,12.952 -61.964,19.447 -96.237,19.447" style="fill:#fff;fill-rule:nonzero;"/><path d="M2808.72,765.654c-39.111,0 -72.283,-7.799 -99.53,-23.41c-27.246,-15.586 -50.745,-37.237 -70.522,-64.914l43.504,-32.957c16.256,25.044 34.489,43.732 54.708,56.026c20.195,12.306 44.15,18.459 71.84,18.459c14.94,0 28.677,-2.304 41.199,-6.925c12.522,-4.609 23.284,-10.876 32.299,-18.789c9.002,-7.901 16.029,-17.46 21.093,-28.665c5.039,-11.205 7.572,-23.398 7.572,-36.578c0,-14.94 -3.292,-27.462 -9.876,-37.579c-6.597,-10.103 -15.396,-18.776 -26.373,-26.031c-10.99,-7.255 -23.512,-13.509 -37.566,-18.789c-14.079,-5.267 -28.576,-10.547 -43.504,-15.814c-16.712,-5.697 -33.071,-11.965 -49.112,-18.789c-16.042,-6.799 -30.311,-15.257 -42.833,-25.373c-12.534,-10.104 -22.739,-22.296 -30.653,-36.578c-7.913,-14.282 -11.863,-31.969 -11.863,-53.063c0,-17.574 3.722,-33.944 11.205,-49.1c7.47,-15.168 17.789,-28.348 30.982,-39.553c13.18,-11.205 28.766,-19.992 46.783,-26.361c18.017,-6.368 37.578,-9.559 58.672,-9.559c34.273,0 63.28,6.369 87.007,19.118c23.727,12.75 44.377,30.539 61.951,53.392l-40.87,30.311c-24.613,-38.224 -60.862,-57.342 -108.747,-57.342c-13.623,0 -26.145,1.975 -37.565,5.938c-11.446,3.95 -21.423,9.546 -29.995,16.801c-8.571,7.255 -15.269,15.713 -20.106,25.373c-4.836,9.673 -7.254,20.005 -7.254,30.982c0,14.067 3.19,25.816 9.559,35.261c6.368,9.458 14.839,17.701 25.385,24.715c10.547,7.04 22.74,13.079 36.578,18.131c13.839,5.052 28.222,10.217 43.175,15.497c16.687,5.71 33.172,12.091 49.429,19.106c16.257,7.039 30.868,15.712 43.833,26.031c12.952,10.332 23.499,22.967 31.64,37.908c8.116,14.94 12.193,33.4 12.193,55.367c0,18.017 -3.621,35.261 -10.876,51.746c-7.255,16.472 -17.7,31.083 -31.311,43.82c-13.623,12.75 -29.88,22.967 -48.771,30.653c-18.903,7.685 -39.996,11.534 -63.28,11.534" style="fill:#fff;fill-rule:nonzero;"/>
</svg>
