<?xml version="1.0" encoding="UTF-8" standalone="no"?><!DOCTYPE svg PUBLIC "-//W3C//DTD SVG 1.1//EN" "http://www.w3.org/Graphics/SVG/1.1/DTD/svg11.dtd"><svg width="100%" height="100%" viewBox="0 0 468 360" version="1.1" xmlns="http://www.w3.org/2000/svg" xmlns:xlink="http://www.w3.org/1999/xlink" xml:space="preserve" xmlns:serif="http://www.serif.com/" style="fill-rule:evenodd;clip-rule:evenodd;stroke-linecap:square;stroke-miterlimit:1;"><rect id="Artboard1" x="0" y="0" width="468" height="360" style="fill:none;"/><g id="Orbits"><g><circle cx="234" cy="180" r="50.4" style="fill:none;stroke:#bcbcbc;stroke-width:0.35px;stroke-dasharray:1.4,1.4,0,0;"/><circle cx="234" cy="180" r="72" style="fill:none;stroke:#bcbcbc;stroke-width:0.35px;stroke-dasharray:1.4,1.4,0,0;"/><circle cx="234" cy="180" r="93.6" style="fill:none;stroke:#bcbcbc;stroke-width:0.35px;stroke-dasharray:1.4,1.4,0,0;"/><circle cx="234" cy="180" r="115.2" style="fill:none;stroke:#bcbcbc;stroke-width:0.35px;stroke-dasharray:1.4,1.4,0,0;"/><circle cx="234" cy="180" r="158.4" style="fill:none;stroke:#bcbcbc;stroke-width:0.35px;stroke-dasharray:1.4,1.4,0,0;"/></g></g><g id="Legend"><rect x="34.468" y="50.529" width="68.366" height="93.6" style="fill:#e0e4e6;"/><rect x="21.773" y="50.529" width="12.694" height="93.6" style="fill:#9a9ea2;"/><g><path d="M234,64.8l-137.178,0" style="fill:none;stroke:#000;stroke-width:0.2px;"/><path d="M234,86.4l-137.178,0" style="fill:none;stroke:#000;stroke-width:0.2px;"/><path d="M234,108l-137.178,-0" style="fill:none;stroke:#000;stroke-width:0.2px;"/><path d="M234,129.6l-137.178,0" style="fill:none;stroke:#000;stroke-width:0.2px;"/><path d="M215.294,169.2l-118.472,0" style="fill:none;stroke:#000;stroke-width:0.2px;"/><path d="M177.882,205.2l-81.06,-0" style="fill:none;stroke:#000;stroke-width:0.2px;"/><path d="M206.494,24.346l-109.672,-0l109.672,-0Z" style="fill:#0da973;stroke:#000;stroke-width:0.2px;"/></g><g><text x="66.25px" y="67.87px" style="font-family:'DMSans-Regular', 'DM Sans';font-size:9px;">Signal</text><g transform="matrix(6.12323e-17,-1,1,6.12323e-17,-306.378,285.572)"><text x="148.772px" y="337.851px" style="font-family:'DMSans-Regular', 'DM Sans';font-size:9px;">KUBE Services</text></g><text x="51.445px" y="89.64px" style="font-family:'DMSans-Regular', 'DM Sans';font-size:9px;">Comput<tspan x="85.465px " y="89.64px ">e</tspan></text><text x="73.279px" y="111.24px" style="font-family:'DMSans-Regular', 'DM Sans';font-size:9px;">IPFS</text><text x="57.25px" y="132.84px" style="font-family:'DMSans-Regular', 'DM Sans';font-size:9px;">R<tspan x="62.317px " y="132.84px ">e</tspan>gis<tspan x="78.832px " y="132.84px ">t</tspan>ry</text><text x="28.666px" y="172.44px" style="font-family:'DMSans-Regular', 'DM Sans';font-size:9px;">D<tspan x="34.507px " y="172.44px ">X</tspan>NS V<tspan x="59.221px " y="172.44px ">a</tspan>lida<tspan x="78.634px 81.991px " y="172.44px 172.44px ">to</tspan>r</text><text x="44.263px" y="208.44px" style="font-family:'DMSans-Regular', 'DM Sans';font-size:9px;">KUBE Node</text><text x="66.07px" y="27.9px" style="font-family:'DMSans-Regular', 'DM Sans';font-size:9px;">Ag<tspan x="76.834px " y="27.9px ">e</tspan>nt</text></g></g><g><path d="M261.754,23.576c29.451,-11.088 50.397,-8.667 66.263,2.512c13.658,9.624 24.028,25.069 27.266,51.774" style="fill:none;stroke:#000;stroke-width:0.5px;stroke-dasharray:1,1,0,0;"/><path d="M355.283,77.862c16.669,-5.322 23.627,-4.197 25.865,0.185c2.024,3.961 0.7,10.257 -9.968,22.752" style="fill:none;stroke:#000;stroke-width:0.5px;stroke-dasharray:1,1,0,0;"/><g transform="matrix(0.18,0,0,0.18,199.532,-4.73221e-14)"><text x="884.308px" y="216px" style="font-family:'DMSans-Regular', 'DM Sans';font-size:50px;">Priv<tspan x="968.158px 994.508px 1013.16px " y="216px 216px 216px ">ate</tspan></text><text x="884.308px" y="266px" style="font-family:'DMSans-Regular', 'DM Sans';font-size:50px;">P2P ne<tspan x="1040.26px 1059.61px 1096.36px " y="266px 266px 266px ">two</tspan>rk</text></g></g><g><path d="M234,180l0,-50.4" style="fill:none;stroke:#000;stroke-width:0.5px;"/><g><path d="M234,21.6l0,43.2" style="fill:none;stroke:#060606;stroke-width:0.5px;"/><path d="M234,64.8l27.754,-40.937" style="fill:none;stroke:#060606;stroke-width:0.5px;"/><path d="M234,64.8l-27.506,-40.794" style="fill:none;stroke:#060606;stroke-width:0.5px;"/><circle cx="234" cy="21.6" r="7.2" style="fill:#0da973;"/><circle cx="261.506" cy="23.719" r="7.2" style="fill:#0da973;"/><circle cx="206.494" cy="24.006" r="7.2" style="fill:#0da973;"/></g><path d="M246.47,129.26c0,6.883 -5.587,12.471 -12.47,12.471c-6.883,0 -12.471,-5.588 -12.471,-12.471l0,-64.8c0,0 0,6.883 0,0c0,-6.882 5.588,-12.47 12.471,-12.47c6.883,-0 12.471,5.588 12.471,12.47c-0,6.883 -0,0.001 -0,0.001l-0,64.8" style="fill:#e0e4e6;stroke:#bcbcbc;stroke-width:1.5px;"/><circle cx="234" cy="129.6" r="7.2" style="fill:#389cd2;"/><circle cx="234" cy="108" r="7.2" style="fill:#8665cd;"/><circle cx="234" cy="86.4" r="7.2" style="fill:#c84071;"/><circle cx="234" cy="64.8" r="7.2" style="fill:#d9563c;"/></g><g><path d="M234,180l43.648,-25.2" style="fill:none;stroke:#000;stroke-width:0.5px;"/><g><path d="M371.178,100.8l-37.412,21.6" style="fill:none;stroke:#060606;stroke-width:0.5px;"/><path d="M333.766,122.4l49.33,3.567" style="fill:none;stroke:#060606;stroke-width:0.5px;"/><path d="M333.766,122.4l21.575,-44.218" style="fill:none;stroke:#060606;stroke-width:0.5px;"/><path d="M377.414,97.2c1.987,3.441 0.806,7.848 -2.636,9.835c-3.441,1.987 -7.848,0.806 -9.835,-2.635c-1.987,-3.441 -0.806,-7.848 2.635,-9.835c3.442,-1.987 7.849,-0.806 9.836,2.635Z" style="fill:#0da973;"/><path d="M389.331,122.081c1.987,3.441 0.806,7.848 -2.635,9.835c-3.442,1.987 -7.849,0.806 -9.836,-2.635c-1.986,-3.442 -0.806,-7.849 2.636,-9.836c3.441,-1.987 7.848,-0.806 9.835,2.636Z" style="fill:#0da973;"/><path d="M361.577,74.582c1.987,3.442 0.806,7.849 -2.636,9.836c-3.441,1.987 -7.848,0.806 -9.835,-2.636c-1.987,-3.441 -0.806,-7.848 2.635,-9.835c3.442,-1.987 7.849,-0.806 9.836,2.635Z" style="fill:#0da973;"/></g><path d="M284.177,165.43c-5.961,3.441 -13.594,1.396 -17.035,-4.564c-3.441,-5.961 -1.396,-13.594 4.565,-17.036l56.118,-32.4c-0,-0 -5.961,3.442 0,0c5.961,-3.441 13.594,-1.396 17.035,4.565c3.442,5.961 1.396,13.594 -4.564,17.035c-5.961,3.442 -0,0 -0,0l-56.119,32.4" style="fill:#e0e4e6;stroke:#bcbcbc;stroke-width:1.5px;"/><path d="M283.883,151.2c1.987,3.441 0.806,7.848 -2.635,9.835c-3.442,1.987 -7.849,0.806 -9.836,-2.635c-1.987,-3.441 -0.806,-7.848 2.636,-9.835c3.441,-1.987 7.848,-0.806 9.835,2.635Z" style="fill:#389cd2;"/><path d="M321.295,129.6c1.987,3.441 0.806,7.848 -2.635,9.835c-3.441,1.987 -7.849,0.806 -9.835,-2.635c-1.987,-3.441 -0.806,-7.848 2.635,-9.835c3.441,-1.987 7.848,-0.806 9.835,2.635Z" style="fill:#c84071;"/><path d="M340.002,118.8c1.986,3.441 0.806,7.848 -2.636,9.835c-3.441,1.987 -7.848,0.806 -9.835,-2.635c-1.987,-3.441 -0.806,-7.848 2.635,-9.835c3.442,-1.987 7.849,-0.806 9.836,2.635Z" style="fill:#d9563c;"/></g><g><path d="M234,180l43.648,25.2" style="fill:none;stroke:#000;stroke-width:0.5px;"/><g><path d="M333.766,237.6l21.575,44.505" style="fill:none;stroke:#060606;stroke-width:0.5px;"/><path d="M333.766,237.6l49.081,-3.424" style="fill:none;stroke:#060606;stroke-width:0.5px;"/><path d="M361.825,285.561c-1.987,3.441 -6.394,4.622 -9.835,2.635c-3.441,-1.986 -4.622,-6.394 -2.635,-9.835c1.986,-3.441 6.394,-4.622 9.835,-2.635c3.441,1.987 4.622,6.394 2.635,9.835Z" style="fill:#0da973;"/><path d="M389.083,237.776c-1.987,3.441 -6.394,4.622 -9.836,2.635c-3.441,-1.987 -4.622,-6.394 -2.635,-9.835c1.987,-3.441 6.394,-4.622 9.835,-2.635c3.442,1.987 4.623,6.394 2.636,9.835Z" style="fill:#0da973;"/></g><path d="M271.707,216.17c-5.961,-3.442 -8.007,-11.075 -4.565,-17.035c3.441,-5.961 11.074,-8.006 17.035,-4.565l56.119,32.4c-0,-0 -5.961,-3.441 -0,0c5.96,3.441 8.006,11.075 4.564,17.035c-3.441,5.961 -11.074,8.006 -17.035,4.565c-5.961,-3.441 -0,-0 -0,-0l-56.119,-32.4" style="fill:#e0e4e6;stroke:#bcbcbc;stroke-width:1.5px;"/><path d="M283.883,208.8c-1.987,3.441 -6.394,4.622 -9.835,2.635c-3.442,-1.987 -4.623,-6.394 -2.636,-9.835c1.987,-3.441 6.394,-4.622 9.836,-2.635c3.441,1.987 4.622,6.394 2.635,9.835Z" style="fill:#389cd2;"/><path d="M302.589,219.6c-1.987,3.441 -6.394,4.622 -9.835,2.635c-3.442,-1.987 -4.622,-6.394 -2.636,-9.835c1.987,-3.441 6.394,-4.622 9.836,-2.635c3.441,1.987 4.622,6.394 2.635,9.835Z" style="fill:#8665cd;"/><path d="M340.002,241.2c-1.987,3.441 -6.394,4.622 -9.836,2.635c-3.441,-1.987 -4.622,-6.394 -2.635,-9.835c1.987,-3.441 6.394,-4.622 9.835,-2.635c3.442,1.987 4.622,6.394 2.636,9.835Z" style="fill:#d9563c;"/></g><g><path d="M234,180l-0,50.4" style="fill:none;stroke:#000;stroke-width:0.5px;"/><path d="M221.534,230.4c0.18,-6.726 5.697,-12.131 12.466,-12.131c6.769,0 12.286,5.405 12.466,12.131l0.005,-0l-0,21.6l-0,-0l-0,0c-0,6.883 -5.588,12.471 -12.471,12.471c-6.883,-0 -12.471,-5.588 -12.471,-12.471l0,-0l0,-0l0,-21.6l0.005,-0Z" style="fill:#e0e4e6;stroke:#bcbcbc;stroke-width:1.5px;"/><circle cx="234" cy="230.4" r="7.2" style="fill:#389cd2;"/><circle cx="234" cy="252" r="7.2" style="fill:#8665cd;"/></g><g><path d="M190.352,205.2l43.648,-25.2" style="fill:none;stroke:#000;stroke-width:0.5px;"/><circle cx="190.352" cy="205.2" r="12.471" style="fill:#e0e4e6;stroke:#bcbcbc;stroke-width:1.5px;"/><circle cx="190.352" cy="205.2" r="7.2" style="fill:#389cd2;"/></g><g><path d="M234,64.8c-63.623,-0 -115.2,51.577 -115.2,115.2c-0,63.581 51.619,115.2 115.2,115.2c63.581,0 115.2,-51.619 115.2,-115.2c0,-20.102 -5.26,-39.855 -15.258,-57.294c9.998,17.439 15.258,37.192 15.258,57.294c0,63.581 -51.619,115.2 -115.2,115.2c-63.581,0 -115.2,-51.619 -115.2,-115.2c-0,-63.623 51.577,-115.2 115.2,-115.2Z" style="fill:#e0e4e6;stroke:#d9563c;stroke-width:1px;"/><path d="M234,108c-39.765,0 -72,32.235 -72,72c-0,39.738 32.262,72 72,72c25.723,-0 49.492,-13.723 62.354,-36c-12.862,22.277 -36.631,36 -62.354,36c-39.738,-0 -72,-32.262 -72,-72c-0,-39.765 32.235,-72 72,-72Z" style="stroke:#8665cd;stroke-width:1px;"/><path d="M316.023,134.908c-16.11,-29.303 -46.629,-47.787 -80.062,-48.487c33.433,0.7 63.952,19.184 80.062,48.487Z" style="fill:#e0e4e6;stroke:#c84071;stroke-width:1px;"/></g><g><circle cx="234" cy="180" r="21.6" style="fill:#b7e5ff;stroke:#000;stroke-width:0.55px;"/><g><path d="M234,158.4l0,43.2" style="fill:none;stroke:#000;stroke-width:0.55px;"/><path d="M215.293,169.2l37.413,21.601" style="fill:none;stroke:#000;stroke-width:0.55px;"/><path d="M215.293,190.8l37.413,-21.6" style="fill:none;stroke:#000;stroke-width:0.55px;"/></g><circle cx="234" cy="180" r="7.2" style="fill:#1b638b;"/><circle cx="234" cy="158.4" r="7.2" style="fill:#1b638b;"/><circle cx="234" cy="201.6" r="7.2" style="fill:#1b638b;"/><circle cx="215.294" cy="169.2" r="7.2" style="fill:#1b638b;"/><circle cx="215.294" cy="190.8" r="7.2" style="fill:#1b638b;"/><circle cx="252.706" cy="169.2" r="7.2" style="fill:#1b638b;"/><circle cx="252.706" cy="190.8" r="7.2" style="fill:#1b638b;"/></g></svg>