<?xml version="1.0" encoding="utf-8"?>
<!-- Generator: Adobe Illustrator 21.0.0, SVG Export Plug-In . SVG Version: 6.00 Build 0)  -->
<svg version="1.1" id="Layer_1" xmlns:serif="http://www.serif.com/"
	 xmlns="http://www.w3.org/2000/svg" xmlns:xlink="http://www.w3.org/1999/xlink" x="0px" y="0px" viewBox="0 0 409.4 412.2"
	 style="enable-background:new 0 0 409.4 412.2;" xml:space="preserve">
<style type="text/css">
	.st0{fill:none;stroke:#A5A5A5;stroke-linecap:round;stroke-linejoin:round;stroke-miterlimit:1.5;}
	.st1{fill:none;stroke:#A5A5A5;stroke-width:1.09;stroke-linecap:round;stroke-linejoin:round;stroke-miterlimit:1.5;}
	.st2{fill:#A6A6A6;}
	.st3{fill:none;stroke:#1D1D1D;stroke-width:2;stroke-linecap:round;stroke-linejoin:round;stroke-miterlimit:1.5;}
	.st4{fill:#1F1F1F;}
	.st5{fill:#222222;}
</style>
<g id="Back-Lines" serif:id="Back Lines">
	<path class="st0" d="M203.8,3.1l33.7,65.4l21.1,118.1l0,125.3l-120.2,34.2L62,242.1L43.1,123.2l86.9-70.4l107.5,15.7l-99.9,76.5
		l28.9,109.7l-28.1,91.4"/>
	<path class="st0" d="M203.8,3.1l-73.8,49.7L83.6,35.4l-40.5,87.8l94.5,21.9l121,41.6l75.7-60.3l-96.8-57.8"/>
	<path class="st0" d="M258.7,311.9l100.2-74.5l-24.5-111.1"/>
	<path class="st0" d="M258.7,186.6l100.2,50.8l-100.2,74.5l-92.1-57.2L62,242.1"/>
	<path class="st0" d="M130.1,52.8l7.6,92.2L62,242.1"/>
	<path class="st0" d="M166.6,254.7l92.1-68.2v125.4l75.7,26.6"/>
	<path class="st0" d="M334.4,338.4l-94.7,60.2l19-86.8"/>
	<path class="st0" d="M131.7,395.7l107.9,2.9l-101.2-52.5L131.7,395.7z"/>
	<path class="st0" d="M43.5,327.6l88.3,68.1l6.7-49.7L43.5,327.6z"/>
	<path class="st0" d="M4.1,218.5l39.4,109.1L62,242.1L4.1,218.5z"/>
	<path class="st0" d="M4.1,218.5l39.4-95.2"/>
	<path class="st0" d="M43.5,123.3L9.1,133.9"/>
	<path class="st0" d="M400.1,149.7l-0.7,124.5"/>
	<path class="st0" d="M325.7,372l8.6-33.5l24.5-101.1l-24.5,101.1l65.3-64l-40.7-37l41.2-87.7L324.7,44.6l75.4,105.1l-65.8-23.4
		l-9.6-81.7l-87.2,23.9"/>
	<g transform="matrix(0.906014,-0.0323572,-0.0323572,0.98886,73.5395,25.3179)">
		<path class="st1" d="M143.2-17.8l135.1,46.4"/>
	</g>
</g>
<g id="Back-Nodes" serif:id="Back Nodes">
	<circle class="st2" cx="237.6" cy="68.5" r="2.6"/>
	<g transform="matrix(1.33625,0,0,1.33625,-130.732,-134.226)">
		<circle class="st2" cx="200.9" cy="209" r="2.5"/>
	</g>
	<circle class="st2" cx="258.7" cy="186.6" r="2.5"/>
	<circle class="st2" cx="334.4" cy="126.3" r="2.7"/>
	<circle class="st2" cx="43.5" cy="123.3" r="3.1"/>
	<circle class="st2" cx="130.1" cy="52.8" r="2.8"/>
	<circle class="st2" cx="166.6" cy="254.7" r="3"/>
	<circle class="st2" cx="334.3" cy="338.5" r="2.8"/>
	<circle class="st2" cx="258.7" cy="311.9" r="2.4"/>
	<circle class="st2" cx="138.4" cy="346.1" r="2.7"/>
	<circle class="st2" cx="62" cy="242.1" r="2.6"/>
	<circle class="st2" cx="358.9" cy="237.4" r="3"/>
</g>
<g id="Front-Lines" serif:id="Front Lines">
	<path class="st3" d="M324.7,44.6l40,38.9l40.1,103.4"/>
	<path class="st3" d="M203.8,3.1l-34.7,8.4"/>
	<path class="st3" d="M49.1,170.5L9,260.4l76.1,103.8l119.3,43.3"/>
	<path class="st3" d="M85.1,364.2l46.6,31.5l72.7,11.8l35.2-8.9l86.1-26.7l73.9-97.5l5.2-87.5l-4.7-37.2l-35.2-65.9l-87.6-72
		l-108.2-0.3L83.5,35.2L9.1,133.9l-5,84.6L9,260.4l34.5,67.2L85.1,364.2z"/>
	<path class="st3" d="M73.6,282.3l98.8,56.2L278.6,356l86-71.1l-22.6-118.4L268.8,62.5L150.7,97.2L73.4,71.6l-24.2,98.9L73.6,282.3z
		"/>
	<path class="st3" d="M9,260.4l76.1,103.8"/>
	<path class="st3" d="M73.6,282.3l76.8-61.5l92.3-66.2l99.3,11.8l-71.7,97.1l8.3,92.5"/>
	<path class="st3" d="M270.3,263.5l-98,75l-87.2,25.8l-11.6-81.9"/>
	<g transform="matrix(1,0,0,1,-64.7736,176.855)">
		<path class="st3" d="M237.1,161.6l32.1,69l-119.3-43.3"/>
	</g>
	<path class="st3" d="M204.4,407.5l74.2-51.5l47.1,15.9"/>
	<path class="st3" d="M172.3,338.5l-21.9-117.7l119.9,42.7l-27.6-108.8"/>
	<path class="st3" d="M364.7,284.9l-94.3-21.4"/>
	<path class="st3" d="M325.7,372l39-87.1l35-10.7"/>
	<path class="st3" d="M364.7,284.9l40.1-98l-62.7-20.4l22.6-83l-22.6,83l-99.3-11.8l26-92.2l95.9,21"/>
	<path class="st3" d="M277.3,11.7l-8.6,50.8l-99.6-51l-18.5,85.7"/>
	<path class="st3" d="M169.2,11.5L73.4,71.6l10.2-36.4L73.4,71.6L9.1,133.9l40.1,36.6L9,260.4l64.6,21.9L9,260.4"/>
	<path class="st3" d="M9,260.4l0.1-126.5"/>
	<path class="st3" d="M150.7,97.2L49.1,170.5l101.3,50.3L150.7,97.2z"/>
	<path class="st3" d="M242.8,154.7l-92-57.5"/>
	<path class="st3" d="M203.8,3.1l73.5,8.6l47.4,32.8"/>
</g>
<g id="Front-Nodes" serif:id="Front Nodes">
	<circle class="st4" cx="172.3" cy="338.5" r="5.9"/>
	<g transform="matrix(1.14062,0,0,1.14062,-98.8735,-32.3884)">
		<circle class="st5" cx="371.4" cy="67.5" r="2.7"/>
	</g>
	<circle class="st4" cx="203.8" cy="3.1" r="3.1"/>
	<circle class="st4" cx="399.6" cy="274.4" r="4.5"/>
	<circle class="st4" cx="364.7" cy="284.9" r="5.9"/>
	<circle class="st4" cx="325.7" cy="372" r="4.8"/>
	<circle class="st4" cx="270.3" cy="263.5" r="5.6"/>
	<ellipse class="st4" cx="242.8" cy="155" rx="6.4" ry="6.6"/>
	<circle class="st4" cx="150.4" cy="220.8" r="5.8"/>
	<circle class="st4" cx="73.6" cy="282.3" r="5.9"/>
	<circle class="st4" cx="49.1" cy="170.5" r="5.8"/>
	<circle class="st4" cx="9" cy="133.9" r="4.9"/>
	<circle class="st4" cx="9" cy="260.4" r="4.9"/>
	<circle class="st4" cx="43.5" cy="327.6" r="3.6"/>
	<circle class="st4" cx="83.6" cy="35.4" r="4.6"/>
	<circle class="st4" cx="85.1" cy="364.2" r="4.5"/>
	<circle class="st4" cx="131.7" cy="395.7" r="3.4"/>
	<circle class="st4" cx="204.4" cy="407.5" r="4.7"/>
	<circle class="st4" cx="342.1" cy="166.4" r="5.5"/>
	<circle class="st4" cx="169.2" cy="11.5" r="5.1"/>
	<circle class="st4" cx="277.3" cy="11.7" r="4.8"/>
	<circle class="st4" cx="268.8" cy="62.5" r="5.5"/>
	<circle class="st4" cx="278.6" cy="356" r="5.7"/>
	<circle class="st4" cx="73.4" cy="71.6" r="4.4"/>
	<circle class="st4" cx="364.7" cy="83.5" r="4.2"/>
	<circle class="st4" cx="404.8" cy="186.9" r="4.6"/>
	<circle class="st4" cx="400.1" cy="149.7" r="3.3"/>
	<circle class="st4" cx="150.7" cy="97.2" r="5.4"/>
	<circle class="st4" cx="239.7" cy="398.6" r="3.4"/>
	<circle class="st4" cx="4.1" cy="218.2" r="4.1"/>
</g>
</svg>
