<?xml version="1.0" encoding="UTF-8" standalone="no"?><!DOCTYPE svg PUBLIC "-//W3C//DTD SVG 1.1//EN" "http://www.w3.org/Graphics/SVG/1.1/DTD/svg11.dtd"><svg width="100%" height="100%" viewBox="0 0 1067 1067" version="1.1" xmlns="http://www.w3.org/2000/svg" xmlns:xlink="http://www.w3.org/1999/xlink" xml:space="preserve" xmlns:serif="http://www.serif.com/" style="fill-rule:evenodd;clip-rule:evenodd;stroke-linejoin:round;stroke-miterlimit:2;"><rect id="icon-echo" x="0" y="0" width="1066.67" height="1066.67" style="fill:none;"/><path d="M84.217,396.847l888.889,300.602l9.344,-27.629l-888.889,-300.603l-9.344,27.63Z"/><path d="M973.106,369.217l-888.889,300.603l9.344,27.629l888.889,-300.602l-9.344,-27.63Z"/><path d="M533.334,512.077l433.54,-462.788l25.226,9.972l-0.141,948.149l-25.226,9.968l-433.399,-462.639l-433.4,462.639l-25.226,-9.968l-0.14,-948.149l25.226,-9.972l433.54,462.788Zm19.983,21.331l409.481,437.107l0.13,-874.352l-409.611,437.245Zm-449.448,437.107l409.482,-437.107l-409.611,-437.245l0.129,874.352Z"/></svg>