<?xml version="1.0" encoding="UTF-8" standalone="no"?><!DOCTYPE svg PUBLIC "-//W3C//DTD SVG 1.1//EN" "http://www.w3.org/Graphics/SVG/1.1/DTD/svg11.dtd"><svg width="100%" height="100%" viewBox="0 0 1067 1067" version="1.1" xmlns="http://www.w3.org/2000/svg" xmlns:xlink="http://www.w3.org/1999/xlink" xml:space="preserve" xmlns:serif="http://www.serif.com/" style="fill-rule:evenodd;clip-rule:evenodd;stroke-linejoin:round;stroke-miterlimit:2;"><rect id="icon-mesh" x="0" y="0" width="1066.67" height="1066.67" style="fill:none;"/><path d="M274.013,61.039l244.27,949.999l28.248,-7.264l-244.271,-949.998l-28.247,7.263Z"/><path d="M532.402,981.619l343.278,-500.643l24.055,16.494l-355.305,518.184l-24.056,0l-355.292,-518.185l24.056,-16.493l343.264,500.643Z"/><path d="M532.407,350.197l232.724,-301.697l25.671,5.276l244.271,949.998l-25.671,12.539l-476.995,-618.363l-476.994,618.363l-25.671,-12.539l244.271,-949.998l25.671,-5.276l232.723,301.697Zm-456.746,592.114l438.328,-568.238l-219.164,-284.118l-219.164,852.356Zm475.164,-568.238l438.329,568.238l-219.165,-852.356l-219.164,284.118Z"/><path d="M762.554,53.776l-244.271,949.998l28.248,7.264l244.271,-949.999l-28.248,-7.263Z"/></svg>