<?xml version="1.0" encoding="UTF-8" standalone="no"?><!DOCTYPE svg PUBLIC "-//W3C//DTD SVG 1.1//EN" "http://www.w3.org/Graphics/SVG/1.1/DTD/svg11.dtd"><svg width="100%" height="100%" viewBox="0 0 1067 1067" version="1.1" xmlns="http://www.w3.org/2000/svg" xmlns:xlink="http://www.w3.org/1999/xlink" xml:space="preserve" xmlns:serif="http://www.serif.com/" style="fill-rule:evenodd;clip-rule:evenodd;stroke-linejoin:round;stroke-miterlimit:2;"><rect id="icon-kube" x="0" y="0" width="1066.67" height="1066.67" style="fill:none;"/><path d="M547.364,1007.44l1.093,-547.172l-29.167,-0.058l-1.093,547.171l29.167,0.059Z"/><path d="M54.139,250.695l474.074,177.775l10.241,-27.31l-474.074,-177.775l-10.241,27.31Z"/><path d="M548.47,609.461l0,-550.2l-29.167,0l0,550.2l29.167,0Z"/><path d="M528.213,665.508l474.074,177.776l10.241,-27.309l-474.074,-177.776l-10.241,27.309Z"/><path d="M1002.29,223.382l-474.074,177.778l10.241,27.31l474.074,-177.778l-10.241,-27.31Z"/><path d="M528.213,638.199l-474.074,177.777l10.241,27.309l474.074,-177.777l-10.241,-27.309Z"/><path d="M1021.99,829.63l0,-592.593l-9.447,-13.649l-472.428,-177.778l-5.137,-0.934l-1.093,0l-5.115,0.926l-474.627,177.778l-9.468,13.684l1.106,592.59l9.447,13.621l472.415,177.777l10.251,0.008l474.628,-177.774l9.468,-13.656Zm-948.13,-582.49l1.069,572.386l457.862,172.3l460.032,-172.307l0,-572.388l-458.402,-172.5l-460.561,172.509Z"/><path d="M520.356,51.633l-473.521,770.367l24.848,15.274l473.521,-770.368l-24.848,-15.273Z"/><path d="M995.005,229.366l-474.627,767.343l24.805,15.342l474.627,-767.343l-24.805,-15.342Z"/></svg>