<?xml version="1.0" encoding="UTF-8" standalone="no"?>
<!DOCTYPE svg PUBLIC "-//W3C//DTD SVG 1.1//EN" "http://www.w3.org/Graphics/SVG/1.1/DTD/svg11.dtd">
<svg width="100%" height="100%" viewBox="0 0 800 480" version="1.1" xmlns="http://www.w3.org/2000/svg" xmlns:xlink="http://www.w3.org/1999/xlink" xml:space="preserve" xmlns:serif="http://www.serif.com/" style="fill-rule:evenodd;clip-rule:evenodd;stroke-miterlimit:1;">
    <g transform="matrix(1,0,0,1,-1000,-720)">
        <g id="halo-circle" transform="matrix(0.266667,0,0,0.16,1000,720)">
            <rect x="0" y="0" width="3000" height="3000" style="fill:none;"/>
            <g>
                <g transform="matrix(4.5,0,0,7.5,-3180,-6280)">
                    <circle cx="1240" cy="944" r="80" style="fill:rgb(221,245,213);fill-opacity:0.45;"/>
                    <path d="M1242.9,1023.95C1241.94,1023.98 1240.97,1024 1240,1024C1239.4,1024 1238.81,1023.99 1238.21,1023.98L1238.25,1022.42C1238.83,1022.43 1239.41,1022.44 1240,1022.44C1240.95,1022.44 1241.9,1022.42 1242.84,1022.39L1242.9,1023.95ZM1230.42,1023.43L1230.61,1021.88C1232.12,1022.06 1233.65,1022.2 1235.18,1022.29L1235.09,1023.85C1233.52,1023.76 1231.96,1023.62 1230.42,1023.43ZM1250.68,1023.29C1249.14,1023.5 1247.59,1023.66 1246.02,1023.78L1245.9,1022.22C1247.44,1022.1 1248.96,1021.95 1250.47,1021.74L1250.68,1023.29ZM1222.72,1022.13L1223.06,1020.6C1224.55,1020.93 1226.05,1021.22 1227.57,1021.46L1227.33,1023C1225.78,1022.75 1224.25,1022.46 1222.72,1022.13ZM1258.36,1021.88C1256.85,1022.24 1255.32,1022.55 1253.77,1022.82L1253.5,1021.28C1255.02,1021.01 1256.52,1020.71 1258,1020.36L1258.36,1021.88ZM1215.19,1020.07L1215.67,1018.59C1217.12,1019.06 1218.6,1019.49 1220.08,1019.88L1219.68,1021.39C1218.17,1021 1216.67,1020.55 1215.19,1020.07ZM1265.87,1019.72C1264.39,1020.22 1262.9,1020.69 1261.39,1021.1L1260.97,1019.6C1262.45,1019.19 1263.92,1018.74 1265.36,1018.24L1265.87,1019.72ZM1207.89,1017.29L1208.52,1015.86C1209.92,1016.47 1211.34,1017.05 1212.78,1017.58L1212.24,1019.04C1210.77,1018.5 1209.32,1017.91 1207.89,1017.29ZM1273.12,1016.83C1271.7,1017.48 1270.26,1018.09 1268.8,1018.65L1268.24,1017.19C1269.67,1016.64 1271.08,1016.04 1272.47,1015.41L1273.12,1016.83ZM1200.91,1013.8L1201.67,1012.44C1203,1013.19 1204.36,1013.9 1205.74,1014.57L1205.06,1015.97C1203.65,1015.29 1202.27,1014.56 1200.91,1013.8ZM1280.06,1013.25C1278.71,1014.03 1277.34,1014.77 1275.94,1015.48L1275.24,1014.09C1276.61,1013.39 1277.95,1012.66 1279.28,1011.9L1280.06,1013.25ZM1194.29,1009.65L1195.19,1008.37C1196.44,1009.24 1197.72,1010.08 1199.03,1010.88L1198.21,1012.22C1196.88,1011.4 1195.57,1010.54 1194.29,1009.65ZM1286.62,1009C1285.35,1009.92 1284.06,1010.79 1282.73,1011.63L1281.9,1010.31C1283.19,1009.49 1284.46,1008.63 1285.7,1007.74L1286.62,1009ZM1188.11,1004.87L1189.13,1003.68C1190.29,1004.68 1191.49,1005.64 1192.71,1006.56L1191.76,1007.81C1190.52,1006.87 1189.3,1005.89 1188.11,1004.87ZM1292.73,1004.14C1291.56,1005.18 1290.35,1006.17 1289.12,1007.13L1288.16,1005.9C1289.37,1004.96 1290.55,1003.98 1291.7,1002.97L1292.73,1004.14ZM1182.42,999.521L1183.55,998.436C1184.61,999.539 1185.71,1000.61 1186.84,1001.65L1185.78,1002.8C1184.63,1001.74 1183.51,1000.64 1182.42,999.521ZM1298.34,998.715C1297.27,999.853 1296.17,1000.96 1295.04,1002.04L1293.96,1000.9C1295.07,999.85 1296.15,998.763 1297.2,997.646L1298.34,998.715ZM1177.28,993.644L1178.51,992.673C1179.46,993.874 1180.44,995.047 1181.46,996.19L1180.3,997.23C1179.26,996.064 1178.25,994.868 1177.28,993.644ZM1303.4,992.767C1302.45,994.005 1301.46,995.215 1300.44,996.395L1299.26,995.371C1300.26,994.214 1301.23,993.028 1302.17,991.814L1303.4,992.767ZM1172.73,987.296L1174.05,986.449C1174.88,987.737 1175.75,989 1176.65,990.236L1175.39,991.158C1174.47,989.898 1173.58,988.611 1172.73,987.296ZM1307.86,986.357C1307.03,987.684 1306.16,988.984 1305.26,990.255L1303.99,989.351C1304.88,988.103 1305.73,986.828 1306.54,985.528L1307.86,986.357ZM1168.82,980.535L1170.21,979.82C1170.91,981.185 1171.66,982.526 1172.43,983.842L1171.09,984.638C1170.3,983.295 1169.54,981.928 1168.82,980.535ZM1311.68,979.543C1310.98,980.944 1310.25,982.322 1309.47,983.676L1308.11,982.9C1308.87,981.573 1309.6,980.221 1310.28,978.847L1311.68,979.543ZM1165.59,973.425L1167.05,972.85C1167.61,974.277 1168.22,975.684 1168.86,977.07L1167.45,977.73C1166.79,976.317 1166.17,974.883 1165.59,973.425ZM1314.81,972.388C1314.25,973.854 1313.65,975.299 1313.02,976.718L1311.59,976.078C1312.22,974.684 1312.8,973.269 1313.35,971.833L1314.81,972.388ZM1163.08,966.032L1164.58,965.602C1165,967.08 1165.47,968.54 1165.97,969.98L1164.5,970.498C1163.98,969.028 1163.51,967.539 1163.08,966.032ZM1317.22,964.961C1316.81,966.474 1316.36,967.969 1315.86,969.446L1314.38,968.949C1314.87,967.502 1315.31,966.035 1315.71,964.552L1317.22,964.961ZM1161.3,958.428L1162.84,958.148C1163.11,959.661 1163.43,961.159 1163.8,962.641L1162.28,963.012C1161.91,961.5 1161.58,959.972 1161.3,958.428ZM1318.89,957.332C1318.63,958.879 1318.33,960.411 1317.98,961.929L1316.46,961.58C1316.8,960.094 1317.1,958.591 1317.35,957.073L1318.89,957.332ZM1160.28,950.686L1161.83,950.557C1161.96,952.092 1162.13,953.615 1162.35,955.124L1160.8,955.344C1160.58,953.805 1160.41,952.252 1160.28,950.686ZM1319.81,949.577C1319.7,951.144 1319.55,952.698 1319.35,954.241L1317.8,954.043C1317.99,952.531 1318.14,951.006 1318.25,949.469L1319.81,949.577ZM1160.01,942.881L1161.57,942.903C1161.57,943.268 1161.56,943.634 1161.56,944C1161.56,945.172 1161.59,946.339 1161.64,947.499L1160.08,947.568C1160.03,946.387 1160,945.197 1160,944C1160,943.625 1160,943.25 1160.01,942.881ZM1319.97,941.769C1319.99,942.51 1320,943.254 1320,944C1320,944.821 1319.99,945.64 1319.96,946.456L1318.4,946.409C1318.42,945.609 1318.44,944.806 1318.44,944C1318.44,943.268 1318.43,942.539 1318.41,941.812L1319.97,941.769ZM1160.49,935.087L1162.05,935.259C1161.88,936.774 1161.75,938.301 1161.67,939.84L1160.11,939.758C1160.19,938.189 1160.32,936.632 1160.49,935.087ZM1319.38,933.982C1319.57,935.525 1319.72,937.081 1319.82,938.648L1318.26,938.751C1318.16,937.214 1318.02,935.688 1317.83,934.176L1319.38,933.982ZM1161.73,927.377L1163.26,927.7C1162.94,929.192 1162.67,930.7 1162.44,932.222L1160.9,931.989C1161.13,930.435 1161.41,928.895 1161.73,927.377ZM1318.03,926.29C1318.37,927.808 1318.67,929.342 1318.93,930.89L1317.39,931.144C1317.14,929.626 1316.84,928.123 1316.51,926.635L1318.03,926.29ZM1163.72,919.826L1165.21,920.298C1164.75,921.753 1164.33,923.226 1163.95,924.717L1162.44,924.333C1162.83,922.812 1163.25,921.308 1163.72,919.826ZM1315.93,918.767C1316.42,920.245 1316.87,921.742 1317.28,923.257L1315.77,923.661C1315.37,922.176 1314.93,920.709 1314.45,919.26L1315.93,918.767ZM1166.45,912.507L1167.88,913.123C1167.28,914.527 1166.72,915.952 1166.2,917.397L1164.73,916.866C1165.26,915.393 1165.83,913.94 1166.45,912.507ZM1313.11,911.487C1313.74,912.911 1314.34,914.357 1314.89,915.822L1313.43,916.373C1312.88,914.936 1312.3,913.519 1311.68,912.124L1313.11,911.487ZM1169.88,905.49L1171.24,906.244C1170.51,907.583 1169.81,908.946 1169.15,910.332L1167.74,909.66C1168.41,908.246 1169.12,906.854 1169.88,905.49ZM1309.58,904.519C1310.35,905.875 1311.09,907.256 1311.78,908.659L1310.38,909.351C1309.7,907.974 1308.98,906.621 1308.22,905.292L1309.58,904.519ZM1173.97,898.842L1175.26,899.725C1174.39,900.987 1173.57,902.276 1172.77,903.59L1171.44,902.783C1172.24,901.442 1173.09,900.127 1173.97,898.842ZM1305.39,897.928C1306.29,899.204 1307.16,900.506 1307.98,901.834L1306.66,902.659C1305.85,901.357 1305,900.08 1304.12,898.829L1305.39,897.928ZM1178.7,892.623L1179.89,893.627C1178.91,894.8 1177.96,896.002 1177.04,897.232L1175.79,896.299C1176.72,895.045 1177.69,893.819 1178.7,892.623ZM1300.58,891.775C1301.6,892.958 1302.59,894.171 1303.54,895.411L1302.3,896.361C1301.37,895.144 1300.4,893.955 1299.4,892.796L1300.58,891.775ZM1184,886.891L1185.09,888.006C1184,889.079 1182.94,890.184 1181.91,891.318L1180.75,890.268C1181.8,889.112 1182.88,887.986 1184,886.891ZM1295.2,886.117C1296.33,887.196 1297.43,888.307 1298.5,889.45L1297.35,890.516C1296.31,889.395 1295.23,888.305 1294.12,887.248L1295.2,886.117ZM1189.83,881.699L1190.82,882.915C1189.62,883.878 1188.46,884.874 1187.32,885.904L1186.27,884.747C1187.43,883.697 1188.62,882.682 1189.83,881.699ZM1289.3,881.007C1290.53,881.971 1291.73,882.97 1292.9,884.005L1291.86,885.176C1290.72,884.163 1289.54,883.182 1288.33,882.237L1289.3,881.007ZM1196.14,877.098L1197,878.404C1195.72,879.246 1194.46,880.125 1193.24,881.039L1192.3,879.785C1193.56,878.853 1194.84,877.957 1196.14,877.098ZM1282.92,876.494C1284.24,877.335 1285.53,878.213 1286.8,879.127L1285.88,880.393C1284.64,879.497 1283.38,878.635 1282.08,877.811L1282.92,876.494ZM1202.87,873.132L1203.6,874.515C1202.24,875.229 1200.9,875.981 1199.59,876.771L1198.79,875.433C1200.12,874.628 1201.49,873.86 1202.87,873.132ZM1276.14,872.622C1277.54,873.33 1278.91,874.078 1280.26,874.865L1279.47,876.214C1278.15,875.443 1276.8,874.709 1275.43,874.015L1276.14,872.622ZM1209.95,869.843L1210.54,871.29C1209.12,871.868 1207.72,872.486 1206.34,873.144L1205.66,871.733C1207.07,871.063 1208.5,870.432 1209.95,869.843ZM1269.01,869.432C1270.47,870 1271.91,870.61 1273.33,871.262L1272.67,872.681C1271.29,872.043 1269.88,871.445 1268.44,870.887L1269.01,869.432ZM1217.33,867.265L1217.77,868.763C1216.29,869.198 1214.84,869.676 1213.4,870.194L1212.87,868.725C1214.34,868.196 1215.82,867.709 1217.33,867.265ZM1261.61,866.957C1263.11,867.38 1264.6,867.845 1266.08,868.354L1265.57,869.831C1264.13,869.333 1262.66,868.876 1261.18,868.461L1261.61,866.957ZM1224.91,865.423L1225.21,866.958C1223.7,867.246 1222.2,867.579 1220.72,867.953L1220.34,866.438C1221.85,866.057 1223.37,865.718 1224.91,865.423ZM1253.99,865.222C1255.54,865.495 1257.07,865.812 1258.58,866.173L1258.22,867.693C1256.74,867.339 1255.23,867.028 1253.72,866.76L1253.99,865.222ZM1232.65,864.334L1232.79,865.89C1231.26,866.03 1229.74,866.214 1228.23,866.442L1228,864.897C1229.53,864.665 1231.08,864.477 1232.65,864.334ZM1246.24,864.241C1247.81,864.362 1249.37,864.528 1250.9,864.739L1250.69,866.286C1249.18,866.08 1247.66,865.917 1246.12,865.798L1246.24,864.241ZM1235.76,864.111C1237.16,864.037 1238.58,864 1240,864C1241.05,864 1242.09,864.02 1243.12,864.06L1243.06,865.621C1242.05,865.582 1241.03,865.562 1240,865.562L1239.48,865.564C1238.26,865.572 1237.05,865.608 1235.85,865.671L1235.76,864.111Z" style="fill:rgb(87,204,51);"/>
                </g>
                <g transform="matrix(4.5,0,0,7.5,-4140,-4880)">
                    <circle cx="1240" cy="944" r="80" style="fill:rgb(221,245,213);fill-opacity:0.45;"/>
                    <path d="M1242.9,1023.95C1241.94,1023.98 1240.97,1024 1240,1024C1239.4,1024 1238.81,1023.99 1238.21,1023.98L1238.25,1022.42C1238.83,1022.43 1239.41,1022.44 1240,1022.44C1240.95,1022.44 1241.9,1022.42 1242.84,1022.39L1242.9,1023.95ZM1230.42,1023.43L1230.61,1021.88C1232.12,1022.06 1233.65,1022.2 1235.18,1022.29L1235.09,1023.85C1233.52,1023.76 1231.96,1023.62 1230.42,1023.43ZM1250.68,1023.29C1249.14,1023.5 1247.59,1023.66 1246.02,1023.78L1245.9,1022.22C1247.44,1022.1 1248.96,1021.95 1250.47,1021.74L1250.68,1023.29ZM1222.72,1022.13L1223.06,1020.6C1224.55,1020.93 1226.05,1021.22 1227.57,1021.46L1227.33,1023C1225.78,1022.75 1224.25,1022.46 1222.72,1022.13ZM1258.36,1021.88C1256.85,1022.24 1255.32,1022.55 1253.77,1022.82L1253.5,1021.28C1255.02,1021.01 1256.52,1020.71 1258,1020.36L1258.36,1021.88ZM1215.19,1020.07L1215.67,1018.59C1217.12,1019.06 1218.6,1019.49 1220.08,1019.88L1219.68,1021.39C1218.17,1021 1216.67,1020.55 1215.19,1020.07ZM1265.87,1019.72C1264.39,1020.22 1262.9,1020.69 1261.39,1021.1L1260.97,1019.6C1262.45,1019.19 1263.92,1018.74 1265.36,1018.24L1265.87,1019.72ZM1207.89,1017.29L1208.52,1015.86C1209.92,1016.47 1211.34,1017.05 1212.78,1017.58L1212.24,1019.04C1210.77,1018.5 1209.32,1017.91 1207.89,1017.29ZM1273.12,1016.83C1271.7,1017.48 1270.26,1018.09 1268.8,1018.65L1268.24,1017.19C1269.67,1016.64 1271.08,1016.04 1272.47,1015.41L1273.12,1016.83ZM1200.91,1013.8L1201.67,1012.44C1203,1013.19 1204.36,1013.9 1205.74,1014.57L1205.06,1015.97C1203.65,1015.29 1202.27,1014.56 1200.91,1013.8ZM1280.06,1013.25C1278.71,1014.03 1277.34,1014.77 1275.94,1015.48L1275.24,1014.09C1276.61,1013.39 1277.95,1012.66 1279.28,1011.9L1280.06,1013.25ZM1194.29,1009.65L1195.19,1008.37C1196.44,1009.24 1197.72,1010.08 1199.03,1010.88L1198.21,1012.22C1196.88,1011.4 1195.57,1010.54 1194.29,1009.65ZM1286.62,1009C1285.35,1009.92 1284.06,1010.79 1282.73,1011.63L1281.9,1010.31C1283.19,1009.49 1284.46,1008.63 1285.7,1007.74L1286.62,1009ZM1188.11,1004.87L1189.13,1003.68C1190.29,1004.68 1191.49,1005.64 1192.71,1006.56L1191.76,1007.81C1190.52,1006.87 1189.3,1005.89 1188.11,1004.87ZM1292.73,1004.14C1291.56,1005.18 1290.35,1006.17 1289.12,1007.13L1288.16,1005.9C1289.37,1004.96 1290.55,1003.98 1291.7,1002.97L1292.73,1004.14ZM1182.42,999.521L1183.55,998.436C1184.61,999.539 1185.71,1000.61 1186.84,1001.65L1185.78,1002.8C1184.63,1001.74 1183.51,1000.64 1182.42,999.521ZM1298.34,998.715C1297.27,999.853 1296.17,1000.96 1295.04,1002.04L1293.96,1000.9C1295.07,999.85 1296.15,998.763 1297.2,997.646L1298.34,998.715ZM1177.28,993.644L1178.51,992.673C1179.46,993.874 1180.44,995.047 1181.46,996.19L1180.3,997.23C1179.26,996.064 1178.25,994.868 1177.28,993.644ZM1303.4,992.767C1302.45,994.005 1301.46,995.215 1300.44,996.395L1299.26,995.371C1300.26,994.214 1301.23,993.028 1302.17,991.814L1303.4,992.767ZM1172.73,987.296L1174.05,986.449C1174.88,987.737 1175.75,989 1176.65,990.236L1175.39,991.158C1174.47,989.898 1173.58,988.611 1172.73,987.296ZM1307.86,986.357C1307.03,987.684 1306.16,988.984 1305.26,990.255L1303.99,989.351C1304.88,988.103 1305.73,986.828 1306.54,985.528L1307.86,986.357ZM1168.82,980.535L1170.21,979.82C1170.91,981.185 1171.66,982.526 1172.43,983.842L1171.09,984.638C1170.3,983.295 1169.54,981.928 1168.82,980.535ZM1311.68,979.543C1310.98,980.944 1310.25,982.322 1309.47,983.676L1308.11,982.9C1308.87,981.573 1309.6,980.221 1310.28,978.847L1311.68,979.543ZM1165.59,973.425L1167.05,972.85C1167.61,974.277 1168.22,975.684 1168.86,977.07L1167.45,977.73C1166.79,976.317 1166.17,974.883 1165.59,973.425ZM1314.81,972.388C1314.25,973.854 1313.65,975.299 1313.02,976.718L1311.59,976.078C1312.22,974.684 1312.8,973.269 1313.35,971.833L1314.81,972.388ZM1163.08,966.032L1164.58,965.602C1165,967.08 1165.47,968.54 1165.97,969.98L1164.5,970.498C1163.98,969.028 1163.51,967.539 1163.08,966.032ZM1317.22,964.961C1316.81,966.474 1316.36,967.969 1315.86,969.446L1314.38,968.949C1314.87,967.502 1315.31,966.035 1315.71,964.552L1317.22,964.961ZM1161.3,958.428L1162.84,958.148C1163.11,959.661 1163.43,961.159 1163.8,962.641L1162.28,963.012C1161.91,961.5 1161.58,959.972 1161.3,958.428ZM1318.89,957.332C1318.63,958.879 1318.33,960.411 1317.98,961.929L1316.46,961.58C1316.8,960.094 1317.1,958.591 1317.35,957.073L1318.89,957.332ZM1160.28,950.686L1161.83,950.557C1161.96,952.092 1162.13,953.615 1162.35,955.124L1160.8,955.344C1160.58,953.805 1160.41,952.252 1160.28,950.686ZM1319.81,949.577C1319.7,951.144 1319.55,952.698 1319.35,954.241L1317.8,954.043C1317.99,952.531 1318.14,951.006 1318.25,949.469L1319.81,949.577ZM1160.01,942.881L1161.57,942.903C1161.57,943.268 1161.56,943.634 1161.56,944C1161.56,945.172 1161.59,946.339 1161.64,947.499L1160.08,947.568C1160.03,946.387 1160,945.197 1160,944C1160,943.625 1160,943.25 1160.01,942.881ZM1319.97,941.769C1319.99,942.51 1320,943.254 1320,944C1320,944.821 1319.99,945.64 1319.96,946.456L1318.4,946.409C1318.42,945.609 1318.44,944.806 1318.44,944C1318.44,943.268 1318.43,942.539 1318.41,941.812L1319.97,941.769ZM1160.49,935.087L1162.05,935.259C1161.88,936.774 1161.75,938.301 1161.67,939.84L1160.11,939.758C1160.19,938.189 1160.32,936.632 1160.49,935.087ZM1319.38,933.982C1319.57,935.525 1319.72,937.081 1319.82,938.648L1318.26,938.751C1318.16,937.214 1318.02,935.688 1317.83,934.176L1319.38,933.982ZM1161.73,927.377L1163.26,927.7C1162.94,929.192 1162.67,930.7 1162.44,932.222L1160.9,931.989C1161.13,930.435 1161.41,928.895 1161.73,927.377ZM1318.03,926.29C1318.37,927.808 1318.67,929.342 1318.93,930.89L1317.39,931.144C1317.14,929.626 1316.84,928.123 1316.51,926.635L1318.03,926.29ZM1163.72,919.826L1165.21,920.298C1164.75,921.753 1164.33,923.226 1163.95,924.717L1162.44,924.333C1162.83,922.812 1163.25,921.308 1163.72,919.826ZM1315.93,918.767C1316.42,920.245 1316.87,921.742 1317.28,923.257L1315.77,923.661C1315.37,922.176 1314.93,920.709 1314.45,919.26L1315.93,918.767ZM1166.45,912.507L1167.88,913.123C1167.28,914.527 1166.72,915.952 1166.2,917.397L1164.73,916.866C1165.26,915.393 1165.83,913.94 1166.45,912.507ZM1313.11,911.487C1313.74,912.911 1314.34,914.357 1314.89,915.822L1313.43,916.373C1312.88,914.936 1312.3,913.519 1311.68,912.124L1313.11,911.487ZM1169.88,905.49L1171.24,906.244C1170.51,907.583 1169.81,908.946 1169.15,910.332L1167.74,909.66C1168.41,908.246 1169.12,906.854 1169.88,905.49ZM1309.58,904.519C1310.35,905.875 1311.09,907.256 1311.78,908.659L1310.38,909.351C1309.7,907.974 1308.98,906.621 1308.22,905.292L1309.58,904.519ZM1173.97,898.842L1175.26,899.725C1174.39,900.987 1173.57,902.276 1172.77,903.59L1171.44,902.783C1172.24,901.442 1173.09,900.127 1173.97,898.842ZM1305.39,897.928C1306.29,899.204 1307.16,900.506 1307.98,901.834L1306.66,902.659C1305.85,901.357 1305,900.08 1304.12,898.829L1305.39,897.928ZM1178.7,892.623L1179.89,893.627C1178.91,894.8 1177.96,896.002 1177.04,897.232L1175.79,896.299C1176.72,895.045 1177.69,893.819 1178.7,892.623ZM1300.58,891.775C1301.6,892.958 1302.59,894.171 1303.54,895.411L1302.3,896.361C1301.37,895.144 1300.4,893.955 1299.4,892.796L1300.58,891.775ZM1184,886.891L1185.09,888.006C1184,889.079 1182.94,890.184 1181.91,891.318L1180.75,890.268C1181.8,889.112 1182.88,887.986 1184,886.891ZM1295.2,886.117C1296.33,887.196 1297.43,888.307 1298.5,889.45L1297.35,890.516C1296.31,889.395 1295.23,888.305 1294.12,887.248L1295.2,886.117ZM1189.83,881.699L1190.82,882.915C1189.62,883.878 1188.46,884.874 1187.32,885.904L1186.27,884.747C1187.43,883.697 1188.62,882.682 1189.83,881.699ZM1289.3,881.007C1290.53,881.971 1291.73,882.97 1292.9,884.005L1291.86,885.176C1290.72,884.163 1289.54,883.182 1288.33,882.237L1289.3,881.007ZM1196.14,877.098L1197,878.404C1195.72,879.246 1194.46,880.125 1193.24,881.039L1192.3,879.785C1193.56,878.853 1194.84,877.957 1196.14,877.098ZM1282.92,876.494C1284.24,877.335 1285.53,878.213 1286.8,879.127L1285.88,880.393C1284.64,879.497 1283.38,878.635 1282.08,877.811L1282.92,876.494ZM1202.87,873.132L1203.6,874.515C1202.24,875.229 1200.9,875.981 1199.59,876.771L1198.79,875.433C1200.12,874.628 1201.49,873.86 1202.87,873.132ZM1276.14,872.622C1277.54,873.33 1278.91,874.078 1280.26,874.865L1279.47,876.214C1278.15,875.443 1276.8,874.709 1275.43,874.015L1276.14,872.622ZM1209.95,869.843L1210.54,871.29C1209.12,871.868 1207.72,872.486 1206.34,873.144L1205.66,871.733C1207.07,871.063 1208.5,870.432 1209.95,869.843ZM1269.01,869.432C1270.47,870 1271.91,870.61 1273.33,871.262L1272.67,872.681C1271.29,872.043 1269.88,871.445 1268.44,870.887L1269.01,869.432ZM1217.33,867.265L1217.77,868.763C1216.29,869.198 1214.84,869.676 1213.4,870.194L1212.87,868.725C1214.34,868.196 1215.82,867.709 1217.33,867.265ZM1261.61,866.957C1263.11,867.38 1264.6,867.845 1266.08,868.354L1265.57,869.831C1264.13,869.333 1262.66,868.876 1261.18,868.461L1261.61,866.957ZM1224.91,865.423L1225.21,866.958C1223.7,867.246 1222.2,867.579 1220.72,867.953L1220.34,866.438C1221.85,866.057 1223.37,865.718 1224.91,865.423ZM1253.99,865.222C1255.54,865.495 1257.07,865.812 1258.58,866.173L1258.22,867.693C1256.74,867.339 1255.23,867.028 1253.72,866.76L1253.99,865.222ZM1232.65,864.334L1232.79,865.89C1231.26,866.03 1229.74,866.214 1228.23,866.442L1228,864.897C1229.53,864.665 1231.08,864.477 1232.65,864.334ZM1246.24,864.241C1247.81,864.362 1249.37,864.528 1250.9,864.739L1250.69,866.286C1249.18,866.08 1247.66,865.917 1246.12,865.798L1246.24,864.241ZM1235.76,864.111C1237.16,864.037 1238.58,864 1240,864C1241.05,864 1242.09,864.02 1243.12,864.06L1243.06,865.621C1242.05,865.582 1241.03,865.562 1240,865.562C1238.61,865.562 1237.22,865.599 1235.85,865.671L1235.76,864.111Z" style="fill:rgb(87,204,51);"/>
                </g>
                <g transform="matrix(6.75,0,0,11.25,-6270,-8720)">
                    <circle cx="1240" cy="944" r="80" style="fill:rgb(221,245,213);fill-opacity:0.45;"/>
                    <path d="M1242.38,1023.97C1241.59,1023.99 1240.8,1024 1240,1024C1239.75,1024 1239.51,1024 1239.25,1024L1239.26,1022.96C1239.51,1022.96 1239.75,1022.96 1240,1022.96C1240.79,1022.96 1241.57,1022.95 1242.35,1022.92L1242.38,1023.97ZM1234.05,1023.78L1234.13,1022.74C1235.15,1022.82 1236.17,1022.87 1237.21,1022.91L1237.17,1023.95C1236.12,1023.91 1235.09,1023.86 1234.05,1023.78ZM1247.58,1023.64C1246.54,1023.74 1245.51,1023.82 1244.46,1023.88L1244.4,1022.84C1245.43,1022.78 1246.46,1022.7 1247.48,1022.61L1247.58,1023.64ZM1228.87,1023.23L1229.02,1022.2C1230.03,1022.34 1231.05,1022.46 1232.08,1022.57L1231.98,1023.6C1230.93,1023.5 1229.9,1023.37 1228.87,1023.23ZM1252.74,1022.99C1251.72,1023.15 1250.68,1023.3 1249.65,1023.42L1249.52,1022.39C1250.55,1022.27 1251.57,1022.12 1252.58,1021.96L1252.74,1022.99ZM1223.74,1022.34L1223.95,1021.32C1224.96,1021.53 1225.97,1021.72 1226.98,1021.89L1226.81,1022.92C1225.78,1022.75 1224.76,1022.55 1223.74,1022.34ZM1257.85,1022C1256.84,1022.23 1255.82,1022.44 1254.79,1022.63L1254.6,1021.61C1255.62,1021.42 1256.62,1021.21 1257.62,1020.98L1257.85,1022ZM1218.68,1021.12L1218.96,1020.12C1219.94,1020.39 1220.94,1020.65 1221.94,1020.88L1221.71,1021.89C1220.69,1021.66 1219.68,1021.4 1218.68,1021.12ZM1262.89,1020.67C1261.89,1020.97 1260.89,1021.25 1259.88,1021.51L1259.62,1020.5C1260.62,1020.24 1261.61,1019.97 1262.59,1019.67L1262.89,1020.67ZM1213.71,1019.57L1214.05,1018.59C1215.02,1018.93 1216,1019.25 1216.98,1019.55L1216.68,1020.54C1215.68,1020.24 1214.69,1019.91 1213.71,1019.57ZM1267.83,1019.02C1266.85,1019.38 1265.87,1019.73 1264.88,1020.05L1264.55,1019.06C1265.53,1018.74 1266.5,1018.4 1267.46,1018.04L1267.83,1019.02ZM1208.85,1017.7L1209.26,1016.74C1210.2,1017.14 1211.15,1017.52 1212.12,1017.89L1211.75,1018.86C1210.77,1018.49 1209.81,1018.1 1208.85,1017.7ZM1272.65,1017.05C1271.7,1017.47 1270.74,1017.88 1269.77,1018.27L1269.38,1017.3C1270.34,1016.92 1271.29,1016.52 1272.22,1016.1L1272.65,1017.05ZM1204.12,1015.51L1204.59,1014.58C1205.51,1015.04 1206.43,1015.49 1207.37,1015.91L1206.94,1016.86C1205.99,1016.43 1205.05,1015.98 1204.12,1015.51ZM1277.33,1014.76C1276.41,1015.25 1275.48,1015.72 1274.54,1016.17L1274.09,1015.23C1275.02,1014.79 1275.93,1014.32 1276.84,1013.84L1277.33,1014.76ZM1199.55,1013.02L1200.08,1012.12C1200.96,1012.64 1201.86,1013.15 1202.77,1013.63L1202.27,1014.55C1201.36,1014.06 1200.45,1013.55 1199.55,1013.02ZM1281.85,1012.18C1280.96,1012.73 1280.06,1013.25 1279.16,1013.76L1278.64,1012.86C1279.54,1012.35 1280.43,1011.83 1281.3,1011.29L1281.85,1012.18ZM1195.15,1010.24L1195.73,1009.38C1196.58,1009.95 1197.44,1010.51 1198.32,1011.06L1197.77,1011.94C1196.88,1011.39 1196.01,1010.82 1195.15,1010.24ZM1286.19,1009.31C1285.34,1009.91 1284.48,1010.5 1283.61,1011.06L1283.04,1010.19C1283.9,1009.63 1284.75,1009.05 1285.59,1008.46L1286.19,1009.31ZM1190.94,1007.17L1191.58,1006.35C1192.39,1006.98 1193.21,1007.6 1194.05,1008.2L1193.44,1009.05C1192.59,1008.44 1191.76,1007.82 1190.94,1007.17ZM1290.34,1006.16C1289.53,1006.82 1288.71,1007.46 1287.88,1008.08L1287.25,1007.25C1288.08,1006.63 1288.89,1006 1289.68,1005.35L1290.34,1006.16ZM1186.93,1003.85L1187.62,1003.07C1188.39,1003.75 1189.17,1004.42 1189.97,1005.07L1189.31,1005.87C1188.51,1005.21 1187.71,1004.54 1186.93,1003.85ZM1294.28,1002.75C1293.51,1003.46 1292.73,1004.15 1291.94,1004.83L1291.27,1004.03C1292.05,1003.37 1292.82,1002.68 1293.57,1001.99L1294.28,1002.75ZM1183.15,1000.26L1183.89,999.532C1184.62,1000.26 1185.35,1000.98 1186.1,1001.68L1185.39,1002.44C1184.63,1001.73 1183.88,1001.01 1183.15,1000.26ZM1297.98,999.094C1297.27,999.848 1296.54,1000.59 1295.79,1001.32L1295.06,1000.57C1295.8,999.853 1296.52,999.121 1297.23,998.376L1297.98,999.094ZM1179.61,996.447L1180.4,995.764C1181.07,996.54 1181.76,997.303 1182.46,998.052L1181.7,998.765C1180.99,998.007 1180.29,997.234 1179.61,996.447ZM1301.45,995.205C1300.78,996.006 1300.1,996.793 1299.4,997.565L1298.63,996.867C1299.32,996.104 1299.99,995.328 1300.65,994.538L1301.45,995.205ZM1176.32,992.409L1177.15,991.778C1177.77,992.596 1178.41,993.402 1179.07,994.195L1178.26,994.858C1177.6,994.054 1176.95,993.238 1176.32,992.409ZM1304.65,991.101C1304.04,991.942 1303.41,992.771 1302.76,993.588L1301.94,992.942C1302.58,992.136 1303.21,991.318 1303.81,990.487L1304.65,991.101ZM1173.3,988.166L1174.17,987.59C1174.74,988.447 1175.33,989.293 1175.93,990.126L1175.08,990.735C1174.47,989.891 1173.88,989.035 1173.3,988.166ZM1307.59,986.798C1307.03,987.678 1306.45,988.548 1305.86,989.403L1305,988.811C1305.59,987.965 1306.15,987.108 1306.71,986.24L1307.59,986.798ZM1170.57,983.737L1171.47,983.218C1171.98,984.111 1172.51,984.992 1173.06,985.863L1172.17,986.416C1171.62,985.534 1171.08,984.641 1170.57,983.737ZM1310.23,982.313C1309.73,983.227 1309.21,984.13 1308.68,985.025L1307.79,984.49C1308.31,983.608 1308.83,982.716 1309.32,981.813L1310.23,982.313ZM1168.12,979.138L1169.06,978.68C1169.51,979.604 1169.98,980.518 1170.47,981.422L1169.55,981.916C1169.06,981.001 1168.58,980.075 1168.12,979.138ZM1312.58,977.666C1312.14,978.612 1311.68,979.548 1311.21,980.473L1310.28,979.997C1310.75,979.084 1311.2,978.16 1311.64,977.227L1312.58,977.666ZM1165.98,974.39L1166.95,973.994C1167.34,974.946 1167.75,975.889 1168.18,976.822L1167.23,977.256C1166.8,976.31 1166.38,975.354 1165.98,974.39ZM1314.62,972.875C1314.25,973.847 1313.85,974.809 1313.43,975.765L1312.48,975.351C1312.89,974.41 1313.28,973.458 1313.65,972.498L1314.62,972.875ZM1164.16,969.512L1165.15,969.18C1165.48,970.156 1165.82,971.124 1166.19,972.082L1165.22,972.453C1164.85,971.481 1164.49,970.5 1164.16,969.512ZM1316.34,967.96C1316.03,968.957 1315.7,969.945 1315.35,970.923L1314.37,970.572C1314.71,969.606 1315.04,968.631 1315.35,967.648L1316.34,967.96ZM1162.66,964.525L1163.67,964.258C1163.93,965.254 1164.22,966.243 1164.52,967.223L1163.52,967.529C1163.22,966.535 1162.93,965.534 1162.66,964.525ZM1317.74,962.943C1317.49,963.959 1317.23,964.967 1316.94,965.965L1315.94,965.679C1316.22,964.693 1316.48,963.699 1316.73,962.697L1317.74,962.943ZM1161.49,959.45L1162.52,959.25C1162.71,960.262 1162.93,961.267 1163.17,962.264L1162.15,962.504C1161.91,961.493 1161.69,960.475 1161.49,959.45ZM1318.8,957.846C1318.62,958.875 1318.42,959.897 1318.2,960.913L1317.19,960.693C1317.4,959.691 1317.6,958.682 1317.78,957.667L1318.8,957.846ZM1160.66,954.31L1161.69,954.177C1161.83,955.2 1161.98,956.217 1162.15,957.227L1161.12,957.401C1160.95,956.377 1160.79,955.347 1160.66,954.31ZM1319.53,952.69C1319.42,953.728 1319.29,954.76 1319.13,955.789L1318.11,955.637C1318.26,954.623 1318.39,953.603 1318.5,952.578L1319.53,952.69ZM1160.16,949.127L1161.2,949.061C1161.27,950.091 1161.35,951.115 1161.46,952.134L1160.42,952.241C1160.31,951.208 1160.23,950.17 1160.16,949.127ZM1319.92,947.497C1319.88,948.544 1319.81,949.585 1319.73,950.616L1318.69,950.531C1318.78,949.51 1318.84,948.484 1318.88,947.452L1319.92,947.497ZM1160,943.922L1161.04,943.923C1161.04,943.948 1161.04,943.974 1161.04,944C1161.04,945.007 1161.06,946.009 1161.1,947.007L1160.06,947.046C1160.02,946.035 1160,945.02 1160,944L1160,943.922ZM1319.98,942.29C1319.99,942.862 1320,943.43 1320,944C1320,944.472 1320,944.944 1319.99,945.415L1318.95,945.397C1318.95,944.932 1318.96,944.467 1318.96,944C1318.96,943.436 1318.95,942.873 1318.94,942.312L1319.98,942.29ZM1160.17,938.717L1161.21,938.785C1161.14,939.807 1161.1,940.834 1161.07,941.866L1160.03,941.839C1160.06,940.794 1160.11,939.755 1160.17,938.717ZM1319.7,937.09C1319.79,938.124 1319.86,939.164 1319.91,940.208L1318.87,940.257C1318.82,939.226 1318.76,938.2 1318.67,937.179L1319.7,937.09ZM1160.68,933.534L1161.71,933.67C1161.58,934.685 1161.47,935.707 1161.37,936.735L1160.34,936.64C1160.43,935.598 1160.55,934.562 1160.68,933.534ZM1319.09,931.919C1319.25,932.945 1319.38,933.978 1319.5,935.017L1318.46,935.133C1318.35,934.108 1318.22,933.088 1318.06,932.075L1319.09,931.919ZM1161.52,928.396L1162.55,928.598C1162.35,929.604 1162.17,930.616 1162.01,931.635L1160.98,931.472C1161.14,930.441 1161.32,929.416 1161.52,928.396ZM1318.14,926.799C1318.37,927.813 1318.57,928.835 1318.75,929.863L1317.73,930.047C1317.55,929.032 1317.35,928.023 1317.12,927.022L1318.14,926.799ZM1162.7,923.324L1163.71,923.593C1163.44,924.583 1163.2,925.581 1162.97,926.587L1161.95,926.358C1162.18,925.337 1162.43,924.324 1162.7,923.324ZM1316.86,921.752C1317.15,922.75 1317.42,923.757 1317.67,924.77L1316.66,925.02C1316.41,924.019 1316.14,923.026 1315.86,922.041L1316.86,921.752ZM1164.21,918.339L1165.2,918.674C1164.87,919.645 1164.56,920.625 1164.27,921.613L1163.27,921.318C1163.56,920.318 1163.88,919.326 1164.21,918.339ZM1315.25,916.8C1315.6,917.778 1315.94,918.765 1316.26,919.758L1315.26,920.074C1314.95,919.092 1314.62,918.119 1314.27,917.154L1315.25,916.8ZM1166.04,913.465L1167.01,913.863C1166.61,914.812 1166.24,915.769 1165.88,916.735L1164.91,916.375C1165.27,915.398 1165.64,914.429 1166.04,913.465ZM1313.32,911.964C1313.74,912.917 1314.13,913.88 1314.52,914.851L1313.55,915.23C1313.17,914.272 1312.78,913.322 1312.36,912.382L1313.32,911.964ZM1168.19,908.721L1169.12,909.181C1168.67,910.102 1168.24,911.033 1167.82,911.974L1166.87,911.551C1167.29,910.598 1167.73,909.656 1168.19,908.721ZM1311.07,907.265C1311.55,908.189 1312.01,909.123 1312.46,910.067L1311.51,910.51C1311.08,909.578 1310.62,908.656 1310.15,907.744L1311.07,907.265ZM1170.64,904.127L1171.55,904.648C1171.03,905.537 1170.54,906.438 1170.06,907.349L1169.14,906.865C1169.62,905.942 1170.12,905.031 1170.64,904.127ZM1308.53,902.723C1309.07,903.614 1309.59,904.516 1310.09,905.428L1309.18,905.931C1308.68,905.03 1308.17,904.14 1307.64,903.261L1308.53,902.723ZM1173.39,899.703L1174.26,900.281C1173.69,901.136 1173.13,902.002 1172.6,902.88L1171.71,902.337C1172.25,901.447 1172.81,900.569 1173.39,899.703ZM1305.69,898.355C1306.29,899.21 1306.87,900.077 1307.43,900.953L1306.55,901.515C1306,900.648 1305.42,899.793 1304.84,898.95L1305.69,898.355ZM1176.42,895.466L1177.24,896.099C1176.62,896.915 1176.01,897.744 1175.42,898.585L1174.57,897.985C1175.17,897.132 1175.79,896.292 1176.42,895.466ZM1302.58,894.181C1303.23,894.994 1303.86,895.821 1304.48,896.661L1303.64,897.278C1303.03,896.45 1302.4,895.633 1301.76,894.83L1302.58,894.181ZM1179.71,891.435L1180.5,892.119C1179.82,892.894 1179.16,893.681 1178.52,894.482L1177.7,893.828C1178.36,893.017 1179.03,892.219 1179.71,891.435ZM1299.2,890.216C1299.9,890.986 1300.59,891.77 1301.26,892.569L1300.46,893.239C1299.8,892.452 1299.12,891.677 1298.43,890.917L1299.2,890.216ZM1183.26,887.624L1184,888.358C1183.28,889.087 1182.57,889.831 1181.87,890.588L1181.1,889.883C1181.81,889.116 1182.53,888.363 1183.26,887.624ZM1295.58,886.478C1296.33,887.203 1297.06,887.942 1297.78,888.693L1297.03,889.413C1296.32,888.671 1295.59,887.942 1294.85,887.227L1295.58,886.478ZM1187.05,884.051L1187.74,884.831C1186.97,885.512 1186.21,886.208 1185.47,886.918L1184.75,886.165C1185.5,885.446 1186.27,884.741 1187.05,884.051ZM1291.72,882.982C1292.51,883.656 1293.29,884.345 1294.06,885.05L1293.36,885.817C1292.6,885.122 1291.83,884.442 1291.04,883.776L1291.72,882.982ZM1191.06,880.729L1191.7,881.553C1190.89,882.183 1190.09,882.828 1189.3,883.489L1188.63,882.691C1189.43,882.022 1190.24,881.368 1191.06,880.729ZM1287.64,879.743C1288.48,880.365 1289.3,881.002 1290.11,881.655L1289.46,882.466C1288.66,881.822 1287.84,881.193 1287.02,880.579L1287.64,879.743ZM1195.28,877.675L1195.86,878.538C1195.01,879.114 1194.17,879.706 1193.34,880.314L1192.72,879.475C1193.56,878.859 1194.41,878.259 1195.28,877.675ZM1283.36,876.775C1284.24,877.341 1285.1,877.923 1285.95,878.523L1285.35,879.375C1284.51,878.783 1283.66,878.208 1282.8,877.649L1283.36,876.775ZM1199.68,874.9L1200.21,875.799C1199.32,876.319 1198.44,876.855 1197.58,877.408L1197.02,876.531C1197.9,875.971 1198.78,875.427 1199.68,874.9ZM1278.9,874.091C1279.81,874.598 1280.71,875.123 1281.6,875.667L1281.05,876.555C1280.18,876.02 1279.29,875.502 1278.39,875L1278.9,874.091ZM1204.26,872.418L1204.73,873.35C1203.81,873.81 1202.9,874.289 1202,874.784L1201.5,873.872C1202.41,873.37 1203.33,872.885 1204.26,872.418ZM1274.27,871.703C1275.21,872.151 1276.15,872.617 1277.07,873.099L1276.58,874.022C1275.67,873.545 1274.75,873.085 1273.82,872.643L1274.27,871.703ZM1208.99,870.241L1209.4,871.2C1208.45,871.6 1207.51,872.018 1206.58,872.453L1206.14,871.51C1207.08,871.069 1208.03,870.645 1208.99,870.241ZM1269.5,869.623C1270.47,870.008 1271.43,870.412 1272.38,870.833L1271.96,871.785C1271.02,871.369 1270.07,870.971 1269.11,870.59L1269.5,869.623ZM1213.86,868.377L1214.2,869.361C1213.22,869.698 1212.26,870.053 1211.3,870.427L1210.92,869.457C1211.89,869.078 1212.87,868.718 1213.86,868.377ZM1264.6,867.859C1265.59,868.18 1266.58,868.52 1267.55,868.879L1267.19,869.856C1266.23,869.503 1265.26,869.167 1264.28,868.85L1264.6,867.859ZM1218.83,866.836L1219.11,867.841C1218.11,868.113 1217.12,868.404 1216.15,868.714L1215.83,867.721C1216.82,867.407 1217.82,867.112 1218.83,866.836ZM1259.59,866.421C1260.61,866.677 1261.61,866.951 1262.61,867.245L1262.31,868.244C1261.33,867.954 1260.34,867.683 1259.34,867.431L1259.59,866.421ZM1223.89,865.625L1224.1,866.645C1223.09,866.852 1222.09,867.078 1221.1,867.323L1220.85,866.312C1221.85,866.064 1222.87,865.835 1223.89,865.625ZM1254.5,865.314C1255.53,865.503 1256.55,865.711 1257.57,865.938L1257.34,866.955C1256.34,866.73 1255.33,866.525 1254.32,866.339L1254.5,865.314ZM1229.03,864.748L1229.17,865.78C1228.15,865.92 1227.13,866.08 1226.12,866.259L1225.94,865.234C1226.96,865.052 1227.99,864.89 1229.03,864.748ZM1249.35,864.543C1250.39,864.664 1251.42,864.805 1252.45,864.965L1252.29,865.994C1251.28,865.836 1250.26,865.696 1249.23,865.577L1249.35,864.543ZM1234.21,864.207L1234.28,865.246C1233.25,865.32 1232.23,865.413 1231.21,865.526L1231.1,864.491C1232.13,864.377 1233.16,864.282 1234.21,864.207ZM1244.16,864.107C1245.21,864.16 1246.25,864.234 1247.28,864.328L1247.19,865.365C1246.17,865.273 1245.14,865.2 1244.11,865.147L1244.16,864.107ZM1239.41,864.002L1239.42,865.044C1238.38,865.051 1237.36,865.079 1236.33,865.125L1236.29,864.085C1237.32,864.037 1238.36,864.01 1239.41,864.002ZM1240,864C1240.7,864 1241.39,864.009 1242.08,864.027L1242.06,865.068C1241.37,865.05 1240.69,865.042 1240,865.042L1240,864Z" style="fill:rgb(87,204,51);"/>
                </g>
                <g transform="matrix(6.75,0,0,11.25,-7470,-9120)">
                    <circle cx="1240" cy="944" r="80" style="fill:rgb(221,245,213);fill-opacity:0.45;"/>
                    <path d="M1242.38,1023.97C1241.59,1023.99 1240.8,1024 1240,1024C1239.75,1024 1239.51,1024 1239.25,1024L1239.26,1022.96C1239.51,1022.96 1239.75,1022.96 1240,1022.96C1240.79,1022.96 1241.57,1022.95 1242.35,1022.92L1242.38,1023.97ZM1234.05,1023.78L1234.13,1022.74C1235.15,1022.82 1236.17,1022.87 1237.21,1022.91L1237.17,1023.95C1236.12,1023.91 1235.09,1023.86 1234.05,1023.78ZM1247.58,1023.64C1246.54,1023.74 1245.51,1023.82 1244.46,1023.88L1244.4,1022.84C1245.43,1022.78 1246.46,1022.7 1247.48,1022.61L1247.58,1023.64ZM1228.87,1023.23L1229.02,1022.2C1230.03,1022.34 1231.05,1022.46 1232.08,1022.57L1231.98,1023.6C1230.93,1023.5 1229.9,1023.37 1228.87,1023.23ZM1252.74,1022.99C1251.72,1023.15 1250.68,1023.3 1249.65,1023.42L1249.52,1022.39C1250.55,1022.27 1251.57,1022.12 1252.58,1021.96L1252.74,1022.99ZM1223.74,1022.34L1223.95,1021.32C1224.96,1021.53 1225.97,1021.72 1226.98,1021.89L1226.81,1022.92C1225.78,1022.75 1224.76,1022.55 1223.74,1022.34ZM1257.85,1022C1256.84,1022.23 1255.82,1022.44 1254.79,1022.63L1254.6,1021.61C1255.62,1021.42 1256.62,1021.21 1257.62,1020.98L1257.85,1022ZM1218.68,1021.12L1218.96,1020.12C1219.94,1020.39 1220.94,1020.65 1221.94,1020.88L1221.71,1021.89C1220.69,1021.66 1219.68,1021.4 1218.68,1021.12ZM1262.89,1020.67C1261.89,1020.97 1260.89,1021.25 1259.88,1021.51L1259.62,1020.5C1260.62,1020.24 1261.61,1019.97 1262.59,1019.67L1262.89,1020.67ZM1213.71,1019.57L1214.05,1018.59C1215.02,1018.93 1216,1019.25 1216.98,1019.55L1216.68,1020.54C1215.68,1020.24 1214.69,1019.91 1213.71,1019.57ZM1267.83,1019.02C1266.85,1019.38 1265.87,1019.73 1264.88,1020.05L1264.55,1019.06C1265.53,1018.74 1266.5,1018.4 1267.46,1018.04L1267.83,1019.02ZM1208.85,1017.7L1209.26,1016.74C1210.2,1017.14 1211.15,1017.52 1212.12,1017.89L1211.75,1018.86C1210.77,1018.49 1209.81,1018.1 1208.85,1017.7ZM1272.65,1017.05C1271.7,1017.47 1270.74,1017.88 1269.77,1018.27L1269.38,1017.3C1270.34,1016.92 1271.29,1016.52 1272.22,1016.1L1272.65,1017.05ZM1204.12,1015.51L1204.59,1014.58C1205.51,1015.04 1206.43,1015.49 1207.37,1015.91L1206.94,1016.86C1205.99,1016.43 1205.05,1015.98 1204.12,1015.51ZM1277.33,1014.76C1276.41,1015.25 1275.48,1015.72 1274.54,1016.17L1274.09,1015.23C1275.02,1014.79 1275.93,1014.32 1276.84,1013.84L1277.33,1014.76ZM1199.55,1013.02L1200.08,1012.12C1200.96,1012.64 1201.86,1013.15 1202.77,1013.63L1202.27,1014.55C1201.36,1014.06 1200.45,1013.55 1199.55,1013.02ZM1281.85,1012.18C1280.96,1012.73 1280.06,1013.25 1279.16,1013.76L1278.64,1012.86C1279.54,1012.35 1280.43,1011.83 1281.3,1011.29L1281.85,1012.18ZM1195.15,1010.24L1195.73,1009.38C1196.58,1009.95 1197.44,1010.51 1198.32,1011.06L1197.77,1011.94C1196.88,1011.39 1196.01,1010.82 1195.15,1010.24ZM1286.19,1009.31C1285.34,1009.91 1284.48,1010.5 1283.61,1011.06L1283.04,1010.19C1283.9,1009.63 1284.75,1009.05 1285.59,1008.46L1286.19,1009.31ZM1190.94,1007.17L1191.58,1006.35C1192.39,1006.98 1193.21,1007.6 1194.05,1008.2L1193.44,1009.05C1192.59,1008.44 1191.76,1007.82 1190.94,1007.17ZM1290.34,1006.16C1289.53,1006.82 1288.71,1007.46 1287.88,1008.08L1287.25,1007.25C1288.08,1006.63 1288.89,1006 1289.68,1005.35L1290.34,1006.16ZM1186.93,1003.85L1187.62,1003.07C1188.39,1003.75 1189.17,1004.42 1189.97,1005.07L1189.31,1005.87C1188.51,1005.21 1187.71,1004.54 1186.93,1003.85ZM1294.28,1002.75C1293.51,1003.46 1292.73,1004.15 1291.94,1004.83L1291.27,1004.03C1292.05,1003.37 1292.82,1002.68 1293.57,1001.99L1294.28,1002.75ZM1183.15,1000.26L1183.89,999.532C1184.62,1000.26 1185.35,1000.98 1186.1,1001.68L1185.39,1002.44C1184.63,1001.73 1183.88,1001.01 1183.15,1000.26ZM1297.98,999.094C1297.27,999.848 1296.54,1000.59 1295.79,1001.32L1295.06,1000.57C1295.8,999.853 1296.52,999.121 1297.23,998.376L1297.98,999.094ZM1179.61,996.447L1180.4,995.764C1181.07,996.54 1181.76,997.303 1182.46,998.052L1181.7,998.765C1180.99,998.007 1180.29,997.234 1179.61,996.447ZM1301.45,995.205C1300.78,996.006 1300.1,996.793 1299.4,997.565L1298.63,996.867C1299.32,996.104 1299.99,995.328 1300.65,994.538L1301.45,995.205ZM1176.32,992.409L1177.15,991.778C1177.77,992.596 1178.41,993.402 1179.07,994.195L1178.26,994.858C1177.6,994.054 1176.95,993.238 1176.32,992.409ZM1304.65,991.101C1304.04,991.942 1303.41,992.771 1302.76,993.588L1301.94,992.942C1302.58,992.136 1303.21,991.318 1303.81,990.487L1304.65,991.101ZM1173.3,988.166L1174.17,987.59C1174.74,988.447 1175.33,989.293 1175.93,990.126L1175.08,990.735C1174.47,989.891 1173.88,989.035 1173.3,988.166ZM1307.59,986.798C1307.03,987.678 1306.45,988.548 1305.86,989.403L1305,988.811C1305.59,987.965 1306.15,987.108 1306.71,986.24L1307.59,986.798ZM1170.57,983.737L1171.47,983.218C1171.98,984.111 1172.51,984.992 1173.06,985.863L1172.17,986.416C1171.62,985.534 1171.08,984.641 1170.57,983.737ZM1310.23,982.313C1309.73,983.227 1309.21,984.13 1308.68,985.025L1307.79,984.49C1308.31,983.608 1308.83,982.716 1309.32,981.813L1310.23,982.313ZM1168.12,979.138L1169.06,978.68C1169.51,979.604 1169.98,980.518 1170.47,981.422L1169.55,981.916C1169.06,981.001 1168.58,980.075 1168.12,979.138ZM1312.58,977.666C1312.14,978.612 1311.68,979.548 1311.21,980.473L1310.28,979.997C1310.75,979.084 1311.2,978.16 1311.64,977.227L1312.58,977.666ZM1165.98,974.39L1166.95,973.994C1167.34,974.946 1167.75,975.889 1168.18,976.822L1167.23,977.256C1166.8,976.31 1166.38,975.354 1165.98,974.39ZM1314.62,972.875C1314.25,973.847 1313.85,974.809 1313.43,975.765L1312.48,975.351C1312.89,974.41 1313.28,973.458 1313.65,972.498L1314.62,972.875ZM1164.16,969.512L1165.15,969.18C1165.48,970.156 1165.82,971.124 1166.19,972.082L1165.22,972.453C1164.85,971.481 1164.49,970.5 1164.16,969.512ZM1316.34,967.96C1316.03,968.957 1315.7,969.945 1315.35,970.923L1314.37,970.572C1314.71,969.606 1315.04,968.631 1315.35,967.648L1316.34,967.96ZM1162.66,964.525L1163.67,964.258C1163.93,965.254 1164.22,966.243 1164.52,967.223L1163.52,967.529C1163.22,966.535 1162.93,965.534 1162.66,964.525ZM1317.74,962.943C1317.49,963.959 1317.23,964.967 1316.94,965.965L1315.94,965.679C1316.22,964.693 1316.48,963.699 1316.73,962.697L1317.74,962.943ZM1161.49,959.45L1162.52,959.25C1162.71,960.262 1162.93,961.267 1163.17,962.264L1162.15,962.504C1161.91,961.493 1161.69,960.475 1161.49,959.45ZM1318.8,957.846C1318.62,958.875 1318.42,959.897 1318.2,960.913L1317.19,960.693C1317.4,959.691 1317.6,958.682 1317.78,957.667L1318.8,957.846ZM1160.66,954.31L1161.69,954.177C1161.83,955.2 1161.98,956.217 1162.15,957.227L1161.12,957.401C1160.95,956.377 1160.79,955.347 1160.66,954.31ZM1319.53,952.69C1319.42,953.728 1319.29,954.76 1319.13,955.789L1318.11,955.637C1318.26,954.623 1318.39,953.603 1318.5,952.578L1319.53,952.69ZM1160.16,949.127L1161.2,949.061C1161.27,950.091 1161.35,951.115 1161.46,952.134L1160.42,952.241C1160.31,951.208 1160.23,950.17 1160.16,949.127ZM1319.92,947.497C1319.88,948.544 1319.81,949.585 1319.73,950.616L1318.69,950.531C1318.78,949.51 1318.84,948.484 1318.88,947.452L1319.92,947.497ZM1160,943.922L1161.04,943.923C1161.04,943.948 1161.04,943.974 1161.04,944C1161.04,945.007 1161.06,946.009 1161.1,947.007L1160.06,947.046C1160.02,946.035 1160,945.02 1160,944L1160,943.922ZM1319.98,942.29C1319.99,942.862 1320,943.43 1320,944C1320,944.472 1320,944.944 1319.99,945.415L1318.95,945.397C1318.95,944.932 1318.96,944.467 1318.96,944C1318.96,943.436 1318.95,942.873 1318.94,942.312L1319.98,942.29ZM1160.17,938.717L1161.21,938.785C1161.14,939.807 1161.1,940.834 1161.07,941.866L1160.03,941.839C1160.06,940.794 1160.11,939.755 1160.17,938.717ZM1319.7,937.09C1319.79,938.124 1319.86,939.164 1319.91,940.208L1318.87,940.257C1318.82,939.226 1318.76,938.2 1318.67,937.179L1319.7,937.09ZM1160.68,933.534L1161.71,933.67C1161.58,934.685 1161.47,935.707 1161.37,936.735L1160.34,936.64C1160.43,935.598 1160.55,934.562 1160.68,933.534ZM1319.09,931.919C1319.25,932.945 1319.38,933.978 1319.5,935.017L1318.46,935.133C1318.35,934.108 1318.22,933.088 1318.06,932.075L1319.09,931.919ZM1161.52,928.396L1162.55,928.598C1162.35,929.604 1162.17,930.616 1162.01,931.635L1160.98,931.472C1161.14,930.441 1161.32,929.416 1161.52,928.396ZM1318.14,926.799C1318.37,927.813 1318.57,928.835 1318.75,929.863L1317.73,930.047C1317.55,929.032 1317.35,928.023 1317.12,927.022L1318.14,926.799ZM1162.7,923.324L1163.71,923.593C1163.44,924.583 1163.2,925.581 1162.97,926.587L1161.95,926.358C1162.18,925.337 1162.43,924.324 1162.7,923.324ZM1316.86,921.752C1317.15,922.75 1317.42,923.757 1317.67,924.77L1316.66,925.02C1316.41,924.019 1316.14,923.026 1315.86,922.041L1316.86,921.752ZM1164.21,918.339L1165.2,918.674C1164.87,919.645 1164.56,920.625 1164.27,921.613L1163.27,921.318C1163.56,920.318 1163.88,919.326 1164.21,918.339ZM1315.25,916.8C1315.6,917.778 1315.94,918.765 1316.26,919.758L1315.26,920.074C1314.95,919.092 1314.62,918.119 1314.27,917.154L1315.25,916.8ZM1166.04,913.465L1167.01,913.863C1166.61,914.812 1166.24,915.769 1165.88,916.735L1164.91,916.375C1165.27,915.398 1165.64,914.429 1166.04,913.465ZM1313.32,911.964C1313.74,912.917 1314.13,913.88 1314.52,914.851L1313.55,915.23C1313.17,914.272 1312.78,913.322 1312.36,912.382L1313.32,911.964ZM1168.19,908.721L1169.12,909.181C1168.67,910.102 1168.24,911.033 1167.82,911.974L1166.87,911.551C1167.29,910.598 1167.73,909.656 1168.19,908.721ZM1311.07,907.265C1311.55,908.189 1312.01,909.123 1312.46,910.067L1311.51,910.51C1311.08,909.578 1310.62,908.656 1310.15,907.744L1311.07,907.265ZM1170.64,904.127L1171.55,904.648C1171.03,905.537 1170.54,906.438 1170.06,907.349L1169.14,906.865C1169.62,905.942 1170.12,905.031 1170.64,904.127ZM1308.53,902.723C1309.07,903.614 1309.59,904.516 1310.09,905.428L1309.18,905.931C1308.68,905.03 1308.17,904.14 1307.64,903.261L1308.53,902.723ZM1173.39,899.703L1174.26,900.281C1173.69,901.136 1173.13,902.002 1172.6,902.88L1171.71,902.337C1172.25,901.447 1172.81,900.569 1173.39,899.703ZM1305.69,898.355C1306.29,899.21 1306.87,900.077 1307.43,900.953L1306.55,901.515C1306,900.648 1305.42,899.793 1304.84,898.95L1305.69,898.355ZM1176.42,895.466L1177.24,896.099C1176.62,896.915 1176.01,897.744 1175.42,898.585L1174.57,897.985C1175.17,897.132 1175.79,896.292 1176.42,895.466ZM1302.58,894.181C1303.23,894.994 1303.86,895.821 1304.48,896.661L1303.64,897.278C1303.03,896.45 1302.4,895.633 1301.76,894.83L1302.58,894.181ZM1179.71,891.435L1180.5,892.119C1179.82,892.894 1179.16,893.681 1178.52,894.482L1177.7,893.828C1178.36,893.017 1179.03,892.219 1179.71,891.435ZM1299.2,890.216C1299.9,890.986 1300.59,891.77 1301.26,892.569L1300.46,893.239C1299.8,892.452 1299.12,891.677 1298.43,890.917L1299.2,890.216ZM1183.26,887.624L1184,888.358C1183.28,889.087 1182.57,889.831 1181.87,890.588L1181.1,889.883C1181.81,889.116 1182.53,888.363 1183.26,887.624ZM1295.58,886.478C1296.33,887.203 1297.06,887.942 1297.78,888.693L1297.03,889.413C1296.32,888.671 1295.59,887.942 1294.85,887.227L1295.58,886.478ZM1187.05,884.051L1187.74,884.831C1186.97,885.512 1186.21,886.208 1185.47,886.918L1184.75,886.165C1185.5,885.446 1186.27,884.741 1187.05,884.051ZM1291.72,882.982C1292.51,883.656 1293.29,884.345 1294.06,885.05L1293.36,885.817C1292.6,885.122 1291.83,884.442 1291.04,883.776L1291.72,882.982ZM1191.06,880.729L1191.7,881.553C1190.89,882.183 1190.09,882.828 1189.3,883.489L1188.63,882.691C1189.43,882.022 1190.24,881.368 1191.06,880.729ZM1287.64,879.743C1288.48,880.365 1289.3,881.002 1290.11,881.655L1289.46,882.466C1288.66,881.822 1287.84,881.193 1287.02,880.579L1287.64,879.743ZM1195.28,877.675L1195.86,878.538C1195.01,879.114 1194.17,879.706 1193.34,880.314L1192.72,879.475C1193.56,878.859 1194.41,878.259 1195.28,877.675ZM1283.36,876.775C1284.24,877.341 1285.1,877.923 1285.95,878.523L1285.35,879.375C1284.51,878.783 1283.66,878.208 1282.8,877.649L1283.36,876.775ZM1199.68,874.9L1200.21,875.799C1199.32,876.319 1198.44,876.855 1197.58,877.408L1197.02,876.531C1197.9,875.971 1198.78,875.427 1199.68,874.9ZM1278.9,874.091C1279.81,874.598 1280.71,875.123 1281.6,875.667L1281.05,876.555C1280.18,876.02 1279.29,875.502 1278.39,875L1278.9,874.091ZM1204.26,872.418L1204.73,873.35C1203.81,873.81 1202.9,874.289 1202,874.784L1201.5,873.872C1202.41,873.37 1203.33,872.885 1204.26,872.418ZM1274.27,871.703C1275.21,872.151 1276.15,872.617 1277.07,873.099L1276.58,874.022C1275.67,873.545 1274.75,873.085 1273.82,872.643L1274.27,871.703ZM1208.99,870.241L1209.4,871.2C1208.45,871.6 1207.51,872.018 1206.58,872.453L1206.14,871.51C1207.08,871.069 1208.03,870.645 1208.99,870.241ZM1269.5,869.623C1270.47,870.008 1271.43,870.412 1272.38,870.833L1271.96,871.785C1271.02,871.369 1270.07,870.971 1269.11,870.59L1269.5,869.623ZM1213.86,868.377L1214.2,869.361C1213.22,869.698 1212.26,870.053 1211.3,870.427L1210.92,869.457C1211.89,869.078 1212.87,868.718 1213.86,868.377ZM1264.6,867.859C1265.59,868.18 1266.58,868.52 1267.55,868.879L1267.19,869.856C1266.23,869.503 1265.26,869.167 1264.28,868.85L1264.6,867.859ZM1218.83,866.836L1219.11,867.841C1218.11,868.113 1217.12,868.404 1216.15,868.714L1215.83,867.721C1216.82,867.407 1217.82,867.112 1218.83,866.836ZM1259.59,866.421C1260.61,866.677 1261.61,866.951 1262.61,867.245L1262.31,868.244C1261.33,867.954 1260.34,867.683 1259.34,867.431L1259.59,866.421ZM1223.89,865.625L1224.1,866.645C1223.09,866.852 1222.09,867.078 1221.1,867.323L1220.85,866.312C1221.85,866.064 1222.87,865.835 1223.89,865.625ZM1254.5,865.314C1255.53,865.503 1256.55,865.711 1257.57,865.938L1257.34,866.955C1256.34,866.73 1255.33,866.525 1254.32,866.339L1254.5,865.314ZM1229.03,864.748L1229.17,865.78C1228.15,865.92 1227.13,866.08 1226.12,866.259L1225.94,865.234C1226.96,865.052 1227.99,864.89 1229.03,864.748ZM1249.35,864.543C1250.39,864.664 1251.42,864.805 1252.45,864.965L1252.29,865.994C1251.28,865.836 1250.26,865.696 1249.23,865.577L1249.35,864.543ZM1234.21,864.207L1234.28,865.246C1233.25,865.32 1232.23,865.413 1231.21,865.526L1231.1,864.491C1232.13,864.377 1233.16,864.282 1234.21,864.207ZM1244.16,864.107C1245.21,864.16 1246.25,864.234 1247.28,864.328L1247.19,865.365C1246.17,865.273 1245.14,865.2 1244.11,865.147L1244.16,864.107ZM1239.41,864.002L1239.42,865.044C1238.38,865.051 1237.36,865.079 1236.33,865.125L1236.29,864.085C1237.32,864.037 1238.36,864.01 1239.41,864.002ZM1240,864C1240.7,864 1241.39,864.009 1242.08,864.027L1242.06,865.068C1241.37,865.05 1240.69,865.042 1240,865.042L1240,864Z" style="fill:rgb(87,204,51);"/>
                </g>
            </g>
            <g transform="matrix(3.75,0,0,6.25,-3525,-5025)">
                <circle cx="1112" cy="976" r="16" style="fill:rgb(87,204,51);"/>
            </g>
            <g transform="matrix(3.75,0,0,6.25,-3630,-4500)">
                <circle cx="1112" cy="976" r="16" style="fill:rgb(87,204,51);"/>
            </g>
            <g transform="matrix(3.75,0,0,6.25,-3330,-4075)">
                <circle cx="1112" cy="976" r="16" style="fill:rgb(87,204,51);"/>
            </g>
            <g transform="matrix(3.75,0,0,6.25,-3309.48,-4550)">
                <circle cx="1112" cy="976" r="16" style="fill:rgb(87,204,51);"/>
            </g>
            <g transform="matrix(3.75,0,0,6.25,-3165,-5100)">
                <circle cx="1112" cy="976" r="16" style="fill:rgb(87,204,51);"/>
            </g>
            <g transform="matrix(3.75,0,0,6.25,-2970,-5800)">
                <circle cx="1112" cy="976" r="16" style="fill:rgb(87,204,51);"/>
            </g>
            <g transform="matrix(3.75,0,0,6.25,-2670,-5400)">
                <circle cx="1112" cy="976" r="16" style="fill:rgb(87,204,51);"/>
            </g>
            <g transform="matrix(3.75,0,0,6.25,-2370,-5700)">
                <circle cx="1112" cy="976" r="16" style="fill:rgb(87,204,51);"/>
            </g>
            <g transform="matrix(3.75,0,0,6.25,-3810,-3700)">
                <circle cx="1112" cy="976" r="16" style="fill:rgb(87,204,51);"/>
            </g>
            <g transform="matrix(3.75,0,0,6.25,-3450,-3400)">
                <circle cx="1112" cy="976" r="16" style="fill:rgb(87,204,51);"/>
            </g>
            <g transform="matrix(3.75,0,0,6.25,-2940,-4675)">
                <circle cx="1112" cy="976" r="16" style="fill:rgb(87,204,51);"/>
            </g>
            <g transform="matrix(3.75,0,0,6.25,-2940,-4125)">
                <circle cx="1112" cy="976" r="16" style="fill:rgb(87,204,51);"/>
            </g>
            <g transform="matrix(3.75,0,0,6.25,-2880,-3625)">
                <circle cx="1112" cy="976" r="16" style="fill:rgb(87,204,51);"/>
            </g>
            <g transform="matrix(3.75,0,0,6.25,-2715,-3900)">
                <circle cx="1112" cy="976" r="16" style="fill:rgb(87,204,51);"/>
            </g>
            <g transform="matrix(3.75,0,0,6.25,-2460,-3850)">
                <circle cx="1112" cy="976" r="16" style="fill:rgb(87,204,51);"/>
            </g>
            <g transform="matrix(3.75,0,0,6.25,-2190,-3700)">
                <circle cx="1112" cy="976" r="16" style="fill:rgb(87,204,51);"/>
            </g>
            <g transform="matrix(3.75,0,0,6.25,-2235,-4600)">
                <circle cx="1112" cy="976" r="16" style="fill:rgb(87,204,51);"/>
            </g>
            <g transform="matrix(3.75,0,0,6.25,-1890,-4900)">
                <circle cx="1112" cy="976" r="16" style="fill:rgb(87,204,51);"/>
            </g>
            <g transform="matrix(3.75,0,0,6.25,-1965,-5500)">
                <circle cx="1112" cy="976" r="16" style="fill:rgb(87,204,51);"/>
            </g>
            <g transform="matrix(3.75,0,0,6.25,-1635,-5600)">
                <circle cx="1112" cy="976" r="16" style="fill:rgb(87,204,51);"/>
            </g>
            <g transform="matrix(3.75,0,0,6.25,-1530,-5325)">
                <circle cx="1112" cy="976" r="16" style="fill:rgb(87,204,51);"/>
            </g>
            <g transform="matrix(3.75,0,0,6.25,-1695,-4350)">
                <circle cx="1112" cy="976" r="16" style="fill:rgb(87,204,51);"/>
            </g>
            <g transform="matrix(3.75,0,0,6.25,-1770,-3700)">
                <circle cx="1112" cy="976" r="16" style="fill:rgb(87,204,51);"/>
            </g>
            <g transform="matrix(3.75,0,0,6.25,-3750,-5000)">
                <path d="M1612,1144L1640,1184" style="fill:none;stroke:rgb(87,204,51);stroke-width:1.87px;"/>
            </g>
            <g transform="matrix(3.75,0,0,6.25,-1875,-3950)">
                <circle cx="1112" cy="976" r="16" style="fill:rgb(87,204,51);"/>
            </g>
            <g transform="matrix(3.75,0,0,6.25,-2085,-4200)">
                <circle cx="1112" cy="976" r="16" style="fill:rgb(87,204,51);"/>
            </g>
            <g transform="matrix(3.75,0,0,6.25,-3810,-5600)">
                <circle cx="1112" cy="976" r="16" style="fill:rgb(87,204,51);"/>
            </g>
            <g transform="matrix(3.75,0,0,6.25,-3750,-5000)">
                <path d="M1144,1056L1228,1048L1268,960L1328,1028L1328,1116L1388,1152L1456,1160L1556,1104L1608,992L1588,896L1676,880L1704,924" style="fill:none;stroke:rgb(87,204,51);stroke-width:1.87px;"/>
            </g>
            <g transform="matrix(3.75,0,0,6.25,-3750,-5000)">
                <path d="M1388,1152L1344,1196L1328,1116" style="fill:none;stroke:rgb(87,204,51);stroke-width:1.87px;"/>
            </g>
            <g transform="matrix(3.75,0,0,6.25,-3750,-5000)">
                <path d="M1556,1104L1528,1184" style="fill:none;stroke:rgb(87,204,51);stroke-width:1.87px;"/>
            </g>
            <g transform="matrix(3.75,0,0,6.25,-3750,-5000)">
                <path d="M1516,1040L1556,1104L1612,1144L1660,1080" style="fill:none;stroke:rgb(87,204,51);stroke-width:1.87px;"/>
            </g>
            <g transform="matrix(3.75,0,0,6.25,-3750,-5000)">
                <path d="M1608,992L1704,924" style="fill:none;stroke:rgb(87,204,51);stroke-width:1.87px;"/>
            </g>
            <g transform="matrix(3.75,0,0,6.25,-3750,-5000)">
                <path d="M1096,880L1172,972" style="fill:none;stroke:rgb(87,204,51);stroke-width:1.87px;"/>
            </g>
            <g transform="matrix(3.75,0,0,6.25,-3750,-5000)">
                <path d="M1096,1184L1224,1124L1192,1232" style="fill:none;stroke:rgb(87,204,51);stroke-width:1.87px;"/>
            </g>
            <g transform="matrix(3.75,0,0,6.25,-3750,-5000)">
                <path d="M1320,848L1268,960" style="fill:none;stroke:rgb(87,204,51);stroke-width:1.87px;"/>
            </g>
        </g>
    </g>
</svg>
