<?xml version="1.0" encoding="UTF-8" standalone="no"?>
<!DOCTYPE svg PUBLIC "-//W3C//DTD SVG 1.1//EN" "http://www.w3.org/Graphics/SVG/1.1/DTD/svg11.dtd">
<svg width="100%" height="100%" viewBox="0 0 800 480" version="1.1" xmlns="http://www.w3.org/2000/svg" xmlns:xlink="http://www.w3.org/1999/xlink" xml:space="preserve" xmlns:serif="http://www.serif.com/" style="fill-rule:evenodd;clip-rule:evenodd;stroke-miterlimit:1;">
    <g transform="matrix(1,0,0,1,-1000,-1400)">
        <g id="mesh-signaling" transform="matrix(0.266667,0,0,0.16,1000,1400)">
            <rect x="0" y="0" width="3000" height="3000" style="fill:none;"/>
            <g transform="matrix(3.75,0,0,6.25,-3750,-8750)">
                <path d="M1200,1816C1506.43,1847.47 1666.24,1756.85 1688,1528" style="fill:none;stroke:rgb(128,128,128);stroke-width:1.87px;stroke-dasharray:5.62,3.75,0,0;stroke-dashoffset:1.87;"/>
            </g>
            <g>
                <g transform="matrix(3.75,0,0,6.25,-3750,-8750)">
                    <path d="M1380,1688L1432,1752" style="fill:none;stroke:rgb(26,122,230);stroke-width:0.83px;"/>
                </g>
                <g transform="matrix(3.75,0,0,6.25,-3750,-8750)">
                    <path d="M1380,1688L1400,1560" style="fill:none;stroke:rgb(26,122,230);stroke-width:0.83px;"/>
                </g>
                <g transform="matrix(3.75,0,0,6.25,-3750,-8750)">
                    <path d="M1192,1736L1380,1688" style="fill:none;stroke:rgb(26,122,230);stroke-width:0.83px;"/>
                </g>
                <g transform="matrix(3.75,0,0,6.25,-3750,-8750)">
                    <path d="M1400,1564L1608,1544" style="fill:none;stroke:rgb(26,122,230);stroke-width:0.83px;"/>
                </g>
                <g transform="matrix(3.75,0,0,6.25,-3750,-8750)">
                    <path d="M1432,1752L1512,1624" style="fill:none;stroke:rgb(26,122,230);stroke-width:0.83px;"/>
                </g>
                <g transform="matrix(3.75,0,0,6.25,-3750,-8750)">
                    <path d="M1192,1736L1272,1624L1380,1688L1512,1624L1608,1544" style="fill:none;stroke:rgb(26,122,230);stroke-width:0.83px;"/>
                </g>
                <g transform="matrix(3.75,0,0,6.25,-3750,-8750)">
                    <path d="M1432,1480L1400,1560" style="fill:none;stroke:rgb(26,122,230);stroke-width:0.83px;"/>
                </g>
                <g transform="matrix(3.75,0,0,6.25,-3750,-8750)">
                    <path d="M1176,1544L1272,1624L1400,1560L1512,1624" style="fill:none;stroke:rgb(26,122,230);stroke-width:0.83px;"/>
                </g>
            </g>
            <g>
                <g transform="matrix(3.75,0,0,6.25,-3750,-8750)">
                    <path d="M1192,1736L1200,1816" style="fill:none;stroke:rgb(51,123,204);stroke-width:1.87px;"/>
                </g>
                <g transform="matrix(3.75,0,0,6.25,-3750,-8750)">
                    <path d="M1608,1544L1688,1528" style="fill:none;stroke:rgb(51,123,204);stroke-width:1.87px;"/>
                </g>
                <g transform="matrix(3.75,0,0,6.25,-3750,-8750)">
                    <path d="M1192,1736L1108,1756" style="fill:none;stroke:rgb(51,123,204);stroke-width:1.87px;"/>
                </g>
                <g transform="matrix(3.75,0,0,6.25,-1995,-10400)">
                    <path d="M1140,1808L1192,1736" style="fill:none;stroke:rgb(51,123,204);stroke-width:1.87px;"/>
                </g>
                <g transform="matrix(3.75,0,0,6.25,-3870,-8750)">
                    <path d="M1632,1464L1640,1544" style="fill:none;stroke:rgb(51,123,204);stroke-width:1.87px;"/>
                </g>
            </g>
            <g>
                <g transform="matrix(2.8125,0,0,4.6875,-652.5,-7837.5)">
                    <circle cx="1112" cy="1768" r="16" style="fill:rgb(183,239,251);"/>
                    <path d="M1112,1752C1120.83,1752 1128,1759.17 1128,1768C1128,1776.83 1120.83,1784 1112,1784C1103.17,1784 1096,1776.83 1096,1768C1096,1759.17 1103.17,1752 1112,1752ZM1112,1754.5C1119.45,1754.5 1125.5,1760.55 1125.5,1768C1125.5,1775.45 1119.45,1781.5 1112,1781.5C1104.55,1781.5 1098.5,1775.45 1098.5,1768C1098.5,1760.55 1104.55,1754.5 1112,1754.5Z" style="fill:rgb(51,123,204);"/>
                </g>
                <g transform="matrix(2.8125,0,0,4.6875,-877.5,-7887.5)">
                    <circle cx="1112" cy="1768" r="16" style="fill:rgb(183,239,251);"/>
                    <path d="M1112,1752C1120.83,1752 1128,1759.17 1128,1768C1128,1776.83 1120.83,1784 1112,1784C1103.17,1784 1096,1776.83 1096,1768C1096,1759.17 1103.17,1752 1112,1752ZM1112,1754.5C1119.45,1754.5 1125.5,1760.55 1125.5,1768C1125.5,1775.45 1119.45,1781.5 1112,1781.5C1104.55,1781.5 1098.5,1775.45 1098.5,1768C1098.5,1760.55 1104.55,1754.5 1112,1754.5Z" style="fill:rgb(51,123,204);"/>
                </g>
                <g transform="matrix(2.8125,0,0,4.6875,-2722.5,-6062.5)">
                    <circle cx="1112" cy="1768" r="16" style="fill:rgb(183,239,251);"/>
                    <path d="M1112,1752C1120.83,1752 1128,1759.17 1128,1768C1128,1776.83 1120.83,1784 1112,1784C1103.17,1784 1096,1776.83 1096,1768C1096,1759.17 1103.17,1752 1112,1752ZM1112,1754.5C1119.45,1754.5 1125.5,1760.55 1125.5,1768C1125.5,1775.45 1119.45,1781.5 1112,1781.5C1104.55,1781.5 1098.5,1775.45 1098.5,1768C1098.5,1760.55 1104.55,1754.5 1112,1754.5Z" style="fill:rgb(51,123,204);"/>
                </g>
            </g>
            <g>
                <g transform="matrix(2.8125,0,0,4.6875,-547.5,-7487.5)">
                    <circle cx="1112" cy="1768" r="16" style="fill:rgb(183,239,251);"/>
                    <path d="M1112,1752C1120.83,1752 1128,1759.17 1128,1768C1128,1776.83 1120.83,1784 1112,1784C1103.17,1784 1096,1776.83 1096,1768C1096,1759.17 1103.17,1752 1112,1752ZM1112,1754.5C1119.45,1754.5 1125.5,1760.55 1125.5,1768C1125.5,1775.45 1119.45,1781.5 1112,1781.5C1104.55,1781.5 1098.5,1775.45 1098.5,1768C1098.5,1760.55 1104.55,1754.5 1112,1754.5Z" style="fill:rgb(51,123,204);"/>
                </g>
                <g transform="matrix(7.5,0,0,12.5,-5670,-20750)">
                    <circle cx="1100" cy="1724" r="4" style="fill:rgb(51,122,202);"/>
                    <path d="M1100,1720C1102.21,1720 1104,1721.79 1104,1724C1104,1726.21 1102.21,1728 1100,1728C1097.79,1728 1096,1726.21 1096,1724C1096,1721.79 1097.79,1720 1100,1720ZM1100,1720.94C1101.69,1720.94 1103.06,1722.31 1103.06,1724C1103.06,1725.69 1101.69,1727.06 1100,1727.06C1098.31,1727.06 1096.94,1725.69 1096.94,1724C1096.94,1722.31 1098.31,1720.94 1100,1720.94Z" style="fill:rgb(51,123,204);"/>
                </g>
            </g>
            <g>
                <g transform="matrix(2.8125,0,0,4.6875,-2377.5,-5687.5)">
                    <circle cx="1112" cy="1768" r="16" style="fill:rgb(183,239,251);"/>
                    <path d="M1112,1752C1120.83,1752 1128,1759.17 1128,1768C1128,1776.83 1120.83,1784 1112,1784C1103.17,1784 1096,1776.83 1096,1768C1096,1759.17 1103.17,1752 1112,1752ZM1112,1754.5C1119.45,1754.5 1125.5,1760.55 1125.5,1768C1125.5,1775.45 1119.45,1781.5 1112,1781.5C1104.55,1781.5 1098.5,1775.45 1098.5,1768C1098.5,1760.55 1104.55,1754.5 1112,1754.5Z" style="fill:rgb(51,123,204);"/>
                </g>
                <g transform="matrix(7.5,0,0,12.5,-7500,-18950)">
                    <circle cx="1100" cy="1724" r="4" style="fill:rgb(51,122,202);"/>
                    <path d="M1100,1720C1102.21,1720 1104,1721.79 1104,1724C1104,1726.21 1102.21,1728 1100,1728C1097.79,1728 1096,1726.21 1096,1724C1096,1721.79 1097.79,1720 1100,1720ZM1100,1720.94C1101.69,1720.94 1103.06,1722.31 1103.06,1724C1103.06,1725.69 1101.69,1727.06 1100,1727.06C1098.31,1727.06 1096.94,1725.69 1096.94,1724C1096.94,1722.31 1098.31,1720.94 1100,1720.94Z" style="fill:rgb(51,123,204);"/>
                </g>
            </g>
            <g>
                <g transform="matrix(3.75,0,0,6.25,-3450,-4000)">
                    <circle cx="1112" cy="976" r="16" style="fill:white;"/>
                    <path d="M1112,960C1120.83,960 1128,967.169 1128,976C1128,984.831 1120.83,992 1112,992C1103.17,992 1096,984.831 1096,976C1096,967.169 1103.17,960 1112,960ZM1112,962.5C1119.45,962.5 1125.5,968.549 1125.5,976C1125.5,983.451 1119.45,989.5 1112,989.5C1104.55,989.5 1098.5,983.451 1098.5,976C1098.5,968.549 1104.55,962.5 1112,962.5Z" style="fill:rgb(51,123,204);"/>
                </g>
                <g transform="matrix(3.75,0,0,6.25,-3150,-4700)">
                    <circle cx="1112" cy="976" r="16" style="fill:white;"/>
                    <path d="M1112,960C1120.83,960 1128,967.169 1128,976C1128,984.831 1120.83,992 1112,992C1103.17,992 1096,984.831 1096,976C1096,967.169 1103.17,960 1112,960ZM1112,962.5C1119.45,962.5 1125.5,968.549 1125.5,976C1125.5,983.451 1119.45,989.5 1112,989.5C1104.55,989.5 1098.5,983.451 1098.5,976C1098.5,968.549 1104.55,962.5 1112,962.5Z" style="fill:rgb(51,123,204);"/>
                </g>
                <g transform="matrix(3.75,0,0,6.25,-2670,-5100)">
                    <circle cx="1112" cy="976" r="16" style="fill:white;"/>
                    <path d="M1112,960C1120.83,960 1128,967.169 1128,976C1128,984.831 1120.83,992 1112,992C1103.17,992 1096,984.831 1096,976C1096,967.169 1103.17,960 1112,960ZM1112,962.5C1119.45,962.5 1125.5,968.549 1125.5,976C1125.5,983.451 1119.45,989.5 1112,989.5C1104.55,989.5 1098.5,983.451 1098.5,976C1098.5,968.549 1104.55,962.5 1112,962.5Z" style="fill:rgb(51,123,204);"/>
                </g>
                <g transform="matrix(3.75,0,0,6.25,-2550,-3900)">
                    <circle cx="1112" cy="976" r="16" style="fill:white;"/>
                    <path d="M1112,960C1120.83,960 1128,967.169 1128,976C1128,984.831 1120.83,992 1112,992C1103.17,992 1096,984.831 1096,976C1096,967.169 1103.17,960 1112,960ZM1112,962.5C1119.45,962.5 1125.5,968.549 1125.5,976C1125.5,983.451 1119.45,989.5 1112,989.5C1104.55,989.5 1098.5,983.451 1098.5,976C1098.5,968.549 1104.55,962.5 1112,962.5Z" style="fill:rgb(51,123,204);"/>
                </g>
                <g transform="matrix(3.75,0,0,6.25,-2250,-4700)">
                    <circle cx="1112" cy="976" r="16" style="fill:white;"/>
                    <path d="M1112,960C1120.83,960 1128,967.169 1128,976C1128,984.831 1120.83,992 1112,992C1103.17,992 1096,984.831 1096,976C1096,967.169 1103.17,960 1112,960ZM1112,962.5C1119.45,962.5 1125.5,968.549 1125.5,976C1125.5,983.451 1119.45,989.5 1112,989.5C1104.55,989.5 1098.5,983.451 1098.5,976C1098.5,968.549 1104.55,962.5 1112,962.5Z" style="fill:rgb(51,123,204);"/>
                </g>
                <g transform="matrix(3.75,0,0,6.25,-2550,-5600)">
                    <circle cx="1112" cy="976" r="16" style="fill:white;"/>
                    <path d="M1112,960C1120.83,960 1128,967.169 1128,976C1128,984.831 1120.83,992 1112,992C1103.17,992 1096,984.831 1096,976C1096,967.169 1103.17,960 1112,960ZM1112,962.5C1119.45,962.5 1125.5,968.549 1125.5,976C1125.5,983.451 1119.45,989.5 1112,989.5C1104.55,989.5 1098.5,983.451 1098.5,976C1098.5,968.549 1104.55,962.5 1112,962.5Z" style="fill:rgb(51,123,204);"/>
                </g>
                <g transform="matrix(3.75,0,0,6.25,-2745,-4300)">
                    <circle cx="1112" cy="976" r="16" style="fill:white;"/>
                    <path d="M1112,960C1120.83,960 1128,967.169 1128,976C1128,984.831 1120.83,992 1112,992C1103.17,992 1096,984.831 1096,976C1096,967.169 1103.17,960 1112,960ZM1112,962.5C1119.45,962.5 1125.5,968.549 1125.5,976C1125.5,983.451 1119.45,989.5 1112,989.5C1104.55,989.5 1098.5,983.451 1098.5,976C1098.5,968.549 1104.55,962.5 1112,962.5Z" style="fill:rgb(51,123,204);"/>
                </g>
                <g transform="matrix(3.75,0,0,6.25,-3510,-5200)">
                    <circle cx="1112" cy="976" r="16" style="fill:white;"/>
                    <path d="M1112,960C1120.83,960 1128,967.169 1128,976C1128,984.831 1120.83,992 1112,992C1103.17,992 1096,984.831 1096,976C1096,967.169 1103.17,960 1112,960ZM1112,962.5C1119.45,962.5 1125.5,968.549 1125.5,976C1125.5,983.451 1119.45,989.5 1112,989.5C1104.55,989.5 1098.5,983.451 1098.5,976C1098.5,968.549 1104.55,962.5 1112,962.5Z" style="fill:rgb(51,123,204);"/>
                </g>
                <g transform="matrix(3.75,0,0,6.25,-1890,-5200)">
                    <circle cx="1112" cy="976" r="16" style="fill:white;"/>
                    <path d="M1112,960C1120.83,960 1128,967.169 1128,976C1128,984.831 1120.83,992 1112,992C1103.17,992 1096,984.831 1096,976C1096,967.169 1103.17,960 1112,960ZM1112,962.5C1119.45,962.5 1125.5,968.549 1125.5,976C1125.5,983.451 1119.45,989.5 1112,989.5C1104.55,989.5 1098.5,983.451 1098.5,976C1098.5,968.549 1104.55,962.5 1112,962.5Z" style="fill:rgb(51,123,204);"/>
                </g>
            </g>
            <g>
                <g transform="matrix(3.75,0,0,6.25,690,1100)">
                    <text x="32px" y="181.083px" style="font-family:'DMSans-Regular', 'DM Sans';font-size:20.833px;">signaling</text>
                    <text x="32px" y="201.917px" style="font-family:'DMSans-Regular', 'DM Sans';font-size:20.833px;">serv<tspan x="72.167px " y="201.917px ">e</tspan>r</text>
                </g>
                <g transform="matrix(3.75,0,0,6.25,2542.5,-300)">
                    <text x="32px" y="183.5px" style="font-family:'DMSans-Regular', 'DM Sans';font-size:20.833px;">client</text>
                </g>
                <g transform="matrix(3.75,0,0,6.25,240,1503.13)">
                    <text x="58.688px" y="183.5px" style="font-family:'DMSans-Regular', 'DM Sans';font-size:20.833px;">client</text>
                </g>
                <g transform="matrix(3.75,0,0,6.25,2040,1253.13)">
                    <text x="32px" y="183.5px" style="font-family:'DMSans-Regular', 'DM Sans';font-size:20.833px;">W<tspan x="51.083px " y="183.5px ">e</tspan>bRT<tspan x="99.292px " y="183.5px ">C</tspan></text>
                </g>
                <g transform="matrix(3.75,0,0,6.25,840,-100)">
                    <text x="67.229px" y="183.5px" style="font-family:'DMSans-Regular', 'DM Sans';font-size:20.833px;">libp2p</text>
                </g>
            </g>
        </g>
    </g>
</svg>
