<?xml version="1.0" encoding="UTF-8" standalone="no"?>
<!DOCTYPE svg PUBLIC "-//W3C//DTD SVG 1.1//EN" "http://www.w3.org/Graphics/SVG/1.1/DTD/svg11.dtd">
<svg width="100%" height="100%" viewBox="0 0 30 30" version="1.1" xmlns="http://www.w3.org/2000/svg" xmlns:xlink="http://www.w3.org/1999/xlink" xml:space="preserve" xmlns:serif="http://www.serif.com/" style="fill-rule:evenodd;clip-rule:evenodd;stroke-linejoin:round;stroke-miterlimit:2;">
    <g transform="matrix(3.62157,0,0,6.55081,-44.2835,-26.3331)">
        <path d="M12.303,7.486L14.22,5.108L15.204,5.108L17.126,7.486L16.086,7.486L14.508,5.388L14.903,5.388L13.325,7.486L12.303,7.486ZM13.265,6.977L13.526,6.559L15.742,6.559L16.007,6.977L13.265,6.977Z" style="fill-rule:nonzero;"/>
        <path d="M19.535,7.486L19.535,7.13L19.478,7.049L19.478,6.412C19.478,6.298 19.415,6.21 19.29,6.147C19.165,6.085 18.973,6.054 18.713,6.054C18.539,6.054 18.367,6.069 18.196,6.099C18.026,6.129 17.88,6.17 17.76,6.222L17.417,5.853C17.599,5.781 17.817,5.726 18.07,5.689C18.324,5.651 18.582,5.632 18.844,5.632C19.35,5.632 19.742,5.698 20.02,5.829C20.298,5.96 20.437,6.164 20.437,6.442L20.437,7.486L19.535,7.486ZM18.531,7.512C18.274,7.512 18.053,7.488 17.869,7.44C17.684,7.392 17.543,7.326 17.445,7.242C17.347,7.158 17.298,7.064 17.298,6.959C17.298,6.851 17.346,6.756 17.442,6.674C17.538,6.593 17.69,6.529 17.899,6.482C18.108,6.436 18.38,6.412 18.716,6.412L19.591,6.412L19.591,6.721L18.822,6.721C18.596,6.721 18.441,6.741 18.357,6.782C18.273,6.822 18.231,6.874 18.231,6.937C18.231,7.003 18.279,7.056 18.374,7.096C18.47,7.136 18.601,7.156 18.767,7.156C18.928,7.156 19.073,7.135 19.201,7.094C19.329,7.053 19.421,6.991 19.478,6.908L19.623,7.154C19.555,7.27 19.428,7.359 19.244,7.42C19.06,7.481 18.822,7.512 18.531,7.512Z" style="fill-rule:nonzero;"/>
    </g>
</svg>
