<svg width="1000" height="454" viewBox="0 0 1000 454" fill="none" xmlns="http://www.w3.org/2000/svg">
<rect width="1000" height="454" fill="#F5F5F5"/>
<rect x="0.5" y="0.5" width="999" height="453" fill="white"/>
<rect x="0.5" y="0.5" width="999" height="453" stroke="black"/>
<rect x="71" y="61" width="378" height="346" rx="9" stroke="black" stroke-width="2" stroke-dasharray="2 2"/>
<rect x="291" y="105" width="120" height="46" stroke="black" stroke-width="2"/>
<path d="M332.795 133.205C332.242 133.205 331.741 133.1 331.29 132.892C330.839 132.68 330.481 132.375 330.216 131.977C329.951 131.576 329.818 131.091 329.818 130.523C329.818 130.023 329.917 129.617 330.114 129.307C330.311 128.992 330.574 128.746 330.903 128.568C331.233 128.39 331.597 128.258 331.994 128.17C332.396 128.08 332.799 128.008 333.205 127.955C333.735 127.886 334.165 127.835 334.494 127.801C334.828 127.763 335.07 127.701 335.222 127.614C335.377 127.527 335.455 127.375 335.455 127.159V127.114C335.455 126.553 335.301 126.117 334.994 125.807C334.691 125.496 334.231 125.341 333.614 125.341C332.973 125.341 332.472 125.481 332.108 125.761C331.744 126.042 331.489 126.341 331.341 126.659L330.068 126.205C330.295 125.674 330.598 125.261 330.977 124.966C331.36 124.667 331.777 124.458 332.227 124.341C332.682 124.22 333.129 124.159 333.568 124.159C333.848 124.159 334.17 124.193 334.534 124.261C334.902 124.326 335.256 124.46 335.597 124.665C335.941 124.869 336.227 125.178 336.455 125.591C336.682 126.004 336.795 126.557 336.795 127.25V133H335.455V131.818H335.386C335.295 132.008 335.144 132.21 334.932 132.426C334.72 132.642 334.438 132.826 334.085 132.977C333.733 133.129 333.303 133.205 332.795 133.205ZM333 132C333.53 132 333.977 131.896 334.341 131.688C334.708 131.479 334.985 131.21 335.17 130.881C335.36 130.551 335.455 130.205 335.455 129.841V128.614C335.398 128.682 335.273 128.744 335.08 128.801C334.89 128.854 334.67 128.902 334.42 128.943C334.174 128.981 333.934 129.015 333.699 129.045C333.468 129.072 333.28 129.095 333.136 129.114C332.788 129.159 332.462 129.233 332.159 129.335C331.86 129.434 331.617 129.583 331.432 129.784C331.25 129.981 331.159 130.25 331.159 130.591C331.159 131.057 331.331 131.409 331.676 131.648C332.025 131.883 332.466 132 333 132ZM342.766 136.455C342.118 136.455 341.561 136.371 341.095 136.205C340.629 136.042 340.241 135.826 339.93 135.557C339.624 135.292 339.379 135.008 339.197 134.705L340.266 133.955C340.387 134.114 340.54 134.295 340.726 134.5C340.911 134.708 341.165 134.888 341.487 135.04C341.813 135.195 342.239 135.273 342.766 135.273C343.47 135.273 344.052 135.102 344.51 134.761C344.968 134.42 345.197 133.886 345.197 133.159V131.386H345.084C344.985 131.545 344.845 131.742 344.663 131.977C344.485 132.208 344.228 132.415 343.891 132.597C343.557 132.775 343.107 132.864 342.538 132.864C341.834 132.864 341.201 132.697 340.641 132.364C340.084 132.03 339.643 131.545 339.317 130.909C338.995 130.273 338.834 129.5 338.834 128.591C338.834 127.697 338.991 126.919 339.305 126.256C339.62 125.589 340.057 125.074 340.618 124.71C341.179 124.343 341.826 124.159 342.561 124.159C343.129 124.159 343.58 124.254 343.913 124.443C344.25 124.629 344.508 124.841 344.686 125.08C344.868 125.314 345.008 125.508 345.107 125.659H345.243V124.273H346.538V133.25C346.538 134 346.368 134.61 346.027 135.08C345.69 135.553 345.235 135.9 344.663 136.119C344.095 136.343 343.463 136.455 342.766 136.455ZM342.72 131.659C343.258 131.659 343.713 131.536 344.084 131.29C344.455 131.044 344.737 130.689 344.93 130.227C345.124 129.765 345.22 129.212 345.22 128.568C345.22 127.939 345.125 127.384 344.936 126.903C344.747 126.422 344.466 126.045 344.095 125.773C343.724 125.5 343.266 125.364 342.72 125.364C342.152 125.364 341.679 125.508 341.3 125.795C340.925 126.083 340.643 126.47 340.453 126.955C340.268 127.439 340.175 127.977 340.175 128.568C340.175 129.174 340.269 129.71 340.459 130.176C340.652 130.638 340.936 131.002 341.311 131.267C341.69 131.528 342.16 131.659 342.72 131.659ZM352.652 133.182C351.811 133.182 351.086 132.996 350.476 132.625C349.87 132.25 349.402 131.727 349.072 131.057C348.747 130.383 348.584 129.598 348.584 128.705C348.584 127.811 348.747 127.023 349.072 126.341C349.402 125.655 349.86 125.121 350.447 124.739C351.038 124.352 351.728 124.159 352.516 124.159C352.97 124.159 353.419 124.235 353.862 124.386C354.305 124.538 354.709 124.784 355.072 125.125C355.436 125.462 355.726 125.909 355.942 126.466C356.158 127.023 356.266 127.708 356.266 128.523V129.091H349.538V127.932H354.902C354.902 127.439 354.804 127 354.607 126.614C354.413 126.227 354.137 125.922 353.777 125.699C353.421 125.475 353 125.364 352.516 125.364C351.982 125.364 351.519 125.496 351.129 125.761C350.743 126.023 350.446 126.364 350.237 126.784C350.029 127.205 349.925 127.655 349.925 128.136V128.909C349.925 129.568 350.038 130.127 350.266 130.585C350.497 131.04 350.817 131.386 351.226 131.625C351.635 131.86 352.11 131.977 352.652 131.977C353.004 131.977 353.322 131.928 353.607 131.83C353.894 131.727 354.143 131.576 354.351 131.375C354.559 131.17 354.72 130.917 354.834 130.614L356.129 130.977C355.993 131.417 355.764 131.803 355.442 132.136C355.12 132.466 354.722 132.723 354.249 132.909C353.775 133.091 353.243 133.182 352.652 133.182ZM359.646 127.75V133H358.305V124.273H359.601V125.636H359.714C359.919 125.193 360.23 124.837 360.646 124.568C361.063 124.295 361.601 124.159 362.26 124.159C362.851 124.159 363.368 124.28 363.811 124.523C364.254 124.761 364.599 125.125 364.845 125.614C365.091 126.098 365.214 126.712 365.214 127.455V133H363.874V127.545C363.874 126.86 363.696 126.326 363.339 125.943C362.983 125.557 362.495 125.364 361.874 125.364C361.446 125.364 361.063 125.456 360.726 125.642C360.393 125.828 360.129 126.098 359.936 126.455C359.743 126.811 359.646 127.242 359.646 127.75ZM371.46 124.273V125.409H366.938V124.273H371.46ZM368.256 122.182H369.597V130.5C369.597 130.879 369.652 131.163 369.761 131.352C369.875 131.538 370.019 131.663 370.193 131.727C370.371 131.788 370.559 131.818 370.756 131.818C370.903 131.818 371.025 131.811 371.119 131.795C371.214 131.777 371.29 131.761 371.347 131.75L371.619 132.955C371.528 132.989 371.402 133.023 371.239 133.057C371.076 133.095 370.869 133.114 370.619 133.114C370.241 133.114 369.869 133.032 369.506 132.869C369.146 132.706 368.847 132.458 368.608 132.125C368.373 131.792 368.256 131.371 368.256 130.864V122.182Z" fill="black"/>
<path d="M405.092 127.854C404.169 130.651 405.688 133.667 408.485 134.59C411.282 135.513 414.298 133.994 415.221 131.197C416.144 128.4 414.625 125.384 411.828 124.461C409.031 123.537 406.015 125.057 405.092 127.854ZM708.092 227.854C707.169 230.651 708.688 233.667 711.485 234.59C714.282 235.513 717.298 233.994 718.221 231.197C719.144 228.4 717.625 225.384 714.828 224.461C712.031 223.537 709.015 225.057 708.092 227.854ZM605.416 114.365L605.493 115.362L605.416 114.365ZM713.157 214.065L712.157 214.065L713.157 214.065ZM410.234 130.522L412.268 130.364L412.113 128.37L410.079 128.528L410.234 130.522ZM416.336 130.048L420.404 129.733L420.249 127.739L416.181 128.054L416.336 130.048ZM424.472 129.417L428.539 129.101L428.385 127.107L424.317 127.423L424.472 129.417ZM432.607 128.785L436.675 128.469L436.52 126.475L432.453 126.791L432.607 128.785ZM440.743 128.153L444.811 127.838L444.656 125.844L440.588 126.159L440.743 128.153ZM448.879 127.522L452.947 127.206L452.792 125.212L448.724 125.528L448.879 127.522ZM457.015 126.89L461.083 126.574L460.928 124.58L456.86 124.896L457.015 126.89ZM465.151 126.258L469.219 125.943L469.064 123.949L464.996 124.264L465.151 126.258ZM473.286 125.627L477.354 125.311L477.199 123.317L473.132 123.633L473.286 125.627ZM481.422 124.995L485.49 124.679L485.335 122.685L481.267 123.001L481.422 124.995ZM489.558 124.363L493.626 124.048L493.471 122.054L489.403 122.369L489.558 124.363ZM497.694 123.732L501.762 123.416L501.607 121.422L497.539 121.738L497.694 123.732ZM505.83 123.1L509.898 122.784L509.743 120.79L505.675 121.106L505.83 123.1ZM513.965 122.468L518.033 122.153L517.879 120.159L513.811 120.474L513.965 122.468ZM522.101 121.837L526.169 121.521L526.014 119.527L521.946 119.843L522.101 121.837ZM530.237 121.205L534.305 120.889L534.15 118.895L530.082 119.211L530.237 121.205ZM538.373 120.573L542.441 120.258L542.286 118.264L538.218 118.579L538.373 120.573ZM546.509 119.942L550.577 119.626L550.422 117.632L546.354 117.948L546.509 119.942ZM554.644 119.31L558.712 118.994L558.558 117L554.49 117.316L554.644 119.31ZM562.78 118.678L566.848 118.363L566.693 116.369L562.625 116.684L562.78 118.678ZM570.916 118.047L574.984 117.731L574.829 115.737L570.761 116.053L570.916 118.047ZM579.052 117.415L583.12 117.099L582.965 115.105L578.897 115.421L579.052 117.415ZM587.188 116.783L591.256 116.468L591.101 114.474L587.033 114.789L587.188 116.783ZM595.323 116.152L599.391 115.836L599.236 113.842L595.169 114.158L595.323 116.152ZM603.459 115.52L605.493 115.362L605.338 113.368L603.304 113.526L603.459 115.52ZM605.493 115.362C606.143 115.312 606.792 115.268 607.44 115.23L607.324 113.233C606.663 113.272 606.001 113.317 605.338 113.368L605.493 115.362ZM611.318 115.078C612.619 115.053 613.916 115.053 615.206 115.077L615.245 113.078C613.928 113.052 612.606 113.053 611.279 113.079L611.318 115.078ZM619.091 115.228C620.388 115.304 621.679 115.405 622.963 115.531L623.158 113.54C621.848 113.412 620.531 113.309 619.208 113.231L619.091 115.228ZM626.818 115.985C628.106 116.163 629.386 116.365 630.658 116.593L631.01 114.624C629.712 114.392 628.405 114.185 627.092 114.004L626.818 115.985ZM634.47 117.351C635.738 117.63 636.997 117.933 638.246 118.26L638.753 116.325C637.477 115.991 636.193 115.682 634.899 115.398L634.47 117.351ZM641.983 119.317C643.224 119.695 644.456 120.097 645.677 120.522L646.335 118.633C645.089 118.199 643.832 117.789 642.565 117.403L641.983 119.317ZM649.321 121.872C650.529 122.347 651.724 122.845 652.908 123.365L653.713 121.534C652.505 121.003 651.285 120.495 650.053 120.011L649.321 121.872ZM656.433 124.998C657.599 125.566 658.752 126.156 659.891 126.768L660.838 125.006C659.675 124.381 658.498 123.779 657.309 123.2L656.433 124.998ZM663.279 128.673C664.396 129.331 665.499 130.01 666.588 130.709L667.669 129.027C666.559 128.313 665.433 127.62 664.293 126.95L663.279 128.673ZM669.815 132.873C670.877 133.616 671.924 134.379 672.956 135.161L674.165 133.568C673.113 132.77 672.045 131.992 670.961 131.234L669.815 132.873ZM676.005 137.571C677.005 138.394 677.99 139.236 678.957 140.097L680.287 138.603C679.3 137.725 678.296 136.865 677.275 136.026L676.005 137.571ZM681.809 142.736C682.743 143.634 683.659 144.55 684.556 145.484L685.998 144.098C685.082 143.146 684.148 142.211 683.196 141.295L681.809 142.736ZM687.195 148.338C688.055 149.305 688.896 150.29 689.719 151.291L691.264 150.022C690.425 149.001 689.567 147.996 688.689 147.009L687.195 148.338ZM692.126 154.341C692.908 155.373 693.67 156.42 694.412 157.483L696.052 156.338C695.295 155.254 694.518 154.186 693.72 153.133L692.126 154.341ZM696.574 160.713C697.273 161.802 697.95 162.906 698.607 164.024L700.332 163.011C699.662 161.871 698.97 160.744 698.258 159.633L696.574 160.713ZM700.507 167.412C701.118 168.552 701.707 169.706 702.273 170.872L704.072 169.999C703.494 168.808 702.893 167.631 702.271 166.468L700.507 167.412ZM703.902 174.401C704.42 175.586 704.916 176.782 705.389 177.991L707.252 177.262C706.769 176.029 706.263 174.808 705.734 173.599L703.902 174.401ZM706.732 181.634C707.155 182.855 707.555 184.087 707.93 185.329L709.845 184.75C709.461 183.483 709.053 182.226 708.622 180.98L706.732 181.634ZM708.982 189.071C709.307 190.322 709.608 191.582 709.885 192.852L711.839 192.426C711.556 191.131 711.249 189.844 710.918 188.568L708.982 189.071ZM710.636 196.66C710.861 197.931 711.062 199.21 711.238 200.498L713.219 200.227C713.04 198.913 712.835 197.608 712.606 196.312L710.636 196.66ZM711.689 204.359C711.813 205.644 711.913 206.936 711.988 208.236L713.985 208.12C713.908 206.795 713.806 205.477 713.679 204.166L711.689 204.359ZM712.138 212.114C712.15 212.763 712.157 213.413 712.157 214.065L714.157 214.065C714.157 213.4 714.15 212.737 714.137 212.075L712.138 212.114ZM712.157 214.065L712.157 215.998L714.157 215.998L714.157 214.065L712.157 214.065ZM712.157 219.863L712.157 223.728L714.157 223.728L714.157 219.863L712.157 219.863ZM712.157 227.593L712.157 229.525L714.157 229.525L714.157 227.593L712.157 227.593Z" fill="black"/>
<path d="M351.559 148.232C350.03 145.714 346.75 144.912 344.232 146.441C341.714 147.97 340.912 151.25 342.441 153.768C343.97 156.286 347.25 157.088 349.768 155.559C352.286 154.03 353.088 150.75 351.559 148.232ZM255.559 225.232C254.03 222.714 250.75 221.912 248.232 223.441C245.714 224.97 244.912 228.25 246.441 230.768C247.97 233.286 251.25 234.088 253.768 232.559C256.286 231.03 257.088 227.75 255.559 225.232ZM346.374 150.22L344.774 151.503L346.026 153.063L347.626 151.78L346.374 150.22ZM341.574 154.07L338.374 156.637L339.626 158.197L342.826 155.63L341.574 154.07ZM335.174 159.203L331.974 161.77L333.226 163.33L336.426 160.763L335.174 159.203ZM328.774 164.337L325.574 166.903L326.826 168.463L330.026 165.897L328.774 164.337ZM322.374 169.47L319.174 172.037L320.426 173.597L323.626 171.03L322.374 169.47ZM315.974 174.603L312.774 177.17L314.026 178.73L317.226 176.163L315.974 174.603ZM309.574 179.737L306.374 182.303L307.626 183.863L310.826 181.297L309.574 179.737ZM303.174 184.87L299.974 187.437L301.226 188.997L304.426 186.43L303.174 184.87ZM296.774 190.003L293.574 192.57L294.826 194.13L298.026 191.563L296.774 190.003ZM290.374 195.137L287.174 197.703L288.426 199.263L291.626 196.697L290.374 195.137ZM283.974 200.27L280.774 202.837L282.026 204.397L285.226 201.83L283.974 200.27ZM277.574 205.403L274.374 207.97L275.626 209.53L278.826 206.963L277.574 205.403ZM271.174 210.537L267.974 213.103L269.226 214.663L272.426 212.097L271.174 210.537ZM264.774 215.67L261.574 218.237L262.826 219.797L266.026 217.23L264.774 215.67ZM258.374 220.803L255.174 223.37L256.426 224.93L259.626 222.363L258.374 220.803ZM251.974 225.937L250.374 227.22L251.626 228.78L253.226 227.497L251.974 225.937Z" fill="black"/>
<rect x="171" y="229" width="157" height="48" stroke="black" stroke-width="2"/>
<path d="M222.523 258.182C221.795 258.182 221.153 257.998 220.597 257.631C220.04 257.259 219.604 256.737 219.29 256.062C218.975 255.384 218.818 254.583 218.818 253.659C218.818 252.742 218.975 251.947 219.29 251.273C219.604 250.598 220.042 250.078 220.602 249.71C221.163 249.343 221.811 249.159 222.545 249.159C223.114 249.159 223.563 249.254 223.892 249.443C224.225 249.629 224.479 249.841 224.653 250.08C224.831 250.314 224.97 250.508 225.068 250.659H225.182V246.364H226.523V258H225.227V256.659H225.068C224.97 256.818 224.83 257.019 224.648 257.261C224.466 257.5 224.206 257.714 223.869 257.903C223.532 258.089 223.083 258.182 222.523 258.182ZM222.705 256.977C223.242 256.977 223.697 256.837 224.068 256.557C224.439 256.273 224.722 255.881 224.915 255.381C225.108 254.877 225.205 254.295 225.205 253.636C225.205 252.985 225.11 252.415 224.92 251.926C224.731 251.434 224.451 251.051 224.08 250.778C223.708 250.502 223.25 250.364 222.705 250.364C222.136 250.364 221.663 250.509 221.284 250.801C220.909 251.089 220.627 251.481 220.438 251.977C220.252 252.47 220.159 253.023 220.159 253.636C220.159 254.258 220.254 254.822 220.443 255.33C220.636 255.833 220.92 256.235 221.295 256.534C221.674 256.83 222.144 256.977 222.705 256.977ZM232.824 258.182C231.983 258.182 231.258 257.996 230.648 257.625C230.042 257.25 229.574 256.727 229.244 256.057C228.919 255.383 228.756 254.598 228.756 253.705C228.756 252.811 228.919 252.023 229.244 251.341C229.574 250.655 230.032 250.121 230.619 249.739C231.21 249.352 231.9 249.159 232.688 249.159C233.142 249.159 233.591 249.235 234.034 249.386C234.477 249.538 234.881 249.784 235.244 250.125C235.608 250.462 235.898 250.909 236.114 251.466C236.33 252.023 236.438 252.708 236.438 253.523V254.091H229.71V252.932H235.074C235.074 252.439 234.975 252 234.778 251.614C234.585 251.227 234.309 250.922 233.949 250.699C233.593 250.475 233.172 250.364 232.688 250.364C232.153 250.364 231.691 250.496 231.301 250.761C230.915 251.023 230.617 251.364 230.409 251.784C230.201 252.205 230.097 252.655 230.097 253.136V253.909C230.097 254.568 230.21 255.127 230.438 255.585C230.669 256.04 230.989 256.386 231.398 256.625C231.807 256.86 232.282 256.977 232.824 256.977C233.176 256.977 233.494 256.928 233.778 256.83C234.066 256.727 234.314 256.576 234.523 256.375C234.731 256.17 234.892 255.917 235.006 255.614L236.301 255.977C236.165 256.417 235.936 256.803 235.614 257.136C235.292 257.466 234.894 257.723 234.42 257.909C233.947 258.091 233.415 258.182 232.824 258.182ZM245.348 249.273L242.121 258H240.757L237.53 249.273H238.984L241.393 256.227H241.484L243.893 249.273H245.348ZM247.118 258V249.273H248.459V258H247.118ZM247.8 247.818C247.538 247.818 247.313 247.729 247.124 247.551C246.938 247.373 246.845 247.159 246.845 246.909C246.845 246.659 246.938 246.445 247.124 246.267C247.313 246.089 247.538 246 247.8 246C248.061 246 248.285 246.089 248.47 246.267C248.66 246.445 248.754 246.659 248.754 246.909C248.754 247.159 248.66 247.373 248.47 247.551C248.285 247.729 248.061 247.818 247.8 247.818ZM254.46 258.182C253.642 258.182 252.938 257.989 252.347 257.602C251.756 257.216 251.301 256.684 250.983 256.006C250.665 255.328 250.506 254.553 250.506 253.682C250.506 252.795 250.669 252.013 250.994 251.335C251.324 250.653 251.782 250.121 252.369 249.739C252.96 249.352 253.65 249.159 254.438 249.159C255.051 249.159 255.604 249.273 256.097 249.5C256.589 249.727 256.992 250.045 257.307 250.455C257.621 250.864 257.816 251.341 257.892 251.886H256.551C256.449 251.489 256.222 251.136 255.869 250.83C255.521 250.519 255.051 250.364 254.46 250.364C253.938 250.364 253.479 250.5 253.085 250.773C252.695 251.042 252.39 251.422 252.17 251.915C251.955 252.403 251.847 252.977 251.847 253.636C251.847 254.311 251.953 254.898 252.165 255.398C252.381 255.898 252.684 256.286 253.074 256.562C253.468 256.839 253.93 256.977 254.46 256.977C254.809 256.977 255.125 256.917 255.409 256.795C255.693 256.674 255.934 256.5 256.131 256.273C256.328 256.045 256.468 255.773 256.551 255.455H257.892C257.816 255.97 257.629 256.434 257.33 256.847C257.034 257.256 256.642 257.581 256.153 257.824C255.669 258.062 255.104 258.182 254.46 258.182ZM263.511 258.182C262.67 258.182 261.945 257.996 261.335 257.625C260.729 257.25 260.261 256.727 259.932 256.057C259.606 255.383 259.443 254.598 259.443 253.705C259.443 252.811 259.606 252.023 259.932 251.341C260.261 250.655 260.72 250.121 261.307 249.739C261.898 249.352 262.587 249.159 263.375 249.159C263.83 249.159 264.278 249.235 264.722 249.386C265.165 249.538 265.568 249.784 265.932 250.125C266.295 250.462 266.585 250.909 266.801 251.466C267.017 252.023 267.125 252.708 267.125 253.523V254.091H260.398V252.932H265.761C265.761 252.439 265.663 252 265.466 251.614C265.273 251.227 264.996 250.922 264.636 250.699C264.28 250.475 263.86 250.364 263.375 250.364C262.841 250.364 262.379 250.496 261.989 250.761C261.602 251.023 261.305 251.364 261.097 251.784C260.888 252.205 260.784 252.655 260.784 253.136V253.909C260.784 254.568 260.898 255.127 261.125 255.585C261.356 256.04 261.676 256.386 262.085 256.625C262.494 256.86 262.97 256.977 263.511 256.977C263.864 256.977 264.182 256.928 264.466 256.83C264.754 256.727 265.002 256.576 265.21 256.375C265.419 256.17 265.58 255.917 265.693 255.614L266.989 255.977C266.852 256.417 266.623 256.803 266.301 257.136C265.979 257.466 265.581 257.723 265.108 257.909C264.634 258.091 264.102 258.182 263.511 258.182ZM277.733 246.364V258H276.324V247.841H276.256L273.415 249.727V248.295L276.324 246.364H277.733Z" fill="black"/>
<path d="M250 272.667C247.054 272.667 244.667 275.054 244.667 278C244.667 280.946 247.054 283.333 250 283.333C252.946 283.333 255.333 280.946 255.333 278C255.333 275.054 252.946 272.667 250 272.667ZM250 322.667C247.054 322.667 244.667 325.054 244.667 328C244.667 330.946 247.054 333.333 250 333.333C252.946 333.333 255.333 330.946 255.333 328C255.333 325.054 252.946 322.667 250 322.667ZM249 278V328H251V278H249Z" fill="black"/>
<rect x="171" y="329" width="157" height="49" stroke="black" stroke-width="2"/>
<path d="M221.523 359.182C220.795 359.182 220.153 358.998 219.597 358.631C219.04 358.259 218.604 357.737 218.29 357.062C217.975 356.384 217.818 355.583 217.818 354.659C217.818 353.742 217.975 352.947 218.29 352.273C218.604 351.598 219.042 351.078 219.602 350.71C220.163 350.343 220.811 350.159 221.545 350.159C222.114 350.159 222.563 350.254 222.892 350.443C223.225 350.629 223.479 350.841 223.653 351.08C223.831 351.314 223.97 351.508 224.068 351.659H224.182V347.364H225.523V359H224.227V357.659H224.068C223.97 357.818 223.83 358.019 223.648 358.261C223.466 358.5 223.206 358.714 222.869 358.903C222.532 359.089 222.083 359.182 221.523 359.182ZM221.705 357.977C222.242 357.977 222.697 357.837 223.068 357.557C223.439 357.273 223.722 356.881 223.915 356.381C224.108 355.877 224.205 355.295 224.205 354.636C224.205 353.985 224.11 353.415 223.92 352.926C223.731 352.434 223.451 352.051 223.08 351.778C222.708 351.502 222.25 351.364 221.705 351.364C221.136 351.364 220.663 351.509 220.284 351.801C219.909 352.089 219.627 352.481 219.438 352.977C219.252 353.47 219.159 354.023 219.159 354.636C219.159 355.258 219.254 355.822 219.443 356.33C219.636 356.833 219.92 357.235 220.295 357.534C220.674 357.83 221.144 357.977 221.705 357.977ZM231.824 359.182C230.983 359.182 230.258 358.996 229.648 358.625C229.042 358.25 228.574 357.727 228.244 357.057C227.919 356.383 227.756 355.598 227.756 354.705C227.756 353.811 227.919 353.023 228.244 352.341C228.574 351.655 229.032 351.121 229.619 350.739C230.21 350.352 230.9 350.159 231.688 350.159C232.142 350.159 232.591 350.235 233.034 350.386C233.477 350.538 233.881 350.784 234.244 351.125C234.608 351.462 234.898 351.909 235.114 352.466C235.33 353.023 235.438 353.708 235.438 354.523V355.091H228.71V353.932H234.074C234.074 353.439 233.975 353 233.778 352.614C233.585 352.227 233.309 351.922 232.949 351.699C232.593 351.475 232.172 351.364 231.688 351.364C231.153 351.364 230.691 351.496 230.301 351.761C229.915 352.023 229.617 352.364 229.409 352.784C229.201 353.205 229.097 353.655 229.097 354.136V354.909C229.097 355.568 229.21 356.127 229.438 356.585C229.669 357.04 229.989 357.386 230.398 357.625C230.807 357.86 231.282 357.977 231.824 357.977C232.176 357.977 232.494 357.928 232.778 357.83C233.066 357.727 233.314 357.576 233.523 357.375C233.731 357.17 233.892 356.917 234.006 356.614L235.301 356.977C235.165 357.417 234.936 357.803 234.614 358.136C234.292 358.466 233.894 358.723 233.42 358.909C232.947 359.091 232.415 359.182 231.824 359.182ZM244.348 350.273L241.121 359H239.757L236.53 350.273H237.984L240.393 357.227H240.484L242.893 350.273H244.348ZM246.118 359V350.273H247.459V359H246.118ZM246.8 348.818C246.538 348.818 246.313 348.729 246.124 348.551C245.938 348.373 245.845 348.159 245.845 347.909C245.845 347.659 245.938 347.445 246.124 347.267C246.313 347.089 246.538 347 246.8 347C247.061 347 247.285 347.089 247.47 347.267C247.66 347.445 247.754 347.659 247.754 347.909C247.754 348.159 247.66 348.373 247.47 348.551C247.285 348.729 247.061 348.818 246.8 348.818ZM253.46 359.182C252.642 359.182 251.938 358.989 251.347 358.602C250.756 358.216 250.301 357.684 249.983 357.006C249.665 356.328 249.506 355.553 249.506 354.682C249.506 353.795 249.669 353.013 249.994 352.335C250.324 351.653 250.782 351.121 251.369 350.739C251.96 350.352 252.65 350.159 253.438 350.159C254.051 350.159 254.604 350.273 255.097 350.5C255.589 350.727 255.992 351.045 256.307 351.455C256.621 351.864 256.816 352.341 256.892 352.886H255.551C255.449 352.489 255.222 352.136 254.869 351.83C254.521 351.519 254.051 351.364 253.46 351.364C252.938 351.364 252.479 351.5 252.085 351.773C251.695 352.042 251.39 352.422 251.17 352.915C250.955 353.403 250.847 353.977 250.847 354.636C250.847 355.311 250.953 355.898 251.165 356.398C251.381 356.898 251.684 357.286 252.074 357.562C252.468 357.839 252.93 357.977 253.46 357.977C253.809 357.977 254.125 357.917 254.409 357.795C254.693 357.674 254.934 357.5 255.131 357.273C255.328 357.045 255.468 356.773 255.551 356.455H256.892C256.816 356.97 256.629 357.434 256.33 357.847C256.034 358.256 255.642 358.581 255.153 358.824C254.669 359.062 254.104 359.182 253.46 359.182ZM262.511 359.182C261.67 359.182 260.945 358.996 260.335 358.625C259.729 358.25 259.261 357.727 258.932 357.057C258.606 356.383 258.443 355.598 258.443 354.705C258.443 353.811 258.606 353.023 258.932 352.341C259.261 351.655 259.72 351.121 260.307 350.739C260.898 350.352 261.587 350.159 262.375 350.159C262.83 350.159 263.278 350.235 263.722 350.386C264.165 350.538 264.568 350.784 264.932 351.125C265.295 351.462 265.585 351.909 265.801 352.466C266.017 353.023 266.125 353.708 266.125 354.523V355.091H259.398V353.932H264.761C264.761 353.439 264.663 353 264.466 352.614C264.273 352.227 263.996 351.922 263.636 351.699C263.28 351.475 262.86 351.364 262.375 351.364C261.841 351.364 261.379 351.496 260.989 351.761C260.602 352.023 260.305 352.364 260.097 352.784C259.888 353.205 259.784 353.655 259.784 354.136V354.909C259.784 355.568 259.898 356.127 260.125 356.585C260.356 357.04 260.676 357.386 261.085 357.625C261.494 357.86 261.97 357.977 262.511 357.977C262.864 357.977 263.182 357.928 263.466 357.83C263.754 357.727 264.002 357.576 264.21 357.375C264.419 357.17 264.58 356.917 264.693 356.614L265.989 356.977C265.852 357.417 265.623 357.803 265.301 358.136C264.979 358.466 264.581 358.723 264.108 358.909C263.634 359.091 263.102 359.182 262.511 359.182ZM272.642 359V357.977L276.483 353.773C276.934 353.28 277.305 352.852 277.597 352.489C277.888 352.121 278.104 351.777 278.244 351.455C278.388 351.129 278.46 350.788 278.46 350.432C278.46 350.023 278.362 349.669 278.165 349.369C277.972 349.07 277.706 348.839 277.369 348.676C277.032 348.513 276.653 348.432 276.233 348.432C275.786 348.432 275.396 348.525 275.062 348.71C274.733 348.892 274.477 349.148 274.295 349.477C274.117 349.807 274.028 350.193 274.028 350.636H272.688C272.688 349.955 272.845 349.356 273.159 348.841C273.473 348.326 273.902 347.924 274.443 347.636C274.989 347.348 275.6 347.205 276.278 347.205C276.96 347.205 277.564 347.348 278.091 347.636C278.617 347.924 279.03 348.312 279.33 348.801C279.629 349.29 279.778 349.833 279.778 350.432C279.778 350.86 279.701 351.278 279.545 351.688C279.394 352.093 279.129 352.545 278.75 353.045C278.375 353.542 277.854 354.148 277.188 354.864L274.574 357.659V357.75H279.983V359H272.642Z" fill="black"/>
<path d="M91.8295 93H89.6136L96.0227 75.5455H98.2045L104.614 93H102.398L97.1818 78.3068H97.0455L91.8295 93ZM92.6477 86.1818H101.58V88.0568H92.6477V86.1818ZM109.071 75.5455V93H107.06V75.5455H109.071ZM112.755 93V79.9091H114.766V93H112.755ZM113.778 77.7273C113.386 77.7273 113.048 77.5938 112.763 77.3267C112.485 77.0597 112.346 76.7386 112.346 76.3636C112.346 75.9886 112.485 75.6676 112.763 75.4006C113.048 75.1335 113.386 75 113.778 75C114.17 75 114.505 75.1335 114.783 75.4006C115.067 75.6676 115.21 75.9886 115.21 76.3636C115.21 76.7386 115.067 77.0597 114.783 77.3267C114.505 77.5938 114.17 77.7273 113.778 77.7273ZM123.768 93.2727C122.541 93.2727 121.484 92.983 120.598 92.4034C119.712 91.8239 119.03 91.0256 118.553 90.0085C118.075 88.9915 117.837 87.8295 117.837 86.5227C117.837 85.1932 118.081 84.0199 118.57 83.0028C119.064 81.9801 119.751 81.1818 120.632 80.608C121.518 80.0284 122.553 79.7386 123.734 79.7386C124.655 79.7386 125.484 79.9091 126.223 80.25C126.962 80.5909 127.567 81.0682 128.038 81.6818C128.51 82.2955 128.803 83.0114 128.916 83.8295H126.905C126.751 83.233 126.411 82.7045 125.882 82.2443C125.359 81.7784 124.655 81.5455 123.768 81.5455C122.984 81.5455 122.297 81.75 121.706 82.1591C121.121 82.5625 120.663 83.1335 120.334 83.8722C120.01 84.6051 119.848 85.4659 119.848 86.4545C119.848 87.4659 120.007 88.3466 120.325 89.0966C120.649 89.8466 121.104 90.429 121.689 90.8438C122.28 91.2585 122.973 91.4659 123.768 91.4659C124.291 91.4659 124.766 91.375 125.192 91.1932C125.618 91.0114 125.979 90.75 126.274 90.4091C126.57 90.0682 126.78 89.6591 126.905 89.1818H128.916C128.803 89.9545 128.521 90.6506 128.072 91.2699C127.629 91.8835 127.041 92.3722 126.308 92.7358C125.581 93.0938 124.734 93.2727 123.768 93.2727ZM137.345 93.2727C136.084 93.2727 134.996 92.9943 134.081 92.4375C133.172 91.875 132.47 91.0909 131.976 90.0852C131.487 89.0739 131.243 87.8977 131.243 86.5568C131.243 85.2159 131.487 84.0341 131.976 83.0114C132.47 81.983 133.158 81.1818 134.038 80.608C134.925 80.0284 135.959 79.7386 137.141 79.7386C137.822 79.7386 138.496 79.8523 139.161 80.0795C139.825 80.3068 140.43 80.6761 140.976 81.1875C141.521 81.6932 141.956 82.3636 142.28 83.1989C142.604 84.0341 142.766 85.0625 142.766 86.2841V87.1364H132.675V85.3977H140.72C140.72 84.6591 140.572 84 140.277 83.4205C139.987 82.8409 139.572 82.3835 139.033 82.0483C138.499 81.7131 137.868 81.5455 137.141 81.5455C136.339 81.5455 135.646 81.7443 135.061 82.142C134.482 82.5341 134.036 83.0455 133.723 83.6761C133.411 84.3068 133.254 84.983 133.254 85.7045V86.8636C133.254 87.8523 133.425 88.6903 133.766 89.3778C134.112 90.0597 134.592 90.5795 135.206 90.9375C135.82 91.2898 136.533 91.4659 137.345 91.4659C137.874 91.4659 138.351 91.392 138.777 91.2443C139.209 91.0909 139.581 90.8636 139.893 90.5625C140.206 90.2557 140.447 89.875 140.618 89.4205L142.561 89.9659C142.357 90.625 142.013 91.2045 141.53 91.7045C141.047 92.1989 140.45 92.5852 139.74 92.8636C139.03 93.1364 138.232 93.2727 137.345 93.2727ZM147.598 75.5455V77.0795C147.598 77.5455 147.513 78.0426 147.342 78.571C147.178 79.0938 146.933 79.6023 146.609 80.0966C146.291 80.5852 145.905 81.0114 145.45 81.375L144.359 80.4886C144.717 79.9773 145.027 79.446 145.288 78.8949C145.555 78.3381 145.689 77.7443 145.689 77.1136V75.5455H147.598ZM157.676 82.8409L155.869 83.3523C155.756 83.0511 155.588 82.7585 155.366 82.4744C155.151 82.1847 154.855 81.946 154.48 81.7585C154.105 81.571 153.625 81.4773 153.04 81.4773C152.239 81.4773 151.571 81.6619 151.037 82.0312C150.509 82.3949 150.244 82.858 150.244 83.4205C150.244 83.9205 150.426 84.3153 150.79 84.6051C151.153 84.8949 151.722 85.1364 152.494 85.3295L154.438 85.8068C155.608 86.0909 156.48 86.5256 157.054 87.1108C157.628 87.6903 157.915 88.4375 157.915 89.3523C157.915 90.1023 157.699 90.7727 157.267 91.3636C156.841 91.9545 156.244 92.4205 155.477 92.7614C154.71 93.1023 153.818 93.2727 152.801 93.2727C151.466 93.2727 150.361 92.983 149.486 92.4034C148.611 91.8239 148.057 90.9773 147.824 89.8636L149.733 89.3864C149.915 90.0909 150.259 90.6193 150.764 90.9716C151.276 91.3239 151.943 91.5 152.767 91.5C153.705 91.5 154.449 91.3011 155 90.9034C155.557 90.5 155.835 90.017 155.835 89.4545C155.835 89 155.676 88.6193 155.358 88.3125C155.04 88 154.551 87.767 153.892 87.6136L151.71 87.1023C150.511 86.8182 149.631 86.3778 149.068 85.7812C148.511 85.179 148.233 84.4261 148.233 83.5227C148.233 82.7841 148.44 82.1307 148.855 81.5625C149.276 80.9943 149.847 80.5483 150.568 80.2244C151.295 79.9006 152.119 79.7386 153.04 79.7386C154.335 79.7386 155.352 80.0227 156.091 80.5909C156.835 81.1591 157.364 81.9091 157.676 82.8409ZM167.692 93V79.9091H169.704V93H167.692ZM168.715 77.7273C168.323 77.7273 167.985 77.5938 167.701 77.3267C167.423 77.0597 167.283 76.7386 167.283 76.3636C167.283 75.9886 167.423 75.6676 167.701 75.4006C167.985 75.1335 168.323 75 168.715 75C169.107 75 169.442 75.1335 169.721 75.4006C170.005 75.6676 170.147 75.9886 170.147 76.3636C170.147 76.7386 170.005 77.0597 169.721 77.3267C169.442 77.5938 169.107 77.7273 168.715 77.7273ZM178.331 93.2727C177.24 93.2727 176.277 92.9972 175.442 92.446C174.607 91.8892 173.953 91.1051 173.482 90.0938C173.01 89.0767 172.774 87.875 172.774 86.4886C172.774 85.1136 173.01 83.9205 173.482 82.9091C173.953 81.8977 174.609 81.1165 175.45 80.5653C176.291 80.0142 177.263 79.7386 178.365 79.7386C179.217 79.7386 179.891 79.8807 180.385 80.1648C180.885 80.4432 181.266 80.7614 181.527 81.1193C181.794 81.4716 182.001 81.7614 182.149 81.9886H182.32V75.5455H184.331V93H182.388V90.9886H182.149C182.001 91.2273 181.791 91.5284 181.518 91.892C181.246 92.25 180.857 92.571 180.351 92.8551C179.845 93.1335 179.172 93.2727 178.331 93.2727ZM178.604 91.4659C179.411 91.4659 180.092 91.2557 180.649 90.8352C181.206 90.4091 181.629 89.821 181.919 89.071C182.209 88.3153 182.354 87.4432 182.354 86.4545C182.354 85.4773 182.212 84.6222 181.928 83.8892C181.643 83.1506 181.223 82.5767 180.666 82.1676C180.109 81.7528 179.422 81.5455 178.604 81.5455C177.751 81.5455 177.041 81.7642 176.473 82.2017C175.911 82.6335 175.487 83.2216 175.203 83.9659C174.925 84.7045 174.786 85.5341 174.786 86.4545C174.786 87.3864 174.928 88.233 175.212 88.9943C175.501 89.75 175.928 90.3523 176.49 90.8011C177.058 91.2443 177.763 91.4659 178.604 91.4659ZM193.783 93.2727C192.521 93.2727 191.433 92.9943 190.518 92.4375C189.609 91.875 188.908 91.0909 188.413 90.0852C187.925 89.0739 187.68 87.8977 187.68 86.5568C187.68 85.2159 187.925 84.0341 188.413 83.0114C188.908 81.983 189.595 81.1818 190.476 80.608C191.362 80.0284 192.396 79.7386 193.578 79.7386C194.26 79.7386 194.933 79.8523 195.598 80.0795C196.263 80.3068 196.868 80.6761 197.413 81.1875C197.959 81.6932 198.393 82.3636 198.717 83.1989C199.041 84.0341 199.203 85.0625 199.203 86.2841V87.1364H189.112V85.3977H197.158C197.158 84.6591 197.01 84 196.714 83.4205C196.425 82.8409 196.01 82.3835 195.47 82.0483C194.936 81.7131 194.305 81.5455 193.578 81.5455C192.777 81.5455 192.084 81.7443 191.499 82.142C190.919 82.5341 190.473 83.0455 190.161 83.6761C189.848 84.3068 189.692 84.983 189.692 85.7045V86.8636C189.692 87.8523 189.862 88.6903 190.203 89.3778C190.55 90.0597 191.03 90.5795 191.643 90.9375C192.257 91.2898 192.97 91.4659 193.783 91.4659C194.311 91.4659 194.788 91.392 195.214 91.2443C195.646 91.0909 196.018 90.8636 196.331 90.5625C196.643 90.2557 196.885 89.875 197.055 89.4205L198.999 89.9659C198.794 90.625 198.45 91.2045 197.967 91.7045C197.484 92.1989 196.888 92.5852 196.178 92.8636C195.467 93.1364 194.669 93.2727 193.783 93.2727ZM204.274 85.125V93H202.263V79.9091H204.206V81.9545H204.376C204.683 81.2898 205.149 80.7557 205.774 80.3523C206.399 79.9432 207.206 79.7386 208.195 79.7386C209.081 79.7386 209.857 79.9205 210.521 80.2841C211.186 80.642 211.703 81.1875 212.072 81.9205C212.442 82.6477 212.626 83.5682 212.626 84.6818V93H210.615V84.8182C210.615 83.7898 210.348 82.9886 209.814 82.4148C209.28 81.8352 208.547 81.5455 207.615 81.5455C206.973 81.5455 206.399 81.6847 205.893 81.9631C205.393 82.2415 204.999 82.6477 204.709 83.1818C204.419 83.7159 204.274 84.3636 204.274 85.125ZM221.995 79.9091V81.6136H215.211V79.9091H221.995ZM217.188 76.7727H219.2V89.25C219.2 89.8182 219.282 90.2443 219.447 90.5284C219.617 90.8068 219.833 90.9943 220.094 91.0909C220.362 91.1818 220.643 91.2273 220.938 91.2273C221.16 91.2273 221.342 91.2159 221.484 91.1932C221.626 91.1648 221.739 91.142 221.825 91.125L222.234 92.9318C222.097 92.983 221.907 93.0341 221.663 93.0852C221.418 93.142 221.109 93.1705 220.734 93.1705C220.165 93.1705 219.609 93.0483 219.063 92.804C218.523 92.5597 218.075 92.1875 217.717 91.6875C217.364 91.1875 217.188 90.5568 217.188 89.7955V76.7727ZM225.021 93V79.9091H227.032V93H225.021ZM226.043 77.7273C225.651 77.7273 225.313 77.5938 225.029 77.3267C224.751 77.0597 224.612 76.7386 224.612 76.3636C224.612 75.9886 224.751 75.6676 225.029 75.4006C225.313 75.1335 225.651 75 226.043 75C226.435 75 226.771 75.1335 227.049 75.4006C227.333 75.6676 227.475 75.9886 227.475 76.3636C227.475 76.7386 227.333 77.0597 227.049 77.3267C226.771 77.5938 226.435 77.7273 226.043 77.7273ZM236.409 79.9091V81.6136H229.625V79.9091H236.409ZM231.602 76.7727H233.614V89.25C233.614 89.8182 233.696 90.2443 233.861 90.5284C234.031 90.8068 234.247 90.9943 234.509 91.0909C234.776 91.1818 235.057 91.2273 235.352 91.2273C235.574 91.2273 235.756 91.2159 235.898 91.1932C236.04 91.1648 236.153 91.142 236.239 91.125L236.648 92.9318C236.511 92.983 236.321 93.0341 236.077 93.0852C235.832 93.142 235.523 93.1705 235.148 93.1705C234.58 93.1705 234.023 93.0483 233.477 92.804C232.938 92.5597 232.489 92.1875 232.131 91.6875C231.778 91.1875 231.602 90.5568 231.602 89.7955V76.7727ZM240.73 97.9091C240.389 97.9091 240.085 97.8807 239.818 97.8239C239.551 97.7727 239.366 97.7216 239.264 97.6705L239.776 95.8977C240.264 96.0227 240.696 96.0682 241.071 96.0341C241.446 96 241.778 95.8324 242.068 95.5312C242.364 95.2358 242.634 94.7557 242.878 94.0909L243.253 93.0682L238.412 79.9091H240.594L244.207 90.3409H244.344L247.957 79.9091H250.139L244.582 94.9091C244.332 95.5852 244.023 96.1449 243.653 96.5881C243.284 97.0369 242.855 97.3693 242.366 97.5852C241.884 97.8011 241.338 97.9091 240.73 97.9091Z" fill="black"/>
<path d="M323.667 253C323.667 255.946 326.054 258.333 329 258.333C331.946 258.333 334.333 255.946 334.333 253C334.333 250.054 331.946 247.667 329 247.667C326.054 247.667 323.667 250.054 323.667 253ZM624.667 253C624.667 255.946 627.054 258.333 630 258.333C632.946 258.333 635.333 255.946 635.333 253C635.333 250.054 632.946 247.667 630 247.667C627.054 247.667 624.667 250.054 624.667 253ZM329 254H630V252H329V254Z" fill="black"/>
<path d="M323.667 354.012C323.673 356.958 326.067 359.34 329.012 359.333C331.958 359.327 334.34 356.933 334.333 353.988C334.327 351.042 331.933 348.66 328.988 348.667C326.042 348.673 323.66 351.067 323.667 354.012ZM541.676 353.512C541.683 356.458 544.076 358.84 547.021 358.833C549.967 358.827 552.349 356.433 552.343 353.488C552.336 350.542 549.942 348.16 546.997 348.167C544.051 348.174 541.669 350.567 541.676 353.512ZM329.002 355L547.011 354.5L547.007 352.5L328.998 353L329.002 355Z" fill="black"/>
<rect x="501" y="170" width="428" height="238" rx="9" stroke="black" stroke-width="2" stroke-dasharray="2 2"/>
<rect x="630" y="230" width="159" height="47" stroke="black" stroke-width="2"/>
<path d="M682.523 259.182C681.795 259.182 681.153 258.998 680.597 258.631C680.04 258.259 679.604 257.737 679.29 257.062C678.975 256.384 678.818 255.583 678.818 254.659C678.818 253.742 678.975 252.947 679.29 252.273C679.604 251.598 680.042 251.078 680.602 250.71C681.163 250.343 681.811 250.159 682.545 250.159C683.114 250.159 683.563 250.254 683.892 250.443C684.225 250.629 684.479 250.841 684.653 251.08C684.831 251.314 684.97 251.508 685.068 251.659H685.182V247.364H686.523V259H685.227V257.659H685.068C684.97 257.818 684.83 258.019 684.648 258.261C684.466 258.5 684.206 258.714 683.869 258.903C683.532 259.089 683.083 259.182 682.523 259.182ZM682.705 257.977C683.242 257.977 683.697 257.837 684.068 257.557C684.439 257.273 684.722 256.881 684.915 256.381C685.108 255.877 685.205 255.295 685.205 254.636C685.205 253.985 685.11 253.415 684.92 252.926C684.731 252.434 684.451 252.051 684.08 251.778C683.708 251.502 683.25 251.364 682.705 251.364C682.136 251.364 681.663 251.509 681.284 251.801C680.909 252.089 680.627 252.481 680.438 252.977C680.252 253.47 680.159 254.023 680.159 254.636C680.159 255.258 680.254 255.822 680.443 256.33C680.636 256.833 680.92 257.235 681.295 257.534C681.674 257.83 682.144 257.977 682.705 257.977ZM692.824 259.182C691.983 259.182 691.258 258.996 690.648 258.625C690.042 258.25 689.574 257.727 689.244 257.057C688.919 256.383 688.756 255.598 688.756 254.705C688.756 253.811 688.919 253.023 689.244 252.341C689.574 251.655 690.032 251.121 690.619 250.739C691.21 250.352 691.9 250.159 692.688 250.159C693.142 250.159 693.591 250.235 694.034 250.386C694.477 250.538 694.881 250.784 695.244 251.125C695.608 251.462 695.898 251.909 696.114 252.466C696.33 253.023 696.438 253.708 696.438 254.523V255.091H689.71V253.932H695.074C695.074 253.439 694.975 253 694.778 252.614C694.585 252.227 694.309 251.922 693.949 251.699C693.593 251.475 693.172 251.364 692.688 251.364C692.153 251.364 691.691 251.496 691.301 251.761C690.915 252.023 690.617 252.364 690.409 252.784C690.201 253.205 690.097 253.655 690.097 254.136V254.909C690.097 255.568 690.21 256.127 690.438 256.585C690.669 257.04 690.989 257.386 691.398 257.625C691.807 257.86 692.282 257.977 692.824 257.977C693.176 257.977 693.494 257.928 693.778 257.83C694.066 257.727 694.314 257.576 694.523 257.375C694.731 257.17 694.892 256.917 695.006 256.614L696.301 256.977C696.165 257.417 695.936 257.803 695.614 258.136C695.292 258.466 694.894 258.723 694.42 258.909C693.947 259.091 693.415 259.182 692.824 259.182ZM705.348 250.273L702.121 259H700.757L697.53 250.273H698.984L701.393 257.227H701.484L703.893 250.273H705.348ZM707.118 259V250.273H708.459V259H707.118ZM707.8 248.818C707.538 248.818 707.313 248.729 707.124 248.551C706.938 248.373 706.845 248.159 706.845 247.909C706.845 247.659 706.938 247.445 707.124 247.267C707.313 247.089 707.538 247 707.8 247C708.061 247 708.285 247.089 708.47 247.267C708.66 247.445 708.754 247.659 708.754 247.909C708.754 248.159 708.66 248.373 708.47 248.551C708.285 248.729 708.061 248.818 707.8 248.818ZM714.46 259.182C713.642 259.182 712.938 258.989 712.347 258.602C711.756 258.216 711.301 257.684 710.983 257.006C710.665 256.328 710.506 255.553 710.506 254.682C710.506 253.795 710.669 253.013 710.994 252.335C711.324 251.653 711.782 251.121 712.369 250.739C712.96 250.352 713.65 250.159 714.438 250.159C715.051 250.159 715.604 250.273 716.097 250.5C716.589 250.727 716.992 251.045 717.307 251.455C717.621 251.864 717.816 252.341 717.892 252.886H716.551C716.449 252.489 716.222 252.136 715.869 251.83C715.521 251.519 715.051 251.364 714.46 251.364C713.938 251.364 713.479 251.5 713.085 251.773C712.695 252.042 712.39 252.422 712.17 252.915C711.955 253.403 711.847 253.977 711.847 254.636C711.847 255.311 711.953 255.898 712.165 256.398C712.381 256.898 712.684 257.286 713.074 257.562C713.468 257.839 713.93 257.977 714.46 257.977C714.809 257.977 715.125 257.917 715.409 257.795C715.693 257.674 715.934 257.5 716.131 257.273C716.328 257.045 716.468 256.773 716.551 256.455H717.892C717.816 256.97 717.629 257.434 717.33 257.847C717.034 258.256 716.642 258.581 716.153 258.824C715.669 259.062 715.104 259.182 714.46 259.182ZM723.511 259.182C722.67 259.182 721.945 258.996 721.335 258.625C720.729 258.25 720.261 257.727 719.932 257.057C719.606 256.383 719.443 255.598 719.443 254.705C719.443 253.811 719.606 253.023 719.932 252.341C720.261 251.655 720.72 251.121 721.307 250.739C721.898 250.352 722.587 250.159 723.375 250.159C723.83 250.159 724.278 250.235 724.722 250.386C725.165 250.538 725.568 250.784 725.932 251.125C726.295 251.462 726.585 251.909 726.801 252.466C727.017 253.023 727.125 253.708 727.125 254.523V255.091H720.398V253.932H725.761C725.761 253.439 725.663 253 725.466 252.614C725.273 252.227 724.996 251.922 724.636 251.699C724.28 251.475 723.86 251.364 723.375 251.364C722.841 251.364 722.379 251.496 721.989 251.761C721.602 252.023 721.305 252.364 721.097 252.784C720.888 253.205 720.784 253.655 720.784 254.136V254.909C720.784 255.568 720.898 256.127 721.125 256.585C721.356 257.04 721.676 257.386 722.085 257.625C722.494 257.86 722.97 257.977 723.511 257.977C723.864 257.977 724.182 257.928 724.466 257.83C724.754 257.727 725.002 257.576 725.21 257.375C725.419 257.17 725.58 256.917 725.693 256.614L726.989 256.977C726.852 257.417 726.623 257.803 726.301 258.136C725.979 258.466 725.581 258.723 725.108 258.909C724.634 259.091 724.102 259.182 723.511 259.182ZM737.733 247.364V259H736.324V248.841H736.256L733.415 250.727V249.295L736.324 247.364H737.733Z" fill="black"/>
<path d="M714.554 274.223C713.02 271.709 709.738 270.913 707.223 272.446C704.709 273.98 703.913 277.262 705.446 279.777C706.98 282.291 710.262 283.087 712.777 281.554C715.291 280.02 716.087 276.738 714.554 274.223ZM814.554 327.223C813.02 324.709 809.738 323.913 807.223 325.446C804.709 326.98 803.913 330.262 805.446 332.777C806.98 335.291 810.262 336.087 812.777 334.554C815.291 333.02 816.087 329.738 814.554 327.223ZM709.532 277.884L809.532 330.884L810.468 329.116L710.468 276.116L709.532 277.884Z" fill="black"/>
<path d="M715.084 273.956C713.656 271.379 710.41 270.449 707.834 271.877C705.258 273.305 704.327 276.551 705.755 279.127C707.183 281.703 710.429 282.634 713.005 281.206C715.582 279.778 716.512 276.532 715.084 273.956ZM624.526 328.165C623.098 325.589 619.852 324.658 617.276 326.086C614.7 327.514 613.769 330.76 615.197 333.336C616.625 335.913 619.871 336.843 622.448 335.415C625.024 333.987 625.954 330.741 624.526 328.165ZM709.906 275.683L664.627 302.788L665.654 304.504L710.933 277.399L709.906 275.683ZM664.627 302.788L619.348 329.893L620.375 331.609L665.654 304.504L664.627 302.788Z" fill="black"/>
<rect x="547" y="330" width="147" height="49" stroke="black" stroke-width="2"/>
<path d="M592.523 360.182C591.795 360.182 591.153 359.998 590.597 359.631C590.04 359.259 589.604 358.737 589.29 358.062C588.975 357.384 588.818 356.583 588.818 355.659C588.818 354.742 588.975 353.947 589.29 353.273C589.604 352.598 590.042 352.078 590.602 351.71C591.163 351.343 591.811 351.159 592.545 351.159C593.114 351.159 593.563 351.254 593.892 351.443C594.225 351.629 594.479 351.841 594.653 352.08C594.831 352.314 594.97 352.508 595.068 352.659H595.182V348.364H596.523V360H595.227V358.659H595.068C594.97 358.818 594.83 359.019 594.648 359.261C594.466 359.5 594.206 359.714 593.869 359.903C593.532 360.089 593.083 360.182 592.523 360.182ZM592.705 358.977C593.242 358.977 593.697 358.837 594.068 358.557C594.439 358.273 594.722 357.881 594.915 357.381C595.108 356.877 595.205 356.295 595.205 355.636C595.205 354.985 595.11 354.415 594.92 353.926C594.731 353.434 594.451 353.051 594.08 352.778C593.708 352.502 593.25 352.364 592.705 352.364C592.136 352.364 591.663 352.509 591.284 352.801C590.909 353.089 590.627 353.481 590.438 353.977C590.252 354.47 590.159 355.023 590.159 355.636C590.159 356.258 590.254 356.822 590.443 357.33C590.636 357.833 590.92 358.235 591.295 358.534C591.674 358.83 592.144 358.977 592.705 358.977ZM602.824 360.182C601.983 360.182 601.258 359.996 600.648 359.625C600.042 359.25 599.574 358.727 599.244 358.057C598.919 357.383 598.756 356.598 598.756 355.705C598.756 354.811 598.919 354.023 599.244 353.341C599.574 352.655 600.032 352.121 600.619 351.739C601.21 351.352 601.9 351.159 602.688 351.159C603.142 351.159 603.591 351.235 604.034 351.386C604.477 351.538 604.881 351.784 605.244 352.125C605.608 352.462 605.898 352.909 606.114 353.466C606.33 354.023 606.438 354.708 606.438 355.523V356.091H599.71V354.932H605.074C605.074 354.439 604.975 354 604.778 353.614C604.585 353.227 604.309 352.922 603.949 352.699C603.593 352.475 603.172 352.364 602.688 352.364C602.153 352.364 601.691 352.496 601.301 352.761C600.915 353.023 600.617 353.364 600.409 353.784C600.201 354.205 600.097 354.655 600.097 355.136V355.909C600.097 356.568 600.21 357.127 600.438 357.585C600.669 358.04 600.989 358.386 601.398 358.625C601.807 358.86 602.282 358.977 602.824 358.977C603.176 358.977 603.494 358.928 603.778 358.83C604.066 358.727 604.314 358.576 604.523 358.375C604.731 358.17 604.892 357.917 605.006 357.614L606.301 357.977C606.165 358.417 605.936 358.803 605.614 359.136C605.292 359.466 604.894 359.723 604.42 359.909C603.947 360.091 603.415 360.182 602.824 360.182ZM615.348 351.273L612.121 360H610.757L607.53 351.273H608.984L611.393 358.227H611.484L613.893 351.273H615.348ZM617.118 360V351.273H618.459V360H617.118ZM617.8 349.818C617.538 349.818 617.313 349.729 617.124 349.551C616.938 349.373 616.845 349.159 616.845 348.909C616.845 348.659 616.938 348.445 617.124 348.267C617.313 348.089 617.538 348 617.8 348C618.061 348 618.285 348.089 618.47 348.267C618.66 348.445 618.754 348.659 618.754 348.909C618.754 349.159 618.66 349.373 618.47 349.551C618.285 349.729 618.061 349.818 617.8 349.818ZM624.46 360.182C623.642 360.182 622.938 359.989 622.347 359.602C621.756 359.216 621.301 358.684 620.983 358.006C620.665 357.328 620.506 356.553 620.506 355.682C620.506 354.795 620.669 354.013 620.994 353.335C621.324 352.653 621.782 352.121 622.369 351.739C622.96 351.352 623.65 351.159 624.438 351.159C625.051 351.159 625.604 351.273 626.097 351.5C626.589 351.727 626.992 352.045 627.307 352.455C627.621 352.864 627.816 353.341 627.892 353.886H626.551C626.449 353.489 626.222 353.136 625.869 352.83C625.521 352.519 625.051 352.364 624.46 352.364C623.938 352.364 623.479 352.5 623.085 352.773C622.695 353.042 622.39 353.422 622.17 353.915C621.955 354.403 621.847 354.977 621.847 355.636C621.847 356.311 621.953 356.898 622.165 357.398C622.381 357.898 622.684 358.286 623.074 358.562C623.468 358.839 623.93 358.977 624.46 358.977C624.809 358.977 625.125 358.917 625.409 358.795C625.693 358.674 625.934 358.5 626.131 358.273C626.328 358.045 626.468 357.773 626.551 357.455H627.892C627.816 357.97 627.629 358.434 627.33 358.847C627.034 359.256 626.642 359.581 626.153 359.824C625.669 360.062 625.104 360.182 624.46 360.182ZM633.511 360.182C632.67 360.182 631.945 359.996 631.335 359.625C630.729 359.25 630.261 358.727 629.932 358.057C629.606 357.383 629.443 356.598 629.443 355.705C629.443 354.811 629.606 354.023 629.932 353.341C630.261 352.655 630.72 352.121 631.307 351.739C631.898 351.352 632.587 351.159 633.375 351.159C633.83 351.159 634.278 351.235 634.722 351.386C635.165 351.538 635.568 351.784 635.932 352.125C636.295 352.462 636.585 352.909 636.801 353.466C637.017 354.023 637.125 354.708 637.125 355.523V356.091H630.398V354.932H635.761C635.761 354.439 635.663 354 635.466 353.614C635.273 353.227 634.996 352.922 634.636 352.699C634.28 352.475 633.86 352.364 633.375 352.364C632.841 352.364 632.379 352.496 631.989 352.761C631.602 353.023 631.305 353.364 631.097 353.784C630.888 354.205 630.784 354.655 630.784 355.136V355.909C630.784 356.568 630.898 357.127 631.125 357.585C631.356 358.04 631.676 358.386 632.085 358.625C632.494 358.86 632.97 358.977 633.511 358.977C633.864 358.977 634.182 358.928 634.466 358.83C634.754 358.727 635.002 358.576 635.21 358.375C635.419 358.17 635.58 357.917 635.693 357.614L636.989 357.977C636.852 358.417 636.623 358.803 636.301 359.136C635.979 359.466 635.581 359.723 635.108 359.909C634.634 360.091 634.102 360.182 633.511 360.182ZM643.642 360V358.977L647.483 354.773C647.934 354.28 648.305 353.852 648.597 353.489C648.888 353.121 649.104 352.777 649.244 352.455C649.388 352.129 649.46 351.788 649.46 351.432C649.46 351.023 649.362 350.669 649.165 350.369C648.972 350.07 648.706 349.839 648.369 349.676C648.032 349.513 647.653 349.432 647.233 349.432C646.786 349.432 646.396 349.525 646.062 349.71C645.733 349.892 645.477 350.148 645.295 350.477C645.117 350.807 645.028 351.193 645.028 351.636H643.688C643.688 350.955 643.845 350.356 644.159 349.841C644.473 349.326 644.902 348.924 645.443 348.636C645.989 348.348 646.6 348.205 647.278 348.205C647.96 348.205 648.564 348.348 649.091 348.636C649.617 348.924 650.03 349.312 650.33 349.801C650.629 350.29 650.778 350.833 650.778 351.432C650.778 351.86 650.701 352.278 650.545 352.688C650.394 353.093 650.129 353.545 649.75 354.045C649.375 354.542 648.854 355.148 648.188 355.864L645.574 358.659V358.75H650.983V360H643.642Z" fill="black"/>
<path d="M689.667 355.071C689.707 358.017 692.126 360.372 695.071 360.333C698.017 360.293 700.372 357.874 700.333 354.929C700.293 351.983 697.874 349.628 694.929 349.667C691.983 349.707 689.628 352.126 689.667 355.071ZM726.726 354.575C726.766 357.52 729.185 359.876 732.131 359.836C735.076 359.797 737.432 357.377 737.392 354.432C737.353 351.487 734.933 349.131 731.988 349.171C729.043 349.21 726.687 351.63 726.726 354.575ZM695.013 356L732.073 355.503L732.046 353.504L694.987 354L695.013 356Z" fill="black"/>
<path d="M521.114 202V184.545H527.216C528.432 184.545 529.435 184.756 530.224 185.176C531.014 185.591 531.602 186.151 531.989 186.855C532.375 187.554 532.568 188.33 532.568 189.182C532.568 189.932 532.435 190.551 532.168 191.04C531.906 191.528 531.56 191.915 531.128 192.199C530.702 192.483 530.239 192.693 529.739 192.83V193C530.273 193.034 530.81 193.222 531.349 193.562C531.889 193.903 532.341 194.392 532.705 195.028C533.068 195.665 533.25 196.443 533.25 197.364C533.25 198.239 533.051 199.026 532.653 199.724C532.256 200.423 531.628 200.977 530.77 201.386C529.912 201.795 528.795 202 527.42 202H521.114ZM523.227 200.125H527.42C528.801 200.125 529.781 199.858 530.361 199.324C530.946 198.784 531.239 198.131 531.239 197.364C531.239 196.773 531.088 196.227 530.787 195.727C530.486 195.222 530.057 194.818 529.5 194.517C528.943 194.21 528.284 194.057 527.523 194.057H523.227V200.125ZM523.227 192.216H527.148C527.784 192.216 528.358 192.091 528.869 191.841C529.386 191.591 529.795 191.239 530.097 190.784C530.403 190.33 530.557 189.795 530.557 189.182C530.557 188.415 530.29 187.764 529.756 187.23C529.222 186.69 528.375 186.42 527.216 186.42H523.227V192.216ZM541.768 202.273C540.587 202.273 539.55 201.991 538.658 201.429C537.771 200.866 537.078 200.08 536.578 199.068C536.084 198.057 535.837 196.875 535.837 195.523C535.837 194.159 536.084 192.969 536.578 191.952C537.078 190.935 537.771 190.145 538.658 189.582C539.55 189.02 540.587 188.739 541.768 188.739C542.95 188.739 543.984 189.02 544.871 189.582C545.763 190.145 546.456 190.935 546.95 191.952C547.45 192.969 547.7 194.159 547.7 195.523C547.7 196.875 547.45 198.057 546.95 199.068C546.456 200.08 545.763 200.866 544.871 201.429C543.984 201.991 542.95 202.273 541.768 202.273ZM541.768 200.466C542.666 200.466 543.405 200.236 543.984 199.776C544.564 199.315 544.993 198.71 545.271 197.96C545.55 197.21 545.689 196.398 545.689 195.523C545.689 194.648 545.55 193.832 545.271 193.077C544.993 192.321 544.564 191.71 543.984 191.244C543.405 190.778 542.666 190.545 541.768 190.545C540.871 190.545 540.132 190.778 539.553 191.244C538.973 191.71 538.544 192.321 538.266 193.077C537.987 193.832 537.848 194.648 537.848 195.523C537.848 196.398 537.987 197.21 538.266 197.96C538.544 198.71 538.973 199.315 539.553 199.776C540.132 200.236 540.871 200.466 541.768 200.466ZM551.043 202V184.545H553.055V190.989H553.225C553.373 190.761 553.577 190.472 553.839 190.119C554.106 189.761 554.487 189.443 554.981 189.165C555.481 188.881 556.157 188.739 557.009 188.739C558.112 188.739 559.083 189.014 559.924 189.565C560.765 190.116 561.421 190.898 561.893 191.909C562.364 192.92 562.6 194.114 562.6 195.489C562.6 196.875 562.364 198.077 561.893 199.094C561.421 200.105 560.768 200.889 559.933 201.446C559.097 201.997 558.134 202.273 557.043 202.273C556.202 202.273 555.529 202.134 555.023 201.855C554.518 201.571 554.129 201.25 553.856 200.892C553.583 200.528 553.373 200.227 553.225 199.989H552.987V202H551.043ZM553.021 195.455C553.021 196.443 553.165 197.315 553.455 198.071C553.745 198.821 554.168 199.409 554.725 199.835C555.282 200.256 555.964 200.466 556.771 200.466C557.612 200.466 558.313 200.244 558.876 199.801C559.444 199.352 559.87 198.75 560.154 197.994C560.444 197.233 560.589 196.386 560.589 195.455C560.589 194.534 560.447 193.705 560.163 192.966C559.884 192.222 559.461 191.634 558.893 191.202C558.33 190.764 557.623 190.545 556.771 190.545C555.952 190.545 555.265 190.753 554.708 191.168C554.151 191.577 553.731 192.151 553.447 192.889C553.163 193.622 553.021 194.477 553.021 195.455ZM567.45 184.545V186.08C567.45 186.545 567.364 187.043 567.194 187.571C567.029 188.094 566.785 188.602 566.461 189.097C566.143 189.585 565.756 190.011 565.302 190.375L564.211 189.489C564.569 188.977 564.879 188.446 565.14 187.895C565.407 187.338 565.54 186.744 565.54 186.114V184.545H567.45ZM577.528 191.841L575.721 192.352C575.607 192.051 575.44 191.759 575.218 191.474C575.002 191.185 574.707 190.946 574.332 190.759C573.957 190.571 573.477 190.477 572.891 190.477C572.09 190.477 571.423 190.662 570.888 191.031C570.36 191.395 570.096 191.858 570.096 192.42C570.096 192.92 570.278 193.315 570.641 193.605C571.005 193.895 571.573 194.136 572.346 194.33L574.289 194.807C575.46 195.091 576.332 195.526 576.906 196.111C577.479 196.69 577.766 197.437 577.766 198.352C577.766 199.102 577.55 199.773 577.119 200.364C576.692 200.955 576.096 201.42 575.329 201.761C574.562 202.102 573.67 202.273 572.653 202.273C571.317 202.273 570.212 201.983 569.337 201.403C568.462 200.824 567.908 199.977 567.675 198.864L569.585 198.386C569.766 199.091 570.11 199.619 570.616 199.972C571.127 200.324 571.795 200.5 572.619 200.5C573.556 200.5 574.3 200.301 574.852 199.903C575.408 199.5 575.687 199.017 575.687 198.455C575.687 198 575.528 197.619 575.21 197.312C574.891 197 574.403 196.767 573.744 196.614L571.562 196.102C570.363 195.818 569.482 195.378 568.92 194.781C568.363 194.179 568.085 193.426 568.085 192.523C568.085 191.784 568.292 191.131 568.707 190.562C569.127 189.994 569.698 189.548 570.42 189.224C571.147 188.901 571.971 188.739 572.891 188.739C574.187 188.739 575.204 189.023 575.942 189.591C576.687 190.159 577.215 190.909 577.528 191.841ZM587.544 202V188.909H589.555V202H587.544ZM588.567 186.727C588.175 186.727 587.837 186.594 587.553 186.327C587.274 186.06 587.135 185.739 587.135 185.364C587.135 184.989 587.274 184.668 587.553 184.401C587.837 184.134 588.175 184 588.567 184C588.959 184 589.294 184.134 589.572 184.401C589.857 184.668 589.999 184.989 589.999 185.364C589.999 185.739 589.857 186.06 589.572 186.327C589.294 186.594 588.959 186.727 588.567 186.727ZM598.183 202.273C597.092 202.273 596.129 201.997 595.293 201.446C594.458 200.889 593.805 200.105 593.333 199.094C592.862 198.077 592.626 196.875 592.626 195.489C592.626 194.114 592.862 192.92 593.333 191.909C593.805 190.898 594.461 190.116 595.302 189.565C596.143 189.014 597.114 188.739 598.217 188.739C599.069 188.739 599.742 188.881 600.237 189.165C600.737 189.443 601.117 189.761 601.379 190.119C601.646 190.472 601.853 190.761 602.001 190.989H602.171V184.545H604.183V202H602.239V199.989H602.001C601.853 200.227 601.643 200.528 601.37 200.892C601.097 201.25 600.708 201.571 600.202 201.855C599.697 202.134 599.023 202.273 598.183 202.273ZM598.455 200.466C599.262 200.466 599.944 200.256 600.501 199.835C601.058 199.409 601.481 198.821 601.771 198.071C602.06 197.315 602.205 196.443 602.205 195.455C602.205 194.477 602.063 193.622 601.779 192.889C601.495 192.151 601.075 191.577 600.518 191.168C599.961 190.753 599.273 190.545 598.455 190.545C597.603 190.545 596.893 190.764 596.325 191.202C595.762 191.634 595.339 192.222 595.055 192.966C594.776 193.705 594.637 194.534 594.637 195.455C594.637 196.386 594.779 197.233 595.063 197.994C595.353 198.75 595.779 199.352 596.342 199.801C596.91 200.244 597.614 200.466 598.455 200.466ZM613.634 202.273C612.373 202.273 611.285 201.994 610.37 201.438C609.461 200.875 608.759 200.091 608.265 199.085C607.776 198.074 607.532 196.898 607.532 195.557C607.532 194.216 607.776 193.034 608.265 192.011C608.759 190.983 609.447 190.182 610.327 189.608C611.214 189.028 612.248 188.739 613.43 188.739C614.112 188.739 614.785 188.852 615.45 189.08C616.114 189.307 616.719 189.676 617.265 190.188C617.81 190.693 618.245 191.364 618.569 192.199C618.893 193.034 619.055 194.062 619.055 195.284V196.136H608.964V194.398H617.009C617.009 193.659 616.862 193 616.566 192.42C616.276 191.841 615.862 191.384 615.322 191.048C614.788 190.713 614.157 190.545 613.43 190.545C612.629 190.545 611.935 190.744 611.35 191.142C610.771 191.534 610.325 192.045 610.012 192.676C609.7 193.307 609.543 193.983 609.543 194.705V195.864C609.543 196.852 609.714 197.69 610.055 198.378C610.401 199.06 610.881 199.58 611.495 199.938C612.109 200.29 612.822 200.466 613.634 200.466C614.163 200.466 614.64 200.392 615.066 200.244C615.498 200.091 615.87 199.864 616.183 199.562C616.495 199.256 616.737 198.875 616.907 198.42L618.85 198.966C618.646 199.625 618.302 200.205 617.819 200.705C617.336 201.199 616.739 201.585 616.029 201.864C615.319 202.136 614.521 202.273 613.634 202.273ZM624.126 194.125V202H622.114V188.909H624.058V190.955H624.228C624.535 190.29 625.001 189.756 625.626 189.352C626.251 188.943 627.058 188.739 628.046 188.739C628.933 188.739 629.708 188.92 630.373 189.284C631.038 189.642 631.555 190.188 631.924 190.92C632.293 191.648 632.478 192.568 632.478 193.682V202H630.467V193.818C630.467 192.79 630.2 191.989 629.665 191.415C629.131 190.835 628.398 190.545 627.467 190.545C626.825 190.545 626.251 190.685 625.745 190.963C625.245 191.241 624.85 191.648 624.56 192.182C624.271 192.716 624.126 193.364 624.126 194.125ZM641.847 188.909V190.614H635.062V188.909H641.847ZM637.04 185.773H639.051V198.25C639.051 198.818 639.134 199.244 639.298 199.528C639.469 199.807 639.685 199.994 639.946 200.091C640.213 200.182 640.494 200.227 640.79 200.227C641.011 200.227 641.193 200.216 641.335 200.193C641.477 200.165 641.591 200.142 641.676 200.125L642.085 201.932C641.949 201.983 641.759 202.034 641.514 202.085C641.27 202.142 640.96 202.17 640.585 202.17C640.017 202.17 639.46 202.048 638.915 201.804C638.375 201.56 637.926 201.188 637.568 200.688C637.216 200.188 637.04 199.557 637.04 198.795V185.773ZM644.872 202V188.909H646.884V202H644.872ZM645.895 186.727C645.503 186.727 645.165 186.594 644.881 186.327C644.602 186.06 644.463 185.739 644.463 185.364C644.463 184.989 644.602 184.668 644.881 184.401C645.165 184.134 645.503 184 645.895 184C646.287 184 646.622 184.134 646.901 184.401C647.185 184.668 647.327 184.989 647.327 185.364C647.327 185.739 647.185 186.06 646.901 186.327C646.622 186.594 646.287 186.727 645.895 186.727ZM656.261 188.909V190.614H649.477V188.909H656.261ZM651.454 185.773H653.465V198.25C653.465 198.818 653.548 199.244 653.712 199.528C653.883 199.807 654.099 199.994 654.36 200.091C654.627 200.182 654.908 200.227 655.204 200.227C655.425 200.227 655.607 200.216 655.749 200.193C655.891 200.165 656.005 200.142 656.09 200.125L656.499 201.932C656.363 201.983 656.173 202.034 655.928 202.085C655.684 202.142 655.374 202.17 654.999 202.17C654.431 202.17 653.874 202.048 653.329 201.804C652.789 201.56 652.34 201.188 651.982 200.688C651.63 200.188 651.454 199.557 651.454 198.795V185.773ZM660.582 206.909C660.241 206.909 659.937 206.881 659.67 206.824C659.403 206.773 659.218 206.722 659.116 206.67L659.627 204.898C660.116 205.023 660.548 205.068 660.923 205.034C661.298 205 661.63 204.832 661.92 204.531C662.215 204.236 662.485 203.756 662.729 203.091L663.104 202.068L658.263 188.909H660.445L664.059 199.341H664.195L667.809 188.909H669.991L664.434 203.909C664.184 204.585 663.874 205.145 663.505 205.588C663.136 206.037 662.707 206.369 662.218 206.585C661.735 206.801 661.19 206.909 660.582 206.909Z" fill="black"/>
<rect x="733" y="330" width="154" height="49" stroke="black" stroke-width="2"/>
<path d="M782.523 360.182C781.795 360.182 781.153 359.998 780.597 359.631C780.04 359.259 779.604 358.737 779.29 358.062C778.975 357.384 778.818 356.583 778.818 355.659C778.818 354.742 778.975 353.947 779.29 353.273C779.604 352.598 780.042 352.078 780.602 351.71C781.163 351.343 781.811 351.159 782.545 351.159C783.114 351.159 783.563 351.254 783.892 351.443C784.225 351.629 784.479 351.841 784.653 352.08C784.831 352.314 784.97 352.508 785.068 352.659H785.182V348.364H786.523V360H785.227V358.659H785.068C784.97 358.818 784.83 359.019 784.648 359.261C784.466 359.5 784.206 359.714 783.869 359.903C783.532 360.089 783.083 360.182 782.523 360.182ZM782.705 358.977C783.242 358.977 783.697 358.837 784.068 358.557C784.439 358.273 784.722 357.881 784.915 357.381C785.108 356.877 785.205 356.295 785.205 355.636C785.205 354.985 785.11 354.415 784.92 353.926C784.731 353.434 784.451 353.051 784.08 352.778C783.708 352.502 783.25 352.364 782.705 352.364C782.136 352.364 781.663 352.509 781.284 352.801C780.909 353.089 780.627 353.481 780.438 353.977C780.252 354.47 780.159 355.023 780.159 355.636C780.159 356.258 780.254 356.822 780.443 357.33C780.636 357.833 780.92 358.235 781.295 358.534C781.674 358.83 782.144 358.977 782.705 358.977ZM792.824 360.182C791.983 360.182 791.258 359.996 790.648 359.625C790.042 359.25 789.574 358.727 789.244 358.057C788.919 357.383 788.756 356.598 788.756 355.705C788.756 354.811 788.919 354.023 789.244 353.341C789.574 352.655 790.032 352.121 790.619 351.739C791.21 351.352 791.9 351.159 792.688 351.159C793.142 351.159 793.591 351.235 794.034 351.386C794.477 351.538 794.881 351.784 795.244 352.125C795.608 352.462 795.898 352.909 796.114 353.466C796.33 354.023 796.438 354.708 796.438 355.523V356.091H789.71V354.932H795.074C795.074 354.439 794.975 354 794.778 353.614C794.585 353.227 794.309 352.922 793.949 352.699C793.593 352.475 793.172 352.364 792.688 352.364C792.153 352.364 791.691 352.496 791.301 352.761C790.915 353.023 790.617 353.364 790.409 353.784C790.201 354.205 790.097 354.655 790.097 355.136V355.909C790.097 356.568 790.21 357.127 790.438 357.585C790.669 358.04 790.989 358.386 791.398 358.625C791.807 358.86 792.282 358.977 792.824 358.977C793.176 358.977 793.494 358.928 793.778 358.83C794.066 358.727 794.314 358.576 794.523 358.375C794.731 358.17 794.892 357.917 795.006 357.614L796.301 357.977C796.165 358.417 795.936 358.803 795.614 359.136C795.292 359.466 794.894 359.723 794.42 359.909C793.947 360.091 793.415 360.182 792.824 360.182ZM805.348 351.273L802.121 360H800.757L797.53 351.273H798.984L801.393 358.227H801.484L803.893 351.273H805.348ZM807.118 360V351.273H808.459V360H807.118ZM807.8 349.818C807.538 349.818 807.313 349.729 807.124 349.551C806.938 349.373 806.845 349.159 806.845 348.909C806.845 348.659 806.938 348.445 807.124 348.267C807.313 348.089 807.538 348 807.8 348C808.061 348 808.285 348.089 808.47 348.267C808.66 348.445 808.754 348.659 808.754 348.909C808.754 349.159 808.66 349.373 808.47 349.551C808.285 349.729 808.061 349.818 807.8 349.818ZM814.46 360.182C813.642 360.182 812.938 359.989 812.347 359.602C811.756 359.216 811.301 358.684 810.983 358.006C810.665 357.328 810.506 356.553 810.506 355.682C810.506 354.795 810.669 354.013 810.994 353.335C811.324 352.653 811.782 352.121 812.369 351.739C812.96 351.352 813.65 351.159 814.438 351.159C815.051 351.159 815.604 351.273 816.097 351.5C816.589 351.727 816.992 352.045 817.307 352.455C817.621 352.864 817.816 353.341 817.892 353.886H816.551C816.449 353.489 816.222 353.136 815.869 352.83C815.521 352.519 815.051 352.364 814.46 352.364C813.938 352.364 813.479 352.5 813.085 352.773C812.695 353.042 812.39 353.422 812.17 353.915C811.955 354.403 811.847 354.977 811.847 355.636C811.847 356.311 811.953 356.898 812.165 357.398C812.381 357.898 812.684 358.286 813.074 358.562C813.468 358.839 813.93 358.977 814.46 358.977C814.809 358.977 815.125 358.917 815.409 358.795C815.693 358.674 815.934 358.5 816.131 358.273C816.328 358.045 816.468 357.773 816.551 357.455H817.892C817.816 357.97 817.629 358.434 817.33 358.847C817.034 359.256 816.642 359.581 816.153 359.824C815.669 360.062 815.104 360.182 814.46 360.182ZM823.511 360.182C822.67 360.182 821.945 359.996 821.335 359.625C820.729 359.25 820.261 358.727 819.932 358.057C819.606 357.383 819.443 356.598 819.443 355.705C819.443 354.811 819.606 354.023 819.932 353.341C820.261 352.655 820.72 352.121 821.307 351.739C821.898 351.352 822.587 351.159 823.375 351.159C823.83 351.159 824.278 351.235 824.722 351.386C825.165 351.538 825.568 351.784 825.932 352.125C826.295 352.462 826.585 352.909 826.801 353.466C827.017 354.023 827.125 354.708 827.125 355.523V356.091H820.398V354.932H825.761C825.761 354.439 825.663 354 825.466 353.614C825.273 353.227 824.996 352.922 824.636 352.699C824.28 352.475 823.86 352.364 823.375 352.364C822.841 352.364 822.379 352.496 821.989 352.761C821.602 353.023 821.305 353.364 821.097 353.784C820.888 354.205 820.784 354.655 820.784 355.136V355.909C820.784 356.568 820.898 357.127 821.125 357.585C821.356 358.04 821.676 358.386 822.085 358.625C822.494 358.86 822.97 358.977 823.511 358.977C823.864 358.977 824.182 358.928 824.466 358.83C824.754 358.727 825.002 358.576 825.21 358.375C825.419 358.17 825.58 357.917 825.693 357.614L826.989 357.977C826.852 358.417 826.623 358.803 826.301 359.136C825.979 359.466 825.581 359.723 825.108 359.909C824.634 360.091 824.102 360.182 823.511 360.182ZM837.574 360.159C836.824 360.159 836.155 360.03 835.568 359.773C834.985 359.515 834.521 359.157 834.176 358.699C833.835 358.237 833.65 357.701 833.619 357.091H835.051C835.081 357.466 835.21 357.79 835.438 358.062C835.665 358.331 835.962 358.54 836.33 358.688C836.697 358.835 837.104 358.909 837.551 358.909C838.051 358.909 838.494 358.822 838.881 358.648C839.267 358.473 839.57 358.231 839.79 357.92C840.009 357.61 840.119 357.25 840.119 356.841C840.119 356.413 840.013 356.036 839.801 355.71C839.589 355.381 839.278 355.123 838.869 354.938C838.46 354.752 837.96 354.659 837.369 354.659H836.438V353.409H837.369C837.831 353.409 838.237 353.326 838.585 353.159C838.938 352.992 839.212 352.758 839.409 352.455C839.61 352.152 839.71 351.795 839.71 351.386C839.71 350.992 839.623 350.65 839.449 350.358C839.275 350.066 839.028 349.839 838.71 349.676C838.396 349.513 838.025 349.432 837.597 349.432C837.195 349.432 836.816 349.506 836.46 349.653C836.108 349.797 835.82 350.008 835.597 350.284C835.373 350.557 835.252 350.886 835.233 351.273H833.869C833.892 350.663 834.076 350.129 834.42 349.67C834.765 349.208 835.216 348.848 835.773 348.591C836.333 348.333 836.949 348.205 837.619 348.205C838.339 348.205 838.956 348.35 839.472 348.642C839.987 348.93 840.383 349.311 840.659 349.784C840.936 350.258 841.074 350.769 841.074 351.318C841.074 351.973 840.902 352.532 840.557 352.994C840.216 353.456 839.752 353.777 839.165 353.955V354.045C839.9 354.167 840.473 354.479 840.886 354.983C841.299 355.483 841.506 356.102 841.506 356.841C841.506 357.473 841.333 358.042 840.989 358.545C840.648 359.045 840.182 359.439 839.591 359.727C839 360.015 838.328 360.159 837.574 360.159Z" fill="black"/>
<path d="M743.667 43C743.667 45.9455 746.054 48.3333 749 48.3333C751.946 48.3333 754.333 45.9455 754.333 43C754.333 40.0545 751.946 37.6667 749 37.6667C746.054 37.6667 743.667 40.0545 743.667 43ZM791.667 43C791.667 45.9455 794.054 48.3333 797 48.3333C799.946 48.3333 802.333 45.9455 802.333 43C802.333 40.0545 799.946 37.6667 797 37.6667C794.054 37.6667 791.667 40.0545 791.667 43ZM749 44L797 44L797 42L749 42L749 44Z" fill="black"/>
<path d="M822.483 43.0739L821.429 43.3722C821.363 43.1965 821.265 43.0258 821.136 42.8601C821.01 42.6911 820.837 42.5518 820.619 42.4425C820.4 42.3331 820.12 42.2784 819.778 42.2784C819.311 42.2784 818.922 42.3861 818.61 42.6016C818.302 42.8137 818.148 43.0838 818.148 43.4119C818.148 43.7036 818.254 43.9339 818.466 44.103C818.678 44.272 819.009 44.4129 819.46 44.5256L820.594 44.804C821.277 44.9697 821.785 45.2232 822.12 45.5646C822.455 45.9027 822.622 46.3385 822.622 46.8722C822.622 47.3097 822.496 47.7008 822.244 48.0455C821.996 48.3902 821.648 48.6619 821.2 48.8608C820.753 49.0597 820.232 49.1591 819.639 49.1591C818.86 49.1591 818.216 48.9901 817.705 48.652C817.195 48.3139 816.872 47.8201 816.736 47.1705L817.849 46.892C817.955 47.303 818.156 47.6113 818.451 47.8168C818.749 48.0223 819.139 48.125 819.619 48.125C820.166 48.125 820.6 48.009 820.922 47.777C821.247 47.5417 821.409 47.2599 821.409 46.9318C821.409 46.6667 821.316 46.4446 821.131 46.2656C820.945 46.0833 820.66 45.9474 820.276 45.858L819.003 45.5597C818.304 45.3939 817.79 45.1371 817.462 44.7891C817.137 44.4377 816.974 43.9986 816.974 43.4716C816.974 43.0407 817.095 42.6596 817.337 42.3281C817.583 41.9967 817.916 41.7365 818.337 41.5476C818.761 41.3587 819.241 41.2642 819.778 41.2642C820.534 41.2642 821.127 41.4299 821.558 41.7614C821.992 42.0928 822.301 42.5303 822.483 43.0739ZM825.144 51.8636C824.945 51.8636 824.768 51.8471 824.612 51.8139C824.456 51.7841 824.349 51.7543 824.289 51.7244L824.587 50.6903C824.872 50.7633 825.124 50.7898 825.343 50.7699C825.562 50.75 825.756 50.6522 825.925 50.4766C826.097 50.3042 826.254 50.0241 826.397 49.6364L826.616 49.0398L823.792 41.3636H825.064L827.172 47.4489H827.252L829.36 41.3636H830.633L827.391 50.1136C827.245 50.508 827.065 50.8345 826.849 51.093C826.634 51.3549 826.384 51.5488 826.099 51.6747C825.817 51.8007 825.499 51.8636 825.144 51.8636ZM833.355 44.4062V49H832.181V41.3636H833.315V42.5568H833.414C833.593 42.169 833.865 41.8575 834.23 41.6222C834.594 41.3835 835.065 41.2642 835.642 41.2642C836.159 41.2642 836.611 41.3703 836.999 41.5824C837.387 41.7912 837.688 42.1094 837.904 42.5369C838.119 42.9612 838.227 43.4981 838.227 44.1477V49H837.053V44.2273C837.053 43.6274 836.898 43.16 836.586 42.8253C836.275 42.4872 835.847 42.3182 835.303 42.3182C834.929 42.3182 834.594 42.3994 834.299 42.5618C834.008 42.7242 833.777 42.9612 833.608 43.2727C833.439 43.5843 833.355 43.9621 833.355 44.4062ZM843.473 49.1591C842.757 49.1591 842.141 48.9901 841.624 48.652C841.107 48.3139 840.709 47.8482 840.43 47.255C840.152 46.6617 840.013 45.9839 840.013 45.2216C840.013 44.446 840.155 43.7616 840.44 43.1683C840.729 42.5717 841.13 42.1061 841.643 41.7713C842.161 41.4332 842.764 41.2642 843.453 41.2642C843.99 41.2642 844.474 41.3636 844.905 41.5625C845.336 41.7614 845.689 42.0398 845.964 42.3977C846.239 42.7557 846.41 43.1733 846.476 43.6506H845.303C845.213 43.3026 845.014 42.9943 844.706 42.7259C844.401 42.4541 843.99 42.3182 843.473 42.3182C843.016 42.3182 842.615 42.4375 842.27 42.6761C841.929 42.9115 841.662 43.2446 841.469 43.6754C841.281 44.103 841.186 44.6051 841.186 45.1818C841.186 45.7718 841.279 46.2855 841.464 46.723C841.653 47.1605 841.919 47.5002 842.26 47.7422C842.605 47.9841 843.009 48.1051 843.473 48.1051C843.778 48.1051 844.055 48.0521 844.303 47.946C844.552 47.84 844.762 47.6875 844.935 47.4886C845.107 47.2898 845.23 47.0511 845.303 46.7727H846.476C846.41 47.2235 846.246 47.6295 845.984 47.9908C845.725 48.3487 845.382 48.6338 844.955 48.8459C844.53 49.0547 844.036 49.1591 843.473 49.1591ZM848.191 49V41.3636H849.364V49H848.191ZM848.788 40.0909C848.559 40.0909 848.362 40.013 848.196 39.8572C848.034 39.7015 847.952 39.5142 847.952 39.2955C847.952 39.0767 848.034 38.8894 848.196 38.7337C848.362 38.5779 848.559 38.5 848.788 38.5C849.016 38.5 849.212 38.5779 849.374 38.7337C849.54 38.8894 849.623 39.0767 849.623 39.2955C849.623 39.5142 849.54 39.7015 849.374 39.8572C849.212 40.013 849.016 40.0909 848.788 40.0909ZM852.687 44.4062V49H851.513V41.3636H852.647V42.5568H852.746C852.925 42.169 853.197 41.8575 853.562 41.6222C853.926 41.3835 854.397 41.2642 854.974 41.2642C855.491 41.2642 855.943 41.3703 856.331 41.5824C856.719 41.7912 857.02 42.1094 857.236 42.5369C857.451 42.9612 857.559 43.4981 857.559 44.1477V49H856.385V44.2273C856.385 43.6274 856.23 43.16 855.918 42.8253C855.607 42.4872 855.179 42.3182 854.635 42.3182C854.261 42.3182 853.926 42.3994 853.631 42.5618C853.34 42.7242 853.109 42.9612 852.94 43.2727C852.771 43.5843 852.687 43.9621 852.687 44.4062ZM862.785 52.0227C862.218 52.0227 861.731 51.9498 861.324 51.804C860.916 51.6615 860.576 51.4725 860.304 51.2372C860.036 51.0052 859.822 50.7566 859.663 50.4915L860.598 49.8352C860.704 49.9744 860.838 50.1335 861 50.3125C861.163 50.4948 861.385 50.6522 861.667 50.7848C861.952 50.9207 862.324 50.9886 862.785 50.9886C863.402 50.9886 863.91 50.8395 864.311 50.5412C864.712 50.2429 864.913 49.7756 864.913 49.1392V47.5881H864.814C864.727 47.7273 864.605 47.8996 864.446 48.1051C864.29 48.3073 864.065 48.4879 863.77 48.647C863.478 48.8028 863.083 48.8807 862.586 48.8807C861.97 48.8807 861.416 48.7348 860.926 48.4432C860.439 48.1515 860.052 47.7273 859.767 47.1705C859.486 46.6136 859.345 45.9375 859.345 45.142C859.345 44.3598 859.482 43.6787 859.757 43.0987C860.033 42.5154 860.415 42.0646 860.906 41.7464C861.396 41.425 861.963 41.2642 862.606 41.2642C863.103 41.2642 863.498 41.3471 863.789 41.5128C864.084 41.6752 864.31 41.8608 864.466 42.0696C864.625 42.2751 864.747 42.4441 864.833 42.5767H864.953V41.3636H866.086V49.2188C866.086 49.875 865.937 50.4086 865.639 50.8196C865.344 51.2339 864.946 51.5372 864.446 51.7294C863.949 51.925 863.395 52.0227 862.785 52.0227ZM862.745 47.8267C863.216 47.8267 863.614 47.719 863.939 47.5036C864.263 47.2881 864.51 46.9782 864.679 46.5739C864.848 46.1695 864.933 45.6856 864.933 45.1222C864.933 44.572 864.85 44.0864 864.684 43.6655C864.519 43.2446 864.273 42.9148 863.949 42.6761C863.624 42.4375 863.223 42.3182 862.745 42.3182C862.248 42.3182 861.834 42.4441 861.502 42.696C861.174 42.9479 860.927 43.286 860.762 43.7102C860.599 44.1345 860.518 44.6051 860.518 45.1222C860.518 45.6525 860.601 46.1214 860.767 46.5291C860.936 46.9335 861.184 47.2517 861.512 47.4837C861.844 47.7124 862.255 47.8267 862.745 47.8267ZM875.274 49.1591C874.558 49.1591 873.941 48.9901 873.424 48.652C872.907 48.3139 872.51 47.8482 872.231 47.255C871.953 46.6617 871.814 45.9839 871.814 45.2216C871.814 44.446 871.956 43.7616 872.241 43.1683C872.529 42.5717 872.931 42.1061 873.444 41.7713C873.961 41.4332 874.565 41.2642 875.254 41.2642C875.791 41.2642 876.275 41.3636 876.706 41.5625C877.136 41.7614 877.489 42.0398 877.765 42.3977C878.04 42.7557 878.21 43.1733 878.277 43.6506H877.103C877.014 43.3026 876.815 42.9943 876.507 42.7259C876.202 42.4541 875.791 42.3182 875.274 42.3182C874.816 42.3182 874.415 42.4375 874.071 42.6761C873.729 42.9115 873.462 43.2446 873.27 43.6754C873.081 44.103 872.987 44.6051 872.987 45.1818C872.987 45.7718 873.08 46.2855 873.265 46.723C873.454 47.1605 873.719 47.5002 874.061 47.7422C874.405 47.9841 874.81 48.1051 875.274 48.1051C875.579 48.1051 875.855 48.0521 876.104 47.946C876.353 47.84 876.563 47.6875 876.735 47.4886C876.908 47.2898 877.03 47.0511 877.103 46.7727H878.277C878.21 47.2235 878.046 47.6295 877.784 47.9908C877.526 48.3487 877.183 48.6338 876.755 48.8459C876.331 49.0547 875.837 49.1591 875.274 49.1591ZM883.094 49.1591C882.405 49.1591 881.8 48.995 881.279 48.6669C880.762 48.3388 880.358 47.8797 880.066 47.2898C879.778 46.6998 879.634 46.0104 879.634 45.2216C879.634 44.4261 879.778 43.7318 880.066 43.1385C880.358 42.5452 880.762 42.0845 881.279 41.7564C881.8 41.4283 882.405 41.2642 883.094 41.2642C883.783 41.2642 884.387 41.4283 884.904 41.7564C885.424 42.0845 885.828 42.5452 886.117 43.1385C886.408 43.7318 886.554 44.4261 886.554 45.2216C886.554 46.0104 886.408 46.6998 886.117 47.2898C885.828 47.8797 885.424 48.3388 884.904 48.6669C884.387 48.995 883.783 49.1591 883.094 49.1591ZM883.094 48.1051C883.618 48.1051 884.049 47.9709 884.387 47.7024C884.725 47.4339 884.975 47.081 885.137 46.6435C885.3 46.206 885.381 45.732 885.381 45.2216C885.381 44.7112 885.3 44.2356 885.137 43.7947C884.975 43.3539 884.725 42.9976 884.387 42.7259C884.049 42.4541 883.618 42.3182 883.094 42.3182C882.57 42.3182 882.14 42.4541 881.801 42.7259C881.463 42.9976 881.213 43.3539 881.051 43.7947C880.888 44.2356 880.807 44.7112 880.807 45.2216C880.807 45.732 880.888 46.206 881.051 46.6435C881.213 47.081 881.463 47.4339 881.801 47.7024C882.14 47.9709 882.57 48.1051 883.094 48.1051ZM889.519 44.4062V49H888.345V41.3636H889.479V42.5568H889.578C889.757 42.169 890.029 41.8575 890.394 41.6222C890.758 41.3835 891.229 41.2642 891.806 41.2642C892.323 41.2642 892.775 41.3703 893.163 41.5824C893.551 41.7912 893.852 42.1094 894.068 42.5369C894.283 42.9612 894.391 43.4981 894.391 44.1477V49H893.218V44.2273C893.218 43.6274 893.062 43.16 892.75 42.8253C892.439 42.4872 892.011 42.3182 891.468 42.3182C891.093 42.3182 890.758 42.3994 890.463 42.5618C890.172 42.7242 889.941 42.9612 889.772 43.2727C889.603 43.5843 889.519 43.9621 889.519 44.4062ZM897.708 44.4062V49H896.535V41.3636H897.668V42.5568H897.768C897.947 42.169 898.219 41.8575 898.583 41.6222C898.948 41.3835 899.418 41.2642 899.995 41.2642C900.512 41.2642 900.964 41.3703 901.352 41.5824C901.74 41.7912 902.042 42.1094 902.257 42.5369C902.473 42.9612 902.58 43.4981 902.58 44.1477V49H901.407V44.2273C901.407 43.6274 901.251 43.16 900.94 42.8253C900.628 42.4872 900.201 42.3182 899.657 42.3182C899.282 42.3182 898.948 42.3994 898.653 42.5618C898.361 42.7242 898.131 42.9612 897.962 43.2727C897.793 43.5843 897.708 43.9621 897.708 44.4062ZM907.926 49.1591C907.19 49.1591 906.555 48.9967 906.022 48.6719C905.492 48.3438 905.082 47.8864 904.794 47.2997C904.509 46.7098 904.366 46.0237 904.366 45.2415C904.366 44.4593 904.509 43.7699 904.794 43.1733C905.082 42.5734 905.483 42.1061 905.997 41.7713C906.514 41.4332 907.117 41.2642 907.807 41.2642C908.204 41.2642 908.597 41.3305 908.985 41.4631C909.373 41.5956 909.726 41.8111 910.044 42.1094C910.362 42.4044 910.616 42.7955 910.805 43.2827C910.993 43.7699 911.088 44.3698 911.088 45.0824V45.5795H905.202V44.5653H909.895C909.895 44.1345 909.809 43.75 909.636 43.4119C909.467 43.0739 909.225 42.8071 908.91 42.6115C908.599 42.416 908.231 42.3182 907.807 42.3182C907.339 42.3182 906.935 42.4342 906.594 42.6662C906.256 42.8949 905.995 43.1932 905.813 43.5611C905.631 43.929 905.54 44.3234 905.54 44.7443V45.4205C905.54 45.9972 905.639 46.486 905.838 46.8871C906.04 47.2848 906.32 47.5881 906.678 47.7969C907.036 48.0024 907.452 48.1051 907.926 48.1051C908.234 48.1051 908.513 48.062 908.761 47.9759C909.013 47.8864 909.23 47.7538 909.412 47.5781C909.595 47.3991 909.736 47.1771 909.835 46.9119L910.969 47.2301C910.849 47.6146 910.649 47.9527 910.367 48.2443C910.085 48.5327 909.737 48.758 909.323 48.9205C908.909 49.0795 908.443 49.1591 907.926 49.1591ZM915.975 49.1591C915.259 49.1591 914.643 48.9901 914.126 48.652C913.608 48.3139 913.211 47.8482 912.932 47.255C912.654 46.6617 912.515 45.9839 912.515 45.2216C912.515 44.446 912.657 43.7616 912.942 43.1683C913.231 42.5717 913.632 42.1061 914.145 41.7713C914.662 41.4332 915.266 41.2642 915.955 41.2642C916.492 41.2642 916.976 41.3636 917.407 41.5625C917.838 41.7614 918.191 42.0398 918.466 42.3977C918.741 42.7557 918.912 43.1733 918.978 43.6506H917.805C917.715 43.3026 917.516 42.9943 917.208 42.7259C916.903 42.4541 916.492 42.3182 915.975 42.3182C915.518 42.3182 915.117 42.4375 914.772 42.6761C914.43 42.9115 914.164 43.2446 913.971 43.6754C913.782 44.103 913.688 44.6051 913.688 45.1818C913.688 45.7718 913.781 46.2855 913.966 46.723C914.155 47.1605 914.421 47.5002 914.762 47.7422C915.107 47.9841 915.511 48.1051 915.975 48.1051C916.28 48.1051 916.557 48.0521 916.805 47.946C917.054 47.84 917.264 47.6875 917.437 47.4886C917.609 47.2898 917.732 47.0511 917.805 46.7727H918.978C918.912 47.2235 918.747 47.6295 918.486 47.9908C918.227 48.3487 917.884 48.6338 917.456 48.8459C917.032 49.0547 916.538 49.1591 915.975 49.1591ZM924.014 41.3636V42.358H920.057V41.3636H924.014ZM921.21 39.5341H922.383V46.8125C922.383 47.1439 922.431 47.3925 922.528 47.5582C922.627 47.7206 922.753 47.83 922.905 47.8864C923.061 47.9394 923.225 47.9659 923.398 47.9659C923.527 47.9659 923.633 47.9593 923.716 47.946C923.799 47.9295 923.865 47.9162 923.915 47.9062L924.153 48.9602C924.074 48.9901 923.963 49.0199 923.82 49.0497C923.678 49.0829 923.497 49.0994 923.278 49.0994C922.947 49.0994 922.622 49.0282 922.304 48.8857C921.989 48.7431 921.727 48.526 921.518 48.2344C921.313 47.9427 921.21 47.5748 921.21 47.1307V39.5341ZM925.779 49V41.3636H926.952V49H925.779ZM926.376 40.0909C926.147 40.0909 925.95 40.013 925.784 39.8572C925.622 39.7015 925.54 39.5142 925.54 39.2955C925.54 39.0767 925.622 38.8894 925.784 38.7337C925.95 38.5779 926.147 38.5 926.376 38.5C926.604 38.5 926.8 38.5779 926.962 38.7337C927.128 38.8894 927.211 39.0767 927.211 39.2955C927.211 39.5142 927.128 39.7015 926.962 39.8572C926.8 40.013 926.604 40.0909 926.376 40.0909ZM932.203 49.1591C931.514 49.1591 930.909 48.995 930.389 48.6669C929.872 48.3388 929.467 47.8797 929.176 47.2898C928.887 46.6998 928.743 46.0104 928.743 45.2216C928.743 44.4261 928.887 43.7318 929.176 43.1385C929.467 42.5452 929.872 42.0845 930.389 41.7564C930.909 41.4283 931.514 41.2642 932.203 41.2642C932.893 41.2642 933.496 41.4283 934.013 41.7564C934.533 42.0845 934.938 42.5452 935.226 43.1385C935.518 43.7318 935.664 44.4261 935.664 45.2216C935.664 46.0104 935.518 46.6998 935.226 47.2898C934.938 47.8797 934.533 48.3388 934.013 48.6669C933.496 48.995 932.893 49.1591 932.203 49.1591ZM932.203 48.1051C932.727 48.1051 933.158 47.9709 933.496 47.7024C933.834 47.4339 934.084 47.081 934.247 46.6435C934.409 46.206 934.49 45.732 934.49 45.2216C934.49 44.7112 934.409 44.2356 934.247 43.7947C934.084 43.3539 933.834 42.9976 933.496 42.7259C933.158 42.4541 932.727 42.3182 932.203 42.3182C931.68 42.3182 931.249 42.4541 930.911 42.7259C930.573 42.9976 930.323 43.3539 930.16 43.7947C929.998 44.2356 929.917 44.7112 929.917 45.2216C929.917 45.732 929.998 46.206 930.16 46.6435C930.323 47.081 930.573 47.4339 930.911 47.7024C931.249 47.9709 931.68 48.1051 932.203 48.1051ZM938.628 44.4062V49H937.455V41.3636H938.588V42.5568H938.688C938.867 42.169 939.138 41.8575 939.503 41.6222C939.868 41.3835 940.338 41.2642 940.915 41.2642C941.432 41.2642 941.884 41.3703 942.272 41.5824C942.66 41.7912 942.962 42.1094 943.177 42.5369C943.392 42.9612 943.5 43.4981 943.5 44.1477V49H942.327V44.2273C942.327 43.6274 942.171 43.16 941.86 42.8253C941.548 42.4872 941.12 42.3182 940.577 42.3182C940.202 42.3182 939.868 42.3994 939.573 42.5618C939.281 42.7242 939.051 42.9612 938.882 43.2727C938.713 43.5843 938.628 43.9621 938.628 44.4062Z" fill="black"/>
</svg>
