<svg width="1000" height="454" viewBox="0 0 1000 454" fill="none" xmlns="http://www.w3.org/2000/svg">
<rect width="1000" height="454" fill="#F5F5F5"/>
<rect x="0.5" y="0.5" width="999" height="453" fill="white"/>
<rect x="0.5" y="0.5" width="999" height="453" stroke="black"/>
<rect x="71" y="61" width="378" height="346" rx="9" stroke="black" stroke-width="2" stroke-dasharray="2 2"/>
<rect x="291" y="105" width="120" height="46" stroke="black" stroke-width="2"/>
<path d="M327.744 135.256C327.053 135.256 326.426 135.125 325.862 134.865C325.299 134.6 324.851 134.219 324.52 133.722C324.188 133.22 324.023 132.614 324.023 131.903C324.023 131.278 324.146 130.772 324.392 130.384C324.638 129.991 324.967 129.683 325.379 129.46C325.791 129.238 326.246 129.072 326.743 128.963C327.245 128.849 327.749 128.759 328.256 128.693C328.919 128.608 329.456 128.544 329.868 128.501C330.285 128.454 330.588 128.376 330.777 128.267C330.971 128.158 331.068 127.969 331.068 127.699V127.642C331.068 126.941 330.876 126.397 330.493 126.009C330.114 125.62 329.539 125.426 328.767 125.426C327.967 125.426 327.339 125.601 326.885 125.952C326.43 126.302 326.111 126.676 325.926 127.074L324.335 126.506C324.619 125.843 324.998 125.327 325.472 124.957C325.95 124.583 326.471 124.323 327.034 124.176C327.602 124.025 328.161 123.949 328.71 123.949C329.061 123.949 329.463 123.991 329.918 124.077C330.377 124.157 330.82 124.325 331.246 124.581C331.677 124.837 332.034 125.223 332.318 125.739C332.602 126.255 332.744 126.946 332.744 127.812V135H331.068V133.523H330.983C330.869 133.759 330.68 134.013 330.415 134.283C330.15 134.553 329.797 134.782 329.357 134.972C328.916 135.161 328.379 135.256 327.744 135.256ZM328 133.75C328.663 133.75 329.222 133.62 329.676 133.359C330.135 133.099 330.481 132.763 330.713 132.351C330.95 131.939 331.068 131.506 331.068 131.051V129.517C330.997 129.602 330.841 129.68 330.599 129.751C330.363 129.818 330.088 129.877 329.776 129.929C329.468 129.976 329.167 130.019 328.874 130.057C328.585 130.09 328.35 130.118 328.17 130.142C327.735 130.199 327.328 130.291 326.949 130.419C326.575 130.542 326.272 130.729 326.04 130.98C325.813 131.226 325.699 131.562 325.699 131.989C325.699 132.571 325.914 133.011 326.345 133.31C326.781 133.603 327.332 133.75 328 133.75ZM340.207 139.318C339.397 139.318 338.701 139.214 338.119 139.006C337.537 138.802 337.051 138.532 336.663 138.196C336.279 137.865 335.974 137.509 335.747 137.131L337.082 136.193C337.234 136.392 337.425 136.619 337.657 136.875C337.889 137.135 338.207 137.36 338.609 137.55C339.016 137.744 339.549 137.841 340.207 137.841C341.088 137.841 341.815 137.628 342.387 137.202C342.96 136.776 343.247 136.108 343.247 135.199V132.983H343.105C342.982 133.182 342.806 133.428 342.579 133.722C342.357 134.01 342.035 134.268 341.613 134.496C341.197 134.718 340.633 134.83 339.923 134.83C339.042 134.83 338.252 134.621 337.551 134.205C336.855 133.788 336.303 133.182 335.896 132.386C335.493 131.591 335.292 130.625 335.292 129.489C335.292 128.371 335.489 127.398 335.882 126.57C336.275 125.736 336.822 125.092 337.522 124.638C338.223 124.179 339.033 123.949 339.951 123.949C340.662 123.949 341.225 124.067 341.642 124.304C342.063 124.536 342.385 124.801 342.608 125.099C342.835 125.393 343.01 125.634 343.133 125.824H343.304V124.091H344.923V135.312C344.923 136.25 344.71 137.012 344.284 137.599C343.862 138.191 343.294 138.625 342.579 138.899C341.869 139.179 341.078 139.318 340.207 139.318ZM340.15 133.324C340.823 133.324 341.391 133.17 341.855 132.862C342.319 132.554 342.672 132.112 342.913 131.534C343.154 130.956 343.275 130.265 343.275 129.46C343.275 128.674 343.157 127.981 342.92 127.379C342.683 126.778 342.333 126.307 341.869 125.966C341.405 125.625 340.832 125.455 340.15 125.455C339.44 125.455 338.848 125.634 338.375 125.994C337.906 126.354 337.553 126.837 337.316 127.443C337.084 128.049 336.968 128.722 336.968 129.46C336.968 130.218 337.087 130.888 337.324 131.47C337.565 132.048 337.92 132.502 338.389 132.834C338.862 133.161 339.449 133.324 340.15 133.324ZM352.565 135.227C351.514 135.227 350.607 134.995 349.845 134.531C349.087 134.062 348.502 133.409 348.091 132.571C347.683 131.728 347.48 130.748 347.48 129.631C347.48 128.513 347.683 127.528 348.091 126.676C348.502 125.819 349.075 125.152 349.809 124.673C350.548 124.19 351.41 123.949 352.395 123.949C352.963 123.949 353.524 124.044 354.078 124.233C354.632 124.422 355.136 124.73 355.591 125.156C356.045 125.578 356.407 126.136 356.677 126.832C356.947 127.528 357.082 128.385 357.082 129.403V130.114H348.673V128.665H355.377C355.377 128.049 355.254 127.5 355.008 127.017C354.767 126.534 354.421 126.153 353.971 125.874C353.526 125.594 353.001 125.455 352.395 125.455C351.727 125.455 351.149 125.62 350.662 125.952C350.179 126.278 349.807 126.705 349.547 127.23C349.286 127.756 349.156 128.319 349.156 128.92V129.886C349.156 130.71 349.298 131.409 349.582 131.982C349.871 132.55 350.271 132.983 350.782 133.281C351.294 133.575 351.888 133.722 352.565 133.722C353.005 133.722 353.403 133.66 353.758 133.537C354.118 133.409 354.428 133.22 354.689 132.969C354.949 132.713 355.15 132.396 355.292 132.017L356.912 132.472C356.741 133.021 356.455 133.504 356.052 133.92C355.65 134.332 355.153 134.654 354.561 134.886C353.969 135.114 353.304 135.227 352.565 135.227ZM361.308 128.438V135H359.632V124.091H361.251V125.795H361.393C361.649 125.241 362.037 124.796 362.558 124.46C363.079 124.119 363.751 123.949 364.575 123.949C365.314 123.949 365.96 124.1 366.514 124.403C367.068 124.702 367.499 125.156 367.806 125.767C368.114 126.373 368.268 127.14 368.268 128.068V135H366.592V128.182C366.592 127.325 366.369 126.657 365.924 126.179C365.479 125.696 364.868 125.455 364.092 125.455C363.557 125.455 363.079 125.571 362.657 125.803C362.241 126.035 361.912 126.373 361.67 126.818C361.429 127.263 361.308 127.803 361.308 128.438ZM376.075 124.091V125.511H370.422V124.091H376.075ZM372.07 121.477H373.746V131.875C373.746 132.348 373.814 132.704 373.952 132.94C374.094 133.172 374.274 133.329 374.491 133.409C374.714 133.485 374.948 133.523 375.195 133.523C375.379 133.523 375.531 133.513 375.649 133.494C375.768 133.471 375.862 133.452 375.933 133.438L376.274 134.943C376.161 134.986 376.002 135.028 375.798 135.071C375.595 135.118 375.337 135.142 375.024 135.142C374.551 135.142 374.087 135.04 373.632 134.837C373.182 134.633 372.808 134.323 372.51 133.906C372.216 133.49 372.07 132.964 372.07 132.33V121.477Z" fill="black"/>
<path d="M405.092 127.854C404.169 130.651 405.688 133.667 408.485 134.59C411.282 135.513 414.298 133.994 415.221 131.197C416.144 128.4 414.625 125.384 411.828 124.461C409.031 123.537 406.015 125.057 405.092 127.854ZM708.092 227.854C707.169 230.651 708.688 233.667 711.485 234.59C714.282 235.513 717.298 233.994 718.221 231.197C719.144 228.4 717.625 225.384 714.828 224.461C712.031 223.537 709.015 225.057 708.092 227.854ZM605.416 114.365L605.493 115.362L605.416 114.365ZM713.157 214.065L712.157 214.065L713.157 214.065ZM410.234 130.522L412.268 130.364L412.113 128.37L410.079 128.528L410.234 130.522ZM416.336 130.048L420.404 129.733L420.249 127.739L416.181 128.054L416.336 130.048ZM424.472 129.417L428.539 129.101L428.385 127.107L424.317 127.423L424.472 129.417ZM432.607 128.785L436.675 128.469L436.52 126.475L432.453 126.791L432.607 128.785ZM440.743 128.153L444.811 127.838L444.656 125.844L440.588 126.159L440.743 128.153ZM448.879 127.522L452.947 127.206L452.792 125.212L448.724 125.528L448.879 127.522ZM457.015 126.89L461.083 126.574L460.928 124.58L456.86 124.896L457.015 126.89ZM465.151 126.258L469.219 125.943L469.064 123.949L464.996 124.264L465.151 126.258ZM473.286 125.627L477.354 125.311L477.199 123.317L473.132 123.633L473.286 125.627ZM481.422 124.995L485.49 124.679L485.335 122.685L481.267 123.001L481.422 124.995ZM489.558 124.363L493.626 124.048L493.471 122.054L489.403 122.369L489.558 124.363ZM497.694 123.732L501.762 123.416L501.607 121.422L497.539 121.738L497.694 123.732ZM505.83 123.1L509.898 122.784L509.743 120.79L505.675 121.106L505.83 123.1ZM513.965 122.468L518.033 122.153L517.879 120.159L513.811 120.474L513.965 122.468ZM522.101 121.837L526.169 121.521L526.014 119.527L521.946 119.843L522.101 121.837ZM530.237 121.205L534.305 120.889L534.15 118.895L530.082 119.211L530.237 121.205ZM538.373 120.573L542.441 120.258L542.286 118.264L538.218 118.579L538.373 120.573ZM546.509 119.942L550.577 119.626L550.422 117.632L546.354 117.948L546.509 119.942ZM554.644 119.31L558.712 118.994L558.558 117L554.49 117.316L554.644 119.31ZM562.78 118.678L566.848 118.363L566.693 116.369L562.625 116.684L562.78 118.678ZM570.916 118.047L574.984 117.731L574.829 115.737L570.761 116.053L570.916 118.047ZM579.052 117.415L583.12 117.099L582.965 115.105L578.897 115.421L579.052 117.415ZM587.188 116.783L591.256 116.468L591.101 114.474L587.033 114.789L587.188 116.783ZM595.323 116.152L599.391 115.836L599.236 113.842L595.169 114.158L595.323 116.152ZM603.459 115.52L605.493 115.362L605.338 113.368L603.304 113.526L603.459 115.52ZM605.493 115.362C606.143 115.312 606.792 115.268 607.44 115.23L607.324 113.233C606.663 113.272 606.001 113.317 605.338 113.368L605.493 115.362ZM611.318 115.078C612.619 115.053 613.916 115.053 615.206 115.077L615.245 113.078C613.928 113.052 612.606 113.053 611.279 113.079L611.318 115.078ZM619.091 115.228C620.388 115.304 621.679 115.405 622.963 115.531L623.158 113.54C621.848 113.412 620.531 113.309 619.208 113.231L619.091 115.228ZM626.818 115.985C628.106 116.163 629.386 116.365 630.658 116.593L631.01 114.624C629.712 114.392 628.405 114.185 627.092 114.004L626.818 115.985ZM634.47 117.351C635.738 117.63 636.997 117.933 638.246 118.26L638.753 116.325C637.477 115.991 636.193 115.682 634.899 115.398L634.47 117.351ZM641.983 119.317C643.224 119.695 644.456 120.097 645.677 120.522L646.335 118.633C645.089 118.199 643.832 117.789 642.565 117.403L641.983 119.317ZM649.321 121.872C650.529 122.347 651.724 122.845 652.908 123.365L653.713 121.534C652.505 121.003 651.285 120.495 650.053 120.011L649.321 121.872ZM656.433 124.998C657.599 125.566 658.752 126.156 659.891 126.768L660.838 125.006C659.675 124.381 658.498 123.779 657.309 123.2L656.433 124.998ZM663.279 128.673C664.396 129.331 665.499 130.01 666.588 130.709L667.669 129.027C666.559 128.313 665.433 127.62 664.293 126.95L663.279 128.673ZM669.815 132.873C670.877 133.616 671.924 134.379 672.956 135.161L674.165 133.568C673.113 132.77 672.045 131.992 670.961 131.234L669.815 132.873ZM676.005 137.571C677.005 138.394 677.99 139.236 678.957 140.097L680.287 138.603C679.3 137.725 678.296 136.865 677.275 136.026L676.005 137.571ZM681.809 142.736C682.743 143.634 683.659 144.55 684.556 145.484L685.998 144.098C685.082 143.146 684.148 142.211 683.196 141.295L681.809 142.736ZM687.195 148.338C688.055 149.305 688.896 150.29 689.719 151.291L691.264 150.022C690.425 149.001 689.567 147.996 688.689 147.009L687.195 148.338ZM692.126 154.341C692.908 155.373 693.67 156.42 694.412 157.483L696.052 156.338C695.295 155.254 694.518 154.186 693.72 153.133L692.126 154.341ZM696.574 160.713C697.273 161.802 697.95 162.906 698.607 164.024L700.332 163.011C699.662 161.871 698.97 160.744 698.258 159.633L696.574 160.713ZM700.507 167.412C701.118 168.552 701.707 169.706 702.273 170.872L704.072 169.999C703.494 168.808 702.893 167.631 702.271 166.468L700.507 167.412ZM703.902 174.401C704.42 175.586 704.916 176.782 705.389 177.991L707.252 177.262C706.769 176.029 706.263 174.808 705.734 173.599L703.902 174.401ZM706.732 181.634C707.155 182.855 707.555 184.087 707.93 185.329L709.845 184.75C709.461 183.483 709.053 182.226 708.622 180.98L706.732 181.634ZM708.982 189.071C709.307 190.322 709.608 191.582 709.885 192.852L711.839 192.426C711.556 191.131 711.249 189.844 710.918 188.568L708.982 189.071ZM710.636 196.66C710.861 197.931 711.062 199.21 711.238 200.498L713.219 200.227C713.04 198.913 712.835 197.608 712.606 196.312L710.636 196.66ZM711.689 204.359C711.813 205.644 711.913 206.936 711.988 208.236L713.985 208.12C713.908 206.795 713.806 205.477 713.679 204.166L711.689 204.359ZM712.138 212.114C712.15 212.763 712.157 213.413 712.157 214.065L714.157 214.065C714.157 213.4 714.15 212.737 714.137 212.075L712.138 212.114ZM712.157 214.065L712.157 215.998L714.157 215.998L714.157 214.065L712.157 214.065ZM712.157 219.863L712.157 223.728L714.157 223.728L714.157 219.863L712.157 219.863ZM712.157 227.593L712.157 229.525L714.157 229.525L714.157 227.593L712.157 227.593Z" fill="black"/>
<path d="M351.559 148.232C350.03 145.714 346.75 144.912 344.232 146.441C341.714 147.97 340.912 151.25 342.441 153.768C343.97 156.286 347.25 157.088 349.768 155.559C352.286 154.03 353.088 150.75 351.559 148.232ZM255.559 225.232C254.03 222.714 250.75 221.912 248.232 223.441C245.714 224.97 244.912 228.25 246.441 230.768C247.97 233.286 251.25 234.088 253.768 232.559C256.286 231.03 257.088 227.75 255.559 225.232ZM346.374 150.22L344.774 151.503L346.026 153.063L347.626 151.78L346.374 150.22ZM341.574 154.07L338.374 156.637L339.626 158.197L342.826 155.63L341.574 154.07ZM335.174 159.203L331.974 161.77L333.226 163.33L336.426 160.763L335.174 159.203ZM328.774 164.337L325.574 166.903L326.826 168.463L330.026 165.897L328.774 164.337ZM322.374 169.47L319.174 172.037L320.426 173.597L323.626 171.03L322.374 169.47ZM315.974 174.603L312.774 177.17L314.026 178.73L317.226 176.163L315.974 174.603ZM309.574 179.737L306.374 182.303L307.626 183.863L310.826 181.297L309.574 179.737ZM303.174 184.87L299.974 187.437L301.226 188.997L304.426 186.43L303.174 184.87ZM296.774 190.003L293.574 192.57L294.826 194.13L298.026 191.563L296.774 190.003ZM290.374 195.137L287.174 197.703L288.426 199.263L291.626 196.697L290.374 195.137ZM283.974 200.27L280.774 202.837L282.026 204.397L285.226 201.83L283.974 200.27ZM277.574 205.403L274.374 207.97L275.626 209.53L278.826 206.963L277.574 205.403ZM271.174 210.537L267.974 213.103L269.226 214.663L272.426 212.097L271.174 210.537ZM264.774 215.67L261.574 218.237L262.826 219.797L266.026 217.23L264.774 215.67ZM258.374 220.803L255.174 223.37L256.426 224.93L259.626 222.363L258.374 220.803ZM251.974 225.937L250.374 227.22L251.626 228.78L253.226 227.497L251.974 225.937Z" fill="black"/>
<rect x="171" y="229" width="157" height="48" stroke="black" stroke-width="2"/>
<path d="M229.957 259.159C229.321 259.159 228.759 258.998 228.272 258.677C227.785 258.352 227.404 257.895 227.129 257.305C226.853 256.711 226.716 256.01 226.716 255.202C226.716 254.4 226.853 253.704 227.129 253.114C227.404 252.524 227.786 252.068 228.277 251.746C228.768 251.425 229.334 251.264 229.977 251.264C230.474 251.264 230.867 251.347 231.156 251.513C231.447 251.675 231.669 251.861 231.822 252.07C231.978 252.275 232.098 252.444 232.185 252.577H232.284V248.818H233.457V259H232.324V257.827H232.185C232.098 257.966 231.976 258.142 231.817 258.354C231.658 258.562 231.431 258.75 231.136 258.915C230.841 259.078 230.448 259.159 229.957 259.159ZM230.116 258.105C230.587 258.105 230.985 257.982 231.31 257.737C231.634 257.489 231.881 257.146 232.05 256.708C232.219 256.267 232.304 255.759 232.304 255.182C232.304 254.612 232.221 254.113 232.055 253.685C231.89 253.254 231.644 252.92 231.32 252.681C230.995 252.439 230.594 252.318 230.116 252.318C229.619 252.318 229.205 252.446 228.874 252.701C228.545 252.953 228.299 253.296 228.133 253.73C227.97 254.161 227.889 254.645 227.889 255.182C227.889 255.725 227.972 256.219 228.138 256.663C228.307 257.104 228.555 257.455 228.884 257.717C229.215 257.976 229.626 258.105 230.116 258.105ZM238.971 259.159C238.235 259.159 237.6 258.997 237.067 258.672C236.536 258.344 236.127 257.886 235.839 257.3C235.554 256.71 235.411 256.024 235.411 255.241C235.411 254.459 235.554 253.77 235.839 253.173C236.127 252.573 236.528 252.106 237.042 251.771C237.559 251.433 238.162 251.264 238.852 251.264C239.249 251.264 239.642 251.33 240.03 251.463C240.418 251.596 240.771 251.811 241.089 252.109C241.407 252.404 241.661 252.795 241.849 253.283C242.038 253.77 242.133 254.37 242.133 255.082V255.58H236.246V254.565H240.94C240.94 254.134 240.853 253.75 240.681 253.412C240.512 253.074 240.27 252.807 239.955 252.612C239.644 252.416 239.276 252.318 238.852 252.318C238.384 252.318 237.98 252.434 237.638 252.666C237.3 252.895 237.04 253.193 236.858 253.561C236.676 253.929 236.585 254.323 236.585 254.744V255.42C236.585 255.997 236.684 256.486 236.883 256.887C237.085 257.285 237.365 257.588 237.723 257.797C238.081 258.002 238.497 258.105 238.971 258.105C239.279 258.105 239.558 258.062 239.806 257.976C240.058 257.886 240.275 257.754 240.457 257.578C240.64 257.399 240.781 257.177 240.88 256.912L242.013 257.23C241.894 257.615 241.694 257.953 241.412 258.244C241.13 258.533 240.782 258.758 240.368 258.92C239.954 259.08 239.488 259.159 238.971 259.159ZM249.93 251.364L247.106 259H245.912L243.089 251.364H244.361L246.469 257.449H246.549L248.657 251.364H249.93ZM251.478 259V251.364H252.651V259H251.478ZM252.075 250.091C251.846 250.091 251.649 250.013 251.483 249.857C251.321 249.701 251.24 249.514 251.24 249.295C251.24 249.077 251.321 248.889 251.483 248.734C251.649 248.578 251.846 248.5 252.075 248.5C252.303 248.5 252.499 248.578 252.661 248.734C252.827 248.889 252.91 249.077 252.91 249.295C252.91 249.514 252.827 249.701 252.661 249.857C252.499 250.013 252.303 250.091 252.075 250.091ZM257.903 259.159C257.187 259.159 256.57 258.99 256.053 258.652C255.536 258.314 255.138 257.848 254.86 257.255C254.582 256.662 254.442 255.984 254.442 255.222C254.442 254.446 254.585 253.762 254.87 253.168C255.158 252.572 255.559 252.106 256.073 251.771C256.59 251.433 257.193 251.264 257.883 251.264C258.42 251.264 258.904 251.364 259.335 251.562C259.765 251.761 260.118 252.04 260.393 252.398C260.669 252.756 260.839 253.173 260.906 253.651H259.732C259.643 253.303 259.444 252.994 259.136 252.726C258.831 252.454 258.42 252.318 257.903 252.318C257.445 252.318 257.044 252.437 256.7 252.676C256.358 252.911 256.091 253.245 255.899 253.675C255.71 254.103 255.616 254.605 255.616 255.182C255.616 255.772 255.709 256.286 255.894 256.723C256.083 257.161 256.348 257.5 256.69 257.742C257.034 257.984 257.439 258.105 257.903 258.105C258.208 258.105 258.484 258.052 258.733 257.946C258.982 257.84 259.192 257.688 259.364 257.489C259.537 257.29 259.659 257.051 259.732 256.773H260.906C260.839 257.223 260.675 257.629 260.413 257.991C260.155 258.349 259.812 258.634 259.384 258.846C258.96 259.055 258.466 259.159 257.903 259.159ZM265.822 259.159C265.087 259.159 264.452 258.997 263.918 258.672C263.388 258.344 262.979 257.886 262.69 257.3C262.405 256.71 262.263 256.024 262.263 255.241C262.263 254.459 262.405 253.77 262.69 253.173C262.979 252.573 263.38 252.106 263.893 251.771C264.411 251.433 265.014 251.264 265.703 251.264C266.101 251.264 266.494 251.33 266.881 251.463C267.269 251.596 267.622 251.811 267.94 252.109C268.259 252.404 268.512 252.795 268.701 253.283C268.89 253.77 268.984 254.37 268.984 255.082V255.58H263.098V254.565H267.791C267.791 254.134 267.705 253.75 267.533 253.412C267.364 253.074 267.122 252.807 266.807 252.612C266.495 252.416 266.127 252.318 265.703 252.318C265.236 252.318 264.831 252.434 264.49 252.666C264.152 252.895 263.892 253.193 263.71 253.561C263.527 253.929 263.436 254.323 263.436 254.744V255.42C263.436 255.997 263.536 256.486 263.734 256.887C263.937 257.285 264.217 257.588 264.575 257.797C264.933 258.002 265.348 258.105 265.822 258.105C266.131 258.105 266.409 258.062 266.658 257.976C266.91 257.886 267.127 257.754 267.309 257.578C267.491 257.399 267.632 257.177 267.732 256.912L268.865 257.23C268.746 257.615 268.545 257.953 268.263 258.244C267.982 258.533 267.634 258.758 267.219 258.92C266.805 259.08 266.339 259.159 265.822 259.159ZM278.266 248.818V259H277.033V250.111H276.974L274.488 251.761V250.509L277.033 248.818H278.266Z" fill="black"/>
<path d="M250 272.667C247.054 272.667 244.667 275.054 244.667 278C244.667 280.946 247.054 283.333 250 283.333C252.946 283.333 255.333 280.946 255.333 278C255.333 275.054 252.946 272.667 250 272.667ZM250 322.667C247.054 322.667 244.667 325.054 244.667 328C244.667 330.946 247.054 333.333 250 333.333C252.946 333.333 255.333 330.946 255.333 328C255.333 325.054 252.946 322.667 250 322.667ZM249 278V328H251V278H249Z" fill="black"/>
<rect x="171" y="329" width="157" height="49" stroke="black" stroke-width="2"/>
<path d="M228.957 360.159C228.321 360.159 227.759 359.998 227.272 359.677C226.785 359.352 226.404 358.895 226.129 358.305C225.853 357.711 225.716 357.01 225.716 356.202C225.716 355.4 225.853 354.704 226.129 354.114C226.404 353.524 226.786 353.068 227.277 352.746C227.768 352.425 228.334 352.264 228.977 352.264C229.474 352.264 229.867 352.347 230.156 352.513C230.447 352.675 230.669 352.861 230.822 353.07C230.978 353.275 231.098 353.444 231.185 353.577H231.284V349.818H232.457V360H231.324V358.827H231.185C231.098 358.966 230.976 359.142 230.817 359.354C230.658 359.562 230.431 359.75 230.136 359.915C229.841 360.078 229.448 360.159 228.957 360.159ZM229.116 359.105C229.587 359.105 229.985 358.982 230.31 358.737C230.634 358.489 230.881 358.146 231.05 357.708C231.219 357.267 231.304 356.759 231.304 356.182C231.304 355.612 231.221 355.113 231.055 354.685C230.89 354.254 230.644 353.92 230.32 353.681C229.995 353.439 229.594 353.318 229.116 353.318C228.619 353.318 228.205 353.446 227.874 353.701C227.545 353.953 227.299 354.296 227.133 354.73C226.97 355.161 226.889 355.645 226.889 356.182C226.889 356.725 226.972 357.219 227.138 357.663C227.307 358.104 227.555 358.455 227.884 358.717C228.215 358.976 228.626 359.105 229.116 359.105ZM237.971 360.159C237.235 360.159 236.6 359.997 236.067 359.672C235.536 359.344 235.127 358.886 234.839 358.3C234.554 357.71 234.411 357.024 234.411 356.241C234.411 355.459 234.554 354.77 234.839 354.173C235.127 353.573 235.528 353.106 236.042 352.771C236.559 352.433 237.162 352.264 237.852 352.264C238.249 352.264 238.642 352.33 239.03 352.463C239.418 352.596 239.771 352.811 240.089 353.109C240.407 353.404 240.661 353.795 240.849 354.283C241.038 354.77 241.133 355.37 241.133 356.082V356.58H235.246V355.565H239.94C239.94 355.134 239.853 354.75 239.681 354.412C239.512 354.074 239.27 353.807 238.955 353.612C238.644 353.416 238.276 353.318 237.852 353.318C237.384 353.318 236.98 353.434 236.638 353.666C236.3 353.895 236.04 354.193 235.858 354.561C235.676 354.929 235.585 355.323 235.585 355.744V356.42C235.585 356.997 235.684 357.486 235.883 357.887C236.085 358.285 236.365 358.588 236.723 358.797C237.081 359.002 237.497 359.105 237.971 359.105C238.279 359.105 238.558 359.062 238.806 358.976C239.058 358.886 239.275 358.754 239.457 358.578C239.64 358.399 239.781 358.177 239.88 357.912L241.013 358.23C240.894 358.615 240.694 358.953 240.412 359.244C240.13 359.533 239.782 359.758 239.368 359.92C238.954 360.08 238.488 360.159 237.971 360.159ZM248.93 352.364L246.106 360H244.912L242.089 352.364H243.361L245.469 358.449H245.549L247.657 352.364H248.93ZM250.478 360V352.364H251.651V360H250.478ZM251.075 351.091C250.846 351.091 250.649 351.013 250.483 350.857C250.321 350.701 250.24 350.514 250.24 350.295C250.24 350.077 250.321 349.889 250.483 349.734C250.649 349.578 250.846 349.5 251.075 349.5C251.303 349.5 251.499 349.578 251.661 349.734C251.827 349.889 251.91 350.077 251.91 350.295C251.91 350.514 251.827 350.701 251.661 350.857C251.499 351.013 251.303 351.091 251.075 351.091ZM256.903 360.159C256.187 360.159 255.57 359.99 255.053 359.652C254.536 359.314 254.138 358.848 253.86 358.255C253.582 357.662 253.442 356.984 253.442 356.222C253.442 355.446 253.585 354.762 253.87 354.168C254.158 353.572 254.559 353.106 255.073 352.771C255.59 352.433 256.193 352.264 256.883 352.264C257.42 352.264 257.904 352.364 258.335 352.562C258.765 352.761 259.118 353.04 259.393 353.398C259.669 353.756 259.839 354.173 259.906 354.651H258.732C258.643 354.303 258.444 353.994 258.136 353.726C257.831 353.454 257.42 353.318 256.903 353.318C256.445 353.318 256.044 353.437 255.7 353.676C255.358 353.911 255.091 354.245 254.899 354.675C254.71 355.103 254.616 355.605 254.616 356.182C254.616 356.772 254.709 357.286 254.894 357.723C255.083 358.161 255.348 358.5 255.69 358.742C256.034 358.984 256.439 359.105 256.903 359.105C257.208 359.105 257.484 359.052 257.733 358.946C257.982 358.84 258.192 358.688 258.364 358.489C258.537 358.29 258.659 358.051 258.732 357.773H259.906C259.839 358.223 259.675 358.629 259.413 358.991C259.155 359.349 258.812 359.634 258.384 359.846C257.96 360.055 257.466 360.159 256.903 360.159ZM264.822 360.159C264.087 360.159 263.452 359.997 262.918 359.672C262.388 359.344 261.979 358.886 261.69 358.3C261.405 357.71 261.263 357.024 261.263 356.241C261.263 355.459 261.405 354.77 261.69 354.173C261.979 353.573 262.38 353.106 262.893 352.771C263.411 352.433 264.014 352.264 264.703 352.264C265.101 352.264 265.494 352.33 265.881 352.463C266.269 352.596 266.622 352.811 266.94 353.109C267.259 353.404 267.512 353.795 267.701 354.283C267.89 354.77 267.984 355.37 267.984 356.082V356.58H262.098V355.565H266.791C266.791 355.134 266.705 354.75 266.533 354.412C266.364 354.074 266.122 353.807 265.807 353.612C265.495 353.416 265.127 353.318 264.703 353.318C264.236 353.318 263.831 353.434 263.49 353.666C263.152 353.895 262.892 354.193 262.71 354.561C262.527 354.929 262.436 355.323 262.436 355.744V356.42C262.436 356.997 262.536 357.486 262.734 357.887C262.937 358.285 263.217 358.588 263.575 358.797C263.933 359.002 264.348 359.105 264.822 359.105C265.131 359.105 265.409 359.062 265.658 358.976C265.91 358.886 266.127 358.754 266.309 358.578C266.491 358.399 266.632 358.177 266.732 357.912L267.865 358.23C267.746 358.615 267.545 358.953 267.263 359.244C266.982 359.533 266.634 359.758 266.219 359.92C265.805 360.08 265.339 360.159 264.822 360.159ZM273.687 360V359.105L277.048 355.426C277.442 354.995 277.767 354.621 278.022 354.303C278.277 353.981 278.466 353.679 278.589 353.398C278.715 353.113 278.778 352.814 278.778 352.503C278.778 352.145 278.692 351.835 278.519 351.573C278.35 351.311 278.118 351.109 277.823 350.967C277.528 350.824 277.197 350.753 276.829 350.753C276.438 350.753 276.096 350.834 275.805 350.996C275.516 351.156 275.293 351.379 275.134 351.668C274.978 351.956 274.9 352.294 274.9 352.682H273.727C273.727 352.085 273.864 351.562 274.139 351.111C274.414 350.66 274.789 350.309 275.263 350.057C275.74 349.805 276.275 349.679 276.869 349.679C277.465 349.679 277.994 349.805 278.455 350.057C278.915 350.309 279.277 350.648 279.538 351.076C279.8 351.504 279.931 351.979 279.931 352.503C279.931 352.877 279.863 353.244 279.727 353.602C279.595 353.956 279.363 354.352 279.031 354.79C278.703 355.224 278.247 355.754 277.664 356.381L275.377 358.827V358.906H280.11V360H273.687Z" fill="black"/>
<path d="M91.8295 93H89.6136L96.0227 75.5455H98.2045L104.614 93H102.398L97.1818 78.3068H97.0455L91.8295 93ZM92.6477 86.1818H101.58V88.0568H92.6477V86.1818ZM109.071 75.5455V93H107.06V75.5455H109.071ZM112.755 93V79.9091H114.766V93H112.755ZM113.778 77.7273C113.386 77.7273 113.048 77.5938 112.763 77.3267C112.485 77.0597 112.346 76.7386 112.346 76.3636C112.346 75.9886 112.485 75.6676 112.763 75.4006C113.048 75.1335 113.386 75 113.778 75C114.17 75 114.505 75.1335 114.783 75.4006C115.067 75.6676 115.21 75.9886 115.21 76.3636C115.21 76.7386 115.067 77.0597 114.783 77.3267C114.505 77.5938 114.17 77.7273 113.778 77.7273ZM123.768 93.2727C122.541 93.2727 121.484 92.983 120.598 92.4034C119.712 91.8239 119.03 91.0256 118.553 90.0085C118.075 88.9915 117.837 87.8295 117.837 86.5227C117.837 85.1932 118.081 84.0199 118.57 83.0028C119.064 81.9801 119.751 81.1818 120.632 80.608C121.518 80.0284 122.553 79.7386 123.734 79.7386C124.655 79.7386 125.484 79.9091 126.223 80.25C126.962 80.5909 127.567 81.0682 128.038 81.6818C128.51 82.2955 128.803 83.0114 128.916 83.8295H126.905C126.751 83.233 126.411 82.7045 125.882 82.2443C125.359 81.7784 124.655 81.5455 123.768 81.5455C122.984 81.5455 122.297 81.75 121.706 82.1591C121.121 82.5625 120.663 83.1335 120.334 83.8722C120.01 84.6051 119.848 85.4659 119.848 86.4545C119.848 87.4659 120.007 88.3466 120.325 89.0966C120.649 89.8466 121.104 90.429 121.689 90.8438C122.28 91.2585 122.973 91.4659 123.768 91.4659C124.291 91.4659 124.766 91.375 125.192 91.1932C125.618 91.0114 125.979 90.75 126.274 90.4091C126.57 90.0682 126.78 89.6591 126.905 89.1818H128.916C128.803 89.9545 128.521 90.6506 128.072 91.2699C127.629 91.8835 127.041 92.3722 126.308 92.7358C125.581 93.0938 124.734 93.2727 123.768 93.2727ZM137.345 93.2727C136.084 93.2727 134.996 92.9943 134.081 92.4375C133.172 91.875 132.47 91.0909 131.976 90.0852C131.487 89.0739 131.243 87.8977 131.243 86.5568C131.243 85.2159 131.487 84.0341 131.976 83.0114C132.47 81.983 133.158 81.1818 134.038 80.608C134.925 80.0284 135.959 79.7386 137.141 79.7386C137.822 79.7386 138.496 79.8523 139.161 80.0795C139.825 80.3068 140.43 80.6761 140.976 81.1875C141.521 81.6932 141.956 82.3636 142.28 83.1989C142.604 84.0341 142.766 85.0625 142.766 86.2841V87.1364H132.675V85.3977H140.72C140.72 84.6591 140.572 84 140.277 83.4205C139.987 82.8409 139.572 82.3835 139.033 82.0483C138.499 81.7131 137.868 81.5455 137.141 81.5455C136.339 81.5455 135.646 81.7443 135.061 82.142C134.482 82.5341 134.036 83.0455 133.723 83.6761C133.411 84.3068 133.254 84.983 133.254 85.7045V86.8636C133.254 87.8523 133.425 88.6903 133.766 89.3778C134.112 90.0597 134.592 90.5795 135.206 90.9375C135.82 91.2898 136.533 91.4659 137.345 91.4659C137.874 91.4659 138.351 91.392 138.777 91.2443C139.209 91.0909 139.581 90.8636 139.893 90.5625C140.206 90.2557 140.447 89.875 140.618 89.4205L142.561 89.9659C142.357 90.625 142.013 91.2045 141.53 91.7045C141.047 92.1989 140.45 92.5852 139.74 92.8636C139.03 93.1364 138.232 93.2727 137.345 93.2727ZM147.598 75.5455V77.0795C147.598 77.5455 147.513 78.0426 147.342 78.571C147.178 79.0938 146.933 79.6023 146.609 80.0966C146.291 80.5852 145.905 81.0114 145.45 81.375L144.359 80.4886C144.717 79.9773 145.027 79.446 145.288 78.8949C145.555 78.3381 145.689 77.7443 145.689 77.1136V75.5455H147.598ZM157.676 82.8409L155.869 83.3523C155.756 83.0511 155.588 82.7585 155.366 82.4744C155.151 82.1847 154.855 81.946 154.48 81.7585C154.105 81.571 153.625 81.4773 153.04 81.4773C152.239 81.4773 151.571 81.6619 151.037 82.0312C150.509 82.3949 150.244 82.858 150.244 83.4205C150.244 83.9205 150.426 84.3153 150.79 84.6051C151.153 84.8949 151.722 85.1364 152.494 85.3295L154.438 85.8068C155.608 86.0909 156.48 86.5256 157.054 87.1108C157.628 87.6903 157.915 88.4375 157.915 89.3523C157.915 90.1023 157.699 90.7727 157.267 91.3636C156.841 91.9545 156.244 92.4205 155.477 92.7614C154.71 93.1023 153.818 93.2727 152.801 93.2727C151.466 93.2727 150.361 92.983 149.486 92.4034C148.611 91.8239 148.057 90.9773 147.824 89.8636L149.733 89.3864C149.915 90.0909 150.259 90.6193 150.764 90.9716C151.276 91.3239 151.943 91.5 152.767 91.5C153.705 91.5 154.449 91.3011 155 90.9034C155.557 90.5 155.835 90.017 155.835 89.4545C155.835 89 155.676 88.6193 155.358 88.3125C155.04 88 154.551 87.767 153.892 87.6136L151.71 87.1023C150.511 86.8182 149.631 86.3778 149.068 85.7812C148.511 85.179 148.233 84.4261 148.233 83.5227C148.233 82.7841 148.44 82.1307 148.855 81.5625C149.276 80.9943 149.847 80.5483 150.568 80.2244C151.295 79.9006 152.119 79.7386 153.04 79.7386C154.335 79.7386 155.352 80.0227 156.091 80.5909C156.835 81.1591 157.364 81.9091 157.676 82.8409ZM167.692 93V79.9091H169.704V93H167.692ZM168.715 77.7273C168.323 77.7273 167.985 77.5938 167.701 77.3267C167.423 77.0597 167.283 76.7386 167.283 76.3636C167.283 75.9886 167.423 75.6676 167.701 75.4006C167.985 75.1335 168.323 75 168.715 75C169.107 75 169.442 75.1335 169.721 75.4006C170.005 75.6676 170.147 75.9886 170.147 76.3636C170.147 76.7386 170.005 77.0597 169.721 77.3267C169.442 77.5938 169.107 77.7273 168.715 77.7273ZM178.331 93.2727C177.24 93.2727 176.277 92.9972 175.442 92.446C174.607 91.8892 173.953 91.1051 173.482 90.0938C173.01 89.0767 172.774 87.875 172.774 86.4886C172.774 85.1136 173.01 83.9205 173.482 82.9091C173.953 81.8977 174.609 81.1165 175.45 80.5653C176.291 80.0142 177.263 79.7386 178.365 79.7386C179.217 79.7386 179.891 79.8807 180.385 80.1648C180.885 80.4432 181.266 80.7614 181.527 81.1193C181.794 81.4716 182.001 81.7614 182.149 81.9886H182.32V75.5455H184.331V93H182.388V90.9886H182.149C182.001 91.2273 181.791 91.5284 181.518 91.892C181.246 92.25 180.857 92.571 180.351 92.8551C179.845 93.1335 179.172 93.2727 178.331 93.2727ZM178.604 91.4659C179.411 91.4659 180.092 91.2557 180.649 90.8352C181.206 90.4091 181.629 89.821 181.919 89.071C182.209 88.3153 182.354 87.4432 182.354 86.4545C182.354 85.4773 182.212 84.6222 181.928 83.8892C181.643 83.1506 181.223 82.5767 180.666 82.1676C180.109 81.7528 179.422 81.5455 178.604 81.5455C177.751 81.5455 177.041 81.7642 176.473 82.2017C175.911 82.6335 175.487 83.2216 175.203 83.9659C174.925 84.7045 174.786 85.5341 174.786 86.4545C174.786 87.3864 174.928 88.233 175.212 88.9943C175.501 89.75 175.928 90.3523 176.49 90.8011C177.058 91.2443 177.763 91.4659 178.604 91.4659ZM193.783 93.2727C192.521 93.2727 191.433 92.9943 190.518 92.4375C189.609 91.875 188.908 91.0909 188.413 90.0852C187.925 89.0739 187.68 87.8977 187.68 86.5568C187.68 85.2159 187.925 84.0341 188.413 83.0114C188.908 81.983 189.595 81.1818 190.476 80.608C191.362 80.0284 192.396 79.7386 193.578 79.7386C194.26 79.7386 194.933 79.8523 195.598 80.0795C196.263 80.3068 196.868 80.6761 197.413 81.1875C197.959 81.6932 198.393 82.3636 198.717 83.1989C199.041 84.0341 199.203 85.0625 199.203 86.2841V87.1364H189.112V85.3977H197.158C197.158 84.6591 197.01 84 196.714 83.4205C196.425 82.8409 196.01 82.3835 195.47 82.0483C194.936 81.7131 194.305 81.5455 193.578 81.5455C192.777 81.5455 192.084 81.7443 191.499 82.142C190.919 82.5341 190.473 83.0455 190.161 83.6761C189.848 84.3068 189.692 84.983 189.692 85.7045V86.8636C189.692 87.8523 189.862 88.6903 190.203 89.3778C190.55 90.0597 191.03 90.5795 191.643 90.9375C192.257 91.2898 192.97 91.4659 193.783 91.4659C194.311 91.4659 194.788 91.392 195.214 91.2443C195.646 91.0909 196.018 90.8636 196.331 90.5625C196.643 90.2557 196.885 89.875 197.055 89.4205L198.999 89.9659C198.794 90.625 198.45 91.2045 197.967 91.7045C197.484 92.1989 196.888 92.5852 196.178 92.8636C195.467 93.1364 194.669 93.2727 193.783 93.2727ZM204.274 85.125V93H202.263V79.9091H204.206V81.9545H204.376C204.683 81.2898 205.149 80.7557 205.774 80.3523C206.399 79.9432 207.206 79.7386 208.195 79.7386C209.081 79.7386 209.857 79.9205 210.521 80.2841C211.186 80.642 211.703 81.1875 212.072 81.9205C212.442 82.6477 212.626 83.5682 212.626 84.6818V93H210.615V84.8182C210.615 83.7898 210.348 82.9886 209.814 82.4148C209.28 81.8352 208.547 81.5455 207.615 81.5455C206.973 81.5455 206.399 81.6847 205.893 81.9631C205.393 82.2415 204.999 82.6477 204.709 83.1818C204.419 83.7159 204.274 84.3636 204.274 85.125ZM221.995 79.9091V81.6136H215.211V79.9091H221.995ZM217.188 76.7727H219.2V89.25C219.2 89.8182 219.282 90.2443 219.447 90.5284C219.617 90.8068 219.833 90.9943 220.094 91.0909C220.362 91.1818 220.643 91.2273 220.938 91.2273C221.16 91.2273 221.342 91.2159 221.484 91.1932C221.626 91.1648 221.739 91.142 221.825 91.125L222.234 92.9318C222.097 92.983 221.907 93.0341 221.663 93.0852C221.418 93.142 221.109 93.1705 220.734 93.1705C220.165 93.1705 219.609 93.0483 219.063 92.804C218.523 92.5597 218.075 92.1875 217.717 91.6875C217.364 91.1875 217.188 90.5568 217.188 89.7955V76.7727ZM225.021 93V79.9091H227.032V93H225.021ZM226.043 77.7273C225.651 77.7273 225.313 77.5938 225.029 77.3267C224.751 77.0597 224.612 76.7386 224.612 76.3636C224.612 75.9886 224.751 75.6676 225.029 75.4006C225.313 75.1335 225.651 75 226.043 75C226.435 75 226.771 75.1335 227.049 75.4006C227.333 75.6676 227.475 75.9886 227.475 76.3636C227.475 76.7386 227.333 77.0597 227.049 77.3267C226.771 77.5938 226.435 77.7273 226.043 77.7273ZM236.409 79.9091V81.6136H229.625V79.9091H236.409ZM231.602 76.7727H233.614V89.25C233.614 89.8182 233.696 90.2443 233.861 90.5284C234.031 90.8068 234.247 90.9943 234.509 91.0909C234.776 91.1818 235.057 91.2273 235.352 91.2273C235.574 91.2273 235.756 91.2159 235.898 91.1932C236.04 91.1648 236.153 91.142 236.239 91.125L236.648 92.9318C236.511 92.983 236.321 93.0341 236.077 93.0852C235.832 93.142 235.523 93.1705 235.148 93.1705C234.58 93.1705 234.023 93.0483 233.477 92.804C232.938 92.5597 232.489 92.1875 232.131 91.6875C231.778 91.1875 231.602 90.5568 231.602 89.7955V76.7727ZM240.73 97.9091C240.389 97.9091 240.085 97.8807 239.818 97.8239C239.551 97.7727 239.366 97.7216 239.264 97.6705L239.776 95.8977C240.264 96.0227 240.696 96.0682 241.071 96.0341C241.446 96 241.778 95.8324 242.068 95.5312C242.364 95.2358 242.634 94.7557 242.878 94.0909L243.253 93.0682L238.412 79.9091H240.594L244.207 90.3409H244.344L247.957 79.9091H250.139L244.582 94.9091C244.332 95.5852 244.023 96.1449 243.653 96.5881C243.284 97.0369 242.855 97.3693 242.366 97.5852C241.884 97.8011 241.338 97.9091 240.73 97.9091Z" fill="black"/>
<path d="M323.667 253C323.667 255.946 326.054 258.333 329 258.333C331.946 258.333 334.333 255.946 334.333 253C334.333 250.054 331.946 247.667 329 247.667C326.054 247.667 323.667 250.054 323.667 253ZM624.667 253C624.667 255.946 627.054 258.333 630 258.333C632.946 258.333 635.333 255.946 635.333 253C635.333 250.054 632.946 247.667 630 247.667C627.054 247.667 624.667 250.054 624.667 253ZM329 254H630V252H329V254Z" fill="black"/>
<path d="M323.667 354.012C323.673 356.958 326.067 359.34 329.012 359.333C331.958 359.327 334.34 356.933 334.333 353.988C334.327 351.042 331.933 348.66 328.988 348.667C326.042 348.673 323.66 351.067 323.667 354.012ZM541.676 353.512C541.683 356.458 544.076 358.84 547.021 358.833C549.967 358.827 552.349 356.433 552.343 353.488C552.336 350.542 549.942 348.16 546.997 348.167C544.051 348.174 541.669 350.567 541.676 353.512ZM329.002 355L547.011 354.5L547.007 352.5L328.998 353L329.002 355Z" fill="black"/>
<rect x="501" y="170" width="428" height="238" rx="9" stroke="black" stroke-width="2" stroke-dasharray="2 2"/>
<rect x="630" y="230" width="159" height="47" stroke="black" stroke-width="2"/>
<path d="M689.957 260.159C689.321 260.159 688.759 259.998 688.272 259.677C687.785 259.352 687.404 258.895 687.129 258.305C686.853 257.711 686.716 257.01 686.716 256.202C686.716 255.4 686.853 254.704 687.129 254.114C687.404 253.524 687.786 253.068 688.277 252.746C688.768 252.425 689.334 252.264 689.977 252.264C690.474 252.264 690.867 252.347 691.156 252.513C691.447 252.675 691.669 252.861 691.822 253.07C691.978 253.275 692.098 253.444 692.185 253.577H692.284V249.818H693.457V260H692.324V258.827H692.185C692.098 258.966 691.976 259.142 691.817 259.354C691.658 259.562 691.431 259.75 691.136 259.915C690.841 260.078 690.448 260.159 689.957 260.159ZM690.116 259.105C690.587 259.105 690.985 258.982 691.31 258.737C691.634 258.489 691.881 258.146 692.05 257.708C692.219 257.267 692.304 256.759 692.304 256.182C692.304 255.612 692.221 255.113 692.055 254.685C691.89 254.254 691.644 253.92 691.32 253.681C690.995 253.439 690.594 253.318 690.116 253.318C689.619 253.318 689.205 253.446 688.874 253.701C688.545 253.953 688.299 254.296 688.133 254.73C687.97 255.161 687.889 255.645 687.889 256.182C687.889 256.725 687.972 257.219 688.138 257.663C688.307 258.104 688.555 258.455 688.884 258.717C689.215 258.976 689.626 259.105 690.116 259.105ZM698.971 260.159C698.235 260.159 697.6 259.997 697.067 259.672C696.536 259.344 696.127 258.886 695.839 258.3C695.554 257.71 695.411 257.024 695.411 256.241C695.411 255.459 695.554 254.77 695.839 254.173C696.127 253.573 696.528 253.106 697.042 252.771C697.559 252.433 698.162 252.264 698.852 252.264C699.249 252.264 699.642 252.33 700.03 252.463C700.418 252.596 700.771 252.811 701.089 253.109C701.407 253.404 701.661 253.795 701.849 254.283C702.038 254.77 702.133 255.37 702.133 256.082V256.58H696.246V255.565H700.94C700.94 255.134 700.853 254.75 700.681 254.412C700.512 254.074 700.27 253.807 699.955 253.612C699.644 253.416 699.276 253.318 698.852 253.318C698.384 253.318 697.98 253.434 697.638 253.666C697.3 253.895 697.04 254.193 696.858 254.561C696.676 254.929 696.585 255.323 696.585 255.744V256.42C696.585 256.997 696.684 257.486 696.883 257.887C697.085 258.285 697.365 258.588 697.723 258.797C698.081 259.002 698.497 259.105 698.971 259.105C699.279 259.105 699.558 259.062 699.806 258.976C700.058 258.886 700.275 258.754 700.457 258.578C700.64 258.399 700.781 258.177 700.88 257.912L702.013 258.23C701.894 258.615 701.694 258.953 701.412 259.244C701.13 259.533 700.782 259.758 700.368 259.92C699.954 260.08 699.488 260.159 698.971 260.159ZM709.93 252.364L707.106 260H705.912L703.089 252.364H704.361L706.469 258.449H706.549L708.657 252.364H709.93ZM711.478 260V252.364H712.651V260H711.478ZM712.075 251.091C711.846 251.091 711.649 251.013 711.483 250.857C711.321 250.701 711.24 250.514 711.24 250.295C711.24 250.077 711.321 249.889 711.483 249.734C711.649 249.578 711.846 249.5 712.075 249.5C712.303 249.5 712.499 249.578 712.661 249.734C712.827 249.889 712.91 250.077 712.91 250.295C712.91 250.514 712.827 250.701 712.661 250.857C712.499 251.013 712.303 251.091 712.075 251.091ZM717.903 260.159C717.187 260.159 716.57 259.99 716.053 259.652C715.536 259.314 715.138 258.848 714.86 258.255C714.582 257.662 714.442 256.984 714.442 256.222C714.442 255.446 714.585 254.762 714.87 254.168C715.158 253.572 715.559 253.106 716.073 252.771C716.59 252.433 717.193 252.264 717.883 252.264C718.42 252.264 718.904 252.364 719.335 252.562C719.765 252.761 720.118 253.04 720.393 253.398C720.669 253.756 720.839 254.173 720.906 254.651H719.732C719.643 254.303 719.444 253.994 719.136 253.726C718.831 253.454 718.42 253.318 717.903 253.318C717.445 253.318 717.044 253.437 716.7 253.676C716.358 253.911 716.091 254.245 715.899 254.675C715.71 255.103 715.616 255.605 715.616 256.182C715.616 256.772 715.709 257.286 715.894 257.723C716.083 258.161 716.348 258.5 716.69 258.742C717.034 258.984 717.439 259.105 717.903 259.105C718.208 259.105 718.484 259.052 718.733 258.946C718.982 258.84 719.192 258.688 719.364 258.489C719.537 258.29 719.659 258.051 719.732 257.773H720.906C720.839 258.223 720.675 258.629 720.413 258.991C720.155 259.349 719.812 259.634 719.384 259.846C718.96 260.055 718.466 260.159 717.903 260.159ZM725.822 260.159C725.087 260.159 724.452 259.997 723.918 259.672C723.388 259.344 722.979 258.886 722.69 258.3C722.405 257.71 722.263 257.024 722.263 256.241C722.263 255.459 722.405 254.77 722.69 254.173C722.979 253.573 723.38 253.106 723.893 252.771C724.411 252.433 725.014 252.264 725.703 252.264C726.101 252.264 726.494 252.33 726.881 252.463C727.269 252.596 727.622 252.811 727.94 253.109C728.259 253.404 728.512 253.795 728.701 254.283C728.89 254.77 728.984 255.37 728.984 256.082V256.58H723.098V255.565H727.791C727.791 255.134 727.705 254.75 727.533 254.412C727.364 254.074 727.122 253.807 726.807 253.612C726.495 253.416 726.127 253.318 725.703 253.318C725.236 253.318 724.831 253.434 724.49 253.666C724.152 253.895 723.892 254.193 723.71 254.561C723.527 254.929 723.436 255.323 723.436 255.744V256.42C723.436 256.997 723.536 257.486 723.734 257.887C723.937 258.285 724.217 258.588 724.575 258.797C724.933 259.002 725.348 259.105 725.822 259.105C726.131 259.105 726.409 259.062 726.658 258.976C726.91 258.886 727.127 258.754 727.309 258.578C727.491 258.399 727.632 258.177 727.732 257.912L728.865 258.23C728.746 258.615 728.545 258.953 728.263 259.244C727.982 259.533 727.634 259.758 727.219 259.92C726.805 260.08 726.339 260.159 725.822 260.159ZM738.266 249.818V260H737.033V251.111H736.974L734.488 252.761V251.509L737.033 249.818H738.266Z" fill="black"/>
<path d="M714.554 274.223C713.02 271.709 709.738 270.913 707.223 272.446C704.709 273.98 703.913 277.262 705.446 279.777C706.98 282.291 710.262 283.087 712.777 281.554C715.291 280.02 716.087 276.738 714.554 274.223ZM814.554 327.223C813.02 324.709 809.738 323.913 807.223 325.446C804.709 326.98 803.913 330.262 805.446 332.777C806.98 335.291 810.262 336.087 812.777 334.554C815.291 333.02 816.087 329.738 814.554 327.223ZM709.532 277.884L809.532 330.884L810.468 329.116L710.468 276.116L709.532 277.884Z" fill="black"/>
<path d="M715.084 273.956C713.656 271.379 710.41 270.449 707.834 271.877C705.258 273.305 704.327 276.551 705.755 279.127C707.183 281.703 710.429 282.634 713.005 281.206C715.582 279.778 716.512 276.532 715.084 273.956ZM624.526 328.165C623.098 325.589 619.852 324.658 617.276 326.086C614.7 327.514 613.769 330.76 615.197 333.336C616.625 335.913 619.871 336.843 622.448 335.415C625.024 333.987 625.954 330.741 624.526 328.165ZM709.906 275.683L664.627 302.788L665.654 304.504L710.933 277.399L709.906 275.683ZM664.627 302.788L619.348 329.893L620.375 331.609L665.654 304.504L664.627 302.788Z" fill="black"/>
<rect x="547" y="330" width="147" height="49" stroke="black" stroke-width="2"/>
<path d="M599.957 361.159C599.321 361.159 598.759 360.998 598.272 360.677C597.785 360.352 597.404 359.895 597.129 359.305C596.853 358.711 596.716 358.01 596.716 357.202C596.716 356.4 596.853 355.704 597.129 355.114C597.404 354.524 597.786 354.068 598.277 353.746C598.768 353.425 599.334 353.264 599.977 353.264C600.474 353.264 600.867 353.347 601.156 353.513C601.447 353.675 601.669 353.861 601.822 354.07C601.978 354.275 602.098 354.444 602.185 354.577H602.284V350.818H603.457V361H602.324V359.827H602.185C602.098 359.966 601.976 360.142 601.817 360.354C601.658 360.562 601.431 360.75 601.136 360.915C600.841 361.078 600.448 361.159 599.957 361.159ZM600.116 360.105C600.587 360.105 600.985 359.982 601.31 359.737C601.634 359.489 601.881 359.146 602.05 358.708C602.219 358.267 602.304 357.759 602.304 357.182C602.304 356.612 602.221 356.113 602.055 355.685C601.89 355.254 601.644 354.92 601.32 354.681C600.995 354.439 600.594 354.318 600.116 354.318C599.619 354.318 599.205 354.446 598.874 354.701C598.545 354.953 598.299 355.296 598.133 355.73C597.97 356.161 597.889 356.645 597.889 357.182C597.889 357.725 597.972 358.219 598.138 358.663C598.307 359.104 598.555 359.455 598.884 359.717C599.215 359.976 599.626 360.105 600.116 360.105ZM608.971 361.159C608.235 361.159 607.6 360.997 607.067 360.672C606.536 360.344 606.127 359.886 605.839 359.3C605.554 358.71 605.411 358.024 605.411 357.241C605.411 356.459 605.554 355.77 605.839 355.173C606.127 354.573 606.528 354.106 607.042 353.771C607.559 353.433 608.162 353.264 608.852 353.264C609.249 353.264 609.642 353.33 610.03 353.463C610.418 353.596 610.771 353.811 611.089 354.109C611.407 354.404 611.661 354.795 611.849 355.283C612.038 355.77 612.133 356.37 612.133 357.082V357.58H606.246V356.565H610.94C610.94 356.134 610.853 355.75 610.681 355.412C610.512 355.074 610.27 354.807 609.955 354.612C609.644 354.416 609.276 354.318 608.852 354.318C608.384 354.318 607.98 354.434 607.638 354.666C607.3 354.895 607.04 355.193 606.858 355.561C606.676 355.929 606.585 356.323 606.585 356.744V357.42C606.585 357.997 606.684 358.486 606.883 358.887C607.085 359.285 607.365 359.588 607.723 359.797C608.081 360.002 608.497 360.105 608.971 360.105C609.279 360.105 609.558 360.062 609.806 359.976C610.058 359.886 610.275 359.754 610.457 359.578C610.64 359.399 610.781 359.177 610.88 358.912L612.013 359.23C611.894 359.615 611.694 359.953 611.412 360.244C611.13 360.533 610.782 360.758 610.368 360.92C609.954 361.08 609.488 361.159 608.971 361.159ZM619.93 353.364L617.106 361H615.912L613.089 353.364H614.361L616.469 359.449H616.549L618.657 353.364H619.93ZM621.478 361V353.364H622.651V361H621.478ZM622.075 352.091C621.846 352.091 621.649 352.013 621.483 351.857C621.321 351.701 621.24 351.514 621.24 351.295C621.24 351.077 621.321 350.889 621.483 350.734C621.649 350.578 621.846 350.5 622.075 350.5C622.303 350.5 622.499 350.578 622.661 350.734C622.827 350.889 622.91 351.077 622.91 351.295C622.91 351.514 622.827 351.701 622.661 351.857C622.499 352.013 622.303 352.091 622.075 352.091ZM627.903 361.159C627.187 361.159 626.57 360.99 626.053 360.652C625.536 360.314 625.138 359.848 624.86 359.255C624.582 358.662 624.442 357.984 624.442 357.222C624.442 356.446 624.585 355.762 624.87 355.168C625.158 354.572 625.559 354.106 626.073 353.771C626.59 353.433 627.193 353.264 627.883 353.264C628.42 353.264 628.904 353.364 629.335 353.562C629.765 353.761 630.118 354.04 630.393 354.398C630.669 354.756 630.839 355.173 630.906 355.651H629.732C629.643 355.303 629.444 354.994 629.136 354.726C628.831 354.454 628.42 354.318 627.903 354.318C627.445 354.318 627.044 354.437 626.7 354.676C626.358 354.911 626.091 355.245 625.899 355.675C625.71 356.103 625.616 356.605 625.616 357.182C625.616 357.772 625.709 358.286 625.894 358.723C626.083 359.161 626.348 359.5 626.69 359.742C627.034 359.984 627.439 360.105 627.903 360.105C628.208 360.105 628.484 360.052 628.733 359.946C628.982 359.84 629.192 359.688 629.364 359.489C629.537 359.29 629.659 359.051 629.732 358.773H630.906C630.839 359.223 630.675 359.629 630.413 359.991C630.155 360.349 629.812 360.634 629.384 360.846C628.96 361.055 628.466 361.159 627.903 361.159ZM635.822 361.159C635.087 361.159 634.452 360.997 633.918 360.672C633.388 360.344 632.979 359.886 632.69 359.3C632.405 358.71 632.263 358.024 632.263 357.241C632.263 356.459 632.405 355.77 632.69 355.173C632.979 354.573 633.38 354.106 633.893 353.771C634.411 353.433 635.014 353.264 635.703 353.264C636.101 353.264 636.494 353.33 636.881 353.463C637.269 353.596 637.622 353.811 637.94 354.109C638.259 354.404 638.512 354.795 638.701 355.283C638.89 355.77 638.984 356.37 638.984 357.082V357.58H633.098V356.565H637.791C637.791 356.134 637.705 355.75 637.533 355.412C637.364 355.074 637.122 354.807 636.807 354.612C636.495 354.416 636.127 354.318 635.703 354.318C635.236 354.318 634.831 354.434 634.49 354.666C634.152 354.895 633.892 355.193 633.71 355.561C633.527 355.929 633.436 356.323 633.436 356.744V357.42C633.436 357.997 633.536 358.486 633.734 358.887C633.937 359.285 634.217 359.588 634.575 359.797C634.933 360.002 635.348 360.105 635.822 360.105C636.131 360.105 636.409 360.062 636.658 359.976C636.91 359.886 637.127 359.754 637.309 359.578C637.491 359.399 637.632 359.177 637.732 358.912L638.865 359.23C638.746 359.615 638.545 359.953 638.263 360.244C637.982 360.533 637.634 360.758 637.219 360.92C636.805 361.08 636.339 361.159 635.822 361.159ZM644.687 361V360.105L648.048 356.426C648.442 355.995 648.767 355.621 649.022 355.303C649.277 354.981 649.466 354.679 649.589 354.398C649.715 354.113 649.778 353.814 649.778 353.503C649.778 353.145 649.692 352.835 649.519 352.573C649.35 352.311 649.118 352.109 648.823 351.967C648.528 351.824 648.197 351.753 647.829 351.753C647.438 351.753 647.096 351.834 646.805 351.996C646.516 352.156 646.293 352.379 646.134 352.668C645.978 352.956 645.9 353.294 645.9 353.682H644.727C644.727 353.085 644.864 352.562 645.139 352.111C645.414 351.66 645.789 351.309 646.263 351.057C646.74 350.805 647.275 350.679 647.869 350.679C648.465 350.679 648.994 350.805 649.455 351.057C649.915 351.309 650.277 351.648 650.538 352.076C650.8 352.504 650.931 352.979 650.931 353.503C650.931 353.877 650.863 354.244 650.727 354.602C650.595 354.956 650.363 355.352 650.031 355.79C649.703 356.224 649.247 356.754 648.664 357.381L646.377 359.827V359.906H651.11V361H644.687Z" fill="black"/>
<path d="M689.667 355.071C689.707 358.017 692.126 360.372 695.071 360.333C698.017 360.293 700.372 357.874 700.333 354.929C700.293 351.983 697.874 349.628 694.929 349.667C691.983 349.707 689.628 352.126 689.667 355.071ZM726.726 354.575C726.766 357.52 729.185 359.876 732.131 359.836C735.076 359.797 737.432 357.377 737.392 354.432C737.353 351.487 734.933 349.131 731.988 349.171C729.043 349.21 726.687 351.63 726.726 354.575ZM695.013 356L732.073 355.503L732.046 353.504L694.987 354L695.013 356Z" fill="black"/>
<path d="M521.114 202V184.545H527.216C528.432 184.545 529.435 184.756 530.224 185.176C531.014 185.591 531.602 186.151 531.989 186.855C532.375 187.554 532.568 188.33 532.568 189.182C532.568 189.932 532.435 190.551 532.168 191.04C531.906 191.528 531.56 191.915 531.128 192.199C530.702 192.483 530.239 192.693 529.739 192.83V193C530.273 193.034 530.81 193.222 531.349 193.562C531.889 193.903 532.341 194.392 532.705 195.028C533.068 195.665 533.25 196.443 533.25 197.364C533.25 198.239 533.051 199.026 532.653 199.724C532.256 200.423 531.628 200.977 530.77 201.386C529.912 201.795 528.795 202 527.42 202H521.114ZM523.227 200.125H527.42C528.801 200.125 529.781 199.858 530.361 199.324C530.946 198.784 531.239 198.131 531.239 197.364C531.239 196.773 531.088 196.227 530.787 195.727C530.486 195.222 530.057 194.818 529.5 194.517C528.943 194.21 528.284 194.057 527.523 194.057H523.227V200.125ZM523.227 192.216H527.148C527.784 192.216 528.358 192.091 528.869 191.841C529.386 191.591 529.795 191.239 530.097 190.784C530.403 190.33 530.557 189.795 530.557 189.182C530.557 188.415 530.29 187.764 529.756 187.23C529.222 186.69 528.375 186.42 527.216 186.42H523.227V192.216ZM541.768 202.273C540.587 202.273 539.55 201.991 538.658 201.429C537.771 200.866 537.078 200.08 536.578 199.068C536.084 198.057 535.837 196.875 535.837 195.523C535.837 194.159 536.084 192.969 536.578 191.952C537.078 190.935 537.771 190.145 538.658 189.582C539.55 189.02 540.587 188.739 541.768 188.739C542.95 188.739 543.984 189.02 544.871 189.582C545.763 190.145 546.456 190.935 546.95 191.952C547.45 192.969 547.7 194.159 547.7 195.523C547.7 196.875 547.45 198.057 546.95 199.068C546.456 200.08 545.763 200.866 544.871 201.429C543.984 201.991 542.95 202.273 541.768 202.273ZM541.768 200.466C542.666 200.466 543.405 200.236 543.984 199.776C544.564 199.315 544.993 198.71 545.271 197.96C545.55 197.21 545.689 196.398 545.689 195.523C545.689 194.648 545.55 193.832 545.271 193.077C544.993 192.321 544.564 191.71 543.984 191.244C543.405 190.778 542.666 190.545 541.768 190.545C540.871 190.545 540.132 190.778 539.553 191.244C538.973 191.71 538.544 192.321 538.266 193.077C537.987 193.832 537.848 194.648 537.848 195.523C537.848 196.398 537.987 197.21 538.266 197.96C538.544 198.71 538.973 199.315 539.553 199.776C540.132 200.236 540.871 200.466 541.768 200.466ZM551.043 202V184.545H553.055V190.989H553.225C553.373 190.761 553.577 190.472 553.839 190.119C554.106 189.761 554.487 189.443 554.981 189.165C555.481 188.881 556.157 188.739 557.009 188.739C558.112 188.739 559.083 189.014 559.924 189.565C560.765 190.116 561.421 190.898 561.893 191.909C562.364 192.92 562.6 194.114 562.6 195.489C562.6 196.875 562.364 198.077 561.893 199.094C561.421 200.105 560.768 200.889 559.933 201.446C559.097 201.997 558.134 202.273 557.043 202.273C556.202 202.273 555.529 202.134 555.023 201.855C554.518 201.571 554.129 201.25 553.856 200.892C553.583 200.528 553.373 200.227 553.225 199.989H552.987V202H551.043ZM553.021 195.455C553.021 196.443 553.165 197.315 553.455 198.071C553.745 198.821 554.168 199.409 554.725 199.835C555.282 200.256 555.964 200.466 556.771 200.466C557.612 200.466 558.313 200.244 558.876 199.801C559.444 199.352 559.87 198.75 560.154 197.994C560.444 197.233 560.589 196.386 560.589 195.455C560.589 194.534 560.447 193.705 560.163 192.966C559.884 192.222 559.461 191.634 558.893 191.202C558.33 190.764 557.623 190.545 556.771 190.545C555.952 190.545 555.265 190.753 554.708 191.168C554.151 191.577 553.731 192.151 553.447 192.889C553.163 193.622 553.021 194.477 553.021 195.455ZM567.45 184.545V186.08C567.45 186.545 567.364 187.043 567.194 187.571C567.029 188.094 566.785 188.602 566.461 189.097C566.143 189.585 565.756 190.011 565.302 190.375L564.211 189.489C564.569 188.977 564.879 188.446 565.14 187.895C565.407 187.338 565.54 186.744 565.54 186.114V184.545H567.45ZM577.528 191.841L575.721 192.352C575.607 192.051 575.44 191.759 575.218 191.474C575.002 191.185 574.707 190.946 574.332 190.759C573.957 190.571 573.477 190.477 572.891 190.477C572.09 190.477 571.423 190.662 570.888 191.031C570.36 191.395 570.096 191.858 570.096 192.42C570.096 192.92 570.278 193.315 570.641 193.605C571.005 193.895 571.573 194.136 572.346 194.33L574.289 194.807C575.46 195.091 576.332 195.526 576.906 196.111C577.479 196.69 577.766 197.437 577.766 198.352C577.766 199.102 577.55 199.773 577.119 200.364C576.692 200.955 576.096 201.42 575.329 201.761C574.562 202.102 573.67 202.273 572.653 202.273C571.317 202.273 570.212 201.983 569.337 201.403C568.462 200.824 567.908 199.977 567.675 198.864L569.585 198.386C569.766 199.091 570.11 199.619 570.616 199.972C571.127 200.324 571.795 200.5 572.619 200.5C573.556 200.5 574.3 200.301 574.852 199.903C575.408 199.5 575.687 199.017 575.687 198.455C575.687 198 575.528 197.619 575.21 197.312C574.891 197 574.403 196.767 573.744 196.614L571.562 196.102C570.363 195.818 569.482 195.378 568.92 194.781C568.363 194.179 568.085 193.426 568.085 192.523C568.085 191.784 568.292 191.131 568.707 190.562C569.127 189.994 569.698 189.548 570.42 189.224C571.147 188.901 571.971 188.739 572.891 188.739C574.187 188.739 575.204 189.023 575.942 189.591C576.687 190.159 577.215 190.909 577.528 191.841ZM587.544 202V188.909H589.555V202H587.544ZM588.567 186.727C588.175 186.727 587.837 186.594 587.553 186.327C587.274 186.06 587.135 185.739 587.135 185.364C587.135 184.989 587.274 184.668 587.553 184.401C587.837 184.134 588.175 184 588.567 184C588.959 184 589.294 184.134 589.572 184.401C589.857 184.668 589.999 184.989 589.999 185.364C589.999 185.739 589.857 186.06 589.572 186.327C589.294 186.594 588.959 186.727 588.567 186.727ZM598.183 202.273C597.092 202.273 596.129 201.997 595.293 201.446C594.458 200.889 593.805 200.105 593.333 199.094C592.862 198.077 592.626 196.875 592.626 195.489C592.626 194.114 592.862 192.92 593.333 191.909C593.805 190.898 594.461 190.116 595.302 189.565C596.143 189.014 597.114 188.739 598.217 188.739C599.069 188.739 599.742 188.881 600.237 189.165C600.737 189.443 601.117 189.761 601.379 190.119C601.646 190.472 601.853 190.761 602.001 190.989H602.171V184.545H604.183V202H602.239V199.989H602.001C601.853 200.227 601.643 200.528 601.37 200.892C601.097 201.25 600.708 201.571 600.202 201.855C599.697 202.134 599.023 202.273 598.183 202.273ZM598.455 200.466C599.262 200.466 599.944 200.256 600.501 199.835C601.058 199.409 601.481 198.821 601.771 198.071C602.06 197.315 602.205 196.443 602.205 195.455C602.205 194.477 602.063 193.622 601.779 192.889C601.495 192.151 601.075 191.577 600.518 191.168C599.961 190.753 599.273 190.545 598.455 190.545C597.603 190.545 596.893 190.764 596.325 191.202C595.762 191.634 595.339 192.222 595.055 192.966C594.776 193.705 594.637 194.534 594.637 195.455C594.637 196.386 594.779 197.233 595.063 197.994C595.353 198.75 595.779 199.352 596.342 199.801C596.91 200.244 597.614 200.466 598.455 200.466ZM613.634 202.273C612.373 202.273 611.285 201.994 610.37 201.438C609.461 200.875 608.759 200.091 608.265 199.085C607.776 198.074 607.532 196.898 607.532 195.557C607.532 194.216 607.776 193.034 608.265 192.011C608.759 190.983 609.447 190.182 610.327 189.608C611.214 189.028 612.248 188.739 613.43 188.739C614.112 188.739 614.785 188.852 615.45 189.08C616.114 189.307 616.719 189.676 617.265 190.188C617.81 190.693 618.245 191.364 618.569 192.199C618.893 193.034 619.055 194.062 619.055 195.284V196.136H608.964V194.398H617.009C617.009 193.659 616.862 193 616.566 192.42C616.276 191.841 615.862 191.384 615.322 191.048C614.788 190.713 614.157 190.545 613.43 190.545C612.629 190.545 611.935 190.744 611.35 191.142C610.771 191.534 610.325 192.045 610.012 192.676C609.7 193.307 609.543 193.983 609.543 194.705V195.864C609.543 196.852 609.714 197.69 610.055 198.378C610.401 199.06 610.881 199.58 611.495 199.938C612.109 200.29 612.822 200.466 613.634 200.466C614.163 200.466 614.64 200.392 615.066 200.244C615.498 200.091 615.87 199.864 616.183 199.562C616.495 199.256 616.737 198.875 616.907 198.42L618.85 198.966C618.646 199.625 618.302 200.205 617.819 200.705C617.336 201.199 616.739 201.585 616.029 201.864C615.319 202.136 614.521 202.273 613.634 202.273ZM624.126 194.125V202H622.114V188.909H624.058V190.955H624.228C624.535 190.29 625.001 189.756 625.626 189.352C626.251 188.943 627.058 188.739 628.046 188.739C628.933 188.739 629.708 188.92 630.373 189.284C631.038 189.642 631.555 190.188 631.924 190.92C632.293 191.648 632.478 192.568 632.478 193.682V202H630.467V193.818C630.467 192.79 630.2 191.989 629.665 191.415C629.131 190.835 628.398 190.545 627.467 190.545C626.825 190.545 626.251 190.685 625.745 190.963C625.245 191.241 624.85 191.648 624.56 192.182C624.271 192.716 624.126 193.364 624.126 194.125ZM641.847 188.909V190.614H635.062V188.909H641.847ZM637.04 185.773H639.051V198.25C639.051 198.818 639.134 199.244 639.298 199.528C639.469 199.807 639.685 199.994 639.946 200.091C640.213 200.182 640.494 200.227 640.79 200.227C641.011 200.227 641.193 200.216 641.335 200.193C641.477 200.165 641.591 200.142 641.676 200.125L642.085 201.932C641.949 201.983 641.759 202.034 641.514 202.085C641.27 202.142 640.96 202.17 640.585 202.17C640.017 202.17 639.46 202.048 638.915 201.804C638.375 201.56 637.926 201.188 637.568 200.688C637.216 200.188 637.04 199.557 637.04 198.795V185.773ZM644.872 202V188.909H646.884V202H644.872ZM645.895 186.727C645.503 186.727 645.165 186.594 644.881 186.327C644.602 186.06 644.463 185.739 644.463 185.364C644.463 184.989 644.602 184.668 644.881 184.401C645.165 184.134 645.503 184 645.895 184C646.287 184 646.622 184.134 646.901 184.401C647.185 184.668 647.327 184.989 647.327 185.364C647.327 185.739 647.185 186.06 646.901 186.327C646.622 186.594 646.287 186.727 645.895 186.727ZM656.261 188.909V190.614H649.477V188.909H656.261ZM651.454 185.773H653.465V198.25C653.465 198.818 653.548 199.244 653.712 199.528C653.883 199.807 654.099 199.994 654.36 200.091C654.627 200.182 654.908 200.227 655.204 200.227C655.425 200.227 655.607 200.216 655.749 200.193C655.891 200.165 656.005 200.142 656.09 200.125L656.499 201.932C656.363 201.983 656.173 202.034 655.928 202.085C655.684 202.142 655.374 202.17 654.999 202.17C654.431 202.17 653.874 202.048 653.329 201.804C652.789 201.56 652.34 201.188 651.982 200.688C651.63 200.188 651.454 199.557 651.454 198.795V185.773ZM660.582 206.909C660.241 206.909 659.937 206.881 659.67 206.824C659.403 206.773 659.218 206.722 659.116 206.67L659.627 204.898C660.116 205.023 660.548 205.068 660.923 205.034C661.298 205 661.63 204.832 661.92 204.531C662.215 204.236 662.485 203.756 662.729 203.091L663.104 202.068L658.263 188.909H660.445L664.059 199.341H664.195L667.809 188.909H669.991L664.434 203.909C664.184 204.585 663.874 205.145 663.505 205.588C663.136 206.037 662.707 206.369 662.218 206.585C661.735 206.801 661.19 206.909 660.582 206.909Z" fill="black"/>
<rect x="733" y="330" width="154" height="49" stroke="black" stroke-width="2"/>
<path d="M788.957 361.159C788.321 361.159 787.759 360.998 787.272 360.677C786.785 360.352 786.404 359.895 786.129 359.305C785.853 358.711 785.716 358.01 785.716 357.202C785.716 356.4 785.853 355.704 786.129 355.114C786.404 354.524 786.786 354.068 787.277 353.746C787.768 353.425 788.334 353.264 788.977 353.264C789.474 353.264 789.867 353.347 790.156 353.513C790.447 353.675 790.669 353.861 790.822 354.07C790.978 354.275 791.098 354.444 791.185 354.577H791.284V350.818H792.457V361H791.324V359.827H791.185C791.098 359.966 790.976 360.142 790.817 360.354C790.658 360.562 790.431 360.75 790.136 360.915C789.841 361.078 789.448 361.159 788.957 361.159ZM789.116 360.105C789.587 360.105 789.985 359.982 790.31 359.737C790.634 359.489 790.881 359.146 791.05 358.708C791.219 358.267 791.304 357.759 791.304 357.182C791.304 356.612 791.221 356.113 791.055 355.685C790.89 355.254 790.644 354.92 790.32 354.681C789.995 354.439 789.594 354.318 789.116 354.318C788.619 354.318 788.205 354.446 787.874 354.701C787.545 354.953 787.299 355.296 787.133 355.73C786.97 356.161 786.889 356.645 786.889 357.182C786.889 357.725 786.972 358.219 787.138 358.663C787.307 359.104 787.555 359.455 787.884 359.717C788.215 359.976 788.626 360.105 789.116 360.105ZM797.971 361.159C797.235 361.159 796.6 360.997 796.067 360.672C795.536 360.344 795.127 359.886 794.839 359.3C794.554 358.71 794.411 358.024 794.411 357.241C794.411 356.459 794.554 355.77 794.839 355.173C795.127 354.573 795.528 354.106 796.042 353.771C796.559 353.433 797.162 353.264 797.852 353.264C798.249 353.264 798.642 353.33 799.03 353.463C799.418 353.596 799.771 353.811 800.089 354.109C800.407 354.404 800.661 354.795 800.849 355.283C801.038 355.77 801.133 356.37 801.133 357.082V357.58H795.246V356.565H799.94C799.94 356.134 799.853 355.75 799.681 355.412C799.512 355.074 799.27 354.807 798.955 354.612C798.644 354.416 798.276 354.318 797.852 354.318C797.384 354.318 796.98 354.434 796.638 354.666C796.3 354.895 796.04 355.193 795.858 355.561C795.676 355.929 795.585 356.323 795.585 356.744V357.42C795.585 357.997 795.684 358.486 795.883 358.887C796.085 359.285 796.365 359.588 796.723 359.797C797.081 360.002 797.497 360.105 797.971 360.105C798.279 360.105 798.558 360.062 798.806 359.976C799.058 359.886 799.275 359.754 799.457 359.578C799.64 359.399 799.781 359.177 799.88 358.912L801.013 359.23C800.894 359.615 800.694 359.953 800.412 360.244C800.13 360.533 799.782 360.758 799.368 360.92C798.954 361.08 798.488 361.159 797.971 361.159ZM808.93 353.364L806.106 361H804.912L802.089 353.364H803.361L805.469 359.449H805.549L807.657 353.364H808.93ZM810.478 361V353.364H811.651V361H810.478ZM811.075 352.091C810.846 352.091 810.649 352.013 810.483 351.857C810.321 351.701 810.24 351.514 810.24 351.295C810.24 351.077 810.321 350.889 810.483 350.734C810.649 350.578 810.846 350.5 811.075 350.5C811.303 350.5 811.499 350.578 811.661 350.734C811.827 350.889 811.91 351.077 811.91 351.295C811.91 351.514 811.827 351.701 811.661 351.857C811.499 352.013 811.303 352.091 811.075 352.091ZM816.903 361.159C816.187 361.159 815.57 360.99 815.053 360.652C814.536 360.314 814.138 359.848 813.86 359.255C813.582 358.662 813.442 357.984 813.442 357.222C813.442 356.446 813.585 355.762 813.87 355.168C814.158 354.572 814.559 354.106 815.073 353.771C815.59 353.433 816.193 353.264 816.883 353.264C817.42 353.264 817.904 353.364 818.335 353.562C818.765 353.761 819.118 354.04 819.393 354.398C819.669 354.756 819.839 355.173 819.906 355.651H818.732C818.643 355.303 818.444 354.994 818.136 354.726C817.831 354.454 817.42 354.318 816.903 354.318C816.445 354.318 816.044 354.437 815.7 354.676C815.358 354.911 815.091 355.245 814.899 355.675C814.71 356.103 814.616 356.605 814.616 357.182C814.616 357.772 814.709 358.286 814.894 358.723C815.083 359.161 815.348 359.5 815.69 359.742C816.034 359.984 816.439 360.105 816.903 360.105C817.208 360.105 817.484 360.052 817.733 359.946C817.982 359.84 818.192 359.688 818.364 359.489C818.537 359.29 818.659 359.051 818.732 358.773H819.906C819.839 359.223 819.675 359.629 819.413 359.991C819.155 360.349 818.812 360.634 818.384 360.846C817.96 361.055 817.466 361.159 816.903 361.159ZM824.822 361.159C824.087 361.159 823.452 360.997 822.918 360.672C822.388 360.344 821.979 359.886 821.69 359.3C821.405 358.71 821.263 358.024 821.263 357.241C821.263 356.459 821.405 355.77 821.69 355.173C821.979 354.573 822.38 354.106 822.893 353.771C823.411 353.433 824.014 353.264 824.703 353.264C825.101 353.264 825.494 353.33 825.881 353.463C826.269 353.596 826.622 353.811 826.94 354.109C827.259 354.404 827.512 354.795 827.701 355.283C827.89 355.77 827.984 356.37 827.984 357.082V357.58H822.098V356.565H826.791C826.791 356.134 826.705 355.75 826.533 355.412C826.364 355.074 826.122 354.807 825.807 354.612C825.495 354.416 825.127 354.318 824.703 354.318C824.236 354.318 823.831 354.434 823.49 354.666C823.152 354.895 822.892 355.193 822.71 355.561C822.527 355.929 822.436 356.323 822.436 356.744V357.42C822.436 357.997 822.536 358.486 822.734 358.887C822.937 359.285 823.217 359.588 823.575 359.797C823.933 360.002 824.348 360.105 824.822 360.105C825.131 360.105 825.409 360.062 825.658 359.976C825.91 359.886 826.127 359.754 826.309 359.578C826.491 359.399 826.632 359.177 826.732 358.912L827.865 359.23C827.746 359.615 827.545 359.953 827.263 360.244C826.982 360.533 826.634 360.758 826.219 360.92C825.805 361.08 825.339 361.159 824.822 361.159ZM837.127 361.139C836.471 361.139 835.886 361.027 835.372 360.801C834.862 360.576 834.456 360.263 834.154 359.862C833.856 359.457 833.693 358.988 833.667 358.455H834.92C834.946 358.783 835.059 359.066 835.258 359.305C835.457 359.54 835.717 359.722 836.038 359.852C836.36 359.981 836.716 360.045 837.107 360.045C837.545 360.045 837.933 359.969 838.271 359.817C838.609 359.664 838.874 359.452 839.066 359.18C839.258 358.909 839.354 358.594 839.354 358.236C839.354 357.861 839.262 357.531 839.076 357.246C838.89 356.958 838.619 356.733 838.261 356.57C837.903 356.408 837.465 356.327 836.948 356.327H836.133V355.233H836.948C837.353 355.233 837.707 355.16 838.012 355.014C838.32 354.868 838.561 354.663 838.733 354.398C838.909 354.133 838.996 353.821 838.996 353.463C838.996 353.118 838.92 352.818 838.768 352.563C838.615 352.308 838.4 352.109 838.121 351.967C837.846 351.824 837.522 351.753 837.147 351.753C836.796 351.753 836.464 351.817 836.153 351.947C835.844 352.073 835.593 352.257 835.397 352.499C835.201 352.737 835.095 353.026 835.079 353.364H833.886C833.906 352.83 834.066 352.363 834.368 351.962C834.67 351.557 835.064 351.242 835.551 351.017C836.042 350.792 836.58 350.679 837.167 350.679C837.797 350.679 838.337 350.807 838.788 351.062C839.238 351.314 839.585 351.647 839.827 352.061C840.069 352.475 840.19 352.923 840.19 353.403C840.19 353.977 840.039 354.466 839.737 354.87C839.439 355.274 839.033 355.554 838.519 355.71V355.79C839.162 355.896 839.664 356.169 840.026 356.61C840.387 357.048 840.567 357.589 840.567 358.236C840.567 358.789 840.417 359.286 840.115 359.727C839.817 360.165 839.409 360.509 838.892 360.761C838.375 361.013 837.787 361.139 837.127 361.139Z" fill="black"/>
<path d="M743.667 43C743.667 45.9455 746.054 48.3333 749 48.3333C751.946 48.3333 754.333 45.9455 754.333 43C754.333 40.0545 751.946 37.6667 749 37.6667C746.054 37.6667 743.667 40.0545 743.667 43ZM791.667 43C791.667 45.9455 794.054 48.3333 797 48.3333C799.946 48.3333 802.333 45.9455 802.333 43C802.333 40.0545 799.946 37.6667 797 37.6667C794.054 37.6667 791.667 40.0545 791.667 43ZM749 44L797 44L797 42L749 42L749 44Z" fill="black"/>
<path d="M822.483 43.0739L821.429 43.3722C821.363 43.1965 821.265 43.0258 821.136 42.8601C821.01 42.6911 820.837 42.5518 820.619 42.4425C820.4 42.3331 820.12 42.2784 819.778 42.2784C819.311 42.2784 818.922 42.3861 818.61 42.6016C818.302 42.8137 818.148 43.0838 818.148 43.4119C818.148 43.7036 818.254 43.9339 818.466 44.103C818.678 44.272 819.009 44.4129 819.46 44.5256L820.594 44.804C821.277 44.9697 821.785 45.2232 822.12 45.5646C822.455 45.9027 822.622 46.3385 822.622 46.8722C822.622 47.3097 822.496 47.7008 822.244 48.0455C821.996 48.3902 821.648 48.6619 821.2 48.8608C820.753 49.0597 820.232 49.1591 819.639 49.1591C818.86 49.1591 818.216 48.9901 817.705 48.652C817.195 48.3139 816.872 47.8201 816.736 47.1705L817.849 46.892C817.955 47.303 818.156 47.6113 818.451 47.8168C818.749 48.0223 819.139 48.125 819.619 48.125C820.166 48.125 820.6 48.009 820.922 47.777C821.247 47.5417 821.409 47.2599 821.409 46.9318C821.409 46.6667 821.316 46.4446 821.131 46.2656C820.945 46.0833 820.66 45.9474 820.276 45.858L819.003 45.5597C818.304 45.3939 817.79 45.1371 817.462 44.7891C817.137 44.4377 816.974 43.9986 816.974 43.4716C816.974 43.0407 817.095 42.6596 817.337 42.3281C817.583 41.9967 817.916 41.7365 818.337 41.5476C818.761 41.3587 819.241 41.2642 819.778 41.2642C820.534 41.2642 821.127 41.4299 821.558 41.7614C821.992 42.0928 822.301 42.5303 822.483 43.0739ZM825.144 51.8636C824.945 51.8636 824.768 51.8471 824.612 51.8139C824.456 51.7841 824.349 51.7543 824.289 51.7244L824.587 50.6903C824.872 50.7633 825.124 50.7898 825.343 50.7699C825.562 50.75 825.756 50.6522 825.925 50.4766C826.097 50.3042 826.254 50.0241 826.397 49.6364L826.616 49.0398L823.792 41.3636H825.064L827.172 47.4489H827.252L829.36 41.3636H830.633L827.391 50.1136C827.245 50.508 827.065 50.8345 826.849 51.093C826.634 51.3549 826.384 51.5488 826.099 51.6747C825.817 51.8007 825.499 51.8636 825.144 51.8636ZM833.355 44.4062V49H832.181V41.3636H833.315V42.5568H833.414C833.593 42.169 833.865 41.8575 834.23 41.6222C834.594 41.3835 835.065 41.2642 835.642 41.2642C836.159 41.2642 836.611 41.3703 836.999 41.5824C837.387 41.7912 837.688 42.1094 837.904 42.5369C838.119 42.9612 838.227 43.4981 838.227 44.1477V49H837.053V44.2273C837.053 43.6274 836.898 43.16 836.586 42.8253C836.275 42.4872 835.847 42.3182 835.303 42.3182C834.929 42.3182 834.594 42.3994 834.299 42.5618C834.008 42.7242 833.777 42.9612 833.608 43.2727C833.439 43.5843 833.355 43.9621 833.355 44.4062ZM843.473 49.1591C842.757 49.1591 842.141 48.9901 841.624 48.652C841.107 48.3139 840.709 47.8482 840.43 47.255C840.152 46.6617 840.013 45.9839 840.013 45.2216C840.013 44.446 840.155 43.7616 840.44 43.1683C840.729 42.5717 841.13 42.1061 841.643 41.7713C842.161 41.4332 842.764 41.2642 843.453 41.2642C843.99 41.2642 844.474 41.3636 844.905 41.5625C845.336 41.7614 845.689 42.0398 845.964 42.3977C846.239 42.7557 846.41 43.1733 846.476 43.6506H845.303C845.213 43.3026 845.014 42.9943 844.706 42.7259C844.401 42.4541 843.99 42.3182 843.473 42.3182C843.016 42.3182 842.615 42.4375 842.27 42.6761C841.929 42.9115 841.662 43.2446 841.469 43.6754C841.281 44.103 841.186 44.6051 841.186 45.1818C841.186 45.7718 841.279 46.2855 841.464 46.723C841.653 47.1605 841.919 47.5002 842.26 47.7422C842.605 47.9841 843.009 48.1051 843.473 48.1051C843.778 48.1051 844.055 48.0521 844.303 47.946C844.552 47.84 844.762 47.6875 844.935 47.4886C845.107 47.2898 845.23 47.0511 845.303 46.7727H846.476C846.41 47.2235 846.246 47.6295 845.984 47.9908C845.725 48.3487 845.382 48.6338 844.955 48.8459C844.53 49.0547 844.036 49.1591 843.473 49.1591ZM848.191 49V41.3636H849.364V49H848.191ZM848.788 40.0909C848.559 40.0909 848.362 40.013 848.196 39.8572C848.034 39.7015 847.952 39.5142 847.952 39.2955C847.952 39.0767 848.034 38.8894 848.196 38.7337C848.362 38.5779 848.559 38.5 848.788 38.5C849.016 38.5 849.212 38.5779 849.374 38.7337C849.54 38.8894 849.623 39.0767 849.623 39.2955C849.623 39.5142 849.54 39.7015 849.374 39.8572C849.212 40.013 849.016 40.0909 848.788 40.0909ZM852.687 44.4062V49H851.513V41.3636H852.647V42.5568H852.746C852.925 42.169 853.197 41.8575 853.562 41.6222C853.926 41.3835 854.397 41.2642 854.974 41.2642C855.491 41.2642 855.943 41.3703 856.331 41.5824C856.719 41.7912 857.02 42.1094 857.236 42.5369C857.451 42.9612 857.559 43.4981 857.559 44.1477V49H856.385V44.2273C856.385 43.6274 856.23 43.16 855.918 42.8253C855.607 42.4872 855.179 42.3182 854.635 42.3182C854.261 42.3182 853.926 42.3994 853.631 42.5618C853.34 42.7242 853.109 42.9612 852.94 43.2727C852.771 43.5843 852.687 43.9621 852.687 44.4062ZM862.785 52.0227C862.218 52.0227 861.731 51.9498 861.324 51.804C860.916 51.6615 860.576 51.4725 860.304 51.2372C860.036 51.0052 859.822 50.7566 859.663 50.4915L860.598 49.8352C860.704 49.9744 860.838 50.1335 861 50.3125C861.163 50.4948 861.385 50.6522 861.667 50.7848C861.952 50.9207 862.324 50.9886 862.785 50.9886C863.402 50.9886 863.91 50.8395 864.311 50.5412C864.712 50.2429 864.913 49.7756 864.913 49.1392V47.5881H864.814C864.727 47.7273 864.605 47.8996 864.446 48.1051C864.29 48.3073 864.065 48.4879 863.77 48.647C863.478 48.8028 863.083 48.8807 862.586 48.8807C861.97 48.8807 861.416 48.7348 860.926 48.4432C860.439 48.1515 860.052 47.7273 859.767 47.1705C859.486 46.6136 859.345 45.9375 859.345 45.142C859.345 44.3598 859.482 43.6787 859.757 43.0987C860.033 42.5154 860.415 42.0646 860.906 41.7464C861.396 41.425 861.963 41.2642 862.606 41.2642C863.103 41.2642 863.498 41.3471 863.789 41.5128C864.084 41.6752 864.31 41.8608 864.466 42.0696C864.625 42.2751 864.747 42.4441 864.833 42.5767H864.953V41.3636H866.086V49.2188C866.086 49.875 865.937 50.4086 865.639 50.8196C865.344 51.2339 864.946 51.5372 864.446 51.7294C863.949 51.925 863.395 52.0227 862.785 52.0227ZM862.745 47.8267C863.216 47.8267 863.614 47.719 863.939 47.5036C864.263 47.2881 864.51 46.9782 864.679 46.5739C864.848 46.1695 864.933 45.6856 864.933 45.1222C864.933 44.572 864.85 44.0864 864.684 43.6655C864.519 43.2446 864.273 42.9148 863.949 42.6761C863.624 42.4375 863.223 42.3182 862.745 42.3182C862.248 42.3182 861.834 42.4441 861.502 42.696C861.174 42.9479 860.927 43.286 860.762 43.7102C860.599 44.1345 860.518 44.6051 860.518 45.1222C860.518 45.6525 860.601 46.1214 860.767 46.5291C860.936 46.9335 861.184 47.2517 861.512 47.4837C861.844 47.7124 862.255 47.8267 862.745 47.8267ZM875.274 49.1591C874.558 49.1591 873.941 48.9901 873.424 48.652C872.907 48.3139 872.51 47.8482 872.231 47.255C871.953 46.6617 871.814 45.9839 871.814 45.2216C871.814 44.446 871.956 43.7616 872.241 43.1683C872.529 42.5717 872.931 42.1061 873.444 41.7713C873.961 41.4332 874.565 41.2642 875.254 41.2642C875.791 41.2642 876.275 41.3636 876.706 41.5625C877.136 41.7614 877.489 42.0398 877.765 42.3977C878.04 42.7557 878.21 43.1733 878.277 43.6506H877.103C877.014 43.3026 876.815 42.9943 876.507 42.7259C876.202 42.4541 875.791 42.3182 875.274 42.3182C874.816 42.3182 874.415 42.4375 874.071 42.6761C873.729 42.9115 873.462 43.2446 873.27 43.6754C873.081 44.103 872.987 44.6051 872.987 45.1818C872.987 45.7718 873.08 46.2855 873.265 46.723C873.454 47.1605 873.719 47.5002 874.061 47.7422C874.405 47.9841 874.81 48.1051 875.274 48.1051C875.579 48.1051 875.855 48.0521 876.104 47.946C876.353 47.84 876.563 47.6875 876.735 47.4886C876.908 47.2898 877.03 47.0511 877.103 46.7727H878.277C878.21 47.2235 878.046 47.6295 877.784 47.9908C877.526 48.3487 877.183 48.6338 876.755 48.8459C876.331 49.0547 875.837 49.1591 875.274 49.1591ZM883.094 49.1591C882.405 49.1591 881.8 48.995 881.279 48.6669C880.762 48.3388 880.358 47.8797 880.066 47.2898C879.778 46.6998 879.634 46.0104 879.634 45.2216C879.634 44.4261 879.778 43.7318 880.066 43.1385C880.358 42.5452 880.762 42.0845 881.279 41.7564C881.8 41.4283 882.405 41.2642 883.094 41.2642C883.783 41.2642 884.387 41.4283 884.904 41.7564C885.424 42.0845 885.828 42.5452 886.117 43.1385C886.408 43.7318 886.554 44.4261 886.554 45.2216C886.554 46.0104 886.408 46.6998 886.117 47.2898C885.828 47.8797 885.424 48.3388 884.904 48.6669C884.387 48.995 883.783 49.1591 883.094 49.1591ZM883.094 48.1051C883.618 48.1051 884.049 47.9709 884.387 47.7024C884.725 47.4339 884.975 47.081 885.137 46.6435C885.3 46.206 885.381 45.732 885.381 45.2216C885.381 44.7112 885.3 44.2356 885.137 43.7947C884.975 43.3539 884.725 42.9976 884.387 42.7259C884.049 42.4541 883.618 42.3182 883.094 42.3182C882.57 42.3182 882.14 42.4541 881.801 42.7259C881.463 42.9976 881.213 43.3539 881.051 43.7947C880.888 44.2356 880.807 44.7112 880.807 45.2216C880.807 45.732 880.888 46.206 881.051 46.6435C881.213 47.081 881.463 47.4339 881.801 47.7024C882.14 47.9709 882.57 48.1051 883.094 48.1051ZM889.519 44.4062V49H888.345V41.3636H889.479V42.5568H889.578C889.757 42.169 890.029 41.8575 890.394 41.6222C890.758 41.3835 891.229 41.2642 891.806 41.2642C892.323 41.2642 892.775 41.3703 893.163 41.5824C893.551 41.7912 893.852 42.1094 894.068 42.5369C894.283 42.9612 894.391 43.4981 894.391 44.1477V49H893.218V44.2273C893.218 43.6274 893.062 43.16 892.75 42.8253C892.439 42.4872 892.011 42.3182 891.468 42.3182C891.093 42.3182 890.758 42.3994 890.463 42.5618C890.172 42.7242 889.941 42.9612 889.772 43.2727C889.603 43.5843 889.519 43.9621 889.519 44.4062ZM897.708 44.4062V49H896.535V41.3636H897.668V42.5568H897.768C897.947 42.169 898.219 41.8575 898.583 41.6222C898.948 41.3835 899.418 41.2642 899.995 41.2642C900.512 41.2642 900.964 41.3703 901.352 41.5824C901.74 41.7912 902.042 42.1094 902.257 42.5369C902.473 42.9612 902.58 43.4981 902.58 44.1477V49H901.407V44.2273C901.407 43.6274 901.251 43.16 900.94 42.8253C900.628 42.4872 900.201 42.3182 899.657 42.3182C899.282 42.3182 898.948 42.3994 898.653 42.5618C898.361 42.7242 898.131 42.9612 897.962 43.2727C897.793 43.5843 897.708 43.9621 897.708 44.4062ZM907.926 49.1591C907.19 49.1591 906.555 48.9967 906.022 48.6719C905.492 48.3438 905.082 47.8864 904.794 47.2997C904.509 46.7098 904.366 46.0237 904.366 45.2415C904.366 44.4593 904.509 43.7699 904.794 43.1733C905.082 42.5734 905.483 42.1061 905.997 41.7713C906.514 41.4332 907.117 41.2642 907.807 41.2642C908.204 41.2642 908.597 41.3305 908.985 41.4631C909.373 41.5956 909.726 41.8111 910.044 42.1094C910.362 42.4044 910.616 42.7955 910.805 43.2827C910.993 43.7699 911.088 44.3698 911.088 45.0824V45.5795H905.202V44.5653H909.895C909.895 44.1345 909.809 43.75 909.636 43.4119C909.467 43.0739 909.225 42.8071 908.91 42.6115C908.599 42.416 908.231 42.3182 907.807 42.3182C907.339 42.3182 906.935 42.4342 906.594 42.6662C906.256 42.8949 905.995 43.1932 905.813 43.5611C905.631 43.929 905.54 44.3234 905.54 44.7443V45.4205C905.54 45.9972 905.639 46.486 905.838 46.8871C906.04 47.2848 906.32 47.5881 906.678 47.7969C907.036 48.0024 907.452 48.1051 907.926 48.1051C908.234 48.1051 908.513 48.062 908.761 47.9759C909.013 47.8864 909.23 47.7538 909.412 47.5781C909.595 47.3991 909.736 47.1771 909.835 46.9119L910.969 47.2301C910.849 47.6146 910.649 47.9527 910.367 48.2443C910.085 48.5327 909.737 48.758 909.323 48.9205C908.909 49.0795 908.443 49.1591 907.926 49.1591ZM915.975 49.1591C915.259 49.1591 914.643 48.9901 914.126 48.652C913.608 48.3139 913.211 47.8482 912.932 47.255C912.654 46.6617 912.515 45.9839 912.515 45.2216C912.515 44.446 912.657 43.7616 912.942 43.1683C913.231 42.5717 913.632 42.1061 914.145 41.7713C914.662 41.4332 915.266 41.2642 915.955 41.2642C916.492 41.2642 916.976 41.3636 917.407 41.5625C917.838 41.7614 918.191 42.0398 918.466 42.3977C918.741 42.7557 918.912 43.1733 918.978 43.6506H917.805C917.715 43.3026 917.516 42.9943 917.208 42.7259C916.903 42.4541 916.492 42.3182 915.975 42.3182C915.518 42.3182 915.117 42.4375 914.772 42.6761C914.43 42.9115 914.164 43.2446 913.971 43.6754C913.782 44.103 913.688 44.6051 913.688 45.1818C913.688 45.7718 913.781 46.2855 913.966 46.723C914.155 47.1605 914.421 47.5002 914.762 47.7422C915.107 47.9841 915.511 48.1051 915.975 48.1051C916.28 48.1051 916.557 48.0521 916.805 47.946C917.054 47.84 917.264 47.6875 917.437 47.4886C917.609 47.2898 917.732 47.0511 917.805 46.7727H918.978C918.912 47.2235 918.747 47.6295 918.486 47.9908C918.227 48.3487 917.884 48.6338 917.456 48.8459C917.032 49.0547 916.538 49.1591 915.975 49.1591ZM924.014 41.3636V42.358H920.057V41.3636H924.014ZM921.21 39.5341H922.383V46.8125C922.383 47.1439 922.431 47.3925 922.528 47.5582C922.627 47.7206 922.753 47.83 922.905 47.8864C923.061 47.9394 923.225 47.9659 923.398 47.9659C923.527 47.9659 923.633 47.9593 923.716 47.946C923.799 47.9295 923.865 47.9162 923.915 47.9062L924.153 48.9602C924.074 48.9901 923.963 49.0199 923.82 49.0497C923.678 49.0829 923.497 49.0994 923.278 49.0994C922.947 49.0994 922.622 49.0282 922.304 48.8857C921.989 48.7431 921.727 48.526 921.518 48.2344C921.313 47.9427 921.21 47.5748 921.21 47.1307V39.5341ZM925.779 49V41.3636H926.952V49H925.779ZM926.376 40.0909C926.147 40.0909 925.95 40.013 925.784 39.8572C925.622 39.7015 925.54 39.5142 925.54 39.2955C925.54 39.0767 925.622 38.8894 925.784 38.7337C925.95 38.5779 926.147 38.5 926.376 38.5C926.604 38.5 926.8 38.5779 926.962 38.7337C927.128 38.8894 927.211 39.0767 927.211 39.2955C927.211 39.5142 927.128 39.7015 926.962 39.8572C926.8 40.013 926.604 40.0909 926.376 40.0909ZM932.203 49.1591C931.514 49.1591 930.909 48.995 930.389 48.6669C929.872 48.3388 929.467 47.8797 929.176 47.2898C928.887 46.6998 928.743 46.0104 928.743 45.2216C928.743 44.4261 928.887 43.7318 929.176 43.1385C929.467 42.5452 929.872 42.0845 930.389 41.7564C930.909 41.4283 931.514 41.2642 932.203 41.2642C932.893 41.2642 933.496 41.4283 934.013 41.7564C934.533 42.0845 934.938 42.5452 935.226 43.1385C935.518 43.7318 935.664 44.4261 935.664 45.2216C935.664 46.0104 935.518 46.6998 935.226 47.2898C934.938 47.8797 934.533 48.3388 934.013 48.6669C933.496 48.995 932.893 49.1591 932.203 49.1591ZM932.203 48.1051C932.727 48.1051 933.158 47.9709 933.496 47.7024C933.834 47.4339 934.084 47.081 934.247 46.6435C934.409 46.206 934.49 45.732 934.49 45.2216C934.49 44.7112 934.409 44.2356 934.247 43.7947C934.084 43.3539 933.834 42.9976 933.496 42.7259C933.158 42.4541 932.727 42.3182 932.203 42.3182C931.68 42.3182 931.249 42.4541 930.911 42.7259C930.573 42.9976 930.323 43.3539 930.16 43.7947C929.998 44.2356 929.917 44.7112 929.917 45.2216C929.917 45.732 929.998 46.206 930.16 46.6435C930.323 47.081 930.573 47.4339 930.911 47.7024C931.249 47.9709 931.68 48.1051 932.203 48.1051ZM938.628 44.4062V49H937.455V41.3636H938.588V42.5568H938.688C938.867 42.169 939.138 41.8575 939.503 41.6222C939.868 41.3835 940.338 41.2642 940.915 41.2642C941.432 41.2642 941.884 41.3703 942.272 41.5824C942.66 41.7912 942.962 42.1094 943.177 42.5369C943.392 42.9612 943.5 43.4981 943.5 44.1477V49H942.327V44.2273C942.327 43.6274 942.171 43.16 941.86 42.8253C941.548 42.4872 941.12 42.3182 940.577 42.3182C940.202 42.3182 939.868 42.3994 939.573 42.5618C939.281 42.7242 939.051 42.9612 938.882 43.2727C938.713 43.5843 938.628 43.9621 938.628 44.4062Z" fill="black"/>
</svg>
