<svg width="1000" height="454" viewBox="0 0 1000 454" fill="none" xmlns="http://www.w3.org/2000/svg">
<rect width="1000" height="454" fill="#F5F5F5"/>
<rect x="0.5" y="0.5" width="999" height="453" fill="white"/>
<rect x="0.5" y="0.5" width="999" height="453" stroke="black"/>
<rect x="71" y="61" width="378" height="346" rx="9" stroke="black" stroke-width="2" stroke-dasharray="2 2"/>
<rect x="301" y="100" width="96" height="73" stroke="black" stroke-width="2"/>
<path d="M332.034 116.227L330.83 116.568C330.754 116.367 330.642 116.172 330.494 115.983C330.35 115.79 330.153 115.631 329.903 115.506C329.653 115.381 329.333 115.318 328.943 115.318C328.409 115.318 327.964 115.441 327.608 115.688C327.256 115.93 327.08 116.239 327.08 116.614C327.08 116.947 327.201 117.21 327.443 117.403C327.686 117.597 328.064 117.758 328.58 117.886L329.875 118.205C330.655 118.394 331.237 118.684 331.619 119.074C332.002 119.46 332.193 119.958 332.193 120.568C332.193 121.068 332.049 121.515 331.761 121.909C331.477 122.303 331.08 122.614 330.568 122.841C330.057 123.068 329.462 123.182 328.784 123.182C327.894 123.182 327.157 122.989 326.574 122.602C325.991 122.216 325.621 121.652 325.466 120.909L326.739 120.591C326.86 121.061 327.089 121.413 327.426 121.648C327.767 121.883 328.212 122 328.761 122C329.386 122 329.883 121.867 330.25 121.602C330.621 121.333 330.807 121.011 330.807 120.636C330.807 120.333 330.701 120.08 330.489 119.875C330.277 119.667 329.951 119.511 329.511 119.409L328.057 119.068C327.258 118.879 326.67 118.585 326.295 118.188C325.924 117.786 325.739 117.284 325.739 116.682C325.739 116.189 325.877 115.754 326.153 115.375C326.434 114.996 326.814 114.699 327.295 114.483C327.78 114.267 328.33 114.159 328.943 114.159C329.807 114.159 330.485 114.348 330.977 114.727C331.473 115.106 331.826 115.606 332.034 116.227ZM337.871 123.182C337.03 123.182 336.304 122.996 335.695 122.625C335.089 122.25 334.621 121.727 334.291 121.057C333.965 120.383 333.803 119.598 333.803 118.705C333.803 117.811 333.965 117.023 334.291 116.341C334.621 115.655 335.079 115.121 335.666 114.739C336.257 114.352 336.946 114.159 337.734 114.159C338.189 114.159 338.638 114.235 339.081 114.386C339.524 114.538 339.928 114.784 340.291 115.125C340.655 115.462 340.945 115.909 341.161 116.466C341.376 117.023 341.484 117.708 341.484 118.523V119.091H334.757V117.932H340.121C340.121 117.439 340.022 117 339.825 116.614C339.632 116.227 339.356 115.922 338.996 115.699C338.64 115.475 338.219 115.364 337.734 115.364C337.2 115.364 336.738 115.496 336.348 115.761C335.962 116.023 335.664 116.364 335.456 116.784C335.248 117.205 335.143 117.655 335.143 118.136V118.909C335.143 119.568 335.257 120.127 335.484 120.585C335.715 121.04 336.036 121.386 336.445 121.625C336.854 121.86 337.329 121.977 337.871 121.977C338.223 121.977 338.541 121.928 338.825 121.83C339.113 121.727 339.361 121.576 339.57 121.375C339.778 121.17 339.939 120.917 340.053 120.614L341.348 120.977C341.212 121.417 340.982 121.803 340.661 122.136C340.339 122.466 339.941 122.723 339.467 122.909C338.994 123.091 338.462 123.182 337.871 123.182ZM343.524 123V114.273H344.82V115.591H344.911C345.07 115.159 345.357 114.809 345.774 114.54C346.191 114.271 346.661 114.136 347.183 114.136C347.282 114.136 347.405 114.138 347.553 114.142C347.7 114.146 347.812 114.152 347.888 114.159V115.523C347.842 115.511 347.738 115.494 347.575 115.472C347.416 115.445 347.248 115.432 347.07 115.432C346.645 115.432 346.267 115.521 345.933 115.699C345.604 115.873 345.342 116.116 345.149 116.426C344.96 116.733 344.865 117.083 344.865 117.477V123H343.524ZM356.879 114.273L353.652 123H352.288L349.061 114.273H350.516L352.925 121.227H353.016L355.425 114.273H356.879ZM361.996 123.182C361.155 123.182 360.429 122.996 359.82 122.625C359.214 122.25 358.746 121.727 358.416 121.057C358.09 120.383 357.928 119.598 357.928 118.705C357.928 117.811 358.09 117.023 358.416 116.341C358.746 115.655 359.204 115.121 359.791 114.739C360.382 114.352 361.071 114.159 361.859 114.159C362.314 114.159 362.763 114.235 363.206 114.386C363.649 114.538 364.053 114.784 364.416 115.125C364.78 115.462 365.07 115.909 365.286 116.466C365.501 117.023 365.609 117.708 365.609 118.523V119.091H358.882V117.932H364.246C364.246 117.439 364.147 117 363.95 116.614C363.757 116.227 363.481 115.922 363.121 115.699C362.765 115.475 362.344 115.364 361.859 115.364C361.325 115.364 360.863 115.496 360.473 115.761C360.087 116.023 359.789 116.364 359.581 116.784C359.373 117.205 359.268 117.655 359.268 118.136V118.909C359.268 119.568 359.382 120.127 359.609 120.585C359.84 121.04 360.161 121.386 360.57 121.625C360.979 121.86 361.454 121.977 361.996 121.977C362.348 121.977 362.666 121.928 362.95 121.83C363.238 121.727 363.486 121.576 363.695 121.375C363.903 121.17 364.064 120.917 364.178 120.614L365.473 120.977C365.337 121.417 365.107 121.803 364.786 122.136C364.464 122.466 364.066 122.723 363.592 122.909C363.119 123.091 362.587 123.182 361.996 123.182ZM367.649 123V114.273H368.945V115.591H369.036C369.195 115.159 369.482 114.809 369.899 114.54C370.316 114.271 370.786 114.136 371.308 114.136C371.407 114.136 371.53 114.138 371.678 114.142C371.825 114.146 371.937 114.152 372.013 114.159V115.523C371.967 115.511 371.863 115.494 371.7 115.472C371.541 115.445 371.373 115.432 371.195 115.432C370.77 115.432 370.392 115.521 370.058 115.699C369.729 115.873 369.467 116.116 369.274 116.426C369.085 116.733 368.99 117.083 368.99 117.477V123H367.649ZM330.67 142.205C330.117 142.205 329.616 142.1 329.165 141.892C328.714 141.68 328.356 141.375 328.091 140.977C327.826 140.576 327.693 140.091 327.693 139.523C327.693 139.023 327.792 138.617 327.989 138.307C328.186 137.992 328.449 137.746 328.778 137.568C329.108 137.39 329.472 137.258 329.869 137.17C330.271 137.08 330.674 137.008 331.08 136.955C331.61 136.886 332.04 136.835 332.369 136.801C332.703 136.763 332.945 136.701 333.097 136.614C333.252 136.527 333.33 136.375 333.33 136.159V136.114C333.33 135.553 333.176 135.117 332.869 134.807C332.566 134.496 332.106 134.341 331.489 134.341C330.848 134.341 330.347 134.481 329.983 134.761C329.619 135.042 329.364 135.341 329.216 135.659L327.943 135.205C328.17 134.674 328.473 134.261 328.852 133.966C329.235 133.667 329.652 133.458 330.102 133.341C330.557 133.22 331.004 133.159 331.443 133.159C331.723 133.159 332.045 133.193 332.409 133.261C332.777 133.326 333.131 133.46 333.472 133.665C333.816 133.869 334.102 134.178 334.33 134.591C334.557 135.004 334.67 135.557 334.67 136.25V142H333.33V140.818H333.261C333.17 141.008 333.019 141.21 332.807 141.426C332.595 141.642 332.313 141.826 331.96 141.977C331.608 142.129 331.178 142.205 330.67 142.205ZM330.875 141C331.405 141 331.852 140.896 332.216 140.688C332.583 140.479 332.86 140.21 333.045 139.881C333.235 139.551 333.33 139.205 333.33 138.841V137.614C333.273 137.682 333.148 137.744 332.955 137.801C332.765 137.854 332.545 137.902 332.295 137.943C332.049 137.981 331.809 138.015 331.574 138.045C331.343 138.072 331.155 138.095 331.011 138.114C330.663 138.159 330.337 138.233 330.034 138.335C329.735 138.434 329.492 138.583 329.307 138.784C329.125 138.981 329.034 139.25 329.034 139.591C329.034 140.057 329.206 140.409 329.551 140.648C329.9 140.883 330.341 141 330.875 141ZM340.641 145.455C339.993 145.455 339.436 145.371 338.97 145.205C338.504 145.042 338.116 144.826 337.805 144.557C337.499 144.292 337.254 144.008 337.072 143.705L338.141 142.955C338.262 143.114 338.415 143.295 338.601 143.5C338.786 143.708 339.04 143.888 339.362 144.04C339.688 144.195 340.114 144.273 340.641 144.273C341.345 144.273 341.927 144.102 342.385 143.761C342.843 143.42 343.072 142.886 343.072 142.159V140.386H342.959C342.86 140.545 342.72 140.742 342.538 140.977C342.36 141.208 342.103 141.415 341.766 141.597C341.432 141.775 340.982 141.864 340.413 141.864C339.709 141.864 339.076 141.697 338.516 141.364C337.959 141.03 337.518 140.545 337.192 139.909C336.87 139.273 336.709 138.5 336.709 137.591C336.709 136.697 336.866 135.919 337.18 135.256C337.495 134.589 337.932 134.074 338.493 133.71C339.054 133.343 339.701 133.159 340.436 133.159C341.004 133.159 341.455 133.254 341.788 133.443C342.125 133.629 342.383 133.841 342.561 134.08C342.743 134.314 342.883 134.508 342.982 134.659H343.118V133.273H344.413V142.25C344.413 143 344.243 143.61 343.902 144.08C343.565 144.553 343.11 144.9 342.538 145.119C341.97 145.343 341.338 145.455 340.641 145.455ZM340.595 140.659C341.133 140.659 341.588 140.536 341.959 140.29C342.33 140.044 342.612 139.689 342.805 139.227C342.999 138.765 343.095 138.212 343.095 137.568C343.095 136.939 343 136.384 342.811 135.903C342.622 135.422 342.341 135.045 341.97 134.773C341.599 134.5 341.141 134.364 340.595 134.364C340.027 134.364 339.554 134.508 339.175 134.795C338.8 135.083 338.518 135.47 338.328 135.955C338.143 136.439 338.05 136.977 338.05 137.568C338.05 138.174 338.144 138.71 338.334 139.176C338.527 139.638 338.811 140.002 339.186 140.267C339.565 140.528 340.035 140.659 340.595 140.659ZM350.527 142.182C349.686 142.182 348.961 141.996 348.351 141.625C347.745 141.25 347.277 140.727 346.947 140.057C346.622 139.383 346.459 138.598 346.459 137.705C346.459 136.811 346.622 136.023 346.947 135.341C347.277 134.655 347.735 134.121 348.322 133.739C348.913 133.352 349.603 133.159 350.391 133.159C350.845 133.159 351.294 133.235 351.737 133.386C352.18 133.538 352.584 133.784 352.947 134.125C353.311 134.462 353.601 134.909 353.817 135.466C354.033 136.023 354.141 136.708 354.141 137.523V138.091H347.413V136.932H352.777C352.777 136.439 352.679 136 352.482 135.614C352.288 135.227 352.012 134.922 351.652 134.699C351.296 134.475 350.875 134.364 350.391 134.364C349.857 134.364 349.394 134.496 349.004 134.761C348.618 135.023 348.321 135.364 348.112 135.784C347.904 136.205 347.8 136.655 347.8 137.136V137.909C347.8 138.568 347.913 139.127 348.141 139.585C348.372 140.04 348.692 140.386 349.101 140.625C349.51 140.86 349.985 140.977 350.527 140.977C350.879 140.977 351.197 140.928 351.482 140.83C351.769 140.727 352.018 140.576 352.226 140.375C352.434 140.17 352.595 139.917 352.709 139.614L354.004 139.977C353.868 140.417 353.639 140.803 353.317 141.136C352.995 141.466 352.597 141.723 352.124 141.909C351.65 142.091 351.118 142.182 350.527 142.182ZM357.521 136.75V142H356.18V133.273H357.476V134.636H357.589C357.794 134.193 358.105 133.837 358.521 133.568C358.938 133.295 359.476 133.159 360.135 133.159C360.726 133.159 361.243 133.28 361.686 133.523C362.129 133.761 362.474 134.125 362.72 134.614C362.966 135.098 363.089 135.712 363.089 136.455V142H361.749V136.545C361.749 135.86 361.571 135.326 361.214 134.943C360.858 134.557 360.37 134.364 359.749 134.364C359.321 134.364 358.938 134.456 358.601 134.642C358.268 134.828 358.004 135.098 357.811 135.455C357.618 135.811 357.521 136.242 357.521 136.75ZM369.335 133.273V134.409H364.812V133.273H369.335ZM366.131 131.182H367.472V139.5C367.472 139.879 367.527 140.163 367.636 140.352C367.75 140.538 367.894 140.663 368.068 140.727C368.246 140.788 368.434 140.818 368.631 140.818C368.778 140.818 368.9 140.811 368.994 140.795C369.089 140.777 369.165 140.761 369.222 140.75L369.494 141.955C369.403 141.989 369.277 142.023 369.114 142.057C368.951 142.095 368.744 142.114 368.494 142.114C368.116 142.114 367.744 142.032 367.381 141.869C367.021 141.706 366.722 141.458 366.483 141.125C366.248 140.792 366.131 140.371 366.131 139.864V131.182ZM314.189 156.091C314.189 154.659 314.375 153.343 314.746 152.142C315.121 150.937 315.655 149.83 316.348 148.818H317.53C317.257 149.193 317.001 149.655 316.763 150.205C316.528 150.75 316.321 151.35 316.143 152.006C315.965 152.657 315.825 153.331 315.723 154.028C315.625 154.725 315.575 155.413 315.575 156.091C315.575 156.992 315.662 157.907 315.837 158.835C316.011 159.763 316.246 160.625 316.541 161.42C316.837 162.216 317.166 162.864 317.53 163.364H316.348C315.655 162.352 315.121 161.246 314.746 160.045C314.375 158.841 314.189 157.523 314.189 156.091ZM322.866 161.182C322.079 161.182 321.387 160.994 320.793 160.619C320.202 160.244 319.74 159.72 319.406 159.045C319.077 158.371 318.912 157.583 318.912 156.682C318.912 155.773 319.077 154.979 319.406 154.301C319.74 153.623 320.202 153.097 320.793 152.722C321.387 152.347 322.079 152.159 322.866 152.159C323.654 152.159 324.344 152.347 324.935 152.722C325.529 153.097 325.991 153.623 326.321 154.301C326.654 154.979 326.821 155.773 326.821 156.682C326.821 157.583 326.654 158.371 326.321 159.045C325.991 159.72 325.529 160.244 324.935 160.619C324.344 160.994 323.654 161.182 322.866 161.182ZM322.866 159.977C323.465 159.977 323.957 159.824 324.344 159.517C324.73 159.21 325.016 158.807 325.202 158.307C325.387 157.807 325.48 157.265 325.48 156.682C325.48 156.098 325.387 155.555 325.202 155.051C325.016 154.547 324.73 154.14 324.344 153.83C323.957 153.519 323.465 153.364 322.866 153.364C322.268 153.364 321.776 153.519 321.389 153.83C321.003 154.14 320.717 154.547 320.531 155.051C320.346 155.555 320.253 156.098 320.253 156.682C320.253 157.265 320.346 157.807 320.531 158.307C320.717 158.807 321.003 159.21 321.389 159.517C321.776 159.824 322.268 159.977 322.866 159.977ZM328.868 164.273V152.273H330.163V153.659H330.322C330.421 153.508 330.557 153.314 330.732 153.08C330.91 152.841 331.163 152.629 331.493 152.443C331.826 152.254 332.277 152.159 332.845 152.159C333.58 152.159 334.228 152.343 334.788 152.71C335.349 153.078 335.786 153.598 336.101 154.273C336.415 154.947 336.572 155.742 336.572 156.659C336.572 157.583 336.415 158.384 336.101 159.062C335.786 159.737 335.351 160.259 334.794 160.631C334.237 160.998 333.595 161.182 332.868 161.182C332.307 161.182 331.858 161.089 331.521 160.903C331.184 160.714 330.925 160.5 330.743 160.261C330.561 160.019 330.421 159.818 330.322 159.659H330.209V164.273H328.868ZM330.186 156.636C330.186 157.295 330.283 157.877 330.476 158.381C330.669 158.881 330.951 159.273 331.322 159.557C331.694 159.837 332.148 159.977 332.686 159.977C333.247 159.977 333.714 159.83 334.089 159.534C334.468 159.235 334.752 158.833 334.942 158.33C335.135 157.822 335.232 157.258 335.232 156.636C335.232 156.023 335.137 155.47 334.947 154.977C334.762 154.481 334.48 154.089 334.101 153.801C333.726 153.509 333.254 153.364 332.686 153.364C332.141 153.364 331.682 153.502 331.311 153.778C330.94 154.051 330.66 154.434 330.47 154.926C330.281 155.415 330.186 155.985 330.186 156.636ZM342.413 152.273V153.409H337.891V152.273H342.413ZM339.209 150.182H340.55V158.5C340.55 158.879 340.605 159.163 340.714 159.352C340.828 159.538 340.972 159.663 341.146 159.727C341.324 159.788 341.512 159.818 341.709 159.818C341.857 159.818 341.978 159.811 342.072 159.795C342.167 159.777 342.243 159.761 342.3 159.75L342.572 160.955C342.482 160.989 342.355 161.023 342.192 161.057C342.029 161.095 341.822 161.114 341.572 161.114C341.194 161.114 340.822 161.032 340.459 160.869C340.099 160.706 339.8 160.458 339.561 160.125C339.326 159.792 339.209 159.371 339.209 158.864V150.182ZM344.43 161V152.273H345.771V161H344.43ZM345.112 150.818C344.851 150.818 344.625 150.729 344.436 150.551C344.25 150.373 344.158 150.159 344.158 149.909C344.158 149.659 344.25 149.445 344.436 149.267C344.625 149.089 344.851 149 345.112 149C345.374 149 345.597 149.089 345.783 149.267C345.972 149.445 346.067 149.659 346.067 149.909C346.067 150.159 345.972 150.373 345.783 150.551C345.597 150.729 345.374 150.818 345.112 150.818ZM351.773 161.182C350.985 161.182 350.294 160.994 349.699 160.619C349.108 160.244 348.646 159.72 348.312 159.045C347.983 158.371 347.818 157.583 347.818 156.682C347.818 155.773 347.983 154.979 348.312 154.301C348.646 153.623 349.108 153.097 349.699 152.722C350.294 152.347 350.985 152.159 351.773 152.159C352.561 152.159 353.25 152.347 353.841 152.722C354.436 153.097 354.898 153.623 355.227 154.301C355.561 154.979 355.727 155.773 355.727 156.682C355.727 157.583 355.561 158.371 355.227 159.045C354.898 159.72 354.436 160.244 353.841 160.619C353.25 160.994 352.561 161.182 351.773 161.182ZM351.773 159.977C352.371 159.977 352.864 159.824 353.25 159.517C353.636 159.21 353.922 158.807 354.108 158.307C354.294 157.807 354.386 157.265 354.386 156.682C354.386 156.098 354.294 155.555 354.108 155.051C353.922 154.547 353.636 154.14 353.25 153.83C352.864 153.519 352.371 153.364 351.773 153.364C351.174 153.364 350.682 153.519 350.295 153.83C349.909 154.14 349.623 154.547 349.438 155.051C349.252 155.555 349.159 156.098 349.159 156.682C349.159 157.265 349.252 157.807 349.438 158.307C349.623 158.807 349.909 159.21 350.295 159.517C350.682 159.824 351.174 159.977 351.773 159.977ZM359.115 155.75V161H357.774V152.273H359.07V153.636H359.183C359.388 153.193 359.698 152.837 360.115 152.568C360.532 152.295 361.07 152.159 361.729 152.159C362.32 152.159 362.837 152.28 363.28 152.523C363.723 152.761 364.068 153.125 364.314 153.614C364.56 154.098 364.683 154.712 364.683 155.455V161H363.342V155.545C363.342 154.86 363.164 154.326 362.808 153.943C362.452 153.557 361.964 153.364 361.342 153.364C360.914 153.364 360.532 153.456 360.195 153.642C359.861 153.828 359.598 154.098 359.405 154.455C359.212 154.811 359.115 155.242 359.115 155.75ZM369.702 161.205C369.149 161.205 368.647 161.1 368.196 160.892C367.745 160.68 367.387 160.375 367.122 159.977C366.857 159.576 366.724 159.091 366.724 158.523C366.724 158.023 366.823 157.617 367.02 157.307C367.217 156.992 367.48 156.746 367.81 156.568C368.139 156.39 368.503 156.258 368.901 156.17C369.302 156.08 369.705 156.008 370.111 155.955C370.641 155.886 371.071 155.835 371.401 155.801C371.734 155.763 371.976 155.701 372.128 155.614C372.283 155.527 372.361 155.375 372.361 155.159V155.114C372.361 154.553 372.207 154.117 371.901 153.807C371.598 153.496 371.137 153.341 370.52 153.341C369.88 153.341 369.378 153.481 369.014 153.761C368.651 154.042 368.395 154.341 368.247 154.659L366.974 154.205C367.202 153.674 367.505 153.261 367.884 152.966C368.266 152.667 368.683 152.458 369.134 152.341C369.588 152.22 370.035 152.159 370.474 152.159C370.755 152.159 371.077 152.193 371.44 152.261C371.808 152.326 372.162 152.46 372.503 152.665C372.848 152.869 373.134 153.178 373.361 153.591C373.588 154.004 373.702 154.557 373.702 155.25V161H372.361V159.818H372.293C372.202 160.008 372.05 160.21 371.838 160.426C371.626 160.642 371.344 160.826 370.991 160.977C370.639 161.129 370.209 161.205 369.702 161.205ZM369.906 160C370.437 160 370.884 159.896 371.247 159.688C371.615 159.479 371.891 159.21 372.077 158.881C372.266 158.551 372.361 158.205 372.361 157.841V156.614C372.304 156.682 372.179 156.744 371.986 156.801C371.796 156.854 371.577 156.902 371.327 156.943C371.08 156.981 370.84 157.015 370.605 157.045C370.374 157.072 370.187 157.095 370.043 157.114C369.694 157.159 369.368 157.233 369.065 157.335C368.766 157.434 368.524 157.583 368.338 157.784C368.156 157.981 368.065 158.25 368.065 158.591C368.065 159.057 368.238 159.409 368.582 159.648C368.931 159.883 369.372 160 369.906 160ZM377.49 149.364V161H376.149V149.364H377.49ZM382.81 156.091C382.81 157.523 382.622 158.841 382.247 160.045C381.876 161.246 381.344 162.352 380.651 163.364H379.469C379.741 162.989 379.995 162.527 380.23 161.977C380.469 161.432 380.677 160.833 380.855 160.182C381.033 159.527 381.171 158.85 381.27 158.153C381.372 157.453 381.423 156.765 381.423 156.091C381.423 155.189 381.336 154.275 381.162 153.347C380.988 152.419 380.753 151.557 380.457 150.761C380.162 149.966 379.832 149.318 379.469 148.818H380.651C381.344 149.83 381.876 150.937 382.247 152.142C382.622 153.343 382.81 154.659 382.81 156.091Z" fill="black"/>
<path d="M393.014 134.09C392.091 136.887 393.61 139.903 396.407 140.826C399.204 141.749 402.22 140.23 403.143 137.433C404.066 134.636 402.547 131.62 399.75 130.697C396.953 129.774 393.937 131.293 393.014 134.09ZM704.935 228.329C704.012 231.126 705.531 234.142 708.328 235.065C711.126 235.988 714.141 234.469 715.065 231.672C715.988 228.874 714.469 225.859 711.671 224.935C708.874 224.012 705.858 225.531 704.935 228.329ZM710 222.536L709 222.536L710 222.536ZM398.142 136.76L603.741 123.734L603.614 121.738L398.015 134.764L398.142 136.76ZM709 222.536L709 230L711 230L711 222.536L709 222.536ZM603.741 123.734C660.765 120.121 709 165.397 709 222.536L711 222.536C711 164.243 661.79 118.052 603.614 121.738L603.741 123.734Z" fill="black"/>
<path d="M351.559 170.232C350.03 167.714 346.75 166.912 344.232 168.441C341.714 169.97 340.912 173.25 342.441 175.768C343.97 178.286 347.25 179.088 349.768 177.559C352.286 176.03 353.088 172.75 351.559 170.232ZM255.504 225.232C253.975 222.714 250.695 221.913 248.177 223.441C245.659 224.97 244.857 228.25 246.386 230.768C247.915 233.286 251.195 234.088 253.713 232.559C256.231 231.03 257.032 227.75 255.504 225.232ZM346.503 172.132L250.448 227.132L251.442 228.868L347.497 173.868L346.503 172.132Z" fill="black"/>
<rect x="171" y="229" width="157" height="48" stroke="black" stroke-width="2"/>
<path d="M222.523 258.182C221.795 258.182 221.153 257.998 220.597 257.631C220.04 257.259 219.604 256.737 219.29 256.062C218.975 255.384 218.818 254.583 218.818 253.659C218.818 252.742 218.975 251.947 219.29 251.273C219.604 250.598 220.042 250.078 220.602 249.71C221.163 249.343 221.811 249.159 222.545 249.159C223.114 249.159 223.563 249.254 223.892 249.443C224.225 249.629 224.479 249.841 224.653 250.08C224.831 250.314 224.97 250.508 225.068 250.659H225.182V246.364H226.523V258H225.227V256.659H225.068C224.97 256.818 224.83 257.019 224.648 257.261C224.466 257.5 224.206 257.714 223.869 257.903C223.532 258.089 223.083 258.182 222.523 258.182ZM222.705 256.977C223.242 256.977 223.697 256.837 224.068 256.557C224.439 256.273 224.722 255.881 224.915 255.381C225.108 254.877 225.205 254.295 225.205 253.636C225.205 252.985 225.11 252.415 224.92 251.926C224.731 251.434 224.451 251.051 224.08 250.778C223.708 250.502 223.25 250.364 222.705 250.364C222.136 250.364 221.663 250.509 221.284 250.801C220.909 251.089 220.627 251.481 220.438 251.977C220.252 252.47 220.159 253.023 220.159 253.636C220.159 254.258 220.254 254.822 220.443 255.33C220.636 255.833 220.92 256.235 221.295 256.534C221.674 256.83 222.144 256.977 222.705 256.977ZM232.824 258.182C231.983 258.182 231.258 257.996 230.648 257.625C230.042 257.25 229.574 256.727 229.244 256.057C228.919 255.383 228.756 254.598 228.756 253.705C228.756 252.811 228.919 252.023 229.244 251.341C229.574 250.655 230.032 250.121 230.619 249.739C231.21 249.352 231.9 249.159 232.688 249.159C233.142 249.159 233.591 249.235 234.034 249.386C234.477 249.538 234.881 249.784 235.244 250.125C235.608 250.462 235.898 250.909 236.114 251.466C236.33 252.023 236.438 252.708 236.438 253.523V254.091H229.71V252.932H235.074C235.074 252.439 234.975 252 234.778 251.614C234.585 251.227 234.309 250.922 233.949 250.699C233.593 250.475 233.172 250.364 232.688 250.364C232.153 250.364 231.691 250.496 231.301 250.761C230.915 251.023 230.617 251.364 230.409 251.784C230.201 252.205 230.097 252.655 230.097 253.136V253.909C230.097 254.568 230.21 255.127 230.438 255.585C230.669 256.04 230.989 256.386 231.398 256.625C231.807 256.86 232.282 256.977 232.824 256.977C233.176 256.977 233.494 256.928 233.778 256.83C234.066 256.727 234.314 256.576 234.523 256.375C234.731 256.17 234.892 255.917 235.006 255.614L236.301 255.977C236.165 256.417 235.936 256.803 235.614 257.136C235.292 257.466 234.894 257.723 234.42 257.909C233.947 258.091 233.415 258.182 232.824 258.182ZM245.348 249.273L242.121 258H240.757L237.53 249.273H238.984L241.393 256.227H241.484L243.893 249.273H245.348ZM247.118 258V249.273H248.459V258H247.118ZM247.8 247.818C247.538 247.818 247.313 247.729 247.124 247.551C246.938 247.373 246.845 247.159 246.845 246.909C246.845 246.659 246.938 246.445 247.124 246.267C247.313 246.089 247.538 246 247.8 246C248.061 246 248.285 246.089 248.47 246.267C248.66 246.445 248.754 246.659 248.754 246.909C248.754 247.159 248.66 247.373 248.47 247.551C248.285 247.729 248.061 247.818 247.8 247.818ZM254.46 258.182C253.642 258.182 252.938 257.989 252.347 257.602C251.756 257.216 251.301 256.684 250.983 256.006C250.665 255.328 250.506 254.553 250.506 253.682C250.506 252.795 250.669 252.013 250.994 251.335C251.324 250.653 251.782 250.121 252.369 249.739C252.96 249.352 253.65 249.159 254.438 249.159C255.051 249.159 255.604 249.273 256.097 249.5C256.589 249.727 256.992 250.045 257.307 250.455C257.621 250.864 257.816 251.341 257.892 251.886H256.551C256.449 251.489 256.222 251.136 255.869 250.83C255.521 250.519 255.051 250.364 254.46 250.364C253.938 250.364 253.479 250.5 253.085 250.773C252.695 251.042 252.39 251.422 252.17 251.915C251.955 252.403 251.847 252.977 251.847 253.636C251.847 254.311 251.953 254.898 252.165 255.398C252.381 255.898 252.684 256.286 253.074 256.562C253.468 256.839 253.93 256.977 254.46 256.977C254.809 256.977 255.125 256.917 255.409 256.795C255.693 256.674 255.934 256.5 256.131 256.273C256.328 256.045 256.468 255.773 256.551 255.455H257.892C257.816 255.97 257.629 256.434 257.33 256.847C257.034 257.256 256.642 257.581 256.153 257.824C255.669 258.062 255.104 258.182 254.46 258.182ZM263.511 258.182C262.67 258.182 261.945 257.996 261.335 257.625C260.729 257.25 260.261 256.727 259.932 256.057C259.606 255.383 259.443 254.598 259.443 253.705C259.443 252.811 259.606 252.023 259.932 251.341C260.261 250.655 260.72 250.121 261.307 249.739C261.898 249.352 262.587 249.159 263.375 249.159C263.83 249.159 264.278 249.235 264.722 249.386C265.165 249.538 265.568 249.784 265.932 250.125C266.295 250.462 266.585 250.909 266.801 251.466C267.017 252.023 267.125 252.708 267.125 253.523V254.091H260.398V252.932H265.761C265.761 252.439 265.663 252 265.466 251.614C265.273 251.227 264.996 250.922 264.636 250.699C264.28 250.475 263.86 250.364 263.375 250.364C262.841 250.364 262.379 250.496 261.989 250.761C261.602 251.023 261.305 251.364 261.097 251.784C260.888 252.205 260.784 252.655 260.784 253.136V253.909C260.784 254.568 260.898 255.127 261.125 255.585C261.356 256.04 261.676 256.386 262.085 256.625C262.494 256.86 262.97 256.977 263.511 256.977C263.864 256.977 264.182 256.928 264.466 256.83C264.754 256.727 265.002 256.576 265.21 256.375C265.419 256.17 265.58 255.917 265.693 255.614L266.989 255.977C266.852 256.417 266.623 256.803 266.301 257.136C265.979 257.466 265.581 257.723 265.108 257.909C264.634 258.091 264.102 258.182 263.511 258.182ZM277.733 246.364V258H276.324V247.841H276.256L273.415 249.727V248.295L276.324 246.364H277.733Z" fill="black"/>
<path d="M250 272.667C247.054 272.667 244.667 275.054 244.667 278C244.667 280.946 247.054 283.333 250 283.333C252.946 283.333 255.333 280.946 255.333 278C255.333 275.054 252.946 272.667 250 272.667ZM250 322.667C247.054 322.667 244.667 325.054 244.667 328C244.667 330.946 247.054 333.333 250 333.333C252.946 333.333 255.333 330.946 255.333 328C255.333 325.054 252.946 322.667 250 322.667ZM249 278V328H251V278H249Z" fill="black"/>
<rect x="171" y="329" width="157" height="49" stroke="black" stroke-width="2"/>
<path d="M221.523 359.182C220.795 359.182 220.153 358.998 219.597 358.631C219.04 358.259 218.604 357.737 218.29 357.062C217.975 356.384 217.818 355.583 217.818 354.659C217.818 353.742 217.975 352.947 218.29 352.273C218.604 351.598 219.042 351.078 219.602 350.71C220.163 350.343 220.811 350.159 221.545 350.159C222.114 350.159 222.563 350.254 222.892 350.443C223.225 350.629 223.479 350.841 223.653 351.08C223.831 351.314 223.97 351.508 224.068 351.659H224.182V347.364H225.523V359H224.227V357.659H224.068C223.97 357.818 223.83 358.019 223.648 358.261C223.466 358.5 223.206 358.714 222.869 358.903C222.532 359.089 222.083 359.182 221.523 359.182ZM221.705 357.977C222.242 357.977 222.697 357.837 223.068 357.557C223.439 357.273 223.722 356.881 223.915 356.381C224.108 355.877 224.205 355.295 224.205 354.636C224.205 353.985 224.11 353.415 223.92 352.926C223.731 352.434 223.451 352.051 223.08 351.778C222.708 351.502 222.25 351.364 221.705 351.364C221.136 351.364 220.663 351.509 220.284 351.801C219.909 352.089 219.627 352.481 219.438 352.977C219.252 353.47 219.159 354.023 219.159 354.636C219.159 355.258 219.254 355.822 219.443 356.33C219.636 356.833 219.92 357.235 220.295 357.534C220.674 357.83 221.144 357.977 221.705 357.977ZM231.824 359.182C230.983 359.182 230.258 358.996 229.648 358.625C229.042 358.25 228.574 357.727 228.244 357.057C227.919 356.383 227.756 355.598 227.756 354.705C227.756 353.811 227.919 353.023 228.244 352.341C228.574 351.655 229.032 351.121 229.619 350.739C230.21 350.352 230.9 350.159 231.688 350.159C232.142 350.159 232.591 350.235 233.034 350.386C233.477 350.538 233.881 350.784 234.244 351.125C234.608 351.462 234.898 351.909 235.114 352.466C235.33 353.023 235.438 353.708 235.438 354.523V355.091H228.71V353.932H234.074C234.074 353.439 233.975 353 233.778 352.614C233.585 352.227 233.309 351.922 232.949 351.699C232.593 351.475 232.172 351.364 231.688 351.364C231.153 351.364 230.691 351.496 230.301 351.761C229.915 352.023 229.617 352.364 229.409 352.784C229.201 353.205 229.097 353.655 229.097 354.136V354.909C229.097 355.568 229.21 356.127 229.438 356.585C229.669 357.04 229.989 357.386 230.398 357.625C230.807 357.86 231.282 357.977 231.824 357.977C232.176 357.977 232.494 357.928 232.778 357.83C233.066 357.727 233.314 357.576 233.523 357.375C233.731 357.17 233.892 356.917 234.006 356.614L235.301 356.977C235.165 357.417 234.936 357.803 234.614 358.136C234.292 358.466 233.894 358.723 233.42 358.909C232.947 359.091 232.415 359.182 231.824 359.182ZM244.348 350.273L241.121 359H239.757L236.53 350.273H237.984L240.393 357.227H240.484L242.893 350.273H244.348ZM246.118 359V350.273H247.459V359H246.118ZM246.8 348.818C246.538 348.818 246.313 348.729 246.124 348.551C245.938 348.373 245.845 348.159 245.845 347.909C245.845 347.659 245.938 347.445 246.124 347.267C246.313 347.089 246.538 347 246.8 347C247.061 347 247.285 347.089 247.47 347.267C247.66 347.445 247.754 347.659 247.754 347.909C247.754 348.159 247.66 348.373 247.47 348.551C247.285 348.729 247.061 348.818 246.8 348.818ZM253.46 359.182C252.642 359.182 251.938 358.989 251.347 358.602C250.756 358.216 250.301 357.684 249.983 357.006C249.665 356.328 249.506 355.553 249.506 354.682C249.506 353.795 249.669 353.013 249.994 352.335C250.324 351.653 250.782 351.121 251.369 350.739C251.96 350.352 252.65 350.159 253.438 350.159C254.051 350.159 254.604 350.273 255.097 350.5C255.589 350.727 255.992 351.045 256.307 351.455C256.621 351.864 256.816 352.341 256.892 352.886H255.551C255.449 352.489 255.222 352.136 254.869 351.83C254.521 351.519 254.051 351.364 253.46 351.364C252.938 351.364 252.479 351.5 252.085 351.773C251.695 352.042 251.39 352.422 251.17 352.915C250.955 353.403 250.847 353.977 250.847 354.636C250.847 355.311 250.953 355.898 251.165 356.398C251.381 356.898 251.684 357.286 252.074 357.562C252.468 357.839 252.93 357.977 253.46 357.977C253.809 357.977 254.125 357.917 254.409 357.795C254.693 357.674 254.934 357.5 255.131 357.273C255.328 357.045 255.468 356.773 255.551 356.455H256.892C256.816 356.97 256.629 357.434 256.33 357.847C256.034 358.256 255.642 358.581 255.153 358.824C254.669 359.062 254.104 359.182 253.46 359.182ZM262.511 359.182C261.67 359.182 260.945 358.996 260.335 358.625C259.729 358.25 259.261 357.727 258.932 357.057C258.606 356.383 258.443 355.598 258.443 354.705C258.443 353.811 258.606 353.023 258.932 352.341C259.261 351.655 259.72 351.121 260.307 350.739C260.898 350.352 261.587 350.159 262.375 350.159C262.83 350.159 263.278 350.235 263.722 350.386C264.165 350.538 264.568 350.784 264.932 351.125C265.295 351.462 265.585 351.909 265.801 352.466C266.017 353.023 266.125 353.708 266.125 354.523V355.091H259.398V353.932H264.761C264.761 353.439 264.663 353 264.466 352.614C264.273 352.227 263.996 351.922 263.636 351.699C263.28 351.475 262.86 351.364 262.375 351.364C261.841 351.364 261.379 351.496 260.989 351.761C260.602 352.023 260.305 352.364 260.097 352.784C259.888 353.205 259.784 353.655 259.784 354.136V354.909C259.784 355.568 259.898 356.127 260.125 356.585C260.356 357.04 260.676 357.386 261.085 357.625C261.494 357.86 261.97 357.977 262.511 357.977C262.864 357.977 263.182 357.928 263.466 357.83C263.754 357.727 264.002 357.576 264.21 357.375C264.419 357.17 264.58 356.917 264.693 356.614L265.989 356.977C265.852 357.417 265.623 357.803 265.301 358.136C264.979 358.466 264.581 358.723 264.108 358.909C263.634 359.091 263.102 359.182 262.511 359.182ZM272.642 359V357.977L276.483 353.773C276.934 353.28 277.305 352.852 277.597 352.489C277.888 352.121 278.104 351.777 278.244 351.455C278.388 351.129 278.46 350.788 278.46 350.432C278.46 350.023 278.362 349.669 278.165 349.369C277.972 349.07 277.706 348.839 277.369 348.676C277.032 348.513 276.653 348.432 276.233 348.432C275.786 348.432 275.396 348.525 275.062 348.71C274.733 348.892 274.477 349.148 274.295 349.477C274.117 349.807 274.028 350.193 274.028 350.636H272.688C272.688 349.955 272.845 349.356 273.159 348.841C273.473 348.326 273.902 347.924 274.443 347.636C274.989 347.348 275.6 347.205 276.278 347.205C276.96 347.205 277.564 347.348 278.091 347.636C278.617 347.924 279.03 348.312 279.33 348.801C279.629 349.29 279.778 349.833 279.778 350.432C279.778 350.86 279.701 351.278 279.545 351.688C279.394 352.093 279.129 352.545 278.75 353.045C278.375 353.542 277.854 354.148 277.188 354.864L274.574 357.659V357.75H279.983V359H272.642Z" fill="black"/>
<path d="M91.8295 93H89.6136L96.0227 75.5455H98.2045L104.614 93H102.398L97.1818 78.3068H97.0455L91.8295 93ZM92.6477 86.1818H101.58V88.0568H92.6477V86.1818ZM109.071 75.5455V93H107.06V75.5455H109.071ZM112.755 93V79.9091H114.766V93H112.755ZM113.778 77.7273C113.386 77.7273 113.048 77.5938 112.763 77.3267C112.485 77.0597 112.346 76.7386 112.346 76.3636C112.346 75.9886 112.485 75.6676 112.763 75.4006C113.048 75.1335 113.386 75 113.778 75C114.17 75 114.505 75.1335 114.783 75.4006C115.067 75.6676 115.21 75.9886 115.21 76.3636C115.21 76.7386 115.067 77.0597 114.783 77.3267C114.505 77.5938 114.17 77.7273 113.778 77.7273ZM123.768 93.2727C122.541 93.2727 121.484 92.983 120.598 92.4034C119.712 91.8239 119.03 91.0256 118.553 90.0085C118.075 88.9915 117.837 87.8295 117.837 86.5227C117.837 85.1932 118.081 84.0199 118.57 83.0028C119.064 81.9801 119.751 81.1818 120.632 80.608C121.518 80.0284 122.553 79.7386 123.734 79.7386C124.655 79.7386 125.484 79.9091 126.223 80.25C126.962 80.5909 127.567 81.0682 128.038 81.6818C128.51 82.2955 128.803 83.0114 128.916 83.8295H126.905C126.751 83.233 126.411 82.7045 125.882 82.2443C125.359 81.7784 124.655 81.5455 123.768 81.5455C122.984 81.5455 122.297 81.75 121.706 82.1591C121.121 82.5625 120.663 83.1335 120.334 83.8722C120.01 84.6051 119.848 85.4659 119.848 86.4545C119.848 87.4659 120.007 88.3466 120.325 89.0966C120.649 89.8466 121.104 90.429 121.689 90.8438C122.28 91.2585 122.973 91.4659 123.768 91.4659C124.291 91.4659 124.766 91.375 125.192 91.1932C125.618 91.0114 125.979 90.75 126.274 90.4091C126.57 90.0682 126.78 89.6591 126.905 89.1818H128.916C128.803 89.9545 128.521 90.6506 128.072 91.2699C127.629 91.8835 127.041 92.3722 126.308 92.7358C125.581 93.0938 124.734 93.2727 123.768 93.2727ZM137.345 93.2727C136.084 93.2727 134.996 92.9943 134.081 92.4375C133.172 91.875 132.47 91.0909 131.976 90.0852C131.487 89.0739 131.243 87.8977 131.243 86.5568C131.243 85.2159 131.487 84.0341 131.976 83.0114C132.47 81.983 133.158 81.1818 134.038 80.608C134.925 80.0284 135.959 79.7386 137.141 79.7386C137.822 79.7386 138.496 79.8523 139.161 80.0795C139.825 80.3068 140.43 80.6761 140.976 81.1875C141.521 81.6932 141.956 82.3636 142.28 83.1989C142.604 84.0341 142.766 85.0625 142.766 86.2841V87.1364H132.675V85.3977H140.72C140.72 84.6591 140.572 84 140.277 83.4205C139.987 82.8409 139.572 82.3835 139.033 82.0483C138.499 81.7131 137.868 81.5455 137.141 81.5455C136.339 81.5455 135.646 81.7443 135.061 82.142C134.482 82.5341 134.036 83.0455 133.723 83.6761C133.411 84.3068 133.254 84.983 133.254 85.7045V86.8636C133.254 87.8523 133.425 88.6903 133.766 89.3778C134.112 90.0597 134.592 90.5795 135.206 90.9375C135.82 91.2898 136.533 91.4659 137.345 91.4659C137.874 91.4659 138.351 91.392 138.777 91.2443C139.209 91.0909 139.581 90.8636 139.893 90.5625C140.206 90.2557 140.447 89.875 140.618 89.4205L142.561 89.9659C142.357 90.625 142.013 91.2045 141.53 91.7045C141.047 92.1989 140.45 92.5852 139.74 92.8636C139.03 93.1364 138.232 93.2727 137.345 93.2727ZM147.598 75.5455V77.0795C147.598 77.5455 147.513 78.0426 147.342 78.571C147.178 79.0938 146.933 79.6023 146.609 80.0966C146.291 80.5852 145.905 81.0114 145.45 81.375L144.359 80.4886C144.717 79.9773 145.027 79.446 145.288 78.8949C145.555 78.3381 145.689 77.7443 145.689 77.1136V75.5455H147.598ZM157.676 82.8409L155.869 83.3523C155.756 83.0511 155.588 82.7585 155.366 82.4744C155.151 82.1847 154.855 81.946 154.48 81.7585C154.105 81.571 153.625 81.4773 153.04 81.4773C152.239 81.4773 151.571 81.6619 151.037 82.0312C150.509 82.3949 150.244 82.858 150.244 83.4205C150.244 83.9205 150.426 84.3153 150.79 84.6051C151.153 84.8949 151.722 85.1364 152.494 85.3295L154.438 85.8068C155.608 86.0909 156.48 86.5256 157.054 87.1108C157.628 87.6903 157.915 88.4375 157.915 89.3523C157.915 90.1023 157.699 90.7727 157.267 91.3636C156.841 91.9545 156.244 92.4205 155.477 92.7614C154.71 93.1023 153.818 93.2727 152.801 93.2727C151.466 93.2727 150.361 92.983 149.486 92.4034C148.611 91.8239 148.057 90.9773 147.824 89.8636L149.733 89.3864C149.915 90.0909 150.259 90.6193 150.764 90.9716C151.276 91.3239 151.943 91.5 152.767 91.5C153.705 91.5 154.449 91.3011 155 90.9034C155.557 90.5 155.835 90.017 155.835 89.4545C155.835 89 155.676 88.6193 155.358 88.3125C155.04 88 154.551 87.767 153.892 87.6136L151.71 87.1023C150.511 86.8182 149.631 86.3778 149.068 85.7812C148.511 85.179 148.233 84.4261 148.233 83.5227C148.233 82.7841 148.44 82.1307 148.855 81.5625C149.276 80.9943 149.847 80.5483 150.568 80.2244C151.295 79.9006 152.119 79.7386 153.04 79.7386C154.335 79.7386 155.352 80.0227 156.091 80.5909C156.835 81.1591 157.364 81.9091 157.676 82.8409ZM167.692 93V79.9091H169.704V93H167.692ZM168.715 77.7273C168.323 77.7273 167.985 77.5938 167.701 77.3267C167.423 77.0597 167.283 76.7386 167.283 76.3636C167.283 75.9886 167.423 75.6676 167.701 75.4006C167.985 75.1335 168.323 75 168.715 75C169.107 75 169.442 75.1335 169.721 75.4006C170.005 75.6676 170.147 75.9886 170.147 76.3636C170.147 76.7386 170.005 77.0597 169.721 77.3267C169.442 77.5938 169.107 77.7273 168.715 77.7273ZM178.331 93.2727C177.24 93.2727 176.277 92.9972 175.442 92.446C174.607 91.8892 173.953 91.1051 173.482 90.0938C173.01 89.0767 172.774 87.875 172.774 86.4886C172.774 85.1136 173.01 83.9205 173.482 82.9091C173.953 81.8977 174.609 81.1165 175.45 80.5653C176.291 80.0142 177.263 79.7386 178.365 79.7386C179.217 79.7386 179.891 79.8807 180.385 80.1648C180.885 80.4432 181.266 80.7614 181.527 81.1193C181.794 81.4716 182.001 81.7614 182.149 81.9886H182.32V75.5455H184.331V93H182.388V90.9886H182.149C182.001 91.2273 181.791 91.5284 181.518 91.892C181.246 92.25 180.857 92.571 180.351 92.8551C179.845 93.1335 179.172 93.2727 178.331 93.2727ZM178.604 91.4659C179.411 91.4659 180.092 91.2557 180.649 90.8352C181.206 90.4091 181.629 89.821 181.919 89.071C182.209 88.3153 182.354 87.4432 182.354 86.4545C182.354 85.4773 182.212 84.6222 181.928 83.8892C181.643 83.1506 181.223 82.5767 180.666 82.1676C180.109 81.7528 179.422 81.5455 178.604 81.5455C177.751 81.5455 177.041 81.7642 176.473 82.2017C175.911 82.6335 175.487 83.2216 175.203 83.9659C174.925 84.7045 174.786 85.5341 174.786 86.4545C174.786 87.3864 174.928 88.233 175.212 88.9943C175.501 89.75 175.928 90.3523 176.49 90.8011C177.058 91.2443 177.763 91.4659 178.604 91.4659ZM193.783 93.2727C192.521 93.2727 191.433 92.9943 190.518 92.4375C189.609 91.875 188.908 91.0909 188.413 90.0852C187.925 89.0739 187.68 87.8977 187.68 86.5568C187.68 85.2159 187.925 84.0341 188.413 83.0114C188.908 81.983 189.595 81.1818 190.476 80.608C191.362 80.0284 192.396 79.7386 193.578 79.7386C194.26 79.7386 194.933 79.8523 195.598 80.0795C196.263 80.3068 196.868 80.6761 197.413 81.1875C197.959 81.6932 198.393 82.3636 198.717 83.1989C199.041 84.0341 199.203 85.0625 199.203 86.2841V87.1364H189.112V85.3977H197.158C197.158 84.6591 197.01 84 196.714 83.4205C196.425 82.8409 196.01 82.3835 195.47 82.0483C194.936 81.7131 194.305 81.5455 193.578 81.5455C192.777 81.5455 192.084 81.7443 191.499 82.142C190.919 82.5341 190.473 83.0455 190.161 83.6761C189.848 84.3068 189.692 84.983 189.692 85.7045V86.8636C189.692 87.8523 189.862 88.6903 190.203 89.3778C190.55 90.0597 191.03 90.5795 191.643 90.9375C192.257 91.2898 192.97 91.4659 193.783 91.4659C194.311 91.4659 194.788 91.392 195.214 91.2443C195.646 91.0909 196.018 90.8636 196.331 90.5625C196.643 90.2557 196.885 89.875 197.055 89.4205L198.999 89.9659C198.794 90.625 198.45 91.2045 197.967 91.7045C197.484 92.1989 196.888 92.5852 196.178 92.8636C195.467 93.1364 194.669 93.2727 193.783 93.2727ZM204.274 85.125V93H202.263V79.9091H204.206V81.9545H204.376C204.683 81.2898 205.149 80.7557 205.774 80.3523C206.399 79.9432 207.206 79.7386 208.195 79.7386C209.081 79.7386 209.857 79.9205 210.521 80.2841C211.186 80.642 211.703 81.1875 212.072 81.9205C212.442 82.6477 212.626 83.5682 212.626 84.6818V93H210.615V84.8182C210.615 83.7898 210.348 82.9886 209.814 82.4148C209.28 81.8352 208.547 81.5455 207.615 81.5455C206.973 81.5455 206.399 81.6847 205.893 81.9631C205.393 82.2415 204.999 82.6477 204.709 83.1818C204.419 83.7159 204.274 84.3636 204.274 85.125ZM221.995 79.9091V81.6136H215.211V79.9091H221.995ZM217.188 76.7727H219.2V89.25C219.2 89.8182 219.282 90.2443 219.447 90.5284C219.617 90.8068 219.833 90.9943 220.094 91.0909C220.362 91.1818 220.643 91.2273 220.938 91.2273C221.16 91.2273 221.342 91.2159 221.484 91.1932C221.626 91.1648 221.739 91.142 221.825 91.125L222.234 92.9318C222.097 92.983 221.907 93.0341 221.663 93.0852C221.418 93.142 221.109 93.1705 220.734 93.1705C220.165 93.1705 219.609 93.0483 219.063 92.804C218.523 92.5597 218.075 92.1875 217.717 91.6875C217.364 91.1875 217.188 90.5568 217.188 89.7955V76.7727ZM225.021 93V79.9091H227.032V93H225.021ZM226.043 77.7273C225.651 77.7273 225.313 77.5938 225.029 77.3267C224.751 77.0597 224.612 76.7386 224.612 76.3636C224.612 75.9886 224.751 75.6676 225.029 75.4006C225.313 75.1335 225.651 75 226.043 75C226.435 75 226.771 75.1335 227.049 75.4006C227.333 75.6676 227.475 75.9886 227.475 76.3636C227.475 76.7386 227.333 77.0597 227.049 77.3267C226.771 77.5938 226.435 77.7273 226.043 77.7273ZM236.409 79.9091V81.6136H229.625V79.9091H236.409ZM231.602 76.7727H233.614V89.25C233.614 89.8182 233.696 90.2443 233.861 90.5284C234.031 90.8068 234.247 90.9943 234.509 91.0909C234.776 91.1818 235.057 91.2273 235.352 91.2273C235.574 91.2273 235.756 91.2159 235.898 91.1932C236.04 91.1648 236.153 91.142 236.239 91.125L236.648 92.9318C236.511 92.983 236.321 93.0341 236.077 93.0852C235.832 93.142 235.523 93.1705 235.148 93.1705C234.58 93.1705 234.023 93.0483 233.477 92.804C232.938 92.5597 232.489 92.1875 232.131 91.6875C231.778 91.1875 231.602 90.5568 231.602 89.7955V76.7727ZM240.73 97.9091C240.389 97.9091 240.085 97.8807 239.818 97.8239C239.551 97.7727 239.366 97.7216 239.264 97.6705L239.776 95.8977C240.264 96.0227 240.696 96.0682 241.071 96.0341C241.446 96 241.778 95.8324 242.068 95.5312C242.364 95.2358 242.634 94.7557 242.878 94.0909L243.253 93.0682L238.412 79.9091H240.594L244.207 90.3409H244.344L247.957 79.9091H250.139L244.582 94.9091C244.332 95.5852 244.023 96.1449 243.653 96.5881C243.284 97.0369 242.855 97.3693 242.366 97.5852C241.884 97.8011 241.338 97.9091 240.73 97.9091Z" fill="black"/>
<path d="M323.667 253C323.667 255.946 326.054 258.333 329 258.333C331.946 258.333 334.333 255.946 334.333 253C334.333 250.054 331.946 247.667 329 247.667C326.054 247.667 323.667 250.054 323.667 253ZM624.667 253C624.667 255.946 627.054 258.333 630 258.333C632.946 258.333 635.333 255.946 635.333 253C635.333 250.054 632.946 247.667 630 247.667C627.054 247.667 624.667 250.054 624.667 253ZM329 254H630V252H329V254Z" fill="black"/>
<path d="M323.667 354.012C323.673 356.958 326.067 359.34 329.012 359.333C331.958 359.327 334.34 356.933 334.333 353.988C334.327 351.042 331.933 348.66 328.988 348.667C326.042 348.673 323.66 351.067 323.667 354.012ZM541.676 353.512C541.683 356.458 544.076 358.84 547.021 358.833C549.967 358.827 552.349 356.433 552.343 353.488C552.336 350.542 549.942 348.16 546.997 348.167C544.051 348.174 541.669 350.567 541.676 353.512ZM329.002 355L547.011 354.5L547.007 352.5L328.998 353L329.002 355Z" fill="black"/>
<rect x="501" y="170" width="428" height="238" rx="9" stroke="black" stroke-width="2" stroke-dasharray="2 2"/>
<rect x="630" y="230" width="159" height="47" stroke="black" stroke-width="2"/>
<path d="M682.523 259.182C681.795 259.182 681.153 258.998 680.597 258.631C680.04 258.259 679.604 257.737 679.29 257.062C678.975 256.384 678.818 255.583 678.818 254.659C678.818 253.742 678.975 252.947 679.29 252.273C679.604 251.598 680.042 251.078 680.602 250.71C681.163 250.343 681.811 250.159 682.545 250.159C683.114 250.159 683.563 250.254 683.892 250.443C684.225 250.629 684.479 250.841 684.653 251.08C684.831 251.314 684.97 251.508 685.068 251.659H685.182V247.364H686.523V259H685.227V257.659H685.068C684.97 257.818 684.83 258.019 684.648 258.261C684.466 258.5 684.206 258.714 683.869 258.903C683.532 259.089 683.083 259.182 682.523 259.182ZM682.705 257.977C683.242 257.977 683.697 257.837 684.068 257.557C684.439 257.273 684.722 256.881 684.915 256.381C685.108 255.877 685.205 255.295 685.205 254.636C685.205 253.985 685.11 253.415 684.92 252.926C684.731 252.434 684.451 252.051 684.08 251.778C683.708 251.502 683.25 251.364 682.705 251.364C682.136 251.364 681.663 251.509 681.284 251.801C680.909 252.089 680.627 252.481 680.438 252.977C680.252 253.47 680.159 254.023 680.159 254.636C680.159 255.258 680.254 255.822 680.443 256.33C680.636 256.833 680.92 257.235 681.295 257.534C681.674 257.83 682.144 257.977 682.705 257.977ZM692.824 259.182C691.983 259.182 691.258 258.996 690.648 258.625C690.042 258.25 689.574 257.727 689.244 257.057C688.919 256.383 688.756 255.598 688.756 254.705C688.756 253.811 688.919 253.023 689.244 252.341C689.574 251.655 690.032 251.121 690.619 250.739C691.21 250.352 691.9 250.159 692.688 250.159C693.142 250.159 693.591 250.235 694.034 250.386C694.477 250.538 694.881 250.784 695.244 251.125C695.608 251.462 695.898 251.909 696.114 252.466C696.33 253.023 696.438 253.708 696.438 254.523V255.091H689.71V253.932H695.074C695.074 253.439 694.975 253 694.778 252.614C694.585 252.227 694.309 251.922 693.949 251.699C693.593 251.475 693.172 251.364 692.688 251.364C692.153 251.364 691.691 251.496 691.301 251.761C690.915 252.023 690.617 252.364 690.409 252.784C690.201 253.205 690.097 253.655 690.097 254.136V254.909C690.097 255.568 690.21 256.127 690.438 256.585C690.669 257.04 690.989 257.386 691.398 257.625C691.807 257.86 692.282 257.977 692.824 257.977C693.176 257.977 693.494 257.928 693.778 257.83C694.066 257.727 694.314 257.576 694.523 257.375C694.731 257.17 694.892 256.917 695.006 256.614L696.301 256.977C696.165 257.417 695.936 257.803 695.614 258.136C695.292 258.466 694.894 258.723 694.42 258.909C693.947 259.091 693.415 259.182 692.824 259.182ZM705.348 250.273L702.121 259H700.757L697.53 250.273H698.984L701.393 257.227H701.484L703.893 250.273H705.348ZM707.118 259V250.273H708.459V259H707.118ZM707.8 248.818C707.538 248.818 707.313 248.729 707.124 248.551C706.938 248.373 706.845 248.159 706.845 247.909C706.845 247.659 706.938 247.445 707.124 247.267C707.313 247.089 707.538 247 707.8 247C708.061 247 708.285 247.089 708.47 247.267C708.66 247.445 708.754 247.659 708.754 247.909C708.754 248.159 708.66 248.373 708.47 248.551C708.285 248.729 708.061 248.818 707.8 248.818ZM714.46 259.182C713.642 259.182 712.938 258.989 712.347 258.602C711.756 258.216 711.301 257.684 710.983 257.006C710.665 256.328 710.506 255.553 710.506 254.682C710.506 253.795 710.669 253.013 710.994 252.335C711.324 251.653 711.782 251.121 712.369 250.739C712.96 250.352 713.65 250.159 714.438 250.159C715.051 250.159 715.604 250.273 716.097 250.5C716.589 250.727 716.992 251.045 717.307 251.455C717.621 251.864 717.816 252.341 717.892 252.886H716.551C716.449 252.489 716.222 252.136 715.869 251.83C715.521 251.519 715.051 251.364 714.46 251.364C713.938 251.364 713.479 251.5 713.085 251.773C712.695 252.042 712.39 252.422 712.17 252.915C711.955 253.403 711.847 253.977 711.847 254.636C711.847 255.311 711.953 255.898 712.165 256.398C712.381 256.898 712.684 257.286 713.074 257.562C713.468 257.839 713.93 257.977 714.46 257.977C714.809 257.977 715.125 257.917 715.409 257.795C715.693 257.674 715.934 257.5 716.131 257.273C716.328 257.045 716.468 256.773 716.551 256.455H717.892C717.816 256.97 717.629 257.434 717.33 257.847C717.034 258.256 716.642 258.581 716.153 258.824C715.669 259.062 715.104 259.182 714.46 259.182ZM723.511 259.182C722.67 259.182 721.945 258.996 721.335 258.625C720.729 258.25 720.261 257.727 719.932 257.057C719.606 256.383 719.443 255.598 719.443 254.705C719.443 253.811 719.606 253.023 719.932 252.341C720.261 251.655 720.72 251.121 721.307 250.739C721.898 250.352 722.587 250.159 723.375 250.159C723.83 250.159 724.278 250.235 724.722 250.386C725.165 250.538 725.568 250.784 725.932 251.125C726.295 251.462 726.585 251.909 726.801 252.466C727.017 253.023 727.125 253.708 727.125 254.523V255.091H720.398V253.932H725.761C725.761 253.439 725.663 253 725.466 252.614C725.273 252.227 724.996 251.922 724.636 251.699C724.28 251.475 723.86 251.364 723.375 251.364C722.841 251.364 722.379 251.496 721.989 251.761C721.602 252.023 721.305 252.364 721.097 252.784C720.888 253.205 720.784 253.655 720.784 254.136V254.909C720.784 255.568 720.898 256.127 721.125 256.585C721.356 257.04 721.676 257.386 722.085 257.625C722.494 257.86 722.97 257.977 723.511 257.977C723.864 257.977 724.182 257.928 724.466 257.83C724.754 257.727 725.002 257.576 725.21 257.375C725.419 257.17 725.58 256.917 725.693 256.614L726.989 256.977C726.852 257.417 726.623 257.803 726.301 258.136C725.979 258.466 725.581 258.723 725.108 258.909C724.634 259.091 724.102 259.182 723.511 259.182ZM737.733 247.364V259H736.324V248.841H736.256L733.415 250.727V249.295L736.324 247.364H737.733Z" fill="black"/>
<path d="M714.554 274.223C713.02 271.709 709.738 270.913 707.223 272.446C704.709 273.98 703.913 277.262 705.446 279.777C706.98 282.291 710.262 283.087 712.777 281.554C715.291 280.02 716.087 276.738 714.554 274.223ZM814.554 327.223C813.02 324.709 809.738 323.913 807.223 325.446C804.709 326.98 803.913 330.262 805.446 332.777C806.98 335.291 810.262 336.087 812.777 334.554C815.291 333.02 816.087 329.738 814.554 327.223ZM709.532 277.884L809.532 330.884L810.468 329.116L710.468 276.116L709.532 277.884Z" fill="black"/>
<path d="M715.084 273.956C713.656 271.379 710.41 270.449 707.834 271.877C705.258 273.305 704.327 276.551 705.755 279.127C707.183 281.703 710.429 282.634 713.005 281.206C715.582 279.778 716.512 276.532 715.084 273.956ZM624.526 328.165C623.098 325.589 619.852 324.658 617.276 326.086C614.7 327.514 613.769 330.76 615.197 333.336C616.625 335.913 619.871 336.843 622.448 335.415C625.024 333.987 625.954 330.741 624.526 328.165ZM709.906 275.683L664.627 302.788L665.654 304.504L710.933 277.399L709.906 275.683ZM664.627 302.788L619.348 329.893L620.375 331.609L665.654 304.504L664.627 302.788Z" fill="black"/>
<rect x="547" y="330" width="147" height="49" stroke="black" stroke-width="2"/>
<path d="M592.523 360.182C591.795 360.182 591.153 359.998 590.597 359.631C590.04 359.259 589.604 358.737 589.29 358.062C588.975 357.384 588.818 356.583 588.818 355.659C588.818 354.742 588.975 353.947 589.29 353.273C589.604 352.598 590.042 352.078 590.602 351.71C591.163 351.343 591.811 351.159 592.545 351.159C593.114 351.159 593.563 351.254 593.892 351.443C594.225 351.629 594.479 351.841 594.653 352.08C594.831 352.314 594.97 352.508 595.068 352.659H595.182V348.364H596.523V360H595.227V358.659H595.068C594.97 358.818 594.83 359.019 594.648 359.261C594.466 359.5 594.206 359.714 593.869 359.903C593.532 360.089 593.083 360.182 592.523 360.182ZM592.705 358.977C593.242 358.977 593.697 358.837 594.068 358.557C594.439 358.273 594.722 357.881 594.915 357.381C595.108 356.877 595.205 356.295 595.205 355.636C595.205 354.985 595.11 354.415 594.92 353.926C594.731 353.434 594.451 353.051 594.08 352.778C593.708 352.502 593.25 352.364 592.705 352.364C592.136 352.364 591.663 352.509 591.284 352.801C590.909 353.089 590.627 353.481 590.438 353.977C590.252 354.47 590.159 355.023 590.159 355.636C590.159 356.258 590.254 356.822 590.443 357.33C590.636 357.833 590.92 358.235 591.295 358.534C591.674 358.83 592.144 358.977 592.705 358.977ZM602.824 360.182C601.983 360.182 601.258 359.996 600.648 359.625C600.042 359.25 599.574 358.727 599.244 358.057C598.919 357.383 598.756 356.598 598.756 355.705C598.756 354.811 598.919 354.023 599.244 353.341C599.574 352.655 600.032 352.121 600.619 351.739C601.21 351.352 601.9 351.159 602.688 351.159C603.142 351.159 603.591 351.235 604.034 351.386C604.477 351.538 604.881 351.784 605.244 352.125C605.608 352.462 605.898 352.909 606.114 353.466C606.33 354.023 606.438 354.708 606.438 355.523V356.091H599.71V354.932H605.074C605.074 354.439 604.975 354 604.778 353.614C604.585 353.227 604.309 352.922 603.949 352.699C603.593 352.475 603.172 352.364 602.688 352.364C602.153 352.364 601.691 352.496 601.301 352.761C600.915 353.023 600.617 353.364 600.409 353.784C600.201 354.205 600.097 354.655 600.097 355.136V355.909C600.097 356.568 600.21 357.127 600.438 357.585C600.669 358.04 600.989 358.386 601.398 358.625C601.807 358.86 602.282 358.977 602.824 358.977C603.176 358.977 603.494 358.928 603.778 358.83C604.066 358.727 604.314 358.576 604.523 358.375C604.731 358.17 604.892 357.917 605.006 357.614L606.301 357.977C606.165 358.417 605.936 358.803 605.614 359.136C605.292 359.466 604.894 359.723 604.42 359.909C603.947 360.091 603.415 360.182 602.824 360.182ZM615.348 351.273L612.121 360H610.757L607.53 351.273H608.984L611.393 358.227H611.484L613.893 351.273H615.348ZM617.118 360V351.273H618.459V360H617.118ZM617.8 349.818C617.538 349.818 617.313 349.729 617.124 349.551C616.938 349.373 616.845 349.159 616.845 348.909C616.845 348.659 616.938 348.445 617.124 348.267C617.313 348.089 617.538 348 617.8 348C618.061 348 618.285 348.089 618.47 348.267C618.66 348.445 618.754 348.659 618.754 348.909C618.754 349.159 618.66 349.373 618.47 349.551C618.285 349.729 618.061 349.818 617.8 349.818ZM624.46 360.182C623.642 360.182 622.938 359.989 622.347 359.602C621.756 359.216 621.301 358.684 620.983 358.006C620.665 357.328 620.506 356.553 620.506 355.682C620.506 354.795 620.669 354.013 620.994 353.335C621.324 352.653 621.782 352.121 622.369 351.739C622.96 351.352 623.65 351.159 624.438 351.159C625.051 351.159 625.604 351.273 626.097 351.5C626.589 351.727 626.992 352.045 627.307 352.455C627.621 352.864 627.816 353.341 627.892 353.886H626.551C626.449 353.489 626.222 353.136 625.869 352.83C625.521 352.519 625.051 352.364 624.46 352.364C623.938 352.364 623.479 352.5 623.085 352.773C622.695 353.042 622.39 353.422 622.17 353.915C621.955 354.403 621.847 354.977 621.847 355.636C621.847 356.311 621.953 356.898 622.165 357.398C622.381 357.898 622.684 358.286 623.074 358.562C623.468 358.839 623.93 358.977 624.46 358.977C624.809 358.977 625.125 358.917 625.409 358.795C625.693 358.674 625.934 358.5 626.131 358.273C626.328 358.045 626.468 357.773 626.551 357.455H627.892C627.816 357.97 627.629 358.434 627.33 358.847C627.034 359.256 626.642 359.581 626.153 359.824C625.669 360.062 625.104 360.182 624.46 360.182ZM633.511 360.182C632.67 360.182 631.945 359.996 631.335 359.625C630.729 359.25 630.261 358.727 629.932 358.057C629.606 357.383 629.443 356.598 629.443 355.705C629.443 354.811 629.606 354.023 629.932 353.341C630.261 352.655 630.72 352.121 631.307 351.739C631.898 351.352 632.587 351.159 633.375 351.159C633.83 351.159 634.278 351.235 634.722 351.386C635.165 351.538 635.568 351.784 635.932 352.125C636.295 352.462 636.585 352.909 636.801 353.466C637.017 354.023 637.125 354.708 637.125 355.523V356.091H630.398V354.932H635.761C635.761 354.439 635.663 354 635.466 353.614C635.273 353.227 634.996 352.922 634.636 352.699C634.28 352.475 633.86 352.364 633.375 352.364C632.841 352.364 632.379 352.496 631.989 352.761C631.602 353.023 631.305 353.364 631.097 353.784C630.888 354.205 630.784 354.655 630.784 355.136V355.909C630.784 356.568 630.898 357.127 631.125 357.585C631.356 358.04 631.676 358.386 632.085 358.625C632.494 358.86 632.97 358.977 633.511 358.977C633.864 358.977 634.182 358.928 634.466 358.83C634.754 358.727 635.002 358.576 635.21 358.375C635.419 358.17 635.58 357.917 635.693 357.614L636.989 357.977C636.852 358.417 636.623 358.803 636.301 359.136C635.979 359.466 635.581 359.723 635.108 359.909C634.634 360.091 634.102 360.182 633.511 360.182ZM643.642 360V358.977L647.483 354.773C647.934 354.28 648.305 353.852 648.597 353.489C648.888 353.121 649.104 352.777 649.244 352.455C649.388 352.129 649.46 351.788 649.46 351.432C649.46 351.023 649.362 350.669 649.165 350.369C648.972 350.07 648.706 349.839 648.369 349.676C648.032 349.513 647.653 349.432 647.233 349.432C646.786 349.432 646.396 349.525 646.062 349.71C645.733 349.892 645.477 350.148 645.295 350.477C645.117 350.807 645.028 351.193 645.028 351.636H643.688C643.688 350.955 643.845 350.356 644.159 349.841C644.473 349.326 644.902 348.924 645.443 348.636C645.989 348.348 646.6 348.205 647.278 348.205C647.96 348.205 648.564 348.348 649.091 348.636C649.617 348.924 650.03 349.312 650.33 349.801C650.629 350.29 650.778 350.833 650.778 351.432C650.778 351.86 650.701 352.278 650.545 352.688C650.394 353.093 650.129 353.545 649.75 354.045C649.375 354.542 648.854 355.148 648.188 355.864L645.574 358.659V358.75H650.983V360H643.642Z" fill="black"/>
<path d="M689.667 355.071C689.707 358.017 692.126 360.372 695.071 360.333C698.017 360.293 700.372 357.874 700.333 354.929C700.293 351.983 697.874 349.628 694.929 349.667C691.983 349.707 689.628 352.126 689.667 355.071ZM726.726 354.575C726.766 357.52 729.185 359.876 732.131 359.836C735.076 359.797 737.432 357.377 737.392 354.432C737.353 351.487 734.933 349.131 731.988 349.171C729.043 349.21 726.687 351.63 726.726 354.575ZM695.013 356L732.073 355.503L732.046 353.504L694.987 354L695.013 356Z" fill="black"/>
<path d="M521.114 202V184.545H527.216C528.432 184.545 529.435 184.756 530.224 185.176C531.014 185.591 531.602 186.151 531.989 186.855C532.375 187.554 532.568 188.33 532.568 189.182C532.568 189.932 532.435 190.551 532.168 191.04C531.906 191.528 531.56 191.915 531.128 192.199C530.702 192.483 530.239 192.693 529.739 192.83V193C530.273 193.034 530.81 193.222 531.349 193.562C531.889 193.903 532.341 194.392 532.705 195.028C533.068 195.665 533.25 196.443 533.25 197.364C533.25 198.239 533.051 199.026 532.653 199.724C532.256 200.423 531.628 200.977 530.77 201.386C529.912 201.795 528.795 202 527.42 202H521.114ZM523.227 200.125H527.42C528.801 200.125 529.781 199.858 530.361 199.324C530.946 198.784 531.239 198.131 531.239 197.364C531.239 196.773 531.088 196.227 530.787 195.727C530.486 195.222 530.057 194.818 529.5 194.517C528.943 194.21 528.284 194.057 527.523 194.057H523.227V200.125ZM523.227 192.216H527.148C527.784 192.216 528.358 192.091 528.869 191.841C529.386 191.591 529.795 191.239 530.097 190.784C530.403 190.33 530.557 189.795 530.557 189.182C530.557 188.415 530.29 187.764 529.756 187.23C529.222 186.69 528.375 186.42 527.216 186.42H523.227V192.216ZM541.768 202.273C540.587 202.273 539.55 201.991 538.658 201.429C537.771 200.866 537.078 200.08 536.578 199.068C536.084 198.057 535.837 196.875 535.837 195.523C535.837 194.159 536.084 192.969 536.578 191.952C537.078 190.935 537.771 190.145 538.658 189.582C539.55 189.02 540.587 188.739 541.768 188.739C542.95 188.739 543.984 189.02 544.871 189.582C545.763 190.145 546.456 190.935 546.95 191.952C547.45 192.969 547.7 194.159 547.7 195.523C547.7 196.875 547.45 198.057 546.95 199.068C546.456 200.08 545.763 200.866 544.871 201.429C543.984 201.991 542.95 202.273 541.768 202.273ZM541.768 200.466C542.666 200.466 543.405 200.236 543.984 199.776C544.564 199.315 544.993 198.71 545.271 197.96C545.55 197.21 545.689 196.398 545.689 195.523C545.689 194.648 545.55 193.832 545.271 193.077C544.993 192.321 544.564 191.71 543.984 191.244C543.405 190.778 542.666 190.545 541.768 190.545C540.871 190.545 540.132 190.778 539.553 191.244C538.973 191.71 538.544 192.321 538.266 193.077C537.987 193.832 537.848 194.648 537.848 195.523C537.848 196.398 537.987 197.21 538.266 197.96C538.544 198.71 538.973 199.315 539.553 199.776C540.132 200.236 540.871 200.466 541.768 200.466ZM551.043 202V184.545H553.055V190.989H553.225C553.373 190.761 553.577 190.472 553.839 190.119C554.106 189.761 554.487 189.443 554.981 189.165C555.481 188.881 556.157 188.739 557.009 188.739C558.112 188.739 559.083 189.014 559.924 189.565C560.765 190.116 561.421 190.898 561.893 191.909C562.364 192.92 562.6 194.114 562.6 195.489C562.6 196.875 562.364 198.077 561.893 199.094C561.421 200.105 560.768 200.889 559.933 201.446C559.097 201.997 558.134 202.273 557.043 202.273C556.202 202.273 555.529 202.134 555.023 201.855C554.518 201.571 554.129 201.25 553.856 200.892C553.583 200.528 553.373 200.227 553.225 199.989H552.987V202H551.043ZM553.021 195.455C553.021 196.443 553.165 197.315 553.455 198.071C553.745 198.821 554.168 199.409 554.725 199.835C555.282 200.256 555.964 200.466 556.771 200.466C557.612 200.466 558.313 200.244 558.876 199.801C559.444 199.352 559.87 198.75 560.154 197.994C560.444 197.233 560.589 196.386 560.589 195.455C560.589 194.534 560.447 193.705 560.163 192.966C559.884 192.222 559.461 191.634 558.893 191.202C558.33 190.764 557.623 190.545 556.771 190.545C555.952 190.545 555.265 190.753 554.708 191.168C554.151 191.577 553.731 192.151 553.447 192.889C553.163 193.622 553.021 194.477 553.021 195.455ZM567.45 184.545V186.08C567.45 186.545 567.364 187.043 567.194 187.571C567.029 188.094 566.785 188.602 566.461 189.097C566.143 189.585 565.756 190.011 565.302 190.375L564.211 189.489C564.569 188.977 564.879 188.446 565.14 187.895C565.407 187.338 565.54 186.744 565.54 186.114V184.545H567.45ZM577.528 191.841L575.721 192.352C575.607 192.051 575.44 191.759 575.218 191.474C575.002 191.185 574.707 190.946 574.332 190.759C573.957 190.571 573.477 190.477 572.891 190.477C572.09 190.477 571.423 190.662 570.888 191.031C570.36 191.395 570.096 191.858 570.096 192.42C570.096 192.92 570.278 193.315 570.641 193.605C571.005 193.895 571.573 194.136 572.346 194.33L574.289 194.807C575.46 195.091 576.332 195.526 576.906 196.111C577.479 196.69 577.766 197.437 577.766 198.352C577.766 199.102 577.55 199.773 577.119 200.364C576.692 200.955 576.096 201.42 575.329 201.761C574.562 202.102 573.67 202.273 572.653 202.273C571.317 202.273 570.212 201.983 569.337 201.403C568.462 200.824 567.908 199.977 567.675 198.864L569.585 198.386C569.766 199.091 570.11 199.619 570.616 199.972C571.127 200.324 571.795 200.5 572.619 200.5C573.556 200.5 574.3 200.301 574.852 199.903C575.408 199.5 575.687 199.017 575.687 198.455C575.687 198 575.528 197.619 575.21 197.312C574.891 197 574.403 196.767 573.744 196.614L571.562 196.102C570.363 195.818 569.482 195.378 568.92 194.781C568.363 194.179 568.085 193.426 568.085 192.523C568.085 191.784 568.292 191.131 568.707 190.562C569.127 189.994 569.698 189.548 570.42 189.224C571.147 188.901 571.971 188.739 572.891 188.739C574.187 188.739 575.204 189.023 575.942 189.591C576.687 190.159 577.215 190.909 577.528 191.841ZM587.544 202V188.909H589.555V202H587.544ZM588.567 186.727C588.175 186.727 587.837 186.594 587.553 186.327C587.274 186.06 587.135 185.739 587.135 185.364C587.135 184.989 587.274 184.668 587.553 184.401C587.837 184.134 588.175 184 588.567 184C588.959 184 589.294 184.134 589.572 184.401C589.857 184.668 589.999 184.989 589.999 185.364C589.999 185.739 589.857 186.06 589.572 186.327C589.294 186.594 588.959 186.727 588.567 186.727ZM598.183 202.273C597.092 202.273 596.129 201.997 595.293 201.446C594.458 200.889 593.805 200.105 593.333 199.094C592.862 198.077 592.626 196.875 592.626 195.489C592.626 194.114 592.862 192.92 593.333 191.909C593.805 190.898 594.461 190.116 595.302 189.565C596.143 189.014 597.114 188.739 598.217 188.739C599.069 188.739 599.742 188.881 600.237 189.165C600.737 189.443 601.117 189.761 601.379 190.119C601.646 190.472 601.853 190.761 602.001 190.989H602.171V184.545H604.183V202H602.239V199.989H602.001C601.853 200.227 601.643 200.528 601.37 200.892C601.097 201.25 600.708 201.571 600.202 201.855C599.697 202.134 599.023 202.273 598.183 202.273ZM598.455 200.466C599.262 200.466 599.944 200.256 600.501 199.835C601.058 199.409 601.481 198.821 601.771 198.071C602.06 197.315 602.205 196.443 602.205 195.455C602.205 194.477 602.063 193.622 601.779 192.889C601.495 192.151 601.075 191.577 600.518 191.168C599.961 190.753 599.273 190.545 598.455 190.545C597.603 190.545 596.893 190.764 596.325 191.202C595.762 191.634 595.339 192.222 595.055 192.966C594.776 193.705 594.637 194.534 594.637 195.455C594.637 196.386 594.779 197.233 595.063 197.994C595.353 198.75 595.779 199.352 596.342 199.801C596.91 200.244 597.614 200.466 598.455 200.466ZM613.634 202.273C612.373 202.273 611.285 201.994 610.37 201.438C609.461 200.875 608.759 200.091 608.265 199.085C607.776 198.074 607.532 196.898 607.532 195.557C607.532 194.216 607.776 193.034 608.265 192.011C608.759 190.983 609.447 190.182 610.327 189.608C611.214 189.028 612.248 188.739 613.43 188.739C614.112 188.739 614.785 188.852 615.45 189.08C616.114 189.307 616.719 189.676 617.265 190.188C617.81 190.693 618.245 191.364 618.569 192.199C618.893 193.034 619.055 194.062 619.055 195.284V196.136H608.964V194.398H617.009C617.009 193.659 616.862 193 616.566 192.42C616.276 191.841 615.862 191.384 615.322 191.048C614.788 190.713 614.157 190.545 613.43 190.545C612.629 190.545 611.935 190.744 611.35 191.142C610.771 191.534 610.325 192.045 610.012 192.676C609.7 193.307 609.543 193.983 609.543 194.705V195.864C609.543 196.852 609.714 197.69 610.055 198.378C610.401 199.06 610.881 199.58 611.495 199.938C612.109 200.29 612.822 200.466 613.634 200.466C614.163 200.466 614.64 200.392 615.066 200.244C615.498 200.091 615.87 199.864 616.183 199.562C616.495 199.256 616.737 198.875 616.907 198.42L618.85 198.966C618.646 199.625 618.302 200.205 617.819 200.705C617.336 201.199 616.739 201.585 616.029 201.864C615.319 202.136 614.521 202.273 613.634 202.273ZM624.126 194.125V202H622.114V188.909H624.058V190.955H624.228C624.535 190.29 625.001 189.756 625.626 189.352C626.251 188.943 627.058 188.739 628.046 188.739C628.933 188.739 629.708 188.92 630.373 189.284C631.038 189.642 631.555 190.188 631.924 190.92C632.293 191.648 632.478 192.568 632.478 193.682V202H630.467V193.818C630.467 192.79 630.2 191.989 629.665 191.415C629.131 190.835 628.398 190.545 627.467 190.545C626.825 190.545 626.251 190.685 625.745 190.963C625.245 191.241 624.85 191.648 624.56 192.182C624.271 192.716 624.126 193.364 624.126 194.125ZM641.847 188.909V190.614H635.062V188.909H641.847ZM637.04 185.773H639.051V198.25C639.051 198.818 639.134 199.244 639.298 199.528C639.469 199.807 639.685 199.994 639.946 200.091C640.213 200.182 640.494 200.227 640.79 200.227C641.011 200.227 641.193 200.216 641.335 200.193C641.477 200.165 641.591 200.142 641.676 200.125L642.085 201.932C641.949 201.983 641.759 202.034 641.514 202.085C641.27 202.142 640.96 202.17 640.585 202.17C640.017 202.17 639.46 202.048 638.915 201.804C638.375 201.56 637.926 201.188 637.568 200.688C637.216 200.188 637.04 199.557 637.04 198.795V185.773ZM644.872 202V188.909H646.884V202H644.872ZM645.895 186.727C645.503 186.727 645.165 186.594 644.881 186.327C644.602 186.06 644.463 185.739 644.463 185.364C644.463 184.989 644.602 184.668 644.881 184.401C645.165 184.134 645.503 184 645.895 184C646.287 184 646.622 184.134 646.901 184.401C647.185 184.668 647.327 184.989 647.327 185.364C647.327 185.739 647.185 186.06 646.901 186.327C646.622 186.594 646.287 186.727 645.895 186.727ZM656.261 188.909V190.614H649.477V188.909H656.261ZM651.454 185.773H653.465V198.25C653.465 198.818 653.548 199.244 653.712 199.528C653.883 199.807 654.099 199.994 654.36 200.091C654.627 200.182 654.908 200.227 655.204 200.227C655.425 200.227 655.607 200.216 655.749 200.193C655.891 200.165 656.005 200.142 656.09 200.125L656.499 201.932C656.363 201.983 656.173 202.034 655.928 202.085C655.684 202.142 655.374 202.17 654.999 202.17C654.431 202.17 653.874 202.048 653.329 201.804C652.789 201.56 652.34 201.188 651.982 200.688C651.63 200.188 651.454 199.557 651.454 198.795V185.773ZM660.582 206.909C660.241 206.909 659.937 206.881 659.67 206.824C659.403 206.773 659.218 206.722 659.116 206.67L659.627 204.898C660.116 205.023 660.548 205.068 660.923 205.034C661.298 205 661.63 204.832 661.92 204.531C662.215 204.236 662.485 203.756 662.729 203.091L663.104 202.068L658.263 188.909H660.445L664.059 199.341H664.195L667.809 188.909H669.991L664.434 203.909C664.184 204.585 663.874 205.145 663.505 205.588C663.136 206.037 662.707 206.369 662.218 206.585C661.735 206.801 661.19 206.909 660.582 206.909Z" fill="black"/>
<rect x="733" y="330" width="154" height="49" stroke="black" stroke-width="2"/>
<path d="M782.523 360.182C781.795 360.182 781.153 359.998 780.597 359.631C780.04 359.259 779.604 358.737 779.29 358.062C778.975 357.384 778.818 356.583 778.818 355.659C778.818 354.742 778.975 353.947 779.29 353.273C779.604 352.598 780.042 352.078 780.602 351.71C781.163 351.343 781.811 351.159 782.545 351.159C783.114 351.159 783.563 351.254 783.892 351.443C784.225 351.629 784.479 351.841 784.653 352.08C784.831 352.314 784.97 352.508 785.068 352.659H785.182V348.364H786.523V360H785.227V358.659H785.068C784.97 358.818 784.83 359.019 784.648 359.261C784.466 359.5 784.206 359.714 783.869 359.903C783.532 360.089 783.083 360.182 782.523 360.182ZM782.705 358.977C783.242 358.977 783.697 358.837 784.068 358.557C784.439 358.273 784.722 357.881 784.915 357.381C785.108 356.877 785.205 356.295 785.205 355.636C785.205 354.985 785.11 354.415 784.92 353.926C784.731 353.434 784.451 353.051 784.08 352.778C783.708 352.502 783.25 352.364 782.705 352.364C782.136 352.364 781.663 352.509 781.284 352.801C780.909 353.089 780.627 353.481 780.438 353.977C780.252 354.47 780.159 355.023 780.159 355.636C780.159 356.258 780.254 356.822 780.443 357.33C780.636 357.833 780.92 358.235 781.295 358.534C781.674 358.83 782.144 358.977 782.705 358.977ZM792.824 360.182C791.983 360.182 791.258 359.996 790.648 359.625C790.042 359.25 789.574 358.727 789.244 358.057C788.919 357.383 788.756 356.598 788.756 355.705C788.756 354.811 788.919 354.023 789.244 353.341C789.574 352.655 790.032 352.121 790.619 351.739C791.21 351.352 791.9 351.159 792.688 351.159C793.142 351.159 793.591 351.235 794.034 351.386C794.477 351.538 794.881 351.784 795.244 352.125C795.608 352.462 795.898 352.909 796.114 353.466C796.33 354.023 796.438 354.708 796.438 355.523V356.091H789.71V354.932H795.074C795.074 354.439 794.975 354 794.778 353.614C794.585 353.227 794.309 352.922 793.949 352.699C793.593 352.475 793.172 352.364 792.688 352.364C792.153 352.364 791.691 352.496 791.301 352.761C790.915 353.023 790.617 353.364 790.409 353.784C790.201 354.205 790.097 354.655 790.097 355.136V355.909C790.097 356.568 790.21 357.127 790.438 357.585C790.669 358.04 790.989 358.386 791.398 358.625C791.807 358.86 792.282 358.977 792.824 358.977C793.176 358.977 793.494 358.928 793.778 358.83C794.066 358.727 794.314 358.576 794.523 358.375C794.731 358.17 794.892 357.917 795.006 357.614L796.301 357.977C796.165 358.417 795.936 358.803 795.614 359.136C795.292 359.466 794.894 359.723 794.42 359.909C793.947 360.091 793.415 360.182 792.824 360.182ZM805.348 351.273L802.121 360H800.757L797.53 351.273H798.984L801.393 358.227H801.484L803.893 351.273H805.348ZM807.118 360V351.273H808.459V360H807.118ZM807.8 349.818C807.538 349.818 807.313 349.729 807.124 349.551C806.938 349.373 806.845 349.159 806.845 348.909C806.845 348.659 806.938 348.445 807.124 348.267C807.313 348.089 807.538 348 807.8 348C808.061 348 808.285 348.089 808.47 348.267C808.66 348.445 808.754 348.659 808.754 348.909C808.754 349.159 808.66 349.373 808.47 349.551C808.285 349.729 808.061 349.818 807.8 349.818ZM814.46 360.182C813.642 360.182 812.938 359.989 812.347 359.602C811.756 359.216 811.301 358.684 810.983 358.006C810.665 357.328 810.506 356.553 810.506 355.682C810.506 354.795 810.669 354.013 810.994 353.335C811.324 352.653 811.782 352.121 812.369 351.739C812.96 351.352 813.65 351.159 814.438 351.159C815.051 351.159 815.604 351.273 816.097 351.5C816.589 351.727 816.992 352.045 817.307 352.455C817.621 352.864 817.816 353.341 817.892 353.886H816.551C816.449 353.489 816.222 353.136 815.869 352.83C815.521 352.519 815.051 352.364 814.46 352.364C813.938 352.364 813.479 352.5 813.085 352.773C812.695 353.042 812.39 353.422 812.17 353.915C811.955 354.403 811.847 354.977 811.847 355.636C811.847 356.311 811.953 356.898 812.165 357.398C812.381 357.898 812.684 358.286 813.074 358.562C813.468 358.839 813.93 358.977 814.46 358.977C814.809 358.977 815.125 358.917 815.409 358.795C815.693 358.674 815.934 358.5 816.131 358.273C816.328 358.045 816.468 357.773 816.551 357.455H817.892C817.816 357.97 817.629 358.434 817.33 358.847C817.034 359.256 816.642 359.581 816.153 359.824C815.669 360.062 815.104 360.182 814.46 360.182ZM823.511 360.182C822.67 360.182 821.945 359.996 821.335 359.625C820.729 359.25 820.261 358.727 819.932 358.057C819.606 357.383 819.443 356.598 819.443 355.705C819.443 354.811 819.606 354.023 819.932 353.341C820.261 352.655 820.72 352.121 821.307 351.739C821.898 351.352 822.587 351.159 823.375 351.159C823.83 351.159 824.278 351.235 824.722 351.386C825.165 351.538 825.568 351.784 825.932 352.125C826.295 352.462 826.585 352.909 826.801 353.466C827.017 354.023 827.125 354.708 827.125 355.523V356.091H820.398V354.932H825.761C825.761 354.439 825.663 354 825.466 353.614C825.273 353.227 824.996 352.922 824.636 352.699C824.28 352.475 823.86 352.364 823.375 352.364C822.841 352.364 822.379 352.496 821.989 352.761C821.602 353.023 821.305 353.364 821.097 353.784C820.888 354.205 820.784 354.655 820.784 355.136V355.909C820.784 356.568 820.898 357.127 821.125 357.585C821.356 358.04 821.676 358.386 822.085 358.625C822.494 358.86 822.97 358.977 823.511 358.977C823.864 358.977 824.182 358.928 824.466 358.83C824.754 358.727 825.002 358.576 825.21 358.375C825.419 358.17 825.58 357.917 825.693 357.614L826.989 357.977C826.852 358.417 826.623 358.803 826.301 359.136C825.979 359.466 825.581 359.723 825.108 359.909C824.634 360.091 824.102 360.182 823.511 360.182ZM837.574 360.159C836.824 360.159 836.155 360.03 835.568 359.773C834.985 359.515 834.521 359.157 834.176 358.699C833.835 358.237 833.65 357.701 833.619 357.091H835.051C835.081 357.466 835.21 357.79 835.438 358.062C835.665 358.331 835.962 358.54 836.33 358.688C836.697 358.835 837.104 358.909 837.551 358.909C838.051 358.909 838.494 358.822 838.881 358.648C839.267 358.473 839.57 358.231 839.79 357.92C840.009 357.61 840.119 357.25 840.119 356.841C840.119 356.413 840.013 356.036 839.801 355.71C839.589 355.381 839.278 355.123 838.869 354.938C838.46 354.752 837.96 354.659 837.369 354.659H836.438V353.409H837.369C837.831 353.409 838.237 353.326 838.585 353.159C838.938 352.992 839.212 352.758 839.409 352.455C839.61 352.152 839.71 351.795 839.71 351.386C839.71 350.992 839.623 350.65 839.449 350.358C839.275 350.066 839.028 349.839 838.71 349.676C838.396 349.513 838.025 349.432 837.597 349.432C837.195 349.432 836.816 349.506 836.46 349.653C836.108 349.797 835.82 350.008 835.597 350.284C835.373 350.557 835.252 350.886 835.233 351.273H833.869C833.892 350.663 834.076 350.129 834.42 349.67C834.765 349.208 835.216 348.848 835.773 348.591C836.333 348.333 836.949 348.205 837.619 348.205C838.339 348.205 838.956 348.35 839.472 348.642C839.987 348.93 840.383 349.311 840.659 349.784C840.936 350.258 841.074 350.769 841.074 351.318C841.074 351.973 840.902 352.532 840.557 352.994C840.216 353.456 839.752 353.777 839.165 353.955V354.045C839.9 354.167 840.473 354.479 840.886 354.983C841.299 355.483 841.506 356.102 841.506 356.841C841.506 357.473 841.333 358.042 840.989 358.545C840.648 359.045 840.182 359.439 839.591 359.727C839 360.015 838.328 360.159 837.574 360.159Z" fill="black"/>
<path d="M731.667 53C731.667 55.9455 734.054 58.3333 737 58.3333C739.946 58.3333 742.333 55.9455 742.333 53C742.333 50.0545 739.946 47.6667 737 47.6667C734.054 47.6667 731.667 50.0545 731.667 53ZM779.667 53C779.667 55.9455 782.054 58.3333 785 58.3333C787.946 58.3333 790.333 55.9455 790.333 53C790.333 50.0545 787.946 47.6667 785 47.6667C782.054 47.6667 779.667 50.0545 779.667 53ZM737 54L785 54L785 52L737 52L737 54Z" fill="black"/>
<path d="M810.483 53.0739L809.429 53.3722C809.363 53.1965 809.265 53.0258 809.136 52.8601C809.01 52.6911 808.837 52.5518 808.619 52.4425C808.4 52.3331 808.12 52.2784 807.778 52.2784C807.311 52.2784 806.922 52.3861 806.61 52.6016C806.302 52.8137 806.148 53.0838 806.148 53.4119C806.148 53.7036 806.254 53.9339 806.466 54.103C806.678 54.272 807.009 54.4129 807.46 54.5256L808.594 54.804C809.277 54.9697 809.785 55.2232 810.12 55.5646C810.455 55.9027 810.622 56.3385 810.622 56.8722C810.622 57.3097 810.496 57.7008 810.244 58.0455C809.996 58.3902 809.648 58.6619 809.2 58.8608C808.753 59.0597 808.232 59.1591 807.639 59.1591C806.86 59.1591 806.216 58.9901 805.705 58.652C805.195 58.3139 804.872 57.8201 804.736 57.1705L805.849 56.892C805.955 57.303 806.156 57.6113 806.451 57.8168C806.749 58.0223 807.139 58.125 807.619 58.125C808.166 58.125 808.6 58.009 808.922 57.777C809.247 57.5417 809.409 57.2599 809.409 56.9318C809.409 56.6667 809.316 56.4446 809.131 56.2656C808.945 56.0833 808.66 55.9474 808.276 55.858L807.003 55.5597C806.304 55.3939 805.79 55.1371 805.462 54.7891C805.137 54.4377 804.974 53.9986 804.974 53.4716C804.974 53.0407 805.095 52.6596 805.337 52.3281C805.583 51.9967 805.916 51.7365 806.337 51.5476C806.761 51.3587 807.241 51.2642 807.778 51.2642C808.534 51.2642 809.127 51.4299 809.558 51.7614C809.992 52.0928 810.301 52.5303 810.483 53.0739ZM813.144 61.8636C812.945 61.8636 812.768 61.8471 812.612 61.8139C812.456 61.7841 812.349 61.7543 812.289 61.7244L812.587 60.6903C812.872 60.7633 813.124 60.7898 813.343 60.7699C813.562 60.75 813.756 60.6522 813.925 60.4766C814.097 60.3042 814.254 60.0241 814.397 59.6364L814.616 59.0398L811.792 51.3636H813.064L815.172 57.4489H815.252L817.36 51.3636H818.633L815.391 60.1136C815.245 60.508 815.065 60.8345 814.849 61.093C814.634 61.3549 814.384 61.5488 814.099 61.6747C813.817 61.8007 813.499 61.8636 813.144 61.8636ZM821.355 54.4062V59H820.181V51.3636H821.315V52.5568H821.414C821.593 52.169 821.865 51.8575 822.23 51.6222C822.594 51.3835 823.065 51.2642 823.642 51.2642C824.159 51.2642 824.611 51.3703 824.999 51.5824C825.387 51.7912 825.688 52.1094 825.904 52.5369C826.119 52.9612 826.227 53.4981 826.227 54.1477V59H825.053V54.2273C825.053 53.6274 824.898 53.16 824.586 52.8253C824.275 52.4872 823.847 52.3182 823.303 52.3182C822.929 52.3182 822.594 52.3994 822.299 52.5618C822.008 52.7242 821.777 52.9612 821.608 53.2727C821.439 53.5843 821.355 53.9621 821.355 54.4062ZM831.473 59.1591C830.757 59.1591 830.141 58.9901 829.624 58.652C829.107 58.3139 828.709 57.8482 828.43 57.255C828.152 56.6617 828.013 55.9839 828.013 55.2216C828.013 54.446 828.155 53.7616 828.44 53.1683C828.729 52.5717 829.13 52.1061 829.643 51.7713C830.161 51.4332 830.764 51.2642 831.453 51.2642C831.99 51.2642 832.474 51.3636 832.905 51.5625C833.336 51.7614 833.689 52.0398 833.964 52.3977C834.239 52.7557 834.41 53.1733 834.476 53.6506H833.303C833.213 53.3026 833.014 52.9943 832.706 52.7259C832.401 52.4541 831.99 52.3182 831.473 52.3182C831.016 52.3182 830.615 52.4375 830.27 52.6761C829.929 52.9115 829.662 53.2446 829.469 53.6754C829.281 54.103 829.186 54.6051 829.186 55.1818C829.186 55.7718 829.279 56.2855 829.464 56.723C829.653 57.1605 829.919 57.5002 830.26 57.7422C830.605 57.9841 831.009 58.1051 831.473 58.1051C831.778 58.1051 832.055 58.0521 832.303 57.946C832.552 57.84 832.762 57.6875 832.935 57.4886C833.107 57.2898 833.23 57.0511 833.303 56.7727H834.476C834.41 57.2235 834.246 57.6295 833.984 57.9908C833.725 58.3487 833.382 58.6338 832.955 58.8459C832.53 59.0547 832.036 59.1591 831.473 59.1591ZM836.191 59V51.3636H837.364V59H836.191ZM836.788 50.0909C836.559 50.0909 836.362 50.013 836.196 49.8572C836.034 49.7015 835.952 49.5142 835.952 49.2955C835.952 49.0767 836.034 48.8894 836.196 48.7337C836.362 48.5779 836.559 48.5 836.788 48.5C837.016 48.5 837.212 48.5779 837.374 48.7337C837.54 48.8894 837.623 49.0767 837.623 49.2955C837.623 49.5142 837.54 49.7015 837.374 49.8572C837.212 50.013 837.016 50.0909 836.788 50.0909ZM840.687 54.4062V59H839.513V51.3636H840.647V52.5568H840.746C840.925 52.169 841.197 51.8575 841.562 51.6222C841.926 51.3835 842.397 51.2642 842.974 51.2642C843.491 51.2642 843.943 51.3703 844.331 51.5824C844.719 51.7912 845.02 52.1094 845.236 52.5369C845.451 52.9612 845.559 53.4981 845.559 54.1477V59H844.385V54.2273C844.385 53.6274 844.23 53.16 843.918 52.8253C843.607 52.4872 843.179 52.3182 842.635 52.3182C842.261 52.3182 841.926 52.3994 841.631 52.5618C841.34 52.7242 841.109 52.9612 840.94 53.2727C840.771 53.5843 840.687 53.9621 840.687 54.4062ZM850.785 62.0227C850.218 62.0227 849.731 61.9498 849.324 61.804C848.916 61.6615 848.576 61.4725 848.304 61.2372C848.036 61.0052 847.822 60.7566 847.663 60.4915L848.598 59.8352C848.704 59.9744 848.838 60.1335 849 60.3125C849.163 60.4948 849.385 60.6522 849.667 60.7848C849.952 60.9207 850.324 60.9886 850.785 60.9886C851.402 60.9886 851.91 60.8395 852.311 60.5412C852.712 60.2429 852.913 59.7756 852.913 59.1392V57.5881H852.814C852.727 57.7273 852.605 57.8996 852.446 58.1051C852.29 58.3073 852.065 58.4879 851.77 58.647C851.478 58.8028 851.083 58.8807 850.586 58.8807C849.97 58.8807 849.416 58.7348 848.926 58.4432C848.439 58.1515 848.052 57.7273 847.767 57.1705C847.486 56.6136 847.345 55.9375 847.345 55.142C847.345 54.3598 847.482 53.6787 847.757 53.0987C848.033 52.5154 848.415 52.0646 848.906 51.7464C849.396 51.425 849.963 51.2642 850.606 51.2642C851.103 51.2642 851.498 51.3471 851.789 51.5128C852.084 51.6752 852.31 51.8608 852.466 52.0696C852.625 52.2751 852.747 52.4441 852.833 52.5767H852.953V51.3636H854.086V59.2188C854.086 59.875 853.937 60.4086 853.639 60.8196C853.344 61.2339 852.946 61.5372 852.446 61.7294C851.949 61.925 851.395 62.0227 850.785 62.0227ZM850.745 57.8267C851.216 57.8267 851.614 57.719 851.939 57.5036C852.263 57.2881 852.51 56.9782 852.679 56.5739C852.848 56.1695 852.933 55.6856 852.933 55.1222C852.933 54.572 852.85 54.0864 852.684 53.6655C852.519 53.2446 852.273 52.9148 851.949 52.6761C851.624 52.4375 851.223 52.3182 850.745 52.3182C850.248 52.3182 849.834 52.4441 849.502 52.696C849.174 52.9479 848.927 53.286 848.762 53.7102C848.599 54.1345 848.518 54.6051 848.518 55.1222C848.518 55.6525 848.601 56.1214 848.767 56.5291C848.936 56.9335 849.184 57.2517 849.512 57.4837C849.844 57.7124 850.255 57.8267 850.745 57.8267ZM863.274 59.1591C862.558 59.1591 861.941 58.9901 861.424 58.652C860.907 58.3139 860.51 57.8482 860.231 57.255C859.953 56.6617 859.814 55.9839 859.814 55.2216C859.814 54.446 859.956 53.7616 860.241 53.1683C860.529 52.5717 860.931 52.1061 861.444 51.7713C861.961 51.4332 862.565 51.2642 863.254 51.2642C863.791 51.2642 864.275 51.3636 864.706 51.5625C865.136 51.7614 865.489 52.0398 865.765 52.3977C866.04 52.7557 866.21 53.1733 866.277 53.6506H865.103C865.014 53.3026 864.815 52.9943 864.507 52.7259C864.202 52.4541 863.791 52.3182 863.274 52.3182C862.816 52.3182 862.415 52.4375 862.071 52.6761C861.729 52.9115 861.462 53.2446 861.27 53.6754C861.081 54.103 860.987 54.6051 860.987 55.1818C860.987 55.7718 861.08 56.2855 861.265 56.723C861.454 57.1605 861.719 57.5002 862.061 57.7422C862.405 57.9841 862.81 58.1051 863.274 58.1051C863.579 58.1051 863.855 58.0521 864.104 57.946C864.353 57.84 864.563 57.6875 864.735 57.4886C864.908 57.2898 865.03 57.0511 865.103 56.7727H866.277C866.21 57.2235 866.046 57.6295 865.784 57.9908C865.526 58.3487 865.183 58.6338 864.755 58.8459C864.331 59.0547 863.837 59.1591 863.274 59.1591ZM871.094 59.1591C870.405 59.1591 869.8 58.995 869.279 58.6669C868.762 58.3388 868.358 57.8797 868.066 57.2898C867.778 56.6998 867.634 56.0104 867.634 55.2216C867.634 54.4261 867.778 53.7318 868.066 53.1385C868.358 52.5452 868.762 52.0845 869.279 51.7564C869.8 51.4283 870.405 51.2642 871.094 51.2642C871.783 51.2642 872.387 51.4283 872.904 51.7564C873.424 52.0845 873.828 52.5452 874.117 53.1385C874.408 53.7318 874.554 54.4261 874.554 55.2216C874.554 56.0104 874.408 56.6998 874.117 57.2898C873.828 57.8797 873.424 58.3388 872.904 58.6669C872.387 58.995 871.783 59.1591 871.094 59.1591ZM871.094 58.1051C871.618 58.1051 872.049 57.9709 872.387 57.7024C872.725 57.4339 872.975 57.081 873.137 56.6435C873.3 56.206 873.381 55.732 873.381 55.2216C873.381 54.7112 873.3 54.2356 873.137 53.7947C872.975 53.3539 872.725 52.9976 872.387 52.7259C872.049 52.4541 871.618 52.3182 871.094 52.3182C870.57 52.3182 870.14 52.4541 869.801 52.7259C869.463 52.9976 869.213 53.3539 869.051 53.7947C868.888 54.2356 868.807 54.7112 868.807 55.2216C868.807 55.732 868.888 56.206 869.051 56.6435C869.213 57.081 869.463 57.4339 869.801 57.7024C870.14 57.9709 870.57 58.1051 871.094 58.1051ZM877.519 54.4062V59H876.345V51.3636H877.479V52.5568H877.578C877.757 52.169 878.029 51.8575 878.394 51.6222C878.758 51.3835 879.229 51.2642 879.806 51.2642C880.323 51.2642 880.775 51.3703 881.163 51.5824C881.551 51.7912 881.852 52.1094 882.068 52.5369C882.283 52.9612 882.391 53.4981 882.391 54.1477V59H881.218V54.2273C881.218 53.6274 881.062 53.16 880.75 52.8253C880.439 52.4872 880.011 52.3182 879.468 52.3182C879.093 52.3182 878.758 52.3994 878.463 52.5618C878.172 52.7242 877.941 52.9612 877.772 53.2727C877.603 53.5843 877.519 53.9621 877.519 54.4062ZM885.708 54.4062V59H884.535V51.3636H885.668V52.5568H885.768C885.947 52.169 886.219 51.8575 886.583 51.6222C886.948 51.3835 887.418 51.2642 887.995 51.2642C888.512 51.2642 888.964 51.3703 889.352 51.5824C889.74 51.7912 890.042 52.1094 890.257 52.5369C890.473 52.9612 890.58 53.4981 890.58 54.1477V59H889.407V54.2273C889.407 53.6274 889.251 53.16 888.94 52.8253C888.628 52.4872 888.201 52.3182 887.657 52.3182C887.282 52.3182 886.948 52.3994 886.653 52.5618C886.361 52.7242 886.131 52.9612 885.962 53.2727C885.793 53.5843 885.708 53.9621 885.708 54.4062ZM895.926 59.1591C895.19 59.1591 894.555 58.9967 894.022 58.6719C893.492 58.3438 893.082 57.8864 892.794 57.2997C892.509 56.7098 892.366 56.0237 892.366 55.2415C892.366 54.4593 892.509 53.7699 892.794 53.1733C893.082 52.5734 893.483 52.1061 893.997 51.7713C894.514 51.4332 895.117 51.2642 895.807 51.2642C896.204 51.2642 896.597 51.3305 896.985 51.4631C897.373 51.5956 897.726 51.8111 898.044 52.1094C898.362 52.4044 898.616 52.7955 898.805 53.2827C898.993 53.7699 899.088 54.3698 899.088 55.0824V55.5795H893.202V54.5653H897.895C897.895 54.1345 897.809 53.75 897.636 53.4119C897.467 53.0739 897.225 52.8071 896.91 52.6115C896.599 52.416 896.231 52.3182 895.807 52.3182C895.339 52.3182 894.935 52.4342 894.594 52.6662C894.256 52.8949 893.995 53.1932 893.813 53.5611C893.631 53.929 893.54 54.3234 893.54 54.7443V55.4205C893.54 55.9972 893.639 56.486 893.838 56.8871C894.04 57.2848 894.32 57.5881 894.678 57.7969C895.036 58.0024 895.452 58.1051 895.926 58.1051C896.234 58.1051 896.513 58.062 896.761 57.9759C897.013 57.8864 897.23 57.7538 897.412 57.5781C897.595 57.3991 897.736 57.1771 897.835 56.9119L898.969 57.2301C898.849 57.6146 898.649 57.9527 898.367 58.2443C898.085 58.5327 897.737 58.758 897.323 58.9205C896.909 59.0795 896.443 59.1591 895.926 59.1591ZM903.975 59.1591C903.259 59.1591 902.643 58.9901 902.126 58.652C901.608 58.3139 901.211 57.8482 900.932 57.255C900.654 56.6617 900.515 55.9839 900.515 55.2216C900.515 54.446 900.657 53.7616 900.942 53.1683C901.231 52.5717 901.632 52.1061 902.145 51.7713C902.662 51.4332 903.266 51.2642 903.955 51.2642C904.492 51.2642 904.976 51.3636 905.407 51.5625C905.838 51.7614 906.191 52.0398 906.466 52.3977C906.741 52.7557 906.912 53.1733 906.978 53.6506H905.805C905.715 53.3026 905.516 52.9943 905.208 52.7259C904.903 52.4541 904.492 52.3182 903.975 52.3182C903.518 52.3182 903.117 52.4375 902.772 52.6761C902.43 52.9115 902.164 53.2446 901.971 53.6754C901.782 54.103 901.688 54.6051 901.688 55.1818C901.688 55.7718 901.781 56.2855 901.966 56.723C902.155 57.1605 902.421 57.5002 902.762 57.7422C903.107 57.9841 903.511 58.1051 903.975 58.1051C904.28 58.1051 904.557 58.0521 904.805 57.946C905.054 57.84 905.264 57.6875 905.437 57.4886C905.609 57.2898 905.732 57.0511 905.805 56.7727H906.978C906.912 57.2235 906.747 57.6295 906.486 57.9908C906.227 58.3487 905.884 58.6338 905.456 58.8459C905.032 59.0547 904.538 59.1591 903.975 59.1591ZM912.014 51.3636V52.358H908.057V51.3636H912.014ZM909.21 49.5341H910.383V56.8125C910.383 57.1439 910.431 57.3925 910.528 57.5582C910.627 57.7206 910.753 57.83 910.905 57.8864C911.061 57.9394 911.225 57.9659 911.398 57.9659C911.527 57.9659 911.633 57.9593 911.716 57.946C911.799 57.9295 911.865 57.9162 911.915 57.9062L912.153 58.9602C912.074 58.9901 911.963 59.0199 911.82 59.0497C911.678 59.0829 911.497 59.0994 911.278 59.0994C910.947 59.0994 910.622 59.0282 910.304 58.8857C909.989 58.7431 909.727 58.526 909.518 58.2344C909.313 57.9427 909.21 57.5748 909.21 57.1307V49.5341ZM913.779 59V51.3636H914.952V59H913.779ZM914.376 50.0909C914.147 50.0909 913.95 50.013 913.784 49.8572C913.622 49.7015 913.54 49.5142 913.54 49.2955C913.54 49.0767 913.622 48.8894 913.784 48.7337C913.95 48.5779 914.147 48.5 914.376 48.5C914.604 48.5 914.8 48.5779 914.962 48.7337C915.128 48.8894 915.211 49.0767 915.211 49.2955C915.211 49.5142 915.128 49.7015 914.962 49.8572C914.8 50.013 914.604 50.0909 914.376 50.0909ZM920.203 59.1591C919.514 59.1591 918.909 58.995 918.389 58.6669C917.872 58.3388 917.467 57.8797 917.176 57.2898C916.887 56.6998 916.743 56.0104 916.743 55.2216C916.743 54.4261 916.887 53.7318 917.176 53.1385C917.467 52.5452 917.872 52.0845 918.389 51.7564C918.909 51.4283 919.514 51.2642 920.203 51.2642C920.893 51.2642 921.496 51.4283 922.013 51.7564C922.533 52.0845 922.938 52.5452 923.226 53.1385C923.518 53.7318 923.664 54.4261 923.664 55.2216C923.664 56.0104 923.518 56.6998 923.226 57.2898C922.938 57.8797 922.533 58.3388 922.013 58.6669C921.496 58.995 920.893 59.1591 920.203 59.1591ZM920.203 58.1051C920.727 58.1051 921.158 57.9709 921.496 57.7024C921.834 57.4339 922.084 57.081 922.247 56.6435C922.409 56.206 922.49 55.732 922.49 55.2216C922.49 54.7112 922.409 54.2356 922.247 53.7947C922.084 53.3539 921.834 52.9976 921.496 52.7259C921.158 52.4541 920.727 52.3182 920.203 52.3182C919.68 52.3182 919.249 52.4541 918.911 52.7259C918.573 52.9976 918.323 53.3539 918.16 53.7947C917.998 54.2356 917.917 54.7112 917.917 55.2216C917.917 55.732 917.998 56.206 918.16 56.6435C918.323 57.081 918.573 57.4339 918.911 57.7024C919.249 57.9709 919.68 58.1051 920.203 58.1051ZM926.628 54.4062V59H925.455V51.3636H926.588V52.5568H926.688C926.867 52.169 927.138 51.8575 927.503 51.6222C927.868 51.3835 928.338 51.2642 928.915 51.2642C929.432 51.2642 929.884 51.3703 930.272 51.5824C930.66 51.7912 930.962 52.1094 931.177 52.5369C931.392 52.9612 931.5 53.4981 931.5 54.1477V59H930.327V54.2273C930.327 53.6274 930.171 53.16 929.86 52.8253C929.548 52.4872 929.12 52.3182 928.577 52.3182C928.202 52.3182 927.868 52.3994 927.573 52.5618C927.281 52.7242 927.051 52.9612 926.882 53.2727C926.713 53.5843 926.628 53.9621 926.628 54.4062Z" fill="black"/>
</svg>
