<svg width="1000" height="454" viewBox="0 0 1000 454" fill="none" xmlns="http://www.w3.org/2000/svg">
<rect width="1000" height="454" fill="#F5F5F5"/>
<rect x="0.5" y="0.5" width="999" height="453" fill="white"/>
<rect x="0.5" y="0.5" width="999" height="453" stroke="black"/>
<rect x="71" y="170" width="378" height="238" rx="9" stroke="black" stroke-width="2" stroke-dasharray="2 2"/>
<rect x="171" y="230" width="157" height="48" stroke="black" stroke-width="2"/>
<path d="M229.957 260.159C229.321 260.159 228.759 259.998 228.272 259.677C227.785 259.352 227.404 258.895 227.129 258.305C226.853 257.711 226.716 257.01 226.716 256.202C226.716 255.4 226.853 254.704 227.129 254.114C227.404 253.524 227.786 253.068 228.277 252.746C228.768 252.425 229.334 252.264 229.977 252.264C230.474 252.264 230.867 252.347 231.156 252.513C231.447 252.675 231.669 252.861 231.822 253.07C231.978 253.275 232.098 253.444 232.185 253.577H232.284V249.818H233.457V260H232.324V258.827H232.185C232.098 258.966 231.976 259.142 231.817 259.354C231.658 259.562 231.431 259.75 231.136 259.915C230.841 260.078 230.448 260.159 229.957 260.159ZM230.116 259.105C230.587 259.105 230.985 258.982 231.31 258.737C231.634 258.489 231.881 258.146 232.05 257.708C232.219 257.267 232.304 256.759 232.304 256.182C232.304 255.612 232.221 255.113 232.055 254.685C231.89 254.254 231.644 253.92 231.32 253.681C230.995 253.439 230.594 253.318 230.116 253.318C229.619 253.318 229.205 253.446 228.874 253.701C228.545 253.953 228.299 254.296 228.133 254.73C227.97 255.161 227.889 255.645 227.889 256.182C227.889 256.725 227.972 257.219 228.138 257.663C228.307 258.104 228.555 258.455 228.884 258.717C229.215 258.976 229.626 259.105 230.116 259.105ZM238.971 260.159C238.235 260.159 237.6 259.997 237.067 259.672C236.536 259.344 236.127 258.886 235.839 258.3C235.554 257.71 235.411 257.024 235.411 256.241C235.411 255.459 235.554 254.77 235.839 254.173C236.127 253.573 236.528 253.106 237.042 252.771C237.559 252.433 238.162 252.264 238.852 252.264C239.249 252.264 239.642 252.33 240.03 252.463C240.418 252.596 240.771 252.811 241.089 253.109C241.407 253.404 241.661 253.795 241.849 254.283C242.038 254.77 242.133 255.37 242.133 256.082V256.58H236.246V255.565H240.94C240.94 255.134 240.853 254.75 240.681 254.412C240.512 254.074 240.27 253.807 239.955 253.612C239.644 253.416 239.276 253.318 238.852 253.318C238.384 253.318 237.98 253.434 237.638 253.666C237.3 253.895 237.04 254.193 236.858 254.561C236.676 254.929 236.585 255.323 236.585 255.744V256.42C236.585 256.997 236.684 257.486 236.883 257.887C237.085 258.285 237.365 258.588 237.723 258.797C238.081 259.002 238.497 259.105 238.971 259.105C239.279 259.105 239.558 259.062 239.806 258.976C240.058 258.886 240.275 258.754 240.457 258.578C240.64 258.399 240.781 258.177 240.88 257.912L242.013 258.23C241.894 258.615 241.694 258.953 241.412 259.244C241.13 259.533 240.782 259.758 240.368 259.92C239.954 260.08 239.488 260.159 238.971 260.159ZM249.93 252.364L247.106 260H245.912L243.089 252.364H244.361L246.469 258.449H246.549L248.657 252.364H249.93ZM251.478 260V252.364H252.651V260H251.478ZM252.075 251.091C251.846 251.091 251.649 251.013 251.483 250.857C251.321 250.701 251.24 250.514 251.24 250.295C251.24 250.077 251.321 249.889 251.483 249.734C251.649 249.578 251.846 249.5 252.075 249.5C252.303 249.5 252.499 249.578 252.661 249.734C252.827 249.889 252.91 250.077 252.91 250.295C252.91 250.514 252.827 250.701 252.661 250.857C252.499 251.013 252.303 251.091 252.075 251.091ZM257.903 260.159C257.187 260.159 256.57 259.99 256.053 259.652C255.536 259.314 255.138 258.848 254.86 258.255C254.582 257.662 254.442 256.984 254.442 256.222C254.442 255.446 254.585 254.762 254.87 254.168C255.158 253.572 255.559 253.106 256.073 252.771C256.59 252.433 257.193 252.264 257.883 252.264C258.42 252.264 258.904 252.364 259.335 252.562C259.765 252.761 260.118 253.04 260.393 253.398C260.669 253.756 260.839 254.173 260.906 254.651H259.732C259.643 254.303 259.444 253.994 259.136 253.726C258.831 253.454 258.42 253.318 257.903 253.318C257.445 253.318 257.044 253.437 256.7 253.676C256.358 253.911 256.091 254.245 255.899 254.675C255.71 255.103 255.616 255.605 255.616 256.182C255.616 256.772 255.709 257.286 255.894 257.723C256.083 258.161 256.348 258.5 256.69 258.742C257.034 258.984 257.439 259.105 257.903 259.105C258.208 259.105 258.484 259.052 258.733 258.946C258.982 258.84 259.192 258.688 259.364 258.489C259.537 258.29 259.659 258.051 259.732 257.773H260.906C260.839 258.223 260.675 258.629 260.413 258.991C260.155 259.349 259.812 259.634 259.384 259.846C258.96 260.055 258.466 260.159 257.903 260.159ZM265.822 260.159C265.087 260.159 264.452 259.997 263.918 259.672C263.388 259.344 262.979 258.886 262.69 258.3C262.405 257.71 262.263 257.024 262.263 256.241C262.263 255.459 262.405 254.77 262.69 254.173C262.979 253.573 263.38 253.106 263.893 252.771C264.411 252.433 265.014 252.264 265.703 252.264C266.101 252.264 266.494 252.33 266.881 252.463C267.269 252.596 267.622 252.811 267.94 253.109C268.259 253.404 268.512 253.795 268.701 254.283C268.89 254.77 268.984 255.37 268.984 256.082V256.58H263.098V255.565H267.791C267.791 255.134 267.705 254.75 267.533 254.412C267.364 254.074 267.122 253.807 266.807 253.612C266.495 253.416 266.127 253.318 265.703 253.318C265.236 253.318 264.831 253.434 264.49 253.666C264.152 253.895 263.892 254.193 263.71 254.561C263.527 254.929 263.436 255.323 263.436 255.744V256.42C263.436 256.997 263.536 257.486 263.734 257.887C263.937 258.285 264.217 258.588 264.575 258.797C264.933 259.002 265.348 259.105 265.822 259.105C266.131 259.105 266.409 259.062 266.658 258.976C266.91 258.886 267.127 258.754 267.309 258.578C267.491 258.399 267.632 258.177 267.732 257.912L268.865 258.23C268.746 258.615 268.545 258.953 268.263 259.244C267.982 259.533 267.634 259.758 267.219 259.92C266.805 260.08 266.339 260.159 265.822 260.159ZM278.266 249.818V260H277.033V251.111H276.974L274.488 252.761V251.509L277.033 249.818H278.266Z" fill="black"/>
<path d="M250 273.667C247.054 273.667 244.667 276.054 244.667 279C244.667 281.946 247.054 284.333 250 284.333C252.946 284.333 255.333 281.946 255.333 279C255.333 276.054 252.946 273.667 250 273.667ZM250 323.667C247.054 323.667 244.667 326.054 244.667 329C244.667 331.946 247.054 334.333 250 334.333C252.946 334.333 255.333 331.946 255.333 329C255.333 326.054 252.946 323.667 250 323.667ZM249 279V329H251V279H249Z" fill="black"/>
<rect x="171" y="330" width="157" height="49" stroke="black" stroke-width="2"/>
<path d="M228.957 361.159C228.321 361.159 227.759 360.998 227.272 360.677C226.785 360.352 226.404 359.895 226.129 359.305C225.853 358.711 225.716 358.01 225.716 357.202C225.716 356.4 225.853 355.704 226.129 355.114C226.404 354.524 226.786 354.068 227.277 353.746C227.768 353.425 228.334 353.264 228.977 353.264C229.474 353.264 229.867 353.347 230.156 353.513C230.447 353.675 230.669 353.861 230.822 354.07C230.978 354.275 231.098 354.444 231.185 354.577H231.284V350.818H232.457V361H231.324V359.827H231.185C231.098 359.966 230.976 360.142 230.817 360.354C230.658 360.562 230.431 360.75 230.136 360.915C229.841 361.078 229.448 361.159 228.957 361.159ZM229.116 360.105C229.587 360.105 229.985 359.982 230.31 359.737C230.634 359.489 230.881 359.146 231.05 358.708C231.219 358.267 231.304 357.759 231.304 357.182C231.304 356.612 231.221 356.113 231.055 355.685C230.89 355.254 230.644 354.92 230.32 354.681C229.995 354.439 229.594 354.318 229.116 354.318C228.619 354.318 228.205 354.446 227.874 354.701C227.545 354.953 227.299 355.296 227.133 355.73C226.97 356.161 226.889 356.645 226.889 357.182C226.889 357.725 226.972 358.219 227.138 358.663C227.307 359.104 227.555 359.455 227.884 359.717C228.215 359.976 228.626 360.105 229.116 360.105ZM237.971 361.159C237.235 361.159 236.6 360.997 236.067 360.672C235.536 360.344 235.127 359.886 234.839 359.3C234.554 358.71 234.411 358.024 234.411 357.241C234.411 356.459 234.554 355.77 234.839 355.173C235.127 354.573 235.528 354.106 236.042 353.771C236.559 353.433 237.162 353.264 237.852 353.264C238.249 353.264 238.642 353.33 239.03 353.463C239.418 353.596 239.771 353.811 240.089 354.109C240.407 354.404 240.661 354.795 240.849 355.283C241.038 355.77 241.133 356.37 241.133 357.082V357.58H235.246V356.565H239.94C239.94 356.134 239.853 355.75 239.681 355.412C239.512 355.074 239.27 354.807 238.955 354.612C238.644 354.416 238.276 354.318 237.852 354.318C237.384 354.318 236.98 354.434 236.638 354.666C236.3 354.895 236.04 355.193 235.858 355.561C235.676 355.929 235.585 356.323 235.585 356.744V357.42C235.585 357.997 235.684 358.486 235.883 358.887C236.085 359.285 236.365 359.588 236.723 359.797C237.081 360.002 237.497 360.105 237.971 360.105C238.279 360.105 238.558 360.062 238.806 359.976C239.058 359.886 239.275 359.754 239.457 359.578C239.64 359.399 239.781 359.177 239.88 358.912L241.013 359.23C240.894 359.615 240.694 359.953 240.412 360.244C240.13 360.533 239.782 360.758 239.368 360.92C238.954 361.08 238.488 361.159 237.971 361.159ZM248.93 353.364L246.106 361H244.912L242.089 353.364H243.361L245.469 359.449H245.549L247.657 353.364H248.93ZM250.478 361V353.364H251.651V361H250.478ZM251.075 352.091C250.846 352.091 250.649 352.013 250.483 351.857C250.321 351.701 250.24 351.514 250.24 351.295C250.24 351.077 250.321 350.889 250.483 350.734C250.649 350.578 250.846 350.5 251.075 350.5C251.303 350.5 251.499 350.578 251.661 350.734C251.827 350.889 251.91 351.077 251.91 351.295C251.91 351.514 251.827 351.701 251.661 351.857C251.499 352.013 251.303 352.091 251.075 352.091ZM256.903 361.159C256.187 361.159 255.57 360.99 255.053 360.652C254.536 360.314 254.138 359.848 253.86 359.255C253.582 358.662 253.442 357.984 253.442 357.222C253.442 356.446 253.585 355.762 253.87 355.168C254.158 354.572 254.559 354.106 255.073 353.771C255.59 353.433 256.193 353.264 256.883 353.264C257.42 353.264 257.904 353.364 258.335 353.562C258.765 353.761 259.118 354.04 259.393 354.398C259.669 354.756 259.839 355.173 259.906 355.651H258.732C258.643 355.303 258.444 354.994 258.136 354.726C257.831 354.454 257.42 354.318 256.903 354.318C256.445 354.318 256.044 354.437 255.7 354.676C255.358 354.911 255.091 355.245 254.899 355.675C254.71 356.103 254.616 356.605 254.616 357.182C254.616 357.772 254.709 358.286 254.894 358.723C255.083 359.161 255.348 359.5 255.69 359.742C256.034 359.984 256.439 360.105 256.903 360.105C257.208 360.105 257.484 360.052 257.733 359.946C257.982 359.84 258.192 359.688 258.364 359.489C258.537 359.29 258.659 359.051 258.732 358.773H259.906C259.839 359.223 259.675 359.629 259.413 359.991C259.155 360.349 258.812 360.634 258.384 360.846C257.96 361.055 257.466 361.159 256.903 361.159ZM264.822 361.159C264.087 361.159 263.452 360.997 262.918 360.672C262.388 360.344 261.979 359.886 261.69 359.3C261.405 358.71 261.263 358.024 261.263 357.241C261.263 356.459 261.405 355.77 261.69 355.173C261.979 354.573 262.38 354.106 262.893 353.771C263.411 353.433 264.014 353.264 264.703 353.264C265.101 353.264 265.494 353.33 265.881 353.463C266.269 353.596 266.622 353.811 266.94 354.109C267.259 354.404 267.512 354.795 267.701 355.283C267.89 355.77 267.984 356.37 267.984 357.082V357.58H262.098V356.565H266.791C266.791 356.134 266.705 355.75 266.533 355.412C266.364 355.074 266.122 354.807 265.807 354.612C265.495 354.416 265.127 354.318 264.703 354.318C264.236 354.318 263.831 354.434 263.49 354.666C263.152 354.895 262.892 355.193 262.71 355.561C262.527 355.929 262.436 356.323 262.436 356.744V357.42C262.436 357.997 262.536 358.486 262.734 358.887C262.937 359.285 263.217 359.588 263.575 359.797C263.933 360.002 264.348 360.105 264.822 360.105C265.131 360.105 265.409 360.062 265.658 359.976C265.91 359.886 266.127 359.754 266.309 359.578C266.491 359.399 266.632 359.177 266.732 358.912L267.865 359.23C267.746 359.615 267.545 359.953 267.263 360.244C266.982 360.533 266.634 360.758 266.219 360.92C265.805 361.08 265.339 361.159 264.822 361.159ZM273.687 361V360.105L277.048 356.426C277.442 355.995 277.767 355.621 278.022 355.303C278.277 354.981 278.466 354.679 278.589 354.398C278.715 354.113 278.778 353.814 278.778 353.503C278.778 353.145 278.692 352.835 278.519 352.573C278.35 352.311 278.118 352.109 277.823 351.967C277.528 351.824 277.197 351.753 276.829 351.753C276.438 351.753 276.096 351.834 275.805 351.996C275.516 352.156 275.293 352.379 275.134 352.668C274.978 352.956 274.9 353.294 274.9 353.682H273.727C273.727 353.085 273.864 352.562 274.139 352.111C274.414 351.66 274.789 351.309 275.263 351.057C275.74 350.805 276.275 350.679 276.869 350.679C277.465 350.679 277.994 350.805 278.455 351.057C278.915 351.309 279.277 351.648 279.538 352.076C279.8 352.504 279.931 352.979 279.931 353.503C279.931 353.877 279.863 354.244 279.727 354.602C279.595 354.956 279.363 355.352 279.031 355.79C278.703 356.224 278.247 356.754 277.664 357.381L275.377 359.827V359.906H280.11V361H273.687Z" fill="black"/>
<path d="M91.8295 202H89.6136L96.0227 184.545H98.2045L104.614 202H102.398L97.1818 187.307H97.0455L91.8295 202ZM92.6477 195.182H101.58V197.057H92.6477V195.182ZM109.071 184.545V202H107.06V184.545H109.071ZM112.755 202V188.909H114.766V202H112.755ZM113.778 186.727C113.386 186.727 113.048 186.594 112.763 186.327C112.485 186.06 112.346 185.739 112.346 185.364C112.346 184.989 112.485 184.668 112.763 184.401C113.048 184.134 113.386 184 113.778 184C114.17 184 114.505 184.134 114.783 184.401C115.067 184.668 115.21 184.989 115.21 185.364C115.21 185.739 115.067 186.06 114.783 186.327C114.505 186.594 114.17 186.727 113.778 186.727ZM123.768 202.273C122.541 202.273 121.484 201.983 120.598 201.403C119.712 200.824 119.03 200.026 118.553 199.009C118.075 197.991 117.837 196.83 117.837 195.523C117.837 194.193 118.081 193.02 118.57 192.003C119.064 190.98 119.751 190.182 120.632 189.608C121.518 189.028 122.553 188.739 123.734 188.739C124.655 188.739 125.484 188.909 126.223 189.25C126.962 189.591 127.567 190.068 128.038 190.682C128.51 191.295 128.803 192.011 128.916 192.83H126.905C126.751 192.233 126.411 191.705 125.882 191.244C125.359 190.778 124.655 190.545 123.768 190.545C122.984 190.545 122.297 190.75 121.706 191.159C121.121 191.562 120.663 192.134 120.334 192.872C120.01 193.605 119.848 194.466 119.848 195.455C119.848 196.466 120.007 197.347 120.325 198.097C120.649 198.847 121.104 199.429 121.689 199.844C122.28 200.259 122.973 200.466 123.768 200.466C124.291 200.466 124.766 200.375 125.192 200.193C125.618 200.011 125.979 199.75 126.274 199.409C126.57 199.068 126.78 198.659 126.905 198.182H128.916C128.803 198.955 128.521 199.651 128.072 200.27C127.629 200.884 127.041 201.372 126.308 201.736C125.581 202.094 124.734 202.273 123.768 202.273ZM137.345 202.273C136.084 202.273 134.996 201.994 134.081 201.438C133.172 200.875 132.47 200.091 131.976 199.085C131.487 198.074 131.243 196.898 131.243 195.557C131.243 194.216 131.487 193.034 131.976 192.011C132.47 190.983 133.158 190.182 134.038 189.608C134.925 189.028 135.959 188.739 137.141 188.739C137.822 188.739 138.496 188.852 139.161 189.08C139.825 189.307 140.43 189.676 140.976 190.188C141.521 190.693 141.956 191.364 142.28 192.199C142.604 193.034 142.766 194.062 142.766 195.284V196.136H132.675V194.398H140.72C140.72 193.659 140.572 193 140.277 192.42C139.987 191.841 139.572 191.384 139.033 191.048C138.499 190.713 137.868 190.545 137.141 190.545C136.339 190.545 135.646 190.744 135.061 191.142C134.482 191.534 134.036 192.045 133.723 192.676C133.411 193.307 133.254 193.983 133.254 194.705V195.864C133.254 196.852 133.425 197.69 133.766 198.378C134.112 199.06 134.592 199.58 135.206 199.938C135.82 200.29 136.533 200.466 137.345 200.466C137.874 200.466 138.351 200.392 138.777 200.244C139.209 200.091 139.581 199.864 139.893 199.562C140.206 199.256 140.447 198.875 140.618 198.42L142.561 198.966C142.357 199.625 142.013 200.205 141.53 200.705C141.047 201.199 140.45 201.585 139.74 201.864C139.03 202.136 138.232 202.273 137.345 202.273ZM147.598 184.545V186.08C147.598 186.545 147.513 187.043 147.342 187.571C147.178 188.094 146.933 188.602 146.609 189.097C146.291 189.585 145.905 190.011 145.45 190.375L144.359 189.489C144.717 188.977 145.027 188.446 145.288 187.895C145.555 187.338 145.689 186.744 145.689 186.114V184.545H147.598ZM157.676 191.841L155.869 192.352C155.756 192.051 155.588 191.759 155.366 191.474C155.151 191.185 154.855 190.946 154.48 190.759C154.105 190.571 153.625 190.477 153.04 190.477C152.239 190.477 151.571 190.662 151.037 191.031C150.509 191.395 150.244 191.858 150.244 192.42C150.244 192.92 150.426 193.315 150.79 193.605C151.153 193.895 151.722 194.136 152.494 194.33L154.438 194.807C155.608 195.091 156.48 195.526 157.054 196.111C157.628 196.69 157.915 197.437 157.915 198.352C157.915 199.102 157.699 199.773 157.267 200.364C156.841 200.955 156.244 201.42 155.477 201.761C154.71 202.102 153.818 202.273 152.801 202.273C151.466 202.273 150.361 201.983 149.486 201.403C148.611 200.824 148.057 199.977 147.824 198.864L149.733 198.386C149.915 199.091 150.259 199.619 150.764 199.972C151.276 200.324 151.943 200.5 152.767 200.5C153.705 200.5 154.449 200.301 155 199.903C155.557 199.5 155.835 199.017 155.835 198.455C155.835 198 155.676 197.619 155.358 197.312C155.04 197 154.551 196.767 153.892 196.614L151.71 196.102C150.511 195.818 149.631 195.378 149.068 194.781C148.511 194.179 148.233 193.426 148.233 192.523C148.233 191.784 148.44 191.131 148.855 190.562C149.276 189.994 149.847 189.548 150.568 189.224C151.295 188.901 152.119 188.739 153.04 188.739C154.335 188.739 155.352 189.023 156.091 189.591C156.835 190.159 157.364 190.909 157.676 191.841ZM167.692 202V188.909H169.704V202H167.692ZM168.715 186.727C168.323 186.727 167.985 186.594 167.701 186.327C167.423 186.06 167.283 185.739 167.283 185.364C167.283 184.989 167.423 184.668 167.701 184.401C167.985 184.134 168.323 184 168.715 184C169.107 184 169.442 184.134 169.721 184.401C170.005 184.668 170.147 184.989 170.147 185.364C170.147 185.739 170.005 186.06 169.721 186.327C169.442 186.594 169.107 186.727 168.715 186.727ZM178.331 202.273C177.24 202.273 176.277 201.997 175.442 201.446C174.607 200.889 173.953 200.105 173.482 199.094C173.01 198.077 172.774 196.875 172.774 195.489C172.774 194.114 173.01 192.92 173.482 191.909C173.953 190.898 174.609 190.116 175.45 189.565C176.291 189.014 177.263 188.739 178.365 188.739C179.217 188.739 179.891 188.881 180.385 189.165C180.885 189.443 181.266 189.761 181.527 190.119C181.794 190.472 182.001 190.761 182.149 190.989H182.32V184.545H184.331V202H182.388V199.989H182.149C182.001 200.227 181.791 200.528 181.518 200.892C181.246 201.25 180.857 201.571 180.351 201.855C179.845 202.134 179.172 202.273 178.331 202.273ZM178.604 200.466C179.411 200.466 180.092 200.256 180.649 199.835C181.206 199.409 181.629 198.821 181.919 198.071C182.209 197.315 182.354 196.443 182.354 195.455C182.354 194.477 182.212 193.622 181.928 192.889C181.643 192.151 181.223 191.577 180.666 191.168C180.109 190.753 179.422 190.545 178.604 190.545C177.751 190.545 177.041 190.764 176.473 191.202C175.911 191.634 175.487 192.222 175.203 192.966C174.925 193.705 174.786 194.534 174.786 195.455C174.786 196.386 174.928 197.233 175.212 197.994C175.501 198.75 175.928 199.352 176.49 199.801C177.058 200.244 177.763 200.466 178.604 200.466ZM193.783 202.273C192.521 202.273 191.433 201.994 190.518 201.438C189.609 200.875 188.908 200.091 188.413 199.085C187.925 198.074 187.68 196.898 187.68 195.557C187.68 194.216 187.925 193.034 188.413 192.011C188.908 190.983 189.595 190.182 190.476 189.608C191.362 189.028 192.396 188.739 193.578 188.739C194.26 188.739 194.933 188.852 195.598 189.08C196.263 189.307 196.868 189.676 197.413 190.188C197.959 190.693 198.393 191.364 198.717 192.199C199.041 193.034 199.203 194.062 199.203 195.284V196.136H189.112V194.398H197.158C197.158 193.659 197.01 193 196.714 192.42C196.425 191.841 196.01 191.384 195.47 191.048C194.936 190.713 194.305 190.545 193.578 190.545C192.777 190.545 192.084 190.744 191.499 191.142C190.919 191.534 190.473 192.045 190.161 192.676C189.848 193.307 189.692 193.983 189.692 194.705V195.864C189.692 196.852 189.862 197.69 190.203 198.378C190.55 199.06 191.03 199.58 191.643 199.938C192.257 200.29 192.97 200.466 193.783 200.466C194.311 200.466 194.788 200.392 195.214 200.244C195.646 200.091 196.018 199.864 196.331 199.562C196.643 199.256 196.885 198.875 197.055 198.42L198.999 198.966C198.794 199.625 198.45 200.205 197.967 200.705C197.484 201.199 196.888 201.585 196.178 201.864C195.467 202.136 194.669 202.273 193.783 202.273ZM204.274 194.125V202H202.263V188.909H204.206V190.955H204.376C204.683 190.29 205.149 189.756 205.774 189.352C206.399 188.943 207.206 188.739 208.195 188.739C209.081 188.739 209.857 188.92 210.521 189.284C211.186 189.642 211.703 190.188 212.072 190.92C212.442 191.648 212.626 192.568 212.626 193.682V202H210.615V193.818C210.615 192.79 210.348 191.989 209.814 191.415C209.28 190.835 208.547 190.545 207.615 190.545C206.973 190.545 206.399 190.685 205.893 190.963C205.393 191.241 204.999 191.648 204.709 192.182C204.419 192.716 204.274 193.364 204.274 194.125ZM221.995 188.909V190.614H215.211V188.909H221.995ZM217.188 185.773H219.2V198.25C219.2 198.818 219.282 199.244 219.447 199.528C219.617 199.807 219.833 199.994 220.094 200.091C220.362 200.182 220.643 200.227 220.938 200.227C221.16 200.227 221.342 200.216 221.484 200.193C221.626 200.165 221.739 200.142 221.825 200.125L222.234 201.932C222.097 201.983 221.907 202.034 221.663 202.085C221.418 202.142 221.109 202.17 220.734 202.17C220.165 202.17 219.609 202.048 219.063 201.804C218.523 201.56 218.075 201.188 217.717 200.688C217.364 200.188 217.188 199.557 217.188 198.795V185.773ZM225.021 202V188.909H227.032V202H225.021ZM226.043 186.727C225.651 186.727 225.313 186.594 225.029 186.327C224.751 186.06 224.612 185.739 224.612 185.364C224.612 184.989 224.751 184.668 225.029 184.401C225.313 184.134 225.651 184 226.043 184C226.435 184 226.771 184.134 227.049 184.401C227.333 184.668 227.475 184.989 227.475 185.364C227.475 185.739 227.333 186.06 227.049 186.327C226.771 186.594 226.435 186.727 226.043 186.727ZM236.409 188.909V190.614H229.625V188.909H236.409ZM231.602 185.773H233.614V198.25C233.614 198.818 233.696 199.244 233.861 199.528C234.031 199.807 234.247 199.994 234.509 200.091C234.776 200.182 235.057 200.227 235.352 200.227C235.574 200.227 235.756 200.216 235.898 200.193C236.04 200.165 236.153 200.142 236.239 200.125L236.648 201.932C236.511 201.983 236.321 202.034 236.077 202.085C235.832 202.142 235.523 202.17 235.148 202.17C234.58 202.17 234.023 202.048 233.477 201.804C232.938 201.56 232.489 201.188 232.131 200.688C231.778 200.188 231.602 199.557 231.602 198.795V185.773ZM240.73 206.909C240.389 206.909 240.085 206.881 239.818 206.824C239.551 206.773 239.366 206.722 239.264 206.67L239.776 204.898C240.264 205.023 240.696 205.068 241.071 205.034C241.446 205 241.778 204.832 242.068 204.531C242.364 204.236 242.634 203.756 242.878 203.091L243.253 202.068L238.412 188.909H240.594L244.207 199.341H244.344L247.957 188.909H250.139L244.582 203.909C244.332 204.585 244.023 205.145 243.653 205.588C243.284 206.037 242.855 206.369 242.366 206.585C241.884 206.801 241.338 206.909 240.73 206.909Z" fill="black"/>
<path d="M323.667 253C323.667 255.946 326.054 258.333 329 258.333C331.946 258.333 334.333 255.946 334.333 253C334.333 250.054 331.946 247.667 329 247.667C326.054 247.667 323.667 250.054 323.667 253ZM624.667 253C624.667 255.946 627.054 258.333 630 258.333C632.946 258.333 635.333 255.946 635.333 253C635.333 250.054 632.946 247.667 630 247.667C627.054 247.667 624.667 250.054 624.667 253ZM329 254H630V252H329V254Z" fill="black"/>
<rect x="501" y="170" width="428" height="238" rx="9" stroke="black" stroke-width="2" stroke-dasharray="2 2"/>
<rect x="630" y="230" width="159" height="47" stroke="black" stroke-width="2"/>
<path d="M689.957 260.159C689.321 260.159 688.759 259.998 688.272 259.677C687.785 259.352 687.404 258.895 687.129 258.305C686.853 257.711 686.716 257.01 686.716 256.202C686.716 255.4 686.853 254.704 687.129 254.114C687.404 253.524 687.786 253.068 688.277 252.746C688.768 252.425 689.334 252.264 689.977 252.264C690.474 252.264 690.867 252.347 691.156 252.513C691.447 252.675 691.669 252.861 691.822 253.07C691.978 253.275 692.098 253.444 692.185 253.577H692.284V249.818H693.457V260H692.324V258.827H692.185C692.098 258.966 691.976 259.142 691.817 259.354C691.658 259.562 691.431 259.75 691.136 259.915C690.841 260.078 690.448 260.159 689.957 260.159ZM690.116 259.105C690.587 259.105 690.985 258.982 691.31 258.737C691.634 258.489 691.881 258.146 692.05 257.708C692.219 257.267 692.304 256.759 692.304 256.182C692.304 255.612 692.221 255.113 692.055 254.685C691.89 254.254 691.644 253.92 691.32 253.681C690.995 253.439 690.594 253.318 690.116 253.318C689.619 253.318 689.205 253.446 688.874 253.701C688.545 253.953 688.299 254.296 688.133 254.73C687.97 255.161 687.889 255.645 687.889 256.182C687.889 256.725 687.972 257.219 688.138 257.663C688.307 258.104 688.555 258.455 688.884 258.717C689.215 258.976 689.626 259.105 690.116 259.105ZM698.971 260.159C698.235 260.159 697.6 259.997 697.067 259.672C696.536 259.344 696.127 258.886 695.839 258.3C695.554 257.71 695.411 257.024 695.411 256.241C695.411 255.459 695.554 254.77 695.839 254.173C696.127 253.573 696.528 253.106 697.042 252.771C697.559 252.433 698.162 252.264 698.852 252.264C699.249 252.264 699.642 252.33 700.03 252.463C700.418 252.596 700.771 252.811 701.089 253.109C701.407 253.404 701.661 253.795 701.849 254.283C702.038 254.77 702.133 255.37 702.133 256.082V256.58H696.246V255.565H700.94C700.94 255.134 700.853 254.75 700.681 254.412C700.512 254.074 700.27 253.807 699.955 253.612C699.644 253.416 699.276 253.318 698.852 253.318C698.384 253.318 697.98 253.434 697.638 253.666C697.3 253.895 697.04 254.193 696.858 254.561C696.676 254.929 696.585 255.323 696.585 255.744V256.42C696.585 256.997 696.684 257.486 696.883 257.887C697.085 258.285 697.365 258.588 697.723 258.797C698.081 259.002 698.497 259.105 698.971 259.105C699.279 259.105 699.558 259.062 699.806 258.976C700.058 258.886 700.275 258.754 700.457 258.578C700.64 258.399 700.781 258.177 700.88 257.912L702.013 258.23C701.894 258.615 701.694 258.953 701.412 259.244C701.13 259.533 700.782 259.758 700.368 259.92C699.954 260.08 699.488 260.159 698.971 260.159ZM709.93 252.364L707.106 260H705.912L703.089 252.364H704.361L706.469 258.449H706.549L708.657 252.364H709.93ZM711.478 260V252.364H712.651V260H711.478ZM712.075 251.091C711.846 251.091 711.649 251.013 711.483 250.857C711.321 250.701 711.24 250.514 711.24 250.295C711.24 250.077 711.321 249.889 711.483 249.734C711.649 249.578 711.846 249.5 712.075 249.5C712.303 249.5 712.499 249.578 712.661 249.734C712.827 249.889 712.91 250.077 712.91 250.295C712.91 250.514 712.827 250.701 712.661 250.857C712.499 251.013 712.303 251.091 712.075 251.091ZM717.903 260.159C717.187 260.159 716.57 259.99 716.053 259.652C715.536 259.314 715.138 258.848 714.86 258.255C714.582 257.662 714.442 256.984 714.442 256.222C714.442 255.446 714.585 254.762 714.87 254.168C715.158 253.572 715.559 253.106 716.073 252.771C716.59 252.433 717.193 252.264 717.883 252.264C718.42 252.264 718.904 252.364 719.335 252.562C719.765 252.761 720.118 253.04 720.393 253.398C720.669 253.756 720.839 254.173 720.906 254.651H719.732C719.643 254.303 719.444 253.994 719.136 253.726C718.831 253.454 718.42 253.318 717.903 253.318C717.445 253.318 717.044 253.437 716.7 253.676C716.358 253.911 716.091 254.245 715.899 254.675C715.71 255.103 715.616 255.605 715.616 256.182C715.616 256.772 715.709 257.286 715.894 257.723C716.083 258.161 716.348 258.5 716.69 258.742C717.034 258.984 717.439 259.105 717.903 259.105C718.208 259.105 718.484 259.052 718.733 258.946C718.982 258.84 719.192 258.688 719.364 258.489C719.537 258.29 719.659 258.051 719.732 257.773H720.906C720.839 258.223 720.675 258.629 720.413 258.991C720.155 259.349 719.812 259.634 719.384 259.846C718.96 260.055 718.466 260.159 717.903 260.159ZM725.822 260.159C725.087 260.159 724.452 259.997 723.918 259.672C723.388 259.344 722.979 258.886 722.69 258.3C722.405 257.71 722.263 257.024 722.263 256.241C722.263 255.459 722.405 254.77 722.69 254.173C722.979 253.573 723.38 253.106 723.893 252.771C724.411 252.433 725.014 252.264 725.703 252.264C726.101 252.264 726.494 252.33 726.881 252.463C727.269 252.596 727.622 252.811 727.94 253.109C728.259 253.404 728.512 253.795 728.701 254.283C728.89 254.77 728.984 255.37 728.984 256.082V256.58H723.098V255.565H727.791C727.791 255.134 727.705 254.75 727.533 254.412C727.364 254.074 727.122 253.807 726.807 253.612C726.495 253.416 726.127 253.318 725.703 253.318C725.236 253.318 724.831 253.434 724.49 253.666C724.152 253.895 723.892 254.193 723.71 254.561C723.527 254.929 723.436 255.323 723.436 255.744V256.42C723.436 256.997 723.536 257.486 723.734 257.887C723.937 258.285 724.217 258.588 724.575 258.797C724.933 259.002 725.348 259.105 725.822 259.105C726.131 259.105 726.409 259.062 726.658 258.976C726.91 258.886 727.127 258.754 727.309 258.578C727.491 258.399 727.632 258.177 727.732 257.912L728.865 258.23C728.746 258.615 728.545 258.953 728.263 259.244C727.982 259.533 727.634 259.758 727.219 259.92C726.805 260.08 726.339 260.159 725.822 260.159ZM738.266 249.818V260H737.033V251.111H736.974L734.488 252.761V251.509L737.033 249.818H738.266Z" fill="black"/>
<path d="M714.554 274.223C713.02 271.709 709.738 270.913 707.223 272.446C704.709 273.98 703.913 277.262 705.446 279.777C706.98 282.291 710.262 283.087 712.777 281.554C715.291 280.02 716.087 276.738 714.554 274.223ZM814.554 327.223C813.02 324.709 809.738 323.913 807.223 325.446C804.709 326.98 803.913 330.262 805.446 332.777C806.98 335.291 810.262 336.087 812.777 334.554C815.291 333.02 816.087 329.738 814.554 327.223ZM709.532 277.884L809.532 330.884L810.468 329.116L710.468 276.116L709.532 277.884Z" fill="black"/>
<path d="M715.084 273.956C713.656 271.379 710.41 270.449 707.834 271.877C705.258 273.305 704.327 276.551 705.755 279.127C707.183 281.703 710.429 282.634 713.005 281.206C715.582 279.778 716.512 276.532 715.084 273.956ZM624.526 328.165C623.098 325.589 619.852 324.658 617.276 326.086C614.7 327.514 613.769 330.76 615.197 333.336C616.625 335.913 619.871 336.843 622.448 335.415C625.024 333.987 625.954 330.741 624.526 328.165ZM709.906 275.683L664.627 302.788L665.654 304.504L710.933 277.399L709.906 275.683ZM664.627 302.788L619.348 329.893L620.375 331.609L665.654 304.504L664.627 302.788Z" fill="black"/>
<rect x="547" y="330" width="147" height="49" stroke="black" stroke-width="2"/>
<path d="M599.957 361.159C599.321 361.159 598.759 360.998 598.272 360.677C597.785 360.352 597.404 359.895 597.129 359.305C596.853 358.711 596.716 358.01 596.716 357.202C596.716 356.4 596.853 355.704 597.129 355.114C597.404 354.524 597.786 354.068 598.277 353.746C598.768 353.425 599.334 353.264 599.977 353.264C600.474 353.264 600.867 353.347 601.156 353.513C601.447 353.675 601.669 353.861 601.822 354.07C601.978 354.275 602.098 354.444 602.185 354.577H602.284V350.818H603.457V361H602.324V359.827H602.185C602.098 359.966 601.976 360.142 601.817 360.354C601.658 360.562 601.431 360.75 601.136 360.915C600.841 361.078 600.448 361.159 599.957 361.159ZM600.116 360.105C600.587 360.105 600.985 359.982 601.31 359.737C601.634 359.489 601.881 359.146 602.05 358.708C602.219 358.267 602.304 357.759 602.304 357.182C602.304 356.612 602.221 356.113 602.055 355.685C601.89 355.254 601.644 354.92 601.32 354.681C600.995 354.439 600.594 354.318 600.116 354.318C599.619 354.318 599.205 354.446 598.874 354.701C598.545 354.953 598.299 355.296 598.133 355.73C597.97 356.161 597.889 356.645 597.889 357.182C597.889 357.725 597.972 358.219 598.138 358.663C598.307 359.104 598.555 359.455 598.884 359.717C599.215 359.976 599.626 360.105 600.116 360.105ZM608.971 361.159C608.235 361.159 607.6 360.997 607.067 360.672C606.536 360.344 606.127 359.886 605.839 359.3C605.554 358.71 605.411 358.024 605.411 357.241C605.411 356.459 605.554 355.77 605.839 355.173C606.127 354.573 606.528 354.106 607.042 353.771C607.559 353.433 608.162 353.264 608.852 353.264C609.249 353.264 609.642 353.33 610.03 353.463C610.418 353.596 610.771 353.811 611.089 354.109C611.407 354.404 611.661 354.795 611.849 355.283C612.038 355.77 612.133 356.37 612.133 357.082V357.58H606.246V356.565H610.94C610.94 356.134 610.853 355.75 610.681 355.412C610.512 355.074 610.27 354.807 609.955 354.612C609.644 354.416 609.276 354.318 608.852 354.318C608.384 354.318 607.98 354.434 607.638 354.666C607.3 354.895 607.04 355.193 606.858 355.561C606.676 355.929 606.585 356.323 606.585 356.744V357.42C606.585 357.997 606.684 358.486 606.883 358.887C607.085 359.285 607.365 359.588 607.723 359.797C608.081 360.002 608.497 360.105 608.971 360.105C609.279 360.105 609.558 360.062 609.806 359.976C610.058 359.886 610.275 359.754 610.457 359.578C610.64 359.399 610.781 359.177 610.88 358.912L612.013 359.23C611.894 359.615 611.694 359.953 611.412 360.244C611.13 360.533 610.782 360.758 610.368 360.92C609.954 361.08 609.488 361.159 608.971 361.159ZM619.93 353.364L617.106 361H615.912L613.089 353.364H614.361L616.469 359.449H616.549L618.657 353.364H619.93ZM621.478 361V353.364H622.651V361H621.478ZM622.075 352.091C621.846 352.091 621.649 352.013 621.483 351.857C621.321 351.701 621.24 351.514 621.24 351.295C621.24 351.077 621.321 350.889 621.483 350.734C621.649 350.578 621.846 350.5 622.075 350.5C622.303 350.5 622.499 350.578 622.661 350.734C622.827 350.889 622.91 351.077 622.91 351.295C622.91 351.514 622.827 351.701 622.661 351.857C622.499 352.013 622.303 352.091 622.075 352.091ZM627.903 361.159C627.187 361.159 626.57 360.99 626.053 360.652C625.536 360.314 625.138 359.848 624.86 359.255C624.582 358.662 624.442 357.984 624.442 357.222C624.442 356.446 624.585 355.762 624.87 355.168C625.158 354.572 625.559 354.106 626.073 353.771C626.59 353.433 627.193 353.264 627.883 353.264C628.42 353.264 628.904 353.364 629.335 353.562C629.765 353.761 630.118 354.04 630.393 354.398C630.669 354.756 630.839 355.173 630.906 355.651H629.732C629.643 355.303 629.444 354.994 629.136 354.726C628.831 354.454 628.42 354.318 627.903 354.318C627.445 354.318 627.044 354.437 626.7 354.676C626.358 354.911 626.091 355.245 625.899 355.675C625.71 356.103 625.616 356.605 625.616 357.182C625.616 357.772 625.709 358.286 625.894 358.723C626.083 359.161 626.348 359.5 626.69 359.742C627.034 359.984 627.439 360.105 627.903 360.105C628.208 360.105 628.484 360.052 628.733 359.946C628.982 359.84 629.192 359.688 629.364 359.489C629.537 359.29 629.659 359.051 629.732 358.773H630.906C630.839 359.223 630.675 359.629 630.413 359.991C630.155 360.349 629.812 360.634 629.384 360.846C628.96 361.055 628.466 361.159 627.903 361.159ZM635.822 361.159C635.087 361.159 634.452 360.997 633.918 360.672C633.388 360.344 632.979 359.886 632.69 359.3C632.405 358.71 632.263 358.024 632.263 357.241C632.263 356.459 632.405 355.77 632.69 355.173C632.979 354.573 633.38 354.106 633.893 353.771C634.411 353.433 635.014 353.264 635.703 353.264C636.101 353.264 636.494 353.33 636.881 353.463C637.269 353.596 637.622 353.811 637.94 354.109C638.259 354.404 638.512 354.795 638.701 355.283C638.89 355.77 638.984 356.37 638.984 357.082V357.58H633.098V356.565H637.791C637.791 356.134 637.705 355.75 637.533 355.412C637.364 355.074 637.122 354.807 636.807 354.612C636.495 354.416 636.127 354.318 635.703 354.318C635.236 354.318 634.831 354.434 634.49 354.666C634.152 354.895 633.892 355.193 633.71 355.561C633.527 355.929 633.436 356.323 633.436 356.744V357.42C633.436 357.997 633.536 358.486 633.734 358.887C633.937 359.285 634.217 359.588 634.575 359.797C634.933 360.002 635.348 360.105 635.822 360.105C636.131 360.105 636.409 360.062 636.658 359.976C636.91 359.886 637.127 359.754 637.309 359.578C637.491 359.399 637.632 359.177 637.732 358.912L638.865 359.23C638.746 359.615 638.545 359.953 638.263 360.244C637.982 360.533 637.634 360.758 637.219 360.92C636.805 361.08 636.339 361.159 635.822 361.159ZM644.687 361V360.105L648.048 356.426C648.442 355.995 648.767 355.621 649.022 355.303C649.277 354.981 649.466 354.679 649.589 354.398C649.715 354.113 649.778 353.814 649.778 353.503C649.778 353.145 649.692 352.835 649.519 352.573C649.35 352.311 649.118 352.109 648.823 351.967C648.528 351.824 648.197 351.753 647.829 351.753C647.438 351.753 647.096 351.834 646.805 351.996C646.516 352.156 646.293 352.379 646.134 352.668C645.978 352.956 645.9 353.294 645.9 353.682H644.727C644.727 353.085 644.864 352.562 645.139 352.111C645.414 351.66 645.789 351.309 646.263 351.057C646.74 350.805 647.275 350.679 647.869 350.679C648.465 350.679 648.994 350.805 649.455 351.057C649.915 351.309 650.277 351.648 650.538 352.076C650.8 352.504 650.931 352.979 650.931 353.503C650.931 353.877 650.863 354.244 650.727 354.602C650.595 354.956 650.363 355.352 650.031 355.79C649.703 356.224 649.247 356.754 648.664 357.381L646.377 359.827V359.906H651.11V361H644.687Z" fill="black"/>
<path d="M521.114 202V184.545H527.216C528.432 184.545 529.435 184.756 530.224 185.176C531.014 185.591 531.602 186.151 531.989 186.855C532.375 187.554 532.568 188.33 532.568 189.182C532.568 189.932 532.435 190.551 532.168 191.04C531.906 191.528 531.56 191.915 531.128 192.199C530.702 192.483 530.239 192.693 529.739 192.83V193C530.273 193.034 530.81 193.222 531.349 193.562C531.889 193.903 532.341 194.392 532.705 195.028C533.068 195.665 533.25 196.443 533.25 197.364C533.25 198.239 533.051 199.026 532.653 199.724C532.256 200.423 531.628 200.977 530.77 201.386C529.912 201.795 528.795 202 527.42 202H521.114ZM523.227 200.125H527.42C528.801 200.125 529.781 199.858 530.361 199.324C530.946 198.784 531.239 198.131 531.239 197.364C531.239 196.773 531.088 196.227 530.787 195.727C530.486 195.222 530.057 194.818 529.5 194.517C528.943 194.21 528.284 194.057 527.523 194.057H523.227V200.125ZM523.227 192.216H527.148C527.784 192.216 528.358 192.091 528.869 191.841C529.386 191.591 529.795 191.239 530.097 190.784C530.403 190.33 530.557 189.795 530.557 189.182C530.557 188.415 530.29 187.764 529.756 187.23C529.222 186.69 528.375 186.42 527.216 186.42H523.227V192.216ZM541.768 202.273C540.587 202.273 539.55 201.991 538.658 201.429C537.771 200.866 537.078 200.08 536.578 199.068C536.084 198.057 535.837 196.875 535.837 195.523C535.837 194.159 536.084 192.969 536.578 191.952C537.078 190.935 537.771 190.145 538.658 189.582C539.55 189.02 540.587 188.739 541.768 188.739C542.95 188.739 543.984 189.02 544.871 189.582C545.763 190.145 546.456 190.935 546.95 191.952C547.45 192.969 547.7 194.159 547.7 195.523C547.7 196.875 547.45 198.057 546.95 199.068C546.456 200.08 545.763 200.866 544.871 201.429C543.984 201.991 542.95 202.273 541.768 202.273ZM541.768 200.466C542.666 200.466 543.405 200.236 543.984 199.776C544.564 199.315 544.993 198.71 545.271 197.96C545.55 197.21 545.689 196.398 545.689 195.523C545.689 194.648 545.55 193.832 545.271 193.077C544.993 192.321 544.564 191.71 543.984 191.244C543.405 190.778 542.666 190.545 541.768 190.545C540.871 190.545 540.132 190.778 539.553 191.244C538.973 191.71 538.544 192.321 538.266 193.077C537.987 193.832 537.848 194.648 537.848 195.523C537.848 196.398 537.987 197.21 538.266 197.96C538.544 198.71 538.973 199.315 539.553 199.776C540.132 200.236 540.871 200.466 541.768 200.466ZM551.043 202V184.545H553.055V190.989H553.225C553.373 190.761 553.577 190.472 553.839 190.119C554.106 189.761 554.487 189.443 554.981 189.165C555.481 188.881 556.157 188.739 557.009 188.739C558.112 188.739 559.083 189.014 559.924 189.565C560.765 190.116 561.421 190.898 561.893 191.909C562.364 192.92 562.6 194.114 562.6 195.489C562.6 196.875 562.364 198.077 561.893 199.094C561.421 200.105 560.768 200.889 559.933 201.446C559.097 201.997 558.134 202.273 557.043 202.273C556.202 202.273 555.529 202.134 555.023 201.855C554.518 201.571 554.129 201.25 553.856 200.892C553.583 200.528 553.373 200.227 553.225 199.989H552.987V202H551.043ZM553.021 195.455C553.021 196.443 553.165 197.315 553.455 198.071C553.745 198.821 554.168 199.409 554.725 199.835C555.282 200.256 555.964 200.466 556.771 200.466C557.612 200.466 558.313 200.244 558.876 199.801C559.444 199.352 559.87 198.75 560.154 197.994C560.444 197.233 560.589 196.386 560.589 195.455C560.589 194.534 560.447 193.705 560.163 192.966C559.884 192.222 559.461 191.634 558.893 191.202C558.33 190.764 557.623 190.545 556.771 190.545C555.952 190.545 555.265 190.753 554.708 191.168C554.151 191.577 553.731 192.151 553.447 192.889C553.163 193.622 553.021 194.477 553.021 195.455ZM567.45 184.545V186.08C567.45 186.545 567.364 187.043 567.194 187.571C567.029 188.094 566.785 188.602 566.461 189.097C566.143 189.585 565.756 190.011 565.302 190.375L564.211 189.489C564.569 188.977 564.879 188.446 565.14 187.895C565.407 187.338 565.54 186.744 565.54 186.114V184.545H567.45ZM577.528 191.841L575.721 192.352C575.607 192.051 575.44 191.759 575.218 191.474C575.002 191.185 574.707 190.946 574.332 190.759C573.957 190.571 573.477 190.477 572.891 190.477C572.09 190.477 571.423 190.662 570.888 191.031C570.36 191.395 570.096 191.858 570.096 192.42C570.096 192.92 570.278 193.315 570.641 193.605C571.005 193.895 571.573 194.136 572.346 194.33L574.289 194.807C575.46 195.091 576.332 195.526 576.906 196.111C577.479 196.69 577.766 197.437 577.766 198.352C577.766 199.102 577.55 199.773 577.119 200.364C576.692 200.955 576.096 201.42 575.329 201.761C574.562 202.102 573.67 202.273 572.653 202.273C571.317 202.273 570.212 201.983 569.337 201.403C568.462 200.824 567.908 199.977 567.675 198.864L569.585 198.386C569.766 199.091 570.11 199.619 570.616 199.972C571.127 200.324 571.795 200.5 572.619 200.5C573.556 200.5 574.3 200.301 574.852 199.903C575.408 199.5 575.687 199.017 575.687 198.455C575.687 198 575.528 197.619 575.21 197.312C574.891 197 574.403 196.767 573.744 196.614L571.562 196.102C570.363 195.818 569.482 195.378 568.92 194.781C568.363 194.179 568.085 193.426 568.085 192.523C568.085 191.784 568.292 191.131 568.707 190.562C569.127 189.994 569.698 189.548 570.42 189.224C571.147 188.901 571.971 188.739 572.891 188.739C574.187 188.739 575.204 189.023 575.942 189.591C576.687 190.159 577.215 190.909 577.528 191.841ZM587.544 202V188.909H589.555V202H587.544ZM588.567 186.727C588.175 186.727 587.837 186.594 587.553 186.327C587.274 186.06 587.135 185.739 587.135 185.364C587.135 184.989 587.274 184.668 587.553 184.401C587.837 184.134 588.175 184 588.567 184C588.959 184 589.294 184.134 589.572 184.401C589.857 184.668 589.999 184.989 589.999 185.364C589.999 185.739 589.857 186.06 589.572 186.327C589.294 186.594 588.959 186.727 588.567 186.727ZM598.183 202.273C597.092 202.273 596.129 201.997 595.293 201.446C594.458 200.889 593.805 200.105 593.333 199.094C592.862 198.077 592.626 196.875 592.626 195.489C592.626 194.114 592.862 192.92 593.333 191.909C593.805 190.898 594.461 190.116 595.302 189.565C596.143 189.014 597.114 188.739 598.217 188.739C599.069 188.739 599.742 188.881 600.237 189.165C600.737 189.443 601.117 189.761 601.379 190.119C601.646 190.472 601.853 190.761 602.001 190.989H602.171V184.545H604.183V202H602.239V199.989H602.001C601.853 200.227 601.643 200.528 601.37 200.892C601.097 201.25 600.708 201.571 600.202 201.855C599.697 202.134 599.023 202.273 598.183 202.273ZM598.455 200.466C599.262 200.466 599.944 200.256 600.501 199.835C601.058 199.409 601.481 198.821 601.771 198.071C602.06 197.315 602.205 196.443 602.205 195.455C602.205 194.477 602.063 193.622 601.779 192.889C601.495 192.151 601.075 191.577 600.518 191.168C599.961 190.753 599.273 190.545 598.455 190.545C597.603 190.545 596.893 190.764 596.325 191.202C595.762 191.634 595.339 192.222 595.055 192.966C594.776 193.705 594.637 194.534 594.637 195.455C594.637 196.386 594.779 197.233 595.063 197.994C595.353 198.75 595.779 199.352 596.342 199.801C596.91 200.244 597.614 200.466 598.455 200.466ZM613.634 202.273C612.373 202.273 611.285 201.994 610.37 201.438C609.461 200.875 608.759 200.091 608.265 199.085C607.776 198.074 607.532 196.898 607.532 195.557C607.532 194.216 607.776 193.034 608.265 192.011C608.759 190.983 609.447 190.182 610.327 189.608C611.214 189.028 612.248 188.739 613.43 188.739C614.112 188.739 614.785 188.852 615.45 189.08C616.114 189.307 616.719 189.676 617.265 190.188C617.81 190.693 618.245 191.364 618.569 192.199C618.893 193.034 619.055 194.062 619.055 195.284V196.136H608.964V194.398H617.009C617.009 193.659 616.862 193 616.566 192.42C616.276 191.841 615.862 191.384 615.322 191.048C614.788 190.713 614.157 190.545 613.43 190.545C612.629 190.545 611.935 190.744 611.35 191.142C610.771 191.534 610.325 192.045 610.012 192.676C609.7 193.307 609.543 193.983 609.543 194.705V195.864C609.543 196.852 609.714 197.69 610.055 198.378C610.401 199.06 610.881 199.58 611.495 199.938C612.109 200.29 612.822 200.466 613.634 200.466C614.163 200.466 614.64 200.392 615.066 200.244C615.498 200.091 615.87 199.864 616.183 199.562C616.495 199.256 616.737 198.875 616.907 198.42L618.85 198.966C618.646 199.625 618.302 200.205 617.819 200.705C617.336 201.199 616.739 201.585 616.029 201.864C615.319 202.136 614.521 202.273 613.634 202.273ZM624.126 194.125V202H622.114V188.909H624.058V190.955H624.228C624.535 190.29 625.001 189.756 625.626 189.352C626.251 188.943 627.058 188.739 628.046 188.739C628.933 188.739 629.708 188.92 630.373 189.284C631.038 189.642 631.555 190.188 631.924 190.92C632.293 191.648 632.478 192.568 632.478 193.682V202H630.467V193.818C630.467 192.79 630.2 191.989 629.665 191.415C629.131 190.835 628.398 190.545 627.467 190.545C626.825 190.545 626.251 190.685 625.745 190.963C625.245 191.241 624.85 191.648 624.56 192.182C624.271 192.716 624.126 193.364 624.126 194.125ZM641.847 188.909V190.614H635.062V188.909H641.847ZM637.04 185.773H639.051V198.25C639.051 198.818 639.134 199.244 639.298 199.528C639.469 199.807 639.685 199.994 639.946 200.091C640.213 200.182 640.494 200.227 640.79 200.227C641.011 200.227 641.193 200.216 641.335 200.193C641.477 200.165 641.591 200.142 641.676 200.125L642.085 201.932C641.949 201.983 641.759 202.034 641.514 202.085C641.27 202.142 640.96 202.17 640.585 202.17C640.017 202.17 639.46 202.048 638.915 201.804C638.375 201.56 637.926 201.188 637.568 200.688C637.216 200.188 637.04 199.557 637.04 198.795V185.773ZM644.872 202V188.909H646.884V202H644.872ZM645.895 186.727C645.503 186.727 645.165 186.594 644.881 186.327C644.602 186.06 644.463 185.739 644.463 185.364C644.463 184.989 644.602 184.668 644.881 184.401C645.165 184.134 645.503 184 645.895 184C646.287 184 646.622 184.134 646.901 184.401C647.185 184.668 647.327 184.989 647.327 185.364C647.327 185.739 647.185 186.06 646.901 186.327C646.622 186.594 646.287 186.727 645.895 186.727ZM656.261 188.909V190.614H649.477V188.909H656.261ZM651.454 185.773H653.465V198.25C653.465 198.818 653.548 199.244 653.712 199.528C653.883 199.807 654.099 199.994 654.36 200.091C654.627 200.182 654.908 200.227 655.204 200.227C655.425 200.227 655.607 200.216 655.749 200.193C655.891 200.165 656.005 200.142 656.09 200.125L656.499 201.932C656.363 201.983 656.173 202.034 655.928 202.085C655.684 202.142 655.374 202.17 654.999 202.17C654.431 202.17 653.874 202.048 653.329 201.804C652.789 201.56 652.34 201.188 651.982 200.688C651.63 200.188 651.454 199.557 651.454 198.795V185.773ZM660.582 206.909C660.241 206.909 659.937 206.881 659.67 206.824C659.403 206.773 659.218 206.722 659.116 206.67L659.627 204.898C660.116 205.023 660.548 205.068 660.923 205.034C661.298 205 661.63 204.832 661.92 204.531C662.215 204.236 662.485 203.756 662.729 203.091L663.104 202.068L658.263 188.909H660.445L664.059 199.341H664.195L667.809 188.909H669.991L664.434 203.909C664.184 204.585 663.874 205.145 663.505 205.588C663.136 206.037 662.707 206.369 662.218 206.585C661.735 206.801 661.19 206.909 660.582 206.909Z" fill="black"/>
<rect x="733" y="330" width="154" height="49" stroke="black" stroke-width="2"/>
<path d="M788.957 361.159C788.321 361.159 787.759 360.998 787.272 360.677C786.785 360.352 786.404 359.895 786.129 359.305C785.853 358.711 785.716 358.01 785.716 357.202C785.716 356.4 785.853 355.704 786.129 355.114C786.404 354.524 786.786 354.068 787.277 353.746C787.768 353.425 788.334 353.264 788.977 353.264C789.474 353.264 789.867 353.347 790.156 353.513C790.447 353.675 790.669 353.861 790.822 354.07C790.978 354.275 791.098 354.444 791.185 354.577H791.284V350.818H792.457V361H791.324V359.827H791.185C791.098 359.966 790.976 360.142 790.817 360.354C790.658 360.562 790.431 360.75 790.136 360.915C789.841 361.078 789.448 361.159 788.957 361.159ZM789.116 360.105C789.587 360.105 789.985 359.982 790.31 359.737C790.634 359.489 790.881 359.146 791.05 358.708C791.219 358.267 791.304 357.759 791.304 357.182C791.304 356.612 791.221 356.113 791.055 355.685C790.89 355.254 790.644 354.92 790.32 354.681C789.995 354.439 789.594 354.318 789.116 354.318C788.619 354.318 788.205 354.446 787.874 354.701C787.545 354.953 787.299 355.296 787.133 355.73C786.97 356.161 786.889 356.645 786.889 357.182C786.889 357.725 786.972 358.219 787.138 358.663C787.307 359.104 787.555 359.455 787.884 359.717C788.215 359.976 788.626 360.105 789.116 360.105ZM797.971 361.159C797.235 361.159 796.6 360.997 796.067 360.672C795.536 360.344 795.127 359.886 794.839 359.3C794.554 358.71 794.411 358.024 794.411 357.241C794.411 356.459 794.554 355.77 794.839 355.173C795.127 354.573 795.528 354.106 796.042 353.771C796.559 353.433 797.162 353.264 797.852 353.264C798.249 353.264 798.642 353.33 799.03 353.463C799.418 353.596 799.771 353.811 800.089 354.109C800.407 354.404 800.661 354.795 800.849 355.283C801.038 355.77 801.133 356.37 801.133 357.082V357.58H795.246V356.565H799.94C799.94 356.134 799.853 355.75 799.681 355.412C799.512 355.074 799.27 354.807 798.955 354.612C798.644 354.416 798.276 354.318 797.852 354.318C797.384 354.318 796.98 354.434 796.638 354.666C796.3 354.895 796.04 355.193 795.858 355.561C795.676 355.929 795.585 356.323 795.585 356.744V357.42C795.585 357.997 795.684 358.486 795.883 358.887C796.085 359.285 796.365 359.588 796.723 359.797C797.081 360.002 797.497 360.105 797.971 360.105C798.279 360.105 798.558 360.062 798.806 359.976C799.058 359.886 799.275 359.754 799.457 359.578C799.64 359.399 799.781 359.177 799.88 358.912L801.013 359.23C800.894 359.615 800.694 359.953 800.412 360.244C800.13 360.533 799.782 360.758 799.368 360.92C798.954 361.08 798.488 361.159 797.971 361.159ZM808.93 353.364L806.106 361H804.912L802.089 353.364H803.361L805.469 359.449H805.549L807.657 353.364H808.93ZM810.478 361V353.364H811.651V361H810.478ZM811.075 352.091C810.846 352.091 810.649 352.013 810.483 351.857C810.321 351.701 810.24 351.514 810.24 351.295C810.24 351.077 810.321 350.889 810.483 350.734C810.649 350.578 810.846 350.5 811.075 350.5C811.303 350.5 811.499 350.578 811.661 350.734C811.827 350.889 811.91 351.077 811.91 351.295C811.91 351.514 811.827 351.701 811.661 351.857C811.499 352.013 811.303 352.091 811.075 352.091ZM816.903 361.159C816.187 361.159 815.57 360.99 815.053 360.652C814.536 360.314 814.138 359.848 813.86 359.255C813.582 358.662 813.442 357.984 813.442 357.222C813.442 356.446 813.585 355.762 813.87 355.168C814.158 354.572 814.559 354.106 815.073 353.771C815.59 353.433 816.193 353.264 816.883 353.264C817.42 353.264 817.904 353.364 818.335 353.562C818.765 353.761 819.118 354.04 819.393 354.398C819.669 354.756 819.839 355.173 819.906 355.651H818.732C818.643 355.303 818.444 354.994 818.136 354.726C817.831 354.454 817.42 354.318 816.903 354.318C816.445 354.318 816.044 354.437 815.7 354.676C815.358 354.911 815.091 355.245 814.899 355.675C814.71 356.103 814.616 356.605 814.616 357.182C814.616 357.772 814.709 358.286 814.894 358.723C815.083 359.161 815.348 359.5 815.69 359.742C816.034 359.984 816.439 360.105 816.903 360.105C817.208 360.105 817.484 360.052 817.733 359.946C817.982 359.84 818.192 359.688 818.364 359.489C818.537 359.29 818.659 359.051 818.732 358.773H819.906C819.839 359.223 819.675 359.629 819.413 359.991C819.155 360.349 818.812 360.634 818.384 360.846C817.96 361.055 817.466 361.159 816.903 361.159ZM824.822 361.159C824.087 361.159 823.452 360.997 822.918 360.672C822.388 360.344 821.979 359.886 821.69 359.3C821.405 358.71 821.263 358.024 821.263 357.241C821.263 356.459 821.405 355.77 821.69 355.173C821.979 354.573 822.38 354.106 822.893 353.771C823.411 353.433 824.014 353.264 824.703 353.264C825.101 353.264 825.494 353.33 825.881 353.463C826.269 353.596 826.622 353.811 826.94 354.109C827.259 354.404 827.512 354.795 827.701 355.283C827.89 355.77 827.984 356.37 827.984 357.082V357.58H822.098V356.565H826.791C826.791 356.134 826.705 355.75 826.533 355.412C826.364 355.074 826.122 354.807 825.807 354.612C825.495 354.416 825.127 354.318 824.703 354.318C824.236 354.318 823.831 354.434 823.49 354.666C823.152 354.895 822.892 355.193 822.71 355.561C822.527 355.929 822.436 356.323 822.436 356.744V357.42C822.436 357.997 822.536 358.486 822.734 358.887C822.937 359.285 823.217 359.588 823.575 359.797C823.933 360.002 824.348 360.105 824.822 360.105C825.131 360.105 825.409 360.062 825.658 359.976C825.91 359.886 826.127 359.754 826.309 359.578C826.491 359.399 826.632 359.177 826.732 358.912L827.865 359.23C827.746 359.615 827.545 359.953 827.263 360.244C826.982 360.533 826.634 360.758 826.219 360.92C825.805 361.08 825.339 361.159 824.822 361.159ZM837.127 361.139C836.471 361.139 835.886 361.027 835.372 360.801C834.862 360.576 834.456 360.263 834.154 359.862C833.856 359.457 833.693 358.988 833.667 358.455H834.92C834.946 358.783 835.059 359.066 835.258 359.305C835.457 359.54 835.717 359.722 836.038 359.852C836.36 359.981 836.716 360.045 837.107 360.045C837.545 360.045 837.933 359.969 838.271 359.817C838.609 359.664 838.874 359.452 839.066 359.18C839.258 358.909 839.354 358.594 839.354 358.236C839.354 357.861 839.262 357.531 839.076 357.246C838.89 356.958 838.619 356.733 838.261 356.57C837.903 356.408 837.465 356.327 836.948 356.327H836.133V355.233H836.948C837.353 355.233 837.707 355.16 838.012 355.014C838.32 354.868 838.561 354.663 838.733 354.398C838.909 354.133 838.996 353.821 838.996 353.463C838.996 353.118 838.92 352.818 838.768 352.563C838.615 352.308 838.4 352.109 838.121 351.967C837.846 351.824 837.522 351.753 837.147 351.753C836.796 351.753 836.464 351.817 836.153 351.947C835.844 352.073 835.593 352.257 835.397 352.499C835.201 352.737 835.095 353.026 835.079 353.364H833.886C833.906 352.83 834.066 352.363 834.368 351.962C834.67 351.557 835.064 351.242 835.551 351.017C836.042 350.792 836.58 350.679 837.167 350.679C837.797 350.679 838.337 350.807 838.788 351.062C839.238 351.314 839.585 351.647 839.827 352.061C840.069 352.475 840.19 352.923 840.19 353.403C840.19 353.977 840.039 354.466 839.737 354.87C839.439 355.274 839.033 355.554 838.519 355.71V355.79C839.162 355.896 839.664 356.169 840.026 356.61C840.387 357.048 840.567 357.589 840.567 358.236C840.567 358.789 840.417 359.286 840.115 359.727C839.817 360.165 839.409 360.509 838.892 360.761C838.375 361.013 837.787 361.139 837.127 361.139Z" fill="black"/>
<rect x="301" y="46" width="138" height="53" fill="white"/>
<rect x="301" y="46" width="138" height="53" stroke="black" stroke-width="2"/>
<path d="M345.744 79.2557C345.053 79.2557 344.426 79.1255 343.862 78.8651C343.299 78.5999 342.851 78.2188 342.52 77.7216C342.188 77.2197 342.023 76.6136 342.023 75.9034C342.023 75.2784 342.146 74.7718 342.392 74.3835C342.638 73.9905 342.967 73.6828 343.379 73.4602C343.791 73.2377 344.246 73.072 344.743 72.9631C345.245 72.8494 345.749 72.7595 346.256 72.6932C346.919 72.608 347.456 72.544 347.868 72.5014C348.285 72.4541 348.588 72.3759 348.777 72.267C348.971 72.1581 349.068 71.9687 349.068 71.6989V71.642C349.068 70.9413 348.876 70.3968 348.493 70.0085C348.114 69.6203 347.539 69.4261 346.767 69.4261C345.967 69.4261 345.339 69.6013 344.885 69.9517C344.43 70.3021 344.111 70.6761 343.926 71.0739L342.335 70.5057C342.619 69.8428 342.998 69.3267 343.472 68.9574C343.95 68.5833 344.471 68.3229 345.034 68.1761C345.602 68.0246 346.161 67.9489 346.71 67.9489C347.061 67.9489 347.463 67.9915 347.918 68.0767C348.377 68.1572 348.82 68.3253 349.246 68.581C349.677 68.8366 350.034 69.2225 350.318 69.7386C350.602 70.2547 350.744 70.946 350.744 71.8125V79H349.068V77.5227H348.983C348.869 77.7595 348.68 78.0128 348.415 78.2827C348.15 78.5526 347.797 78.7822 347.357 78.9716C346.916 79.161 346.379 79.2557 345.744 79.2557ZM346 77.75C346.663 77.75 347.222 77.6198 347.676 77.3594C348.135 77.099 348.481 76.7628 348.713 76.3509C348.95 75.9389 349.068 75.5057 349.068 75.0511V73.517C348.997 73.6023 348.841 73.6804 348.599 73.7514C348.363 73.8177 348.088 73.8769 347.776 73.929C347.468 73.9763 347.167 74.0189 346.874 74.0568C346.585 74.09 346.35 74.1184 346.17 74.142C345.735 74.1989 345.328 74.2912 344.949 74.419C344.575 74.5421 344.272 74.7292 344.04 74.9801C343.813 75.2263 343.699 75.5625 343.699 75.9886C343.699 76.571 343.914 77.0114 344.345 77.3097C344.781 77.6032 345.332 77.75 346 77.75ZM358.207 83.3182C357.397 83.3182 356.701 83.214 356.119 83.0057C355.537 82.8021 355.051 82.5322 354.663 82.196C354.279 81.8646 353.974 81.5095 353.747 81.1307L355.082 80.1932C355.234 80.392 355.425 80.6193 355.657 80.875C355.889 81.1354 356.207 81.3603 356.609 81.5497C357.016 81.7438 357.549 81.8409 358.207 81.8409C359.088 81.8409 359.815 81.6278 360.387 81.2017C360.96 80.7756 361.247 80.108 361.247 79.1989V76.983H361.105C360.982 77.1818 360.806 77.428 360.579 77.7216C360.357 78.0104 360.035 78.2685 359.613 78.4957C359.197 78.7183 358.633 78.8295 357.923 78.8295C357.042 78.8295 356.252 78.6212 355.551 78.2045C354.855 77.7879 354.303 77.1818 353.896 76.3864C353.493 75.5909 353.292 74.625 353.292 73.4886C353.292 72.3712 353.489 71.3982 353.882 70.5696C354.275 69.7363 354.822 69.0923 355.522 68.6378C356.223 68.1785 357.033 67.9489 357.951 67.9489C358.662 67.9489 359.225 68.0672 359.642 68.304C360.063 68.536 360.385 68.8011 360.608 69.0994C360.835 69.393 361.01 69.6345 361.133 69.8239H361.304V68.0909H362.923V79.3125C362.923 80.25 362.71 81.0123 362.284 81.5994C361.862 82.1913 361.294 82.6245 360.579 82.8991C359.869 83.1785 359.078 83.3182 358.207 83.3182ZM358.15 77.3239C358.823 77.3239 359.391 77.17 359.855 76.8622C360.319 76.5545 360.672 76.1117 360.913 75.5341C361.154 74.9564 361.275 74.2652 361.275 73.4602C361.275 72.6742 361.157 71.9806 360.92 71.3793C360.683 70.7779 360.333 70.3068 359.869 69.9659C359.405 69.625 358.832 69.4545 358.15 69.4545C357.44 69.4545 356.848 69.6345 356.375 69.9943C355.906 70.3542 355.553 70.8371 355.316 71.4432C355.084 72.0492 354.968 72.7216 354.968 73.4602C354.968 74.2178 355.087 74.8878 355.324 75.4702C355.565 76.0478 355.92 76.5024 356.389 76.8338C356.862 77.1605 357.449 77.3239 358.15 77.3239ZM370.565 79.2273C369.514 79.2273 368.607 78.9953 367.845 78.5312C367.087 78.0625 366.502 77.4091 366.091 76.571C365.683 75.7282 365.48 74.7481 365.48 73.6307C365.48 72.5133 365.683 71.5284 366.091 70.6761C366.502 69.8191 367.075 69.1515 367.809 68.6733C368.548 68.1903 369.41 67.9489 370.395 67.9489C370.963 67.9489 371.524 68.0436 372.078 68.233C372.632 68.4223 373.136 68.7301 373.591 69.1562C374.045 69.5777 374.407 70.1364 374.677 70.8324C374.947 71.5284 375.082 72.3854 375.082 73.4034V74.1136H366.673V72.6648H373.377C373.377 72.0492 373.254 71.5 373.008 71.017C372.767 70.5341 372.421 70.1529 371.971 69.8736C371.526 69.5942 371.001 69.4545 370.395 69.4545C369.727 69.4545 369.149 69.6203 368.662 69.9517C368.179 70.2784 367.807 70.7045 367.547 71.2301C367.286 71.7557 367.156 72.3191 367.156 72.9205V73.8864C367.156 74.7102 367.298 75.4086 367.582 75.9815C367.871 76.5497 368.271 76.983 368.782 77.2812C369.294 77.5748 369.888 77.7216 370.565 77.7216C371.005 77.7216 371.403 77.66 371.758 77.5369C372.118 77.4091 372.428 77.2197 372.689 76.9688C372.949 76.7131 373.15 76.3958 373.292 76.017L374.912 76.4716C374.741 77.0208 374.455 77.5038 374.052 77.9205C373.65 78.3324 373.153 78.6544 372.561 78.8864C371.969 79.1136 371.304 79.2273 370.565 79.2273ZM379.308 72.4375V79H377.632V68.0909H379.251V69.7955H379.393C379.649 69.2415 380.037 68.7964 380.558 68.4602C381.079 68.1193 381.751 67.9489 382.575 67.9489C383.314 67.9489 383.96 68.1004 384.514 68.4034C385.068 68.7017 385.499 69.1562 385.806 69.767C386.114 70.3731 386.268 71.1402 386.268 72.0682V79H384.592V72.1818C384.592 71.3248 384.369 70.6572 383.924 70.179C383.479 69.696 382.868 69.4545 382.092 69.4545C381.557 69.4545 381.079 69.5705 380.657 69.8026C380.241 70.0346 379.912 70.3731 379.67 70.8182C379.429 71.2633 379.308 71.803 379.308 72.4375ZM394.075 68.0909V69.5114H388.422V68.0909H394.075ZM390.07 65.4773H391.746V75.875C391.746 76.3485 391.814 76.7036 391.952 76.9403C392.094 77.1723 392.274 77.3286 392.491 77.4091C392.714 77.4848 392.948 77.5227 393.195 77.5227C393.379 77.5227 393.531 77.5133 393.649 77.4943C393.768 77.4706 393.862 77.4517 393.933 77.4375L394.274 78.9432C394.161 78.9858 394.002 79.0284 393.798 79.071C393.595 79.1184 393.337 79.142 393.024 79.142C392.551 79.142 392.087 79.0402 391.632 78.8366C391.182 78.633 390.808 78.3229 390.51 77.9062C390.216 77.4896 390.07 76.964 390.07 76.3295V65.4773Z" fill="black"/>
<path d="M373.331 96.728C371.153 94.7451 367.78 94.9033 365.797 97.0814C363.814 99.2595 363.972 102.633 366.15 104.616C368.328 106.599 371.702 106.44 373.684 104.262C375.667 102.084 375.509 98.711 373.331 96.728ZM255.59 226.056C253.412 224.073 250.039 224.231 248.056 226.41C246.073 228.588 246.231 231.961 248.41 233.944C250.588 235.927 253.961 235.769 255.944 233.59C257.927 231.412 257.769 228.039 255.59 226.056ZM369.001 99.9986L367.663 101.468L369.142 102.815L370.48 101.345L369.001 99.9986ZM364.987 104.408L362.311 107.347L363.79 108.693L366.466 105.754L364.987 104.408ZM359.636 110.286L356.96 113.225L358.439 114.572L361.114 111.632L359.636 110.286ZM354.284 116.165L351.608 119.104L353.087 120.45L355.763 117.511L354.284 116.165ZM348.932 122.043L346.256 124.982L347.735 126.329L350.411 123.39L348.932 122.043ZM343.58 127.922L340.904 130.861L342.383 132.207L345.059 129.268L343.58 127.922ZM338.228 133.8L335.552 136.74L337.031 138.086L339.707 135.147L338.228 133.8ZM332.876 139.679L330.2 142.618L331.679 143.965L334.355 141.025L332.876 139.679ZM327.524 145.557L324.848 148.497L326.327 149.843L329.003 146.904L327.524 145.557ZM322.173 151.436L319.497 154.375L320.976 155.722L323.651 152.782L322.173 151.436ZM316.821 157.315L314.145 160.254L315.624 161.6L318.3 158.661L316.821 157.315ZM311.469 163.193L308.793 166.132L310.272 167.479L312.948 164.539L311.469 163.193ZM306.117 169.072L303.441 172.011L304.92 173.357L307.596 170.418L306.117 169.072ZM300.765 174.95L298.089 177.889L299.568 179.236L302.244 176.297L300.765 174.95ZM295.413 180.829L292.737 183.768L294.216 185.114L296.892 182.175L295.413 180.829ZM290.061 186.707L287.386 189.647L288.864 190.993L291.54 188.054L290.061 186.707ZM284.71 192.586L282.034 195.525L283.513 196.872L286.189 193.932L284.71 192.586ZM279.358 198.464L276.682 201.404L278.161 202.75L280.837 199.811L279.358 198.464ZM274.006 204.343L271.33 207.282L272.809 208.629L275.485 205.689L274.006 204.343ZM268.654 210.222L265.978 213.161L267.457 214.507L270.133 211.568L268.654 210.222ZM263.302 216.1L260.626 219.039L262.105 220.386L264.781 217.446L263.302 216.1ZM257.95 221.979L255.274 224.918L256.753 226.264L259.429 223.325L257.95 221.979ZM252.598 227.857L251.261 229.327L252.739 230.673L254.077 229.204L252.598 227.857Z" fill="black"/>
</svg>
