<?xml version="1.0" encoding="UTF-8"?>
<svg xmlns="http://www.w3.org/2000/svg" xmlns:xlink="http://www.w3.org/1999/xlink" width="16px" height="16px" viewBox="0 0 16 16" version="1.1">
<g id="surface1">
<path style=" stroke:none;fill-rule:nonzero;fill:rgb(0%,0%,0%);fill-opacity:1;" d="M 2.910156 2.992188 C 2.886719 3.058594 3.597656 4.105469 4.605469 5.488281 C 5.566406 6.808594 6.351562 7.933594 6.351562 8 C 6.351562 8.066406 5.566406 9.191406 4.605469 10.503906 C 3.03125 12.671875 2.761719 13.121094 3.03125 13.121094 C 3.113281 13.121094 3.535156 12.863281 6.105469 11.246094 L 8 10.066406 L 8.503906 10.375 C 8.777344 10.550781 9.304688 10.886719 9.679688 11.121094 C 10.320312 11.527344 10.65625 11.738281 12.253906 12.71875 C 12.855469 13.097656 13.121094 13.167969 13.121094 12.960938 C 13.121094 12.917969 12.335938 11.808594 11.382812 10.503906 C 10.433594 9.191406 9.648438 8.066406 9.648438 8 C 9.648438 7.894531 11.238281 5.65625 12.6875 3.703125 C 13.558594 2.535156 13.269531 2.625 10.441406 4.402344 L 7.992188 5.925781 L 7.496094 5.617188 C 7.222656 5.449219 6.550781 5.023438 6 4.679688 C 5.449219 4.335938 4.808594 3.933594 4.574219 3.785156 C 3.710938 3.230469 3.113281 2.878906 3.039062 2.878906 C 2.992188 2.878906 2.933594 2.925781 2.910156 2.992188 Z M 5.597656 4.800781 C 5.976562 5.03125 6.574219 5.417969 6.941406 5.648438 C 7.3125 5.878906 7.648438 6.082031 7.703125 6.105469 C 7.769531 6.121094 7.695312 6.261719 7.519531 6.503906 C 7.367188 6.703125 7.113281 7.046875 6.960938 7.269531 C 6.808594 7.488281 6.65625 7.671875 6.632812 7.679688 C 6.589844 7.679688 3.746094 3.808594 3.695312 3.671875 C 3.664062 3.597656 4.082031 3.847656 5.597656 4.800781 Z M 12.160156 3.894531 C 12.066406 4.015625 11.410156 4.910156 10.710938 5.878906 C 10.007812 6.847656 9.410156 7.648438 9.375 7.65625 C 9.28125 7.6875 8.199219 6.136719 8.296875 6.105469 C 8.375 6.074219 9.230469 5.535156 11.359375 4.191406 C 11.863281 3.871094 12.289062 3.625 12.304688 3.640625 C 12.328125 3.65625 12.253906 3.777344 12.160156 3.894531 Z M 7.839844 8.015625 L 7.839844 9.394531 L 7.359375 8.738281 C 7.097656 8.375 6.878906 8.046875 6.878906 8.007812 C 6.878906 7.933594 7.769531 6.640625 7.816406 6.640625 C 7.832031 6.640625 7.839844 7.253906 7.839844 8.015625 Z M 9.121094 8 C 9.121094 8.046875 8.902344 8.375 8.640625 8.738281 L 8.160156 9.394531 L 8.160156 6.605469 L 8.640625 7.261719 C 8.902344 7.625 9.121094 7.953125 9.121094 8 Z M 7.199219 9.046875 C 7.488281 9.449219 7.710938 9.792969 7.710938 9.824219 C 7.695312 9.886719 3.738281 12.382812 3.695312 12.351562 C 3.65625 12.328125 6.582031 8.320312 6.632812 8.320312 C 6.65625 8.328125 6.910156 8.648438 7.199219 9.046875 Z M 10.847656 10.289062 C 11.632812 11.375 12.289062 12.296875 12.304688 12.328125 C 12.335938 12.417969 11.359375 11.816406 8.933594 10.28125 L 8.238281 9.832031 L 8.535156 9.417969 C 8.703125 9.183594 8.953125 8.847656 9.082031 8.65625 C 9.214844 8.472656 9.34375 8.320312 9.367188 8.320312 C 9.394531 8.320312 10.058594 9.207031 10.847656 10.289062 Z M 10.847656 10.289062 "/>
</g>
</svg>
