<?xml version="1.0" encoding="UTF-8" standalone="no"?>
<!DOCTYPE svg PUBLIC "-//W3C//DTD SVG 1.1//EN" "http://www.w3.org/Graphics/SVG/1.1/DTD/svg11.dtd">
<svg width="100%" height="100%" viewBox="0 0 1920 1080" version="1.1" xmlns="http://www.w3.org/2000/svg" xmlns:xlink="http://www.w3.org/1999/xlink" xml:space="preserve" xmlns:serif="http://www.serif.com/" style="fill-rule:evenodd;clip-rule:evenodd;stroke-linecap:square;stroke-linejoin:bevel;stroke-miterlimit:10;">
    <g transform="matrix(1,0,0,1.02273,0,-22.5)">
        <rect x="0" y="22" width="1920" height="1056" style="fill:rgb(29,31,32);"/>
    </g>
    <g transform="matrix(0.522158,0,0,0.522158,-167.976,-780.899)">
        <g id="a" transform="matrix(9.26867,6.09017e-16,6.09017e-16,9.26867,-118510,-993.723)">
            <path d="M13034.6,497.778L12821.4,270.222" style="fill:none;stroke:rgb(150,37,79);stroke-width:2.89px;"/>
        </g>
        <g id="a1" serif:id="a" transform="matrix(8.77035,5.01846e-16,0,8.77035,-112216,-874.42)">
            <path d="M12821.4,497.778L13034.6,270.222" style="fill:none;stroke:rgb(150,37,79);stroke-width:3.06px;"/>
        </g>
        <g transform="matrix(77.845,26.3255,6.67696,-17.1992,-413.07,1685.94)">
            <path d="M-2.004,-11.414L65.004,-11.414" style="fill:none;fill-rule:nonzero;stroke:rgb(105,12,45);stroke-width:0.45px;stroke-linejoin:miter;"/>
        </g>
        <g transform="matrix(-33.0691,11.1832,5.67069,14.6071,-514.286,3228.27)">
            <path d="M-65.004,-11.414L2.004,-11.414" style="fill:none;fill-rule:nonzero;stroke:rgb(150,37,79);stroke-width:1.01px;stroke-linejoin:miter;"/>
        </g>
        <g transform="matrix(-13.9909,4.7314,5.06936,13.0581,824.726,2755.44)">
            <path d="M-65.004,-11.414L2.004,-11.414" style="fill:none;fill-rule:nonzero;stroke:white;stroke-width:1.91px;stroke-linecap:butt;stroke-linejoin:miter;"/>
        </g>
        <g transform="matrix(13.9909,4.7314,5.06936,-13.0581,824.726,2158.25)">
            <path d="M-2.004,-11.414L65.004,-11.414" style="fill:none;fill-rule:nonzero;stroke:white;stroke-width:1.82px;stroke-linecap:butt;stroke-linejoin:miter;"/>
        </g>
        <g id="a2" serif:id="a" transform="matrix(4.39453,0,0,4.39453,-55604.9,762.5)">
            <path d="M12821.4,497.778L13034.6,270.222L13034.6,497.778L12821.4,270.222L12821.4,497.778Z" style="fill:none;stroke:white;stroke-width:6.1px;stroke-linecap:butt;"/>
        </g>
    </g>
</svg>
