<?xml version="1.0" encoding="UTF-8" standalone="no"?>
<!DOCTYPE svg PUBLIC "-//W3C//DTD SVG 1.1//EN" "http://www.w3.org/Graphics/SVG/1.1/DTD/svg11.dtd">
<svg width="100%" height="100%" viewBox="0 0 1920 1080" version="1.1" xmlns="http://www.w3.org/2000/svg" xmlns:xlink="http://www.w3.org/1999/xlink" xml:space="preserve" xmlns:serif="http://www.serif.com/" style="fill-rule:evenodd;clip-rule:evenodd;stroke-linecap:square;stroke-linejoin:bevel;stroke-miterlimit:10;">
    <g transform="matrix(1,0,0,1.02273,0,-22.5)">
        <rect x="0" y="22" width="1920" height="1056" style="fill:rgb(29,31,32);"/>
    </g>
    <g transform="matrix(0.790305,0,0,0.790305,-345.743,-31.9096)">
        <g transform="matrix(0.0187496,-9.38629,-9.38633,-0.0187495,1281.03,831.591)">
            <path d="M-20.734,20.775L20.817,20.775" style="fill:none;fill-rule:nonzero;stroke:rgb(20,117,79);stroke-width:1.89px;"/>
        </g>
        <g transform="matrix(33.294,12.697,12.697,-33.2938,-67.4999,-90.0942)">
            <path d="M-1.265,-6.864L37.183,-6.65" style="fill:none;fill-rule:nonzero;stroke:rgb(20,117,79);stroke-width:0.5px;"/>
        </g>
        <g transform="matrix(0,-25.2062,-25.2063,-1.62456e-17,1612.99,876.572)">
            <path d="M-20.891,20.891L20.891,20.891" style="fill:none;fill-rule:nonzero;stroke:rgb(20,117,79);stroke-width:0.7px;"/>
        </g>
        <g transform="matrix(-33.3641,12.5115,12.5115,33.364,-71.4683,1463.32)">
            <path d="M-37.224,-6.75L1.224,-6.75" style="fill:none;fill-rule:nonzero;stroke:rgb(20,117,79);stroke-width:0.5px;"/>
        </g>
        <g transform="matrix(32.0293,0,2.38759e-17,32.0292,1400.71,479.192)">
            <path d="M0.083,-0.319L-35.792,-13.819" style="fill:none;fill-rule:nonzero;stroke:rgb(20,117,79);stroke-width:0.55px;"/>
        </g>
        <g transform="matrix(35.5421,0,2.11645e-17,35.5419,2359.32,841.154)">
            <path d="M-35.792,-13.819L-35.875,-13.819L-71.917,-0.319" style="fill:none;fill-rule:nonzero;stroke:rgb(20,117,79);stroke-width:0.5px;"/>
        </g>
        <g transform="matrix(9.38635,-6.37926e-18,0,9.38631,1423.15,479.709)">
            <path d="M-71.917,-0.319L-71.833,44.681L-35.959,58.181L0.083,44.681L0.083,-0.319" style="fill:none;fill-rule:nonzero;stroke:rgb(20,117,79);stroke-width:1.89px;"/>
        </g>
        <g transform="matrix(-12.2326,19.9011,19.9012,12.2326,1220.47,1435.47)">
            <path d="M-52.313,-29.25L16.355,-29.25" style="fill:none;fill-rule:nonzero;stroke:rgb(20,117,79);stroke-width:0.76px;"/>
        </g>
        <g transform="matrix(-12.3442,20.1126,20.1127,12.3441,1646.04,1432.17)">
            <path d="M-52.123,-29.057L16.392,-29.294" style="fill:none;fill-rule:nonzero;stroke:rgb(20,117,79);stroke-width:0.75px;"/>
        </g>
        <g transform="matrix(26.4861,0,0,26.486,1202.31,402.591)">
            <path d="M0.083,-0.319L-35.792,-13.819" style="fill:none;fill-rule:nonzero;stroke:rgb(20,117,79);stroke-width:0.67px;"/>
        </g>
        <g transform="matrix(33.3564,0,0,33.3562,2202.13,840.457)">
            <path d="M-35.792,-13.819L-35.875,-13.819L-71.917,-0.319" style="fill:none;fill-rule:nonzero;stroke:rgb(20,117,79);stroke-width:0.53px;"/>
        </g>
        <g transform="matrix(63.6974,0,0,63.6971,4378.82,-2302.82)">
            <path d="M-71.833,44.681L-35.959,58.181" style="fill:none;fill-rule:nonzero;stroke:rgb(20,117,79);stroke-width:0.28px;"/>
        </g>
        <g transform="matrix(30.5512,0,0,30.5511,1176.82,-374.352)">
            <path d="M-35.959,58.181L0.083,44.681" style="fill:none;fill-rule:nonzero;stroke:rgb(20,117,79);stroke-width:0.58px;"/>
        </g>
        <g transform="matrix(30.368,0,0,30.3679,1421.41,46.266)">
            <path d="M0.083,44.681L0.083,-0.319" style="fill:none;fill-rule:nonzero;stroke:rgb(20,117,79);stroke-width:0.58px;"/>
        </g>
        <g transform="matrix(0.0187496,-9.38629,-9.38633,-0.0187495,1281.03,831.591)">
            <path d="M-20.734,20.775L20.817,20.775" style="fill:none;fill-rule:nonzero;stroke:white;stroke-width:1.89px;stroke-linecap:butt;"/>
        </g>
        <g transform="matrix(8.77023,3.34461,3.34463,-8.7702,782.166,420.744)">
            <path d="M-1.265,-6.864L37.183,-6.65" style="fill:none;fill-rule:nonzero;stroke:white;stroke-width:1.89px;stroke-linecap:butt;"/>
        </g>
        <g transform="matrix(0,-9.38631,-9.38635,0,1282.5,546.086)">
            <path d="M-20.891,20.891L20.891,20.891" style="fill:none;fill-rule:nonzero;stroke:white;stroke-width:1.89px;stroke-linecap:butt;"/>
        </g>
        <g transform="matrix(8.78754,3.29889,3.2989,-8.7875,1119.06,717.113)">
            <path d="M-1.225,-6.75L37.223,-6.736" style="fill:none;fill-rule:nonzero;stroke:white;stroke-width:1.89px;stroke-linecap:butt;"/>
        </g>
        <g transform="matrix(-8.76024,3.37071,3.37073,8.7602,1120.56,659.642)">
            <path d="M-37.163,-6.582L1.283,-6.91" style="fill:none;fill-rule:nonzero;stroke:white;stroke-width:1.89px;stroke-linecap:butt;"/>
        </g>
        <g transform="matrix(-8.78871,3.29575,3.29577,8.78868,781.121,954.391)">
            <path d="M-37.224,-6.75L1.224,-6.75" style="fill:none;fill-rule:nonzero;stroke:white;stroke-width:1.89px;stroke-linecap:butt;"/>
        </g>
        <g transform="matrix(-4.9152,7.99649,7.99652,4.91518,1062.4,912.095)">
            <path d="M-52.313,-29.25L16.355,-29.25" style="fill:none;fill-rule:nonzero;stroke:white;stroke-width:1.89px;stroke-linecap:butt;"/>
        </g>
        <g transform="matrix(-4.90987,7.99976,7.99979,4.90985,1400.47,1036.36)">
            <path d="M-52.123,-29.057L16.392,-29.294" style="fill:none;fill-rule:nonzero;stroke:white;stroke-width:1.89px;stroke-linecap:butt;"/>
        </g>
        <g transform="matrix(9.38635,0,0,9.38631,1423.15,479.709)">
            <path d="M0.083,44.681L0.083,-0.319L-35.792,-13.819L-35.875,-13.819L-71.917,-0.319L-71.833,44.681L-35.959,58.181L0.083,44.681Z" style="fill:none;fill-rule:nonzero;stroke:white;stroke-width:1.89px;stroke-linecap:butt;"/>
        </g>
    </g>
</svg>
