<?xml version="1.0" encoding="UTF-8" standalone="no"?><!DOCTYPE svg PUBLIC "-//W3C//DTD SVG 1.1//EN"
  "http://www.w3.org/Graphics/SVG/1.1/DTD/svg11.dtd">
<svg width="100%" height="100%" viewBox="0 0 1024 1024" version="1.1" xmlns="http://www.w3.org/2000/svg"
     xmlns:xlink="http://www.w3.org/1999/xlink" xml:space="preserve" xmlns:serif="http://www.serif.com/"
     style="fill-rule:evenodd;clip-rule:evenodd;stroke-linejoin:round;stroke-miterlimit:2;">
  <g transform="matrix(1.10931,0,0,1.10931,-82.3165,-44.3193)"><path d="M629.499,392.807L552.936,287.544L833.657,112.096L629.499,392.807ZM833.657,714.096L552.936,538.658L629.499,433.385L833.657,714.096ZM442.011,433.385L518.574,538.658L237.853,714.096L442.011,433.385ZM237.853,112.096L518.574,287.544L442.011,392.807L237.853,112.096ZM547.714,320.932L614.748,413.096L547.714,505.26L547.714,320.932ZM523.844,505.317L456.772,413.096L523.844,320.875L523.844,505.317ZM873.146,59.259L535.76,270.129L198.364,59.259L182.391,76.397L427.26,413.096L182.391,749.795L198.364,766.933L535.76,556.063L873.146,766.933L889.119,749.795L644.25,413.096L889.119,76.397L873.146,59.259Z" style="fill:white;fill-rule:nonzero;"/></g>
</svg>
