<?xml version="1.0" encoding="UTF-8" standalone="no"?><!DOCTYPE svg PUBLIC "-//W3C//DTD SVG 1.1//EN" "http://www.w3.org/Graphics/SVG/1.1/DTD/svg11.dtd"><svg width="100%" height="100%" viewBox="0 0 1067 1067" version="1.1" xmlns="http://www.w3.org/2000/svg" xmlns:xlink="http://www.w3.org/1999/xlink" xml:space="preserve" xmlns:serif="http://www.serif.com/" style="fill-rule:evenodd;clip-rule:evenodd;stroke-linejoin:round;stroke-miterlimit:2;"><rect id="icon-dxos" x="0" y="0" width="1066.67" height="1066.67" style="fill:none;"/><path d="M533.333,355.556l11.794,-8.578l474.074,651.852l-19.523,20.944l-466.345,-291.466l-466.345,291.466l-19.523,-20.944l474.074,-651.852l11.794,8.578Zm418.085,599.661l-418.085,-574.867l-418.085,574.867l410.356,-256.473l15.458,0l410.356,256.473Z"/><path d="M533.333,338.358l466.345,-291.465l19.523,20.944l-474.074,651.852l-11.794,-8.578l-11.794,8.578l-474.074,-651.852l19.523,-20.944l466.345,291.465Zm-418.085,-226.908l418.085,574.867l418.085,-574.867l-410.356,256.472l-15.458,0l-410.356,-256.472Z"/><path d="M518.776,355.556l0,355.555l29.167,0l0,-355.555l-29.167,0Z"/></svg>