<?xml version="1.0" standalone="no"?>
<!DOCTYPE svg PUBLIC "-//W3C//DTD SVG 20010904//EN"
 "http://www.w3.org/TR/2001/REC-SVG-20010904/DTD/svg10.dtd">
<svg version="1.0" xmlns="http://www.w3.org/2000/svg"
 width="200.000000pt" height="200.000000pt" viewBox="0 0 200.000000 200.000000"
 preserveAspectRatio="xMidYMid meet">

<g transform="translate(0.000000,200.000000) scale(0.100000,-0.100000)"
fill="#000000" stroke="none">
<path d="M364 1626 c-3 -8 86 -139 212 -312 120 -165 218 -306 218 -314 0 -8
-98 -149 -218 -313 -197 -271 -231 -327 -197 -327 10 0 63 32 384 234 l237
148 63 -39 c34 -22 100 -64 147 -93 80 -51 122 -77 322 -200 75 -47 108 -56
108 -30 0 5 -98 144 -217 307 -119 164 -217 305 -217 313 0 13 199 293 380
537 109 146 73 135 -281 -87 l-306 -191 -62 39 c-34 21 -118 74 -187 117 -69
43 -149 93 -178 112 -108 69 -183 113 -192 113 -6 0 -13 -6 -16 -14z m336
-226 c47 -29 122 -77 168 -106 46 -29 88 -54 95 -57 8 -2 -1 -20 -23 -50 -19
-25 -51 -68 -70 -96 -19 -27 -38 -50 -41 -51 -5 0 -361 484 -367 501 -4 9 48
-22 238 -141z m820 113 c-12 -15 -94 -127 -181 -248 -88 -121 -163 -221 -167
-222 -12 -4 -147 190 -135 194 10 4 117 71 383 239 63 40 116 71 118 69 3 -2
-6 -17 -18 -32z m-540 -515 l0 -172 -60 82 c-33 45 -60 86 -60 91 0 9 111 171
117 171 2 0 3 -77 3 -172z m160 2 c0 -6 -27 -47 -60 -92 l-60 -82 0 174 0 174
60 -82 c33 -45 60 -86 60 -92z m-240 -131 c36 -50 64 -93 64 -97 -2 -8 -497
-320 -502 -316 -5 3 361 504 367 504 3 -1 35 -41 71 -91z m456 -155 c98 -136
180 -251 182 -255 4 -11 -118 64 -421 256 l-87 56 37 52 c21 29 52 71 68 95
17 23 33 42 36 42 3 0 86 -111 185 -246z"/>
</g>
</svg>
