<?xml version="1.0" encoding="UTF-8" standalone="no"?>
<!DOCTYPE svg PUBLIC "-//W3C//DTD SVG 1.1//EN" "http://www.w3.org/Graphics/SVG/1.1/DTD/svg11.dtd">
<svg width="100%" height="100%" viewBox="0 0 736 748" version="1.1" xmlns="http://www.w3.org/2000/svg" xmlns:xlink="http://www.w3.org/1999/xlink" xml:space="preserve" xmlns:serif="http://www.serif.com/" style="fill-rule:evenodd;clip-rule:evenodd;stroke-linecap:round;stroke-linejoin:round;stroke-miterlimit:1.5;">
    <g transform="matrix(1,0,0,1,-352.867,-955.405)">
        <g transform="matrix(1.25783,0,0,1.94507,1433.9,-357.385)">
            <g transform="matrix(1.6695,0,0,0.830461,211.111,826.48)">
                <g>
                    <g transform="matrix(0.476204,0,0,0.619079,-808.867,-400.402)">
                        <path d="M468,504L468,576" style="fill:none;stroke:rgb(106,203,243);stroke-width:16px;"/>
                    </g>
                    <g transform="matrix(0.476204,0,0,0.619079,-774.58,-222.107)">
                        <path d="M468,504L468,576" style="fill:none;stroke:rgb(106,203,243);stroke-width:16px;"/>
                    </g>
                    <g transform="matrix(0.476204,0,0,0.619079,-603.147,-222.107)">
                        <path d="M468,504L468,576" style="fill:none;stroke:rgb(106,203,243);stroke-width:16px;"/>
                    </g>
                    <g transform="matrix(0.476204,0,0,0.619079,-877.44,-623.27)">
                        <path d="M612,1080L576,1080" style="fill:none;stroke:rgb(106,203,243);stroke-width:16px;"/>
                    </g>
                    <g transform="matrix(0.476204,0,0,0.619079,-620.29,-623.27)">
                        <path d="M612,1080L576,1080" style="fill:none;stroke:rgb(106,203,243);stroke-width:16px;"/>
                    </g>
                    <g transform="matrix(0.476204,0,0,0.722259,-774.58,-184.962)">
                        <path d="M468,504L468,576" style="fill:none;stroke:rgb(106,203,243);stroke-width:14.73px;"/>
                    </g>
                    <g transform="matrix(0.476204,0,0,0.722259,-603.147,-184.962)">
                        <path d="M468,504L468,576" style="fill:none;stroke:rgb(106,203,243);stroke-width:14.73px;"/>
                    </g>
                    <g transform="matrix(0.476204,0,0,0.619079,-808.867,-400.402)">
                        <path d="M978.513,504L978.513,576" style="fill:none;stroke:rgb(106,203,243);stroke-width:16px;"/>
                    </g>
                    <g transform="matrix(0.476204,0,0,0.619079,-808.867,-400.402)">
                        <path d="M978.513,648L936,648" style="fill:none;stroke:rgb(106,203,243);stroke-width:16px;"/>
                    </g>
                    <g transform="matrix(0.476204,0,0,0.619079,-808.867,-400.402)">
                        <path d="M468,648L504,648" style="fill:none;stroke:rgb(106,203,243);stroke-width:16px;"/>
                    </g>
                    <g transform="matrix(0.476204,0,0,0.431916,-808.867,-274.973)">
                        <path d="M720,432L720,690" style="fill:none;stroke:rgb(106,203,243);stroke-width:18.56px;"/>
                    </g>
                    <g transform="matrix(0.476204,0,0,0.619079,-688.863,-355.828)">
                        <path d="M216,432C176.235,432 144,464.235 144,504C144,543.765 176.235,576 216,576C176.235,576 144,543.765 144,504C144,464.235 176.235,432 216,432Z" style="fill:none;stroke:rgb(106,203,243);stroke-width:16px;"/>
                    </g>
                    <g transform="matrix(0.476204,0,0,0.619079,-620.29,-80.9568)">
                        <path d="M144,504C144,543.765 176.236,576 216,576C255.765,576 288,543.765 288,504C288,543.765 255.765,576 216,576C176.236,576 144,543.765 144,504Z" style="fill:none;stroke:rgb(106,203,243);stroke-width:16px;"/>
                    </g>
                    <g transform="matrix(0.476204,0,0,0.619079,-517.43,-80.9568)">
                        <path d="M144,504C144,543.765 176.236,576 216,576C255.765,576 288,543.765 288,504C288,543.765 255.765,576 216,576C176.236,576 144,543.765 144,504Z" style="fill:none;stroke:rgb(106,203,243);stroke-width:16px;"/>
                    </g>
                    <g transform="matrix(0.238102,5.41538e-18,-4.85985e-18,-0.30954,-517.43,201.343)">
                        <path d="M144,504C144,543.765 176.236,576 216,576C255.765,576 288,543.765 288,504C288,543.765 255.765,576 216,576C176.236,576 144,543.765 144,504Z" style="fill:none;stroke:rgb(106,203,243);stroke-width:32px;"/>
                    </g>
                    <g transform="matrix(0.238102,5.41538e-18,-4.85985e-18,-0.30954,-568.86,0.761612)">
                        <path d="M144,504C144,543.765 176.236,576 216,576C255.765,576 288,543.765 288,504C288,543.765 255.765,576 216,576C176.236,576 144,543.765 144,504Z" style="fill:none;stroke:rgb(106,203,243);stroke-width:32px;"/>
                    </g>
                    <g transform="matrix(0.238102,5.41538e-18,-4.85985e-18,-0.30954,-466,0.761612)">
                        <path d="M144,504C144,543.765 176.236,576 216,576C255.765,576 288,543.765 288,504C288,543.765 255.765,576 216,576C176.236,576 144,543.765 144,504Z" style="fill:none;stroke:rgb(106,203,243);stroke-width:32px;"/>
                    </g>
                    <g transform="matrix(0.476204,0,0,0.619079,-517.43,-80.9568)">
                        <path d="M144,504C144,543.765 176.236,576 216,576C255.765,576 288,543.765 288,504C288,543.765 255.765,576 216,576C176.236,576 144,543.765 144,504Z" style="fill:none;stroke:rgb(106,203,243);stroke-width:16px;"/>
                    </g>
                    <g transform="matrix(-0.476204,0,0,0.619079,-240.035,-355.828)">
                        <path d="M216,432C176.235,432 144,464.235 144,504C144,543.765 176.235,576 216,576C176.235,576 144,543.765 144,504C144,464.235 176.235,432 216,432Z" style="fill:none;stroke:rgb(106,203,243);stroke-width:16px;"/>
                    </g>
                    <g transform="matrix(-0.714306,0,0,0.928619,-240.035,-556.41)">
                        <path d="M216,432C176.235,432 144,464.236 144,504C144,464.236 176.235,432 216,432Z" style="fill:none;stroke:rgb(106,203,243);stroke-width:10.67px;"/>
                    </g>
                    <g transform="matrix(-0.714306,0,0,0.928619,-240.035,-556.41)">
                        <path d="M216,432C176.235,432 144,464.236 144,504C144,464.236 176.235,432 216,432Z" style="fill:none;stroke:rgb(106,203,243);stroke-width:10.67px;"/>
                    </g>
                    <g transform="matrix(-0.476204,0,0,0.619079,-483.143,-222.107)">
                        <path d="M216,432C176.235,432 144,464.236 144,504C144,464.236 176.235,432 216,432Z" style="fill:none;stroke:rgb(106,203,243);stroke-width:16px;"/>
                    </g>
                    <g transform="matrix(0.476204,0,0,0.619079,-448.857,-222.107)">
                        <path d="M216,432C176.235,432 144,464.236 144,504C144,464.236 176.235,432 216,432Z" style="fill:none;stroke:rgb(106,203,243);stroke-width:16px;"/>
                    </g>
                    <g transform="matrix(-0.952408,-8.51051e-24,-6.5464e-24,-1.23816,-174.563,765.944)">
                        <path d="M216,432C176.235,432 144,464.236 144,504C144,464.236 176.235,432 216,432Z" style="fill:none;stroke:rgb(106,203,243);stroke-width:8px;"/>
                    </g>
                    <g transform="matrix(0.952408,-8.51051e-24,6.5464e-24,-1.23816,-757.437,765.944)">
                        <path d="M216,432C176.235,432 144,464.236 144,504C144,464.236 176.235,432 216,432Z" style="fill:none;stroke:rgb(106,203,243);stroke-width:8px;"/>
                    </g>
                    <g transform="matrix(0.714306,0,0,0.928619,-688.863,-556.41)">
                        <path d="M216,432C176.235,432 144,464.236 144,504C144,464.236 176.235,432 216,432Z" style="fill:none;stroke:rgb(106,203,243);stroke-width:10.67px;"/>
                    </g>
                    <g transform="matrix(0.476204,0,0,0.619079,-808.867,-400.402)">
                        <path d="M612,984L612,612L648,576L648,396" style="fill:none;stroke:rgb(106,203,243);stroke-width:16px;"/>
                    </g>
                    <g transform="matrix(-0.476204,0,0,0.619079,-123.133,-400.402)">
                        <path d="M612,984L612,612L648,576L648,396" style="fill:none;stroke:rgb(106,203,243);stroke-width:16px;"/>
                    </g>
                    <g transform="matrix(0.476204,-1.2219e-16,-9.39898e-17,0.464309,-808.867,-339.113)">
                        <path d="M576,540L576,396" style="fill:none;stroke:rgb(106,203,243);stroke-width:18.1px;"/>
                    </g>
                    <g transform="matrix(0.476204,0,0,0.464309,-808.867,-339.113)">
                        <path d="M864,540L864,396" style="fill:none;stroke:rgb(106,203,243);stroke-width:18.1px;"/>
                    </g>
                    <g transform="matrix(0.476204,0,0,0.619079,-808.867,-400.402)">
                        <path d="M684,720L684,1020" style="fill:none;stroke:rgb(106,203,243);stroke-width:16px;"/>
                    </g>
                    <g transform="matrix(0.476204,0,0,0.619079,-808.867,-400.402)">
                        <path d="M756,720L756,1020" style="fill:none;stroke:rgb(106,203,243);stroke-width:16px;"/>
                    </g>
                </g>
                <g>
                    <g transform="matrix(0.357153,0,0,0.464309,-723.15,-311.254)">
                        <circle cx="720" cy="432" r="48" style="fill:none;stroke:rgb(242,94,13);stroke-width:21.33px;"/>
                    </g>
                    <g transform="matrix(0.357153,0,0,0.464309,-791.723,-266.681)">
                        <circle cx="720" cy="432" r="48" style="fill:none;stroke:rgb(242,94,13);stroke-width:21.33px;"/>
                    </g>
                    <g transform="matrix(0.357153,0,0,0.464309,-654.577,-266.681)">
                        <circle cx="720" cy="432" r="48" style="fill:none;stroke:rgb(242,94,13);stroke-width:21.33px;"/>
                    </g>
                    <g transform="matrix(0.357153,0,0,0.464309,-808.867,-199.82)">
                        <circle cx="720" cy="432" r="48" style="fill:none;stroke:rgb(242,94,13);stroke-width:21.33px;"/>
                    </g>
                    <g transform="matrix(0.357153,0,0,0.464309,-637.433,-199.82)">
                        <circle cx="720" cy="432" r="48" style="fill:none;stroke:rgb(242,94,13);stroke-width:21.33px;"/>
                    </g>
                    <g transform="matrix(0.357153,0,0,0.464309,-877.44,-155.246)">
                        <circle cx="720" cy="432" r="48" style="fill:none;stroke:rgb(242,94,13);stroke-width:21.33px;"/>
                    </g>
                    <g transform="matrix(0.357153,0,0,0.464309,-877.44,-80.9568)">
                        <circle cx="720" cy="432" r="48" style="fill:none;stroke:rgb(242,94,13);stroke-width:21.33px;"/>
                    </g>
                    <g transform="matrix(0.357153,0,0,0.464309,-568.86,-80.9568)">
                        <circle cx="720" cy="432" r="48" style="fill:none;stroke:rgb(242,94,13);stroke-width:21.33px;"/>
                    </g>
                    <g transform="matrix(0.357153,0,0,0.464309,-568.86,-155.246)">
                        <circle cx="720" cy="432" r="48" style="fill:none;stroke:rgb(242,94,13);stroke-width:21.33px;"/>
                    </g>
                    <g transform="matrix(0.357153,0,0,0.464309,-637.433,-43.8121)">
                        <circle cx="720" cy="432" r="48" style="fill:none;stroke:rgb(242,94,13);stroke-width:21.33px;"/>
                    </g>
                    <g transform="matrix(0.357153,0,0,0.464309,-671.72,30.4774)">
                        <circle cx="720" cy="432" r="48" style="fill:none;stroke:rgb(242,94,13);stroke-width:21.33px;"/>
                    </g>
                    <g transform="matrix(0.357153,0,0,0.464309,-774.58,30.4774)">
                        <circle cx="720" cy="432" r="48" style="fill:none;stroke:rgb(242,94,13);stroke-width:21.33px;"/>
                    </g>
                    <g transform="matrix(0.357153,0,0,0.464309,-808.867,-43.8121)">
                        <circle cx="720" cy="432" r="48" style="fill:none;stroke:rgb(242,94,13);stroke-width:21.33px;"/>
                    </g>
                </g>
            </g>
        </g>
    </g>
</svg>
