<?xml version="1.0" encoding="UTF-8" standalone="no"?>
<!DOCTYPE svg PUBLIC "-//W3C//DTD SVG 1.1//EN" "http://www.w3.org/Graphics/SVG/1.1/DTD/svg11.dtd">
<svg width="100%" height="100%" viewBox="0 0 1151 299" version="1.1" xmlns="http://www.w3.org/2000/svg" xmlns:xlink="http://www.w3.org/1999/xlink" xml:space="preserve" xmlns:serif="http://www.serif.com/" style="fill-rule:evenodd;clip-rule:evenodd;stroke-linejoin:round;stroke-miterlimit:2;">
    <g transform="matrix(1,0,0,1,-288.531,-204)">
        <g transform="matrix(2.11717,0,0,3.03592,2083.3,-1785.12)">
            <g transform="matrix(0.450469,0,0,0.314145,-1079.96,596.043)">
                <path d="M624.219,500.396C596.99,500.396 576.826,494.552 563.725,482.865C550.625,471.177 544.075,453.003 544.075,428.343L544.075,355.905L515.562,355.905L515.562,292.329L543.689,292.329L543.689,246.863L629.999,246.863L629.999,292.329L673.924,292.329L673.924,355.905L629.999,355.905L629.999,409.849C629.999,419.61 632.118,426.224 636.356,429.692C640.595,433.16 646.438,434.894 653.888,434.894C656.713,434.894 659.667,434.637 662.75,434.123C665.832,433.609 668.273,433.096 670.071,432.582L670.071,493.461C665.447,495.516 658.961,497.185 650.613,498.47C642.264,499.754 633.466,500.396 624.219,500.396Z" style="fill:rgb(106,203,243);fill-rule:nonzero;"/>
                <path d="M843.46,286.935C857.588,286.935 869.34,289.504 878.715,294.641C888.091,299.779 895.54,306.393 901.063,314.485C906.586,322.576 910.439,331.631 912.623,341.649C914.806,351.667 915.898,361.685 915.898,371.703L915.898,495.002L826.506,495.002L826.506,387.115C826.506,376.841 824.901,369.648 821.69,365.538C818.479,361.428 813.662,359.373 807.241,359.373C802.103,359.373 797.479,361.621 793.369,366.116C789.259,370.611 787.205,377.74 787.205,387.501L787.205,495.002L698.198,495.002L698.198,203.708L787.205,203.708L787.205,314.677L787.975,314.677C793.113,307.228 800.433,300.742 809.938,295.219C819.442,289.697 830.616,286.935 843.46,286.935Z" style="fill:rgb(106,203,243);fill-rule:nonzero;"/>
                <path d="M952.887,451.462C952.887,444.526 954.236,438.04 956.933,432.004C959.63,425.967 963.355,420.702 968.107,416.206C972.859,411.711 978.382,408.115 984.675,405.418C990.969,402.72 997.583,401.372 1004.52,401.372C1011.2,401.372 1017.56,402.72 1023.59,405.418C1029.63,408.115 1034.96,411.711 1039.58,416.206C1044.2,420.702 1047.87,425.967 1050.56,432.004C1053.26,438.04 1054.61,444.526 1054.61,451.462C1054.61,458.398 1053.26,464.948 1050.56,471.113C1047.87,477.278 1044.2,482.544 1039.58,486.91C1034.96,491.277 1029.63,494.745 1023.59,497.314C1017.56,499.882 1011.2,501.167 1004.52,501.167C997.583,501.167 990.969,499.882 984.675,497.314C978.382,494.745 972.859,491.277 968.107,486.91C963.355,482.544 959.63,477.278 956.933,471.113C954.236,464.948 952.887,458.398 952.887,451.462Z" style="fill:rgb(242,94,13);fill-rule:nonzero;"/>
                <path d="M1093.91,292.329L1182.92,292.329L1182.92,495.002L1093.91,495.002L1093.91,292.329ZM1092.37,233.763C1092.37,227.598 1093.59,221.754 1096.03,216.231C1098.47,210.708 1101.81,205.892 1106.05,201.782C1110.29,197.672 1115.23,194.397 1120.88,191.957C1126.53,189.516 1132.57,188.296 1138.99,188.296C1145.16,188.296 1150.94,189.516 1156.33,191.957C1161.73,194.397 1166.54,197.672 1170.78,201.782C1175.02,205.892 1178.36,210.708 1180.8,216.231C1183.24,221.754 1184.46,227.598 1184.46,233.763C1184.46,240.184 1183.24,246.157 1180.8,251.679C1178.36,257.202 1175.02,261.954 1170.78,265.936C1166.54,269.917 1161.73,273.064 1156.33,275.376C1150.94,277.688 1145.16,278.844 1138.99,278.844C1132.57,278.844 1126.53,277.688 1120.88,275.376C1115.23,273.064 1110.29,269.917 1106.05,265.936C1101.81,261.954 1098.47,257.202 1096.03,251.679C1093.59,246.157 1092.37,240.184 1092.37,233.763Z" style="fill:rgb(106,203,243);fill-rule:nonzero;"/>
                <path d="M1224.14,292.329L1310.84,292.329L1310.84,314.677L1311.61,314.677C1316.75,307.228 1324.39,300.742 1334.54,295.219C1344.68,289.697 1356.31,286.935 1369.41,286.935C1383.53,286.935 1395.29,289.504 1404.66,294.641C1414.04,299.779 1421.49,306.393 1427.01,314.485C1432.53,322.576 1436.39,331.631 1438.57,341.649C1440.75,351.667 1441.84,361.685 1441.84,371.703L1441.84,495.002L1352.45,495.002L1352.45,387.115C1352.45,376.841 1350.85,369.648 1347.64,365.538C1344.42,361.428 1339.61,359.373 1333.19,359.373C1327.28,359.373 1322.46,361.749 1318.74,366.501C1315.01,371.254 1313.15,378.125 1313.15,387.115L1313.15,495.002L1224.14,495.002L1224.14,292.329Z" style="fill:rgb(106,203,243);fill-rule:nonzero;"/>
                <path d="M1569.77,406.766L1569.77,495.002L1480.76,495.002L1480.76,203.708L1569.77,203.708L1569.77,369.777L1570.92,369.777L1619.09,292.329L1722.35,292.329L1656.85,383.648L1721.96,495.002L1618.32,495.002L1570.92,406.766L1569.77,406.766Z" style="fill:rgb(106,203,243);fill-rule:nonzero;"/>
            </g>
        </g>
    </g>
</svg>
