<?xml version="1.0" encoding="UTF-8" standalone="no"?>
<!DOCTYPE svg PUBLIC "-//W3C//DTD SVG 1.1//EN" "http://www.w3.org/Graphics/SVG/1.1/DTD/svg11.dtd">
<svg xmlns:xlink="http://www.w3.org/1999/xlink" xml:space="preserve" xmlns:serif="http://www.serif.com/" xmlns="http://www.w3.org/2000/svg"
     width="100%" height="100%"
     viewBox="0 0 256 256"
     version="1.1"
     style="fill-rule:evenodd;clip-rule:evenodd;stroke-linejoin:round;stroke-miterlimit:2;">
  <path d="M20.206,95.214l213.266,72.121l2.242,-6.628l-213.266,-72.123l-2.242,6.63Z" style="fill:#fff;"/>
  <path d="M233.472,88.584l-213.266,72.123l2.242,6.628l213.266,-72.121l-2.242,-6.63Z" style="fill:#fff;"/>
  <path d="M127.96,122.86l104.017,-111.034l6.053,2.392l-0.034,227.485l-6.053,2.391l-103.983,-110.998l-103.983,110.998l-6.053,-2.391l-0.033,-227.485l6.052,-2.392l104.017,111.034Zm4.795,5.118l98.244,104.873l0.032,-209.779l-98.276,104.906Zm-107.834,104.873l98.245,-104.873l-98.276,-104.906l0.031,209.779Z" style="fill:#fff;"/>
</svg>
