<?xml version="1.0" encoding="UTF-8" standalone="no"?>
<!DOCTYPE svg PUBLIC "-//W3C//DTD SVG 1.1//EN" "http://www.w3.org/Graphics/SVG/1.1/DTD/svg11.dtd">
<svg xmlns:xlink="http://www.w3.org/1999/xlink" xml:space="preserve" xmlns:serif="http://www.serif.com/" xmlns="http://www.w3.org/2000/svg" style="fill-rule:evenodd;clip-rule:evenodd;stroke-linejoin:round;stroke-miterlimit:2;">
     width="100%" height="100%"
     viewBox="0 0 256 256"
     version="1.1"
  <path d="M65.743,14.645l58.606,227.928l6.777,-1.742l-58.606,-227.929l-6.777,1.743Z" style="fill:#fff;"/>
  <path d="M127.737,235.515l82.361,-120.117l5.771,3.958l-85.247,124.325l-5.771,-0l-85.244,-124.326l5.772,-3.957l82.358,120.117Z" style="fill:#fff;"/>
  <path d="M127.738,84.021l55.836,-72.385l6.159,1.266l58.607,227.929l-6.159,3.008l-114.443,-148.361l-114.443,148.361l-6.159,-3.008l58.607,-227.929l6.159,-1.266l55.836,72.385Zm-109.585,142.063l105.166,-136.335l-52.583,-68.167l-52.583,204.502Zm114.004,-136.335l105.166,136.335l-52.583,-204.502l-52.583,68.167Z" style="fill:#fff;"/>
  <path d="M182.956,12.902l-58.607,227.929l6.777,1.742l58.607,-227.928l-6.777,-1.743Z" style="fill:#fff;"/>
</svg>
