<svg width="65" height="65" viewBox="0 0 65 65" fill="none" xmlns="http://www.w3.org/2000/svg">
                  <path d="M13.5694 10.1469C13.391 9.94795 13.1409 9.82804 12.8742 9.8135C12.6074 9.79897 12.3458 9.89101 12.1469 10.0694C11.9479 10.2477 11.828 10.4978 11.8135 10.7646C11.799 11.0313 11.891 11.293 12.0694 11.4919L22.3594 22.8019C22.1294 23.2269 21.9135 23.6594 21.7119 24.0994C19.6592 23.6971 17.5451 23.7286 15.5054 24.1918C13.4656 24.655 11.5453 25.5397 9.86767 26.7891C8.19009 28.0385 6.79235 29.6249 5.76422 31.4464C4.7361 33.268 4.10031 35.2845 3.89769 37.3664C3.69507 39.4482 3.93011 41.5494 4.5877 43.5351C5.24529 45.5207 6.3109 47.3469 7.71609 48.8963C9.12128 50.4457 10.835 51.6841 12.7471 52.5319C14.6593 53.3797 16.7277 53.8183 18.8194 53.8194H40.8194C43.6445 53.826 46.4414 53.2569 49.0394 52.1469L52.0694 55.4919C52.1572 55.5909 52.2638 55.6714 52.383 55.7289C52.5022 55.7864 52.6316 55.8197 52.7637 55.8268C52.8958 55.8339 53.0281 55.8147 53.1528 55.7703C53.2774 55.726 53.392 55.6573 53.49 55.5683C53.5879 55.4793 53.6672 55.3717 53.7233 55.2519C53.7793 55.132 53.811 55.0022 53.8166 54.87C53.8221 54.7378 53.8013 54.6058 53.7554 54.4816C53.7096 54.3575 53.6395 54.2437 53.5494 54.1469L13.5694 10.1469ZM40.8194 51.8194H18.8194C15.3715 51.8194 12.0649 50.4497 9.62697 48.0117C7.189 45.5738 5.81936 42.2672 5.81936 38.8194C5.81936 35.3715 7.189 32.0649 9.62697 29.627C12.0649 27.189 15.3715 25.8194 18.8194 25.8194C19.5347 25.8215 20.2487 25.8817 20.9544 25.9994C20.2028 28.1946 19.8193 30.499 19.8194 32.8194C19.8194 33.0846 19.9247 33.3389 20.1123 33.5265C20.2998 33.714 20.5541 33.8194 20.8194 33.8194C21.0846 33.8194 21.3389 33.714 21.5265 33.5265C21.714 33.3389 21.8194 33.0846 21.8194 32.8194C21.8186 29.8914 22.4945 27.0029 23.7944 24.3794L47.6019 50.5694C45.4372 51.3998 43.1378 51.8235 40.8194 51.8194ZM61.8194 32.8194C61.8224 37.9787 59.9229 42.958 56.4844 46.8044C56.3969 46.9029 56.2908 46.9832 56.1723 47.0407C56.0538 47.0982 55.9251 47.1318 55.7936 47.1396C55.6621 47.1473 55.5303 47.1291 55.4058 47.086C55.2814 47.0428 55.1666 46.9756 55.0681 46.8881C54.9696 46.8006 54.8893 46.6946 54.8318 46.5761C54.7743 46.4575 54.7407 46.3288 54.7329 46.1973C54.7251 46.0658 54.7434 45.9341 54.7865 45.8096C54.8296 45.6851 54.8969 45.5704 54.9844 45.4719C58.105 41.9675 59.8186 37.4324 59.7948 32.74C59.7711 28.0476 58.0118 23.53 54.8559 20.0574C51.6999 16.5848 47.3706 14.4028 42.7018 13.9319C38.0331 13.461 33.3552 14.7344 29.5694 17.5069C29.4635 17.5847 29.3433 17.6409 29.2157 17.6722C29.0881 17.7036 28.9556 17.7095 28.8257 17.6897C28.6958 17.6698 28.5711 17.6246 28.4587 17.5566C28.3463 17.4885 28.2484 17.399 28.1706 17.2931C28.0928 17.1872 28.0366 17.0671 28.0052 16.9395C27.9739 16.8119 27.9679 16.6794 27.9878 16.5495C28.0076 16.4196 28.0529 16.2949 28.1209 16.1825C28.189 16.0701 28.2785 15.9722 28.3844 15.8944C31.5132 13.5952 35.2181 12.2086 39.0876 11.8884C42.9571 11.5682 46.8396 12.3271 50.3038 14.0806C53.7679 15.8342 56.6781 18.5138 58.711 21.8218C60.7439 25.1298 61.8198 28.9367 61.8194 32.8194Z" fill="#1FD58A"></path>
                </svg>
