<svg width="65" height="65" viewBox="0 0 65 65" fill="none" xmlns="http://www.w3.org/2000/svg">
                  <path d="M38.8193 25.8193H26.8193C26.5541 25.8193 26.2998 25.9247 26.1122 26.1122C25.9247 26.2998 25.8193 26.5541 25.8193 26.8193V38.8193C25.8193 39.0846 25.9247 39.3389 26.1122 39.5264C26.2998 39.714 26.5541 39.8193 26.8193 39.8193H38.8193C39.0846 39.8193 39.3389 39.714 39.5264 39.5264C39.714 39.3389 39.8193 39.0846 39.8193 38.8193V26.8193C39.8193 26.5541 39.714 26.2998 39.5264 26.1122C39.3389 25.9247 39.0846 25.8193 38.8193 25.8193ZM37.8193 37.8193H27.8193V27.8193H37.8193V37.8193ZM58.8193 37.8193H53.8193V27.8193H58.8193C59.0846 27.8193 59.3389 27.714 59.5264 27.5264C59.714 27.3389 59.8193 27.0846 59.8193 26.8193C59.8193 26.5541 59.714 26.2998 59.5264 26.1122C59.3389 25.9247 59.0846 25.8193 58.8193 25.8193H53.8193V14.8193C53.8193 14.0237 53.5033 13.2606 52.9407 12.698C52.378 12.1354 51.615 11.8193 50.8193 11.8193H39.8193V6.81934C39.8193 6.55412 39.714 6.29977 39.5264 6.11223C39.3389 5.92469 39.0846 5.81934 38.8193 5.81934C38.5541 5.81934 38.2998 5.92469 38.1122 6.11223C37.9247 6.29977 37.8193 6.55412 37.8193 6.81934V11.8193H27.8193V6.81934C27.8193 6.55412 27.714 6.29977 27.5264 6.11223C27.3389 5.92469 27.0846 5.81934 26.8193 5.81934C26.5541 5.81934 26.2998 5.92469 26.1122 6.11223C25.9247 6.29977 25.8193 6.55412 25.8193 6.81934V11.8193H14.8193C14.0237 11.8193 13.2606 12.1354 12.698 12.698C12.1354 13.2606 11.8193 14.0237 11.8193 14.8193V25.8193H6.81934C6.55412 25.8193 6.29977 25.9247 6.11223 26.1122C5.92469 26.2998 5.81934 26.5541 5.81934 26.8193C5.81934 27.0846 5.92469 27.3389 6.11223 27.5264C6.29977 27.714 6.55412 27.8193 6.81934 27.8193H11.8193V37.8193H6.81934C6.55412 37.8193 6.29977 37.9247 6.11223 38.1122C5.92469 38.2998 5.81934 38.5541 5.81934 38.8193C5.81934 39.0846 5.92469 39.3389 6.11223 39.5264C6.29977 39.714 6.55412 39.8193 6.81934 39.8193H11.8193V50.8193C11.8193 51.615 12.1354 52.378 12.698 52.9407C13.2606 53.5033 14.0237 53.8193 14.8193 53.8193H25.8193V58.8193C25.8193 59.0846 25.9247 59.3389 26.1122 59.5264C26.2998 59.714 26.5541 59.8193 26.8193 59.8193C27.0846 59.8193 27.3389 59.714 27.5264 59.5264C27.714 59.3389 27.8193 59.0846 27.8193 58.8193V53.8193H37.8193V58.8193C37.8193 59.0846 37.9247 59.3389 38.1122 59.5264C38.2998 59.714 38.5541 59.8193 38.8193 59.8193C39.0846 59.8193 39.3389 59.714 39.5264 59.5264C39.714 59.3389 39.8193 59.0846 39.8193 58.8193V53.8193H50.8193C51.615 53.8193 52.378 53.5033 52.9407 52.9407C53.5033 52.378 53.8193 51.615 53.8193 50.8193V39.8193H58.8193C59.0846 39.8193 59.3389 39.714 59.5264 39.5264C59.714 39.3389 59.8193 39.0846 59.8193 38.8193C59.8193 38.5541 59.714 38.2998 59.5264 38.1122C59.3389 37.9247 59.0846 37.8193 58.8193 37.8193ZM51.8193 50.8193C51.8193 51.0846 51.714 51.3389 51.5264 51.5264C51.3389 51.714 51.0846 51.8193 50.8193 51.8193H14.8193C14.5541 51.8193 14.2998 51.714 14.1122 51.5264C13.9247 51.3389 13.8193 51.0846 13.8193 50.8193V14.8193C13.8193 14.5541 13.9247 14.2998 14.1122 14.1122C14.2998 13.9247 14.5541 13.8193 14.8193 13.8193H50.8193C51.0846 13.8193 51.3389 13.9247 51.5264 14.1122C51.714 14.2998 51.8193 14.5541 51.8193 14.8193V50.8193Z" fill="#1FD58A"></path>
                </svg>
