<svg width="51" height="49" viewBox="0 0 51 49" fill="none" xmlns="http://www.w3.org/2000/svg">
                  <path d="M41.7419 18.3943C41.7919 17.8768 41.8194 17.3518 41.8194 16.8193C41.8194 12.5759 40.1337 8.50621 37.1331 5.50563C34.1325 2.50505 30.0628 0.819336 25.8194 0.819336C21.5759 0.819336 17.5063 2.50505 14.5057 5.50563C11.5051 8.50621 9.81938 12.5759 9.81938 16.8193C9.81938 17.3518 9.84688 17.8768 9.89688 18.3943C7.90496 19.343 6.13079 20.6935 4.68582 22.3607C3.24085 24.028 2.15631 25.9761 1.50036 28.0827C0.844405 30.1892 0.631207 32.4086 0.874161 34.6015C1.11711 36.7944 1.81097 38.9133 2.91213 40.8252C4.01329 42.737 5.49796 44.4005 7.27285 45.711C9.04774 47.0216 11.0745 47.9509 13.2258 48.4406C15.377 48.9302 17.6063 48.9697 19.7736 48.5565C21.9408 48.1432 23.9992 47.2862 25.8194 46.0393C27.6395 47.2862 29.6979 48.1432 31.8652 48.5565C34.0324 48.9697 36.2617 48.9302 38.413 48.4406C40.5643 47.9509 42.591 47.0216 44.3659 45.711C46.1408 44.4005 47.6255 42.737 48.7266 40.8252C49.8278 38.9133 50.5216 36.7944 50.7646 34.6015C51.0075 32.4086 50.7943 30.1892 50.1384 28.0827C49.4824 25.9761 48.3979 24.028 46.9529 22.3607C45.508 20.6935 43.7338 19.343 41.7419 18.3943ZM11.8194 16.8193C11.8194 13.1063 13.2944 9.54535 15.9199 6.91984C18.5454 4.29433 22.1063 2.81934 25.8194 2.81934C29.5324 2.81934 33.0934 4.29433 35.7189 6.91984C38.3444 9.54535 39.8194 13.1063 39.8194 16.8193C39.8194 17.0868 39.8194 17.3518 39.7944 17.6143C37.4687 16.8515 34.9988 16.6337 32.5755 16.9779C30.1522 17.3221 27.8406 18.219 25.8194 19.5993C23.7981 18.219 21.4865 17.3221 19.0632 16.9779C16.64 16.6337 14.17 16.8515 11.8444 17.6143C11.8194 17.3518 11.8194 17.0868 11.8194 16.8193ZM30.8194 32.8193C30.8198 34.8619 30.3723 36.8797 29.5084 38.7305C28.6445 40.5814 27.3853 42.2203 25.8194 43.5318C24.2535 42.2203 22.9943 40.5814 22.1304 38.7305C21.2665 36.8797 20.819 34.8619 20.8194 32.8193C20.8194 32.5518 20.8194 32.2868 20.8444 32.0243C24.0764 33.0843 27.5624 33.0843 30.7944 32.0243C30.8194 32.2868 30.8194 32.5518 30.8194 32.8193ZM25.8194 30.8193C24.2121 30.8205 22.6169 30.5431 21.1044 29.9993C21.7439 26.9132 23.405 24.1327 25.8194 22.1068C28.2338 24.1327 29.8949 26.9132 30.5344 29.9993C29.0219 30.5431 27.4266 30.8205 25.8194 30.8193ZM19.2444 29.1743C17.4282 28.2053 15.8473 26.849 14.6135 25.2013C13.3796 23.5536 12.523 21.6548 12.1044 19.6393C14.0783 18.9293 16.1867 18.6729 18.2732 18.8893C20.3598 19.1057 22.3707 19.7893 24.1569 20.8893C21.708 23.0815 19.9929 25.974 19.2444 29.1743ZM27.4944 20.9018C29.2805 19.8018 31.2915 19.1182 33.378 18.9018C35.4645 18.6854 37.573 18.9418 39.5469 19.6518C39.1282 21.6673 38.2716 23.5661 37.0378 25.2138C35.804 26.8615 34.223 28.2178 32.4069 29.1868C31.6549 25.985 29.9353 23.0923 27.4819 20.9018H27.4944ZM16.8194 46.8193C13.6976 46.8172 10.6661 45.7718 8.20657 43.8492C5.74708 41.9266 4.00074 39.2371 3.24508 36.2082C2.48943 33.1792 2.76781 29.9846 4.036 27.132C5.30418 24.2794 7.4894 21.9325 10.2444 20.4643C10.7933 22.7919 11.855 24.9676 13.3519 26.8325C14.8488 28.6975 16.7432 30.2048 18.8969 31.2443C18.8469 31.7618 18.8194 32.2868 18.8194 32.8193C18.819 35.0697 19.2943 37.2948 20.2142 39.3486C21.134 41.4025 22.4776 43.2387 24.1569 44.7368C21.9525 46.1002 19.4113 46.8215 16.8194 46.8193ZM34.8194 46.8193C32.2274 46.8215 29.6863 46.1002 27.4819 44.7368C29.1611 43.2387 30.5047 41.4025 31.4246 39.3486C32.3444 37.2948 32.8197 35.0697 32.8194 32.8193C32.8194 32.2868 32.7919 31.7618 32.7419 31.2443C34.8955 30.2048 36.7899 28.6975 38.2868 26.8325C39.7838 24.9676 40.8454 22.7919 41.3944 20.4643C44.1494 21.9325 46.3346 24.2794 47.6028 27.132C48.8709 29.9846 49.1493 33.1792 48.3937 36.2082C47.638 39.2371 45.8917 41.9266 43.4322 43.8492C40.9727 45.7718 37.9412 46.8172 34.8194 46.8193Z" fill="#1FD58A"></path>
                </svg>
