<svg width="65" height="65" viewBox="0 0 65 65" fill="none" xmlns="http://www.w3.org/2000/svg">
                  <path d="M30.1118 40.1118L54.1118 16.1118C54.2047 16.0189 54.315 15.9452 54.4364 15.8949C54.5578 15.8447 54.6879 15.8188 54.8193 15.8188C54.9507 15.8188 55.0808 15.8447 55.2022 15.8949C55.3236 15.9452 55.4339 16.0189 55.5268 16.1118C55.6197 16.2047 55.6934 16.315 55.7437 16.4364C55.7939 16.5578 55.8198 16.6879 55.8198 16.8193C55.8198 16.9507 55.7939 17.0808 55.7437 17.2022C55.6934 17.3236 55.6197 17.4339 55.5268 17.5268L31.5268 41.5268C31.3391 41.7145 31.0846 41.8199 30.8193 41.8199C30.5539 41.8199 30.2994 41.7145 30.1118 41.5268C29.9241 41.3392 29.8187 41.0847 29.8187 40.8193C29.8187 40.554 29.9241 40.2995 30.1118 40.1118ZM32.8193 21.8193C34.6653 21.8173 36.4994 22.1162 38.2493 22.7043C38.3765 22.7622 38.5145 22.7927 38.6543 22.794C38.7941 22.7952 38.9326 22.7671 39.0608 22.7116C39.1891 22.656 39.3043 22.5741 39.399 22.4712C39.4936 22.3684 39.5657 22.2468 39.6105 22.1144C39.6553 21.982 39.6718 21.8416 39.659 21.7024C39.6462 21.5632 39.6043 21.4282 39.5361 21.3062C39.4679 21.1842 39.3749 21.0778 39.2631 20.9939C39.1512 20.9101 39.023 20.8506 38.8868 20.8193C36.0292 19.8564 32.9835 19.5874 30.0015 20.0346C27.0194 20.4818 24.1866 21.6324 21.7372 23.3912C19.2878 25.15 17.2922 27.4665 15.9154 30.1492C14.5386 32.832 13.8201 35.8039 13.8193 38.8193C13.8201 39.5242 13.8584 40.2285 13.9343 40.9293C13.9615 41.1751 14.0787 41.402 14.2634 41.5664C14.448 41.7307 14.6871 41.8208 14.9343 41.8193H15.0468C15.1775 41.805 15.3041 41.7651 15.4194 41.7018C15.5346 41.6385 15.6363 41.553 15.7185 41.4504C15.8007 41.3478 15.8618 41.2299 15.8984 41.1036C15.935 40.9773 15.9464 40.845 15.9318 40.7143C15.6652 38.3374 15.9031 35.931 16.6301 33.6524C17.357 31.3737 18.5567 29.2741 20.1505 27.4907C21.7444 25.7074 23.6967 24.2804 25.8797 23.3032C28.0628 22.3259 30.4275 21.8203 32.8193 21.8193ZM56.8618 26.5243C56.8066 26.4 56.7267 26.2882 56.6269 26.1959C56.5271 26.1035 56.4094 26.0324 56.2812 25.9871C56.153 25.9417 56.0169 25.923 55.8812 25.932C55.7455 25.941 55.613 25.9777 55.4919 26.0397C55.3709 26.1016 55.2637 26.1877 55.1771 26.2925C55.0904 26.3973 55.026 26.5187 54.9878 26.6492C54.9497 26.7798 54.9385 26.9167 54.9551 27.0517C54.9717 27.1867 55.0156 27.3169 55.0843 27.4343C56.626 30.4596 57.5375 33.7665 57.7636 37.1544C57.9896 40.5424 57.5255 43.941 56.3993 47.1443C56.3315 47.3416 56.2037 47.5128 56.0338 47.6338C55.8639 47.7548 55.6604 47.8197 55.4518 47.8193H10.1843C9.97465 47.8169 9.77088 47.7498 9.60083 47.6272C9.43079 47.5046 9.30276 47.3325 9.23427 47.1343C7.574 42.4173 7.36577 37.3108 8.63646 32.4743C9.90715 27.6377 12.5984 23.293 16.3629 20.0012C20.1273 16.7093 24.792 14.6214 29.7548 14.007C34.7177 13.3926 39.7507 14.2799 44.2043 16.5543C44.3216 16.6187 44.4506 16.659 44.5837 16.6726C44.7168 16.6862 44.8513 16.673 44.9792 16.6337C45.1071 16.5944 45.2259 16.5299 45.3284 16.4439C45.4309 16.3579 45.5151 16.2521 45.576 16.133C45.6369 16.0139 45.6733 15.8837 45.683 15.7502C45.6927 15.6168 45.6755 15.4827 45.6324 15.356C45.5894 15.2293 45.5213 15.1126 45.4323 15.0127C45.3433 14.9127 45.2352 14.8317 45.1143 14.7743C41.3862 12.8593 37.2603 11.8471 33.0693 11.8193H32.8193C28.5022 11.8216 24.2485 12.8584 20.4146 14.843C16.5807 16.8276 13.2782 19.7021 10.7839 23.2257C8.28956 26.7492 6.67601 30.8193 6.07843 35.0948C5.48085 39.3704 5.91663 43.7269 7.34927 47.7993C7.55532 48.3876 7.93849 48.8977 8.44613 49.2594C8.95376 49.6211 9.56096 49.8167 10.1843 49.8193H55.4518C56.0733 49.8207 56.6799 49.629 57.1877 49.2707C57.6956 48.9125 58.0796 48.4053 58.2868 47.8193C59.5029 44.3599 60.0037 40.6894 59.7587 37.0306C59.5138 33.3718 58.5282 29.8008 56.8618 26.5343V26.5243Z" fill="#1FD58A"></path>
                </svg>
