<?xml version="1.0" standalone="no"?>
<!DOCTYPE svg PUBLIC "-//W3C//DTD SVG 20010904//EN"
 "http://www.w3.org/TR/2001/REC-SVG-20010904/DTD/svg10.dtd">
<svg version="1.0" xmlns="http://www.w3.org/2000/svg"
 width="700.000000pt" height="700.000000pt" viewBox="0 0 700.000000 700.000000"
 preserveAspectRatio="xMidYMid meet">
<metadata>
Created by potrace 1.14, written by Peter Selinger 2001-2017
</metadata>
<g transform="translate(0.000000,700.000000) scale(0.100000,-0.100000)"
fill="#000000" stroke="none">
<path d="M4805 6915 c-38 -7 -92 -20 -120 -29 -63 -21 -215 -97 -215 -107 0
-4 -10 -11 -22 -14 -13 -4 -447 -431 -965 -948 l-943 -941 -40 39 c-39 38
-852 852 -858 859 -2 2 10 28 27 58 72 128 97 289 66 423 -52 218 -233 395
-452 440 -66 14 -172 14 -233 1 -14 -3 -35 -8 -47 -10 -45 -9 -153 -67 -207
-112 -93 -75 -180 -220 -201 -334 -60 -318 148 -626 463 -688 73 -14 206 -6
280 17 l72 22 461 -462 461 -462 -1166 -1166 -1166 -1166 0 -1168 0 -1167
1167 0 1168 0 1166 1166 1167 1167 461 -462 c253 -253 461 -467 461 -474 0 -7
-4 -17 -9 -22 -14 -17 -32 -106 -36 -181 -13 -249 133 -475 367 -568 372 -148
782 120 793 519 4 174 -50 313 -170 431 -184 182 -435 224 -665 111 -47 -23
-88 -42 -92 -42 -5 0 -209 201 -456 447 l-448 447 923 923 c621 622 939 946
971 993 108 155 152 291 157 485 6 206 -50 379 -178 550 -49 66 -1178 1196
-1257 1259 -57 44 -232 134 -285 145 -16 4 -58 13 -92 20 -80 16 -219 17 -308
1z m326 -304 c133 -42 156 -62 771 -677 319 -318 595 -597 613 -619 146 -180
159 -469 30 -671 -19 -29 -154 -174 -300 -320 l-266 -266 -959 958 c-528 528
-960 960 -960 962 0 2 121 124 269 271 310 310 353 341 511 375 83 18 207 12
291 -13z m-3856 -217 c231 -90 242 -423 19 -529 -168 -80 -362 9 -408 186 -40
159 59 323 219 359 42 10 123 2 170 -16z m3539 -1583 l959 -959 -1780 -1781
-1781 -1781 -961 0 -961 0 0 960 0 961 1778 1779 c977 978 1779 1779 1782
1779 3 1 437 -431 964 -958z m1427 -3378 c58 -26 125 -92 149 -146 54 -123 11
-284 -95 -356 -169 -114 -391 -37 -448 155 -57 192 92 379 293 369 31 -1 77
-11 101 -22z"/>
<path d="M3493 346 c-183 -183 -333 -336 -333 -339 0 -4 864 -7 1920 -7 l1920
0 0 145 0 145 -1570 0 c-863 0 -1570 2 -1570 5 0 3 41 46 91 95 l91 91 -100
99 c-56 55 -104 100 -109 100 -4 0 -158 -150 -340 -334z"/>
</g>
</svg>
