<?xml version="1.0" standalone="no"?>
<!DOCTYPE svg PUBLIC "-//W3C//DTD SVG 20010904//EN"
 "http://www.w3.org/TR/2001/REC-SVG-20010904/DTD/svg10.dtd">
<svg version="1.0" xmlns="http://www.w3.org/2000/svg"
 width="700.000000pt" height="700.000000pt" viewBox="0 0 700.000000 700.000000"
 preserveAspectRatio="xMidYMid meet">
<metadata>
Created by potrace 1.14, written by Peter Selinger 2001-2017
</metadata>
<g transform="translate(0.000000,700.000000) scale(0.100000,-0.100000)"
fill="#000000" stroke="none">
<path d="M373 6623 c-33 -38 -60 -70 -58 -73 7 -11 2054 -2826 2062 -2835 5
-5 19 -26 33 -45 13 -19 27 -37 30 -40 3 -3 16 -21 29 -40 14 -19 33 -47 44
-62 l19 -26 -242 -334 c-133 -183 -250 -344 -260 -358 -36 -48 -391 -535 -418
-575 -16 -22 -160 -220 -321 -440 -160 -220 -304 -418 -320 -440 -15 -22 -170
-235 -344 -474 l-316 -433 44 -47 c24 -25 52 -56 63 -69 l20 -23 1531 956
1531 957 222 -140 c309 -193 2056 -1285 2148 -1342 41 -25 203 -126 360 -224
157 -98 295 -184 306 -192 20 -12 26 -8 83 51 34 35 61 68 61 73 0 6 -19 36
-43 69 -96 129 -235 319 -277 379 -25 34 -97 134 -160 220 -63 86 -135 185
-160 220 -52 73 -591 814 -603 829 -4 6 -25 35 -47 65 -22 30 -48 66 -58 79
-309 424 -862 1188 -862 1192 0 3 100 143 222 310 121 167 235 324 252 347 17
24 416 573 887 1220 l856 1177 -43 45 c-23 25 -52 56 -63 69 l-20 23 -38 -23
c-87 -53 -842 -524 -888 -554 -27 -18 -243 -153 -480 -300 -236 -147 -529
-330 -650 -406 -121 -76 -395 -248 -610 -382 l-390 -245 -46 27 c-62 35 -2236
1391 -2549 1590 -167 106 -452 282 -462 286 -7 3 -41 -25 -75 -62z m5851 -375
c-8 -14 -70 -100 -144 -201 -25 -34 -225 -309 -445 -612 -219 -302 -408 -562
-419 -576 -12 -14 -28 -36 -36 -48 -20 -29 -499 -689 -525 -723 -11 -14 -27
-35 -35 -47 -8 -12 -57 -79 -108 -149 -51 -70 -108 -148 -125 -174 -18 -26
-35 -48 -38 -48 -4 0 -47 55 -95 123 -49 67 -92 127 -97 132 -4 6 -72 98 -150
206 -78 108 -150 207 -160 220 -85 114 -207 285 -206 289 0 3 238 154 529 335
292 182 675 421 852 532 178 111 393 245 478 298 423 263 668 416 695 434 35
24 39 26 29 9z m-4934 -312 c272 -170 524 -328 560 -351 75 -48 767 -480 865
-540 69 -42 301 -187 420 -262 39 -25 105 -67 148 -94 l78 -50 -31 -42 c-53
-72 -414 -566 -435 -597 -63 -91 -240 -330 -245 -330 -3 0 -32 38 -65 83 -32
45 -105 145 -161 222 -117 163 -724 998 -751 1035 -10 13 -154 211 -320 440
-166 228 -306 420 -310 425 -4 6 -57 78 -117 160 -60 83 -121 165 -135 184
-17 22 -20 32 -10 30 8 -2 237 -143 509 -313z m2114 -2443 c0 -466 -3 -848 -6
-848 -6 0 -63 79 -467 633 l-162 223 132 182 c73 100 149 205 169 232 20 28
65 88 98 135 34 47 98 134 142 194 44 60 80 114 81 120 0 6 3 3 7 -6 4 -10 7
-399 6 -865z m368 637 c74 -102 207 -285 296 -407 l161 -222 -97 -133 c-53
-74 -106 -145 -117 -160 -11 -14 -27 -35 -35 -47 -8 -12 -57 -79 -108 -149
-51 -70 -132 -182 -180 -249 -48 -68 -89 -123 -92 -123 -4 0 -5 1706 -1 1719
2 5 20 -19 173 -229z m1138 -1565 c304 -418 565 -777 579 -797 14 -20 186
-256 381 -524 195 -268 356 -491 358 -495 3 -8 -2564 1593 -2580 1609 -4 4 27
56 70 114 42 59 84 116 92 128 8 12 44 61 80 110 36 48 153 209 260 358 107
148 198 267 201 263 4 -3 255 -348 559 -766z m-1901 280 c264 -362 347 -483
338 -491 -7 -6 -91 -59 -187 -119 -96 -59 -204 -127 -240 -150 -36 -23 -87
-55 -115 -71 -27 -15 -54 -32 -60 -37 -5 -4 -73 -47 -150 -95 -77 -48 -151
-95 -165 -104 -89 -56 -469 -294 -490 -305 -33 -19 -109 -66 -285 -178 -27
-17 -117 -73 -200 -125 -82 -51 -161 -100 -175 -109 -14 -9 -33 -20 -43 -26
-16 -9 -97 -60 -222 -140 -27 -17 -79 -49 -115 -71 -36 -21 -67 -42 -70 -45
-3 -3 -20 -14 -38 -23 -33 -17 -33 -16 24 61 32 43 128 175 214 293 197 271
503 692 544 746 17 23 38 51 46 63 12 18 152 211 317 438 10 14 39 53 64 86
44 60 369 509 496 685 35 48 69 94 75 102 7 9 26 35 42 58 16 23 33 41 37 40
5 -2 166 -219 358 -483z"/>
</g>
</svg>
