<svg width="100%" height="100%" viewBox="0 0 64 64" fill="none" xmlns="http://www.w3.org/2000/svg">
                          <path fill-rule="evenodd" clip-rule="evenodd" d="M6.41989 13.8311C5.68322 13.5555 4.91494 13.3391 4.12481 13.1866C4.06646 13.1743 4.01054 13.1644 3.95219 13.1546C3.42219 13.0587 3.42219 12.2912 3.95219 12.1953C4.01054 12.1854 4.06646 12.1756 4.12481 12.1633C4.91494 12.0108 5.68322 11.7943 6.41989 11.5188C6.86237 11.3515 7.2951 11.167 7.71329 10.9604C10.6211 9.5312 12.9745 7.14996 14.3872 4.20768C14.5914 3.78457 14.7738 3.3467 14.9391 2.89902C15.2114 2.15366 15.4254 1.3763 15.5761 0.576849C15.5882 0.517811 15.598 0.461235 15.6077 0.402197C15.7025 -0.134066 16.461 -0.134066 16.5558 0.402197C16.5656 0.461235 16.5753 0.517811 16.5874 0.576849C16.7382 1.3763 16.9521 2.15366 17.2244 2.89902C17.3897 3.34673 17.5721 3.78456 17.7763 4.20768C19.1888 7.14977 21.5423 9.53094 24.4502 10.9604C24.8684 11.167 25.3012 11.3515 25.7436 11.5188C26.4803 11.7943 27.2486 12.0108 28.0387 12.1633C28.0971 12.1756 28.153 12.1854 28.2113 12.1953C28.7413 12.2912 28.7413 13.0587 28.2113 13.1546C28.153 13.1644 28.0971 13.1743 28.0387 13.1866C27.2486 13.3391 26.4803 13.5556 25.7436 13.8311C25.3011 13.9983 24.8684 14.1828 24.4502 14.3895C21.5425 15.8187 19.1891 18.1999 17.7763 21.1422C17.5721 21.5653 17.3897 22.0031 17.2244 22.4508C16.9521 23.1962 16.7382 23.9735 16.5874 24.773C16.5753 24.832 16.5656 24.8886 16.5558 24.9477C16.461 25.4839 15.7025 25.4839 15.6077 24.9477C15.598 24.8886 15.5882 24.832 15.5761 24.773C15.4253 23.9735 15.2114 23.1962 14.9391 22.4508C14.7738 22.0031 14.5915 21.5653 14.3872 21.1422C12.9747 18.2001 10.6212 15.8189 7.71329 14.3895C7.29511 14.1828 6.86235 13.9983 6.41989 13.8311ZM24.0658 32.8165C23.5504 32.6763 23.0276 32.5533 22.4977 32.4476C22.4563 32.4389 22.4144 32.4309 22.3724 32.423C22.3305 32.415 22.2886 32.407 22.2472 32.3984L22.2229 32.3959L22.1889 32.3885L22.1456 32.3806C22.1021 32.3727 22.0491 32.3631 21.9628 32.3467L21.9239 32.3393C21.0778 32.1794 21.0778 30.9544 21.9239 30.7945L21.9628 30.7871C22.049 30.7708 22.102 30.7611 22.1454 30.7532L22.1889 30.7453L22.2229 30.7379L22.2472 30.7355C22.2885 30.7269 22.3305 30.7189 22.3724 30.7109L22.3724 30.7109C22.4144 30.7029 22.4563 30.6949 22.4977 30.6863C23.0277 30.5805 23.5504 30.4575 24.0658 30.3173C24.5083 30.1967 24.9435 30.0639 25.3738 29.9188C32.3322 27.572 37.8074 22.0325 40.1264 14.992C40.2699 14.5566 40.4012 14.1163 40.5203 13.6686C40.6589 13.1471 40.7804 12.6181 40.885 12.0819C40.8935 12.0401 40.9014 11.9977 40.9093 11.9552C40.9172 11.9128 40.9251 11.8704 40.9336 11.8286L40.936 11.804L40.9433 11.7695C40.9503 11.7323 40.9573 11.6913 40.9679 11.6291L40.9822 11.5457L40.9846 11.5407L40.9919 11.5014C41.15 10.6453 42.3607 10.6453 42.5187 11.5014L42.526 11.5407C42.5422 11.628 42.5517 11.6817 42.5595 11.7256C42.5623 11.7411 42.5648 11.7554 42.5674 11.7695L42.5747 11.804L42.5771 11.8286C42.5856 11.8704 42.5935 11.9128 42.6014 11.9552C42.6093 11.9977 42.6172 12.0401 42.6257 12.0819C42.7303 12.6182 42.8518 13.1471 42.9904 13.6686C43.1095 14.1163 43.2408 14.5566 43.3843 14.992C45.7037 22.0325 51.1785 27.5723 58.1369 29.9188C58.5672 30.0639 59.0024 30.1967 59.4449 30.3173C59.9603 30.4575 60.4831 30.5805 61.013 30.6863C61.0544 30.6949 61.0963 30.7029 61.1382 30.7109C61.1802 30.7189 61.2221 30.7268 61.2634 30.7355L61.2878 30.7379L61.3218 30.7453L61.3652 30.7532L61.3655 30.7533C61.4088 30.7612 61.4618 30.7708 61.5479 30.7871L61.5868 30.7945C62.4329 30.9544 62.4329 32.1794 61.5868 32.3393L61.5479 32.3467L61.4263 32.3688L61.3218 32.3885L61.2878 32.3959L61.2634 32.3983C61.2221 32.407 61.1802 32.415 61.1382 32.423C61.0963 32.4309 61.0544 32.4389 61.013 32.4476C60.483 32.5533 59.9603 32.6763 59.4449 32.8165C59.0024 32.9371 58.5672 33.0699 58.1369 33.215C51.1785 35.5618 45.7033 41.1013 43.3843 48.1418C43.2408 48.5772 43.1095 49.0175 42.9904 49.4653C42.8518 49.9868 42.7303 50.5157 42.6257 51.0519C42.6172 51.0937 42.6093 51.1361 42.6014 51.1786C42.5935 51.221 42.5856 51.2634 42.5771 51.3053L42.5747 51.3299L42.5674 51.3643L42.5528 51.443L42.5285 51.5881L42.5187 51.6324C42.3607 52.4885 41.15 52.4885 40.9919 51.6324L40.9846 51.5931C40.9628 51.475 40.953 51.4184 40.9433 51.3643L40.936 51.3299L40.9336 51.3053C40.9251 51.2634 40.9172 51.221 40.9093 51.1786C40.9014 51.1361 40.8935 51.0937 40.885 51.0519C40.7804 50.5156 40.6589 49.9867 40.5203 49.4653C40.4011 49.0175 40.2699 48.5772 40.1264 48.1418C37.807 41.1013 32.3322 35.5615 25.3738 33.215C24.9435 33.0699 24.5083 32.9371 24.0658 32.8165ZM53.9163 31.5669C53.8717 31.589 53.827 31.6112 53.7825 31.6335L53.8633 31.5406L53.9163 31.5669ZM12.42 49.2072C13.3074 49.3794 14.1486 49.6795 14.9242 50.0878C15.267 50.2698 15.6 50.474 15.9161 50.6979C16.7987 51.3202 17.5645 52.0951 18.1796 52.9881C18.4008 53.3078 18.6026 53.6449 18.7825 53.9917C19.1861 54.7765 19.4827 55.6276 19.6529 56.5254C19.6565 56.5439 19.6596 56.5623 19.6626 56.5807L19.6626 56.5808C19.6657 56.5992 19.6687 56.6177 19.6724 56.6361C19.7331 56.9731 20.2097 56.9731 20.2704 56.6361C20.2722 56.6271 20.2739 56.6181 20.2754 56.609C20.2771 56.5996 20.2786 56.5902 20.2802 56.5808C20.2832 56.5623 20.2862 56.5439 20.2899 56.5254C20.4601 55.6275 20.7567 54.7765 21.1602 53.9917C21.3402 53.6449 21.5419 53.3079 21.7632 52.9881C22.3783 52.0951 23.1442 51.3202 24.0267 50.6979C24.3427 50.474 24.6758 50.2698 25.0186 50.0878C25.7942 49.6795 26.6354 49.3794 27.5228 49.2072C27.541 49.2035 27.5592 49.2004 27.5774 49.1974C27.5957 49.1943 27.6139 49.1912 27.6322 49.1875C27.9653 49.126 27.9653 48.6439 27.6322 48.5824C27.6139 48.5787 27.5957 48.5756 27.5775 48.5725C27.5666 48.5707 27.5557 48.5688 27.5447 48.5669C27.5374 48.5655 27.5301 48.5642 27.5228 48.5627C26.6354 48.3905 25.7942 48.0904 25.0186 47.682C24.6758 47.5 24.3428 47.2958 24.0267 47.072C23.1441 46.4496 22.3783 45.6747 21.7632 44.7818C21.5419 44.462 21.3402 44.125 21.1602 43.7781C20.7567 42.9934 20.46 42.1423 20.2899 41.2444C20.2862 41.226 20.2832 41.2076 20.2802 41.1891L20.2802 41.1891C20.2771 41.1706 20.2741 41.1522 20.2704 41.1337C20.2097 40.7967 19.7331 40.7967 19.6724 41.1337C19.6687 41.1522 19.6657 41.1706 19.6626 41.1891C19.6596 41.2075 19.6565 41.226 19.6529 41.2444C19.4827 42.1423 19.1861 42.9934 18.7825 43.7781C18.6026 44.125 18.4008 44.462 18.1796 44.7818C17.5645 45.6748 16.7986 46.4496 15.9161 47.072C15.6001 47.2958 15.267 47.5 14.9242 47.682C14.1486 48.0904 13.3074 48.3905 12.42 48.5627C12.4018 48.5664 12.3836 48.5694 12.3653 48.5725C12.3471 48.5756 12.3289 48.5787 12.3106 48.5824C11.9775 48.6439 11.9775 49.126 12.3106 49.1875C12.3289 49.1912 12.3471 49.1943 12.3654 49.1974C12.3779 49.1995 12.3905 49.2016 12.403 49.2039C12.4087 49.2049 12.4143 49.206 12.42 49.2072ZM19.9715 50.1936C19.5728 49.7262 19.1401 49.2884 18.6781 48.8849C19.1401 48.4815 19.5728 48.0437 19.9715 47.5763C20.3703 48.0437 20.803 48.4815 21.2649 48.8849C20.803 49.2884 20.3702 49.7262 19.9715 50.1936Z" fill="#2D6FFF"></path>
                        </svg>
