<svg width="100%" height="100%" viewBox="0 0 65 65" fill="none" xmlns="http://www.w3.org/2000/svg">
                          <path d="M51.8193 10.8193C51.8193 11.0846 51.714 11.3389 51.5264 11.5264C51.3389 11.714 51.0846 11.8193 50.8193 11.8193H43.4968C41.8571 11.8193 40.2695 12.3949 39.0107 13.4458C37.752 14.4966 36.9021 15.956 36.6093 17.5693L34.0168 31.8193H46.8193C47.0846 31.8193 47.3389 31.9247 47.5264 32.1122C47.714 32.2998 47.8193 32.5541 47.8193 32.8193C47.8193 33.0846 47.714 33.3389 47.5264 33.5264C47.3389 33.714 47.0846 33.8193 46.8193 33.8193H33.6543L30.9968 48.4293C30.6198 50.5031 29.5269 52.3787 27.9087 53.7292C26.2904 55.0797 24.2496 55.8194 22.1418 55.8193H14.8193C14.5541 55.8193 14.2998 55.714 14.1122 55.5264C13.9247 55.3389 13.8193 55.0846 13.8193 54.8193C13.8193 54.5541 13.9247 54.2998 14.1122 54.1122C14.2998 53.9247 14.5541 53.8193 14.8193 53.8193H22.1418C23.7815 53.8193 25.3692 53.2437 26.6279 52.1929C27.8867 51.142 28.7365 49.6827 29.0293 48.0693L31.6218 33.8193H18.8193C18.5541 33.8193 18.2998 33.714 18.1122 33.5264C17.9247 33.3389 17.8193 33.0846 17.8193 32.8193C17.8193 32.5541 17.9247 32.2998 18.1122 32.1122C18.2998 31.9247 18.5541 31.8193 18.8193 31.8193H31.9843L34.6418 17.2093C35.0189 15.1356 36.1118 13.26 37.73 11.9095C39.3482 10.559 41.3891 9.81929 43.4968 9.81934H50.8193C51.0846 9.81934 51.3389 9.92469 51.5264 10.1122C51.714 10.2998 51.8193 10.5541 51.8193 10.8193Z" fill="#2D6FFF"></path>
                        </svg>
