<svg width="100%" height="100%" viewBox="0 0 65 65" fill="none" xmlns="http://www.w3.org/2000/svg">
                          <path d="M61.8194 20.8193C61.8212 19.848 61.5871 18.8909 61.1374 18.03C60.6877 17.1691 60.0357 16.4303 59.2374 15.877C58.4391 15.3237 57.5185 14.9724 56.5545 14.8534C55.5906 14.7344 54.6121 14.8512 53.7033 15.1937C52.7944 15.5363 51.9823 16.0944 51.3367 16.82C50.6911 17.5457 50.2313 18.4172 49.9968 19.3598C49.7624 20.3023 49.7602 21.2877 49.9906 22.2313C50.2209 23.1748 50.6769 24.0484 51.3194 24.7768L43.0694 34.9118L36.0944 18.8418C37.1779 18.1359 38.0044 17.0989 38.4507 15.8851C38.897 14.6714 38.9392 13.3459 38.5711 12.1063C38.2029 10.8666 37.4441 9.77903 36.4076 9.00565C35.3712 8.23227 34.1126 7.81445 32.8194 7.81445C31.5262 7.81445 30.2676 8.23227 29.2311 9.00565C28.1947 9.77903 27.4358 10.8666 27.0677 12.1063C26.6995 13.3459 26.7417 14.6714 27.188 15.8851C27.6343 17.0989 28.4608 18.1359 29.5444 18.8418L22.5694 34.9118L14.3194 24.7768C15.2237 23.7462 15.7479 22.437 15.8045 21.067C15.8611 19.697 15.4467 18.349 14.6304 17.2473C13.8142 16.1456 12.6452 15.3568 11.3181 15.012C9.99096 14.6673 8.58583 14.7875 7.33657 15.3527C6.08731 15.9178 5.06931 16.8938 4.45202 18.1181C3.83473 19.3424 3.6554 20.7413 3.94388 22.0817C4.23237 23.4222 4.97126 24.6234 6.03756 25.4854C7.10386 26.3473 8.43323 26.8181 9.80437 26.8193L13.5544 49.3193C13.6726 50.0187 14.0348 50.6536 14.5767 51.1112C15.1185 51.5689 15.8051 51.8198 16.5144 51.8193H49.1244C49.8337 51.8198 50.5202 51.5689 51.0621 51.1112C51.604 50.6536 51.9662 50.0187 52.0844 49.3193L55.8344 26.8193C57.4231 26.8153 58.9453 26.1815 60.0673 25.0567C61.1893 23.9319 61.8194 22.408 61.8194 20.8193ZM32.8194 9.81932C33.6105 9.81932 34.3839 10.0539 35.0417 10.4934C35.6994 10.933 36.2121 11.5577 36.5149 12.2886C36.8176 13.0195 36.8969 13.8238 36.7425 14.5997C36.5882 15.3756 36.2072 16.0883 35.6478 16.6477C35.0884 17.2072 34.3757 17.5881 33.5997 17.7425C32.8238 17.8968 32.0195 17.8176 31.2886 17.5148C30.5577 17.2121 29.933 16.6994 29.4935 16.0416C29.054 15.3838 28.8194 14.6104 28.8194 13.8193C28.8194 12.7584 29.2408 11.741 29.9909 10.9909C30.7411 10.2407 31.7585 9.81932 32.8194 9.81932ZM5.81937 20.8193C5.81937 20.0282 6.05396 19.2548 6.49349 18.597C6.93302 17.9392 7.55773 17.4265 8.28863 17.1238C9.01954 16.821 9.82381 16.7418 10.5997 16.8962C11.3757 17.0505 12.0884 17.4315 12.6478 17.9909C13.2072 18.5503 13.5882 19.263 13.7425 20.039C13.8969 20.8149 13.8176 21.6191 13.5149 22.35C13.2121 23.081 12.6994 23.7057 12.0416 24.1452C11.3839 24.5847 10.6105 24.8193 9.81937 24.8193C8.7585 24.8193 7.74109 24.3979 6.99094 23.6477C6.2408 22.8976 5.81937 21.8802 5.81937 20.8193ZM50.1119 48.9843C50.0728 49.2179 49.9521 49.43 49.7713 49.5829C49.5904 49.7358 49.3612 49.8196 49.1244 49.8193H16.5144C16.2754 49.8226 16.0432 49.7402 15.8597 49.587C15.6763 49.4338 15.5538 49.22 15.5144 48.9843L11.7644 26.4843C12.1111 26.3659 12.4459 26.2153 12.7644 26.0343L22.0444 37.4493C22.138 37.5647 22.2561 37.6577 22.3901 37.7217C22.5242 37.7857 22.6708 37.8191 22.8194 37.8193C22.8643 37.823 22.9094 37.823 22.9544 37.8193C23.1247 37.7962 23.2862 37.7295 23.4233 37.6257C23.5604 37.5219 23.6684 37.3845 23.7369 37.2268L31.3769 19.6518C32.324 19.8885 33.3148 19.8885 34.2619 19.6518L41.9019 37.2268C41.9704 37.3845 42.0784 37.5219 42.2154 37.6257C42.3525 37.7295 42.514 37.7962 42.6844 37.8193C42.7293 37.823 42.7744 37.823 42.8194 37.8193C42.9679 37.8191 43.1146 37.7857 43.2486 37.7217C43.3827 37.6577 43.5008 37.5647 43.5944 37.4493L52.8669 26.0393C53.1854 26.2203 53.5202 26.3709 53.8669 26.4893L50.1119 48.9843ZM55.8194 24.8193C55.0282 24.8193 54.2549 24.5847 53.5971 24.1452C52.9393 23.7057 52.4266 23.081 52.1239 22.35C51.8211 21.6191 51.7419 20.8149 51.8962 20.039C52.0506 19.263 52.4315 18.5503 52.9909 17.9909C53.5504 17.4315 54.2631 17.0505 55.039 16.8962C55.8149 16.7418 56.6192 16.821 57.3501 17.1238C58.081 17.4265 58.7057 17.9392 59.1452 18.597C59.5848 19.2548 59.8194 20.0282 59.8194 20.8193C59.8194 21.8802 59.3979 22.8976 58.6478 23.6477C57.8977 24.3979 56.8802 24.8193 55.8194 24.8193Z" fill="#2D6FFF"></path>
                        </svg>
