<svg width="100%" height="100%" viewBox="0 0 65 65" fill="none" xmlns="http://www.w3.org/2000/svg">
                          <path d="M55.8193 12.8194V24.8194C55.8193 25.0846 55.714 25.339 55.5264 25.5265C55.3389 25.714 55.0846 25.8194 54.8193 25.8194H42.8193C42.5541 25.8194 42.2998 25.714 42.1122 25.5265C41.9247 25.339 41.8193 25.0846 41.8193 24.8194C41.8193 24.5542 41.9247 24.2998 42.1122 24.1123C42.2998 23.9247 42.5541 23.8194 42.8193 23.8194H52.4043L47.0418 18.4544C43.1337 14.5466 37.8426 12.337 32.316 12.3047C26.7894 12.2724 21.4729 14.4201 17.5193 18.2819C17.4254 18.3738 17.3144 18.4463 17.1924 18.4953C17.0705 18.5443 16.9401 18.5688 16.8087 18.5674C16.6773 18.566 16.5475 18.5388 16.4266 18.4872C16.3058 18.4357 16.1963 18.3608 16.1043 18.2669C16.0124 18.173 15.9399 18.0619 15.8909 17.94C15.8419 17.8181 15.8174 17.6877 15.8188 17.5563C15.8202 17.4249 15.8474 17.2951 15.899 17.1742C15.9506 17.0533 16.0254 16.9438 16.1193 16.8519C20.4496 12.6221 26.2727 10.27 32.3259 10.3056C38.379 10.3411 44.1741 12.7616 48.4543 17.0419L53.8193 22.4044V12.8194C53.8193 12.5542 53.9247 12.2998 54.1122 12.1123C54.2998 11.9247 54.5541 11.8194 54.8193 11.8194C55.0846 11.8194 55.3389 11.9247 55.5264 12.1123C55.714 12.2998 55.8193 12.5542 55.8193 12.8194ZM48.1193 47.3569C44.2055 51.2008 38.9351 53.3484 33.4493 53.3344H33.3318C27.7994 53.3175 22.4998 51.1056 18.5968 47.1844L13.2343 41.8194H22.8193C23.0846 41.8194 23.3389 41.714 23.5264 41.5265C23.714 41.339 23.8193 41.0846 23.8193 40.8194C23.8193 40.5542 23.714 40.2998 23.5264 40.1123C23.3389 39.9247 23.0846 39.8194 22.8193 39.8194H10.8193C10.5541 39.8194 10.2998 39.9247 10.1122 40.1123C9.92469 40.2998 9.81934 40.5542 9.81934 40.8194V52.8194C9.81934 53.0846 9.92469 53.339 10.1122 53.5265C10.2998 53.714 10.5541 53.8194 10.8193 53.8194C11.0846 53.8194 11.3389 53.714 11.5264 53.5265C11.714 53.339 11.8193 53.0846 11.8193 52.8194V43.2344L17.1843 48.5969C21.4572 52.8924 27.2606 55.3157 33.3193 55.3344H33.4468C39.4558 55.3485 45.2288 52.9964 49.5168 48.7869C49.6107 48.695 49.6856 48.5854 49.7372 48.4646C49.7887 48.3437 49.816 48.2139 49.8174 48.0825C49.8188 47.9511 49.7943 47.8207 49.7453 47.6988C49.6963 47.5769 49.6238 47.4658 49.5318 47.3719C49.4399 47.278 49.3304 47.2031 49.2095 47.1516C49.0887 47.1 48.9588 47.0727 48.8274 47.0713C48.696 47.0699 48.5657 47.0944 48.4437 47.1434C48.3218 47.1924 48.2107 47.265 48.1168 47.3569H48.1193Z" fill="#2D6FFF"></path>
                        </svg>
