<svg xmlns="http://www.w3.org/2000/svg" width="30" height="30" fill="none"><path fill="#000" d="M27.25 14.5a2.25 2.25 0 1 1-4.5 0 2.25 2.25 0 0 1 4.5 0M7.25 14.5a2.25 2.25 0 1 1-4.5 0 2.25 2.25 0 0 1 4.5 0M17.25 4.5a2.25 2.25 0 1 1-4.5 0 2.25 2.25 0 0 1 4.5 0M17.25 24.5a2.25 2.25 0 1 1-4.5 0 2.25 2.25 0 0 1 4.5 0M6.5 4.75a1.5 1.5 0 1 1-3 0 1.5 1.5 0 0 1 3 0M6.5 24.75a1.5 1.5 0 1 1-3 0 1.5 1.5 0 0 1 3 0M16.5 14.5a1.5 1.5 0 1 1-3 0 1.5 1.5 0 0 1 3 0M26.5 24.75a1.5 1.5 0 1 1-3 0 1.5 1.5 0 0 1 3 0M26.5 4.75a1.5 1.5 0 1 1-3 0 1.5 1.5 0 0 1 3 0"/></svg>