<svg xmlns="http://www.w3.org/2000/svg" width="30" height="30" fill="none"><path stroke="#000" stroke-linecap="round" stroke-linejoin="round" stroke-width="2" d="M20.72 4.137a5.254 5.254 0 0 0-5.253 5.256q.002.616.135 1.195a14.92 14.92 0 0 1-10.829-5.49 5.25 5.25 0 0 0-.71 2.641c0 1.823.928 3.432 2.337 4.374a5.24 5.24 0 0 1-2.38-.658v.068a5.256 5.256 0 0 0 4.214 5.152 5.3 5.3 0 0 1-2.372.09 5.26 5.26 0 0 0 4.908 3.647 10.54 10.54 0 0 1-6.526 2.25q-.636 0-1.254-.073a14.86 14.86 0 0 0 8.053 2.36c9.665 0 14.948-8.005 14.948-14.947 0-2.96-2.094-5.865-5.271-5.865"/><path fill="#000" d="M26.393 7.138a10.5 10.5 0 0 0 3.017-.827l-.003.003a10.7 10.7 0 0 1-2.62 2.718l-1.42-3.527a10.5 10.5 0 0 0 3.336-1.275 5.27 5.27 0 0 1-2.31 2.908"/></svg>