<?xml version="1.0" encoding="UTF-8" standalone="no"?><!DOCTYPE svg PUBLIC "-//W3C//DTD SVG 1.1//EN" "http://www.w3.org/Graphics/SVG/1.1/DTD/svg11.dtd"><svg width="100%" height="100%" viewBox="0 0 1067 1067" version="1.1" xmlns="http://www.w3.org/2000/svg" xmlns:xlink="http://www.w3.org/1999/xlink" xml:space="preserve" xmlns:serif="http://www.serif.com/" style="fill-rule:evenodd;clip-rule:evenodd;stroke-linejoin:round;stroke-miterlimit:2;"><rect id="icon-dxns" x="0" y="0" width="1066.67" height="1066.67" style="fill:none;"/><path d="M49.285,99.535l177.778,166.671l6.691,3.57l475.431,109.84l13.257,-3.57l294.94,-276.511l-9.975,-25.222l-948.148,0l-9.974,25.222Zm46.852,3.944l148.009,138.763l464.023,107.204l262.361,-245.967l-874.393,0Z"/><path d="M240.121,269.814l770.37,-166.672l-6.167,-28.507l-770.371,166.671l6.168,28.508Z"/><path d="M533.327,513.34l169.16,-158.577l19.948,21.279l-179.134,167.927l-19.948,-0.001l-296.296,-277.766l19.947,-21.279l286.323,268.417Z"/><path d="M59.259,992.354l948.148,0l9.975,-25.222l-294.94,-276.511l-13.257,-3.57l-475.431,109.84l-6.691,3.57l-177.778,166.671l9.974,25.222Zm184.887,-167.929l-148.009,138.762l874.393,0l-262.361,-245.966l-464.023,107.204Z"/><path d="M233.953,825.36l770.371,166.671l6.167,-28.507l-770.37,-166.671l-6.168,28.507Z"/><path d="M533.327,553.328l-286.323,268.417l-19.947,-21.279l296.296,-277.766l19.948,0l179.134,167.926l-19.948,21.279l-169.16,-158.577Z"/></svg>