<?xml version="1.0" encoding="UTF-8"?>
<svg id="Layer_1" data-name="Layer 1" xmlns="http://www.w3.org/2000/svg" viewBox="0 0 256 256">
  <defs>
    <style>
      .cls-1 {
        fill-rule: evenodd;
        fill: currentColor;
      }
    </style>
  </defs>
  <path class="cls-1" d="M155.28,81.9c-25.43,0-46.12,20.69-46.1,46.13s21.16,46.08,46.5,46.08h34.97c1.98,0,3.72-1.28,4.32-3.16l7.74-24.37c.93-2.92-1.25-5.91-4.32-5.91h-42.89c-6.93,0-12.74-5.48-12.87-12.42s5.6-12.91,12.66-12.91h.1c1.98,0,3.73-1.28,4.32-3.17l7.68-24.37c.92-2.92-1.26-5.9-4.32-5.9h-7.78Z"/>
  <path class="cls-1" d="M155.28,40.41c-11.82,0-23.29,2.32-34.1,6.89-10.43,4.41-19.8,10.73-27.84,18.76-8.04,8.04-14.35,17.4-18.76,27.84-4.57,10.81-6.89,22.28-6.89,34.1s2.32,23.29,6.89,34.1c4.41,10.43,10.73,19.8,18.76,27.84,8.04,8.04,17.4,14.35,27.84,18.76,10.81,4.57,22.28,6.89,34.1,6.89h22.06c1.98,0,3.72-1.28,4.32-3.16l7.74-24.37c.93-2.92-1.25-5.91-4.32-5.91h-29.33c-29.77,0-54.6-24.35-54.62-54.12-.01-29.87,24.28-54.18,54.15-54.18h13.04c1.98,0,3.73-1.28,4.32-3.17l7.68-24.37c.92-2.92-1.26-5.9-4.32-5.9h-20.72Z"/>
  <path class="cls-1" d="M155.28.34c-17.23,0-33.95,3.38-49.7,10.04-15.2,6.43-28.86,15.63-40.57,27.35-11.72,11.72-20.92,25.37-27.35,40.57-6.66,15.75-10.04,32.47-10.04,49.7s3.38,33.95,10.04,49.7c6.43,15.2,15.63,28.86,27.35,40.57,11.72,11.72,25.37,20.92,40.57,27.35,15.75,6.66,32.47,10.04,49.7,10.04h9.48c1.98,0,3.72-1.28,4.32-3.16l7.74-24.37c.93-2.92-1.25-5.91-4.32-5.91h-17.22c-25.17,0-48.83-9.8-66.62-27.6-17.73-17.73-27.52-41.27-27.6-66.33s9.61-48.6,26.94-66.26,41.8-28.26,67.28-28.26h25.81c1.98,0,3.73-1.28,4.32-3.17l7.68-24.37c.92-2.92-1.26-5.9-4.32-5.9h-33.49Z"/>
</svg>