<svg width="65" height="65" viewBox="0 0 65 65" fill="none" xmlns="http://www.w3.org/2000/svg">
                    <path d="M9.81934 16.8193C9.81934 16.5541 9.92469 16.2998 10.1122 16.1122C10.2998 15.9247 10.5541 15.8193 10.8193 15.8193H54.8193C55.0846 15.8193 55.3389 15.9247 55.5264 16.1122C55.714 16.2998 55.8193 16.5541 55.8193 16.8193C55.8193 17.0846 55.714 17.3389 55.5264 17.5264C55.3389 17.714 55.0846 17.8193 54.8193 17.8193H10.8193C10.5541 17.8193 10.2998 17.714 10.1122 17.5264C9.92469 17.3389 9.81934 17.0846 9.81934 16.8193ZM10.8193 33.8193H28.8193C29.0846 33.8193 29.3389 33.714 29.5264 33.5264C29.714 33.3389 29.8193 33.0846 29.8193 32.8193C29.8193 32.5541 29.714 32.2998 29.5264 32.1122C29.3389 31.9247 29.0846 31.8193 28.8193 31.8193H10.8193C10.5541 31.8193 10.2998 31.9247 10.1122 32.1122C9.92469 32.2998 9.81934 32.5541 9.81934 32.8193C9.81934 33.0846 9.92469 33.3389 10.1122 33.5264C10.2998 33.714 10.5541 33.8193 10.8193 33.8193ZM32.8193 47.8193H10.8193C10.5541 47.8193 10.2998 47.9247 10.1122 48.1122C9.92469 48.2998 9.81934 48.5541 9.81934 48.8193C9.81934 49.0846 9.92469 49.3389 10.1122 49.5264C10.2998 49.714 10.5541 49.8193 10.8193 49.8193H32.8193C33.0846 49.8193 33.3389 49.714 33.5264 49.5264C33.714 49.3389 33.8193 49.0846 33.8193 48.8193C33.8193 48.5541 33.714 48.2998 33.5264 48.1122C33.3389 47.9247 33.0846 47.8193 32.8193 47.8193ZM59.5268 49.5268C59.434 49.6198 59.3237 49.6936 59.2023 49.7439C59.0809 49.7942 58.9508 49.8201 58.8193 49.8201C58.6879 49.8201 58.5578 49.7942 58.4364 49.7439C58.315 49.6936 58.2047 49.6198 58.1118 49.5268L52.4318 43.8468C50.6318 45.2852 48.3492 45.9798 46.0531 45.7878C43.7569 45.5958 41.6214 44.5319 40.0851 42.8146C38.5489 41.0972 37.7286 38.8568 37.7926 36.5535C37.8567 34.2502 38.8003 32.0589 40.4296 30.4296C42.0589 28.8003 44.2502 27.8567 46.5535 27.7926C48.8568 27.7286 51.0972 28.5489 52.8146 30.0851C54.5319 31.6214 55.5958 33.7569 55.7878 36.0531C55.9798 38.3492 55.2852 40.6318 53.8468 42.4318L59.5268 48.1118C59.6198 48.2047 59.6936 48.315 59.7439 48.4364C59.7942 48.5578 59.8201 48.6879 59.8201 48.8193C59.8201 48.9508 59.7942 49.0809 59.7439 49.2023C59.6936 49.3237 59.6198 49.434 59.5268 49.5268ZM46.8193 43.8193C48.2038 43.8193 49.5572 43.4088 50.7083 42.6396C51.8595 41.8705 52.7567 40.7772 53.2865 39.4981C53.8163 38.219 53.9549 36.8116 53.6848 35.4537C53.4147 34.0958 52.7481 32.8486 51.7691 31.8696C50.7901 30.8906 49.5428 30.2239 48.185 29.9538C46.8271 29.6837 45.4196 29.8224 44.1406 30.3522C42.8615 30.882 41.7682 31.7792 40.9991 32.9303C40.2299 34.0815 39.8193 35.4349 39.8193 36.8193C39.8193 38.6759 40.5568 40.4563 41.8696 41.7691C43.1823 43.0818 44.9628 43.8193 46.8193 43.8193Z" fill="#2D6FFF"></path>
                  </svg>
