<svg width="65" height="65" viewBox="0 0 65 65" fill="none" xmlns="http://www.w3.org/2000/svg">
                        <path d="M50.8194 39.8193C49.0096 39.818 47.2702 40.5209 45.9694 41.7793L38.8995 36.2793C39.5032 35.2262 39.8204 34.0333 39.8194 32.8193C39.8193 32.4001 39.7817 31.9818 39.7069 31.5693L44.5694 29.9568C45.3651 31.5429 46.7321 32.7687 48.3953 33.3874C50.0584 34.006 51.8942 33.9717 53.533 33.2912C55.1718 32.6107 56.492 31.3347 57.2278 29.7199C57.9635 28.1052 58.0602 26.2716 57.4984 24.5884C56.9366 22.9052 55.758 21.4974 54.1999 20.6483C52.6417 19.7992 50.8198 19.5719 49.1008 20.0121C47.3818 20.4524 45.8934 21.5276 44.9353 23.0211C43.9772 24.5147 43.6205 26.3158 43.9369 28.0618L39.0694 29.6818C38.4879 28.5221 37.5956 27.5467 36.4919 26.8647C35.3883 26.1826 34.1168 25.8207 32.8194 25.8193C32.1769 25.819 31.5374 25.9082 30.9194 26.0843L28.5444 20.7418C29.9717 19.8426 31.0262 18.4582 31.514 16.8434C32.0017 15.2285 31.8899 13.4919 31.1991 11.9529C30.5084 10.4139 29.2851 9.17613 27.7543 8.4673C26.2236 7.75848 24.4883 7.62627 22.8679 8.09501C21.2474 8.56375 19.8507 9.6019 18.9347 11.0185C18.0188 12.435 17.6452 14.1347 17.8827 15.8048C18.1202 17.4749 18.9528 19.0031 20.2273 20.1082C21.5018 21.2132 23.1325 21.8209 24.8194 21.8193C25.462 21.8196 26.1015 21.7305 26.7194 21.5543L29.0944 26.8968C28.305 27.392 27.6225 28.04 27.0872 28.8029C26.5519 29.5657 26.1747 30.4279 25.9776 31.3388C25.7805 32.2496 25.7676 33.1906 25.9397 34.1065C26.1117 35.0224 26.4653 35.8946 26.9794 36.6718L19.3194 43.4718C17.968 42.3296 16.2341 41.7415 14.4665 41.826C12.699 41.9105 11.0291 42.6613 9.79275 43.9272C8.55641 45.1932 7.84541 46.8805 7.80281 48.6495C7.76021 50.4185 8.38917 52.138 9.56314 53.4621C10.7371 54.7861 12.369 55.6164 14.1304 55.7858C15.8918 55.9553 17.652 55.4514 19.0569 54.3755C20.4618 53.2996 21.407 51.7316 21.7025 49.9869C21.998 48.2422 21.6217 46.4503 20.6494 44.9718L28.2994 38.1718C29.6202 39.29 31.3091 39.8776 33.0387 39.8208C34.7682 39.764 36.415 39.0667 37.6594 37.8643L44.7294 43.3643C43.97 44.7025 43.6726 46.2536 43.8833 47.7777C44.094 49.3019 44.8009 50.7141 45.8948 51.7961C46.9888 52.8781 48.4087 53.5696 49.9351 53.7635C51.4614 53.9574 53.0092 53.6431 54.3389 52.869C55.6687 52.095 56.7063 50.9044 57.2915 49.4813C57.8766 48.0583 57.9766 46.4821 57.5759 44.9966C57.1753 43.511 56.2963 42.1989 55.075 41.263C53.8537 40.3272 52.3581 39.8198 50.8194 39.8193ZM50.8194 21.8193C51.8084 21.8193 52.7751 22.1126 53.5973 22.662C54.4195 23.2114 55.0604 23.9923 55.4388 24.9059C55.8173 25.8196 55.9163 26.8249 55.7234 27.7948C55.5304 28.7647 55.0542 29.6556 54.355 30.3549C53.6557 31.0541 52.7648 31.5303 51.7949 31.7233C50.825 31.9162 49.8197 31.8172 48.906 31.4387C47.9924 31.0603 47.2115 30.4194 46.6621 29.5972C46.1127 28.7749 45.8194 27.8082 45.8194 26.8193C45.8194 25.4933 46.3462 24.2215 47.2839 23.2838C48.2216 22.3461 49.4934 21.8193 50.8194 21.8193ZM19.8194 14.8193C19.8194 13.8304 20.1127 12.8637 20.6621 12.0415C21.2115 11.2192 21.9924 10.5784 22.906 10.1999C23.8197 9.8215 24.825 9.72248 25.7949 9.91541C26.7648 10.1083 27.6557 10.5845 28.355 11.2838C29.0542 11.9831 29.5304 12.874 29.7234 13.8439C29.9163 14.8138 29.8173 15.8191 29.4388 16.7328C29.0604 17.6464 28.4195 18.4273 27.5973 18.9767C26.7751 19.5261 25.8084 19.8193 24.8194 19.8193C23.4934 19.8193 22.2216 19.2926 21.2839 18.3549C20.3462 17.4172 19.8194 16.1454 19.8194 14.8193ZM14.8194 53.8193C13.8305 53.8193 12.8638 53.5261 12.0416 52.9767C11.2194 52.4273 10.5785 51.6464 10.2 50.7328C9.82161 49.8191 9.7226 48.8138 9.91552 47.8439C10.1084 46.874 10.5847 45.9831 11.2839 45.2838C11.9832 44.5845 12.8741 44.1083 13.844 43.9154C14.8139 43.7225 15.8192 43.8215 16.7329 44.1999C17.6465 44.5784 18.4274 45.2192 18.9768 46.0415C19.5262 46.8637 19.8194 47.8304 19.8194 48.8193C19.8194 50.1454 19.2927 51.4172 18.355 52.3549C17.4173 53.2926 16.1455 53.8193 14.8194 53.8193ZM32.8194 37.8193C31.8305 37.8193 30.8638 37.5261 30.0416 36.9767C29.2194 36.4273 28.5785 35.6464 28.2001 34.7328C27.8216 33.8191 27.7226 32.8138 27.9155 31.8439C28.1084 30.874 28.5847 29.9831 29.2839 29.2838C29.9832 28.5845 30.8741 28.1083 31.844 27.9154C32.8139 27.7225 33.8192 27.8215 34.7329 28.1999C35.6465 28.5784 36.4274 29.2192 36.9768 30.0415C37.5262 30.8637 37.8194 31.8304 37.8194 32.8193C37.8194 34.1454 37.2927 35.4172 36.355 36.3549C35.4173 37.2926 34.1455 37.8193 32.8194 37.8193ZM50.8194 51.8193C49.8305 51.8193 48.8638 51.5261 48.0416 50.9767C47.2193 50.4273 46.5785 49.6464 46.2001 48.7328C45.8216 47.8191 45.7226 46.8138 45.9155 45.8439C46.1084 44.874 46.5847 43.9831 47.2839 43.2838C47.9832 42.5845 48.8741 42.1083 49.844 41.9154C50.8139 41.7225 51.8192 41.8215 52.7329 42.1999C53.6465 42.5784 54.4274 43.2192 54.9768 44.0415C55.5262 44.8637 55.8194 45.8304 55.8194 46.8193C55.8194 48.1454 55.2927 49.4172 54.355 50.3549C53.4173 51.2926 52.1455 51.8193 50.8194 51.8193Z" fill="#2D6FFF"></path>
                      </svg>
