<svg width="65" height="65" viewBox="0 0 65 65" fill="none" xmlns="http://www.w3.org/2000/svg">
                        <path d="M53.8194 25.8194C52.8003 25.8157 51.7974 26.0739 50.9069 26.5694L42.2944 15.8194C42.9806 15.0509 43.4574 14.1187 43.6789 13.1125C43.9003 12.1063 43.8589 11.06 43.5586 10.0745C43.2584 9.08891 42.7094 8.19726 41.9646 7.48542C41.2198 6.77358 40.3042 6.26552 39.3061 6.01018C38.3079 5.75484 37.2609 5.76083 36.2657 6.02756C35.2705 6.2943 34.3608 6.81279 33.6242 7.5331C32.8876 8.25342 32.3488 9.15128 32.0599 10.1402C31.7709 11.1291 31.7415 12.1758 31.9744 13.1794L18.8919 18.6219C18.3532 17.7651 17.6065 17.0585 16.7213 16.5679C15.8361 16.0772 14.8412 15.8184 13.8291 15.8156C12.817 15.8128 11.8207 16.0661 10.9328 16.5518C10.0449 17.0376 9.29433 17.74 8.75087 18.5938C8.20742 19.4476 7.88878 20.425 7.82458 21.4351C7.76039 22.4451 7.95274 23.455 8.38373 24.3707C8.81472 25.2864 9.47034 26.0782 10.2896 26.6725C11.1089 27.2667 12.0651 27.6441 13.0694 27.7694L13.5969 40.9469C12.5957 41.1546 11.6642 41.6147 10.8908 42.2836C10.1174 42.9524 9.52779 43.8078 9.17788 44.7686C8.82798 45.7294 8.72941 46.7636 8.89153 47.7732C9.05365 48.7827 9.47109 49.7341 10.1042 50.537C10.7374 51.3399 11.5652 51.9677 12.5091 52.3608C13.453 52.7539 14.4818 52.8992 15.4976 52.783C16.5135 52.6667 17.4828 52.2928 18.3136 51.6967C19.1443 51.1006 19.809 50.3021 20.2444 49.3769L33.8519 53.1869C33.8319 53.3944 33.8194 53.6069 33.8194 53.8194C33.8187 54.8194 34.0681 55.8037 34.5446 56.6829C35.0212 57.562 35.71 58.3081 36.5483 58.8533C37.3867 59.3984 38.348 59.7254 39.3448 59.8045C40.3417 59.8836 41.3425 59.7123 42.2564 59.3062C43.1702 58.9 43.968 58.2719 44.5772 57.4789C45.1865 56.6859 45.5879 55.7532 45.7449 54.7656C45.902 53.778 45.8097 52.7668 45.4765 51.824C45.1432 50.8811 44.5796 50.0365 43.8369 49.3669L51.4869 37.3469C52.2246 37.66 53.018 37.8207 53.8194 37.8194C55.4107 37.8194 56.9368 37.1873 58.062 36.0621C59.1873 34.9368 59.8194 33.4107 59.8194 31.8194C59.8194 30.2281 59.1873 28.702 58.062 27.5768C56.9368 26.4516 55.4107 25.8194 53.8194 25.8194ZM47.8644 31.1019L34.0994 31.7569L37.4219 17.8044C37.5536 17.8144 37.6861 17.8194 37.8194 17.8194C38.8385 17.8232 39.8414 17.5649 40.7319 17.0694L49.3444 27.8194C48.5254 28.7355 48.0086 29.8816 47.8644 31.1019ZM18.8644 42.3994C17.9528 41.5607 16.8032 41.0261 15.5744 40.8694L15.0469 27.6919C16.3717 27.4104 17.5627 26.6898 18.4269 25.6469L31.0269 32.9419L18.8644 42.3994ZM37.8194 7.81942C38.6105 7.81942 39.3839 8.05402 40.0417 8.49354C40.6995 8.93307 41.2122 9.55778 41.5149 10.2887C41.8177 11.0196 41.8969 11.8239 41.7425 12.5998C41.5882 13.3757 41.2072 14.0884 40.6478 14.6478C40.0884 15.2073 39.3757 15.5882 38.5998 15.7426C37.8238 15.8969 37.0196 15.8177 36.2887 15.5149C35.5578 15.2122 34.9331 14.6995 34.4935 14.0417C34.054 13.3839 33.8194 12.6105 33.8194 11.8194C33.8194 10.7586 34.2408 9.74114 34.991 8.99099C35.7411 8.24085 36.7585 7.81942 37.8194 7.81942ZM32.7469 15.0169C33.3986 16.0521 34.3512 16.8633 35.4769 17.3419L32.1569 31.2819L19.4394 23.9169C19.6911 23.2463 19.8199 22.5357 19.8194 21.8194C19.819 21.3642 19.767 20.9105 19.6644 20.4669L32.7469 15.0169ZM9.8194 21.8194C9.8194 21.0283 10.054 20.2549 10.4935 19.5971C10.933 18.9393 11.5578 18.4267 12.2887 18.1239C13.0196 17.8212 13.8238 17.7419 14.5998 17.8963C15.3757 18.0506 16.0884 18.4316 16.6478 18.991C17.2072 19.5504 17.5882 20.2631 17.7425 21.0391C17.8969 21.815 17.8177 22.6192 17.5149 23.3502C17.2122 24.0811 16.6995 24.7058 16.0417 25.1453C15.3839 25.5848 14.6105 25.8194 13.8194 25.8194C12.7585 25.8194 11.7411 25.398 10.991 24.6478C10.2408 23.8977 9.8194 22.8803 9.8194 21.8194ZM14.8194 50.8194C14.0283 50.8194 13.2549 50.5848 12.5971 50.1453C11.9393 49.7058 11.4266 49.0811 11.1239 48.3502C10.8211 47.6193 10.7419 46.815 10.8963 46.0391C11.0506 45.2631 11.4316 44.5504 11.991 43.991C12.5504 43.4316 13.2631 43.0506 14.039 42.8963C14.815 42.7419 15.6192 42.8212 16.3501 43.1239C17.081 43.4267 17.7058 43.9393 18.1453 44.5971C18.5848 45.2549 18.8194 46.0283 18.8194 46.8194C18.8194 47.8803 18.398 48.8977 17.6478 49.6478C16.8977 50.398 15.8803 50.8194 14.8194 50.8194ZM20.7869 47.4519C20.8069 47.2444 20.8194 47.0319 20.8194 46.8194C20.8204 45.827 20.5738 44.85 20.1019 43.9769L32.3169 34.4769L36.9994 48.5244C35.8588 49.1382 34.9455 50.1022 34.3944 51.2744L20.7869 47.4519ZM39.8194 57.8194C39.0283 57.8194 38.2549 57.5848 37.5971 57.1453C36.9393 56.7058 36.4266 56.0811 36.1239 55.3502C35.8211 54.6193 35.7419 53.815 35.8963 53.0391C36.0506 52.2631 36.4316 51.5504 36.991 50.991C37.5504 50.4316 38.2631 50.0506 39.039 49.8963C39.815 49.7419 40.6192 49.8212 41.3501 50.1239C42.081 50.4267 42.7058 50.9393 43.1453 51.5971C43.5848 52.2549 43.8194 53.0283 43.8194 53.8194C43.8194 54.8803 43.398 55.8977 42.6478 56.6478C41.8977 57.398 40.8803 57.8194 39.8194 57.8194ZM42.1519 48.2919C41.4142 47.9788 40.6208 47.8181 39.8194 47.8194C39.5106 47.8199 39.2022 47.8433 38.8969 47.8894L34.1844 33.7544L47.9594 33.0994C48.226 34.3238 48.8705 35.4336 49.8019 36.2719L42.1519 48.2919ZM53.8194 35.8194C53.0283 35.8194 52.2549 35.5848 51.5971 35.1453C50.9393 34.7058 50.4266 34.0811 50.1239 33.3502C49.8211 32.6193 49.7419 31.815 49.8963 31.0391C50.0506 30.2631 50.4316 29.5504 50.991 28.991C51.5504 28.4316 52.2631 28.0506 53.039 27.8963C53.815 27.7419 54.6192 27.8212 55.3501 28.1239C56.081 28.4267 56.7058 28.9393 57.1453 29.5971C57.5848 30.2549 57.8194 31.0283 57.8194 31.8194C57.8194 32.8803 57.398 33.8977 56.6478 34.6478C55.8977 35.398 54.8803 35.8194 53.8194 35.8194Z" fill="#2D6FFF"></path>
                      </svg>
