<svg width="65" height="65" viewBox="0 0 65 65" fill="none" xmlns="http://www.w3.org/2000/svg">
                    <path d="M32.8193 7.81934C32.5541 7.81934 32.2997 7.92469 32.1122 8.11223C31.9246 8.29977 31.8193 8.55412 31.8193 8.81934V22.8193C31.8193 23.0846 31.9246 23.3389 32.1122 23.5264C32.2997 23.714 32.5541 23.8193 32.8193 23.8193C34.8005 23.8195 36.7262 24.4734 38.2979 25.6796C39.8696 26.8857 40.9994 28.5768 41.512 30.4905C42.0246 32.4042 41.8915 34.4336 41.1332 36.2639C40.375 38.0943 39.034 39.6232 37.3182 40.6138C35.6024 41.6043 33.6077 42.001 31.6435 41.7423C29.6793 41.4836 27.8553 40.5841 26.4544 39.1832C25.0535 37.7822 24.1541 35.9582 23.8955 33.994C23.6369 32.0297 24.0337 30.0351 25.0243 28.3193C25.0901 28.2055 25.1328 28.0797 25.15 27.9493C25.1671 27.8189 25.1584 27.6864 25.1243 27.5593C25.0901 27.4323 25.0313 27.3133 24.951 27.209C24.8708 27.1048 24.7708 27.0174 24.6568 26.9518L12.5318 19.9518C12.302 19.8197 12.0292 19.7841 11.7732 19.8531C11.5173 19.922 11.2991 20.0897 11.1668 20.3193C8.41514 25.0853 7.313 30.6261 8.03127 36.0823C8.74954 41.5385 11.2481 46.6052 15.1394 50.4967C19.0308 54.3882 24.0974 56.8869 29.5536 57.6054C35.0097 58.3238 40.5505 57.2219 45.3166 54.4704C50.0827 51.719 53.8077 47.4718 55.914 42.3875C58.0202 37.3032 58.39 31.666 56.9659 26.3502C55.5419 21.0344 52.4036 16.337 48.0377 12.9865C43.6719 9.63603 38.3226 7.81975 32.8193 7.81934ZM12.4143 22.1943L22.8318 28.1943C21.8958 30.2185 21.5993 32.4798 21.9818 34.6768L10.3643 37.8018C9.19471 32.52 9.9204 26.995 12.4143 22.1943ZM10.8818 39.7318L22.4968 36.6193C23.2184 38.5691 24.4766 40.2751 26.126 41.5407C27.7755 42.8062 29.7492 43.5797 31.8193 43.7718V55.7968C27.1041 55.5858 22.5675 53.9318 18.8229 51.0586C15.0783 48.1854 12.3063 44.2316 10.8818 39.7318ZM33.8193 55.7968V43.7718C36.5507 43.5206 39.0897 42.2579 40.9383 40.2314C42.7868 38.205 43.8116 35.561 43.8116 32.8181C43.8116 30.0751 42.7868 27.4312 40.9383 25.4047C39.0897 23.3783 36.5507 22.1156 33.8193 21.8643V9.84184C39.7374 10.1038 45.3262 12.6391 49.4213 16.9195C53.5165 21.2 55.8022 26.8954 55.8022 32.8193C55.8022 38.7432 53.5165 44.4387 49.4213 48.7191C45.3262 52.9996 39.7374 55.5349 33.8193 55.7968Z" fill="#2D6FFF"></path>
                  </svg>
