<svg width="65" height="65" viewBox="0 0 65 65" fill="none" xmlns="http://www.w3.org/2000/svg">
                    <path d="M40.8193 27.8193H52.8193C53.615 27.8193 54.378 27.5033 54.9407 26.9407C55.5033 26.378 55.8193 25.615 55.8193 24.8193V12.8193C55.8193 12.0237 55.5033 11.2606 54.9407 10.698C54.378 10.1354 53.615 9.81934 52.8193 9.81934H40.8193C40.0237 9.81934 39.2606 10.1354 38.698 10.698C38.1354 11.2606 37.8193 12.0237 37.8193 12.8193V17.8193H32.8193C31.4933 17.8193 30.2215 18.3461 29.2838 19.2838C28.3461 20.2215 27.8193 21.4933 27.8193 22.8193V31.8193H17.8193V28.8193C17.8193 28.0237 17.5033 27.2606 16.9407 26.698C16.378 26.1354 15.615 25.8193 14.8193 25.8193H6.81934C6.02369 25.8193 5.26062 26.1354 4.69802 26.698C4.13541 27.2606 3.81934 28.0237 3.81934 28.8193V36.8193C3.81934 37.615 4.13541 38.378 4.69802 38.9407C5.26062 39.5033 6.02369 39.8193 6.81934 39.8193H14.8193C15.615 39.8193 16.378 39.5033 16.9407 38.9407C17.5033 38.378 17.8193 37.615 17.8193 36.8193V33.8193H27.8193V42.8193C27.8193 44.1454 28.3461 45.4172 29.2838 46.3549C30.2215 47.2926 31.4933 47.8193 32.8193 47.8193H37.8193V52.8193C37.8193 53.615 38.1354 54.378 38.698 54.9407C39.2606 55.5033 40.0237 55.8193 40.8193 55.8193H52.8193C53.615 55.8193 54.378 55.5033 54.9407 54.9407C55.5033 54.378 55.8193 53.615 55.8193 52.8193V40.8193C55.8193 40.0237 55.5033 39.2606 54.9407 38.698C54.378 38.1354 53.615 37.8193 52.8193 37.8193H40.8193C40.0237 37.8193 39.2606 38.1354 38.698 38.698C38.1354 39.2606 37.8193 40.0237 37.8193 40.8193V45.8193H32.8193C32.0237 45.8193 31.2606 45.5033 30.698 44.9407C30.1354 44.378 29.8193 43.615 29.8193 42.8193V22.8193C29.8193 22.0237 30.1354 21.2606 30.698 20.698C31.2606 20.1354 32.0237 19.8193 32.8193 19.8193H37.8193V24.8193C37.8193 25.615 38.1354 26.378 38.698 26.9407C39.2606 27.5033 40.0237 27.8193 40.8193 27.8193ZM15.8193 36.8193C15.8193 37.0846 15.714 37.3389 15.5264 37.5264C15.3389 37.714 15.0846 37.8193 14.8193 37.8193H6.81934C6.55412 37.8193 6.29977 37.714 6.11223 37.5264C5.92469 37.3389 5.81934 37.0846 5.81934 36.8193V28.8193C5.81934 28.5541 5.92469 28.2998 6.11223 28.1122C6.29977 27.9247 6.55412 27.8193 6.81934 27.8193H14.8193C15.0846 27.8193 15.3389 27.9247 15.5264 28.1122C15.714 28.2998 15.8193 28.5541 15.8193 28.8193V36.8193ZM39.8193 40.8193C39.8193 40.5541 39.9247 40.2998 40.1122 40.1122C40.2998 39.9247 40.5541 39.8193 40.8193 39.8193H52.8193C53.0846 39.8193 53.3389 39.9247 53.5264 40.1122C53.714 40.2998 53.8193 40.5541 53.8193 40.8193V52.8193C53.8193 53.0846 53.714 53.3389 53.5264 53.5264C53.3389 53.714 53.0846 53.8193 52.8193 53.8193H40.8193C40.5541 53.8193 40.2998 53.714 40.1122 53.5264C39.9247 53.3389 39.8193 53.0846 39.8193 52.8193V40.8193ZM39.8193 12.8193C39.8193 12.5541 39.9247 12.2998 40.1122 12.1122C40.2998 11.9247 40.5541 11.8193 40.8193 11.8193H52.8193C53.0846 11.8193 53.3389 11.9247 53.5264 12.1122C53.714 12.2998 53.8193 12.5541 53.8193 12.8193V24.8193C53.8193 25.0846 53.714 25.3389 53.5264 25.5264C53.3389 25.714 53.0846 25.8193 52.8193 25.8193H40.8193C40.5541 25.8193 40.2998 25.714 40.1122 25.5264C39.9247 25.3389 39.8193 25.0846 39.8193 24.8193V12.8193Z" fill="#2D6FFF"></path>
                  </svg>
