<svg width="65" height="65" viewBox="0 0 65 65" fill="none" xmlns="http://www.w3.org/2000/svg">
                    <path d="M48.7419 25.3943C48.7919 24.8768 48.8194 24.3518 48.8194 23.8193C48.8194 19.5759 47.1337 15.5062 44.1331 12.5056C41.1325 9.50505 37.0628 7.81934 32.8194 7.81934C28.5759 7.81934 24.5063 9.50505 21.5057 12.5056C18.5051 15.5062 16.8194 19.5759 16.8194 23.8193C16.8194 24.3518 16.8469 24.8768 16.8969 25.3943C14.905 26.343 13.1308 27.6935 11.6858 29.3607C10.2408 31.028 9.15631 32.9761 8.50036 35.0827C7.8444 37.1892 7.63121 39.4086 7.87416 41.6015C8.11711 43.7944 8.81097 45.9133 9.91213 47.8252C11.0133 49.737 12.498 51.4005 14.2728 52.711C16.0477 54.0216 18.0745 54.9509 20.2258 55.4406C22.377 55.9302 24.6063 55.9697 26.7736 55.5565C28.9408 55.1432 30.9992 54.2862 32.8194 53.0393C34.6395 54.2862 36.6979 55.1432 38.8652 55.5565C41.0324 55.9697 43.2617 55.9302 45.413 55.4406C47.5643 54.9509 49.591 54.0216 51.3659 52.711C53.1408 51.4005 54.6255 49.737 55.7266 47.8252C56.8278 45.9133 57.5216 43.7944 57.7646 41.6015C58.0075 39.4086 57.7943 37.1892 57.1384 35.0827C56.4824 32.9761 55.3979 31.028 53.9529 29.3607C52.508 27.6935 50.7338 26.343 48.7419 25.3943ZM18.8194 23.8193C18.8194 20.1063 20.2944 16.5454 22.9199 13.9198C25.5454 11.2943 29.1063 9.81934 32.8194 9.81934C36.5324 9.81934 40.0934 11.2943 42.7189 13.9198C45.3444 16.5454 46.8194 20.1063 46.8194 23.8193C46.8194 24.0868 46.8194 24.3518 46.7944 24.6143C44.4687 23.8515 41.9988 23.6337 39.5755 23.9779C37.1522 24.3221 34.8406 25.219 32.8194 26.5993C30.7981 25.219 28.4865 24.3221 26.0632 23.9779C23.64 23.6337 21.17 23.8515 18.8444 24.6143C18.8194 24.3518 18.8194 24.0868 18.8194 23.8193ZM37.8194 39.8193C37.8198 41.8619 37.3723 43.8797 36.5084 45.7305C35.6445 47.5814 34.3853 49.2203 32.8194 50.5318C31.2535 49.2203 29.9943 47.5814 29.1304 45.7305C28.2665 43.8797 27.819 41.8619 27.8194 39.8193C27.8194 39.5518 27.8194 39.2868 27.8444 39.0243C31.0764 40.0843 34.5624 40.0843 37.7944 39.0243C37.8194 39.2868 37.8194 39.5518 37.8194 39.8193ZM32.8194 37.8193C31.2121 37.8205 29.6169 37.5431 28.1044 36.9993C28.7439 33.9132 30.405 31.1327 32.8194 29.1068C35.2338 31.1327 36.8949 33.9132 37.5344 36.9993C36.0219 37.5431 34.4266 37.8205 32.8194 37.8193ZM26.2444 36.1743C24.4282 35.2053 22.8473 33.849 21.6135 32.2013C20.3796 30.5536 19.523 28.6548 19.1044 26.6393C21.0783 25.9293 23.1867 25.6729 25.2732 25.8893C27.3598 26.1057 29.3707 26.7893 31.1569 27.8893C28.708 30.0815 26.9929 32.974 26.2444 36.1743ZM34.4944 27.9018C36.2805 26.8018 38.2915 26.1182 40.378 25.9018C42.4645 25.6854 44.573 25.9418 46.5469 26.6518C46.1282 28.6673 45.2716 30.5661 44.0378 32.2138C42.804 33.8615 41.223 35.2178 39.4069 36.1868C38.6549 32.985 36.9353 30.0923 34.4819 27.9018H34.4944ZM23.8194 53.8193C20.6976 53.8172 17.6661 52.7718 15.2066 50.8492C12.7471 48.9266 11.0007 46.2371 10.2451 43.2082C9.48943 40.1792 9.76781 36.9846 11.036 34.132C12.3042 31.2794 14.4894 28.9325 17.2444 27.4643C17.7933 29.7919 18.855 31.9676 20.3519 33.8325C21.8488 35.6975 23.7432 37.2048 25.8969 38.2443C25.8469 38.7618 25.8194 39.2868 25.8194 39.8193C25.819 42.0697 26.2943 44.2948 27.2142 46.3486C28.134 48.4025 29.4776 50.2387 31.1569 51.7368C28.9525 53.1002 26.4113 53.8215 23.8194 53.8193ZM41.8194 53.8193C39.2274 53.8215 36.6863 53.1002 34.4819 51.7368C36.1611 50.2387 37.5047 48.4025 38.4246 46.3486C39.3444 44.2948 39.8197 42.0697 39.8194 39.8193C39.8194 39.2868 39.7919 38.7618 39.7419 38.2443C41.8955 37.2048 43.7899 35.6975 45.2868 33.8325C46.7838 31.9676 47.8454 29.7919 48.3944 27.4643C51.1494 28.9325 53.3346 31.2794 54.6028 34.132C55.8709 36.9846 56.1493 40.1792 55.3937 43.2082C54.638 46.2371 52.8917 48.9266 50.4322 50.8492C47.9727 52.7718 44.9412 53.8172 41.8194 53.8193Z" fill="#2D6FFF"></path>
                  </svg>
