<svg width="65" height="65" viewBox="0 0 65 65" fill="none" xmlns="http://www.w3.org/2000/svg">
                        <path d="M52.6943 50.6443C53.9462 49.8122 54.8969 48.5992 55.4059 47.1848C55.9148 45.7704 55.955 44.2298 55.5204 42.7908C55.0857 41.3518 54.1994 40.0909 52.9926 39.1948C51.7858 38.2986 50.3225 37.8147 48.8193 37.8147C47.3162 37.8147 45.8529 38.2986 44.6461 39.1948C43.4392 40.0909 42.5529 41.3518 42.1183 42.7908C41.6837 44.2298 41.7238 45.7704 42.2328 47.1848C42.7417 48.5992 43.6925 49.8122 44.9443 50.6443C43.7072 51.1894 42.6078 52.0045 41.7266 53.0297C40.8454 54.0549 40.2049 55.2644 39.8518 56.5693C39.784 56.8256 39.8206 57.0983 39.9538 57.3276C40.0869 57.5568 40.3056 57.7238 40.5618 57.7918C40.6432 57.8149 40.7273 57.8266 40.8118 57.8268C41.0334 57.8267 41.2486 57.7529 41.4238 57.6172C41.5989 57.4814 41.7239 57.2914 41.7793 57.0768C42.6018 53.9818 45.4918 51.8268 48.8118 51.8268C52.1318 51.8268 55.0218 53.9893 55.8443 57.0768C55.8752 57.2068 55.9317 57.3292 56.0106 57.437C56.0895 57.5447 56.1892 57.6355 56.3038 57.7041C56.4183 57.7727 56.5455 57.8177 56.6777 57.8363C56.81 57.855 56.9446 57.8469 57.0737 57.8127C57.2028 57.7785 57.3237 57.7187 57.4293 57.637C57.5349 57.5553 57.6231 57.4532 57.6886 57.3369C57.7542 57.2205 57.7958 57.0922 57.8109 56.9595C57.826 56.8268 57.8145 56.6925 57.7768 56.5643C57.4246 55.2611 56.7853 54.0531 55.9059 53.0288C55.0265 52.0045 53.9292 51.1898 52.6943 50.6443ZM43.8193 44.8193C43.8193 43.8304 44.1126 42.8637 44.662 42.0415C45.2114 41.2192 45.9923 40.5784 46.9059 40.1999C47.8195 39.8215 48.8249 39.7225 49.7948 39.9154C50.7647 40.1083 51.6556 40.5845 52.3549 41.2838C53.0541 41.9831 53.5303 42.874 53.7233 43.8439C53.9162 44.8138 53.8172 45.8191 53.4387 46.7328C53.0603 47.6464 52.4194 48.4273 51.5972 48.9767C50.7749 49.5261 49.8082 49.8193 48.8193 49.8193C47.4933 49.8193 46.2215 49.2926 45.2838 48.3549C44.3461 47.4172 43.8193 46.1454 43.8193 44.8193ZM57.8193 22.8193V30.8193C57.8193 31.0846 57.714 31.3389 57.5264 31.5264C57.3389 31.714 57.0846 31.8193 56.8193 31.8193C56.5541 31.8193 56.2998 31.714 56.1122 31.5264C55.9247 31.3389 55.8193 31.0846 55.8193 30.8193V22.8193C55.8193 22.5541 55.714 22.2998 55.5264 22.1122C55.3389 21.9247 55.0846 21.8193 54.8193 21.8193H33.4868C32.8379 21.8184 32.2065 21.608 31.6868 21.2193L24.7518 16.0193C24.5787 15.8895 24.3682 15.8193 24.1518 15.8193H10.8193C10.5541 15.8193 10.2998 15.9247 10.1122 16.1122C9.92469 16.2998 9.81934 16.5541 9.81934 16.8193V50.8193C9.81934 51.0846 9.92469 51.3389 10.1122 51.5264C10.2998 51.714 10.5541 51.8193 10.8193 51.8193H30.8193C31.0846 51.8193 31.3389 51.9247 31.5264 52.1122C31.714 52.2998 31.8193 52.5541 31.8193 52.8193C31.8193 53.0846 31.714 53.3389 31.5264 53.5264C31.3389 53.714 31.0846 53.8193 30.8193 53.8193H10.8193C10.0237 53.8193 9.26062 53.5033 8.69802 52.9407C8.13541 52.378 7.81934 51.615 7.81934 50.8193V16.8193C7.81934 16.0237 8.13541 15.2606 8.69802 14.698C9.26062 14.1354 10.0237 13.8193 10.8193 13.8193H24.1518C24.8008 13.8202 25.4321 14.0307 25.9518 14.4193L32.8868 19.6193C33.0599 19.7492 33.2705 19.8193 33.4868 19.8193H54.8193C55.615 19.8193 56.378 20.1354 56.9407 20.698C57.5033 21.2606 57.8193 22.0237 57.8193 22.8193Z" fill="#2D6FFF"></path>
                      </svg>
