<svg width="65" height="65" viewBox="0 0 65 65" fill="none" xmlns="http://www.w3.org/2000/svg">
                        <path d="M54.8193 23.8193H41.8193V10.8193C41.8193 10.5541 41.714 10.2998 41.5264 10.1122C41.3389 9.92469 41.0846 9.81934 40.8193 9.81934H10.8193C10.5541 9.81934 10.2998 9.92469 10.1122 10.1122C9.92469 10.2998 9.81934 10.5541 9.81934 10.8193V40.8193C9.81934 41.0846 9.92469 41.3389 10.1122 41.5264C10.2998 41.714 10.5541 41.8193 10.8193 41.8193H23.8193V54.8193C23.8193 55.0846 23.9247 55.3389 24.1122 55.5264C24.2998 55.714 24.5541 55.8193 24.8193 55.8193H54.8193C55.0846 55.8193 55.3389 55.714 55.5264 55.5264C55.714 55.3389 55.8193 55.0846 55.8193 54.8193V24.8193C55.8193 24.5541 55.714 24.2998 55.5264 24.1122C55.3389 23.9247 55.0846 23.8193 54.8193 23.8193ZM11.8193 39.8193V11.8193H39.8193V23.8193H24.8193C24.5541 23.8193 24.2998 23.9247 24.1122 24.1122C23.9247 24.2998 23.8193 24.5541 23.8193 24.8193V39.8193H11.8193ZM25.8193 27.2343L38.4043 39.8193H25.8193V27.2343ZM39.8193 38.4043L27.2343 25.8193H39.8193V38.4043ZM53.8193 53.8193H25.8193V41.8193H40.8193C41.0846 41.8193 41.3389 41.714 41.5264 41.5264C41.714 41.3389 41.8193 41.0846 41.8193 40.8193V25.8193H53.8193V53.8193Z" fill="#2D6FFF"></path>
                      </svg>
