<svg width="65" height="65" viewBox="0 0 65 65" fill="none" xmlns="http://www.w3.org/2000/svg">
                        <path d="M52.8193 29.8193H12.8193C12.0237 29.8193 11.2606 30.1354 10.698 30.698C10.1354 31.2606 9.81934 32.0237 9.81934 32.8193V38.8193C9.81934 39.615 10.1354 40.378 10.698 40.9407C11.2606 41.5033 12.0237 41.8193 12.8193 41.8193H52.8193C53.615 41.8193 54.378 41.5033 54.9407 40.9407C55.5033 40.378 55.8193 39.615 55.8193 38.8193V32.8193C55.8193 32.0237 55.5033 31.2606 54.9407 30.698C54.378 30.1354 53.615 29.8193 52.8193 29.8193ZM53.8193 38.8193C53.8193 39.0846 53.714 39.3389 53.5264 39.5264C53.3389 39.714 53.0846 39.8193 52.8193 39.8193H12.8193C12.5541 39.8193 12.2998 39.714 12.1122 39.5264C11.9247 39.3389 11.8193 39.0846 11.8193 38.8193V32.8193C11.8193 32.5541 11.9247 32.2998 12.1122 32.1122C12.2998 31.9247 12.5541 31.8193 12.8193 31.8193H52.8193C53.0846 31.8193 53.3389 31.9247 53.5264 32.1122C53.714 32.2998 53.8193 32.5541 53.8193 32.8193V38.8193ZM52.8193 11.8193H12.8193C12.0237 11.8193 11.2606 12.1354 10.698 12.698C10.1354 13.2606 9.81934 14.0237 9.81934 14.8193V20.8193C9.81934 21.615 10.1354 22.378 10.698 22.9407C11.2606 23.5033 12.0237 23.8193 12.8193 23.8193H52.8193C53.615 23.8193 54.378 23.5033 54.9407 22.9407C55.5033 22.378 55.8193 21.615 55.8193 20.8193V14.8193C55.8193 14.0237 55.5033 13.2606 54.9407 12.698C54.378 12.1354 53.615 11.8193 52.8193 11.8193ZM53.8193 20.8193C53.8193 21.0846 53.714 21.3389 53.5264 21.5264C53.3389 21.714 53.0846 21.8193 52.8193 21.8193H12.8193C12.5541 21.8193 12.2998 21.714 12.1122 21.5264C11.9247 21.3389 11.8193 21.0846 11.8193 20.8193V14.8193C11.8193 14.5541 11.9247 14.2998 12.1122 14.1122C12.2998 13.9247 12.5541 13.8193 12.8193 13.8193H52.8193C53.0846 13.8193 53.3389 13.9247 53.5264 14.1122C53.714 14.2998 53.8193 14.5541 53.8193 14.8193V20.8193ZM39.8193 54.8193C39.8193 55.0846 39.714 55.3389 39.5264 55.5264C39.3389 55.714 39.0846 55.8193 38.8193 55.8193H33.8193V60.8193C33.8193 61.0846 33.714 61.3389 33.5264 61.5264C33.3389 61.714 33.0846 61.8193 32.8193 61.8193C32.5541 61.8193 32.2998 61.714 32.1122 61.5264C31.9247 61.3389 31.8193 61.0846 31.8193 60.8193V55.8193H26.8193C26.5541 55.8193 26.2998 55.714 26.1122 55.5264C25.9247 55.3389 25.8193 55.0846 25.8193 54.8193C25.8193 54.5541 25.9247 54.2998 26.1122 54.1122C26.2998 53.9247 26.5541 53.8193 26.8193 53.8193H31.8193V48.8193C31.8193 48.5541 31.9247 48.2998 32.1122 48.1122C32.2998 47.9247 32.5541 47.8193 32.8193 47.8193C33.0846 47.8193 33.3389 47.9247 33.5264 48.1122C33.714 48.2998 33.8193 48.5541 33.8193 48.8193V53.8193H38.8193C39.0846 53.8193 39.3389 53.9247 39.5264 54.1122C39.714 54.2998 39.8193 54.5541 39.8193 54.8193Z" fill="#2D6FFF"></path>
                      </svg>
