<svg width="65" height="65" viewBox="0 0 65 65" fill="none" xmlns="http://www.w3.org/2000/svg">
                    <path d="M27.617 40.5695C30.5277 39.2452 32.8974 36.9644 34.3318 34.1064C35.7663 31.2484 36.1791 27.9854 35.5016 24.8602C34.8242 21.735 33.0972 18.9359 30.6079 16.9284C28.1187 14.921 25.0173 13.8263 21.8195 13.8263C18.6216 13.8263 15.5202 14.921 13.031 16.9284C10.5417 18.9359 8.81476 21.735 8.13727 24.8602C7.45977 27.9854 7.87259 31.2484 9.30707 34.1064C10.7415 36.9644 13.1112 39.2452 16.022 40.5695C10.4743 42.0074 5.66504 45.4683 2.53946 50.272C2.46548 50.3819 2.41409 50.5055 2.38828 50.6355C2.36248 50.7655 2.36277 50.8993 2.38913 51.0292C2.4155 51.159 2.46742 51.2824 2.54187 51.392C2.61633 51.5016 2.71183 51.5954 2.82283 51.6678C2.93384 51.7402 3.05812 51.7898 3.18847 51.8137C3.31881 51.8377 3.45262 51.8355 3.5821 51.8073C3.71159 51.779 3.83417 51.7254 3.94273 51.6493C4.05129 51.5733 4.14365 51.4765 4.21446 51.3645C6.12131 48.4321 8.7304 46.0226 11.8048 44.3545C14.8793 42.6865 18.3217 41.8128 21.8195 41.8128C25.3172 41.8128 28.7596 42.6865 31.8341 44.3545C34.9085 46.0226 37.5176 48.4321 39.4245 51.3645C39.4953 51.4765 39.5876 51.5733 39.6962 51.6493C39.8047 51.7254 39.9273 51.779 40.0568 51.8073C40.1863 51.8355 40.3201 51.8377 40.4504 51.8137C40.5808 51.7898 40.7051 51.7402 40.8161 51.6678C40.9271 51.5954 41.0226 51.5016 41.097 51.392C41.1715 51.2824 41.2234 51.159 41.2498 51.0292C41.2761 50.8993 41.2764 50.7655 41.2506 50.6355C41.2248 50.5055 41.1734 50.3819 41.0995 50.272C37.9739 45.4683 33.1646 42.0074 27.617 40.5695ZM9.81946 27.8195C9.81946 25.4461 10.5232 23.126 11.8418 21.1526C13.1604 19.1792 15.0345 17.6412 17.2273 16.7329C19.42 15.8247 21.8328 15.587 24.1605 16.05C26.4883 16.5131 28.6265 17.656 30.3047 19.3342C31.983 21.0124 33.1259 23.1506 33.5889 25.4784C34.0519 27.8062 33.8143 30.219 32.906 32.4117C31.9978 34.6044 30.4597 36.4785 28.4863 37.7971C26.5129 39.1157 24.1928 39.8195 21.8195 39.8195C18.6379 39.8162 15.5875 38.5508 13.3378 36.3011C11.0881 34.0514 9.82277 31.001 9.81946 27.8195ZM62.8195 51.657C62.5973 51.8013 62.3269 51.8516 62.0677 51.7967C61.8085 51.7419 61.5816 51.5864 61.437 51.3645C59.5313 48.4286 56.9206 46.0169 53.8431 44.3495C50.7657 42.6822 47.3196 41.8123 43.8195 41.8195C43.5542 41.8195 43.2999 41.7141 43.1124 41.5266C42.9248 41.339 42.8195 41.0847 42.8195 40.8195C42.8195 40.5542 42.9248 40.2999 43.1124 40.1124C43.2999 39.9248 43.5542 39.8195 43.8195 39.8195C45.587 39.8185 47.3325 39.4271 48.9312 38.6732C50.5299 37.9193 51.9423 36.8215 53.0675 35.4584C54.1927 34.0952 55.0028 32.5003 55.44 30.7877C55.8773 29.0751 55.9307 27.287 55.5966 25.5513C55.2625 23.8156 54.5491 22.1752 53.5074 20.7472C52.4657 19.3193 51.1214 18.1391 49.5706 17.291C48.0198 16.4429 46.3008 15.9479 44.5365 15.8413C42.7722 15.7347 41.0061 16.0192 39.3645 16.6745C39.2425 16.7237 39.112 16.7485 38.9805 16.7473C38.849 16.7461 38.719 16.719 38.5979 16.6676C38.4768 16.6162 38.3671 16.5414 38.2749 16.4476C38.1827 16.3538 38.11 16.2427 38.0607 16.1207C38.0115 15.9987 37.9867 15.8683 37.9879 15.7368C37.9891 15.6052 38.0161 15.4752 38.0676 15.3542C38.119 15.2331 38.1938 15.1233 38.2876 15.0312C38.3814 14.939 38.4925 14.8662 38.6145 14.817C42.0291 13.3583 45.8834 13.3158 49.3294 14.6989C52.7753 16.082 55.5308 18.7773 56.9895 22.192C58.4481 25.6066 58.4906 29.4609 57.1075 32.9069C55.7245 36.3529 53.0291 39.1083 49.6145 40.567C55.1641 42.008 59.9737 45.4736 63.097 50.282C63.2404 50.5017 63.2916 50.7691 63.2397 51.0263C63.1878 51.2835 63.0369 51.51 62.8195 51.657Z" fill="#2D6FFF"></path>
                  </svg>
