<svg width="65" height="65" viewBox="0 0 65 65" fill="none" xmlns="http://www.w3.org/2000/svg">
                    <path d="M28.8193 11.8193C28.5541 11.8193 28.2998 11.9247 28.1122 12.1122C27.9247 12.2998 27.8193 12.5541 27.8193 12.8193V17.8193H6.81934C6.02369 17.8193 5.26062 18.1354 4.69802 18.698C4.13541 19.2606 3.81934 20.0237 3.81934 20.8193V44.8193C3.81934 45.615 4.13541 46.378 4.69802 46.9407C5.26062 47.5033 6.02369 47.8193 6.81934 47.8193H27.8193V52.8193C27.8193 53.0846 27.9247 53.3389 28.1122 53.5264C28.2998 53.714 28.5541 53.8193 28.8193 53.8193C29.0846 53.8193 29.3389 53.714 29.5264 53.5264C29.714 53.3389 29.8193 53.0846 29.8193 52.8193V12.8193C29.8193 12.5541 29.714 12.2998 29.5264 12.1122C29.3389 11.9247 29.0846 11.8193 28.8193 11.8193ZM6.81934 45.8193C6.55412 45.8193 6.29977 45.714 6.11223 45.5264C5.92469 45.3389 5.81934 45.0846 5.81934 44.8193V20.8193C5.81934 20.5541 5.92469 20.2998 6.11223 20.1122C6.29977 19.9247 6.55412 19.8193 6.81934 19.8193H27.8193V45.8193H6.81934ZM61.8193 20.8193V44.8193C61.8193 45.615 61.5033 46.378 60.9407 46.9407C60.378 47.5033 59.615 47.8193 58.8193 47.8193H36.8193C36.5541 47.8193 36.2998 47.714 36.1122 47.5264C35.9247 47.3389 35.8193 47.0846 35.8193 46.8193C35.8193 46.5541 35.9247 46.2998 36.1122 46.1122C36.2998 45.9247 36.5541 45.8193 36.8193 45.8193H58.8193C59.0846 45.8193 59.3389 45.714 59.5264 45.5264C59.714 45.3389 59.8193 45.0846 59.8193 44.8193V20.8193C59.8193 20.5541 59.714 20.2998 59.5264 20.1122C59.3389 19.9247 59.0846 19.8193 58.8193 19.8193H36.8193C36.5541 19.8193 36.2998 19.714 36.1122 19.5264C35.9247 19.3389 35.8193 19.0846 35.8193 18.8193C35.8193 18.5541 35.9247 18.2998 36.1122 18.1122C36.2998 17.9247 36.5541 17.8193 36.8193 17.8193H58.8193C59.615 17.8193 60.378 18.1354 60.9407 18.698C61.5033 19.2606 61.8193 20.0237 61.8193 20.8193ZM21.8193 28.8193C21.8193 29.0846 21.714 29.3389 21.5264 29.5264C21.3389 29.714 21.0846 29.8193 20.8193 29.8193H17.8193V36.8193C17.8193 37.0846 17.714 37.3389 17.5264 37.5264C17.3389 37.714 17.0846 37.8193 16.8193 37.8193C16.5541 37.8193 16.2998 37.714 16.1122 37.5264C15.9247 37.3389 15.8193 37.0846 15.8193 36.8193V29.8193H12.8193C12.5541 29.8193 12.2998 29.714 12.1122 29.5264C11.9247 29.3389 11.8193 29.0846 11.8193 28.8193C11.8193 28.5541 11.9247 28.2998 12.1122 28.1122C12.2998 27.9247 12.5541 27.8193 12.8193 27.8193H20.8193C21.0846 27.8193 21.3389 27.9247 21.5264 28.1122C21.714 28.2998 21.8193 28.5541 21.8193 28.8193Z" fill="#2D6FFF"></path>
                  </svg>
