<svg width="65" height="65" viewBox="0 0 65 65" fill="none" xmlns="http://www.w3.org/2000/svg">
                    <path d="M60.0693 37.6793C59.8412 37.8146 59.5688 37.8537 59.3119 37.788C59.055 37.7224 58.8346 37.5574 58.6993 37.3293C56.6168 33.8293 53.4668 31.8293 50.0593 31.8293C49.9574 31.8281 49.8562 31.8112 49.7593 31.7793C49.4437 31.8124 49.1267 31.8291 48.8093 31.8293C48.5441 31.8293 48.2898 31.724 48.1022 31.5365C47.9147 31.3489 47.8093 31.0946 47.8093 30.8293C47.8093 30.5641 47.9147 30.3098 48.1022 30.1222C48.2898 29.9347 48.5441 29.8293 48.8093 29.8293C50.1185 29.8289 51.4013 29.4614 52.512 28.7685C53.6227 28.0756 54.5169 27.0851 55.093 25.9095C55.669 24.7339 55.9039 23.4204 55.7708 22.118C55.6378 20.8156 55.1422 19.5767 54.3403 18.5418C53.5385 17.507 52.4625 16.7178 51.2346 16.2638C50.0067 15.8098 48.6761 15.7092 47.3939 15.9735C46.1118 16.2377 44.9294 16.8563 43.9811 17.7588C43.0328 18.6614 42.3566 19.8118 42.0293 21.0793C41.963 21.3363 41.7974 21.5563 41.5688 21.6911C41.3403 21.8259 41.0675 21.8644 40.8106 21.7981C40.5537 21.7318 40.3336 21.5661 40.1988 21.3376C40.064 21.109 40.0255 20.8363 40.0918 20.5793C40.4588 19.1563 41.1687 17.8449 42.1594 16.7595C43.1501 15.6741 44.3915 14.8478 45.7752 14.3528C47.1589 13.8578 48.6427 13.7091 50.0971 13.9198C51.5515 14.1306 52.9321 14.6942 54.1185 15.5615C55.3048 16.4288 56.2607 17.5735 56.9026 18.8954C57.5445 20.2174 57.853 21.6764 57.8011 23.145C57.7491 24.6137 57.3383 26.0472 56.6046 27.3205C55.8708 28.5938 54.8365 29.668 53.5918 30.4493C56.2943 31.4118 58.7193 33.4493 60.4193 36.3193C60.5514 36.5466 60.5887 36.8166 60.5232 37.0711C60.4577 37.3256 60.2947 37.5441 60.0693 37.6793ZM47.6843 54.3193C47.8167 54.5488 47.8526 54.8214 47.7842 55.0773C47.7158 55.3333 47.5486 55.5516 47.3193 55.6843C47.1677 55.7733 46.9951 55.8199 46.8193 55.8193C46.644 55.8192 46.4717 55.7729 46.3199 55.6851C46.1681 55.5974 46.042 55.4712 45.9543 55.3193C44.6065 53.0345 42.686 51.1407 40.3825 49.8251C38.079 48.5095 35.4721 47.8175 32.8193 47.8175C30.1666 47.8175 27.5597 48.5095 25.2562 49.8251C22.9526 51.1407 21.0321 53.0345 19.6843 55.3193C19.546 55.537 19.3289 55.6928 19.0783 55.7542C18.8278 55.8155 18.5633 55.7777 18.34 55.6486C18.1167 55.5196 17.9519 55.3092 17.88 55.0615C17.8082 54.8138 17.8348 54.5479 17.9543 54.3193C20.125 50.592 23.6249 47.8235 27.7518 46.5693C25.5651 45.4344 23.8228 43.5981 22.8039 41.3549C21.7851 39.1117 21.5489 36.5915 22.133 34.198C22.7172 31.8045 24.0879 29.6765 26.0256 28.1549C27.9632 26.6332 30.3556 25.8061 32.8193 25.8061C35.2831 25.8061 37.6754 26.6332 39.6131 28.1549C41.5508 29.6765 42.9215 31.8045 43.5057 34.198C44.0898 36.5915 43.8536 39.1117 42.8347 41.3549C41.8159 43.5981 40.0736 45.4344 37.8868 46.5693C42.0138 47.8235 45.5137 50.592 47.6843 54.3193ZM32.8193 45.8193C34.5994 45.8193 36.3394 45.2915 37.8195 44.3026C39.2995 43.3136 40.4531 41.908 41.1343 40.2635C41.8154 38.619 41.9937 36.8094 41.6464 35.0635C41.2991 33.3177 40.442 31.7141 39.1833 30.4554C37.9246 29.1967 36.321 28.3395 34.5752 27.9923C32.8293 27.645 31.0197 27.8232 29.3752 28.5044C27.7307 29.1856 26.325 30.3392 25.3361 31.8192C24.3472 33.2993 23.8193 35.0393 23.8193 36.8193C23.8193 39.2063 24.7676 41.4955 26.4554 43.1833C28.1432 44.8711 30.4324 45.8193 32.8193 45.8193ZM16.8193 29.8193C15.5102 29.8189 14.2274 29.4514 13.1167 28.7585C12.0059 28.0656 11.1118 27.0751 10.5357 25.8995C9.95966 24.7239 9.72482 23.4104 9.85786 22.108C9.9909 20.8056 10.4865 19.5667 11.2883 18.5318C12.0902 17.497 13.1662 16.7078 14.394 16.2538C15.6219 15.7998 16.9525 15.6992 18.2347 15.9635C19.5169 16.2277 20.6993 16.8463 21.6476 17.7488C22.5959 18.6514 23.2721 19.8018 23.5993 21.0693C23.6656 21.3263 23.8313 21.5463 24.0599 21.6811C24.2884 21.8159 24.5612 21.8544 24.8181 21.7881C25.075 21.7218 25.2951 21.5561 25.4299 21.3276C25.5647 21.099 25.6031 20.8263 25.5368 20.5693C25.1683 19.1413 24.4545 17.8257 23.4582 16.7383C22.4619 15.6508 21.2136 14.8249 19.8232 14.3331C18.4328 13.8414 16.9428 13.6989 15.4843 13.9181C14.0259 14.1374 12.6437 14.7117 11.4593 15.5905C10.2749 16.4694 9.32464 17.6258 8.6921 18.9581C8.05956 20.2904 7.76412 21.7577 7.83179 23.231C7.89945 24.7043 8.32813 26.1384 9.08013 27.4071C9.83212 28.6758 10.8844 29.7403 12.1443 30.5068C8.89511 31.4938 6.04758 33.4958 4.01934 36.2194C3.86021 36.4315 3.79188 36.6982 3.82939 36.9608C3.8669 37.2233 4.00717 37.4602 4.21934 37.6193C4.43151 37.7785 4.69821 37.8468 4.96076 37.8093C5.22331 37.7718 5.46021 37.6315 5.61934 37.4193C6.91727 35.6741 8.60698 34.2581 10.5524 33.2854C12.4977 32.3127 14.6444 31.8105 16.8193 31.8193C17.0846 31.8193 17.3389 31.714 17.5264 31.5265C17.714 31.3389 17.8193 31.0846 17.8193 30.8193C17.8193 30.5541 17.714 30.2998 17.5264 30.1122C17.3389 29.9247 17.0846 29.8193 16.8193 29.8193Z" fill="#2D6FFF"></path>
                  </svg>
