<svg width="65" height="65" viewBox="0 0 65 65" fill="none" xmlns="http://www.w3.org/2000/svg">
                        <path d="M56.8193 13.8193H8.81934C8.55412 13.8193 8.29977 13.9247 8.11223 14.1122C7.92469 14.2998 7.81934 14.5541 7.81934 14.8193V48.8193C7.81934 49.615 8.13541 50.378 8.69802 50.9407C9.26062 51.5033 10.0237 51.8193 10.8193 51.8193H54.8193C55.615 51.8193 56.378 51.5033 56.9407 50.9407C57.5033 50.378 57.8193 49.615 57.8193 48.8193V14.8193C57.8193 14.5541 57.714 14.2998 57.5264 14.1122C57.3389 13.9247 57.0846 13.8193 56.8193 13.8193ZM9.81934 27.8193H21.8193V37.8193H9.81934V27.8193ZM23.8193 27.8193H55.8193V37.8193H23.8193V27.8193ZM55.8193 15.8193V25.8193H9.81934V15.8193H55.8193ZM9.81934 48.8193V39.8193H21.8193V49.8193H10.8193C10.5541 49.8193 10.2998 49.714 10.1122 49.5264C9.92469 49.3389 9.81934 49.0846 9.81934 48.8193ZM54.8193 49.8193H23.8193V39.8193H55.8193V48.8193C55.8193 49.0846 55.714 49.3389 55.5264 49.5264C55.3389 49.714 55.0846 49.8193 54.8193 49.8193Z" fill="#2D6FFF"></path>
                      </svg>
