<svg width="65" height="65" viewBox="0 0 65 65" fill="none" xmlns="http://www.w3.org/2000/svg">
                    <path d="M54.8194 13.8193H10.8194C10.0237 13.8193 9.26068 14.1354 8.69807 14.698C8.13546 15.2606 7.81939 16.0237 7.81939 16.8193V56.8193C7.81584 57.3913 7.97741 57.9522 8.28472 58.4347C8.59202 58.9172 9.03201 59.3007 9.55189 59.5393C9.94933 59.7228 10.3817 59.8183 10.8194 59.8193C11.5238 59.8187 12.2051 59.568 12.7419 59.1118L21.1919 51.8193H54.8194C55.615 51.8193 56.3781 51.5033 56.9407 50.9407C57.5033 50.378 57.8194 49.615 57.8194 48.8193V16.8193C57.8194 16.0237 57.5033 15.2606 56.9407 14.698C56.3781 14.1354 55.615 13.8193 54.8194 13.8193ZM55.8194 48.8193C55.8194 49.0846 55.714 49.3389 55.5265 49.5264C55.339 49.714 55.0846 49.8193 54.8194 49.8193H20.8194C20.578 49.8209 20.3454 49.9097 20.1644 50.0693L11.4594 57.5843C11.3136 57.7058 11.1362 57.7832 10.9481 57.8077C10.7599 57.8321 10.5686 57.8024 10.3967 57.7222C10.2247 57.642 10.0791 57.5145 9.97687 57.3546C9.87465 57.1948 9.82003 57.0091 9.81939 56.8193V16.8193C9.81939 16.5541 9.92475 16.2998 10.1123 16.1122C10.2998 15.9247 10.5542 15.8193 10.8194 15.8193H54.8194C55.0846 15.8193 55.339 15.9247 55.5265 16.1122C55.714 16.2998 55.8194 16.5541 55.8194 16.8193V48.8193ZM41.8194 28.8193C41.8194 29.0846 41.714 29.3389 41.5265 29.5264C41.339 29.714 41.0846 29.8193 40.8194 29.8193H24.8194C24.5542 29.8193 24.2998 29.714 24.1123 29.5264C23.9247 29.3389 23.8194 29.0846 23.8194 28.8193C23.8194 28.5541 23.9247 28.2998 24.1123 28.1122C24.2998 27.9247 24.5542 27.8193 24.8194 27.8193H40.8194C41.0846 27.8193 41.339 27.9247 41.5265 28.1122C41.714 28.2998 41.8194 28.5541 41.8194 28.8193ZM41.8194 36.8193C41.8194 37.0846 41.714 37.3389 41.5265 37.5264C41.339 37.714 41.0846 37.8193 40.8194 37.8193H24.8194C24.5542 37.8193 24.2998 37.714 24.1123 37.5264C23.9247 37.3389 23.8194 37.0846 23.8194 36.8193C23.8194 36.5541 23.9247 36.2998 24.1123 36.1122C24.2998 35.9247 24.5542 35.8193 24.8194 35.8193H40.8194C41.0846 35.8193 41.339 35.9247 41.5265 36.1122C41.714 36.2998 41.8194 36.5541 41.8194 36.8193Z" fill="#2D6FFF"></path>
                  </svg>
