<svg xmlns="http://www.w3.org/2000/svg" width="2256" height="944" viewBox="-72 -104 2256 944" class="dx-fill text-neutral-800 dark:text-neutral-200"><style>
  svg { font-family: ui-sans-serif, system-ui, sans-serif; color: #262626; background: #ffffff; }
  .stroke-current { stroke: currentColor; }
  .fill-current { fill: currentColor; }
  .fill-transparent { fill: transparent; }
  .fill-none { fill: none; }
  .stroke-none { stroke: none; }
  .fill-neutral-100 { fill: #f5f5f5; }
  .fill-neutral-800 { fill: #262626; }
  .stroke-neutral-800 { stroke: #262626; }
  svg { --surface-bg: #ffffff; }
  .text-neutral-400 { color: #a3a3a3; }
  .stroke-neutral-500\/20 { stroke: rgba(115, 115, 115, 0.2); }
</style><defs><marker id="_R_0_-arrow" viewBox="0 0 10 10" refX="9" refY="5" markerWidth="8" markerHeight="8" orient="auto-start-reverse"><path d="M 0 1 L 9 5 L 0 9 z" class="fill-neutral-800 dark:fill-neutral-200 stroke-none"></path></marker><marker id="_R_0_-triangle" viewBox="0 0 12 12" refX="11" refY="6" markerWidth="12" markerHeight="12" orient="auto-start-reverse"><path d="M 1 1 L 11 6 L 1 11 z" fill="var(--surface-bg, transparent)" class="stroke-neutral-800 dark:stroke-neutral-200" stroke-width="1.2"></path></marker><marker id="_R_0_-crowsfoot" viewBox="0 0 12 12" refX="11" refY="6" markerWidth="12" markerHeight="12" orient="auto-start-reverse"><path d="M 0 6 L 11 1 M 0 6 L 11 6 M 0 6 L 11 11" class="fill-none stroke-neutral-800 dark:stroke-neutral-200" stroke-width="1.2"></path></marker><marker id="_R_0_-circle" viewBox="0 0 10 10" refX="2" refY="5" markerWidth="8" markerHeight="8" orient="auto"><circle cx="5" cy="5" r="3" class="fill-neutral-800 dark:fill-neutral-200 stroke-none"></circle></marker><pattern id="_R_0_-grid" width="32" height="32" patternUnits="userSpaceOnUse"><path d="M 32 0 L 0 0 0 32" class="fill-none stroke-neutral-500/20" stroke-width="1"></path></pattern></defs><rect x="-10000" y="-10000" width="20000" height="20000" fill="url(#_R_0_-grid)"></rect><g data-object="Authoring" class=""><g class="stroke-current text-neutral-400 dark:text-neutral-500" stroke-width="1.5" stroke-dasharray="6 4"><rect x="-32" y="384" width="640" height="416" rx="8" class="fill-transparent"></rect></g><text x="-16" y="397" font-size="13" class="fill-current text-neutral-400 dark:text-neutral-500"><tspan x="-16" dy="0">Authoring</tspan></text></g><g data-object="Runtime" class=""><g class="stroke-current text-neutral-400 dark:text-neutral-500" stroke-width="1.5" stroke-dasharray="6 4"><rect x="736" y="-64" width="1024" height="864" rx="8" class="fill-transparent"></rect></g><text x="752" y="-51" font-size="13" class="fill-current text-neutral-400 dark:text-neutral-500"><tspan x="752" dy="0">Runtime</tspan></text></g><g data-object="ReactLayer" class=""><g class="stroke-current text-neutral-400 dark:text-neutral-500" stroke-width="1.5" stroke-dasharray="6 4"><rect x="1888" y="160" width="256" height="416" rx="8" class="fill-transparent"></rect></g><text x="1904" y="173" font-size="13" class="fill-current text-neutral-400 dark:text-neutral-500"><tspan x="1904" dy="0">React layer</tspan></text></g><g data-object="Plugin" class=""><g class="stroke-current" stroke-width="1.5"><rect x="384" y="448" width="192" height="96" rx="8" class="fill-transparent"></rect><text x="480" y="496" text-anchor="middle" dominant-baseline="central" font-size="18" class="fill-current stroke-none"><tspan x="480" dy="0">Plugin + modules</tspan></text></g></g><g data-object="CapabilityTag" class=""><g class="stroke-current" stroke-width="1.5"><rect x="0" y="672" width="192" height="96" rx="8" class="fill-transparent"></rect><text x="96" y="720" text-anchor="middle" dominant-baseline="central" font-size="18" class="fill-current stroke-none"><tspan x="96" dy="0">Capability tags</tspan></text></g></g><g data-object="Contribution" class=""><g class="stroke-current" stroke-width="1.5"><rect x="0" y="448" width="192" height="96" rx="8" class="fill-transparent"></rect><text x="96" y="496" text-anchor="middle" dominant-baseline="central" font-size="18" class="fill-current stroke-none"><tspan x="96" dy="0">Contribution</tspan></text></g></g><g data-object="AppCapability" class=""><g class="stroke-current" stroke-width="1.5"><rect x="384" y="672" width="192" height="96" rx="8" class="fill-transparent"></rect><text x="480" y="720" text-anchor="middle" dominant-baseline="central" font-size="18" class="fill-current stroke-none"><tspan x="480" dy="0">AppCapability makers</tspan></text></g></g><g data-object="PluginManager" class=""><g class="stroke-current" stroke-width="1.5"><rect x="768" y="672" width="192" height="96" rx="8" class="fill-transparent"></rect><text x="864" y="720" text-anchor="middle" dominant-baseline="central" font-size="18" class="fill-current stroke-none"><tspan x="864" dy="0">PluginManager</tspan></text></g></g><g data-object="Catalog" class=""><g class="stroke-current" stroke-width="1.5"><rect x="768" y="448" width="192" height="96" rx="8" class="fill-transparent"></rect><text x="864" y="496" text-anchor="middle" dominant-baseline="central" font-size="18" class="fill-current stroke-none"><tspan x="864" dy="0">PluginCatalog</tspan></text></g></g><g data-object="Scheduler" class=""><g class="stroke-current" stroke-width="1.5"><rect x="1152" y="224" width="192" height="96" rx="8" class="fill-transparent"></rect><text x="1248" y="272" text-anchor="middle" dominant-baseline="central" font-size="18" class="fill-current stroke-none"><tspan x="1248" dy="0">ActivationScheduler</tspan></text></g></g><g data-object="ActivationGraph" class=""><g class="stroke-current" stroke-width="1.5"><rect x="768" y="0" width="192" height="96" rx="8" class="fill-transparent"></rect><text x="864" y="48" text-anchor="middle" dominant-baseline="central" font-size="18" class="fill-current stroke-none"><tspan x="864" dy="0">ActivationGraph</tspan></text></g></g><g data-object="ModuleLoader" class=""><g class="stroke-current" stroke-width="1.5"><rect x="1152" y="0" width="192" height="96" rx="8" class="fill-transparent"></rect><text x="1248" y="48" text-anchor="middle" dominant-baseline="central" font-size="18" class="fill-current stroke-none"><tspan x="1248" dy="0">ModuleLoader</tspan></text></g></g><g data-object="CapabilityManager" class=""><g class="stroke-current" stroke-width="1.5"><rect x="1536" y="448" width="192" height="96" rx="8" class="fill-transparent"></rect><text x="1632" y="496" text-anchor="middle" dominant-baseline="central" font-size="18" class="fill-current stroke-none"><tspan x="1632" dy="0">CapabilityManager</tspan></text></g></g><g data-object="ActivationEvent" class=""><g class="stroke-current" stroke-width="1.5"><rect x="1152" y="448" width="192" height="96" rx="8" class="fill-transparent"></rect><text x="1248" y="496" text-anchor="middle" dominant-baseline="central" font-size="18" class="fill-current stroke-none"><tspan x="1248" dy="0">Activation events</tspan></text></g></g><g data-object="ProcessManager" class=""><g class="stroke-current" stroke-width="1.5"><rect x="1536" y="224" width="192" height="96" rx="8" class="fill-transparent"></rect><text x="1632" y="272" text-anchor="middle" dominant-baseline="central" font-size="18" class="fill-current stroke-none"><tspan x="1632" dy="0">ProcessManagerPlugin</tspan></text></g></g><g data-object="UseApp" class=""><g class="stroke-current" stroke-width="1.5"><rect x="1920" y="224" width="192" height="96" rx="8" class="fill-transparent"></rect><text x="2016" y="272" text-anchor="middle" dominant-baseline="central" font-size="18" class="fill-current stroke-none"><tspan x="2016" dy="0">useApp / App</tspan></text></g></g><g data-object="Surface" class=""><g class="stroke-current" stroke-width="1.5"><rect x="1920" y="448" width="192" height="96" rx="8" class="fill-transparent"></rect><text x="2016" y="496" text-anchor="middle" dominant-baseline="central" font-size="18" class="fill-current stroke-none"><tspan x="2016" dy="0">Surface</tspan></text></g></g><g data-object="edges" class=""><g class="stroke-current"><line x1="480" y1="672" x2="480" y2="544" stroke-width="1.5" marker-end="url(#_R_0_-arrow)"></line></g><text x="488" y="592" font-size="13" class="fill-current"><tspan x="488" dy="0">module makers</tspan></text><polyline points="96,672 96,560 480,560" class="stroke-current fill-none" stroke-width="1.5"></polyline><g class="stroke-current"><line x1="480" y1="560" x2="480" y2="544" stroke-width="1.5" marker-end="url(#_R_0_-arrow)"></line></g><text x="296" y="544" font-size="13" class="fill-current"><tspan x="296" dy="0">requires / provides</tspan></text><g class="stroke-current"><line x1="576" y1="496" x2="768" y2="496" stroke-width="1.5" marker-end="url(#_R_0_-arrow)"></line></g><text x="680" y="480" font-size="13" class="fill-current"><tspan x="680" dy="0">registered in</tspan></text><g class="stroke-current"><line x1="864" y1="672" x2="864" y2="544" stroke-width="1.5" marker-end="url(#_R_0_-arrow)"></line></g><text x="872" y="592" font-size="13" class="fill-current"><tspan x="872" dy="0">owns</tspan></text><polyline points="960,720 1144,720 1144,432 1248,432" class="stroke-current fill-none" stroke-width="1.5"></polyline><g class="stroke-current"><line x1="1248" y1="432" x2="1248" y2="320" stroke-width="1.5" marker-end="url(#_R_0_-arrow)"></line></g><text x="1152" y="560" font-size="13" class="fill-current"><tspan x="1152" dy="0">start / activate</tspan></text><polyline points="960,720 1632,720" class="stroke-current fill-none" stroke-width="1.5"></polyline><g class="stroke-current"><line x1="1632" y1="720" x2="1632" y2="544" stroke-width="1.5" marker-end="url(#_R_0_-arrow)"></line></g><text x="1304" y="704" font-size="13" class="fill-current"><tspan x="1304" dy="0">owns</tspan></text><polyline points="864,448 864,272" class="stroke-current fill-none" stroke-width="1.5"></polyline><g class="stroke-current"><line x1="864" y1="272" x2="1152" y2="272" stroke-width="1.5" marker-end="url(#_R_0_-arrow)"></line></g><text x="872" y="344" font-size="13" class="fill-current"><tspan x="872" dy="0">enabled modules</tspan></text><g class="stroke-current"><line x1="1248" y1="448" x2="1248" y2="320" stroke-width="1.5" marker-end="url(#_R_0_-arrow)"></line></g><text x="1256" y="368" font-size="13" class="fill-current"><tspan x="1256" dy="0">activatesOn</tspan></text><polyline points="1264,224 1264,112 864,112" class="stroke-current fill-none" stroke-width="1.5"></polyline><g class="stroke-current"><line x1="864" y1="112" x2="864" y2="96" stroke-width="1.5" marker-end="url(#_R_0_-arrow)"></line></g><text x="1072" y="96" font-size="13" class="fill-current"><tspan x="1072" dy="0">rounds and waves</tspan></text><g class="stroke-current"><line x1="1248" y1="224" x2="1248" y2="96" stroke-width="1.5" marker-end="url(#_R_0_-arrow)"></line></g><text x="1256" y="144" font-size="13" class="fill-current"><tspan x="1256" dy="0">load module</tspan></text><polyline points="1152,48 968,48 968,-8 96,-8" class="stroke-current fill-none" stroke-width="1.5"></polyline><g class="stroke-current"><line x1="96" y1="-8" x2="96" y2="448" stroke-width="1.5" marker-end="url(#_R_0_-arrow)"></line></g><text x="976" y="4" font-size="13" class="fill-current"><tspan x="976" dy="0">activate returns</tspan></text><polyline points="192,496 376,496 376,424 1368,424 1368,496" class="stroke-current fill-none" stroke-width="1.5"></polyline><g class="stroke-current"><line x1="1368" y1="496" x2="1536" y2="496" stroke-width="1.5" marker-end="url(#_R_0_-arrow)"></line></g><text x="880" y="408" font-size="13" class="fill-current"><tspan x="880" dy="0">expand to entries</tspan></text><g class="stroke-current"><line x1="1632" y1="448" x2="1632" y2="320" stroke-width="1.5" marker-end="url(#_R_0_-arrow)"></line></g><text x="1640" y="368" font-size="13" class="fill-current"><tspan x="1640" dy="0">OperationHandler</tspan></text><g class="stroke-current"><line x1="1616" y1="320" x2="1616" y2="448" stroke-width="1.5" marker-end="url(#_R_0_-arrow)"></line></g><text x="1624" y="368" font-size="13" class="fill-current"><tspan x="1624" dy="0">OperationInvoker</tspan></text><g class="stroke-current"><line x1="1728" y1="496" x2="1920" y2="496" stroke-width="1.5" marker-end="url(#_R_0_-arrow)"></line></g><text x="1832" y="480" font-size="13" class="fill-current"><tspan x="1832" dy="0">ReactSurface atom</tspan></text><polyline points="1728,496 1744,496 1744,272" class="stroke-current fill-none" stroke-width="1.5"></polyline><g class="stroke-current"><line x1="1744" y1="272" x2="1920" y2="272" stroke-width="1.5" marker-end="url(#_R_0_-arrow)"></line></g><text x="1752" y="368" font-size="13" class="fill-current"><tspan x="1752" dy="0">ReactContext / Root</tspan></text><polyline points="1920,288 1760,288 1760,736" class="stroke-current fill-none" stroke-width="1.5"></polyline><g class="stroke-current"><line x1="1760" y1="736" x2="960" y2="736" stroke-width="1.5" marker-end="url(#_R_0_-arrow)"></line></g><text x="1768" y="496" font-size="13" class="fill-current"><tspan x="1768" dy="0">creates</tspan></text><polyline points="1920,480 1792,480 1792,552 1360,552 1360,480" class="stroke-current fill-none" stroke-width="1.5"></polyline><g class="stroke-current"><line x1="1360" y1="480" x2="1344" y2="480" stroke-width="1.5" marker-end="url(#_R_0_-arrow)"></line></g><text x="1584" y="536" font-size="13" class="fill-current"><tspan x="1584" dy="0">SurfacesRequested</tspan></text></g></svg>