<svg xmlns="http://www.w3.org/2000/svg" width="912" height="1808" viewBox="-72 -104 912 1808" class="dx-fill text-neutral-800 dark:text-neutral-200"><style>
  svg { font-family: ui-sans-serif, system-ui, sans-serif; color: #262626; background: #ffffff; }
  .stroke-current { stroke: currentColor; }
  .fill-current { fill: currentColor; }
  .fill-transparent { fill: transparent; }
  .fill-none { fill: none; }
  .stroke-none { stroke: none; }
  .fill-neutral-100 { fill: #f5f5f5; }
  .fill-neutral-800 { fill: #262626; }
  .text-neutral-400 { color: #a3a3a3; }
  .stroke-neutral-500\/20 { stroke: rgba(115, 115, 115, 0.2); }
</style><defs><marker id="_R_0_-arrowhead" viewBox="0 0 10 10" refX="9" refY="5" markerWidth="8" markerHeight="8" orient="auto-start-reverse"><path d="M 0 1 L 9 5 L 0 9 z" class="fill-neutral-800 dark:fill-neutral-200 stroke-none"></path></marker><pattern id="_R_0_-grid" width="32" height="32" patternUnits="userSpaceOnUse"><path d="M 32 0 L 0 0 0 32" class="fill-none stroke-neutral-500/20" stroke-width="1"></path></pattern></defs><rect x="-10000" y="-10000" width="20000" height="20000" fill="url(#_R_0_-grid)"></rect><g data-object="Authoring" class=""><g class="stroke-current text-neutral-400 dark:text-neutral-500" stroke-width="1.5" stroke-dasharray="6 4"><rect x="-32" y="-64" width="832" height="384" rx="8" class="fill-transparent"></rect></g><text x="-16" y="-51" font-size="13" class="fill-current text-neutral-400 dark:text-neutral-500"><tspan x="-16" dy="0">Authoring</tspan></text></g><g data-object="Runtime" class=""><g class="stroke-current text-neutral-400 dark:text-neutral-500" stroke-width="1.5" stroke-dasharray="6 4"><rect x="-32" y="512" width="832" height="768" rx="8" class="fill-transparent"></rect></g><text x="-16" y="525" font-size="13" class="fill-current text-neutral-400 dark:text-neutral-500"><tspan x="-16" dy="0">Runtime</tspan></text></g><g data-object="ReactLayer" class=""><g class="stroke-current text-neutral-400 dark:text-neutral-500" stroke-width="1.5" stroke-dasharray="6 4"><rect x="256" y="1472" width="544" height="192" rx="8" class="fill-transparent"></rect></g><text x="272" y="1485" font-size="13" class="fill-current text-neutral-400 dark:text-neutral-500"><tspan x="272" dy="0">React layer</tspan></text></g><g data-object="Plugin" class=""><g class="stroke-current" stroke-width="1.5"><rect x="0" y="192" width="192" height="96" rx="8" class="fill-transparent"></rect><text x="96" y="240" text-anchor="middle" dominant-baseline="central" font-size="18" class="fill-current stroke-none"><tspan x="96" dy="0">Plugin + modules</tspan></text></g></g><g data-object="CapabilityTag" class=""><g class="stroke-current" stroke-width="1.5"><rect x="288" y="0" width="192" height="96" rx="8" class="fill-transparent"></rect><text x="384" y="48" text-anchor="middle" dominant-baseline="central" font-size="18" class="fill-current stroke-none"><tspan x="384" dy="0">Capability tags</tspan></text></g></g><g data-object="Contribution" class=""><g class="stroke-current" stroke-width="1.5"><rect x="576" y="0" width="192" height="96" rx="8" class="fill-transparent"></rect><text x="672" y="48" text-anchor="middle" dominant-baseline="central" font-size="18" class="fill-current stroke-none"><tspan x="672" dy="0">Contribution</tspan></text></g></g><g data-object="AppCapability" class=""><g class="stroke-current" stroke-width="1.5"><rect x="0" y="0" width="192" height="96" rx="8" class="fill-transparent"></rect><text x="96" y="48" text-anchor="middle" dominant-baseline="central" font-size="18" class="fill-current stroke-none"><tspan x="96" dy="0">AppCapability makers</tspan></text></g></g><g data-object="PluginManager" class=""><g class="stroke-current" stroke-width="1.5"><rect x="288" y="576" width="192" height="96" rx="8" class="fill-transparent"></rect><text x="384" y="624" text-anchor="middle" dominant-baseline="central" font-size="18" class="fill-current stroke-none"><tspan x="384" dy="0">PluginManager</tspan></text></g></g><g data-object="Catalog" class=""><g class="stroke-current" stroke-width="1.5"><rect x="288" y="768" width="192" height="96" rx="8" class="fill-transparent"></rect><text x="384" y="816" text-anchor="middle" dominant-baseline="central" font-size="18" class="fill-current stroke-none"><tspan x="384" dy="0">PluginCatalog</tspan></text></g></g><g data-object="Scheduler" class=""><g class="stroke-current" stroke-width="1.5"><rect x="0" y="960" width="192" height="96" rx="8" class="fill-transparent"></rect><text x="96" y="1008" text-anchor="middle" dominant-baseline="central" font-size="18" class="fill-current stroke-none"><tspan x="96" dy="0">ActivationScheduler</tspan></text></g></g><g data-object="ActivationGraph" class=""><g class="stroke-current" stroke-width="1.5"><rect x="0" y="1152" width="192" height="96" rx="8" class="fill-transparent"></rect><text x="96" y="1200" text-anchor="middle" dominant-baseline="central" font-size="18" class="fill-current stroke-none"><tspan x="96" dy="0">ActivationGraph</tspan></text></g></g><g data-object="ModuleLoader" class=""><g class="stroke-current" stroke-width="1.5"><rect x="288" y="1152" width="192" height="96" rx="8" class="fill-transparent"></rect><text x="384" y="1200" text-anchor="middle" dominant-baseline="central" font-size="18" class="fill-current stroke-none"><tspan x="384" dy="0">ModuleLoader</tspan></text></g></g><g data-object="CapabilityManager" class=""><g class="stroke-current" stroke-width="1.5"><rect x="576" y="768" width="192" height="96" rx="8" class="fill-transparent"></rect><text x="672" y="816" text-anchor="middle" dominant-baseline="central" font-size="18" class="fill-current stroke-none"><tspan x="672" dy="0">CapabilityManager</tspan></text></g></g><g data-object="ActivationEvent" class=""><g class="stroke-current" stroke-width="1.5"><rect x="0" y="768" width="192" height="96" rx="8" class="fill-transparent"></rect><text x="96" y="816" text-anchor="middle" dominant-baseline="central" font-size="18" class="fill-current stroke-none"><tspan x="96" dy="0">Activation events</tspan></text></g></g><g data-object="ProcessManager" class=""><g class="stroke-current" stroke-width="1.5"><rect x="576" y="576" width="192" height="96" rx="8" class="fill-transparent"></rect><text x="672" y="624" text-anchor="middle" dominant-baseline="central" font-size="18" class="fill-current stroke-none"><tspan x="672" dy="0">ProcessManagerPlugin</tspan></text></g></g><g data-object="UseApp" class=""><g class="stroke-current" stroke-width="1.5"><rect x="576" y="1536" width="192" height="96" rx="8" class="fill-transparent"></rect><text x="672" y="1584" text-anchor="middle" dominant-baseline="central" font-size="18" class="fill-current stroke-none"><tspan x="672" dy="0">useApp / App</tspan></text></g></g><g data-object="Surface" class=""><g class="stroke-current" stroke-width="1.5"><rect x="288" y="1536" width="192" height="96" rx="8" class="fill-transparent"></rect><text x="384" y="1584" text-anchor="middle" dominant-baseline="central" font-size="18" class="fill-current stroke-none"><tspan x="384" dy="0">Surface</tspan></text></g></g><g data-object="edges" class=""><g class="stroke-current"><line x1="96" y1="96" x2="96" y2="192" stroke-width="1.5" marker-end="url(#_R_0_-arrowhead)"></line></g><text x="104" y="128" font-size="13" class="fill-current"><tspan x="104" dy="0">module makers</tspan></text><polyline points="384,96 384,240" class="stroke-current fill-none" stroke-width="1.5"></polyline><g class="stroke-current"><line x1="384" y1="240" x2="192" y2="240" stroke-width="1.5" marker-end="url(#_R_0_-arrowhead)"></line></g><text x="392" y="152" font-size="13" class="fill-current"><tspan x="392" dy="0">requires / provides</tspan></text><polyline points="96,288 96,752 384,752" class="stroke-current fill-none" stroke-width="1.5"></polyline><g class="stroke-current"><line x1="384" y1="752" x2="384" y2="768" stroke-width="1.5" marker-end="url(#_R_0_-arrowhead)"></line></g><text x="248" y="736" font-size="13" class="fill-current"><tspan x="248" dy="0">registered in</tspan></text><g class="stroke-current"><line x1="384" y1="672" x2="384" y2="768" stroke-width="1.5" marker-end="url(#_R_0_-arrowhead)"></line></g><text x="392" y="704" font-size="13" class="fill-current"><tspan x="392" dy="0">owns</tspan></text><polyline points="288,624 216,624 216,920 96,920" class="stroke-current fill-none" stroke-width="1.5"></polyline><g class="stroke-current"><line x1="96" y1="920" x2="96" y2="960" stroke-width="1.5" marker-end="url(#_R_0_-arrowhead)"></line></g><text x="224" y="756" font-size="13" class="fill-current"><tspan x="224" dy="0">start / activate</tspan></text><polyline points="384,672 384,688 672,688" class="stroke-current fill-none" stroke-width="1.5"></polyline><g class="stroke-current"><line x1="672" y1="688" x2="672" y2="768" stroke-width="1.5" marker-end="url(#_R_0_-arrowhead)"></line></g><text x="536" y="672" font-size="13" class="fill-current"><tspan x="536" dy="0">owns</tspan></text><polyline points="384,864 384,1008" class="stroke-current fill-none" stroke-width="1.5"></polyline><g class="stroke-current"><line x1="384" y1="1008" x2="192" y2="1008" stroke-width="1.5" marker-end="url(#_R_0_-arrowhead)"></line></g><text x="392" y="920" font-size="13" class="fill-current"><tspan x="392" dy="0">enabled modules</tspan></text><g class="stroke-current"><line x1="96" y1="864" x2="96" y2="960" stroke-width="1.5" marker-end="url(#_R_0_-arrowhead)"></line></g><text x="104" y="896" font-size="13" class="fill-current"><tspan x="104" dy="0">activatesOn</tspan></text><g class="stroke-current"><line x1="96" y1="1056" x2="96" y2="1152" stroke-width="1.5" marker-end="url(#_R_0_-arrowhead)"></line></g><text x="104" y="1088" font-size="13" class="fill-current"><tspan x="104" dy="0">rounds and waves</tspan></text><polyline points="192,1008 384,1008" class="stroke-current fill-none" stroke-width="1.5"></polyline><g class="stroke-current"><line x1="384" y1="1008" x2="384" y2="1152" stroke-width="1.5" marker-end="url(#_R_0_-arrowhead)"></line></g><text x="296" y="992" font-size="13" class="fill-current"><tspan x="296" dy="0">load module</tspan></text><polyline points="480,1200 528,1200 528,112 672,112" class="stroke-current fill-none" stroke-width="1.5"></polyline><g class="stroke-current"><line x1="672" y1="112" x2="672" y2="96" stroke-width="1.5" marker-end="url(#_R_0_-arrowhead)"></line></g><text x="536" y="640" font-size="13" class="fill-current"><tspan x="536" dy="0">activate returns</tspan></text><polyline points="672,96 672,568 776,568 776,752 672,752" class="stroke-current fill-none" stroke-width="1.5"></polyline><g class="stroke-current"><line x1="672" y1="752" x2="672" y2="768" stroke-width="1.5" marker-end="url(#_R_0_-arrowhead)"></line></g><text x="784" y="644" font-size="13" class="fill-current"><tspan x="784" dy="0">expand to entries</tspan></text><g class="stroke-current"><line x1="656" y1="768" x2="656" y2="672" stroke-width="1.5" marker-end="url(#_R_0_-arrowhead)"></line></g><text x="664" y="704" font-size="13" class="fill-current"><tspan x="664" dy="0">OperationHandler</tspan></text><g class="stroke-current"><line x1="688" y1="672" x2="688" y2="768" stroke-width="1.5" marker-end="url(#_R_0_-arrowhead)"></line></g><text x="696" y="704" font-size="13" class="fill-current"><tspan x="696" dy="0">OperationInvoker</tspan></text><polyline points="672,864 672,1464 384,1464" class="stroke-current fill-none" stroke-width="1.5"></polyline><g class="stroke-current"><line x1="384" y1="1464" x2="384" y2="1536" stroke-width="1.5" marker-end="url(#_R_0_-arrowhead)"></line></g><text x="536" y="1448" font-size="13" class="fill-current"><tspan x="536" dy="0">ReactSurface atom</tspan></text><g class="stroke-current"><line x1="672" y1="864" x2="672" y2="1536" stroke-width="1.5" marker-end="url(#_R_0_-arrowhead)"></line></g><text x="680" y="1184" font-size="13" class="fill-current"><tspan x="680" dy="0">ReactContext / Root</tspan></text><polyline points="672,1536 672,1520 496,1520 496,624" class="stroke-current fill-none" stroke-width="1.5"></polyline><g class="stroke-current"><line x1="496" y1="624" x2="480" y2="624" stroke-width="1.5" marker-end="url(#_R_0_-arrowhead)"></line></g><text x="592" y="1504" font-size="13" class="fill-current"><tspan x="592" dy="0">creates</tspan></text><polyline points="384,1536 384,1520 224,1520 224,816" class="stroke-current fill-none" stroke-width="1.5"></polyline><g class="stroke-current"><line x1="224" y1="816" x2="192" y2="816" stroke-width="1.5" marker-end="url(#_R_0_-arrowhead)"></line></g><text x="312" y="1504" font-size="13" class="fill-current"><tspan x="312" dy="0">SurfacesRequested</tspan></text></g></svg>