<?xml version="1.0" encoding="UTF-8" standalone="no"?>
<!DOCTYPE svg PUBLIC "-//W3C//DTD SVG 1.1//EN" "http://www.w3.org/Graphics/SVG/1.1/DTD/svg11.dtd">
<svg width="100%" height="100%" viewBox="0 0 1200 1200" version="1.1" xmlns="http://www.w3.org/2000/svg" xmlns:xlink="http://www.w3.org/1999/xlink" xml:space="preserve" xmlns:serif="http://www.serif.com/" style="fill-rule:evenodd;clip-rule:evenodd;stroke-miterlimit:1;">
    <g transform="matrix(1,0,0,1,-2000,0)">
        <g id="echo-brane" transform="matrix(0.4,0,0,0.4,2000,0)">
            <rect x="0" y="0" width="3000" height="3000" style="fill:none;"/>
            <clipPath id="_clip1">
                <rect x="0" y="0" width="3000" height="3000"/>
            </clipPath>
            <g clip-path="url(#_clip1)">
                <g transform="matrix(7.5,0,0,8.42697,-10590,-404.494)">
                    <path d="M1565.18,70.474C1573.28,57.745 1591.48,48 1612,48C1632.52,48 1650.72,57.745 1658.82,70.474C1672.99,63.056 1694.23,62.716 1712,71.847C1729.77,80.979 1740.06,97.518 1739.92,112.147C1756.36,112.027 1774.94,121.184 1785.2,137C1795.47,152.816 1795.08,171.717 1786.75,184.327C1801.05,191.538 1812,207.737 1812,226C1812,244.263 1801.05,260.462 1786.75,267.673C1795.08,280.283 1795.47,299.184 1785.2,315C1774.94,330.816 1756.36,339.973 1739.92,339.853C1740.06,354.482 1729.77,371.021 1712,380.153C1694.23,389.284 1672.99,388.944 1658.82,381.526C1650.72,394.255 1632.52,404 1612,404C1591.48,404 1573.28,394.255 1565.18,381.526C1551.01,388.944 1529.77,389.284 1512,380.153C1494.23,371.021 1483.94,354.482 1484.08,339.853C1467.64,339.973 1449.06,330.816 1438.8,315C1428.54,299.184 1428.92,280.283 1437.25,267.673C1422.95,260.462 1412,244.263 1412,226C1412,207.737 1422.95,191.538 1437.25,184.327C1428.92,171.717 1428.54,152.816 1438.8,137C1449.06,121.184 1467.64,112.027 1484.08,112.147C1483.94,97.518 1494.23,80.979 1512,71.847C1529.77,62.716 1551.01,63.056 1565.18,70.474Z" style="fill:rgb(241,247,253);"/>
                </g>
                <g transform="matrix(1,0,0,1,280,240)">
                    <g transform="matrix(2.8,0,0,2.92135,-3553.6,-60.2247)">
                        <path d="M1569.06,83.383C1569.11,63.853 1588.33,48 1612,48C1635.67,48 1654.89,63.853 1654.94,83.383C1665.95,66.49 1691.5,61.316 1712,71.847C1732.5,82.379 1740.24,104.663 1729.31,121.597C1748.33,111.868 1773.37,118.758 1785.2,137C1797.04,155.242 1791.23,177.985 1772.24,187.786C1794.19,187.827 1812,204.936 1812,226C1812,247.064 1794.19,264.173 1772.24,264.214C1791.23,274.015 1797.04,296.758 1785.2,315C1773.37,333.242 1748.33,340.132 1729.31,330.403C1740.24,347.337 1732.5,369.621 1712,380.153C1691.5,390.684 1665.95,385.51 1654.94,368.617C1654.89,388.147 1635.67,404 1612,404C1588.33,404 1569.11,388.147 1569.06,368.617C1558.05,385.51 1532.5,390.684 1512,380.153C1491.5,369.621 1483.76,347.337 1494.69,330.403C1475.67,340.132 1450.63,333.242 1438.8,315C1426.96,296.758 1432.78,274.015 1451.76,264.214C1429.81,264.173 1412,247.064 1412,226C1412,204.936 1429.81,187.827 1451.76,187.786C1432.78,177.985 1426.96,155.242 1438.8,137C1450.63,118.758 1475.67,111.868 1494.69,121.597C1483.76,104.663 1491.5,82.379 1512,71.847C1532.5,61.316 1558.05,66.49 1569.06,83.383Z" style="fill:rgb(220,235,251);"/>
                    </g>
                    <g transform="matrix(2.5,0,0,2.6,-2320,537.6)">
                        <circle cx="1280" cy="48" r="16" style="fill:rgb(26,122,230);"/>
                    </g>
                    <g transform="matrix(2.5,0,0,2.6,-2160,371.2)">
                        <circle cx="1280" cy="48" r="16" style="fill:rgb(26,122,230);"/>
                    </g>
                    <g transform="matrix(2.5,0,0,2.6,-2400,288)">
                        <circle cx="1280" cy="48" r="16" style="fill:rgb(26,122,230);"/>
                    </g>
                    <g transform="matrix(2.5,0,0,2.6,-3040,38.4)">
                        <path d="M1632,176L1536,144L1568,240" style="fill:none;stroke:rgb(26,122,230);stroke-width:1.84px;"/>
                    </g>
                    <g transform="matrix(2.5,0,0,2.6,-2160,121.6)">
                        <circle cx="1280" cy="48" r="16" style="fill:rgb(26,122,230);"/>
                    </g>
                    <g transform="matrix(2.5,0,0,2.6,-2000,173.6)">
                        <circle cx="1280" cy="48" r="16" style="fill:rgb(26,122,230);"/>
                    </g>
                    <g transform="matrix(2.5,0,0,2.6,-2520,662.4)">
                        <circle cx="1280" cy="48" r="16" style="fill:rgb(26,122,230);"/>
                    </g>
                    <g transform="matrix(2.5,0,0,2.6,-2420,766.4)">
                        <circle cx="1280" cy="48" r="16" style="fill:rgb(26,122,230);"/>
                    </g>
                    <g transform="matrix(2.5,0,0,2.6,-2280,797.6)">
                        <circle cx="1280" cy="48" r="16" style="fill:rgb(26,122,230);"/>
                    </g>
                    <g transform="matrix(2.5,0,0,2.6,-3040,38.4)">
                        <path d="M1488,288L1568,240L1632,176L1632,80" style="fill:none;stroke:rgb(26,122,230);stroke-width:1.84px;"/>
                    </g>
                    <g transform="matrix(2.5,0,0,2.6,-3040,38.4)">
                        <path d="M1528,328L1568,240L1584,340" style="fill:none;stroke:rgb(26,122,230);stroke-width:1.84px;"/>
                    </g>
                    <g transform="matrix(2.5,0,0,2.6,-3040,38.4)">
                        <path d="M1696,100L1632,176" style="fill:none;stroke:rgb(26,122,230);stroke-width:1.84px;"/>
                    </g>
                    <g transform="matrix(1.33333,0,0,1.38667,-60,17.6)">
                        <g transform="matrix(1.40625,0,0,1.875,-1567.5,0)">
                            <rect x="1456" y="128" width="32" height="32" style="fill:rgb(141,189,243);"/>
                            <path d="M1488,128L1456,128L1456,160L1488,160L1488,128ZM1485.5,129.803L1485.5,158.197C1485.5,158.197 1458.5,158.197 1458.5,158.197C1458.5,158.197 1458.5,129.803 1458.5,129.803L1485.5,129.803Z" style="fill:rgb(26,122,230);"/>
                        </g>
                        <g transform="matrix(1.40625,0,0,1.875,-1552.5,15)">
                            <rect x="1456" y="128" width="32" height="32" style="fill:rgb(141,189,243);"/>
                            <path d="M1488,128L1456,128L1456,160L1488,160L1488,128ZM1485.5,129.803L1485.5,158.197C1485.5,158.197 1458.5,158.197 1458.5,158.197C1458.5,158.197 1458.5,129.803 1458.5,129.803L1485.5,129.803Z" style="fill:rgb(26,122,230);"/>
                        </g>
                        <g transform="matrix(1.40625,0,0,1.875,-1537.5,30)">
                            <rect x="1456" y="128" width="32" height="32" style="fill:rgb(141,189,243);"/>
                            <path d="M1488,128L1456,128L1456,160L1488,160L1488,128ZM1485.5,129.803L1485.5,158.197C1485.5,158.197 1458.5,158.197 1458.5,158.197C1458.5,158.197 1458.5,129.803 1458.5,129.803L1485.5,129.803Z" style="fill:rgb(26,122,230);"/>
                        </g>
                    </g>
                    <g transform="matrix(1.33333,0,0,1.38667,390,527.2)">
                        <g transform="matrix(1.40625,0,0,1.875,-1567.5,0)">
                            <rect x="1456" y="128" width="32" height="32" style="fill:rgb(141,189,243);"/>
                            <path d="M1488,128L1456,128L1456,160L1488,160L1488,128ZM1485.5,129.803L1485.5,158.197C1485.5,158.197 1458.5,158.197 1458.5,158.197C1458.5,158.197 1458.5,129.803 1458.5,129.803L1485.5,129.803Z" style="fill:rgb(26,122,230);"/>
                        </g>
                        <g transform="matrix(1.40625,0,0,1.875,-1552.5,15)">
                            <rect x="1456" y="128" width="32" height="32" style="fill:rgb(141,189,243);"/>
                            <path d="M1488,128L1456,128L1456,160L1488,160L1488,128ZM1485.5,129.803L1485.5,158.197C1485.5,158.197 1458.5,158.197 1458.5,158.197C1458.5,158.197 1458.5,129.803 1458.5,129.803L1485.5,129.803Z" style="fill:rgb(26,122,230);"/>
                        </g>
                        <g transform="matrix(1.40625,0,0,1.875,-1537.5,30)">
                            <rect x="1456" y="128" width="32" height="32" style="fill:rgb(141,189,243);"/>
                            <path d="M1488,128L1456,128L1456,160L1488,160L1488,128ZM1485.5,129.803L1485.5,158.197C1485.5,158.197 1458.5,158.197 1458.5,158.197C1458.5,158.197 1458.5,129.803 1458.5,129.803L1485.5,129.803Z" style="fill:rgb(26,122,230);"/>
                        </g>
                    </g>
                    <g transform="matrix(2.5,0,0,2.6,-3040,38.4)">
                        <path d="M1584,340L1628,340" style="fill:none;stroke:rgb(26,122,230);stroke-width:1.84px;"/>
                    </g>
                    <g transform="matrix(3,0,0,2.6,-3808,38.4)">
                        <path d="M1536,144L1496,144" style="fill:none;stroke:rgb(26,122,230);stroke-width:1.67px;"/>
                    </g>
                </g>
                <g transform="matrix(0.692308,0,0,-0.692308,-2.30769,2135.38)">
                    <g transform="matrix(2.8,0,0,2.92135,-3553.6,-60.2247)">
                        <path d="M1569.06,83.383C1569.06,63.855 1588.3,48 1612,48C1635.7,48 1654.94,63.855 1654.94,83.383C1665.91,66.471 1691.48,61.302 1712,71.847C1732.52,82.393 1740.28,104.685 1729.31,121.597C1748.31,111.833 1773.36,118.735 1785.2,137C1797.05,155.265 1791.25,178.022 1772.24,187.786C1794.19,187.786 1812,204.909 1812,226C1812,247.091 1794.19,264.214 1772.24,264.214C1791.25,273.978 1797.05,296.735 1785.2,315C1773.36,333.265 1748.31,340.167 1729.31,330.403C1740.28,347.315 1732.52,369.607 1712,380.153C1691.48,390.698 1665.91,385.529 1654.94,368.617C1654.94,388.145 1635.7,404 1612,404C1588.3,404 1569.06,388.145 1569.06,368.617C1558.09,385.529 1532.52,390.698 1512,380.153C1491.48,369.607 1483.72,347.315 1494.69,330.403C1475.69,340.167 1450.64,333.265 1438.8,315C1426.95,296.735 1432.75,273.978 1451.76,264.214C1429.81,264.214 1412,247.091 1412,226C1412,204.909 1429.81,187.786 1451.76,187.786C1432.75,178.022 1426.95,155.265 1438.8,137C1450.64,118.735 1475.69,111.833 1494.69,121.597C1483.72,104.685 1491.48,82.393 1512,71.847C1532.52,61.302 1558.09,66.471 1569.06,83.383Z" style="fill:rgb(220,235,251);"/>
                    </g>
                    <g transform="matrix(2.5,0,0,2.6,-2320,537.6)">
                        <circle cx="1280" cy="48" r="16" style="fill:rgb(26,122,230);"/>
                    </g>
                    <g transform="matrix(2.5,0,0,2.6,-2160,373.6)">
                        <circle cx="1280" cy="48" r="16" style="fill:rgb(26,122,230);"/>
                    </g>
                    <g transform="matrix(2.5,0,0,2.6,-1920,356.8)">
                        <circle cx="1280" cy="48" r="16" style="fill:rgb(26,122,230);"/>
                    </g>
                    <g transform="matrix(2.5,0,0,2.6,-1960,553.6)">
                        <circle cx="1280" cy="48" r="16" style="fill:rgb(26,122,230);"/>
                    </g>
                    <g transform="matrix(2.5,0,0,-2.5,-2760,4560)">
                        <path d="M1600,1552L1520,1624L1616,1632" style="fill:none;stroke:rgb(26,122,230);stroke-width:2.71px;"/>
                    </g>
                    <g transform="matrix(2.5,0,0,2.6,-2400,288)">
                        <circle cx="1280" cy="48" r="16" style="fill:rgb(26,122,230);"/>
                    </g>
                    <g transform="matrix(2.5,0,0,2.6,-2160,121.6)">
                        <circle cx="1280" cy="48" r="16" style="fill:rgb(26,122,230);"/>
                    </g>
                    <g transform="matrix(2.5,0,0,2.6,-2000,173.6)">
                        <circle cx="1280" cy="48" r="16" style="fill:rgb(26,122,230);"/>
                    </g>
                    <g transform="matrix(2.5,0,0,2.6,-2520,662.4)">
                        <circle cx="1280" cy="48" r="16" style="fill:rgb(26,122,230);"/>
                    </g>
                    <g transform="matrix(2.5,0,0,2.6,-2420,766.4)">
                        <circle cx="1280" cy="48" r="16" style="fill:rgb(26,122,230);"/>
                    </g>
                    <g transform="matrix(2.5,0,0,2.6,-2280,797.6)">
                        <circle cx="1280" cy="48" r="16" style="fill:rgb(26,122,230);"/>
                    </g>
                    <g transform="matrix(2.5,0,0,2.6,-3040,38.4)">
                        <path d="M1488,288L1568,240L1632,176L1632,80" style="fill:none;stroke:rgb(26,122,230);stroke-width:2.65px;"/>
                    </g>
                    <g transform="matrix(2.5,0,0,2.6,-3040,38.4)">
                        <path d="M1528,328L1568,240L1584,340" style="fill:none;stroke:rgb(26,122,230);stroke-width:2.65px;"/>
                    </g>
                    <g transform="matrix(2.5,0,0,2.6,-3040,38.4)">
                        <path d="M1696,100L1632,176" style="fill:none;stroke:rgb(26,122,230);stroke-width:2.65px;"/>
                    </g>
                    <g transform="matrix(1.33333,0,0,1.38667,-60,17.6)">
                        <g transform="matrix(1.40625,0,0,1.875,-1567.5,0)">
                            <rect x="1456" y="128" width="32" height="32" style="fill:rgb(141,189,243);"/>
                            <path d="M1488,128L1456,128L1456,160L1488,160L1488,128ZM1484.39,130.604L1459.61,130.604C1459.61,130.604 1459.61,157.396 1459.61,157.396C1459.61,157.396 1484.39,157.396 1484.39,157.396L1484.39,130.604Z" style="fill:rgb(26,122,230);"/>
                        </g>
                        <g transform="matrix(1.40625,0,0,1.875,-1552.5,15)">
                            <rect x="1456" y="128" width="32" height="32" style="fill:rgb(141,189,243);"/>
                            <path d="M1488,128L1456,128L1456,160L1488,160L1488,128ZM1484.39,130.604L1459.61,130.604C1459.61,130.604 1459.61,157.396 1459.61,157.396C1459.61,157.396 1484.39,157.396 1484.39,157.396L1484.39,130.604Z" style="fill:rgb(26,122,230);"/>
                        </g>
                        <g transform="matrix(1.40625,0,0,1.875,-1537.5,30)">
                            <rect x="1456" y="128" width="32" height="32" style="fill:rgb(141,189,243);"/>
                            <path d="M1488,128L1456,128L1456,160L1488,160L1488,128ZM1484.39,130.604L1459.61,130.604C1459.61,130.604 1459.61,157.396 1459.61,157.396C1459.61,157.396 1484.39,157.396 1484.39,157.396L1484.39,130.604Z" style="fill:rgb(26,122,230);"/>
                        </g>
                    </g>
                    <g transform="matrix(3,0,0,2.6,-3808,38.4)">
                        <path d="M1536,144L1496,144" style="fill:none;stroke:rgb(26,122,230);stroke-width:2.41px;"/>
                    </g>
                </g>
                <g transform="matrix(1,0,0,1,920,1520)">
                    <g transform="matrix(2.8,0,0,2.92135,-3553.6,-60.2247)">
                        <path d="M1569.06,83.383C1569.11,63.853 1588.33,48 1612,48C1635.67,48 1654.89,63.853 1654.94,83.383C1665.95,66.49 1691.5,61.316 1712,71.847C1732.5,82.379 1740.24,104.663 1729.31,121.597C1748.33,111.868 1773.37,118.758 1785.2,137C1797.04,155.242 1791.23,177.985 1772.24,187.786C1794.19,187.827 1812,204.936 1812,226C1812,247.064 1794.19,264.173 1772.24,264.214C1791.23,274.015 1797.04,296.758 1785.2,315C1773.37,333.242 1748.33,340.132 1729.31,330.403C1740.24,347.337 1732.5,369.621 1712,380.153C1691.5,390.684 1665.95,385.51 1654.94,368.617C1654.89,388.147 1635.67,404 1612,404C1588.33,404 1569.11,388.147 1569.06,368.617C1558.05,385.51 1532.5,390.684 1512,380.153C1491.5,369.621 1483.76,347.337 1494.69,330.403C1475.67,340.132 1450.63,333.242 1438.8,315C1426.96,296.758 1432.78,274.015 1451.76,264.214C1429.81,264.173 1412,247.064 1412,226C1412,204.936 1429.81,187.827 1451.76,187.786C1432.78,177.985 1426.96,155.242 1438.8,137C1450.63,118.758 1475.67,111.868 1494.69,121.597C1483.76,104.663 1491.5,82.379 1512,71.847C1532.5,61.316 1558.05,66.49 1569.06,83.383Z" style="fill:rgb(220,235,251);"/>
                    </g>
                    <g transform="matrix(2.5,0,0,2.6,-2320,537.6)">
                        <circle cx="1280" cy="48" r="16" style="fill:rgb(26,122,230);"/>
                    </g>
                    <g transform="matrix(2.5,0,0,2.6,-2160,371.2)">
                        <circle cx="1280" cy="48" r="16" style="fill:rgb(26,122,230);"/>
                    </g>
                    <g transform="matrix(2.5,0,0,2.6,-1960,556.8)">
                        <circle cx="1280" cy="48" r="16" style="fill:rgb(26,122,230);"/>
                    </g>
                    <g transform="matrix(2.5,0,0,2.6,-2120,636.8)">
                        <circle cx="1280" cy="48" r="16" style="fill:rgb(26,122,230);"/>
                    </g>
                    <g transform="matrix(2.5,0,0,2.6,-2160,121.6)">
                        <circle cx="1280" cy="48" r="16" style="fill:rgb(26,122,230);"/>
                    </g>
                    <g transform="matrix(2.5,0,0,2.6,-2000,173.6)">
                        <circle cx="1280" cy="48" r="16" style="fill:rgb(26,122,230);"/>
                    </g>
                    <g transform="matrix(2.5,0,0,2.6,-2520,662.4)">
                        <circle cx="1280" cy="48" r="16" style="fill:rgb(26,122,230);"/>
                    </g>
                    <g transform="matrix(2.5,0,0,2.6,-2420,766.4)">
                        <circle cx="1280" cy="48" r="16" style="fill:rgb(26,122,230);"/>
                    </g>
                    <g transform="matrix(2.5,0,0,2.6,-2280,797.6)">
                        <circle cx="1280" cy="48" r="16" style="fill:rgb(26,122,230);"/>
                    </g>
                    <g transform="matrix(2.5,0,0,2.6,-3040,38.4)">
                        <path d="M1488,288L1568,240L1632,176L1632,80" style="fill:none;stroke:rgb(26,122,230);stroke-width:1.84px;"/>
                    </g>
                    <g transform="matrix(2.5,0,0,2.6,-3040,38.4)">
                        <path d="M1528,328L1568,240L1584,340" style="fill:none;stroke:rgb(26,122,230);stroke-width:1.84px;"/>
                    </g>
                    <g transform="matrix(2.5,0,0,2.6,-3040,38.4)">
                        <path d="M1696,100L1632,176" style="fill:none;stroke:rgb(26,122,230);stroke-width:1.84px;"/>
                    </g>
                </g>
                <g transform="matrix(-0.785714,0,0,0.785714,2994.29,657.143)">
                    <g transform="matrix(2.8,0,0,2.92135,-3553.6,-60.2247)">
                        <path d="M1569.06,83.383C1569.06,63.855 1588.3,48 1612,48C1635.7,48 1654.94,63.855 1654.94,83.383C1665.91,66.471 1691.48,61.302 1712,71.847C1732.52,82.393 1740.28,104.685 1729.31,121.597C1748.31,111.833 1773.36,118.735 1785.2,137C1797.05,155.265 1791.25,178.022 1772.24,187.786C1794.19,187.786 1812,204.909 1812,226C1812,247.091 1794.19,264.214 1772.24,264.214C1791.25,273.978 1797.05,296.735 1785.2,315C1773.36,333.265 1748.31,340.167 1729.31,330.403C1740.28,347.315 1732.52,369.607 1712,380.153C1691.48,390.698 1665.91,385.529 1654.94,368.617C1654.94,388.145 1635.7,404 1612,404C1588.3,404 1569.06,388.145 1569.06,368.617C1558.09,385.529 1532.52,390.698 1512,380.153C1491.48,369.607 1483.72,347.315 1494.69,330.403C1475.69,340.167 1450.64,333.265 1438.8,315C1426.95,296.735 1432.75,273.978 1451.76,264.214C1429.81,264.214 1412,247.091 1412,226C1412,204.909 1429.81,187.786 1451.76,187.786C1432.75,178.022 1426.95,155.265 1438.8,137C1450.64,118.735 1475.69,111.833 1494.69,121.597C1483.72,104.685 1491.48,82.393 1512,71.847C1532.52,61.302 1558.09,66.471 1569.06,83.383Z" style="fill:rgb(220,235,251);"/>
                    </g>
                    <g transform="matrix(2.5,0,0,2.6,-2320,537.6)">
                        <circle cx="1280" cy="48" r="16" style="fill:rgb(26,122,230);"/>
                    </g>
                    <g transform="matrix(2.5,0,0,2.6,-2160,371.2)">
                        <circle cx="1280" cy="48" r="16" style="fill:rgb(26,122,230);"/>
                    </g>
                    <g transform="matrix(2.5,0,0,2.6,-2160,121.6)">
                        <circle cx="1280" cy="48" r="16" style="fill:rgb(26,122,230);"/>
                    </g>
                    <g transform="matrix(2.5,0,0,2.6,-2000,173.6)">
                        <circle cx="1280" cy="48" r="16" style="fill:rgb(26,122,230);"/>
                    </g>
                    <g transform="matrix(2.5,0,0,2.6,-2520,662.4)">
                        <circle cx="1280" cy="48" r="16" style="fill:rgb(26,122,230);"/>
                    </g>
                    <g transform="matrix(2.5,0,0,2.6,-2280,797.6)">
                        <circle cx="1280" cy="48" r="16" style="fill:rgb(26,122,230);"/>
                    </g>
                    <g transform="matrix(2.5,0,0,2.6,-3040,38.4)">
                        <path d="M1488,288L1568,240L1632,176L1632,80" style="fill:none;stroke:rgb(26,122,230);stroke-width:2.34px;"/>
                    </g>
                    <g transform="matrix(2.5,0,0,2.6,-3040,38.4)">
                        <path d="M1568,240L1584,340" style="fill:none;stroke:rgb(26,122,230);stroke-width:2.34px;"/>
                    </g>
                    <g transform="matrix(2.5,0,0,2.6,-3040,38.4)">
                        <path d="M1696,100L1632,176" style="fill:none;stroke:rgb(26,122,230);stroke-width:2.34px;"/>
                    </g>
                    <g transform="matrix(-1,0,0,1,1962.73,-427.527)">
                        <g transform="matrix(1.33333,0,0,1.38667,390,527.2)">
                            <g transform="matrix(1.40625,0,0,1.875,-1567.5,0)">
                                <rect x="1456" y="128" width="32" height="32" style="fill:rgb(141,189,243);"/>
                                <path d="M1488,128L1456,128L1456,160L1488,160L1488,128ZM1484.82,130.295L1484.82,157.705C1484.82,157.705 1459.18,157.705 1459.18,157.705C1459.18,157.705 1459.18,130.295 1459.18,130.295L1484.82,130.295Z" style="fill:rgb(26,122,230);"/>
                            </g>
                            <g transform="matrix(1.40625,0,0,1.875,-1552.5,15)">
                                <rect x="1456" y="128" width="32" height="32" style="fill:rgb(141,189,243);"/>
                                <path d="M1488,128L1456,128L1456,160L1488,160L1488,128ZM1484.82,130.295L1484.82,157.705C1484.82,157.705 1459.18,157.705 1459.18,157.705C1459.18,157.705 1459.18,130.295 1459.18,130.295L1484.82,130.295Z" style="fill:rgb(26,122,230);"/>
                            </g>
                            <g transform="matrix(1.40625,0,0,1.875,-1537.5,30)">
                                <rect x="1456" y="128" width="32" height="32" style="fill:rgb(141,189,243);"/>
                                <path d="M1488,128L1456,128L1456,160L1488,160L1488,128ZM1484.82,130.295L1484.82,157.705C1484.82,157.705 1459.18,157.705 1459.18,157.705C1459.18,157.705 1459.18,130.295 1459.18,130.295L1484.82,130.295Z" style="fill:rgb(26,122,230);"/>
                            </g>
                        </g>
                        <g transform="matrix(2.5,0,0,2.6,-3040,38.4)">
                            <path d="M1584,340L1628,340" style="fill:none;stroke:rgb(26,122,230);stroke-width:2.34px;"/>
                        </g>
                    </g>
                </g>
                <g transform="matrix(2.5,0,0,2.5,-2960,-2000)">
                    <path d="M1438,1398C1465.42,1308.22 1522.53,1260.06 1608,1252" style="fill:none;stroke:rgb(26,122,230);stroke-width:1.87px;stroke-dasharray:5.62,3.75,0,0;stroke-dashoffset:7.5;"/>
                </g>
                <g transform="matrix(2.5,0,0,2.5,-2960,-2000)">
                    <path d="M1712,1096C1807.43,1059.07 1904.56,1065.6 2005,1156" style="fill:none;stroke:rgb(26,122,230);stroke-width:1.87px;stroke-dasharray:5.62,3.75,0,0;stroke-dashoffset:7.5;"/>
                </g>
                <g transform="matrix(2.5,0,0,2.5,-2960,-2000)">
                    <path d="M1664,1264C1685.75,1405.18 1634.59,1481.82 1540,1520" style="fill:none;stroke:rgb(26,122,230);stroke-width:1.87px;stroke-dasharray:5.62,3.75,0,0;stroke-dashoffset:7.5;"/>
                </g>
            </g>
        </g>
    </g>
</svg>
