<?xml version="1.0" encoding="UTF-8" standalone="no"?>
<!DOCTYPE svg PUBLIC "-//W3C//DTD SVG 1.1//EN" "http://www.w3.org/Graphics/SVG/1.1/DTD/svg11.dtd">
<svg width="100%" height="100%" viewBox="0 0 832 240" version="1.1" xmlns="http://www.w3.org/2000/svg" xmlns:xlink="http://www.w3.org/1999/xlink" xml:space="preserve" xmlns:serif="http://www.serif.com/" style="fill-rule:evenodd;clip-rule:evenodd;stroke-linecap:round;stroke-linejoin:round;stroke-miterlimit:1.5;">
    <g transform="matrix(1,0,0,1,-2,0)">
        <g id="echo-epochs" transform="matrix(0.277333,0,0,0.08,2,0)">
            <rect x="0" y="0" width="3000" height="3000" style="fill:none;"/>
            <g transform="matrix(3.60577,0,0,12.5,28.8462,0)">
                <g transform="matrix(23,-3.67394e-16,2.07248e-16,-14.6667,-1248,1146.67)">
                    <rect x="64" y="64" width="8" height="12" style="fill:rgb(209,228,250);"/>
                </g>
                <g transform="matrix(1,0,0,1,-300,-16)">
                    <g>
                        <g transform="matrix(21,0,0,4,-812,-200)">
                            <rect x="64" y="64" width="8" height="12" style="fill:rgb(140,188,242);"/>
                        </g>
                        <g transform="matrix(4,0,0,2.66667,284,-106.667)">
                            <rect x="64" y="64" width="8" height="12" style="fill:rgb(26,122,230);"/>
                        </g>
                        <g transform="matrix(4,0,0,2.66667,324,-106.667)">
                            <rect x="64" y="64" width="8" height="12" style="fill:rgb(26,122,230);"/>
                        </g>
                        <g transform="matrix(4,0,0,2.66667,364,-106.667)">
                            <rect x="64" y="64" width="8" height="12" style="fill:rgb(26,122,230);"/>
                        </g>
                        <g transform="matrix(4,0,0,2.66667,404,-106.667)">
                            <rect x="64" y="64" width="8" height="12" style="fill:rgb(26,122,230);"/>
                        </g>
                    </g>
                </g>
                <g transform="matrix(1,0,0,1,-300,40)">
                    <g>
                        <g transform="matrix(21,0,0,4,-812,-200)">
                            <rect x="64" y="64" width="8" height="12" style="fill:rgb(140,188,242);"/>
                        </g>
                        <g transform="matrix(4,0,0,2.66667,284,-106.667)">
                            <rect x="64" y="64" width="8" height="12" style="fill:rgb(26,122,230);"/>
                        </g>
                        <g transform="matrix(4,0,0,2.66667,324,-106.667)">
                            <rect x="64" y="64" width="8" height="12" style="fill:rgb(26,122,230);"/>
                        </g>
                        <g transform="matrix(4,0,0,2.66667,364,-106.667)">
                            <rect x="64" y="64" width="8" height="12" style="fill:rgb(26,122,230);"/>
                        </g>
                    </g>
                </g>
                <g transform="matrix(21,0,0,4,-1112,-104)">
                    <g>
                        <rect x="64" y="64" width="8" height="12" style="fill:rgb(140,188,242);"/>
                    </g>
                </g>
            </g>
            <g transform="matrix(3.60577,0,0,12.5,750,-8.88178e-14)">
                <g transform="matrix(23,-3.67394e-16,2.07248e-16,-14.6667,-1248,1146.67)">
                    <rect x="64" y="64" width="8" height="12" style="fill:rgb(209,228,250);"/>
                </g>
                <g transform="matrix(1,0,0,1,-300,-16)">
                    <g>
                        <g transform="matrix(21,0,0,4,-812,-200)">
                            <rect x="64" y="64" width="8" height="12" style="fill:rgb(140,188,242);"/>
                        </g>
                        <g transform="matrix(4,0,0,2.66667,284,-106.667)">
                            <rect x="64" y="64" width="8" height="12" style="fill:rgb(26,122,230);"/>
                        </g>
                    </g>
                </g>
                <g transform="matrix(1,0,0,1,-300,40)">
                    <g>
                        <g transform="matrix(21,0,0,4,-812,-200)">
                            <rect x="64" y="64" width="8" height="12" style="fill:rgb(140,188,242);"/>
                        </g>
                        <g transform="matrix(4,0,0,2.66667,284,-106.667)">
                            <rect x="64" y="64" width="8" height="12" style="fill:rgb(26,122,230);"/>
                        </g>
                        <g transform="matrix(4,0,0,2.66667,324,-106.667)">
                            <rect x="64" y="64" width="8" height="12" style="fill:rgb(26,122,230);"/>
                        </g>
                    </g>
                </g>
                <g transform="matrix(1,0,0,1,-300,96)">
                    <g>
                        <g transform="matrix(21,0,0,4,-812,-200)">
                            <rect x="64" y="64" width="8" height="12" style="fill:rgb(140,188,242);"/>
                        </g>
                        <g transform="matrix(4,0,0,2.66667,284,-106.667)">
                            <rect x="64" y="64" width="8" height="12" style="fill:rgb(26,122,230);"/>
                        </g>
                        <g transform="matrix(4,0,0,2.66667,324,-106.667)">
                            <rect x="64" y="64" width="8" height="12" style="fill:rgb(26,122,230);"/>
                        </g>
                        <g transform="matrix(4,0,0,2.66667,364,-106.667)">
                            <rect x="64" y="64" width="8" height="12" style="fill:rgb(26,122,230);"/>
                        </g>
                    </g>
                </g>
            </g>
            <g transform="matrix(3.60577,0,0,12.5,1471.15,-8.88178e-14)">
                <g transform="matrix(23,-3.67394e-16,2.07248e-16,-14.6667,-1248,1146.67)">
                    <rect x="64" y="64" width="8" height="12" style="fill:rgb(185,215,247);"/>
                </g>
                <g transform="matrix(1,0,0,1,-300,-16)">
                    <g>
                        <g transform="matrix(21,0,0,4,-812,-200)">
                            <rect x="64" y="64" width="8" height="12" style="fill:rgb(140,188,242);"/>
                        </g>
                        <g transform="matrix(4,0,0,2.66667,284,-106.667)">
                            <rect x="64" y="64" width="8" height="12" style="fill:rgb(26,122,230);"/>
                        </g>
                        <g transform="matrix(4,0,0,2.66667,324,-106.667)">
                            <rect x="64" y="64" width="8" height="12" style="fill:rgb(26,122,230);"/>
                        </g>
                    </g>
                </g>
                <g transform="matrix(1,0,0,1,-300,40)">
                    <g>
                        <g transform="matrix(21,0,0,4,-812,-200)">
                            <rect x="64" y="64" width="8" height="12" style="fill:rgb(140,188,242);"/>
                        </g>
                        <g transform="matrix(4,0,0,2.66667,284,-106.667)">
                            <rect x="64" y="64" width="8" height="12" style="fill:rgb(26,122,230);"/>
                        </g>
                    </g>
                </g>
                <g transform="matrix(1,0,0,1,-300,96)">
                    <g>
                        <g transform="matrix(21,0,0,4,-812,-200)">
                            <rect x="64" y="64" width="8" height="12" style="fill:rgb(140,188,242);"/>
                        </g>
                        <g transform="matrix(4,0,0,2.66667,284,-106.667)">
                            <rect x="64" y="64" width="8" height="12" style="fill:rgb(26,122,230);"/>
                        </g>
                        <g transform="matrix(4,0,0,2.66667,324,-106.667)">
                            <rect x="64" y="64" width="8" height="12" style="fill:rgb(26,122,230);"/>
                        </g>
                        <g transform="matrix(4,0,0,2.66667,364,-106.667)">
                            <rect x="64" y="64" width="8" height="12" style="fill:rgb(26,122,230);"/>
                        </g>
                    </g>
                </g>
            </g>
            <g transform="matrix(3.57269,0,0,12.5,15.0847,-2.84217e-12)">
                <g transform="matrix(1.00926,0,0,1,-4.22222,-112)">
                    <text x="148.688px" y="183.5px" style="font-family:'DMSans-Regular', 'DM Sans';font-size:20.833px;">f<tspan x="155.208px " y="183.5px ">e</tspan>ed</text>
                </g>
                <g transform="matrix(0.933333,0,0,1,-259.467,-16)">
                    <g transform="matrix(1.08135,-0,-0,1,273.476,16)">
                        <circle cx="240" cy="64" r="1.5" style="fill:rgb(77,77,77);"/>
                        <path d="M198.385,64L240,64" style="fill:none;stroke:rgb(77,77,77);stroke-width:1px;"/>
                    </g>
                </g>
            </g>
            <g transform="matrix(3.60577,0,0,12.5,28.8462,-2005.21)">
                <g transform="matrix(1,0,0,1,-8,104.417)">
                    <text x="106.458px" y="183.417px" style="font-family:'DMSans-Regular', 'DM Sans';font-size:20.833px;">messag<tspan x="180.146px " y="183.417px ">e</tspan></text>
                </g>
                <g transform="matrix(1.51111,0,0,1,-545.422,200.417)">
                    <g transform="matrix(0.661765,-0,-0,1,355.647,-40)">
                        <circle cx="268" cy="120" r="1.5" style="fill:rgb(77,77,77);"/>
                        <path d="M200,120L268,120" style="fill:none;stroke:rgb(77,77,77);stroke-width:1px;"/>
                    </g>
                </g>
            </g>
            <g transform="matrix(3.60577,0,0,12.5,-288.462,-2197.92)">
                <g transform="matrix(1,0,0,1,80,176)">
                    <text x="130.938px" y="183.417px" style="font-family:'DMSans-Regular', 'DM Sans';font-size:20.833px;">epoch</text>
                </g>
                <g transform="matrix(0.711111,0,0,1,-67.0222,271.833)">
                    <g transform="matrix(1.40625,-0,-0,1,206.75,-96)">
                        <circle cx="232" cy="176" r="1.5" style="fill:rgb(77,77,77);"/>
                        <path d="M200,176L232,176" style="fill:none;stroke:rgb(77,77,77);stroke-width:1px;"/>
                    </g>
                </g>
            </g>
            <g transform="matrix(14.4231,0,0,33.3333,1846.15,-133.333)">
                <path d="M66.281,76L66.281,75.297L64.875,75.297L64.875,76L66.281,76ZM68.625,76L68.625,75.297L67.219,75.297L67.219,76L68.625,76ZM70.969,76L70.969,75.297L69.562,75.297L69.562,76L70.969,76ZM72,76L72,74.031L71.531,74.031L71.531,76L72,76ZM64,73.797L64,75.906L64.469,75.906L64.469,73.797L64,73.797ZM72,70.516L71.531,70.516L71.531,72.625L72,72.625L72,70.516ZM64,70.281L64,72.391L64.469,72.391L64.469,70.281L64,70.281ZM72,67L71.531,67L71.531,69.109L72,69.109L72,67ZM64,66.766L64,68.875L64.469,68.875L64.469,66.766L64,66.766ZM72,64L70.125,64L70.125,64.703L71.531,64.703L71.531,65.594L72,65.594L72,64ZM64.5,64L64,64L64,65.359L64.469,65.359L64.469,64.703C64.469,64.703 64.5,64.703 64.5,64.703L64.5,64ZM69.188,64L67.781,64L67.781,64.703L69.188,64.703L69.188,64ZM66.844,64L65.437,64L65.437,64.703L66.844,64.703L66.844,64Z" style="fill:rgb(26,122,230);"/>
            </g>
        </g>
    </g>
</svg>
