<?xml version="1.0" encoding="UTF-8" standalone="no"?>
<!DOCTYPE svg PUBLIC "-//W3C//DTD SVG 1.1//EN" "http://www.w3.org/Graphics/SVG/1.1/DTD/svg11.dtd">
<svg width="100%" height="100%" viewBox="0 0 800 480" version="1.1" xmlns="http://www.w3.org/2000/svg" xmlns:xlink="http://www.w3.org/1999/xlink" xml:space="preserve" xmlns:serif="http://www.serif.com/" style="fill-rule:evenodd;clip-rule:evenodd;stroke-miterlimit:1;">
    <g transform="matrix(1,0,0,1,-1000,0)">
        <g id="echo-space" transform="matrix(0.266667,0,0,0.16,1000,0)">
            <rect x="0" y="0" width="3000" height="3000" style="fill:none;"/>
            <g transform="matrix(4.2,0,0,7.30337,-5330.4,-150.562)">
                <path d="M1569.06,83.383C1569.11,63.853 1588.33,48 1612,48C1635.67,48 1654.89,63.853 1654.94,83.383C1665.95,66.49 1691.5,61.316 1712,71.847C1732.5,82.379 1740.24,104.663 1729.31,121.597C1748.33,111.868 1773.37,118.758 1785.2,137C1797.04,155.242 1791.23,177.985 1772.24,187.786C1794.19,187.827 1812,204.936 1812,226C1812,247.064 1794.19,264.173 1772.24,264.214C1791.23,274.015 1797.04,296.758 1785.2,315C1773.37,333.242 1748.33,340.132 1729.31,330.403C1740.24,347.337 1732.5,369.621 1712,380.153C1691.5,390.684 1665.95,385.51 1654.94,368.617C1654.89,388.147 1635.67,404 1612,404C1588.33,404 1569.11,388.147 1569.06,368.617C1558.05,385.51 1532.5,390.684 1512,380.153C1491.5,369.621 1483.76,347.337 1494.69,330.403C1475.67,340.132 1450.63,333.242 1438.8,315C1426.96,296.758 1432.78,274.015 1451.76,264.214C1429.81,264.173 1412,247.064 1412,226C1412,204.936 1429.81,187.827 1451.76,187.786C1432.78,177.985 1426.96,155.242 1438.8,137C1450.63,118.758 1475.67,111.868 1494.69,121.597C1483.76,104.663 1491.5,82.379 1512,71.847C1532.5,61.316 1558.05,66.49 1569.06,83.383Z" style="fill:rgb(220,235,251);"/>
            </g>
            <g transform="matrix(3.75,0,0,6.5,-3480,1344)">
                <circle cx="1280" cy="48" r="16" style="fill:rgb(26,122,230);"/>
            </g>
            <g transform="matrix(3.75,0,0,6.5,-3240,928)">
                <circle cx="1280" cy="48" r="16" style="fill:rgb(26,122,230);"/>
            </g>
            <g transform="matrix(3.75,0,0,6.5,-3600,720)">
                <circle cx="1280" cy="48" r="16" style="fill:rgb(26,122,230);"/>
            </g>
            <g transform="matrix(3.75,0,0,6.5,-4560,96)">
                <path d="M1632,176L1536,144L1568,240" style="fill:none;stroke:rgb(26,122,230);stroke-width:1.84px;"/>
            </g>
            <g transform="matrix(3.75,0,0,6.5,-3240,304)">
                <circle cx="1280" cy="48" r="16" style="fill:rgb(26,122,230);"/>
            </g>
            <g transform="matrix(3.75,0,0,6.5,-3000,434)">
                <circle cx="1280" cy="48" r="16" style="fill:rgb(26,122,230);"/>
            </g>
            <g transform="matrix(3.75,0,0,6.5,-3780,1656)">
                <circle cx="1280" cy="48" r="16" style="fill:rgb(26,122,230);"/>
            </g>
            <g transform="matrix(3.75,0,0,6.5,-3630,1916)">
                <circle cx="1280" cy="48" r="16" style="fill:rgb(26,122,230);"/>
            </g>
            <g transform="matrix(3.75,0,0,6.5,-3420,1994)">
                <circle cx="1280" cy="48" r="16" style="fill:rgb(26,122,230);"/>
            </g>
            <g transform="matrix(3.75,0,0,6.5,-4560,96)">
                <path d="M1488,288L1568,240L1632,176L1632,80" style="fill:none;stroke:rgb(26,122,230);stroke-width:1.84px;"/>
            </g>
            <g transform="matrix(3.75,0,0,6.5,-4560,96)">
                <path d="M1528,328L1568,240L1584,340" style="fill:none;stroke:rgb(26,122,230);stroke-width:1.84px;"/>
            </g>
            <g transform="matrix(3.75,0,0,6.5,-4560,96)">
                <path d="M1696,100L1632,176" style="fill:none;stroke:rgb(26,122,230);stroke-width:1.84px;"/>
            </g>
            <g transform="matrix(2,0,0,3.46667,-90,44)">
                <g transform="matrix(1.40625,0,0,1.875,-1567.5,0)">
                    <rect x="1456" y="128" width="32" height="32" style="fill:rgb(141,189,243);"/>
                    <path d="M1488,128L1456,128L1456,160L1488,160L1488,128ZM1485.5,129.803L1485.5,158.197C1485.5,158.197 1458.5,158.197 1458.5,158.197C1458.5,158.197 1458.5,129.803 1458.5,129.803L1485.5,129.803Z" style="fill:rgb(26,122,230);"/>
                </g>
                <g transform="matrix(1.40625,0,0,1.875,-1552.5,15)">
                    <rect x="1456" y="128" width="32" height="32" style="fill:rgb(141,189,243);"/>
                    <path d="M1488,128L1456,128L1456,160L1488,160L1488,128ZM1485.5,129.803L1485.5,158.197C1485.5,158.197 1458.5,158.197 1458.5,158.197C1458.5,158.197 1458.5,129.803 1458.5,129.803L1485.5,129.803Z" style="fill:rgb(26,122,230);"/>
                </g>
                <g transform="matrix(1.40625,0,0,1.875,-1537.5,30)">
                    <rect x="1456" y="128" width="32" height="32" style="fill:rgb(141,189,243);"/>
                    <path d="M1488,128L1456,128L1456,160L1488,160L1488,128ZM1485.5,129.803L1485.5,158.197C1485.5,158.197 1458.5,158.197 1458.5,158.197C1458.5,158.197 1458.5,129.803 1458.5,129.803L1485.5,129.803Z" style="fill:rgb(26,122,230);"/>
                </g>
            </g>
            <g transform="matrix(2,0,0,3.46667,585,1318)">
                <g transform="matrix(1.40625,0,0,1.875,-1567.5,0)">
                    <rect x="1456" y="128" width="32" height="32" style="fill:rgb(141,189,243);"/>
                    <path d="M1488,128L1456,128L1456,160L1488,160L1488,128ZM1485.5,129.803L1485.5,158.197C1485.5,158.197 1458.5,158.197 1458.5,158.197C1458.5,158.197 1458.5,129.803 1458.5,129.803L1485.5,129.803Z" style="fill:rgb(26,122,230);"/>
                </g>
                <g transform="matrix(1.40625,0,0,1.875,-1552.5,15)">
                    <rect x="1456" y="128" width="32" height="32" style="fill:rgb(141,189,243);"/>
                    <path d="M1488,128L1456,128L1456,160L1488,160L1488,128ZM1485.5,129.803L1485.5,158.197C1485.5,158.197 1458.5,158.197 1458.5,158.197C1458.5,158.197 1458.5,129.803 1458.5,129.803L1485.5,129.803Z" style="fill:rgb(26,122,230);"/>
                </g>
                <g transform="matrix(1.40625,0,0,1.875,-1537.5,30)">
                    <rect x="1456" y="128" width="32" height="32" style="fill:rgb(141,189,243);"/>
                    <path d="M1488,128L1456,128L1456,160L1488,160L1488,128ZM1485.5,129.803L1485.5,158.197C1485.5,158.197 1458.5,158.197 1458.5,158.197C1458.5,158.197 1458.5,129.803 1458.5,129.803L1485.5,129.803Z" style="fill:rgb(26,122,230);"/>
                </g>
            </g>
            <g transform="matrix(3.75,0,0,6.5,-4560,96)">
                <path d="M1584,340L1628,340" style="fill:none;stroke:rgb(26,122,230);stroke-width:1.84px;"/>
            </g>
            <g transform="matrix(4.5,0,0,6.5,-5712,96)">
                <path d="M1536,144L1496,144" style="fill:none;stroke:rgb(26,122,230);stroke-width:1.67px;"/>
            </g>
            <g transform="matrix(3.75,0,0,6.25,1560,136)">
                <text x="32px" y="184.14px" style="font-family:'DMSans-Regular', 'DM Sans';font-size:20.833px;">node</text>
            </g>
            <g transform="matrix(3.75,0,0,6.25,1620,1257.25)">
                <text x="32px" y="184.14px" style="font-family:'DMSans-Regular', 'DM Sans';font-size:20.833px;">ﬁle</text>
            </g>
            <g transform="matrix(3.75,0,0,6.25,1350,425.25)">
                <text x="32px" y="184.14px" style="font-family:'DMSans-Regular', 'DM Sans';font-size:20.833px;">link</text>
            </g>
        </g>
    </g>
</svg>
