<?xml version="1.0" encoding="UTF-8" standalone="no"?>
<!DOCTYPE svg PUBLIC "-//W3C//DTD SVG 1.1//EN" "http://www.w3.org/Graphics/SVG/1.1/DTD/svg11.dtd">
<svg width="100%" height="100%" viewBox="0 0 672 300" version="1.1" xmlns="http://www.w3.org/2000/svg" xmlns:xlink="http://www.w3.org/1999/xlink" xml:space="preserve" xmlns:serif="http://www.serif.com/" style="fill-rule:evenodd;clip-rule:evenodd;stroke-miterlimit:1;">
    <g transform="matrix(1,0,0,1,0,-480)">
        <g id="dxns-ontology" transform="matrix(0.224,0,0,0.1,0,480)">
            <rect x="0" y="0" width="3000" height="3000" style="fill:none;"/>
            <g transform="matrix(102.679,0,0,206.667,-4625,-12866.7)">
                <g>
                    <rect x="64" y="64" width="8" height="12" style="fill:rgb(223,242,217);"/>
                </g>
            </g>
            <g transform="matrix(102.679,-1.66997e-14,4.20552e-15,-206.667,-6339.29,16066.7)">
                <rect x="64" y="64" width="8" height="12" style="fill:rgb(209,228,250);"/>
            </g>
            <g transform="matrix(93.75,0,0,33.3333,-4017.86,-1693.33)">
                <g>
                    <rect x="64" y="64" width="8" height="12" style="fill:rgb(174,223,159);"/>
                </g>
            </g>
            <g>
                <g transform="matrix(4.46429,0,0,10,1696.43,-4800)">
                    <path d="M148,564L148,588" style="fill:none;stroke:rgb(174,223,159);stroke-width:4.17px;"/>
                </g>
                <g transform="matrix(4.46429,0,0,10,1696.43,-4160)">
                    <path d="M148,564L148,588" style="fill:none;stroke:rgb(174,223,159);stroke-width:4.17px;"/>
                </g>
                <g transform="matrix(4.46429,0,0,10,1696.43,-3520)">
                    <path d="M148,564L148,588" style="fill:none;stroke:rgb(174,223,159);stroke-width:4.17px;"/>
                </g>
            </g>
            <g transform="matrix(93.75,0,0,33.3333,-4017.86,-1053.33)">
                <g>
                    <rect x="64" y="64" width="8" height="12" style="fill:rgb(174,223,159);"/>
                </g>
            </g>
            <g transform="matrix(93.75,0,0,33.3333,-4017.86,-413.333)">
                <g>
                    <rect x="64" y="64" width="8" height="12" style="fill:rgb(174,223,159);"/>
                </g>
            </g>
            <g transform="matrix(93.75,0,0,33.3333,-4017.86,226.667)">
                <g>
                    <rect x="64" y="64" width="8" height="12" style="fill:rgb(174,223,159);"/>
                </g>
            </g>
            <g transform="matrix(93.75,0,0,33.3333,-5732.14,-1693.33)">
                <g>
                    <rect x="64" y="64" width="8" height="12" style="fill:rgb(140,188,242);"/>
                </g>
            </g>
            <g transform="matrix(93.75,0,0,33.3333,-5732.14,-1053.33)">
                <g>
                    <rect x="64" y="64" width="8" height="12" style="fill:rgb(140,188,242);"/>
                </g>
            </g>
            <g transform="matrix(93.75,0,0,33.3333,-5732.14,-413.333)">
                <g>
                    <rect x="64" y="64" width="8" height="12" style="fill:rgb(140,188,242);"/>
                </g>
            </g>
            <g transform="matrix(93.75,0,0,33.3333,-5732.14,226.667)">
                <g>
                    <rect x="64" y="64" width="8" height="12" style="fill:rgb(140,188,242);"/>
                </g>
            </g>
            <g transform="matrix(4.46429,0,0,10,142.857,-1120)">
                <text x="78.833px" y="183.5px" style="font-family:'DMSans-Medium', 'DM Sans';font-weight:500;font-size:20.833px;">BRANE</text>
            </g>
            <g transform="matrix(4.46429,0,0,10,142.857,-1600)">
                <text x="96.416px" y="180.5px" style="font-family:'DMSans-Regular', 'DM Sans';font-size:12.5px;">D<tspan x="104.491px 111.804px 117.816px " y="180.5px 180.5px 180.5px ">ATA</tspan></text>
            </g>
            <g transform="matrix(4.46429,0,0,10,1857.14,-1600)">
                <text x="86.3px" y="180.5px" style="font-family:'DMSans-Regular', 'DM Sans';font-size:12.5px;">IDENTITY</text>
            </g>
            <g transform="matrix(4.46429,0,0,10,1857.14,-1112.92)">
                <text x="76.344px" y="183.5px" style="font-family:'DMSans-Medium', 'DM Sans';font-weight:500;font-size:20.833px;">CIRCLE</text>
            </g>
            <g transform="matrix(4.46429,0,0,10,142.857,-472.917)">
                <text x="80.99px" y="183.5px" style="font-family:'DMSans-Regular', 'DM Sans';font-size:20.833px;">SP<tspan x="103.26px 116.26px " y="183.5px 183.5px ">AC</tspan>E</text>
            </g>
            <g transform="matrix(4.46429,0,0,10,1857.14,-480)">
                <text x="76.906px" y="183.5px" style="font-family:'DMSans-Regular', 'DM Sans';font-size:20.833px;">GROUP</text>
            </g>
            <g transform="matrix(4.46429,0,0,10,142.857,160)">
                <text x="83.531px" y="183.5px" style="font-family:'DMSans-Regular', 'DM Sans';font-size:20.833px;">NODE</text>
            </g>
            <g transform="matrix(4.46429,0,0,10,1857.14,160)">
                <text x="78.729px" y="183.5px" style="font-family:'DMSans-Regular', 'DM Sans';font-size:20.833px;">A<tspan x="91.729px " y="183.5px ">G</tspan>ENT</text>
            </g>
            <g transform="matrix(4.46429,0,0,10,142.857,807.083)">
                <text x="76.417px" y="183.5px" style="font-family:'DMSans-Regular', 'DM Sans';font-size:20.833px;">MODEL</text>
            </g>
            <g transform="matrix(4.46429,0,0,10,1857.14,800)">
                <text x="51.51px" y="183.5px" style="font-family:'DMSans-Regular', 'DM Sans';font-size:20.833px;">CREDENTIAL</text>
            </g>
            <g transform="matrix(4.38312,0,0,10,18.5065,-4040)">
                <path d="M228,468L448,468" style="fill:none;stroke:rgb(77,77,77);stroke-width:1.26px;stroke-dasharray:3.78,2.52,0,0;stroke-dashoffset:5.05;"/>
            </g>
            <g transform="matrix(4.38312,0,0,10,18.5065,-3400)">
                <path d="M228,468L448,468" style="fill:none;stroke:rgb(77,77,77);stroke-width:1.26px;stroke-dasharray:3.78,2.52,0,0;stroke-dashoffset:5.05;"/>
            </g>
            <g>
                <g transform="matrix(4.46429,0,0,10,0,-4800)">
                    <path d="M148,564L148,588" style="fill:none;stroke:rgb(140,188,242);stroke-width:4.17px;"/>
                </g>
                <g transform="matrix(4.46429,0,0,10,3.8014e-13,-4160)">
                    <path d="M148,564L148,588" style="fill:none;stroke:rgb(140,188,242);stroke-width:4.17px;"/>
                </g>
                <g transform="matrix(4.46429,0,0,10,5.07023e-13,-3520)">
                    <path d="M148,564L148,588" style="fill:none;stroke:rgb(140,188,242);stroke-width:4.17px;"/>
                </g>
            </g>
        </g>
    </g>
</svg>
