<?xml version="1.0" encoding="UTF-8" standalone="no"?>
<!DOCTYPE svg PUBLIC "-//W3C//DTD SVG 1.1//EN" "http://www.w3.org/Graphics/SVG/1.1/DTD/svg11.dtd">
<svg xmlns:xlink="http://www.w3.org/1999/xlink" xml:space="preserve" xmlns:serif="http://www.serif.com/" xmlns="http://www.w3.org/2000/svg"
     width="100%" height="100%"
     viewBox="0 0 256 256"
     version="1.1"
     style="fill-rule:evenodd;clip-rule:evenodd;stroke-linejoin:round;stroke-miterlimit:2;"><path d="M127.96,85.307l2.83,-2.058l113.742,156.395l-4.684,5.025l-111.888,-69.93l-111.888,69.93l-4.684,-5.025l113.742,-156.395l2.83,2.058Zm100.309,143.873l-100.309,-137.925l-100.309,137.925l98.455,-61.534l3.708,0l98.455,61.534Z" style="fill:#fff;"/>
  <path d="M127.96,81.181l111.888,-69.93l4.684,5.025l-113.742,156.395l-2.83,-2.058l-2.83,2.058l-113.742,-156.395l4.684,-5.025l111.888,69.93Zm-100.309,-54.441l100.309,137.925l100.309,-137.925l-98.455,61.534l-3.708,-0l-98.455,-61.534Z" style="fill:#fff;"/>
  <rect x="124.467" y="85.307" width="6.998" height="85.307" style="fill:#fff;"/>
</svg>
