<?xml version="1.0" encoding="UTF-8" standalone="no"?><!DOCTYPE svg PUBLIC "-//W3C//DTD SVG 1.1//EN" "http://www.w3.org/Graphics/SVG/1.1/DTD/svg11.dtd"><svg width="100%" height="100%" viewBox="0 0 1280 800" version="1.1" xmlns="http://www.w3.org/2000/svg" xmlns:xlink="http://www.w3.org/1999/xlink" xml:space="preserve" xmlns:serif="http://www.serif.com/" style="fill-rule:evenodd;clip-rule:evenodd;stroke-linejoin:round;stroke-miterlimit:2;"><rect x="295" y="130" width="215" height="60" style="fill:#25fff6;"/><g><rect x="370" y="135" width="65" height="50" style="fill:#c8f3ff;"/><rect x="375" y="140" width="10" height="10" style="fill:#00c0bb;"/><rect x="375" y="155" width="10" height="10" style="fill:#00c0bb;"/><rect x="390" y="155" width="10" height="10" style="fill:#00c0bb;"/><rect x="405" y="155" width="10" height="10" style="fill:#00c0bb;"/><rect x="375" y="170" width="10" height="10" style="fill:#00c0bb;"/><rect x="390" y="170" width="10" height="10" style="fill:#00c0bb;"/></g><g><rect x="440" y="135" width="65" height="50" style="fill:#c8f3ff;"/><rect x="445" y="140" width="10" height="10" style="fill:#00c0bb;"/><rect x="445" y="155" width="10" height="10" style="fill:#00c0bb;"/><rect x="460" y="155" width="10" height="10" style="fill:#00c0bb;"/><rect x="475" y="170" width="10" height="10" style="fill:#00c0bb;"/><rect x="445" y="170" width="10" height="10" style="fill:#00c0bb;"/><rect x="460" y="170" width="10" height="10" style="fill:#00c0bb;"/><rect x="460" y="140" width="10" height="10" style="fill:#00c0bb;"/><rect x="475" y="140" width="10" height="10" style="fill:#00c0bb;"/></g><g><rect x="300" y="135" width="65" height="50" style="fill:#c8f3ff;"/><rect x="305" y="140" width="10" height="10" style="fill:#00c0bb;"/><rect x="305" y="155" width="10" height="10" style="fill:#00c0bb;"/><rect x="320" y="155" width="10" height="10" style="fill:#00c0bb;"/><rect x="335" y="155" width="10" height="10" style="fill:#00c0bb;"/><rect x="350" y="155" width="10" height="10" style="fill:#00c0bb;"/><rect x="305" y="170" width="10" height="10" style="fill:#00c0bb;"/><rect x="320" y="170" width="10" height="10" style="fill:#00c0bb;"/><rect x="320" y="140" width="10" height="10" style="fill:#00c0bb;"/><rect x="335" y="140" width="10" height="10" style="fill:#00c0bb;"/></g></svg>